<?xml version="1.0" encoding="utf-8"?>
<!-- Generator: Adobe Illustrator 24.3.0, SVG Export Plug-In . SVG Version: 6.00 Build 0)  -->
<svg version="1.1" id="Layer_1" xmlns="http://www.w3.org/2000/svg" xmlns:xlink="http://www.w3.org/1999/xlink" x="0px" y="0px"
	 viewBox="0 0 1080 1080" style="enable-background:new 0 0 1080 1080;" xml:space="preserve">
<style type="text/css">
	.st0{fill:#00008B;}
	.st1{fill:#00008B;stroke:#00008B;stroke-width:21.1213;stroke-miterlimit:10;}
</style>
<g>
	<g>
		<g>
			<path class="st0" d="M664.8,624.9C654,538.7,641,452.6,632,366.1c-2.6-25.3,1.5-52.8,9.2-77.3c7.6-24.5,7.2-34.5-18.7-38
				c-56.2-7.6-112.7-14.8-169.2-18.7c-35.3-2.4-71.1,0.4-106.5,2.8c-21.9,1.5-26.7,10-19.7,29.9c10.2,28.8,8.5,56.9-4.4,83.8
				c-19,39.6-38.9,78.7-59.2,117.6c-27.8,53.3-50.3,108.5-59.2,168.3c-7.7,51.7,11.5,84,62,92.9c47.6,8.4,96.4,10,144.7,14.7
				l-0.2,1.8c43,4.1,85.9,9.5,129,12.1C624.9,761.2,675.3,708,664.8,624.9z M619.3,391c0,6.8-7.7,13.6-11.9,20.3
				c-2.1-1.4-4.3-2.9-6.4-4.3c-10.7-56.3-7.2-76.1,13.7-76.1C616.4,350.9,619.4,370.9,619.3,391z M330.9,248.9
				c96.3-12.9,189.4-0.6,288.6,11.8c-12.6,20.7-22.3,37.9-33.7,53.9c-1.9,2.7-11.2,0.7-17,0.2c-67.1-6.5-134.1-13.2-201.2-19.5
				c-7.4-0.7-15,0.5-24.9,0.9C339.1,281.4,335.6,267.6,330.9,248.9z M342.3,315.1c1.7-4.7,10.2-9.7,15.7-9.8
				c76-1.7,150.5,10.3,224.9,25c1,28.1,2,54.3,3,82.8l-267-25.6C326.9,362.1,333.7,338.2,342.3,315.1z M254.6,509.5
				c16-33.4,33.5-66.2,49.4-99.6c5.5-11.6,13-14.9,25-13.5c82,10,164.1,19.4,246.1,29.9c5,0.6,12.4,8.5,12.9,13.7
				c6,55.6,10.8,111.3,16.5,172.1c-124.6-16.1-246.5-31.9-372.1-48.1C239.8,545.6,246.2,527.1,254.6,509.5z M585,728.3
				c-6.5,7.4-18.8,15-27.7,14.3c-96.7-7.9-193.3-16.2-289.7-26.9c-38.6-4.3-56.8-29.4-53.4-68.2c2-23.2,8-46,13.1-74
				c127.3,18,250.9,35.5,377.3,53.3C601.7,661.6,611.3,698.4,585,728.3z M601.2,433.5c-0.4-6.1,10.1-13.1,15.5-19.6l5.4,3.9
				c8.2,55,17.3,109.9,23.3,165.1c0.8,7.1-14.9,15.9-22.9,24c-2-1.6-4.1-3.3-6.1-4.9C611.2,545.9,605.3,489.8,601.2,433.5z
				 M608.5,725.2c2.6-27.1,7.3-54.5,7.2-81.8c-0.1-23.9,10.6-32,31.7-32.7C664.3,668.5,652,703.5,608.5,725.2z"/>
			<path class="st0" d="M607.4,411.3c-2.1-1.4-4.3-2.9-6.4-4.3c-10.7-56.3-7.2-76.1,13.7-76.1c1.8,20,4.7,40,4.7,60.1
				C619.3,397.8,611.6,404.5,607.4,411.3z"/>
			<path class="st0" d="M622.6,606.9c-2-1.6-4.1-3.3-6.1-4.9c-5.3-56.2-11.2-112.3-15.3-168.5c-0.4-6.1,10.1-13.1,15.5-19.6l5.4,3.9
				c8.2,55,17.3,109.9,23.3,165.1C646.3,590,630.6,598.9,622.6,606.9z"/>
			<path class="st0" d="M608.5,725.2c2.6-27.1,7.3-54.5,7.2-81.8c-0.1-23.9,10.6-32,31.7-32.7C664.3,668.5,652,703.5,608.5,725.2z"
				/>
			<path class="st0" d="M297.5,697.8c-51.3,2.8-71.7-25.2-56.3-76.3C234.2,665.6,251.1,692.4,297.5,697.8z"/>
			<path class="st0" d="M588,440c-0.6-5.1-7.9-13-12.9-13.7c-81.9-10.5-164-19.9-246.1-29.9c-12.1-1.5-19.5,1.9-25,13.5
				c-16,33.4-33.5,66.2-49.4,99.6c-8.4,17.6-14.8,36.1-22.2,54.4c125.6,16.2,247.5,32,372.1,48.1C598.9,551.2,594,495.5,588,440z
				 M445.6,426.9c4.3-4.6,10.1-4.4,15-0.2c6.7,5.7,8.9,13.4,9.5,21.8c0.8,11.1-4.1,19-13.8,24c-2.5,1.3-5.6,1.7-8.4,2.5
				c-8.6-1.5-13.8-6.4-14.6-14.8C431.9,447.1,437,436.2,445.6,426.9z M411.7,419.1c5.6-2.2,9.5-1.2,12.9,3.9
				c4.2,6.3,5,13.5,5.4,20.8c0.3,6-0.3,11.7-3.4,17c-5.6,9.7-17.8,11.2-25.5,3.1c-5.7-6-7.9-12-7.1-21.5
				C396.2,433.4,400.3,423.7,411.7,419.1z M360.9,464.9c0.9-6.6,3.7-12.1,9-16.3c4.1-3.2,8.5-3.7,12.6-0.4c2.8,2.3,5.3,5.1,7.5,8
				c5.3,7.3,8.5,18,7.8,25.5c-0.3,5.8-2.8,10.6-8.6,13.2c-7,3.1-13.2,1.2-19-3C360.7,485.1,359.4,475.4,360.9,464.9z M468.2,543.7
				c-1.2,6.7-5.2,11-12.2,12.2c-2.2-0.2-4.4-0.4-6.6-0.6c-11.1-5.2-22-10.6-34.4-12.2c-8.4-1.1-16.7-0.4-25,0.9
				c-3.8,0.6-7.8,1-11.5,0.4c-7.8-1.3-11.7-5.8-11.8-13.8c-0.1-8.4,1.1-16.7,7.2-23.1c2-2.2,5.2-4.1,8.1-4.5
				c7.7-1.1,13.2-5.3,18.2-10.6c2.5-2.6,4.5-5.6,6.7-8.4c3.9-4.8,8.8-8.1,15-9c7.9-1.1,13.9,2.7,18,9c2.8,4.2,4.1,9.3,6.5,13.7
				c2.4,4.4,5.3,8.6,8.2,12.7c1,1.4,2.7,2.5,4.3,3.1c7.8,2.9,10.7,9.1,10.8,16.6C469.9,534.6,469.1,539.2,468.2,543.7z M493.2,489
				c-1.7,3.7-3,7.6-5.2,10.9c-5.2,7.7-16.6,11.6-24.2,8.7c-9-3.4-13.1-10.9-10-20.1c3.8-11.3,11.5-19.8,22.1-25.2
				c6.4-3.3,11.7-1.5,14.9,5c1.7,3.3,2.3,7.1,3.4,10.7C493.9,482.2,493.5,485.6,493.2,489z"/>
		</g>
		<path class="st0" d="M733.4,799.5c0-0.6-7.3-1.6-20.6-3.4c-13.3-1.8-32.5-4.5-56.2-8.6c-23.6-4-51.7-9.6-82.8-16.1
			c-31.1-6.5-65.2-13.9-101.3-20.9c-36.1-6.9-70.7-12.4-102.5-15.6c-31.7-3.3-60.5-4.4-84.7-3.7c-24.1,0.6-43.6,2.5-56.9,4.6
			c-13.3,2.1-20.6,3.8-20.5,4.3c0.1,0.6,7.5-0.2,20.9-1.3c13.4-1.2,32.7-2.3,56.7-2.2c23.9,0,52.4,1.7,83.9,5.3
			c31.5,3.6,65.9,9.2,101.8,16.1c36,7.2,70.2,14,101.4,20.3c31.2,6.1,59.5,11.1,83.3,14.5c23.8,3.4,43.3,5.4,56.7,6.3
			C725.9,799.9,733.4,799.9,733.4,799.5z"/>
	</g>
</g>
</svg>
