<?xml version="1.0" encoding="utf-8"?>
<!-- Generator: Adobe Illustrator 24.3.0, SVG Export Plug-In . SVG Version: 6.00 Build 0)  -->
<svg version="1.1" id="Layer_1" xmlns="http://www.w3.org/2000/svg" xmlns:xlink="http://www.w3.org/1999/xlink" x="0px" y="0px"
	 viewBox="0 0 1186.6 894.3" style="enable-background:new 0 0 1186.6 894.3;" xml:space="preserve">
<style type="text/css">
	.st0{fill:#FCD5FF;}
	.st1{fill:#00008B;}
	.st2{fill:#ECAAEE;}
	.st3{fill:#FFB4E7;}
	.st4{fill:#EAD5B9;}
	.st5{fill:#C8F657;}
	.st6{fill:#C2ACD2;}
	.st7{fill:#0B4884;}
	.st8{fill:#D8F476;}
	.st9{fill:#E179E6;}
	.st10{fill:#EEFFB1;}
	.st11{fill:#DCA87F;}
	.st12{fill:#BC85F2;}
	.st13{opacity:0.17;}
	.st14{fill:#6D5B32;}
	.st15{fill:#D1C09A;}
	.st16{fill:#F5F2C3;}
	.st17{fill:#FFF6BD;}
	.st18{fill:#FF81CB;}
	.st19{fill:none;stroke:#00008B;stroke-width:1.2974;stroke-miterlimit:10;}
	.st20{fill:#BBED0A;}
	.st21{fill:#9630EE;}
	.st22{fill:#BDE3F9;}
	.st23{fill:#93D6F7;}
	.st24{fill:#E1B0C5;}
	.st25{fill:#ECD2DF;}
	.st26{fill:#DF9EBD;}
	.st27{opacity:0.69;}
	.st28{fill:#FFDAF1;}
	.st29{fill:#F6A2FF;}
	.st30{fill:#FFEE76;}
	.st31{fill:none;}
	.st32{fill:#2A2E7E;}
	.st33{fill:#FFDA10;}
	.st34{fill:#A7EBF4;}
	.st35{fill:#FFE945;}
	.st36{fill:none;stroke:#0B4884;stroke-width:3.2169;stroke-miterlimit:10;}
	.st37{fill:#B275F0;}
	.st38{fill:#00008B;stroke:#00008B;stroke-width:1.4343;stroke-miterlimit:10;}
</style>
<g>
	<g>
		<path class="st5" d="M16.7,665c-17.7-23.8-13-64.4,2.5-92.8c39.5-72.4,142.9-53.9,164.6-112.8c11.9-32.3-20-46.7-16.1-82.1
			c7.7-69.8,135.3-87.7,279.7-160.6C644.1,117.5,746.6-20.4,787,9.5c23.4,17.3-1.5,70,23.4,84c40.2,22.4,128.7-100.6,178.3-78.1
			c37.1,16.8,10.7,95.8,59.1,124.4c36.7,21.8,74.4-10.5,106.2,12.1c37.2,26.5,25.9,99.6,24.6,107.7
			c-20.5,132.7-243.9,153.3-520.9,323.5C408,736.6,248,929.8,159.5,881.4c-39-21.3-55.5-53.4-55.5-53.4
			c-27.1-52.9,5-99.6-25.8-131.3C57.3,675.2,33.7,687.9,16.7,665z"/>
		<path class="st1" d="M190.2,894.3c-11.9,0-22.9-2.6-33.2-8.2c-40-21.9-57-54.3-57.7-55.7c-13.9-27-13-52.3-12.2-74.6
			C88,733,88.6,715,74.4,700.4c-9-9.3-18.5-11.4-28.6-13.6c-11.5-2.6-23.5-5.2-33.4-18.5l0,0c-19.6-26.3-13.8-69.5,2.1-98.5
			c21.4-39.2,60.6-53,95.2-65.1c31.9-11.2,59.4-20.8,69-47c5.5-15,0.4-25.2-6-38c-5.8-11.6-12.4-24.7-10.4-42.8
			c5.5-50.2,66.2-74.2,150.2-107.4c40-15.8,85.3-33.7,132.4-57.4c94.9-47.9,168.6-105.4,222.4-147.5c61.6-48.1,98.7-77.1,122.9-59.3
			c13.7,10.1,13.5,28.7,13.3,46.8c-0.2,16.1-0.3,31.3,9.6,36.9c16.4,9.2,47-13.9,76.6-36.2c35.8-27,72.9-55,101.4-42
			c20,9.1,23.7,32.5,27.6,57.2c4.2,26.3,8.5,53.6,31.9,67.5c16.7,9.9,33.6,7.6,51.4,5.1c18.4-2.6,37.5-5.3,55.1,7.3
			c37,26.4,29.9,93,26.8,112.8c-6.1,39.3-29.7,71.6-74.4,101.8c-40.7,27.5-96.9,52.1-161.9,80.7c-80.5,35.4-180.7,79.4-287.1,144.7
			C568.3,644.4,489.2,705.8,419.5,760C321.8,835.8,246.5,894.3,190.2,894.3z M773.9,10.7c-20.3,0-54.9,27-100,62.2
			c-54.2,42.3-128.4,100.3-224.2,148.6c-47.5,24-93.1,42-133.2,57.8c-80.6,31.8-138.8,54.8-143.6,98.6c-1.6,15,3.7,25.6,9.4,36.9
			c6.7,13.3,13.6,27.1,6.5,46.5c-11.3,30.8-42.5,41.8-75.5,53.3c-34.4,12.1-70,24.5-89.4,60.2c-13.9,25.4-19.6,64.6-2.9,87.1l0,0
			c7.6,10.2,16.6,12.2,27.2,14.5c10.6,2.4,22.7,5,34,16.6c17.4,17.9,16.6,39.9,15.7,63.2c-0.8,22-1.6,44.8,11,69.4
			c0.2,0.3,16.3,31,53.3,51.2c8.6,4.7,18.1,6.9,28.3,6.9c52.4,0,126.3-57.4,222.5-132.1c70-54.3,149.3-115.9,242-172.9
			c107-65.8,207.6-109.9,288.4-145.4c131.2-57.6,217.9-95.7,230-174.4c2-13,10.4-79.1-22.5-102.5c-14.2-10.1-29.6-8-47.5-5.4
			c-18,2.5-38.4,5.4-58.3-6.4c-27.8-16.5-32.7-47.6-37-75c-3.6-22.8-6.7-42.5-21.5-49.2C963.9,9.9,929.4,35.9,896,61.1
			c-27.4,20.7-53.6,40.5-74.5,40.5c-4.9,0-9.4-1.1-13.6-3.4c-15.4-8.6-15.2-27.8-15-46.3c0.2-16,0.3-31.2-9-38.1
			C781.1,11.7,777.7,10.7,773.9,10.7z"/>
	</g>
	<g>
		<path class="st1" d="M315.1,546.9c-7.8,4.5-14.2,7.8-19,10c-1.6,0.7-3.2,0.9-4.7,0.5c-1.5-0.3-2.7-1.2-3.5-2.6
			c-28.5-49.6-48.8-88.5-60.9-116.7c-0.6-1.4-0.6-2.8,0-4.2c0.5-1.4,1.4-2.6,2.7-3.6c3.9-2.9,8.9-6,15-9.5
			c8.3-4.8,14.7-8.1,19.1-10.1c1.8-0.7,3.5-0.7,5.1-0.2c1.5,0.6,2.6,1.7,3.3,3.4c5.1,11.9,10.6,23.3,16.6,34c1.9,3.2,4.3,5,7.4,5.5
			c3.1,0.4,6.4-0.4,9.9-2.4c2.3-1,4.4-2.2,6.4-3.7c3.5-2,5.9-4.5,7-7.3c1.2-2.9,0.9-5.9-1-9.1c-1.5-2.6-3.3-5.5-5.3-8.6
			c-2-3.1-3.6-5.6-4.9-7.5c-1.3-1.9-3.2-4.7-5.7-8.2c-2.5-3.5-4.2-5.9-5.1-7.2c-1.1-1.6-1.6-3.2-1.3-4.8c0.3-1.6,1.2-3,2.7-4.3
			c3.1-2.2,9.3-6,18.7-11.4c5.5-3.2,10.7-5.9,15.5-8.2c3.5-1.2,6.2-0.6,8,1.8c18.2,24.7,41.6,61.8,70.1,111.5
			c0.8,1.4,0.9,2.8,0.5,4.3c-0.5,1.5-1.4,2.8-2.8,3.8c-4.3,3.1-10.4,6.9-18.3,11.5c-9.2,5.3-16.1,9-20.8,11
			c-1.7,0.8-3.3,0.9-4.9,0.4c-1.5-0.5-2.7-1.7-3.5-3.6c-0.8-1.8-2-4.6-3.8-8.5c-1.7-3.9-3.1-6.9-4.1-9.1c-1-2.2-2.3-4.9-3.9-8.1
			c-1.6-3.1-3.1-6-4.6-8.5c-1.9-3.2-4.3-5.1-7.3-5.6c-3-0.5-6.3,0.2-9.9,2.1l-6.7,3.9c-3.4,2.1-5.6,4.6-6.6,7.4
			c-1,2.8-0.6,5.8,1.2,9.1c4.1,7.2,11.2,17.6,21.2,31.3c1.3,1.7,1.7,3.3,1.3,4.9c-0.4,1.6-1.3,2.9-2.8,4
			C331.2,537.4,324.4,541.6,315.1,546.9z"/>
	</g>
	<g>
		<path class="st1" d="M489.7,447.6c-10.1,5.8-19.5,9.9-28.4,12.3c-8.8,2.4-17.5,3.1-25.9,2.1s-16.4-4.4-23.9-10.2
			c-7.5-5.8-14.3-14-20.3-24.6c-12.2-21.2-15.8-41.3-11-60.4c4.9-19.1,17.1-34.3,36.7-45.7c19.8-11.3,39.1-14.3,58.1-8.8
			c18.9,5.5,34.5,18.8,46.7,40c4.9,8.5,8.2,16.7,9.9,24.5c1.7,7.8,2,14.9,0.8,21.5c-1.2,6.5-3.7,12.8-7.6,18.8
			c-3.9,6-8.7,11.5-14.5,16.4C504.6,438.2,497.7,443,489.7,447.6z M452,413.5c5.5,1.9,11.1,1.2,16.9-2.1c5.8-3.3,9.3-7.9,10.4-13.5
			c1.1-5.7-0.7-12.6-5.3-20.7c-5.1-8.8-11-15.1-17.7-19c-6.7-3.8-12.9-4.2-18.5-0.9c-5.5,3.2-8.3,8.7-8.4,16.4
			c-0.1,7.8,2.4,16.1,7.4,24.8C441.5,406.6,446.6,411.6,452,413.5z"/>
	</g>
	<g>
		<path class="st1" d="M586.9,390.8c-8.1,4.6-14.5,8-19.3,10.2c-1.5,0.7-3,0.8-4.5,0.3c-1.5-0.5-2.7-1.4-3.5-2.9
			c-17.8-32.9-36.1-72.9-55-119.9c-0.5-1.4-0.5-2.8,0-4.1c0.5-1.3,1.3-2.4,2.5-3.4c4.1-3,10.6-7,19.4-12c8.2-4.7,14.7-8.1,19.3-10.2
			c4.8-2,9-1.3,12.5,2c1.4,1.5,4.8,5.1,10.2,10.9c5.3,5.8,9.4,10,12,12.7c11.1,10.8,18.3,15.3,21.5,13.5c3.1-1.8,2.8-9.8-0.7-24.3
			c-0.7-2.6-1.8-6.4-3.2-11.2c-1.4-4.9-2.6-9-3.6-12.6c-1-3.5-1.7-6.3-2.3-8.4c-1.3-4.7,0.2-8.6,4.3-11.7c4.1-3,10.2-6.8,18.3-11.5
			c8.3-4.8,15.1-8.4,20.4-10.8c1.4-0.6,2.8-0.8,4.2-0.5c1.4,0.2,2.5,0.9,3.5,2.1c31.4,40.3,56.6,76.3,75.9,107.9
			c0.9,1.5,1.1,3,0.8,4.5c-0.4,1.5-1.2,2.8-2.6,3.8c-4.1,3-10.2,6.8-18.2,11.4c-10.4,6-17.4,9.7-21,11.1c-1.6,0.7-3.1,0.8-4.6,0.3
			c-1.5-0.5-2.6-1.6-3.4-3.3c-6.1-14-12.8-27.2-20.2-39.6c-8.4-14.3-14.2-20.6-17.3-18.8c-0.9,0.5-1.4,1.4-1.7,2.6
			c-0.3,1.2-0.2,3,0.2,5.4c0.4,2.4,0.8,4.5,1.3,6.4c0.4,1.9,1.1,4.7,2.1,8.4c0.3,1.1,0.5,2,0.7,2.6c0.7,2.5,1.6,6.2,2.7,11.2
			c1.2,5,2.1,8.8,2.7,11.2c1.2,5.1,1.2,9.2,0.3,12.5c-1,3.2-3.1,5.8-6.4,7.7c-3.2,1.8-6.4,2.3-9.6,1.4c-3.2-0.9-6.7-3.1-10.5-6.5
			c-6.5-5.8-12.3-11.3-17.6-16.6c-5.2-5.4-9.4-9.3-12.5-11.7c-3.1-2.4-5.5-3.1-7.2-2.1c-3.2,1.8-0.7,10,7.5,24.6
			c5.6,10.1,13.5,22.3,23.7,36.7c1.1,1.5,1.5,3,1.1,4.6c-0.3,1.5-1.2,2.8-2.6,3.9C603.7,380.9,597.1,385,586.9,390.8z"/>
	</g>
	<g>
		<path class="st1" d="M786.8,276.1c-26.4,15.2-43,24.4-49.6,27.6c-1.5,0.7-3,0.9-4.5,0.5c-1.5-0.4-2.7-1.3-3.5-2.7
			c-26.7-47.5-47.1-86.5-61-116.9c-0.6-1.4-0.6-2.8-0.1-4.1c0.5-1.3,1.4-2.4,2.7-3.3c7.1-4.7,22-13.6,44.7-26.6
			c21.5-12.4,36.9-20.9,46.2-25.6c1.5-0.8,2.9-1,4.2-0.6c1.4,0.4,2.5,1.2,3.5,2.6c5.8,8.9,12.9,20.3,21.2,34.1
			c1.3,2.3,1.3,4.2,0,5.7c-1.3,1.5-3.3,2-6.1,1.3c-14.2-2-28.5,1.1-42.7,9.2c-5.7,3.3-9.6,6.7-11.6,10.2c-2,3.5-2.2,6.8-0.5,9.8
			l0.5,1c3.1,5.4,10.6,4.7,22.4-2c2.4-1.4,5-2.9,7.6-4.6c2.6-1.7,5.6-3.6,8.8-5.7c3.2-2.1,5.8-3.8,7.8-5c1.4-1,2.9-1.4,4.5-1.1
			c1.6,0.3,2.8,1.1,3.6,2.6l8.1,14.4c1,1.8,1.1,3.3,0.2,4.6c-0.9,1.3-2.2,1.8-4.1,1.6c-10.1,0.7-19.2,3.4-27.3,8.3
			c-5.9,3.6-9.9,7.1-11.9,10.5c-2,3.5-1.9,7.1,0.3,11l1.6,2.8c2.6,4.5,6.6,6.7,12.1,6.6c5.5-0.1,11.9-2.3,19.3-6.5
			c9.2-5.3,15.7-10.9,19.6-16.7s6.1-13.5,6.7-23.1c0-1.6,0.6-3,1.7-4c1.1-1,2.4-1.5,3.8-1.3c1.5,0.2,2.8,1,3.8,2.5
			c8,10.7,17.1,24.4,27.4,41.2c0.8,1.4,1,2.8,0.7,4.2c-0.3,1.4-1.2,2.6-2.5,3.4C836.9,247,817.7,258.3,786.8,276.1z"/>
	</g>
	<g>
		<g>
			<path class="st1" d="M215.4,798.9c-7.5,4.3-15,7.1-22.3,8.3c-7.3,1.2-14.6,0.9-21.7-1.1c-7.1-2-14.1-5.9-20.8-12
				c-6.7-6-12.9-14-18.6-23.8c-5.9-10.2-9.6-20.6-11.1-31.2c-1.5-10.5-0.9-20.6,1.8-30c2.7-9.5,7.4-18.4,14.2-26.7
				c6.8-8.3,15.3-15.4,25.5-21.3c15.4-8.9,30.8-14.5,46.1-16.8c3.2-0.1,5.4,1.6,6.8,4.8c4.2,9.1,8.7,19.7,13.6,31.9
				c0.9,2,0.7,3.7-0.5,4.9c-1.2,1.2-2.8,1.6-4.8,1.1c-12.5-1.5-24.8,1.1-36.7,8c-8.3,4.8-13.3,11.3-15,19.6
				c-1.7,8.3,0.4,17.7,6.4,28.2c4.5,7.8,9.3,12.6,14.6,14.4c5.2,1.9,10.6,1.1,16.2-2.3c4.4-2.5,7.1-6.3,8.3-11.3
				c1.2-5,0.2-10.2-2.8-15.4c-2.9-5-6-8.3-9.4-9.9c-1.6-1.1-2.5-2.4-2.6-4c-0.1-1.6,0.6-2.9,2.3-3.9c11.3-7.4,23.9-15.5,37.7-24.2
				c1.5-0.9,2.9-1.2,4.4-0.9c1.5,0.4,2.7,1.2,3.6,2.6c13,18.8,25.6,38.8,37.9,60.1c0.9,1.5,1.1,3,0.8,4.5c-0.3,1.5-1.2,2.7-2.7,3.6
				c-2.3,1.7-7.5,4.7-15.3,9.3c-7.9,4.5-13.3,7.5-16.4,9c-1.7,0.8-3.3,1-4.7,0.6c-1.4-0.3-2.4-1.2-3.1-2.7
				c-2.4-5.8-4.6-10.4-6.6-13.9c-0.9-1.7-1.8-2.7-2.7-3.1c-0.9-0.4-1.5-0.1-2,0.8c-0.5,0.9-0.6,2.4-0.4,4.3
				C236.9,777.7,230.3,790.4,215.4,798.9z"/>
		</g>
		<g>
			<path class="st1" d="M325.8,734.9c-8.2,4.7-14.4,8-18.8,9.9c-1.5,0.6-3,0.8-4.4,0.4s-2.6-1.2-3.3-2.5
				c-10.1-17.5-21.1-37.8-33-60.8c-11.9-23-21.3-41.8-28.2-56.2c-0.7-1.3-0.8-2.7-0.3-4.1c0.5-1.4,1.3-2.5,2.5-3.4
				c8.4-5.4,27-16.4,55.8-33c16.4-9.4,30.2-14.2,41.4-14.4c11.2-0.2,19.6,4.4,25,13.8c5,8.6,5.8,18.1,2.5,28.3
				c-3.3,10.2-10.2,19.7-20.7,28.4c-1.7,1.3-2.1,2.4-1.5,3.5c0.7,1.1,2,1.2,4,0.4c13.7-5.5,27-6.2,39.9-2
				c12.9,4.2,24.3,13.7,34.4,28.5c0.9,1.5,1.2,3,0.9,4.6c-0.3,1.6-1.2,2.9-2.7,4c-4.8,3.4-11.6,7.6-20.3,12.6
				c-9.5,5.5-16.7,9.3-21.5,11.4c-1.6,0.7-3.1,0.9-4.6,0.5s-2.6-1.2-3.4-2.7c-4.1-7-8.9-13.3-14.2-18.8c-5.3-5.5-10.7-9.6-16.1-12.3
				c-5.4-2.8-10.2-3.7-14.4-2.8c-1.8,0.4-2.7,1.6-3,3.7s0.4,4.3,1.9,6.9c4.4,8.2,12.6,19.9,24.5,34.9c1.2,1.2,1.6,2.7,1.2,4.4
				c-0.4,1.7-1.3,3.1-2.8,4.2C341.5,725.6,334.6,729.8,325.8,734.9z M315.8,651.2c5.6-4.9,9.3-9.5,11.3-13.9c2-4.4,2-8.3,0.2-11.5
				c-3.6-6.2-10.5-6.4-20.9-0.4c-2.4,1.4-4,2.4-5,3.1c-1.3,0.8-2.2,1.9-2.4,3.3c-0.3,1.3,0,2.7,0.8,4.2c3.5,6.6,6.3,11.6,8.5,15.1
				C310.3,654.2,312.8,654.3,315.8,651.2z"/>
		</g>
		<g>
			<path class="st1" d="M491.5,640.6c-10.1,5.8-19.5,9.9-28.4,12.3c-8.8,2.4-17.5,3.1-25.9,2.1s-16.4-4.4-23.9-10.2
				c-7.5-5.8-14.3-14-20.3-24.6c-12.2-21.2-15.8-41.3-11-60.4s17.1-34.3,36.7-45.7c19.8-11.3,39.1-14.3,58.1-8.8
				c18.9,5.5,34.5,18.8,46.7,40c4.9,8.5,8.2,16.7,9.9,24.5c1.7,7.8,2,14.9,0.8,21.5c-1.2,6.5-3.7,12.8-7.6,18.8
				c-3.9,6-8.7,11.5-14.5,16.4C506.4,631.3,499.5,636,491.5,640.6z M453.8,606.6c5.5,1.9,11.1,1.2,16.9-2.1
				c5.8-3.3,9.3-7.9,10.4-13.5c1.1-5.7-0.7-12.6-5.3-20.7c-5.1-8.8-11-15.1-17.7-19c-6.7-3.8-12.9-4.2-18.5-0.9
				c-5.5,3.2-8.3,8.7-8.4,16.4c-0.1,7.8,2.4,16.1,7.4,24.8C443.2,599.7,448.3,604.7,453.8,606.6z"/>
		</g>
		<g>
			<path class="st1" d="M630.8,560.6c-10.1,5.8-19.5,9.9-28.4,12.3c-8.8,2.4-17.5,3.1-25.9,2.1c-8.4-1-16.4-4.4-23.9-10.2
				c-7.5-5.8-14.3-14-20.3-24.6c-12.2-21.2-15.8-41.3-11-60.4c4.9-19.1,17.1-34.3,36.7-45.7c19.8-11.3,39.1-14.3,58.1-8.8
				c18.9,5.5,34.5,18.8,46.7,40c4.9,8.5,8.2,16.7,9.9,24.5c1.7,7.8,2,14.9,0.8,21.5c-1.2,6.5-3.7,12.8-7.6,18.8
				c-3.9,6-8.7,11.5-14.5,16.4C645.7,551.3,638.8,556,630.8,560.6z M593.1,526.6c5.5,1.9,11.1,1.2,16.9-2.1
				c5.8-3.3,9.3-7.9,10.4-13.5c1.1-5.7-0.7-12.6-5.3-20.7c-5.1-8.8-11-15.1-17.7-19c-6.7-3.8-12.9-4.2-18.5-0.9
				c-5.5,3.2-8.3,8.7-8.4,16.4c-0.1,7.8,2.4,16.1,7.4,24.8C582.6,519.6,587.6,524.7,593.1,526.6z"/>
		</g>
		<g>
			<path class="st1" d="M728,503.9c-8.1,4.6-14.5,8-19.3,10.2c-1.5,0.7-3,0.8-4.5,0.3c-1.5-0.5-2.7-1.4-3.5-2.9
				c-17.8-32.9-36.1-72.9-55-119.9c-0.5-1.4-0.5-2.8,0-4.1c0.5-1.3,1.3-2.4,2.5-3.4c4.1-3,10.6-7,19.4-12
				c8.2-4.7,14.7-8.1,19.3-10.2c4.8-2,9-1.3,12.5,2c1.4,1.5,4.8,5.1,10.2,10.9c5.3,5.8,9.4,10,12,12.7
				c11.1,10.8,18.3,15.3,21.5,13.5c3.1-1.8,2.8-9.8-0.7-24.3c-0.7-2.6-1.8-6.4-3.2-11.2c-1.4-4.9-2.6-9-3.6-12.6
				c-1-3.5-1.7-6.3-2.3-8.4c-1.3-4.7,0.2-8.6,4.3-11.7c4.1-3,10.2-6.8,18.3-11.5c8.3-4.8,15.1-8.4,20.4-10.8
				c1.4-0.6,2.8-0.8,4.2-0.5c1.4,0.2,2.5,0.9,3.5,2.1c31.4,40.3,56.6,76.3,75.9,107.9c0.9,1.5,1.1,3,0.8,4.5
				c-0.4,1.5-1.2,2.8-2.6,3.8c-4.1,3-10.2,6.8-18.2,11.4c-10.4,6-17.4,9.7-21,11.1c-1.6,0.7-3.1,0.8-4.6,0.3
				c-1.5-0.5-2.6-1.6-3.4-3.3c-6.1-14-12.8-27.2-20.2-39.6c-8.4-14.3-14.2-20.6-17.3-18.8c-0.9,0.5-1.4,1.4-1.7,2.6
				c-0.3,1.2-0.2,3,0.2,5.4c0.4,2.4,0.8,4.5,1.3,6.4c0.4,1.9,1.1,4.7,2.1,8.4c0.3,1.1,0.5,2,0.7,2.6c0.7,2.5,1.6,6.2,2.7,11.2
				c1.2,5,2.1,8.8,2.7,11.2c1.2,5.1,1.2,9.2,0.3,12.5c-1,3.2-3.1,5.8-6.4,7.7c-3.2,1.8-6.4,2.3-9.6,1.4c-3.2-0.9-6.7-3.1-10.5-6.5
				c-6.5-5.8-12.3-11.3-17.6-16.6c-5.2-5.4-9.4-9.3-12.5-11.7c-3.1-2.4-5.5-3.1-7.2-2.1c-3.2,1.8-0.7,10,7.5,24.6
				c5.6,10.1,13.5,22.3,23.7,36.7c1.1,1.5,1.5,3,1.1,4.6c-0.3,1.5-1.2,2.8-2.6,3.9C744.8,493.9,738.2,498,728,503.9z"/>
		</g>
		<g>
			<path class="st1" d="M927.9,389.1c-26.4,15.2-43,24.4-49.6,27.6c-1.5,0.7-3,0.9-4.5,0.5c-1.5-0.4-2.7-1.3-3.5-2.7
				c-26.7-47.5-47.1-86.5-61-116.9c-0.6-1.4-0.6-2.8-0.1-4.1c0.5-1.3,1.4-2.4,2.7-3.3c7.1-4.7,22-13.6,44.7-26.6
				c21.5-12.4,36.9-20.9,46.2-25.6c1.5-0.8,2.9-1,4.2-0.6c1.4,0.4,2.5,1.2,3.5,2.6c5.8,8.9,12.9,20.3,21.2,34.1
				c1.3,2.3,1.3,4.2,0,5.7c-1.3,1.5-3.3,2-6.1,1.3c-14.2-2-28.5,1.1-42.7,9.2c-5.7,3.3-9.6,6.7-11.6,10.2c-2,3.5-2.2,6.8-0.5,9.8
				l0.5,1c3.1,5.4,10.6,4.7,22.4-2c2.4-1.4,5-2.9,7.6-4.6c2.6-1.7,5.6-3.6,8.8-5.7c3.2-2.1,5.8-3.8,7.8-5c1.4-1,2.9-1.4,4.5-1.1
				c1.6,0.3,2.8,1.1,3.6,2.6l8.1,14.4c1,1.8,1.1,3.3,0.2,4.6c-0.9,1.3-2.2,1.8-4.1,1.6c-10.1,0.7-19.2,3.4-27.3,8.3
				C897,328,893,331.5,891,335c-2,3.5-1.9,7.1,0.3,11l1.6,2.8c2.6,4.5,6.6,6.7,12.1,6.6c5.5-0.1,11.9-2.3,19.3-6.5
				c9.2-5.3,15.7-10.9,19.6-16.7c3.8-5.8,6.1-13.5,6.7-23.1c0-1.6,0.6-3,1.7-4c1.1-1,2.4-1.5,3.8-1.3c1.5,0.2,2.8,1,3.8,2.5
				c8,10.7,17.1,24.4,27.4,41.2c0.8,1.4,1,2.8,0.7,4.2c-0.3,1.4-1.2,2.6-2.5,3.4C978,360,958.7,371.4,927.9,389.1z"/>
		</g>
		<g>
			<path class="st1" d="M1059.5,314.5c-22.7,13.1-40.8,22.8-54.1,29.2c-1.4,0.6-2.8,0.7-4.3,0.3c-1.5-0.5-2.7-1.5-3.5-3
				c-22.2-38.6-42.4-77.4-60.7-116.4c-0.6-1.3-0.7-2.7-0.3-4.1c0.4-1.4,1.3-2.6,2.6-3.4c8.2-5.3,22.3-13.7,42.2-25.1
				c14.2-8.1,28.1-12.6,41.9-13.4c13.8-0.8,26.7,2.3,38.9,9.3s22.4,17.8,30.7,32.3c11.4,19.9,14.2,37.4,8.2,52.7
				C1095.1,288.1,1081.2,302,1059.5,314.5z M1031.5,279c1.2-0.5,3.1-1.6,5.8-3.1c6.2-3.6,10.3-8.1,12.2-13.7
				c1.9-5.6,0.9-11.7-3-18.5c-5.7-9.8-12.1-16.4-19.4-19.7c-7.3-3.3-14.4-2.9-21.4,1.1l-4.6,2.6c-1.6,1-2.6,2.4-2.9,4.2
				c-0.3,1.8,0,3.7,1,5.7c4.6,8.5,11.7,21,21.5,37.5c1.5,2.4,3.2,4,5,4.6C1027.7,280.4,1029.6,280.2,1031.5,279z"/>
		</g>
	</g>
	<g>
		<g>
			<path class="st1" d="M95,630.6c-2.8,1.6-5.9,3.1-9.4,4.5s-6.6,2.5-9.4,3.2c-1.1,0.3-1.9-0.1-2.4-1c-1.3-2.2-3.1-5.4-5.6-9.9
				c-0.4-0.8-0.4-1.5,0.1-2c0.5-0.6,1.2-0.7,2.1-0.5c2.5,0.1,5-0.1,7.5-0.7s4.7-1.4,6.7-2.6c3.6-2.1,4.9-4,3.9-5.7
				c-0.3-0.5-0.8-0.8-1.6-0.9c-0.8-0.1-1.7,0-2.7,0.3c-1,0.3-2.2,0.6-3.5,1c-1.3,0.4-2.6,0.7-4,1.1c-1.3,0.4-2.7,0.6-4.2,0.7
				c-1.5,0.1-2.8,0.1-4.1-0.1c-1.3-0.2-2.5-0.7-3.7-1.6c-1.2-0.8-2.2-2-3.1-3.5c-3.9-6.8,0-13.6,11.6-20.3c5.7-3.3,10.8-5.6,15.4-7
				c1-0.2,1.9,0.1,2.4,0.9c2.9,4.2,4.6,6.8,5.3,8c0.5,0.8,0.5,1.5,0.1,2c-0.4,0.6-1,0.8-1.8,0.6c-1.7,0-3.6,0.3-5.5,0.8
				c-2,0.5-3.7,1.2-5.3,2.1c-2,1.1-3.4,2.2-4.2,3.3c-0.8,1-1,2-0.5,2.8c0.3,0.5,0.8,0.8,1.6,0.8c0.8,0,1.7-0.1,2.8-0.4
				s2.3-0.7,3.7-1.1c1.4-0.4,2.8-0.8,4.3-1.3c1.5-0.4,3-0.7,4.5-0.9c1.5-0.1,3-0.1,4.4,0c1.4,0.2,2.7,0.7,4,1.5
				c1.3,0.9,2.3,2,3.2,3.5c2,3.5,1.9,7.2-0.3,11C105.3,623.4,101.1,627,95,630.6z"/>
		</g>
		<g>
			<path class="st1" d="M137.8,606.1c-2.4,1.4-4.7,2.3-6.9,2.9c-2.2,0.6-4.4,0.7-6.6,0.5c-2.1-0.2-4.1-1-5.9-2.4
				c-1.8-1.3-3.4-3.2-4.8-5.5c-2.8-4.8-4.8-8.7-6-11.7c-0.1-0.3-0.3-0.4-0.6-0.5c-0.3-0.1-0.6,0-0.8,0.2c-1.2,0.7-2.1,1.2-2.7,1.7
				c-0.5,0.3-1,0.3-1.6,0.2c-0.6-0.2-1-0.5-1.3-1c-0.4-0.7-0.9-1.5-1.4-2.4c-0.5-0.8-1-1.8-1.6-2.8c-0.6-1-1-1.8-1.4-2.4
				c-0.3-0.6-0.3-1.1-0.2-1.6c0.2-0.5,0.5-0.9,1-1.2l3.3-1.9c0.3-0.2,0.4-0.4,0.5-0.6c0.1-0.3,0-0.5,0-0.8c-1.3-2.5-2.4-4.6-3.1-6.2
				c-0.2-0.5-0.2-1-0.1-1.6c0.1-0.5,0.4-1,0.9-1.3c0.2-0.2,2.1-1.4,5.6-3.6c3.2-1.8,5.6-3.1,7.4-3.9c0.6-0.2,1.2-0.3,1.8-0.1
				c0.6,0.2,1,0.6,1.3,1.2c1.1,2.9,1.8,4.8,2.3,5.7c0.2,0.4,0.5,0.7,0.8,0.8s0.6,0.1,0.9,0c0.9-0.5,2.3-1.3,4.2-2.5
				c1.9-1.1,3.3-2,4.2-2.5c0.5-0.3,1-0.4,1.6-0.2c0.6,0.2,1,0.5,1.4,1.1l4.4,7.6c0.3,0.5,0.4,1.1,0.3,1.8c-0.1,0.6-0.5,1-1,1.3
				c-2.9,1.4-5.4,2.8-7.6,4c-1.4,0.8-1.8,1.9-1.2,3.2c1.1,2.4,2.4,4.7,3.9,6.9c0.8,1.3,1.9,2,3.2,2.1c1.3,0.2,2.8-0.2,4.2-1
				c0.7-0.4,1.4-1,2.2-1.8c0.8-0.8,1.4-1.5,1.9-2.2c0.3-0.7,0.8-1,1.4-1.1c0.7,0,1.3,0.3,1.7,1.1c1.5,2.4,3.2,5.4,5.2,9.2
				c0.7,1.2,0.7,2.3-0.1,3.3C145.2,601.1,141.7,603.8,137.8,606.1z"/>
		</g>
		<g>
			<path class="st1" d="M164.2,590.9c-7.1,4.1-12.6,2.7-16.5-4.1c-1-1.7-1.4-3.5-1.4-5.4s0.6-3.7,1.6-5.6c1-1.8,2.3-3.6,4-5.3
				s3.5-3.4,5.7-5c2.2-1.6,3.7-2.9,4.5-3.9s0.9-1.8,0.4-2.7c-0.4-0.7-1.2-1.1-2.3-1.1c-1.1,0-2.6,0.5-4.4,1.6
				c-1.9,1.1-3.8,2.7-5.8,4.8c-2,2.2-3.6,4.4-4.7,6.8c-0.2,0.9-0.7,1.4-1.5,1.4c-0.8,0-1.4-0.4-1.9-1.3c-1.2-2-2.9-5.2-5-9.6
				c-0.6-1.2-0.6-2.1,0.1-2.9c3-3.5,7.8-7,14.3-10.8c3.4-1.9,6.4-3.3,9.2-4s5.3-0.9,7.5-0.5s4,1.2,5.7,2.3c1.6,1.1,3.1,2.6,4.5,4.5
				c5.1,7,9.8,14.1,14.1,21.1c0.7,1.2,0.5,2.2-0.6,3.1c-1.4,1-3.5,2.4-6.4,4c-2.6,1.5-4.9,2.7-6.6,3.5c-0.9,0.4-1.8,0.5-2.5,0.3
				s-1.3-0.7-1.6-1.5c-0.6-1.6-1.4-3.4-2.2-5.3c-0.3-0.7-0.7-1-1.2-0.9c-0.4,0.1-0.6,0.6-0.5,1.4c0.6,3.5,0.3,6.5-1,9.1
				C168.7,587.4,166.8,589.4,164.2,590.9z M165.9,574.5c1-0.6,1.7-1.6,2.1-3.1c0.4-1.5,0.3-2.9-0.6-4.4c-0.4-0.8-1-1.3-1.7-1.5
				c-0.7-0.2-1.5-0.2-2.2,0.3c-1.3,0.7-2.2,1.9-2.7,3.3c-0.5,1.5-0.4,2.9,0.4,4.2c0.6,1,1.3,1.6,2,1.8
				C163.9,575.4,164.8,575.1,165.9,574.5z"/>
		</g>
		<g>
			<path class="st1" d="M225.5,576.4c-2.8,1.6-6.2,3.4-10.1,5.2s-7,3-9.4,3.7c-0.5,0.1-1,0-1.5-0.2c-0.5-0.2-0.8-0.6-1.1-1
				c-0.6-1-1.6-3-3-5.8c-1.5-2.9-2.3-4.5-2.6-5c-0.4-0.8-0.4-1.4,0-2.1c0.3-0.6,0.9-0.9,1.8-0.7c2.2,0,4.5-0.3,7-1
				c2.5-0.7,4.8-1.6,6.9-2.8c2.1-1.2,3.8-2.9,5.2-5c1.4-2.1,2.2-4.3,2.5-6.6s-0.1-4.4-1.1-6.2l-1.3-2.2c-0.4-0.7-0.8-1-1.3-0.7
				c-0.4,0.2-0.6,0.7-0.4,1.5c0.8,3.5,0.7,6.5-0.5,9.2s-3.2,4.8-6,6.5c-4.5,2.6-8.7,3.2-12.6,1.8c-3.9-1.3-7.4-4.6-10.4-9.8
				c-1.4-2.6-3-5.8-4.8-9.6c-1.8-3.8-3.2-7.1-4.3-10c-0.4-1.2-0.2-2.2,0.7-2.9c1.5-1.1,3.6-2.4,6.4-4c3-1.7,5.4-3,7.2-3.8
				c0.6-0.3,1.2-0.3,1.8-0.1c0.6,0.2,1,0.6,1.1,1.2c2.1,6.2,4,10.9,5.9,14.2c0.9,1.5,1.8,2.8,2.9,3.9c1,1,2.2,1.7,3.4,2.1
				s2.4,0.2,3.5-0.4c1.5-0.8,2.1-2.4,1.9-4.6s-1-4.5-2.4-7c-1.7-3-4.5-7.1-8.2-12.2c-0.4-0.5-0.5-1-0.4-1.6c0.1-0.5,0.4-1,0.9-1.5
				c1.6-1.1,3.9-2.6,7-4.3c2.4-1.4,4.5-2.5,6.2-3.2c0.6-0.2,1.1-0.3,1.6-0.1c0.5,0.2,1,0.5,1.3,1c6.9,9.9,13.6,20.3,19.8,31.3
				c1.4,2.4,2.3,5,2.6,7.5s0.2,5-0.5,7.4c-0.7,2.3-1.7,4.6-3.2,6.8c-1.5,2.2-3.3,4.3-5.4,6.1C230.5,573.2,228.1,574.9,225.5,576.4z"
				/>
		</g>
	</g>
	<g>
		<g>
			<path class="st1" d="M884.2,198.5c-3.2,1.8-7,3.8-11.5,5.9s-8,3.5-10.7,4.2c-0.6,0.1-1.2,0.1-1.7-0.2c-0.6-0.3-1-0.7-1.3-1.3
				c-0.6-1.1-1.7-3.2-3.2-6.3s-2.6-5.1-3.1-6c-0.4-0.9-0.4-1.6,0-2.3c0.4-0.7,1-0.9,2-0.9c2.4-0.1,5.1-0.6,7.8-1.4
				c2.8-0.8,5.4-1.9,7.8-3.3c3.9-2.3,6.7-5.2,8.3-8.9c1.6-3.7,1.5-7.1-0.4-10.3l-1.4-2.5c-0.3-0.5-0.6-0.8-1-0.9s-0.6,0-0.8,0.4
				s-0.2,0.9-0.2,1.5c0.6,3.8,0.1,7.2-1.3,10.1c-1.5,2.9-3.8,5.3-6.9,7.1c-5.1,2.9-10.2,3.3-15.4,1.3s-9.7-6.3-13.5-12.9
				c-3.9-6.7-5.3-12.8-4.4-18.1c0.9-5.3,3.9-9.5,8.9-12.3c3.1-1.8,6.4-2.5,9.8-2.2c3.4,0.3,6.7,1.7,9.7,4.1c0.7,0.5,1.2,0.6,1.6,0.3
				s0.3-0.9-0.2-1.7c-1.6-2.4-3.1-4.4-4.5-6c-0.5-0.5-0.7-1.1-0.5-1.8c0.2-0.7,0.5-1.2,1.1-1.8c1.3-1,3.7-2.5,7-4.4
				c2.6-1.5,5.1-2.8,7.5-3.9c1.3-0.5,2.4-0.2,3.2,0.9c6.6,8.9,14.3,21.1,23.2,36.6C908.2,175.5,902.9,187.8,884.2,198.5z
				 M862.1,165.5c1.9,0.7,3.8,0.5,5.7-0.6c1.9-1.1,3-2.6,3.4-4.6s-0.1-4.2-1.4-6.4c-1.2-2.2-2.8-3.6-4.7-4.2s-3.8-0.4-5.7,0.7
				s-3,2.6-3.4,4.6c-0.4,2,0,4,1.3,6.2C858.6,163.3,860.2,164.8,862.1,165.5z"/>
		</g>
		<g>
			<path class="st1" d="M930.8,148.1c-7.8,4.5-14.9,6-21.6,4.7s-12-5.5-16-12.6c-3.8-6.6-4.7-13-2.6-19.1s6.5-11.2,13.4-15.2
				c6.3-3.6,11.8-5.1,16.7-4.6c4.9,0.5,8.7,3.1,11.5,8c1.9,3.4,2,7.1,0.1,11.2c-1.9,4.1-4.9,7.3-9.1,9.7c-3.9,2.2-7.9,3.2-12,3
				c-0.9-0.1-1.4,0.1-1.6,0.6c-0.2,0.5,0.2,1,1,1.5c1.9,1.3,4.2,1.9,7.1,1.7c2.9-0.2,5.6-1,8.1-2.4c2.7-1.6,4.9-3.3,6.6-5.3
				c1.7-2,3-4.4,4-7.1c0.2-1.1,0.7-1.6,1.5-1.8c0.9-0.1,1.7,0.3,2.4,1.4c2.4,3.3,4.5,6.3,6.4,9.3c0.7,1.1,0.8,2.2,0.3,3.3
				c-1.3,2.3-3.5,4.7-6.5,7.2C937.6,143.9,934.4,146.1,930.8,148.1z M915.3,126.6c1.3-0.8,2.2-1.7,2.6-2.9c0.4-1.2,0.2-2.4-0.5-3.7
				c-1.7-3-4.2-3.6-7.5-1.7c-1.6,0.9-2.7,2.2-3.3,3.8c-0.6,1.6-0.5,3.2,0.3,4.6c0.6,1.1,1.8,1.6,3.5,1.4S913.8,127.4,915.3,126.6z"
				/>
		</g>
		<g>
			<path class="st1" d="M976.1,122.1c-2.7,1.6-5.4,2.7-7.9,3.3c-2.6,0.7-5.1,0.8-7.5,0.6c-2.4-0.3-4.7-1.2-6.8-2.7
				c-2.1-1.5-3.9-3.6-5.5-6.3c-3.2-5.5-5.4-10-6.9-13.4c-0.2-0.3-0.4-0.5-0.7-0.6c-0.3-0.1-0.6,0-0.9,0.2c-1.4,0.8-2.4,1.4-3.1,1.9
				c-0.6,0.3-1.2,0.4-1.8,0.2c-0.6-0.2-1.1-0.6-1.5-1.2c-0.5-0.8-1-1.7-1.6-2.7c-0.6-1-1.2-2-1.8-3.2c-0.7-1.2-1.2-2.1-1.6-2.8
				c-0.3-0.6-0.4-1.3-0.2-1.9c0.2-0.6,0.5-1.1,1.1-1.4l3.8-2.2c0.3-0.2,0.5-0.4,0.6-0.7c0.1-0.3,0.1-0.6-0.1-0.9
				c-1.5-2.9-2.7-5.3-3.5-7.1c-0.2-0.6-0.3-1.2-0.1-1.8c0.2-0.6,0.5-1.1,1-1.5c0.3-0.2,2.4-1.5,6.4-4.1c3.6-2.1,6.4-3.6,8.4-4.4
				c0.7-0.3,1.4-0.3,2.1-0.1c0.7,0.2,1.2,0.7,1.5,1.3c1.2,3.3,2.1,5.5,2.7,6.5c0.3,0.5,0.6,0.8,1,0.9c0.4,0.2,0.7,0.2,1,0
				c1-0.6,2.6-1.5,4.8-2.8c2.2-1.3,3.8-2.3,4.8-2.8c0.6-0.3,1.2-0.4,1.9-0.2c0.7,0.2,1.2,0.6,1.6,1.2l5,8.7c0.4,0.6,0.5,1.3,0.3,2
				c-0.2,0.7-0.5,1.2-1.2,1.5c-3.3,1.6-6.2,3.1-8.7,4.6c-1.6,0.9-2.1,2.1-1.4,3.7c1.3,2.8,2.8,5.4,4.5,7.9c0.9,1.4,2.2,2.3,3.7,2.4
				c1.5,0.2,3.2-0.2,4.8-1.2c0.8-0.4,1.6-1.1,2.5-2c0.9-0.9,1.6-1.7,2.1-2.5c0.3-0.8,0.9-1.2,1.7-1.2c0.8,0,1.5,0.4,2,1.3
				c1.7,2.7,3.6,6.2,5.9,10.5c0.8,1.4,0.8,2.6-0.1,3.7C984.6,116.4,980.6,119.5,976.1,122.1z"/>
		</g>
	</g>
</g>
</svg>
