<?xml version="1.0" encoding="utf-8"?>
<!-- Generator: Adobe Illustrator 24.3.0, SVG Export Plug-In . SVG Version: 6.00 Build 0)  -->
<svg version="1.1" id="Layer_1" xmlns="http://www.w3.org/2000/svg" xmlns:xlink="http://www.w3.org/1999/xlink" x="0px" y="0px"
	 viewBox="0 0 1080 1080" style="enable-background:new 0 0 1080 1080;" xml:space="preserve">
<style type="text/css">
	.st0{fill:#00008B;}
	.st1{fill:#00008B;stroke:#00008B;stroke-width:21.1213;stroke-miterlimit:10;}
</style>
<g>
	<path class="st0" d="M515,638.8c-0.6,7.7,0.2,14.6-2,20.4c-3,8-9.5,13.4-18.9,13.3c-9.4-0.2-22.3-9-24.4-18.7
		c-2.3-11.2-9.3-14.5-19-16.7c-32.9-7.7-65.8-15.7-98.5-24c-8.6-2.2-15.4-1.7-22.5,4.8c-12.1,11.1-35,6.2-42.3-8.6
		c-3.5-7.1-1.6-14.3,4.2-19.8c4.9-4.7,10.6-8.6,16.4-13.3c-0.5-0.9-1.1-2.3-2-3.6c-9.4-12.8-8-23.1,4.2-30.7
		c7.9-4.9,24.8,0.3,27.4,11.6c4.2,18.2,16.9,18.5,30.9,21.7c34.5,7.7,68.7,17.1,102.9,26.2c12,3.2,23.1,5.9,34.9-1.5
		c8.4-5.3,17.7-3.9,25.7,2.6c10.6,8.5,8.7,23.9-4.1,31C523.7,635.8,518.9,637.2,515,638.8z M324.1,580.6c-6.6,2.1-11.4,3.8-16.3,5.1
		c-8,2.2-14.8,6.5-13.6,15.3c0.8,5.7,4.6,13,9.2,15.7c7.3,4.3,17.6,5.5,23.4-2.8c6.4-9.1,14-9.4,23.1-7.3
		c37.4,8.8,74.7,17.7,112.1,26.5c7.8,1.8,11.5,6.6,14.5,14.2c2.5,6.4,8.2,12.4,14.1,16.2c3,1.9,10.8,0.1,13.7-2.8
		c2.8-2.8,3.2-9.2,2.7-13.9c-0.5-4.3-3.6-8.2-5.8-12.9c7.5-1.7,14.3-2.7,20.8-4.7c9.6-2.9,13.1-12.7,7.2-20.2
		c-6-7.8-14.5-7-21.3-2.5c-10.3,6.8-20,5.3-31,2.4c-38.9-10.4-77.9-20.9-117.2-29.6c-14.3-3.1-25.8-5-27.2-22.9
		c-0.3-3.9-8.7-8.3-14.1-10.1c-2.5-0.8-9,4-9.8,7.2c-1,4.1,1.1,9.7,3.4,13.7C314.8,571.7,319.3,575.3,324.1,580.6z"/>
	<path class="st0" d="M324.1,580.6c-4.9-5.3-9.3-8.8-12-13.4c-2.4-4-4.4-9.6-3.4-13.7c0.8-3.2,7.3-8,9.8-7.2
		c5.4,1.7,13.8,6.2,14.1,10.1c1.5,17.9,12.9,19.8,27.2,22.9c39.3,8.7,78.3,19.2,117.2,29.6c10.9,2.9,20.6,4.4,31-2.4
		c6.8-4.5,15.3-5.3,21.3,2.5c5.8,7.5,2.4,17.3-7.2,20.2c-6.5,2-13.3,3.1-20.8,4.7c2.2,4.7,5.4,8.7,5.8,12.9
		c0.5,4.6,0.1,11.1-2.7,13.9c-2.9,2.9-10.8,4.7-13.7,2.8c-5.8-3.8-11.5-9.8-14.1-16.2c-3-7.5-6.6-12.3-14.5-14.2
		c-37.4-8.8-74.7-17.6-112.1-26.5c-9.1-2.1-16.7-1.9-23.1,7.3c-5.8,8.2-16,7-23.4,2.8c-4.7-2.7-8.5-10-9.2-15.7
		c-1.2-8.8,5.6-13.1,13.6-15.3C312.7,584.3,317.5,582.7,324.1,580.6z"/>
	<path class="st0" d="M722.7,703.7c-13.6-80.4,15.7-184.1-56.7-240.9c-82-67.6-183.5-104.9-285.4-130.1
		C302.7,310,224,305.2,182.8,388.3c-25.7,34.6-51.3,69.2-77.1,103.6c-20.1,24.8-3.4,56.8,9.5,80.6c94.8,136.6,274.1,196.4,435,196.4
		C602.4,767.8,718.3,774.9,722.7,703.7z M256.3,331c100.3-21.5,382.7,80.3,429.8,174.7c11.8,27.7-5,37.9-30,43.1
		c-23.8,8.1-33.4-24.3-53.1-33.1c-56.7-44.5-296.5-145.7-359.6-115.4c-5.4,3.3-7.7,0.1-10.4-3.3C212.8,371.5,223.1,341.3,256.3,331z
		 M627.2,547.4c-0.6,1.2-1.1,2.4-1.7,3.5c-136.2-7.8-274.2-55.1-381.4-140.7C288.6,358.7,591.5,493.6,627.2,547.4z M698.4,722.7
		c-161.6,84.9-447.6-18.4-563.4-148.9c-56.5-56.5-7.9-89.6,28.1-137.4c5.7,24.6,22.3,63.2,48.5,67.1c-22.5-11.6-37.3-45.4-46.8-69.3
		c15.5-20.7,32.4-39.2,45.7-61.7c38.4,95.5,159.7,131.6,250.4,161.1c77,10.7,164.1,58.7,236,11c7.9,48.4,9.4,93.9,12.1,142.1
		c-109.7,27.3-267.9,33.4-377.1-17.5c105.5,58.8,269.6,51.2,377.1,18.3C710.2,700.9,711.7,714.8,698.4,722.7z"/>
	<g>
		<path class="st0" d="M251.3,415.7c0-6.8-1.1-14.8,0.2-21.5c1.5-7.8,10.3-13.8,9.8-21.4"/>
		<path class="st0" d="M256.2,415.7c0-4.4-0.4-8.7-0.4-13.1c0-3.6,0.1-7.5,1.6-10.5c3.3-6.3,9.1-11.6,8.8-19.3
			c-0.2-6.3-10-6.3-9.8,0c0.1,1.3-0.1,2.3-0.5,3.2c-0.6,1.5-1.5,2.9-2.4,4.2c-2,3.1-4.2,6-5.6,9.4c-3.4,8.1-1.5,17.6-1.4,26.1
			C246.4,422,256.2,422,256.2,415.7L256.2,415.7z"/>
	</g>
	<g>
		<path class="st0" d="M247.3,409.8c-4.5-6.7-5.2-20.7-0.6-27.3c2.2-3.1,7-2,8.6-3.9c4-4.6,2.7-14.1,6-19.4c5.9-9.5,4.7-1.2,11-4.5
			c5.4-2.8,7.3-10.7,12.7-14.3c6.6-4.4,10.1-1.6,17.1-1.6c10.3,0.1,9.5-2.8,15.7-12.8c10.9-17.5,15.2-12.5,32.9-13.1
			c12.4-0.4,15.5-9.5,26.2-12.5c9-2.6,10.6,2.8,17.9,4.6c14.9,3.8,23.1-14.4,38.1-12.2c5.1,0.8,8.7,5.5,13.9,5.1
			c5.8-0.5,12-9.1,17-12c6.8-3.9,16.3-6.7,24.4-5.1c7.5,1.5,11.6,7.7,17.6,12c11.4,8.1,27.7,24,21.9,41.1c4.5,2.9,9.5-0.2,13.5,1.8
			c5.7,2.8,6,7.4,9.6,12c9.2,11.9,13.8,14.8,16.8,31c9.6,1,15.3-5.2,25.6-2.1c10.2,3,14.3,11.8,22.5,16.9c3.7,2.3,10,1.9,13.2,4.4
			c5.6,4.4,5.2,13.9,5.7,20.3c1.4,16.6,1,26.7-7.3,41.3c-4.7,8.3-8.7,15.8-15.6,22.7c-3.1,3.1-18.9,12.2-19.7,15.7
			c-1.5,7.1,14.1,15,19.9,16.5c4.1,1.1,8.8,0.4,12.6,0.8c1.9,0.2,5.8,3.9,6.9,3.7c4-0.7,5.6-4.8,8.9-5.9c8.9-2.8,4.5-0.4,12.1,4.2
			c6.3,3.8,8.8,2.9,14.1,9.2c6.6,7.7,8.2,14.9,7.9,24.8"/>
		<path class="st0" d="M251.5,407.3c-3.2-5.3-4.6-14.1-1.9-19.9c1.4-3,3.6-2.4,6.3-3.5c2.8-1.2,4.4-3.5,5.6-6.2
			c1.2-2.8,1.6-5.8,2.1-8.7c0.3-1.5,0.5-3.1,0.9-4.5c0.4-1.4,2.6-3.8,2.7-5c0.1-1.3-1.9-0.1-1.8-0.1c0.3,0.6,2.2,0.8,2.8,0.9
			c2.6,0.4,5.1-0.3,7.4-1.6c5.8-3.5,7.3-11,12.9-14.4c5.3-3.2,13.2,0.3,19.2-0.8c11.6-2,13-16.4,21-23.2c3.3-2.8,7-2.6,11.1-2.5
			c6,0.2,12.3,0.8,18.1-1c6-1.8,10.1-6.1,15.4-9.2c2.7-1.6,6.1-3.3,9.3-2.7c2.7,0.5,5.2,2.7,7.7,3.8c12.1,5.2,21.2-2.2,31.2-8
			c2.5-1.4,5.1-2.7,8-2.9c3.7-0.3,6.1,1.6,9.3,3.2c6,3,11.5,2.3,16.9-1.6c3-2.2,5.5-4.9,8.3-7.3c3.4-2.8,7.7-4.6,12-5.7
			c4.4-1.1,9.3-1.6,13.6,0.2c3.7,1.6,6.5,4.7,9.5,7.3c11.3,9.8,29.2,21.3,23.9,39c-0.6,1.9,0.4,4.6,2.2,5.5c2.5,1.2,4.8,1.9,7.7,2
			c3.4,0.1,6.1-0.9,8.8,2c1.5,1.7,2.3,4.1,3.5,6c1.4,2.3,3.2,4.4,4.9,6.5c6.5,8.1,10.7,15,12.8,25.4c0.4,2.2,2.7,3.5,4.7,3.6
			c5.4,0.3,10.1-1.2,15.3-2.4c6.2-1.4,11.7,0.3,16.5,4.4c3.5,3,6.5,6.6,10.1,9.5c4.5,3.6,8.7,3.9,13.9,5.7c5.3,1.8,5.5,7.6,5.8,12.5
			c0.4,6,1,12,0.9,18c-0.2,12.3-5.1,22.2-11.2,32.6c-3.1,5.3-6.5,10.9-11.1,15c-2.7,2.4-6,4.3-8.9,6.3c-5.3,3.7-13.4,8.1-11.8,15.8
			c1.6,7.9,11.1,13,17.8,16c4,1.8,7.8,2.7,12.3,2.9c2.5,0.1,4.9-0.2,7.3,0.8c2,0.8,3.3,2.5,5.5,2.9c2.2,0.4,4.5-0.4,6.4-1.5
			c1.1-0.7,2.1-1.7,3.1-2.5c1.1-0.9,3.1-1.6,3.9-2.4c0.8-0.8,2.9,0.4,0.2-1.2c0.6,0.4,1.1,1.3,1.7,1.9c2.2,2.1,4.8,3.8,7.5,5.1
			c5.1,2.6,8.9,4.5,12.2,9.5c3.9,5.8,4.6,12,4.5,18.8c-0.1,6.3,9.7,6.3,9.8,0c0.2-11.7-3-22.8-11.8-30.9c-3.3-3-7.3-4.4-11.1-6.5
			c-3.3-1.8-5.8-6-9.6-6.7c-4-0.8-9.1,1.2-12.2,3.7c-0.6,0.5-1.6,1.2-2,1.8c-1.3,2,0.1,1.3-1.4,0.7c-2.2-0.8-3.7-2.5-6.1-3
			c-5.2-1-10.1,0.2-15.2-1.9c-4.1-1.7-9.1-4.1-11.9-7.6c-0.6-0.7-1-1.3-1.3-2.1c0.1,0.2-1.1,2.1,0.2,0.4c1-1.4,2.9-2.5,4.3-3.5
			c3.7-2.7,7.6-5.1,11.2-7.8c9.4-7.1,15.8-19.1,21-29.4c5.2-10.3,7-20.9,6.6-32.4c-0.4-9.5,0.5-23.3-6.7-30.7
			c-4.6-4.7-11.4-3.5-16.5-7c-4.7-3.2-8.1-8-12.6-11.5c-5.1-4-11.4-6.4-18-6.1c-6.4,0.3-12.1,3.4-18.6,3c1.6,1.2,3.1,2.4,4.7,3.6
			c-2.2-11.4-7.1-19.6-14.3-28.5c-3.6-4.5-5.9-10.3-9.9-14.3c-1.9-1.9-4.4-3.5-7.1-4.2c-3.5-0.8-7.5,0.8-10.8-0.8
			c0.7,1.8,1.5,3.7,2.2,5.5c4.8-15.7-4.8-30.2-16.1-40.3c-5.4-4.8-11.1-9.5-16.8-13.9c-6.6-5.1-14.2-6.3-22.4-5
			c-7.6,1.2-14.8,4.4-20.6,9.4c-2.6,2.3-5.5,6.2-8.9,7.2c-3.5,1.1-7.1-2.5-10.3-3.7c-6.4-2.4-13.1-0.9-18.9,2.1
			c-5.4,2.8-10.1,7.5-16,9.1c-7,1.9-11.3-3.7-17.7-5c-7.1-1.5-14.2,2.2-19.7,6.2c-6.5,4.7-11.2,6.8-19.4,6.7
			c-5.2-0.1-10.7-0.9-15.8,0.6c-5.4,1.6-9.3,5.6-12.6,10c-2.2,2.9-4,6-5.9,9.2c-1,1.8-2.1,4.5-4,5.6c-5.6,3.1-14-1.5-20.2,0.6
			c-8.1,2.7-9.9,9.7-15.4,15.1c-2.3,2.3-2.2,0.8-5.1,0.5c-3-0.3-5.2,1.5-7.1,3.7c-2.6,3.1-4.1,6.7-5,10.7c-0.6,2.8-0.8,9.4-2.4,10.9
			c-0.1,0.1-3.2,0.6-4.1,0.9c-1.7,0.6-3.1,1.4-4.3,2.6c-2.5,2.6-3.8,6.5-4.4,9.9c-1.5,7.9-0.5,16.9,3.8,23.8
			C246.3,417.6,254.8,412.7,251.5,407.3L251.5,407.3z"/>
	</g>
	<path class="st0" d="M686.1,529.3c-2-15-12-25.2-23.8-32.8c1.1-5.7,1.6-11.4,0.5-17.8c-2-11.2-8.4-21.3-18-27.4
		c-17.9-11.4-48.1-9.5-66.1,0.5c-14.5,8-10.9,25.5-0.4,32.9c-0.1,0.9-0.1,1.7-0.1,2.7c0.4,9.5,8.7,20.8,19.5,19.5
		c0.8-0.1,1.7-0.1,2.5-0.1c0,0.1,0,0.1,0,0.2c-0.4,3.4-0.1,6.8,0.9,10C565.8,508,530,501,495.1,490.7c2.4-2.2,4.2-5.1,5.2-8.7
		c2.6-9.5-3.2-22.1-13.6-24c-1-0.2-2.1-0.4-3.1-0.6c-0.4-0.1-0.7-0.3-1.1-0.4c-22.3-7.3-45.5-12.3-68.4-17.9
		c-28.7-9.7-56.5-21.8-83.2-36.4c-16.2-8.9-30,5.4-28.6,19.3c-0.1,0.3-0.2,0.6-0.3,1c-7.6-6.6-14.5-13.9-20.6-22.3
		c-6.2-8.5-17-12.7-26.7-7c-8.4,4.9-13.2,18.1-7,26.7c41.5,57.2,108.5,77.7,173.6,95.9l106.7,29.9c18,5.1,36,10.9,54.6,13.2
		c10.1,1.3,21.7,0.2,32.4,1.5c5.8,1.6,11.5,3.3,17.2,5.1c7,2.2,13.4-0.2,17.9-4.6c0.6,0.1,1.3,0.1,2,0.1c7.1,0,12.2-3.1,15.3-7.6
		c1.8,0.1,3.6-0.1,5.2-0.6C683.7,550.2,687.5,539.8,686.1,529.3z M636.2,526.4c-1.3-0.4-2.7-0.8-4-1.2c0.3-0.2,0.6-0.5,0.9-0.8
		c0.9,0.5,1.8,1,2.8,1.5c0.7,0.3,1.4,0.7,2.1,1C637.4,526.8,636.8,526.6,636.2,526.4z"/>
	<path class="st0" d="M93.6,356.4c-0.5,0.6,1.5,3.3,5.6,6.8c4.1,3.5,10.1,7.6,16.6,12c6.6,4.4,12.2,8.5,16,11.8
		c3.8,3.3,5.9,5.7,6.6,5.3c0.7-0.3-0.2-3.8-3.6-8.2c-3.3-4.4-9-9.4-15.8-13.9c-6.7-4.5-13-8-17.6-10.5
		C97.1,357.2,94.2,355.7,93.6,356.4z"/>
	<path class="st0" d="M86.1,426.7c0.7,0.6,2.8-1.2,6.4-2.8c3.7-1.6,9.1-2.6,15.7-3.3c6.5-0.7,12.8-1.6,17.2-3.7
		c4.4-2,6.1-4.7,5.6-5.2c-0.6-0.7-2.9,0.5-6.9,1.2c-4,0.9-9.8,1.1-16.5,1.8c-6.7,0.7-13.2,2.6-17.1,5.6
		C86.6,423.4,85.6,426.3,86.1,426.7z"/>
	<path class="st0" d="M768.6,595.8c-1.4-1.3-7.8,5.8-17.7,8.7c-5,1.5-10,1.9-13.7,2.6c-3.7,0.6-6,1.4-6,2.2c0,0.8,2.3,1.5,6.1,2
		c3.8,0.4,9.2,0.6,15.3-1.1c6.1-1.8,10.6-5.5,13.1-8.5C768.3,598.6,769.2,596.3,768.6,595.8z"/>
</g>
</svg>
