<?xml version="1.0" encoding="utf-8"?>
<!-- Generator: Adobe Illustrator 24.3.0, SVG Export Plug-In . SVG Version: 6.00 Build 0)  -->
<svg version="1.1" id="Layer_1" xmlns="http://www.w3.org/2000/svg" xmlns:xlink="http://www.w3.org/1999/xlink" x="0px" y="0px"
	 viewBox="0 0 1079.9 1167.3" style="enable-background:new 0 0 1079.9 1167.3;" xml:space="preserve">
<style type="text/css">
	.st0{fill:#FCD5FF;}
	.st1{fill:#00008B;}
	.st2{fill:#ECAAEE;}
	.st3{fill:#FFB4E7;}
	.st4{fill:#EAD5B9;}
	.st5{fill:#C8F657;}
	.st6{fill:#C2ACD2;}
	.st7{fill:#0B4884;}
	.st8{fill:#D8F476;}
	.st9{fill:#E179E6;}
	.st10{fill:#EEFFB1;}
	.st11{fill:#DCA87F;}
	.st12{fill:#BC85F2;}
	.st13{opacity:0.17;}
	.st14{fill:#6D5B32;}
	.st15{fill:#D1C09A;}
	.st16{fill:#F5F2C3;}
	.st17{fill:#FFF6BD;}
	.st18{fill:#FF81CB;}
	.st19{fill:none;stroke:#00008B;stroke-width:1.2974;stroke-miterlimit:10;}
	.st20{fill:#BBED0A;}
	.st21{fill:#9630EE;}
	.st22{fill:#BDE3F9;}
	.st23{fill:#93D6F7;}
	.st24{fill:#E1B0C5;}
	.st25{fill:#ECD2DF;}
	.st26{fill:#DF9EBD;}
	.st27{opacity:0.69;}
	.st28{fill:#FFDAF1;}
	.st29{fill:#F6A2FF;}
	.st30{fill:#FFEE76;}
	.st31{fill:none;}
	.st32{fill:#2A2E7E;}
	.st33{fill:#FFDA10;}
	.st34{fill:#A7EBF4;}
	.st35{fill:#FFE945;}
	.st36{fill:none;stroke:#0B4884;stroke-width:3.2169;stroke-miterlimit:10;}
	.st37{fill:#B275F0;}
	.st38{fill:#00008B;stroke:#00008B;stroke-width:1.4343;stroke-miterlimit:10;}
</style>
<g>
	<g>
		<path class="st3" d="M284.8,897.5c-32.8-56-116.6-73.9-168.5-106.1c-39.4-24.5-73.7-58.8-92.6-101.2
			C-14.4,604.9-0.3,476.8,89,429.3c7.7-4.1,16.8-8.9,17.9-17.6c0.5-3.7-0.7-7.4-1.9-11c-21.2-64.6-43-138.1,0-199.5
			c25.7-36.7,65-67.3,108-80.7c15.4-4.8,32.5-10.4,48.8-8.5c30.2,3.5,51.9,22.5,75,40.3c24.2,18.5,16.8-18.3,22-30.8
			C384.3,59.8,455.8,8.9,522.3,4.1c42.3-3.1,85,16,105.8,53.8c10,18.2,21.1,35.7,31.8,53.5c11,18.3,18.4,46.8,45.6,42.2
			c8.3-1.4,15.8-5.5,22.8-10c29.1-18.8,57.9-48.7,95.8-43.1c61.9,9.1,101.6,98,114.3,150.2c15.9,65,11.8,133,6.4,199.7
			c-2.6,32.3-5.5,64.9,0,96.8c7,40.6,30.3,69,58.6,97.1c17,16.9,35.9,32.2,50.4,51.3c28.2,37.5,24.4,90.5,16.6,134.5
			c-8.7,49.1-29.8,102-75.5,121.9c-41.6,18.2-90.1,3.2-133.9,5.1c-47.8,2.1-96.4,13.2-135,42.8c-46.5,35.6-71.5,91-115.2,129.3
			c-46.4,40.7-106.8,42.5-162.2,19c-46.8-19.8-86.7-54.9-113.7-97.9c-13.7-21.8-26.5-47.6-31.2-73.2c-4.9-26.8-4.1-53.3-18.1-78.2
			C285.3,898.5,285.1,898,284.8,897.5z"/>
		<path class="st1" d="M519,1167.3c-23.1,0-47.4-5.1-71.8-15.5c-46.5-19.7-87.5-55-115.5-99.3c-16.9-26.9-27.6-52-31.8-74.6
			c-1.4-7.5-2.3-15-3.2-22.2c-2.4-19.2-4.7-37.4-14.5-54.8c-0.3-0.5-0.5-0.9-0.8-1.4l0,0c-21.7-37.1-66.6-57-109.9-76.3
			c-20.8-9.3-40.5-18-57.3-28.5C70.6,767.6,38.1,732,20.1,691.8c-19.8-44.3-25.3-97.9-15.3-147c11.1-54.3,40.4-96.5,82.4-118.9
			c7.1-3.8,15.1-8,15.9-14.7c0.4-2.9-0.7-6.2-1.7-9.3c-10.8-32.8-21.6-67.7-24.3-101.8c-3.2-39.7,4.9-72.8,24.8-101.1
			c27.3-39,67.4-68.9,110-82.2l1.6-0.5c15.1-4.7,32.2-10,48.8-8.1c28.3,3.3,49.6,19.8,70.2,35.9c2.2,1.7,4.4,3.5,6.7,5.2
			c5.1,3.9,8.1,4.7,9.3,4.2c2.8-1.3,3.6-11,4.1-17.4c0.5-6.1,1-11.9,2.7-16c12.5-30.4,36.5-59.4,67.6-81.7
			c30.9-22.2,66.1-35.7,99.1-38.1c46-3.3,89,18.6,109.5,55.8c7.2,13,15,26,22.7,38.5c3,5,6,9.9,9,14.9c2.2,3.6,4.2,7.7,6.2,11.6
			c8.4,16.5,16.2,32,35.4,28.8c8-1.3,15.3-5.5,21.4-9.5c6.1-3.9,12.1-8.3,18.4-12.9c23.9-17.4,48.6-35.4,80-30.8
			c28.3,4.1,55.4,25.1,78.3,60.6c16.8,26.1,31.5,60.6,39.2,92.4c15.8,64.6,12.1,131.9,6.5,200.9l-0.2,2.7
			c-2.5,30.8-5.1,62.7,0.2,93.2c6.5,38,27.7,65.5,57.5,95c5,4.9,10.2,9.8,15.3,14.6c12.3,11.5,25.1,23.4,35.5,37.2
			c30.3,40.2,24.4,97.7,17.3,137.5c-8,44.9-28,103-77.7,124.8c-28.5,12.4-60,9.8-90.4,7.3c-14.9-1.2-30.4-2.5-44.8-1.9
			c-54.9,2.4-99.6,16.5-132.9,42c-24.5,18.7-43.4,43.7-61.7,67.9c-16.1,21.3-32.7,43.2-53.3,61.3
			C586.8,1155.4,554.2,1167.3,519,1167.3z M255.2,115.5c-13.2,0-27,4.3-39.4,8.2l-1.6,0.5c-41,12.8-79.6,41.7-106,79.3
			c-43.6,62.2-18.1,139.6,0.5,196.1c1.2,3.6,2.6,8,2,12.7c-1.4,10.6-11.6,16.1-19.9,20.4c-86,45.7-102.4,169.3-63.7,256
			c17.3,38.8,48.8,73.2,91.2,99.5c16.4,10.2,35.8,18.8,56.4,28c44.5,19.8,90.5,40.3,113.4,79.4l0,0c0.3,0.5,0.6,1,0.9,1.5
			c10.6,18.8,13,38.5,15.4,57.6c0.9,7.1,1.8,14.5,3.1,21.8c4,21.6,14.3,45.8,30.7,71.9c27.1,43,66.8,77.2,112,96.4
			c58.8,24.9,116.4,18.2,158.1-18.4c20-17.5,36.4-39.2,52.2-60.1c18.6-24.6,37.8-50,63.1-69.3c34.5-26.4,80.7-41.1,137.2-43.5
			c15-0.7,30.6,0.6,45.8,1.9c29.5,2.4,60,5,86.7-6.7c46.6-20.4,65.6-76,73.2-119.1c6.8-38.3,12.6-93.7-15.9-131.5
			c-10-13.3-22.5-24.9-34.6-36.2c-5.1-4.8-10.4-9.7-15.5-14.7c-30.8-30.6-52.8-59.1-59.6-99.2c-5.4-31.5-2.8-63.8-0.2-95.1l0.2-2.7
			c5.5-68.4,9.2-135-6.3-198.4c-11.5-47-49.5-138.3-111.2-147.3c-28.3-4.1-51.7,12.9-74.4,29.4c-6.1,4.5-12.5,9.1-18.8,13.1
			c-6.7,4.4-14.9,9-24.3,10.6c-2.2,0.4-4.3,0.5-6.3,0.5c-20.3,0-29.6-18.4-37.2-33.4c-2-4-3.9-7.8-6-11.2c-3-5-6-9.9-9-14.8
			C640,86,632,73,624.8,59.8c-19-34.6-59.1-55-102.2-51.9c-65.2,4.7-135.5,55.2-160.2,115c-1.3,3-1.7,8.5-2.1,13.7
			c-0.8,10.2-1.7,20.7-8.7,23.8c-5.9,2.6-12.6-1.7-17.1-5.1c-2.2-1.7-4.5-3.5-6.7-5.2c-20.7-16.1-40.2-31.3-66.4-34.3
			C259.3,115.7,257.3,115.5,255.2,115.5z"/>
	</g>
	<g>
		<g>
			<path class="st1" d="M883,783.1c-73.5,12.9-147.5,24-215,59.3c-45.8,24-84.8,56.5-122.1,91.9c-17,16.1-35.5,32.4-56.3,42.5
				c-43.5,21-78.9,12-107.4-27.4c-29.9-41.5-52.9-87.4-45-140.8c2.7-18,11.6-38.7,24.6-50.9c34.4-32.3,47.6-72.8,54.2-116.7
				c3.2-21.6,2.8-43.7,4.3-65.5c2.5-37.8,15.3-71.5,43.6-97.5c36-33.2,79-34.8,121.3-18c28.4,11.3,52.8,32.3,80.5,46
				c27.5,13.7,56.6,24.6,85.7,34.8c9.7,3.4,22.2,2.9,32.4,0.2c49.1-12.8,85.1,8,112.4,45.3c16.4,22.3,28.5,48.1,40.1,73.5
				c17.3,38,12.2,73.3-18.2,103.6C906.4,769.8,894.7,776.4,883,783.1z"/>
		</g>
		<g>
			<path class="st1" d="M869.5,298.3c4.2,24.3,11.7,48.5,12,72.8c0.8,57-42.8,116.1-91,128.3c-57.3,14.4-103.7-9-120.2-65.7
				c-20.5-70.1-11.7-139.1,22-203.5c20.4-39.1,53.1-48.4,92.2-27.5c19.8,10.6,36.3,27.4,54.3,41.4
				C849.1,262.2,859.3,280.3,869.5,298.3z"/>
		</g>
		<g>
			<path class="st1" d="M593.6,386.7c-48.1,22.3-91.4,15.9-125-22.8c-52.6-60.6-65.3-132.9-55.1-209.8c5.1-38.2,35.1-57.4,74.1-53.7
				c53.7,5.1,91.4,35.9,123.8,75.9c42.8,52.9,46.3,109.6,15.2,168.5C618.5,360.3,604.8,372.8,593.6,386.7z"/>
		</g>
		<g>
			<path class="st1" d="M210,412.2c-21.1-52.4-34.4-115.5,6.8-178.3c20.2-30.8,43.6-39.2,78.2-26c43.2,16.4,72.4,49.8,99.9,85.1
				c22.4,28.7,39.4,59.4,42.6,96.8c5.9,68.2-49.7,118.6-116.9,105C271.1,484.9,238.8,462.6,210,412.2z"/>
		</g>
		<g>
			<path class="st1" d="M365.9,596.5c18.7,30,23.4,62.9,3.3,96.4c-24,40.1-62,52.4-106,51.5c-70.9-1.5-111-45.3-140.5-103.1
				c-18.5-36.1-24.2-73.6-12.2-113.1c9.3-30.8,29.6-48.3,61.6-46.2c22.1,1.4,44.4,6.9,65.4,14.1C290,514,343.3,556.6,365.9,596.5z"
				/>
		</g>
	</g>
	<g>
		<g>
			<path class="st1" d="M471.3,1106.2c-2.7,0.1-5.5,0.1-8.5,0.1c-0.6,0-1.1-0.3-1.5-0.6c-0.4-0.4-0.6-0.9-0.6-1.5
				c-0.3-7.5-0.5-16.6-0.7-27.4c-0.1-10.8-0.1-19.9,0.1-27.4c0-0.6,0.3-1.1,0.6-1.5c0.4-0.4,0.8-0.7,1.4-0.8
				c1.9-0.3,4.3-0.5,7.3-0.6c3.4-0.1,6.1-0.2,8.1-0.1c0.7,0,1.2,0.3,1.6,0.7c0.4,0.4,0.5,1,0.4,1.6c-0.5,2.1-0.8,4.1-0.8,6.2
				c0,0.9,0.2,1.4,0.6,1.5c0.5,0.1,0.8-0.3,1.1-1.1c1.1-3.1,2.8-5.5,5.1-7.3c2.3-1.8,4.9-2.7,7.9-2.8c5-0.2,9,1.5,12.1,5.1
				s4.8,8.7,5.1,15.5c0.3,6.7-1,12.1-3.9,16c-2.9,3.9-6.8,6-11.9,6.2c-3.2,0.1-6-0.6-8.4-2.1c-2.4-1.5-4.3-3.9-5.5-7.1
				c-0.3-0.8-0.7-1.1-1.2-0.9c-0.5,0.1-0.7,0.6-0.6,1.5c0.2,3.7,0.5,7.8,1.1,12.4c0.6,4.5,1.2,8.3,1.9,11.4c0.1,0.7,0,1.2-0.4,1.7
				c-0.4,0.5-0.9,0.7-1.6,0.8C477.4,1105.8,474.5,1106.1,471.3,1106.2z M481.1,1072.3c1.2,1.3,2.7,1.9,4.6,1.8
				c1.8-0.1,3.3-0.8,4.4-2.2c1.1-1.4,1.6-3.2,1.5-5.3c-0.1-2.2-0.8-3.9-2-5.1c-1.2-1.2-2.7-1.8-4.6-1.7c-1.8,0.1-3.3,0.8-4.4,2.1
				c-1.1,1.3-1.6,3.1-1.5,5.3C479.3,1069.3,479.9,1071,481.1,1072.3z"/>
		</g>
		<g>
			<path class="st1" d="M539.3,1070.9c-6.7,4.5-12.2,3.5-16.4-2.9c-1.1-1.6-1.6-3.3-1.7-5.2c0-1.9,0.4-3.7,1.3-5.5
				c0.9-1.8,2.1-3.7,3.5-5.4c1.5-1.8,3.2-3.6,5.3-5.3c2-1.7,3.4-3.1,4.1-4.1c0.7-1,0.8-1.9,0.2-2.7c-0.5-0.7-1.2-1-2.3-0.9
				c-1.1,0.1-2.5,0.7-4.2,1.8c-1.7,1.2-3.5,2.9-5.4,5.1c-1.8,2.3-3.2,4.6-4.2,6.9c-0.2,0.9-0.6,1.4-1.3,1.5
				c-0.7,0.1-1.4-0.3-1.9-1.2c-1.3-1.9-3.2-4.9-5.5-9c-0.6-1.1-0.7-2-0.1-2.8c2.7-3.6,7.1-7.4,13.3-11.5c3.2-2.1,6.1-3.6,8.8-4.5
				c2.7-0.9,5.1-1.2,7.3-1c2.1,0.3,4,0.9,5.7,1.9c1.7,1,3.2,2.4,4.7,4.1c5.4,6.6,10.5,13.1,15.1,19.7c0.7,1.1,0.6,2.1-0.3,3.1
				c-1.3,1.1-3.3,2.5-6,4.3c-2.5,1.7-4.6,2.9-6.3,3.8c-0.9,0.4-1.7,0.6-2.4,0.4c-0.8-0.2-1.3-0.6-1.6-1.4c-0.7-1.5-1.6-3.2-2.5-5
				c-0.4-0.7-0.8-0.9-1.2-0.8c-0.4,0.1-0.5,0.6-0.4,1.4c0.8,3.4,0.7,6.4-0.4,9S541.8,1069.3,539.3,1070.9z M540,1054.8
				c0.9-0.6,1.5-1.6,1.9-3.1c0.3-1.5,0.1-2.9-0.8-4.3c-0.5-0.7-1.1-1.2-1.8-1.4c-0.7-0.2-1.4-0.1-2.2,0.4c-1.2,0.8-2,2-2.5,3.5
				c-0.4,1.5-0.2,2.9,0.6,4.1c0.6,1,1.3,1.5,2.1,1.6C538.1,1055.7,538.9,1055.4,540,1054.8z"/>
		</g>
		<g>
			<path class="st1" d="M582.8,1038.9c-1.5,1.2-3.6,2.7-6.1,4.4c-0.5,0.3-1,0.4-1.5,0.4c-0.5,0-1-0.2-1.4-0.5
				c-4.4-3.1-9.2-6.9-14.4-11.4c-5.2-4.5-9.9-9.2-14.1-14c-0.4-0.4-0.6-0.9-0.6-1.4c0-0.5,0.2-1,0.7-1.4c1.2-1.2,3.1-2.8,5.6-4.8
				c2.7-2.1,4.7-3.6,6.1-4.5c0.5-0.3,1-0.4,1.6-0.3c0.5,0.1,1,0.4,1.4,0.9c2.7,3.5,5.7,7,9.1,10.5c3,3.2,4.8,4.5,5.6,3.9
				s0.3-2.5-1.3-5.8c-0.4-0.8-1.3-2.5-2.5-5s-2.1-4.1-2.6-5.1c-1.8-3.7-1.8-6.3,0.2-8c2.1-1.7,4.7-1.1,7.9,1.6
				c0.7,0.6,2.1,1.8,4.2,3.6c2.1,1.8,3.6,3.1,4.3,3.7c2.8,2.2,4.5,3,5.3,2.4c0.7-0.6,0-2.6-2.3-6.1c-2.5-4-5.3-7.8-8.2-11.4
				c-0.4-0.5-0.6-1-0.5-1.6s0.3-1,0.7-1.5c1.1-1.2,3.1-2.8,5.8-4.9c2.8-2.2,4.8-3.7,5.9-4.3c1.2-0.6,2.1-0.5,2.8,0.5
				c3.7,5.2,7.1,10.8,10.2,16.9c3.2,6.1,5.8,11.7,7.8,16.7c0.4,1.1,0.3,2-0.6,2.9c-1.9,1.8-3.8,3.4-5.6,4.8
				c-1.7,1.3-3.7,2.8-6.1,4.4c-1.5,0.9-2.7,1-3.8,0.1c-0.4-0.4-1.9-1.7-4.5-4c-2.5-2.3-4.8-4.2-6.7-5.7c-1.9-1.5-3.1-2-3.6-1.6
				c-0.5,0.4-0.2,1.7,0.8,3.9c1,2.2,2.3,4.9,4.1,8c1.7,3.1,2.7,4.8,2.8,5.1c0.6,1.3,0.2,2.5-1,3.7
				C586.4,1036,584.5,1037.5,582.8,1038.9z"/>
		</g>
		<g>
			<path class="st1" d="M637.9,997.1c-2.6,1.8-5.5,3.6-8.7,5.3c-3.3,1.7-6.2,3.1-8.9,4c-1.1,0.4-1.9,0.1-2.5-0.7
				c-1.5-2-3.6-5-6.3-9.1c-0.5-0.7-0.5-1.4,0-2c0.5-0.6,1.1-0.8,2-0.7c2.5-0.1,4.9-0.5,7.3-1.3c2.4-0.8,4.5-1.8,6.3-3.1
				c3.3-2.4,4.4-4.3,3.3-6c-0.3-0.5-0.9-0.7-1.6-0.7c-0.7,0-1.6,0.2-2.6,0.6c-1,0.4-2.1,0.8-3.3,1.3c-1.2,0.5-2.5,1-3.8,1.5
				c-1.3,0.5-2.6,0.9-4,1.1c-1.4,0.2-2.7,0.3-4,0.2c-1.3-0.1-2.5-0.5-3.8-1.2c-1.2-0.7-2.4-1.7-3.3-3.1c-4.4-6.3-1.3-13.2,9.5-20.9
				c5.2-3.7,10-6.4,14.4-8.2c1-0.3,1.8-0.1,2.5,0.7c3.2,3.8,5.2,6.2,6,7.3c0.6,0.7,0.7,1.4,0.3,2c-0.3,0.6-0.9,0.9-1.7,0.8
				c-1.7,0.2-3.5,0.6-5.3,1.3c-1.9,0.7-3.5,1.5-5,2.5c-1.9,1.3-3.1,2.5-3.8,3.6c-0.7,1.1-0.8,2-0.2,2.8c0.3,0.5,0.9,0.7,1.7,0.6
				c0.8,0,1.7-0.3,2.7-0.7c1-0.4,2.2-0.9,3.5-1.4c1.3-0.5,2.7-1.1,4.1-1.7c1.4-0.6,2.8-1,4.3-1.3c1.5-0.3,2.9-0.4,4.3-0.4
				c1.4,0,2.7,0.4,4,1.1c1.3,0.7,2.5,1.8,3.4,3.2c2.3,3.2,2.5,6.8,0.7,10.8C647.3,989.1,643.5,993.1,637.9,997.1z"/>
		</g>
		<g>
			<path class="st1" d="M643.5,939.7c-2.5,1.6-4.8,2.2-6.8,1.8c-2.1-0.3-3.7-1.5-4.9-3.4c-1.2-1.9-1.5-3.9-0.9-5.9
				c0.6-2,2.1-3.8,4.6-5.3c2.5-1.6,4.8-2.2,6.9-1.9c2.1,0.3,3.7,1.4,4.9,3.3c1.2,1.9,1.5,3.9,0.9,5.9S646,938.1,643.5,939.7z
				 M667.2,977.3c-2.9,1.8-5.2,3.1-7,4c-0.5,0.3-1.1,0.3-1.6,0.2c-0.5-0.1-1-0.5-1.3-0.9c-6.2-10-12.4-20.9-18.5-32.6
				c-0.3-0.5-0.3-0.9-0.2-1.4c0.1-0.5,0.4-0.9,0.8-1.3c1.3-1.1,3.1-2.3,5.4-3.7c2.3-1.4,4.1-2.4,5.5-3.1c0.5-0.2,1-0.3,1.5-0.2
				c0.5,0.1,0.9,0.4,1.2,0.8c7.8,10.6,14.9,21,21.1,31c0.3,0.5,0.4,1,0.3,1.6c-0.1,0.6-0.4,1-0.8,1.4
				C672,974.2,669.9,975.6,667.2,977.3z"/>
		</g>
		<g>
			<path class="st1" d="M699.2,959.2c-2.4,1.3-4.7,2.2-6.9,2.7c-2.2,0.5-4.4,0.6-6.4,0.3c-2.1-0.3-4-1.1-5.8-2.4
				c-1.8-1.3-3.3-3.2-4.6-5.5c-2.6-4.8-4.5-8.6-5.6-11.6c-0.1-0.3-0.3-0.4-0.6-0.5c-0.3-0.1-0.5,0-0.8,0.2c-1.2,0.7-2.1,1.2-2.7,1.6
				c-0.5,0.3-1,0.3-1.6,0.1c-0.5-0.2-1-0.5-1.3-1c-0.4-0.7-0.9-1.5-1.3-2.3s-1-1.8-1.5-2.8c-0.5-1-1-1.8-1.3-2.4
				c-0.2-0.5-0.3-1.1-0.1-1.6s0.5-0.9,1-1.2l3.3-1.8c0.3-0.1,0.4-0.3,0.5-0.6c0.1-0.3,0.1-0.5,0-0.8c-1.2-2.5-2.2-4.6-2.9-6.2
				c-0.2-0.5-0.2-1-0.1-1.5c0.2-0.5,0.5-0.9,0.9-1.3c0.2-0.2,2.1-1.3,5.6-3.4c3.1-1.7,5.6-2.9,7.3-3.7c0.6-0.2,1.2-0.2,1.8,0
				c0.6,0.2,1,0.6,1.2,1.2c1,2.9,1.7,4.8,2.2,5.6c0.2,0.4,0.5,0.7,0.8,0.8c0.3,0.2,0.6,0.2,0.9,0c0.9-0.5,2.3-1.3,4.1-2.3
				c1.9-1.1,3.3-1.9,4.1-2.3c0.5-0.3,1-0.3,1.6-0.2c0.6,0.2,1,0.5,1.3,1.1l4.1,7.5c0.3,0.5,0.4,1.1,0.2,1.7c-0.1,0.6-0.5,1-1,1.2
				c-2.9,1.3-5.4,2.6-7.5,3.8c-1.4,0.8-1.8,1.8-1.3,3.1c1,2.4,2.3,4.7,3.7,6.9c0.8,1.3,1.8,2,3.1,2.2c1.3,0.2,2.7-0.1,4.2-0.9
				c0.7-0.4,1.4-0.9,2.2-1.7c0.8-0.8,1.4-1.5,1.9-2.1c0.3-0.7,0.8-1,1.4-1c0.7,0,1.2,0.4,1.7,1.1c1.4,2.4,3,5.4,4.9,9.1
				c0.7,1.2,0.6,2.3-0.2,3.2C706.6,954.5,703.1,957,699.2,959.2z"/>
		</g>
		<g>
			<path class="st1" d="M724.3,946.3c-3.1,1.4-5.6,2.5-7.5,3.2c-0.6,0.2-1.1,0.2-1.6,0c-0.5-0.2-0.9-0.6-1.1-1.1
				c-5-10.7-9.8-22.2-14.5-34.6c-0.2-0.5-0.2-1,0-1.5c0.2-0.5,0.5-0.9,1-1.2c1.4-0.9,3.4-1.9,5.8-3.1c2.4-1.1,4.4-1.9,5.8-2.4
				c0.5-0.2,1.1-0.2,1.5,0c0.5,0.2,0.8,0.5,1.1,1c6.5,11.5,12.3,22.6,17.3,33.3c0.2,0.5,0.3,1,0.1,1.6c-0.2,0.5-0.5,1-1,1.3
				C729.5,943.7,727.2,944.9,724.3,946.3z M705.2,906.1c-2.7,1.3-5,1.6-7,1c-2-0.6-3.5-1.9-4.5-4c-1-2-1-4-0.2-5.9
				c0.8-1.9,2.6-3.5,5.2-4.8c2.7-1.3,5-1.6,7.1-1c2,0.6,3.5,1.9,4.5,3.9c1,2.1,1,4,0.1,6C709.6,903.3,707.9,904.9,705.2,906.1z"/>
		</g>
		<g>
			<path class="st1" d="M757.7,932c-5.2,2-8.6,3.2-10.3,3.6c-0.9,0.2-1.6,0-2.2-0.6c-3.8-3.5-7.9-8.2-12.4-14s-8.3-11.7-11.4-17.5
				c-0.3-0.5-0.4-1-0.3-1.5s0.4-0.9,0.9-1.1c2.2-1.1,4.5-2.1,7-3c2.9-1.1,5.5-2,7.7-2.6c0.5-0.1,1-0.1,1.4,0.2
				c0.4,0.2,0.7,0.6,0.9,1.1c1.4,3.5,3.4,7.6,6,12.3c2.6,4.8,4.8,8.3,6.6,10.5c0.4,0.6,0.8,0.9,1.2,1c0.4,0.1,0.6,0,0.8-0.3
				c0.2-0.3,0.2-0.8,0.2-1.5c-0.2-2.8-0.9-6.9-2.2-12.2c-1.3-5.3-2.6-9.7-3.9-13.1c-0.2-0.5-0.2-1,0-1.4c0.2-0.5,0.5-0.8,1-1.1
				c1.4-0.8,4-1.9,7.8-3.3c3.1-1.2,5.3-2,6.8-2.3c0.6-0.1,1.1-0.1,1.5,0.2c0.4,0.3,0.7,0.7,0.8,1.3c1.6,6.4,2.7,13.3,3.3,20.7
				c0.6,7.4,0.7,13.6,0.3,18.7c-0.1,0.9-0.5,1.5-1.2,2C766.4,928.5,763,929.9,757.7,932z"/>
		</g>
		<g>
			<path class="st1" d="M803.9,916.8c-7.4,2.1-13.7,2-18.9-0.4c-5.3-2.4-8.9-7-10.8-13.7c-1.8-6.3-1.3-11.8,1.7-16.5
				c2.9-4.7,7.7-8,14.2-9.9c5.9-1.7,10.9-1.9,14.9-0.5c4,1.4,6.7,4.4,8,9c0.9,3.2,0.2,6.3-2.2,9.3c-2.4,3-5.5,5.1-9.5,6.2
				c-3.7,1.1-7.2,1.1-10.6,0.1c-0.7-0.3-1.2-0.2-1.4,0.2c-0.2,0.4-0.1,0.9,0.6,1.4c1.3,1.5,3.2,2.4,5.6,2.9c2.4,0.4,4.9,0.3,7.2-0.4
				c2.6-0.8,4.8-1.8,6.6-3.1c1.8-1.3,3.4-3,4.7-5.2c0.3-0.9,0.9-1.2,1.6-1.2c0.7,0.1,1.3,0.6,1.7,1.6c1.3,3.2,2.5,6.2,3.5,9
				c0.4,1,0.2,2-0.5,2.8c-1.6,1.7-3.9,3.2-6.8,4.7C810.4,914.7,807.2,915.9,803.9,916.8z M795.3,895.7c1.3-0.4,2.2-1,2.7-1.9
				c0.6-0.9,0.7-2,0.3-3.2c-0.8-2.8-2.8-3.8-5.9-2.9c-1.5,0.4-2.6,1.3-3.5,2.5c-0.9,1.2-1.1,2.5-0.7,3.9c0.3,1,1.2,1.7,2.7,1.9
				C792.4,896.2,793.9,896.2,795.3,895.7z"/>
		</g>
		<g>
			<path class="st1" d="M870.7,900.6c-5.5,1.2-9,1.9-10.7,2c-0.9,0.1-1.6-0.3-2.1-1c-3.2-4-6.6-9.3-10.1-15.8
				c-3.6-6.5-6.4-12.9-8.6-19.1c-0.2-0.5-0.2-1,0-1.5c0.2-0.5,0.5-0.8,1-1c2.3-0.7,4.8-1.4,7.3-1.9c3.1-0.7,5.8-1.2,8-1.4
				c0.5,0,1,0.1,1.4,0.4c0.4,0.3,0.6,0.7,0.8,1.2c0.8,3.6,2.2,8,4,13.1c1.8,5.1,3.5,8.9,4.9,11.4c0.3,0.6,0.7,1,1,1.2
				c0.3,0.2,0.6,0.1,0.8-0.2c0.2-0.3,0.4-0.8,0.4-1.5c0.3-2.8,0.2-7-0.3-12.4c-0.5-5.4-1.1-10-1.9-13.6c-0.1-0.5,0-1,0.2-1.4
				c0.2-0.4,0.6-0.7,1.1-0.9c1.5-0.5,4.3-1.2,8.2-2.1c3.2-0.7,5.6-1.1,7.1-1.2c0.6-0.1,1.1,0.1,1.4,0.4s0.6,0.8,0.6,1.4
				c0.6,6.6,0.6,13.6,0.1,20.9s-1.4,13.5-2.6,18.5c-0.2,0.9-0.7,1.4-1.5,1.7C879.8,898.5,876.3,899.4,870.7,900.6z"/>
		</g>
		<g>
			<path class="st1" d="M909.1,891.1c-3.2,1-5.9,1.7-7.9,2.1c-0.6,0.1-1.1,0-1.6-0.3c-0.5-0.3-0.8-0.7-1-1.2
				c-3.4-11.3-6.5-23.4-9.3-36.3c-0.1-0.5-0.1-1,0.2-1.4c0.3-0.5,0.6-0.8,1.1-1c1.6-0.7,3.6-1.4,6.2-2.2c2.6-0.8,4.6-1.3,6.1-1.5
				c0.6-0.1,1.1,0,1.5,0.2c0.4,0.2,0.8,0.6,1,1.1c4.8,12.3,8.9,24.1,12.3,35.4c0.2,0.5,0.1,1.1-0.1,1.6c-0.3,0.5-0.6,0.9-1.1,1.1
				C914.5,889.3,912.1,890.1,909.1,891.1z M896,848.5c-2.8,0.9-5.2,0.8-7.1,0s-3.2-2.4-3.8-4.6c-0.6-2.1-0.4-4.1,0.7-5.9
				c1.1-1.8,3.1-3.1,5.9-3.9c2.8-0.9,5.2-0.9,7.2,0c1.9,0.9,3.2,2.4,3.9,4.5c0.7,2.2,0.4,4.2-0.7,5.9
				C900.8,846.4,898.8,847.7,896,848.5z"/>
		</g>
		<g>
			<path class="st1" d="M961.1,865.5c-2.5,1.7-5.1,2.6-7.9,2.7c-2.8,0.1-5.5-0.7-8.2-2.2c-0.8-0.4-1.4-0.5-1.7-0.1
				c-0.3,0.3-0.2,0.8,0.4,1.6c0.9,1.2,2.1,2.5,3.6,4c0.4,0.5,0.6,1,0.5,1.6c-0.1,0.6-0.4,1.1-0.8,1.5c-1.4,1.2-3.4,2.8-6.1,4.6
				c-2.9,2-5.2,3.5-7.1,4.6c-0.5,0.3-1.1,0.4-1.6,0.2c-0.5-0.1-1-0.4-1.3-1c-5-7.2-10.1-14.7-15.3-22.7s-9.2-14.5-12.1-19.4
				c-0.3-0.5-0.4-1-0.3-1.5c0.1-0.5,0.3-1,0.8-1.3c1-0.9,3-2.4,5.9-4.5c3.3-2.3,5.6-3.8,6.9-4.6c0.6-0.3,1.2-0.3,1.8-0.2
				s1,0.5,1.3,1c2.9,6.2,5.9,11.7,9.1,16.7c0.6,0.8,1,1.1,1.4,0.9c0.4-0.2,0.6-0.8,0.5-1.6c-0.6-3.5-0.4-6.4,0.4-8.9
				c0.9-2.5,2.7-4.6,5.3-6.5c4.1-2.9,8.5-3.5,13.2-2c4.7,1.6,9,5.2,13,10.8c3.8,5.4,5.5,10.5,5.1,15
				C967.5,858.9,965.2,862.6,961.1,865.5z M945.6,859.1c1.6-1.1,2.4-2.5,2.6-4.2c0.2-1.7-0.3-3.4-1.5-5.2c-1.3-1.8-2.7-2.9-4.5-3.4
				c-1.7-0.5-3.4-0.1-4.9,0.9c-1.5,1.1-2.4,2.5-2.5,4.2c-0.2,1.8,0.4,3.6,1.6,5.3c1.2,1.8,2.7,2.9,4.4,3.2
				C942.5,860.5,944.1,860.2,945.6,859.1z"/>
		</g>
		<g>
			<path class="st1" d="M996.3,820.3c-3.6,6.7-8.2,11.1-13.6,13.2c-5.4,2-11.2,1.4-17.4-1.9c-5.7-3.1-9.3-7.4-10.5-12.8
				c-1.3-5.4-0.3-11.1,2.9-17.1c2.9-5.4,6.3-9.1,10.1-10.9c3.8-1.9,7.8-1.6,12,0.6c2.9,1.6,4.6,4.3,5.1,8.1
				c0.5,3.8-0.3,7.5-2.2,11.2c-1.8,3.4-4.3,5.9-7.4,7.6c-0.7,0.3-1,0.7-0.9,1.2c0.1,0.5,0.6,0.7,1.4,0.6c1.9,0.1,3.9-0.5,6-2
				c2-1.4,3.6-3.2,4.8-5.4c1.3-2.4,2.1-4.7,2.4-6.9c0.3-2.2,0.2-4.5-0.3-7c-0.4-0.8-0.3-1.5,0.3-2c0.6-0.5,1.4-0.5,2.4-0.1
				c3.2,1.3,6.2,2.6,8.9,3.9c1,0.5,1.6,1.2,1.7,2.3c0.1,2.3-0.4,5-1.5,8.1C999.3,814.2,997.9,817.3,996.3,820.3z M975.2,811.6
				c0.6-1.2,0.8-2.3,0.6-3.3c-0.2-1-0.9-1.8-2.1-2.5c-2.6-1.4-4.7-0.7-6.2,2.1c-0.7,1.4-1,2.8-0.7,4.2c0.3,1.5,1.1,2.5,2.3,3.2
				c0.9,0.5,2,0.3,3.2-0.6C973.6,814,974.5,812.9,975.2,811.6z"/>
		</g>
		<g>
			<path class="st1" d="M1013.3,770.1c-0.6,3.1-1.5,6.4-2.6,9.9c-1.2,3.5-2.4,6.5-3.6,9c-0.5,1-1.3,1.4-2.3,1.2
				c-2.4-0.4-6.1-1.1-10.9-2.2c-0.9-0.2-1.4-0.7-1.4-1.4c-0.1-0.8,0.2-1.4,0.9-1.9c1.7-1.8,3.2-3.8,4.3-6c1.2-2.2,2-4.4,2.4-6.6
				c0.8-4,0.2-6.2-1.7-6.6c-0.6-0.1-1.1,0.1-1.7,0.6s-1,1.2-1.5,2.2c-0.4,0.9-0.9,2-1.5,3.2c-0.6,1.2-1.1,2.4-1.7,3.7
				c-0.6,1.2-1.3,2.4-2.1,3.6c-0.9,1.1-1.8,2.1-2.7,3c-1,0.8-2.2,1.4-3.5,1.8c-1.4,0.4-2.9,0.4-4.5,0.1c-7.6-1.5-10.1-8.7-7.6-21.6
				c1.2-6.3,2.8-11.6,4.7-15.9c0.5-0.9,1.3-1.3,2.2-1.2c4.9,0.5,8,0.9,9.4,1.2c0.9,0.1,1.5,0.6,1.6,1.2c0.2,0.7-0.1,1.2-0.7,1.8
				c-1.1,1.3-2.1,2.8-3,4.6c-0.9,1.8-1.5,3.6-1.9,5.3c-0.5,2.2-0.6,4-0.3,5.2c0.3,1.3,0.8,2,1.8,2.1c0.6,0.1,1.1-0.1,1.7-0.7
				c0.5-0.6,1-1.4,1.5-2.4c0.5-1,1-2.2,1.5-3.5c0.6-1.3,1.2-2.6,1.8-4s1.4-2.7,2.2-3.9c0.9-1.2,1.8-2.3,2.8-3.2c1-0.9,2.2-1.6,3.7-2
				c1.4-0.4,3-0.4,4.7-0.1c3.9,0.8,6.5,3.2,8,7.3C1014.6,757.9,1014.6,763.3,1013.3,770.1z"/>
		</g>
	</g>
</g>
</svg>
