<svg width="1619" height="643" viewBox="0 0 1619 643" fill="none" xmlns="http://www.w3.org/2000/svg">
<g clip-path="url(#clip0_29_424)">
<path d="M1608.66 415.64L1606.9 414.34L1604.91 413.487C1602.14 412.303 1599.15 411.693 1596.14 411.694C1583.3 411.694 1575.29 422.03 1570.47 428.21C1569.71 429.187 1569.07 430.11 1568.43 430.768C1566.4 433.031 1564.03 434.976 1561.42 436.54C1560.78 433.408 1560.62 430.201 1560.92 427.02C1562.75 405.708 1565.52 384.272 1569.12 363.103C1575.07 362.819 1581.14 362.481 1587.55 362.055L1588.49 361.966C1591.18 361.651 1593.77 360.777 1596.1 359.4C1598.42 358.024 1600.44 356.176 1602.01 353.974C1603.58 351.773 1604.67 349.268 1605.22 346.619C1605.76 343.97 1605.75 341.236 1605.17 338.594C1601.23 318.649 1592.81 306.094 1579.22 300.286C1579.25 300.157 1579.27 300.026 1579.28 299.895C1581.07 285.776 1582.22 269.419 1573.49 254.057C1564.66 238.606 1549.14 230.063 1529.85 230.063C1515.32 230.063 1498.84 235.163 1485.72 243.703C1483.47 245.107 1481.53 246.95 1480.01 249.124C1478.49 251.297 1477.43 253.754 1476.89 256.348L1476.69 257.485C1475.25 267.485 1473.91 277.411 1472.56 287.871C1460.59 290.287 1450.41 299.522 1445.56 311.954C1442.83 310.712 1440.02 309.638 1437.16 308.739C1429.44 306.36 1421.41 305.157 1413.34 305.17C1391.98 305.17 1369.99 313.57 1351.68 328.506C1354.16 305.063 1349.1 279.72 1337.1 257.431C1331.88 247.788 1325.62 239.085 1319.53 230.702C1311.29 219.265 1303.44 208.414 1299.78 196.941L1331.45 198.592C1334.34 198.753 1337.28 198.892 1340.19 198.892C1346.84 199.033 1353.46 198.012 1359.76 195.873C1371.73 191.61 1380.68 182.073 1383.66 171.062C1387.72 168.022 1391.38 164.484 1394.56 160.531C1400.35 153.437 1404.39 145.085 1406.37 136.146C1407.6 134.916 1408.68 133.545 1409.58 132.061C1411.51 128.958 1412.73 125.466 1413.15 121.836C1413.57 118.206 1413.17 114.529 1412 111.069C1408.48 100.822 1399.67 95.831 1396.81 94.197C1388.56 89.508 1379.71 86.72 1371.91 84.251C1362.2 81.179 1353.81 78.532 1348.93 73.436C1345.95 70.31 1343.6 65.585 1340.89 60.098C1338.41 54.8064 1335.53 49.7122 1332.27 44.86C1321.28 29.125 1302.94 17.883 1281.94 14.011C1275.84 12.8956 1269.65 12.3426 1263.45 12.359C1252.65 12.443 1241.89 13.8195 1231.42 16.459L1218.06 7.54401C1214.28 5.02201 1207.94 0.777002 1199.25 0.511002L1198.38 0.475006C1186.43 0.475006 1178.24 8.02301 1174.32 11.628C1157.59 26.9945 1141.91 43.4647 1127.38 60.928C1124.55 64.338 1119.28 70.66 1118.04 79.593C1117.31 85.1314 1118.14 90.762 1120.42 95.861C1110.12 115.133 1104.28 136.475 1103.35 158.306C1103.1 163.864 1103.21 169.299 1103.28 174.537C1103.44 182.423 1103.56 189.882 1102.53 196.756C1101.59 203.167 1099.37 208.779 1096.41 212.579C1075.93 214.267 1055.4 216.522 1035.49 218.742C1017.45 220.749 998.761 222.827 980.468 224.407C949.53 227.107 917.811 228.439 886.234 228.439C876.128 228.439 865.899 228.315 855.705 228.048C854.936 224.735 853.982 221.468 852.846 218.263C847.855 204.339 835.281 186.969 803.721 183.329C799.797 182.885 795.521 182.619 790.562 182.548L789.262 182.512C788.321 182.512 784.911 182.619 784.911 182.619L779.53 183.702C775.587 184.537 772.567 185.302 769.655 186.171C766.214 187.156 762.844 188.372 759.568 189.811C757.683 190.671 755.845 191.631 754.062 192.688C753.462 193.026 752.854 193.381 752.233 193.719C749.384 195.105 746.781 196.947 744.525 199.171L737.297 206.471L740.032 216.345C740.191 216.945 740.422 217.802 740.671 219.028C734.544 218.228 728.754 217.447 723.106 216.612C704.032 213.788 683.928 210.325 666.115 202.28C659.625 199.333 653.509 195.624 647.894 191.233C645.543 188.573 643.852 185.397 642.956 181.962C640.79 173.953 642.246 171.022 642.21 171.022C644.057 169.548 647.182 168.696 650.771 168.696C651.822 168.698 652.871 168.763 653.914 168.891C658.443 169.477 660.822 171.111 661.39 172.035C664.081 177.131 668.668 180.964 674.16 182.708C676.043 183.245 677.992 183.52 679.95 183.525C688.315 183.525 695.845 178.375 700.055 169.725C705.79 158.003 711.794 142.41 707.496 125.662C703.18 108.915 690.321 98.241 680.996 91.652C674.355 86.963 664.072 80.41 651.604 77.71C647.464 76.8345 643.244 76.3945 639.013 76.397C621.377 76.397 603.049 83.926 587.349 97.619C564.949 117.209 551.491 144.879 550.408 173.579C550.39 174.041 549.183 217.779 582.571 249.502C590.556 259.543 600.351 268.001 611.449 274.437C637.449 289.391 667.5 291.859 696.021 293.121C711.401 293.813 727.048 294.275 743.421 294.559C742.906 302.142 742.213 310.312 741.361 318.979C741.023 322.637 740.579 326.598 740.082 330.736C739.482 330.647 738.892 330.558 738.288 330.47C735.775 322.647 730.944 315.772 724.435 310.756C712.891 302.001 698.735 300.988 689.076 300.988L687.353 301.024C657.481 301.468 633.505 314.681 623.186 336.424C615.656 352.266 616.597 370.381 625.513 387.839C616.367 389.106 607.727 392.798 600.489 398.53C602.176 389.082 604.237 379.137 606.953 367.43C610.79 350.842 608.253 335.018 599.814 322.853C591.005 310.172 577.259 303.192 561.062 303.192C544.812 303.192 530.125 309.992 521.831 314.754C512.254 307.154 500.385 303.022 488.158 303.032C473.506 303.032 458.392 308.732 443.279 320.011C420.546 336.954 405.095 364.411 398.737 394.674C401.809 353.613 410.547 313.458 420.581 289.216C445.765 288.292 472.156 272.237 473.186 243.216C473.737 227.996 463.862 212.864 448.607 205.565C441.053 201.996 432.79 200.18 424.435 200.255C407.19 200.255 391.615 207.324 381.635 213.255L380.516 213.894L379.504 214.728C330.07 254.789 289.436 311.266 258.267 383C250.21 353.33 244.187 323.145 240.241 292.655C255.799 280.969 264.217 263.209 261.341 246.231C258.841 231.401 246.405 214.547 218.433 211.723C217.367 211.652 216.32 211.599 215.271 211.599C203.195 211.599 190.871 216.323 179.627 225.221C176.156 227.985 172.886 230.993 169.842 234.221C165.442 233.031 160.908 231.38 156.167 229.639C148.845 226.783 141.325 224.462 133.667 222.695C121.245 220.085 108.585 218.781 95.892 218.805C93.76 218.805 91.629 218.841 89.516 218.912C66.303 219.693 47.78 225.643 32.79 237.098C26.2072 241.939 20.6483 248.035 16.434 255.036C-0.47298 284.126 4.49901 322.754 28.245 346.908C40.321 359.18 54.263 367.243 68.506 370.226C72.3163 371.008 76.1963 371.401 80.086 371.398C92.713 371.398 104.896 367.491 113.492 360.672C122.567 353.514 135.192 337.015 118.18 307.09C117.08 305.172 114.841 301.229 114.611 298.867C114.595 298.802 114.588 298.734 114.592 298.667C116.351 297.583 121.537 295.896 130.239 295.896C133.005 295.898 135.769 296.065 138.515 296.396C134.182 314.245 131.908 333.408 129.671 352.109C124.787 393.241 120.134 432.064 96.531 453.163C88.646 460.231 77.599 464.618 67.707 464.618C62.4712 464.737 57.3173 463.304 52.895 460.498C48.3021 457.411 42.9055 455.738 37.372 455.685C25.972 455.685 15.599 462.913 9.68501 474.937C-9.77999 514.115 4.35702 562.386 41.973 584.924C55.363 592.824 71.721 597 89.338 597C123.082 597 157.448 581.869 176.823 558.461C193.464 538.361 201.971 514.985 206.891 491.222C210.276 502.389 214.43 513.308 219.323 523.901L219.607 524.451C223.034 531.235 228.878 540.773 239.942 545.301C243.686 546.88 247.706 547.701 251.77 547.717C266.529 547.717 279.529 536.794 286.562 518.502C289.439 510.971 291.783 503.423 294.038 496.102C294.482 494.628 294.945 493.19 295.406 491.751C293.488 514.821 292.476 539.916 298.461 564.229C304.288 588.925 318.758 610.722 339.255 625.679C353.961 636.548 373.07 642.551 393.068 642.551H393.085C435.798 642.551 481.849 615.36 483.004 564.993L483.04 564.265L482.986 563.554C482.737 559.523 482.134 548.814 473.538 541.425C468.299 536.914 461.728 534.625 453.967 534.625C451.924 534.625 449.829 534.802 447.767 534.98C446.773 535.069 445.813 535.158 444.767 535.18C431.167 533.298 420.684 524.862 412.746 509.428C405.713 495.628 401.415 477.851 399.266 458.228C400.406 463.232 401.835 468.166 403.546 473.004C416.014 507.529 442.227 528.965 471.94 528.965C486.609 528.965 500.568 523.477 512.397 513.39C521.697 523.14 534.297 528.433 549.124 528.433C567.967 528.433 586.988 519.694 601.64 508.594C616.807 522.536 637.853 530.333 660.905 530.333C665.719 530.341 670.527 529.996 675.291 529.303C691.251 527.071 706.722 522.172 721.057 514.81C722.141 531.01 724.857 543.884 729.369 554.11C734.609 566.045 742.227 575.031 751.942 580.803C761.267 586.163 771.625 589.481 782.329 590.536C786.526 591.036 790.748 591.29 794.974 591.299C800.714 591.326 806.44 590.748 812.059 589.577C819.903 588.007 827.423 585.112 834.295 581.016C840.992 577.115 846.974 572.1 851.984 566.187L855.484 561.96L855.803 558.76C856.318 557.277 856.658 555.74 856.816 554.178C857.987 542.178 850.937 532.316 839.748 529.794C837.72 525.063 836.363 520.071 835.716 514.964C835.094 510.88 834.616 506.671 834.189 502.426C840.857 509.344 848.578 515.164 857.064 519.671C870.896 526.929 886.306 530.657 901.926 530.522C926.576 530.522 951.777 521.873 972.947 506.706C976.89 512.163 981.839 516.817 987.528 520.417C996.492 526.272 1006.96 529.405 1017.67 529.439C1052.19 529.439 1079.08 498.465 1087.87 467.758C1088.68 464.985 1088.88 462.065 1088.43 459.209C1087.98 456.352 1086.9 453.631 1085.27 451.242C1083.59 448.798 1081.37 446.774 1078.78 445.33C1076.19 443.885 1073.3 443.057 1070.34 442.912C1070.14 442.912 1068.3 442.788 1067.94 442.344C1066.54 440.586 1063.67 433.731 1067.94 407.659C1068.23 405.72 1068.69 403.807 1069.29 401.94C1072.94 407.953 1078.09 412.92 1084.23 416.359C1090.37 419.797 1097.29 421.591 1104.33 421.565C1112.63 421.489 1120.76 419.156 1127.84 414.816C1129.03 414.075 1130.18 413.274 1131.29 412.416C1129.1 426.357 1125.53 449.125 1124.59 455.004C1123.15 464.132 1122.11 471.804 1121.41 478.465C1119.58 495.603 1119.05 510.273 1119.8 521.959C1120.65 535.119 1123 545.579 1127.03 553.959C1131.64 563.638 1138.29 570.884 1146.77 575.52C1154.62 579.649 1163.2 582.19 1172.03 582.997C1175.46 583.364 1178.9 583.553 1182.35 583.565C1187.08 583.587 1191.8 583.147 1196.45 582.251C1202.93 581.065 1209.18 578.853 1214.97 575.697C1220.61 572.673 1225.7 568.73 1230.03 564.029L1234.03 559.216L1234.33 556.143C1234.75 554.863 1235.04 553.541 1235.19 552.201C1236.32 541.509 1230.07 532.363 1220.25 529.501C1219.66 527.565 1218.97 524.866 1218.21 521.171C1216.16 511.471 1215.58 497.728 1216.43 480.217C1227.4 478.6 1238.18 475.893 1248.61 472.137C1264.97 466.336 1280.45 458.284 1294.59 448.214C1296.92 446.562 1299.1 444.733 1301.34 442.939C1301.5 446.615 1301.78 450.274 1302.3 453.879C1306.77 484.764 1323.9 509.539 1350.5 523.64C1364.33 530.882 1379.73 534.603 1395.34 534.473C1420.42 534.473 1446.01 525.573 1467.36 509.965C1477.94 524.777 1494.3 533.106 1514.23 533.106C1531.7 533.106 1550.64 526.482 1567.26 515.719C1583.92 504.939 1598.27 489.985 1606.63 473.309C1612.38 462.659 1616.31 451.13 1618.28 439.192C1618.96 434.763 1618.42 430.235 1616.72 426.088C1615.03 421.941 1612.24 418.331 1608.66 415.64ZM1169.6 275.284C1166.92 275.817 1164.2 276.403 1161.57 277.149C1158.72 277.892 1155.91 278.817 1153.17 279.919C1151.59 280.588 1150.04 281.342 1148.54 282.175L1147.19 282.867C1144.62 284.021 1142.24 285.573 1140.16 287.467L1132.07 295L1135.27 305.549C1135.96 308.294 1136.47 311.083 1136.78 313.896C1127.44 306.695 1115.98 302.791 1104.19 302.796C1103.41 302.796 1102.65 302.796 1101.99 302.849C1088.42 303.349 1075.67 308.32 1063.93 317.732C1055.16 308.301 1042.23 302.885 1026.62 302.885C1011.7 302.885 995.698 307.946 984.207 316.116C980.054 318.718 977.074 322.832 975.896 327.589C967.991 316.625 956.663 308.604 943.696 304.789C935.994 302.408 927.977 301.205 919.915 301.22C895.424 301.22 870.115 312.231 850.492 331.464C849.852 332.064 849.267 332.725 848.662 333.364C850.155 326.579 851.114 322.601 851.184 322.335C851.309 321.735 853.831 310.435 856.157 293.135C900.042 291.199 944.175 287.647 987.545 282.585L990.297 282.265C996.247 281.537 1005.52 280.472 1017.84 279.229C1050.98 275.929 1082.24 272.817 1115.15 272.817C1120.3 272.817 1125.45 272.888 1130.65 273.066C1134.42 273.173 1138.16 273.261 1141.91 273.35C1152.48 273.599 1162.78 273.85 1172.76 274.7L1169.6 275.284Z" fill="#00008B"/>
<path d="M1131.35 321.14C1127.81 317.037 1123.38 313.79 1118.41 311.644C1113.43 309.498 1108.03 308.509 1102.62 308.75C1084.1 309.42 1069.74 322.06 1058.58 337.44C1056.09 301.5 1014.68 304.37 994.03 319.05C993.64 319.32 993.17 319.5 993.08 320.2C988.53 353.51 983.36 386.75 979.53 420.17C979.12 423.65 978.74 427.29 978.43 431.04C977.55 431.73 976.72 432.52 975.8 433.19C963.88 442.04 949.94 448.7 935.4 449.44C921.48 450.14 903.81 444.55 898.76 428.64C912.269 426.043 924.964 420.261 935.791 411.773C946.617 403.286 955.263 392.339 961.01 379.84C966.62 367.27 970.5 352.39 967.14 338.51C963.48 323.54 951.56 313.93 938.47 309.89C911.87 301.68 883.19 312.43 862.87 332.32C819.55 374.72 805.77 460.62 865.36 492.18C901.73 511.44 949.92 497.41 979.48 465.63C981.86 477.12 987 487.24 997.03 493.64C1027.56 513.06 1061.46 484.03 1070.88 450.9C1070.96 450.668 1070.98 450.421 1070.95 450.178C1070.92 449.935 1070.83 449.703 1070.69 449.501C1070.55 449.299 1070.36 449.132 1070.15 449.014C1069.93 448.895 1069.7 448.829 1069.45 448.82C1042.85 447.45 1047.07 413.62 1050.41 393.26C1052.24 380.794 1058.47 369.394 1067.97 361.12C1074.32 355.82 1079.01 355.12 1079.66 365.45C1081.12 388.52 1101.28 398.29 1118.69 387.81C1138.83 375.66 1147.52 340.62 1131.35 321.14ZM917.53 362.8C925.36 357.35 931.6 365.05 929.56 374.27C925.43 392.74 910.32 405.34 896.63 415.46C896.74 397.66 903.66 372.47 917.53 362.8Z" fill="#C8F657"/>
<path d="M465.275 552.766C463.995 607.513 390.146 629.421 349.787 599.612C332.67 587.126 320.577 568.937 315.687 548.322C309.379 522.553 311.758 495.572 314.115 469.399C316.833 435.776 321.563 402.346 328.279 369.288C312 396.447 297.76 424.777 285.679 454.046C279.461 469.108 275.825 485.135 269.99 500.331C266.375 509.731 258.182 521.831 246.667 517.098C241.324 514.898 237.935 509.579 235.421 504.618C229.427 491.701 224.64 478.259 221.121 464.461C213.849 439.388 205.611 414.54 200.156 388.973C192.749 438.333 196.7 494.809 163.164 535.325C138.676 564.887 84.804 577.839 50.998 557.839C36.6074 549.226 25.9954 535.502 21.2811 519.407C16.5668 503.313 18.0973 486.032 25.567 471.016C28.844 464.327 35.533 458.468 43.142 463.496C63.03 476.583 90.931 470.14 108.35 454.585C153.916 413.844 140.135 327.133 161.1 270.971C161.414 270.164 143.3 267.335 141.75 267.133C126.55 265.023 94.725 265.786 96.95 288.771C97.489 294.249 100.05 299.277 102.764 304.035C108.308 313.777 113.291 326.392 102.495 334.944C94.549 341.229 81.865 343.07 72.147 341.05C60.138 338.536 49.476 331.398 40.878 322.644C22.878 304.327 18.746 274.518 31.765 252.117C34.8222 247.13 38.8347 242.797 43.572 239.366C57.085 229.019 73.426 225.382 90.126 224.821C103.51 224.36 116.9 225.498 130.014 228.211C143.46 231.061 155.714 237.481 169.004 240.467C170.844 240.893 174.144 242.599 175.984 241.967C177.578 241.428 178.903 238.846 179.957 237.634C183.189 233.875 186.758 230.419 190.62 227.309C198.162 221.338 207.388 216.916 217.242 217.589C253.875 221.289 251.042 257.724 221.282 271.618C227.118 323.848 238.929 375.235 256.482 424.772C283.53 346.68 325.551 269.464 390.69 216.692C405.438 207.96 424.809 202.012 440.99 209.756C448.89 213.527 455.827 221.63 455.514 230.788C454.728 252.719 428.779 262.865 409.79 258.846C378.162 316.846 350.463 529.463 443.1 541.023C449.3 541.561 456.815 538.598 461.955 543.043C464.646 545.359 465.072 549.4 465.275 552.766Z" fill="#C8F657"/>
<path d="M1598.02 418C1591.85 415.39 1585.45 426.73 1581.36 431.08C1561.81 451.87 1541.01 446.44 1543.25 413.66C1545.56 386.974 1549.22 360.423 1554.23 334.11C1563.97 333.82 1574.2 333.35 1586.39 332.54C1586.63 332.517 1586.87 332.44 1587.08 332.316C1587.29 332.191 1587.47 332.022 1587.61 331.82C1587.74 331.62 1587.83 331.395 1587.87 331.159C1587.91 330.922 1587.89 330.681 1587.83 330.45C1583.29 307.36 1573.53 302.69 1559.41 302.35C1560.24 296.87 1560.98 291.38 1561.7 285.88C1563.18 274.02 1564.1 261.61 1558.09 251.04C1545.09 228.3 1513.17 235.1 1495.21 246.86C1494.97 247.001 1494.76 247.19 1494.59 247.416C1494.43 247.641 1494.31 247.898 1494.25 248.17C1491.58 266.84 1489.2 285.54 1486.84 304.26C1485.94 304.107 1485.06 303.873 1484.21 303.56C1482.39 302.892 1480.84 301.666 1479.76 300.059C1478.68 298.451 1478.14 296.543 1478.22 294.61C1478.23 294.426 1478.2 294.241 1478.13 294.07C1478.06 293.899 1477.96 293.745 1477.82 293.62C1477.69 293.495 1477.53 293.4 1477.35 293.342C1477.18 293.283 1476.99 293.262 1476.81 293.28C1461.75 295.55 1453.24 321 1467.9 330.75C1472.44 333.582 1477.64 335.169 1482.98 335.35C1479.7 361.7 1476.61 388.09 1473.71 414.52C1472.81 421.32 1472.23 428.14 1471.89 434.99C1471.02 435.71 1470.19 436.49 1469.27 437.17C1457.32 446.01 1443.39 452.68 1428.86 453.42C1414.92 454.11 1397.26 448.52 1392.21 432.61C1405.72 430.019 1418.42 424.238 1429.24 415.75C1440.07 407.262 1448.71 396.312 1454.45 383.81C1460.06 371.24 1463.97 356.36 1460.58 342.49C1456.92 327.51 1445 317.91 1431.94 313.87C1405.34 305.65 1376.65 316.4 1356.34 336.29C1312.99 378.72 1299.21 464.6 1358.81 496.16C1395.48 515.59 1444.13 501.14 1473.64 468.82C1487.54 530.79 1567.45 500.06 1591.02 453.1C1595.8 444.235 1599.09 434.644 1600.76 424.71C1600.95 423.449 1600.79 422.16 1600.31 420.98C1599.83 419.799 1599.04 418.77 1598.02 418ZM1410.97 366.77C1418.81 361.32 1425.07 369.02 1423 378.24C1418.87 396.72 1403.77 409.33 1390.1 419.43C1390.19 401.63 1397.1 376.45 1410.97 366.77Z" fill="#C8F657"/>
<path d="M1283.97 81.53C1283.98 81.54 1283.99 81.54 1284 81.55C1284.07 81.6115 1284.16 81.659 1284.25 81.69C1284.15 81.56 1283.5 81.08 1283.97 81.53ZM1284.31 81.78C1284.35 81.8463 1284.4 81.9097 1284.45 81.97C1284.48 82 1284.52 82.03 1284.55 82.06C1284.86 82.34 1284.39 81.82 1284.31 81.78ZM1284.92 82.54C1284.92 82.5454 1284.92 82.5509 1284.92 82.5561C1284.92 82.5613 1284.93 82.5661 1284.93 82.57H1284.94C1284.93 82.5609 1284.93 82.5508 1284.92 82.54ZM1284.31 81.78C1284.35 81.8463 1284.4 81.9097 1284.45 81.97C1284.48 82 1284.52 82.03 1284.55 82.06C1284.86 82.34 1284.39 81.82 1284.31 81.78ZM1283.97 81.53C1283.98 81.54 1283.99 81.54 1284 81.55C1284.07 81.6115 1284.16 81.659 1284.25 81.69C1284.15 81.56 1283.5 81.08 1283.97 81.53ZM1395.26 105.05C1394.14 101.75 1391.11 99.52 1388.08 97.82C1371.35 88.32 1349.45 87.76 1336.16 73.87C1327.87 65.25 1324.62 53.01 1317.75 43.21C1308.84 30.41 1294.07 22.46 1278.74 19.64C1263.41 16.82 1247.54 18.72 1232.45 22.69C1234.97 25.68 1237.49 28.68 1240.02 31.69C1229.42 24.6233 1218.82 17.5533 1208.23 10.48C1205.34 8.53 1202.22 6.53 1198.72 6.42C1193.94 6.26 1189.85 9.65001 1186.33 12.88C1170.19 27.7236 1155.06 43.6219 1141.03 60.47C1138.61 63.36 1136.14 66.51 1135.62 70.23C1134.86 75.78 1138.58 80.87 1142.24 85.09C1159.91 105.372 1181.44 121.945 1205.56 133.85C1207.16 134.63 1209 135.39 1210.66 134.72C1213.35 133.62 1213.29 129.83 1212.77 126.95C1210.16 112.7 1207.55 98.44 1204.93 84.17C1203.7 77.44 1202.49 70.48 1204.24 63.88C1205.99 57.28 1211.62 51.17 1218.45 51.26C1208.12 60.44 1207.29 76.4 1210.14 89.92C1212.99 103.44 1218.74 116.54 1218.78 130.37C1218.81 133.22 1218.47 136.29 1216.52 138.36C1212.86 142.17 1206.51 140.06 1201.84 137.59C1178.17 125.116 1156.26 109.56 1136.67 91.33C1127.26 108.519 1121.92 127.641 1121.07 147.22C1120.51 160.67 1122.08 174.23 1120.11 187.54C1118.38 199.16 1113.29 211.06 1104.04 217.95C1063.3 221.03 1022.74 226.75 982.02 230.28C934.987 234.304 887.747 235.366 840.58 233.46C839.972 226.297 838.494 219.236 836.18 212.43C831.36 199.01 819.877 191.25 801.73 189.15C797.941 188.727 794.133 188.496 790.32 188.46C789.22 188.44 788.1 188.46 786.98 188.48C785.72 188.73 784.47 188.97 783.21 189.24C780.4 189.85 777.6 190.5 774.84 191.33C772.117 192.114 769.445 193.066 766.84 194.18C764.64 195.17 762.62 196.47 760.49 197.59C759.272 198.163 758.146 198.915 757.15 199.82C758.61 205.07 759.957 214.303 761.19 227.52C747.61 226.01 734.07 224.33 720.56 222.33C699.48 219.21 678.22 215.42 658.83 206.59C650.53 202.846 642.746 198.05 635.67 192.32C631.055 187.48 627.715 181.57 625.95 175.12C625.3 172.61 619.84 154.41 631.18 145.34C638.07 139.86 647.47 138.38 656.2 139.5C664.17 140.51 672.39 143.99 676.5 150.88C677.19 152.09 677.91 153.49 679.24 153.89C681.39 154.52 683.16 152.16 684.15 150.14C689 140.2 693.11 128.97 690.35 118.27C687.74 108.08 679.39 100.4 670.79 94.32C663.81 89.4 656.25 85.05 647.9 83.25C630.53 79.5 612.43 87.49 599.06 99.19C580.88 115.06 569.07 138.31 568.15 162.44C568.08 164.46 568.15 200.26 595.67 225.63C602.428 234.349 610.792 241.694 620.31 247.27C643.14 260.38 670.5 262.44 696.83 263.61C718.58 264.55 740.353 265.097 762.15 265.25C761.7 277.77 760.67 292.313 759.06 308.88C758.13 318.33 756.79 329.083 755.04 341.14C753.29 353.197 751.523 365.46 749.74 377.93C747.94 390.41 746.183 402.57 744.47 414.41C743.27 422.44 742.33 429.67 741.57 436.22C739.948 437.278 738.188 438.109 736.34 438.69C736.9 433.276 736.589 427.806 735.42 422.49C732.267 409.293 725.239 397.341 715.24 388.17C706.26 379.55 694.75 368.93 696.95 355.26C698.63 344.98 711.4 347.29 717.73 341.36C726.53 333.13 722.27 319.57 713.76 313.08C706.6 307.65 696.36 306.82 687.63 306.93C643.57 307.58 619.39 342.31 648.82 379.52C656.74 389.53 665.9 399.03 669.47 411.82C672.1 421.39 669.31 437.86 656.72 433.19C645.07 428.91 645.52 410.99 650.06 400.92C650.248 400.574 650.297 400.169 650.197 399.788C650.097 399.407 649.855 399.078 649.52 398.87C629.67 386.08 607.65 396.96 598.7 417.26C595.91 423.797 594.445 430.823 594.39 437.93C593.736 438.049 593.074 438.123 592.41 438.15C572.41 438.06 580.27 399.95 582.6 386.3C584.58 374.63 587.03 363.09 589.7 351.6C592.14 341.05 591.45 330.05 585.3 321.16C572.07 302.13 546.24 308.91 529.18 319.21C528.911 319.346 528.676 319.539 528.489 319.776C528.303 320.013 528.17 320.287 528.1 320.58C527.41 325.27 526.69 330.01 525.95 334.7C507.27 303.14 480.63 302.53 453.89 322.42C416.25 350.48 403.93 410.12 420.2 455.17C438.2 504.93 488.17 516.36 515.24 470.68C528.42 517.26 579.95 497.93 603.37 471.15C604.757 473.437 606.301 475.626 607.99 477.7C623.39 496.69 649.22 503.36 672.84 499.93C692.039 497.265 710.356 490.179 726.35 479.23C730.671 476.281 734.808 473.071 738.74 469.62C738.152 479.864 738.122 490.133 738.65 500.38C739.51 515.01 741.823 526.6 745.59 535.15C749.34 543.68 754.473 549.873 760.99 553.73C767.5 557.61 775.293 560.073 784.37 561.12C793.44 562.15 801.397 561.917 808.24 560.42C814.227 559.251 819.972 557.074 825.23 553.98C830.194 551.094 834.634 547.389 838.36 543.02L838.4 542.4C838.41 542.061 838.55 541.739 838.79 541.5C839.019 541.262 839.154 540.95 839.17 540.62C839.48 537.32 838.11 535.5 835.1 535.17C834.331 535.084 833.555 535.097 832.79 535.21C832.033 535.331 831.262 535.348 830.5 535.26C829.85 535.19 821.48 527.78 818.16 505.79C805.41 420.96 833.87 306.59 833.87 306.59C836.798 292.586 838.948 278.431 840.31 264.19C888.82 262.457 937.21 258.777 985.48 253.15C991.2 252.48 1001.59 251.2 1015.71 249.8C1054.18 245.97 1091.31 242.24 1131.22 243.5C1156.54 244.31 1182.31 243.83 1206.89 250.84C1239.73 260.17 1264.6 284.13 1276.81 315.82C1281.46 327.9 1281.57 339.97 1281.25 342.8C1281.08 344.542 1280.82 346.274 1280.47 347.99C1280.15 349.62 1279.73 351.33 1279.26 353.1C1277.1 361.184 1273.09 368.659 1267.56 374.94C1262.38 380.809 1256.21 385.727 1249.33 389.47C1242.56 393.171 1235.35 396.013 1227.88 397.93C1220.83 399.786 1213.66 401.165 1206.42 402.06C1208.59 390.12 1210.9 378.403 1213.35 366.91C1215.61 356.448 1217.35 345.877 1218.54 335.24C1220.13 320.17 1219.01 307.71 1215.17 297.86C1211.33 288.03 1202.19 282.343 1187.74 280.8C1185.03 280.51 1181.99 280.35 1178.65 280.29C1177.77 280.29 1176.9 280.29 1176 280.31C1174.99 280.49 1173.98 280.67 1172.99 280.87C1170.75 281.3 1168.53 281.79 1166.33 282.4C1164.16 282.966 1162.03 283.661 1159.95 284.48C1158.2 285.2 1156.58 286.17 1154.9 287C1153.93 287.399 1153.03 287.942 1152.23 288.61C1153.58 293.08 1154.79 301.45 1155.91 313.75C1157.01 326.21 1156.29 344.49 1153.76 368.59C1153.02 375.53 1151.95 383.417 1150.55 392.25C1149.16 401.09 1147.75 410.083 1146.33 419.23C1144.89 428.37 1143.49 437.29 1142.13 445.99C1140.74 454.67 1139.73 462.17 1139.05 468.5C1137.33 484.78 1136.81 498.287 1137.5 509.02C1138.18 519.77 1140.02 528.25 1143.03 534.52C1146.01 540.78 1150.09 545.32 1155.28 548.14C1161.07 551.164 1167.4 553.004 1173.91 553.55C1180.24 554.349 1186.65 554.184 1192.93 553.06C1197.67 552.22 1202.24 550.619 1206.46 548.32C1210.37 546.25 1213.9 543.535 1216.9 540.29L1216.94 539.84C1216.95 539.716 1216.98 539.594 1217.03 539.483C1217.09 539.371 1217.17 539.272 1217.26 539.19C1217.44 539.015 1217.54 538.779 1217.55 538.53C1217.8 536.11 1216.72 534.79 1214.32 534.52C1213.71 534.464 1213.09 534.477 1212.48 534.56C1211.88 534.642 1211.27 534.658 1210.66 534.61C1207.05 534.2 1203.77 527.02 1200.83 512.99C1197.89 498.96 1197.53 478.67 1199.75 452.09C1214.42 451.528 1228.91 448.667 1242.69 443.61C1257.5 438.376 1271.5 431.092 1284.28 421.97C1297.1 412.862 1308.15 401.488 1316.88 388.41C1325.74 375.188 1331.19 359.986 1332.77 344.15C1335.98 313.82 1336.36 281.63 1321.48 254.02C1308.62 230.12 1286.64 210.46 1281.14 183.88C1280.15 179.05 1280 173.35 1283.57 169.96C1286.8 166.91 1291.78 166.95 1296.22 167.18C1308.28 167.81 1320.34 168.437 1332.39 169.06C1339.59 169.45 1347.02 169.78 1353.8 167.36C1360.6 164.93 1366.68 159.01 1367 151.8C1346.93 160.42 1326.46 153.14 1308.31 143.63C1304.75 141.76 1301.24 139.84 1297.69 137.96C1297.31 137.737 1296.89 137.585 1296.46 137.51C1296.25 137.496 1296.04 137.513 1295.83 137.56C1295.71 139.132 1296.09 140.702 1296.93 142.04C1297.02 142.162 1297.07 142.305 1297.08 142.454C1297.09 142.602 1297.06 142.751 1296.99 142.884C1296.92 143.016 1296.82 143.128 1296.69 143.206C1296.56 143.285 1296.42 143.328 1296.27 143.33C1295.88 143.352 1295.49 143.269 1295.14 143.09C1294.79 142.91 1294.5 142.641 1294.29 142.31C1293.56 141.147 1293.09 139.837 1292.92 138.474C1292.75 137.111 1292.89 135.727 1293.31 134.42C1293.73 133.232 1294.39 132.144 1295.26 131.225C1296.12 130.306 1297.16 129.576 1298.32 129.08C1299.49 128.56 1301.8 130.56 1300.26 131.24C1298.92 131.837 1297.78 132.818 1296.99 134.06C1297.18 134.043 1297.36 134.036 1297.55 134.04C1297.98 134.038 1298.41 134.062 1298.84 134.11C1299.4 134.163 1299.96 134.254 1300.51 134.38C1306.63 135.77 1312.15 138.97 1317.79 141.7C1327.18 146.337 1337.47 148.889 1347.94 149.18C1358.39 149.36 1373.18 147.59 1380.1 138.71C1385.14 132.24 1388.88 124.75 1389.72 116.5C1390.02 113.637 1389.96 110.748 1389.54 107.9C1390.43 108.406 1391.1 109.233 1391.4 110.212C1391.7 111.191 1391.62 112.249 1391.17 113.17C1394.63 112.75 1396.4 108.32 1395.26 105.05ZM501.73 430.93C490.82 438.15 485.12 420.06 484.44 410.79C483.25 394.65 487.18 359.43 505.68 359.16C526.37 358.87 513.87 422.87 501.73 430.93ZM1293.07 89.81C1292.78 90.0583 1292.43 90.2267 1292.05 90.2986C1291.68 90.3705 1291.29 90.3434 1290.93 90.22C1289.87 89.9509 1288.89 89.4228 1288.08 88.6829C1287.27 87.943 1286.66 87.0143 1286.3 85.98C1286.16 85.3569 1285.97 84.7426 1285.76 84.14C1285.74 84.09 1285.64 83.86 1285.58 83.71C1285.59 83.738 1285.61 83.7648 1285.63 83.79C1285.62 83.7675 1285.61 83.7441 1285.6 83.72C1285.59 83.6976 1285.57 83.6742 1285.56 83.65C1285.54 83.59 1285.52 83.57 1285.52 83.58C1285.46 83.47 1285.4 83.36 1285.39 83.33C1285.38 83.3 1285.12 82.9 1285 82.68C1285.12 82.86 1285.32 83.06 1285.02 82.68C1285 82.6509 1284.98 82.6241 1284.95 82.6C1284.95 82.59 1284.94 82.58 1284.94 82.57C1284.93 82.5609 1284.93 82.5508 1284.92 82.54C1284.92 82.5454 1284.92 82.5509 1284.92 82.5561C1284.92 82.5613 1284.93 82.5661 1284.93 82.57C1284.77 82.37 1284.61 82.16 1284.45 81.97C1284.29 81.84 1284.15 81.7 1284 81.56L1283.97 81.53C1283.8 81.42 1283.61 81.3 1283.43 81.18C1283.5 81.216 1283.57 81.2429 1283.64 81.26C1283.58 81.2 1283.09 80.94 1283.38 81.15C1283.13 81.04 1282.89 80.92 1282.63 80.82C1282.61 80.81 1282.6 80.81 1282.59 80.8C1282.62 80.8072 1282.64 80.8105 1282.67 80.81C1282.6 80.75 1282.18 80.62 1282.57 80.8C1282.07 80.69 1281.59 80.55 1281.09 80.47C1281.07 80.47 1281.06 80.47 1281.05 80.46C1281.21 80.46 1281.07 80.45 1281.01 80.45C1281.01 80.4538 1281.02 80.4567 1281.02 80.4584C1281.03 80.4601 1281.03 80.4607 1281.04 80.46C1280.99 80.4693 1280.93 80.4727 1280.88 80.47C1280.58 80.46 1280.28 80.45 1279.97 80.46C1279.72 80.47 1279.47 80.49 1279.22 80.51C1279.14 80.52 1278.91 80.55 1278.82 80.56C1277.75 80.7663 1276.72 81.1338 1275.76 81.65C1273.91 82.7122 1272.37 84.2394 1271.3 86.08C1270.28 87.73 1267.18 85.63 1266.35 84.9C1265.06 83.78 1263.73 81.73 1264.75 80.08C1266.28 77.5984 1268.54 75.6589 1271.23 74.5357C1273.92 73.4124 1276.89 73.162 1279.73 73.82C1283.02 74.6976 1286.02 76.443 1288.41 78.874C1290.79 81.3051 1292.48 84.3325 1293.3 87.64C1293.44 87.9933 1293.49 88.3754 1293.45 88.7533C1293.41 89.1313 1293.28 89.4939 1293.07 89.81ZM1284.31 81.78C1284.35 81.8463 1284.4 81.9097 1284.45 81.97C1284.48 82 1284.52 82.03 1284.55 82.06C1284.86 82.34 1284.39 81.82 1284.31 81.78ZM1284.25 81.69C1284.15 81.56 1283.5 81.08 1283.97 81.53C1283.98 81.54 1283.99 81.54 1284 81.55C1284.07 81.6115 1284.16 81.659 1284.25 81.69Z" fill="#C8F657"/>
<path d="M1281.01 80.45C1281.07 80.45 1281.21 80.46 1281.05 80.46H1281.04C1281.03 80.4606 1281.03 80.4601 1281.02 80.4584C1281.02 80.4566 1281.01 80.4538 1281.01 80.45Z" fill="#00008A"/>
<path d="M1282.67 80.81C1282.64 80.8105 1282.62 80.8071 1282.59 80.8H1282.57C1282.18 80.62 1282.6 80.75 1282.67 80.81Z" fill="#00008A"/>
<path d="M1283.64 81.26C1283.57 81.2429 1283.5 81.216 1283.43 81.18L1283.42 81.17C1283.41 81.1675 1283.39 81.1605 1283.38 81.15C1283.09 80.94 1283.58 81.2 1283.64 81.26Z" fill="#00008A"/>
<path d="M1284 81.55C1283.99 81.54 1283.98 81.54 1283.97 81.53C1283.32 80.9 1284.83 82.09 1284 81.55Z" fill="#00008A"/>
<path d="M1284.55 82.06C1284.52 82.03 1284.48 82 1284.45 81.97C1284.4 81.9097 1284.35 81.8462 1284.31 81.78C1284.39 81.82 1284.86 82.34 1284.55 82.06Z" fill="#00008A"/>
<path d="M1284.94 82.57C1284.94 82.58 1284.95 82.59 1284.95 82.6C1284.94 82.59 1284.93 82.58 1284.93 82.57H1284.94Z" fill="#00008A"/>
<path d="M1285.63 83.79C1285.61 83.7648 1285.59 83.738 1285.58 83.71C1285.58 83.7023 1285.58 83.6952 1285.57 83.69C1285.56 83.6652 1285.55 83.6416 1285.54 83.62C1285.51 83.55 1285.52 83.55 1285.6 83.72C1285.61 83.7441 1285.62 83.7675 1285.63 83.79Z" fill="#00008A"/>
</g>
<defs>
<clipPath id="clip0_29_424">
<rect width="1619" height="643" fill="white"/>
</clipPath>
</defs>
</svg>
