<?xml version="1.0" encoding="utf-8"?>
<!-- Generator: Adobe Illustrator 24.3.0, SVG Export Plug-In . SVG Version: 6.00 Build 0)  -->
<svg version="1.1" id="Layer_1" xmlns="http://www.w3.org/2000/svg" xmlns:xlink="http://www.w3.org/1999/xlink" x="0px" y="0px"
	 viewBox="0 0 1080 1080" style="enable-background:new 0 0 1080 1080;" xml:space="preserve">
<style type="text/css">
	.st0{fill:#00008B;}
	.st1{fill:#00008B;stroke:#00008B;stroke-width:21.1213;stroke-miterlimit:10;}
</style>
<g>
	<g>
		<path class="st0" d="M534.1,226.5c0.9-5.5,2.6-11.6,1-17c-1.6-5.4-5.5-8.7-10.2-11.5c-22.8-13.6-49.9-9.9-74.8-5.5
			c-2,0.3-4.1,1.6-5.6,3.3c-1.3,0.8-2.5,1.9-3.2,3.6c-4.3,10.4-7.6,21.3-9.7,32.4c-2,10.3-3.5,21.6-2.5,32.1c-1.7-0.2-3.5,0-5.4,0.6
			c-44,14.2-88.4,33.3-104.3,80.6c-15.2,44.9-3.7,94.1-21.1,138.3c-17.7,45.3-53.6,80.5-73.7,124.6c-18.6,40.8-21.8,92.2,10.4,127.3
			c14.9,16.3,34,27.6,53.7,37.3c21.7,10.7,44.2,20.1,67.4,27.1c45.4,13.6,94,17.4,139,0.4c22.5-8.5,42.8-22.3,58.5-40.5
			c14.6-16.9,29.1-37.5,35.6-59.1c13.2-44-7.6-89.6-14.8-132.8c-4.6-27.6-5.9-55.5-0.8-83.2c4.9-26.5,14.1-52.3,15.2-79.4
			c1.2-27.6-4.6-55.7-11.8-82.3c-6.4-23.7-22.7-48.6-49.9-49.1c-1.3,0-2.6,0.1-3.9,0.4c1.2-3.7,2.1-7.6,3.1-11.4
			C529.5,250.7,532,238.6,534.1,226.5z M505.5,207.1c1.2,0.4,2.3,0.8,3.5,1.2c-7.7,1.5-15.6,1.8-23.4,0.8c-4.9-0.6-9.7-1.7-14.4-3.3
			c-0.1,0-0.3-0.1-0.4-0.1C482.4,204.1,494.2,203.8,505.5,207.1z M568.9,662.8c1.5,21.1-4.4,39.1-16,56.6
			c-11.9,18.1-25.1,34.6-43.5,46.4c-36.8,23.6-83.3,25.1-124.9,16.1c-21.1-4.6-41.4-12-61.2-20.5c-18.6-8-37.5-16.4-53.9-28.3
			c-17.1-12.4-30.1-28.8-33.5-50.2c-3.2-20,0.7-40.4,8.3-59c1.6-3.9,3.4-7.6,5.2-11.3c0.8,1.3,1.9,2.4,3.7,3.1
			c26.3,9.6,53.1,18.3,78.5,30c24.8,11.4,52,17.2,78.8,22.4c52.8,10.1,105.9,2,158.1-7.3C568.7,661.5,568.9,662.2,568.9,662.8z
			 M551.3,472.4c-4.7,21.5-6.2,43.4-4.9,65.3c1.3,21.9,5.4,43.5,10.5,64.8c3.3,14,7.2,28,9.7,42.1c-50.9,9.1-102.2,17.1-153.6,7.3
			c-26.8-5.1-53.1-11.3-78-22.7c-24.3-11.2-50.2-19.4-75.3-28.5c-1.3-0.5-2.5-0.6-3.6-0.5c16.9-30,39.4-56.8,55.5-87.2
			c11.2-21.2,18-43.7,20.4-67.6c1.6-15.9,1.7-32,2.8-48c3.6,3.8,8.3,6.9,12.8,9.8c9.2,5.9,18.9,11.2,28.9,15.8
			c20.7,9.5,42.9,15.9,65.5,19.2c40,5.9,81.1,1.9,119.1-11.8C558,444.6,554.3,458.4,551.3,472.4z M557.5,345.3
			c4.6,21.3,8.9,43,6.7,64.8c-0.1,0.6-0.2,1.2-0.2,1.7c-34.9,14.3-72.9,19.7-110.5,15.6c-19.3-2.1-38.3-6.5-56.4-13.4
			c-9.1-3.4-18-7.5-26.7-12.1c-6.6-3.5-25.2-11.4-25.6-20c-0.2-4.9-3.9-7-7.7-6.9c0-0.1,0-0.2,0.1-0.3c3.7-22.6,12.4-43.6,30.8-58.1
			c18.8-14.8,42.4-22.2,64.9-29.4c2.8-0.9,4.7-2.4,5.9-4.2c2.7,2.2,5.8,4,9.4,5.5c9.4,3.9,19.6,6.2,29.8,6.6
			c10.5,0.4,21.9-0.4,31.7-4.3c1.5-0.6,2.8-1.3,4-2.1c1.3,4.6,5.1,9,10,9.1C547.9,298.3,553.4,326.3,557.5,345.3z M509.8,262.1
			c-0.9,3.6-1.5,9.1-3.9,12c-1.9,2.3-6.2,2.8-9,3.3c-4.3,0.8-8.6,1.3-13,1.5c-7.5,0.2-15.3-0.8-22.5-3c-3.8-1.1-7.8-2.6-11.3-4.5
			c-3.3-1.8-4.3-4.3-4.7-8c-1.1-9.6,0.6-19.9,2.4-29.3c1.2-6.3,3-12.5,5-18.5c7.4,4.7,17.5,7.2,24.8,8.6c13.5,2.7,27.3,1.8,40.6-1.7
			c-1.4,8.5-3.1,16.9-4.9,25.3C512.2,252.7,511,257.4,509.8,262.1z"/>
		<path class="st0" d="M441.8,442.3c-22.5-3.3-44.7-9.8-65.5-19.2c-10-4.6-19.7-9.9-28.9-15.8c-4.5-2.9-9.2-5.9-12.8-9.8
			c-1.1,16-1.2,32-2.8,48c-2.4,23.8-9.2,46.4-20.4,67.6c-16.1,30.5-38.6,57.3-55.5,87.2c1.1-0.1,2.3,0,3.6,0.5
			c25.2,9.2,51,17.3,75.3,28.5c24.9,11.4,51.2,17.6,78,22.7c51.4,9.8,102.8,1.7,153.6-7.3c-2.5-14.2-6.3-28.1-9.7-42.1
			c-5.1-21.3-9.2-42.9-10.5-64.8c-1.3-22,0.2-43.8,4.9-65.3c3-14,6.8-27.9,9.6-41.9C523,444.3,481.8,448.3,441.8,442.3z
			 M359.4,503.9c0.2-2.4,1.4-5.3,3.1-7.2c1.7-1.9,3.6-2.9,5.1-3.7c1.6-0.8,2.8-1.2,4.2-1.8c2.8-1,6-1.9,9.7-1.6
			c1.8,0.2,3.7,0.7,5.3,1.5c1.6,0.9,3,2,4,3.1c2.1,2.3,3.1,4.9,3.7,7.1c1,4.6,0.2,7.8-0.5,9.9c-0.5,1.5-1.1,2.5-1.7,2.9
			c0.3,0.7,0,2-1.3,3.7c-1.5,1.9-4.5,4.2-9.1,5.1c-4.5,0.9-10.8-0.2-15.7-4.3c-2.5-2.1-4.7-4.8-6-8.4
			C359.6,508.5,359.1,506.4,359.4,503.9z M461.9,568.9c1.3,4.4,2.5,8.8,3.8,13.6c1.2,4.8,2.3,10.2,2.1,16.2
			c-0.3,6.1-2.4,12.6-7.2,17.8c-2.4,2.6-5.7,4.8-9.4,5.8c-3.7,1-7.4,1-10.9,0.4c-3.4-0.6-6.6-1.9-9.5-3.4c-2.9-1.5-5.4-3.1-7.8-4.7
			c-2.4-1.6-4.7-3.1-6.9-4.3c-2.2-1.3-4.6-2.4-7.1-3.3c-4.9-1.9-10-3-15.1-3.4c-5-0.4-10.5,0.1-16.4,0c-5.9-0.1-12.6-1-18.4-4.2
			c-3-1.7-5.8-3.9-7.8-6.9c-2.1-2.9-3.3-6.2-3.9-9.4c-1-6.6,0.5-12.6,3-17.7c1.2-2.6,2.8-4.9,4.6-7c1.8-2.1,3.6-3.8,5.5-5.4
			c7.8-6.3,15.6-9.7,22.1-13.5c13-7.3,22.5-15,29-20.5c5.6-4.8,9.1-7.9,10.3-8.2c0.3-0.5,1.2-1.3,2.9-1.8c1.3-0.3,2.9-0.4,4.8,0
			c1.9,0.4,4,1.4,5.9,3c1.9,1.6,3.6,3.7,5.1,6c1.5,2.3,2.9,4.8,4.4,7.5c3,5.5,6,11.9,8.8,19.2C456.7,552,459.4,560.1,461.9,568.9z
			 M438.9,489.8c-4.2,2.4-7.7,3-10.1,3.2c-2.4,0.2-3.9-0.2-4.2-1c-0.3-0.8,0.6-2,2.4-3.5c1.7-1.5,4.4-3.3,6.7-5.7
			c1.2-1.2,2.1-2.5,2.8-4c0.7-1.5,1-3.2,0.9-4.5c-0.2-1.3-0.6-2.2-1.8-3.2c-1.1-1-2.7-1.8-4.6-2.1c-1.8-0.3-3.8-0.1-5.4,0.6
			c-1.6,0.6-2.9,1.6-4,3c-1.1,1.3-1.8,2.9-2.2,4.5c-0.4,1.6-0.4,3-0.2,4.5c0.5,2.9,1.9,5.3,3,7c1.1,1.7,2,2.8,1.7,3.6
			c-0.3,0.8-1.9,1.2-4.4,0.3c-2.5-0.9-6.1-3.2-8.4-7.9c-2.4-4.6-2.7-11.9,1-18.1c1.8-3.1,4.8-6,8.5-7.7c3.7-1.7,7.9-2.4,12.1-1.8
			c4.3,0.6,8.3,2.6,11.3,5.7c1.5,1.5,2.7,3.4,3.5,5.5c0.8,2.1,1.1,4.3,1,6.3c-0.2,4.1-1.7,7.3-3.6,9.8
			C443.3,486.8,441,488.7,438.9,489.8z M485.5,489.1c0.7,2.4,0.7,4.7,0.3,6.7c-0.9,4.1-2.9,6.8-4.6,8.8c-1.6,2-3.4,3.9-5.5,5.5
			c-2.1,1.6-4.5,2.8-7,3.3c-5.3,1-9.1-1.3-10.8-3.5c-1.7-2.3-1.1-4-0.4-4.3c0.8-0.3,1.9,0.3,3.3,0.5c0.7,0.1,1.6,0.1,2.5,0
			c0.9-0.2,2-0.5,2.7-1c1.9-1.2,3.8-3.5,6.1-7.2c1.1-1.7,1.8-3.3,1.9-4.3c0-0.5,0-0.9-0.1-1c0-0.1,0-0.1-0.3-0.4
			c-0.6-0.6-2.4-1.3-4.1-1.6c-1.7-0.3-3.2-0.3-4.5,0.1c-2.5,0.5-4.3,2.6-4.9,4.2c-0.7,1.6-0.1,3.8,0.6,5.1c0.7,1.4,1.6,2.3,1.4,3.1
			c-0.1,0.8-1.6,1.6-4.2,0.8c-1.3-0.5-2.7-1.4-4-2.9c-1.2-1.5-2.3-3.7-2.5-6.5c-0.4-5.4,3.1-11.6,9.5-14.4c3.1-1.3,6.6-1.8,10-1.4
			c1.7,0.2,3.3,0.5,5.1,1.1c1.7,0.6,3.6,1.5,5.3,2.9C483.1,484.4,484.8,486.6,485.5,489.1z"/>
		<path class="st0" d="M691.6,482.7c-0.1-3.3-20.9-4.9-45.5,1c-24.6,5.8-42.4,16.6-41,19.6c1.4,3.2,20.4-2.2,43.9-7.7
			C672.4,490,691.8,486.2,691.6,482.7z"/>
		<path class="st0" d="M639.5,552.8c1.1-3.2-5.2-8.2-14-11.3c-8.8-3-16.9-2.9-18,0.3c-1.1,3.2,5.2,8.2,14,11.3
			C630.4,556.1,638.4,556,639.5,552.8z"/>
		<path class="st0" d="M238.2,543.9c-1.2-3.1-14.9-0.7-30.6,5.5c-15.7,6.2-27.4,13.7-26.2,16.8c1.2,3.1,14.9,0.7,30.6-5.5
			C227.7,554.6,239.4,547,238.2,543.9z"/>
		<path class="st0" d="M445.7,547.6c2.2,7.2,4.3,15.2,6.4,23.9c1,4.3,2.1,8.9,3.1,13.5c1,4.5,1.6,9,1.3,13.1
			c-0.3,4-1.9,7.9-4.4,10.4c-1.2,1.3-2.6,2.1-4.2,2.5c-1.5,0.4-3.4,0.4-5.4,0c-4.1-0.8-8.1-3.2-12.8-6.4c-2.3-1.6-4.8-3.3-7.6-4.9
			c-2.8-1.6-5.7-2.9-8.7-4.1c-6-2.3-12.3-3.7-18.6-4.1c-6.4-0.5-12.2,0.2-17.2,0.2c-2.6,0-4.9-0.2-7.1-0.6c-2.2-0.4-4.2-1.1-5.9-2
			c-3.4-1.8-5.4-4.5-6.1-8c-0.7-3.5,0-7.6,1.6-11.2c0.8-1.8,1.8-3.5,2.9-5c1.2-1.5,2.6-3,4.1-4.4c6-5.4,13.4-9.4,20-13.8
			c13.2-8.8,22.2-17.8,27.9-24.5c4.5-5.4,6.9-9.3,7.3-10.8c0.6,0,1.5-0.2,2.8-0.1c2,0.2,4.8,1.1,7.1,3.9c1.2,1.4,2.3,3.3,3.3,5.5
			c1,2.3,2.2,4.9,3.3,7.6C441.2,534,443.5,540.4,445.7,547.6z"/>
		<path class="st0" d="M390.5,513.7c-1.9,0.2-5.1,1.3-9,0.8c-2.6-0.3-5.4-1.6-7.6-4c-1-1.1-1.9-2.7-2.3-3.9
			c-0.2-0.6-0.2-1.2-0.1-1.4c0-0.1,0-0.1,0-0.1c0,0,0,0,0.1-0.1c0.1-0.2,0.7-0.6,1.5-1c0.8-0.5,2.1-1,3.1-1.4c2-0.9,3.7-1.4,4.9-1.5
			c1.1-0.1,1.8,0,2.8,0.7c1,0.6,1.9,1.7,2.6,2.8c1.4,2.3,2.1,5.1,2.9,7C389.7,512.4,390.1,513.2,390.5,513.7z"/>
	</g>
</g>
</svg>
