<?xml version="1.0" encoding="utf-8"?>
<!-- Generator: Adobe Illustrator 24.3.0, SVG Export Plug-In . SVG Version: 6.00 Build 0)  -->
<svg version="1.1" id="Layer_1" xmlns="http://www.w3.org/2000/svg" xmlns:xlink="http://www.w3.org/1999/xlink" x="0px" y="0px"
	 viewBox="0 0 1080 1080" style="enable-background:new 0 0 1080 1080;" xml:space="preserve">
<style type="text/css">
	.st0{fill:#00008B;}
	.st1{fill:#00008B;stroke:#00008B;stroke-width:21.1213;stroke-miterlimit:10;}
</style>
<path class="st0" d="M763.8,762.7c-30.5,22.7-73.2,80.6-111.9,43.6c-16.7-24.7,35.1-41,47.9-58.9c7.9-38.7-43.4,15.6-58.2,26
	c-55,10.2,19.8-47,33.3-56.6c6.7-39-43.8,15.8-58.8,26.3c-12.6,11.3-27.6-7.6-14.8-17.5c13.5-12.1,77.6-54.4,36.7-51.9
	c-19.6,9.5-42.2,50.9-64.2,37.9c-10.9-28.4,54.8-40.5,52.1-64.5c-20.4-25.2-50.6,52.8-77.1,34c-12.1-28.4,55.4-40.7,51.8-64.9
	c-20.4-24.8-50.6,53.2-77,34.1c-7.1-26.3,40.8-40.8,55.4-60.4c-20.8-37.4-52.6,49.3-80.6,29.6c-4.4-5.3-3.3-12,3.2-17.3
	c12.9-18.1,66.9-34.8,41.6-56c-12.2,10.3-88.8,80.3-66.9,25.6c13.1-18.1,66.2-34.3,41.1-56c-21.8,10.6-44.8,53.6-69.2,42.5
	c-8.5-21.7,40.3-47.9,57.7-56.7c-22.6-41.7-50.3,37.8-80.3,28.3c-17.5-23.3,35.9-41.6,48.3-58.7c1.8-51.1-55.9,47.9-76.2,25.8
	c-7-26.6,40.9-40.6,55.3-60.5c-21-37.2-52.2,49.4-80.6,29.6c-14.5-30.5,73.9-45.3,46.3-71c-20.5,6.6-37,29.6-55.8,41.9
	c-54.6,3.8,28.2-50.2,39.5-62.1c-20.9-36.3-52.2,49.6-80.3,30c-7.2-26.2,41-40.7,55.3-60.4c-15.6-27.6-42.5,21.6-62.3,30.4
	c-34.4,16.1-33.3-50.7-8.1-62.5c33.9-27.2,80.4-81.6,120.6-32.4c40.2,50,81.4,99.2,121.9,149C583.1,499.2,836.3,706.7,763.8,762.7z"
	/>
</svg>
