<?xml version="1.0" encoding="utf-8"?>
<!-- Generator: Adobe Illustrator 24.3.0, SVG Export Plug-In . SVG Version: 6.00 Build 0)  -->
<svg version="1.1" id="Layer_1" xmlns="http://www.w3.org/2000/svg" xmlns:xlink="http://www.w3.org/1999/xlink" x="0px" y="0px"
	 viewBox="0 0 1080 1080" style="enable-background:new 0 0 1080 1080;" xml:space="preserve">
<style type="text/css">
	.st0{fill:#00008B;}
	.st1{fill:#00008B;stroke:#00008B;stroke-width:21.1213;stroke-miterlimit:10;}
</style>
<g>
	<g>
		<path class="st0" d="M569.2,516.4c13,0,25.2,0.3,37.5-0.1c75.3-2.4,150.6-5,225.9-7.4c2.7-0.1,5.6-0.2,8,0.7
			c6.7,2.3,8.9,10,4.8,16.7c-12.4,20.4-29.2,35.8-51.6,44.8c-16,6.4-32.9,8.4-49.8,10.2c-42.3,4.4-84.7,8.9-127,13
			c-30.8,3-61.7,5.3-92.5,7.8c-3.5,0.3-5.5,1.7-7.2,4.7c-18.1,32-36.2,63.9-54.4,95.9c-0.9,1.5-2.6,5.4-5.9,9.7
			c-1.7,2.3-3.4,4.1-4.6,5.4c-9.3,2.1-18.6,3.1-27.1,6.2c-8.1,3-14.7,7.2-20,12.6c-1.8,1.9-11.6,12.1-14.3,28.8
			c-1.9,11.8,0.6,21.1,1.6,24.4c6.4,21.1,23.7,30.6,26.5,32.1c6.9,3.7,14.8,5.9,23.1,6.2c21.8,1,42.7-12.2,51.5-32.4
			c9.1-20.9,4.3-44.3-12.5-60.9c-5.7-5.6-7-9.9-2.6-16.2c1.8-2.6,6.7-3.7,10.3-4.1c2.2-0.2,5,1.9,6.9,3.6
			c22.4,19.9,30.4,52.9,19.9,82.1c-10.3,28.8-37.1,48.4-68.2,49.8c-34.3,1.6-61.4-20.8-72.1-43.3c-2.6-5.6-4-10.6-4.8-14.3
			c-0.5-2.2-1-4.4-1.5-6.5c-0.9-5.8-1.9-14.9,0.2-25.6c5-24.6,18.6-42.7,41-54.4c15.6-8.2,29-19.2,38.8-34
			c13-19.6,12.8-40.9,5.8-62.1c-9.8-29.7-30.3-49.4-60.6-57.7c-16.1-4.4-31.7-0.2-46.5,6.4c-8.7,3.9-16.8,9.1-25.1,14
			c-27,15.8-54.5,16-80.7-0.6c-26.9-17.1-38.6-42.9-34.4-74.5c4.1-30.7,21.9-51.8,51.2-61.7c41.5-14,85.7,9.8,97.3,51.6
			c2.1,7.6,0.3,12.7-5.3,15.3c-6.5,3-13.3-0.3-15.5-7.9c-3.5-12-9.8-22.1-19.7-29.8c-17.7-13.8-42.5-14.9-61.6-2.7
			c-19.3,12.3-28.9,35.5-23.8,57.5c5.2,22.2,23.4,38.8,45.7,41.5c22.7,2.8,43.6-7.8,54.5-27.9c3.1-5.8,7.4-8.2,13.9-8.4
			c40.2-1.2,80.4-2.7,120.6-3.9c4.2-0.1,6.4-1.7,8.6-5.1c42.1-64.6,84.4-129.1,126.7-193.6c13.1-20,29.1-37.4,52-46.1
			c11.5-4.4,24.1-6.1,36.2-8.7c4.9-1,9.5,0.4,12.3,5c2.8,4.6,1.7,8.9-0.8,13.3c-21.5,37.7-43,75.5-64.4,113.3
			c-21.4,37.6-42.8,75.2-64.2,112.8C570.5,513.5,569.9,515,569.2,516.4z M494.2,577.7c8.8,0.1,16-6.8,16.2-15.5
			c0.1-8.6-6.9-16-15.6-16.2c-8.7-0.2-15.9,6.8-16.1,15.6C478.5,570.4,485.5,577.6,494.2,577.7z"/>
		<path class="st0" d="M186.7,538c1-0.5-1.9-6.5-4.5-16.5c-2.7-10-4.7-24.3-2.4-39.7c2.3-15.4,8.5-28.5,13.9-37.3
			c5.5-8.8,9.9-13.7,9.1-14.5c-0.6-0.7-6.4,3-13.3,11.6c-6.9,8.5-14.4,22.3-16.9,39.1c-2.5,16.8,0.6,32.3,4.7,42.4
			C181.4,533.3,185.9,538.5,186.7,538z"/>
		<path class="st0" d="M169.1,569.8c1.5-1.5-8.5-12.3-13.4-29c-5.2-16.6-2.9-31.1-4.9-31.5c-0.9-0.2-2.8,3.2-3.8,9.4
			c-1.1,6.1-0.9,15,1.9,24.2c2.8,9.2,7.6,16.6,11.9,21.2C165,568.7,168.5,570.5,169.1,569.8z"/>
		<path class="st0" d="M506.4,844.2c0.3,0.8,5,0.4,11.7-2.9c6.7-3.2,15.2-9.9,21.6-19.5c6.4-9.7,9.1-20.1,9.5-27.5
			c0.4-7.5-1.1-12-2-11.9c-1.1,0.1-1.5,4.5-3.1,11.2c-1.6,6.7-4.7,15.6-10.4,24.3c-5.7,8.6-12.7,15.1-18.3,19.1
			C510,841.1,506.1,843.2,506.4,844.2z"/>
		<path class="st0" d="M464.9,868.6c-0.1,0.9,4.9,2.5,13.3,2.7c8.4,0.2,20.2-1.4,32.1-6.5c11.9-5.1,21.2-12.5,26.8-18.8
			c5.6-6.3,7.9-11,7.2-11.5c-1.6-1.4-14.5,14.4-36.8,23.8C485.4,868,465,866.5,464.9,868.6z"/>
	</g>
</g>
</svg>
