<svg xmlns="http://www.w3.org/2000/svg" viewBox="0 0 1080 1080"><ellipse cx="495.881" cy="842.083" rx="429.119" ry="26.789" fill="#00008b"/><path d="M801.117,847.414a.764.764,0,0,1-.029.254,4.22,4.22,0,0,1-.028.594v.566c-.028.621-.057,1.272-.113,1.894-.057.848-.17,1.7-.283,2.517-.113.764-.226,1.527-.368,2.262,0,.057-.028.142-.028.2a40.048,40.048,0,0,1-2.913,9.416l-.508,1.018c-.029.029-.029.057-.057.085a5.494,5.494,0,0,1-.537,1.074c-.312.567-.651,1.132-.99,1.669v.029c-.4.593-.792,1.159-1.216,1.724-.34.51-.735.962-1.1,1.443a1.275,1.275,0,0,1-.2.2,14.4,14.4,0,0,1-1.414,1.527H791.3c-.481.48-.99.961-1.5,1.414s-1.018.876-1.584,1.3h-.056c-.537.4-1.075.792-1.64,1.16H786.5c-.452.283-.876.566-1.328.82-.029,0-.029.028-.057.028a1.678,1.678,0,0,1-.226.113,1.646,1.646,0,0,1-.368.227,2.6,2.6,0,0,0-.4.2c-.594.312-1.217.623-1.781.877-.029,0-.057,0-.057.028a.028.028,0,0,1-.029.029.1.1,0,0,0-.084.028c-.368.17-.764.368-1.16.538-.057.027-.113.027-.2.056-.029,0-.057.028-.114.028-.226.085-.453.17-.707.255a9.853,9.853,0,0,1-.961.395c-.226.085-.453.142-.736.227-.085.028-.2.056-.31.085-.029.028-.029.028-.085.028a.028.028,0,0,0-.029.028l-.028.029a.427.427,0,0,0-.17.028c-.2.057-.424.141-.65.2a1.823,1.823,0,0,1-.227.084c-.282.057-.565.142-.848.227a.361.361,0,0,1-.169.028h-.113c-.764.2-1.528.339-2.291.509-.452.057-.9.141-1.357.226-.425.057-.877.142-1.33.2h-.028c-.311.028-.565.056-.9.112-3.874.368-3.846-5.656,0-6.08a24.859,24.859,0,0,0,3.111-.508c.028.028.057.028.057,0h.028a5.1,5.1,0,0,0,1.131-.255,24.026,24.026,0,0,0,3.337-.99c.622-.226,1.244-.481,1.838-.763a14.512,14.512,0,0,0,1.471-.735,7.86,7.86,0,0,0,.819-.453c.566-.339,1.1-.678,1.612-1.046.425-.283.82-.594,1.245-.934.4-.31.791-.65,1.159-.989.283-.283.594-.566.876-.849a22.131,22.131,0,0,0,2.376-2.8,15.657,15.657,0,0,0,.962-1.414,11.239,11.239,0,0,0,.763-1.244c.283-.481.537-.99.792-1.5a33.67,33.67,0,0,0,1.64-4.044,37.085,37.085,0,0,0,1.612-6.9c.085-.651.17-1.3.227-1.951a45.955,45.955,0,0,0,.225-4.836c0-.735-.027-1.5-.056-2.263a3.642,3.642,0,0,0-.028-.537c-.029-.678-.085-1.357-.141-2.036a56.512,56.512,0,0,0-1.3-7.833c-.141-.622-.282-1.216-.452-1.81-.113-.424-.226-.82-.339-1.216a55.836,55.836,0,0,0-2.744-7.381c-.282-.594-.565-1.159-.848-1.725-.566-1.131-1.187-2.234-1.837-3.28a17.828,17.828,0,0,0-.962-1.555c-.4-.566-.792-1.16-1.245-1.726a61.162,61.162,0,0,0-4.044-5c-.48-.537-.961-1.074-1.47-1.584-.509-.537-.99-1.046-1.556-1.555-.621-.622-1.272-1.216-1.922-1.81-.424-.4-.877-.792-1.3-1.159-.226-.2-.481-.4-.707-.566-1.358-1.1-2.743-2.177-4.185-3.167-.538-.368-1.046-.735-1.584-1.046-.339-.227-.651-.453-1.018-.679-.481-.283-.933-.566-1.414-.82a17.961,17.961,0,0,0-1.895-1.047,20.083,20.083,0,0,0-1.894-.961c-.651-.339-1.273-.622-1.923-.9q-.893-.383-1.782-.678c-.961-.34-1.923-.623-2.885-.877-.424-.113-.847-.227-1.3-.311-.481-.114-.934-.226-1.414-.311-1.612-.312-3.224-.566-4.893-.736-2.856-.311-5.684-.48-8.483-.622-15.582-.82-32.521-2.149-47.848,1.7q-1.315.339-2.545.763c-.424.142-.82.283-1.245.453a32.028,32.028,0,0,0-5.4,2.687c-.4.254-.792.508-1.16.763-.791.509-1.527,1.074-2.261,1.64s-1.443,1.131-2.121,1.753v.029c-.425.367-.82.763-1.244,1.159-.4.368-.793.764-1.189,1.16v.028c-.82.82-1.583,1.668-2.346,2.545s-1.527,1.753-2.263,2.686-1.47,1.9-2.149,2.857a8.327,8.327,0,0,0-.594.791c-.679.934-1.3,1.867-1.923,2.828s-1.244,1.951-1.81,2.941c-.169.283-.311.566-.481.849-.594,1.046-1.159,2.121-1.7,3.195-.735,1.471-1.414,2.97-2.008,4.468-.255.622-.509,1.245-.735,1.867-.283.707-.51,1.414-.735,2.121-.482,1.47-.906,2.941-1.273,4.44-.17.763-.34,1.5-.481,2.234a14.679,14.679,0,0,0-.255,1.47c-.169.933-.282,1.895-.395,2.828,0,.085-.029.141-.029.226a40.7,40.7,0,0,0,.17,8.823c.028.537.113,1.075.2,1.641a55.658,55.658,0,0,0,4.609,15.637c.2.482.453.962.679,1.414a37.047,37.047,0,0,0,1.951,3.423,46.288,46.288,0,0,0,2.771,3.76c.255.283.51.566.764.82l.029.029c.254.283.509.538.791.82a19.586,19.586,0,0,0,1.641,1.47h.028a8.791,8.791,0,0,0,.792.623c.2.141.395.283.594.423.056.029.084.057.141.085l.028.029h.029c.028.028.085.056.112.085.029,0,.057.028.086.056s.084.029.112.057.029.028.057.028c.028.028.028.057.057.057s.028.028.056.028c.029.028.085.057.113.085.057,0,.085.028.142.084l.17.086.027.027.17.085a.212.212,0,0,0,.114.057c.028.028.056.028.084.057.029,0,.029,0,.029.028a5.547,5.547,0,0,0,.565.311.028.028,0,0,0,.028.029c.424.2.821.395,1.245.565a2.782,2.782,0,0,0,.424.2,11.3,11.3,0,0,0,1.386.424c.226.057.452.142.679.2.055,0,.112.028.169.028a1.556,1.556,0,0,1,.339.114h.114l.028.027a5.745,5.745,0,0,0,.735.114,6.7,6.7,0,0,0,1.046.141,19.1,19.1,0,0,0,3.592-.057c.028.029.028.029.028,0,.707-.113,1.442-.225,2.177-.395a.976.976,0,0,1,.283-.028.477.477,0,0,1,.226-.029h.057c2.376-.17,3.676,2.432,3.054,4.242a2.7,2.7,0,0,1-.735,1.018,4.321,4.321,0,0,1-.594.4.942.942,0,0,1-.339.113,1.875,1.875,0,0,1-.368.114,25.657,25.657,0,0,1-2.8.508.354.354,0,0,1-.17.029h-.029a24.553,24.553,0,0,1-2.856.169c-.65,0-1.244-.056-1.866-.085h-.056c-.34-.028-.679-.056-1.019-.113h-.028a.172.172,0,0,1-.113-.028h-.141a2.746,2.746,0,0,1-.453-.057c-.141-.028-.282-.085-.452-.113a5.716,5.716,0,0,1-.736-.141l-.763-.169c-.029,0-.057-.029-.085-.029-.255-.085-.481-.141-.707-.2-.057-.028-.113-.028-.142-.057-.169-.056-.339-.113-.48-.169a2.108,2.108,0,0,0-.4-.114c-.028,0-.085-.028-.113-.028s-.085-.028-.113-.028c-.057-.028-.085-.028-.113-.057a4.539,4.539,0,0,1-.566-.226,1.577,1.577,0,0,1-.34-.113,1.037,1.037,0,0,0-.31-.141c-.2-.114-.424-.2-.622-.311a6.014,6.014,0,0,1-.622-.283c-.2-.113-.425-.227-.623-.34l-.594-.339a4.194,4.194,0,0,1-.594-.368c-.226-.141-.423-.254-.593-.367a2.515,2.515,0,0,0-.283-.17c-.085-.057-.17-.141-.283-.226-.255-.17-.538-.368-.792-.537a7.076,7.076,0,0,0-.792-.594c-.282-.227-.593-.509-.876-.764a5.763,5.763,0,0,0-.481-.4,4.246,4.246,0,0,0-.339-.368l-1.527-1.528a.48.48,0,0,1-.113-.14c-.481-.51-.849-1.047-1.3-1.528-.9-1.159-1.754-2.262-2.6-3.534v-.029c0-.028-.057-.085-.085-.113l-.594-.962c-.226-.339-.424-.678-.622-1.046a8.471,8.471,0,0,1-.48-.877,9.035,9.035,0,0,1-.482-.9c-.027-.027-.027-.027-.027-.056a.1.1,0,0,0-.057-.028l-.029-.029c-.056-.112-.112-.254-.169-.367-.113-.227-.2-.424-.311-.651-.141-.254-.254-.537-.4-.82-.113-.254-.255-.537-.368-.82-.028-.028-.028-.084-.057-.113-.113-.254-.254-.537-.367-.82s-.2-.565-.311-.848c-.029-.057-.056-.085-.085-.142v-.028c-.084-.17-.141-.367-.226-.537,0-.028-.028-.085-.028-.113-.029-.029-.029-.057-.057-.085a1.017,1.017,0,0,1-.113-.255,2.08,2.08,0,0,0-.142-.452,2.442,2.442,0,0,1-.141-.4c-.169-.537-.4-1.075-.566-1.64-.028-.085-.055-.17-.084-.255-.028-.113-.085-.2-.114-.311-.027-.085-.056-.2-.084-.283-.085-.282-.17-.537-.255-.82a1.836,1.836,0,0,0-.056-.2c-.142-.452-.255-.876-.368-1.3-.056-.226-.113-.452-.169-.707-.057-.226-.142-.452-.2-.678q-.126-.509-.254-1.018c-.085-.368-.169-.735-.226-1.075v-.057c-.085-.395-.142-.734-.255-1.131v-.028c-.085-.368-.169-.792-.226-1.187-.029-.2-.056-.34-.085-.509a.635.635,0,0,1-.028-.227c-.113-.593-.2-1.16-.255-1.753a.973.973,0,0,1-.028-.283c-.057-.311-.085-.594-.141-.876-.029-.284-.056-.566-.085-.821v-.028c-.085-.622-.114-1.272-.17-1.894-.028-.284-.028-.566-.028-.849-.056-.877-.085-1.725-.085-2.573v-.849c0-.678.029-1.3.085-1.951v-.254c0-.085.028-.17.028-.284v-.31a2.969,2.969,0,0,1,.056-.453,24.141,24.141,0,0,1,.283-2.517c.085-.452.142-.9.227-1.357.028-.226.085-.453.113-.679a5.635,5.635,0,0,1,.141-.678c.086-.425.17-.82.255-1.216.028-.113.056-.227.085-.311.085-.4.17-.792.283-1.188a66.311,66.311,0,0,1,3.421-10.1,82.4,82.4,0,0,1,12.952-20.5c7.211-8.427,14.959-13.8,25.875-16.034a103.669,103.669,0,0,1,22.114-1.838c3.875.028,7.777.056,11.651.113,2.319.028,4.609.085,6.928.141,4.1.114,8.258.4,12.33.764,1.668.169,3.309.395,5.006.622,1.159.17,2.375.424,3.535.707.424.085.848.2,1.272.311l1.273.339c.848.227,1.668.481,2.517.764.707.226,1.385.452,2.092.735.029,0,.056.028.085.028.933.368,1.866.736,2.772,1.16,1.074.48,2.148.99,3.2,1.555,1.074.537,2.121,1.131,3.167,1.753.226.142.424.283.651.425.791.48,1.611.989,2.375,1.527.99.678,1.98,1.385,2.941,2.149.48.367.962.735,1.442,1.131.452.368.933.764,1.386,1.159.933.792,1.81,1.612,2.687,2.461s1.724,1.7,2.545,2.6c.847.877,1.64,1.782,2.4,2.715.791.933,1.526,1.895,2.233,2.856.735.962,1.414,1.952,2.064,2.969q.976,1.485,1.867,3.055c.594,1.018,1.159,2.064,1.668,3.139.538,1.046,1.019,2.121,1.471,3.2a51.1,51.1,0,0,1,1.952,5.486c.395,1.5.819,3.055,1.13,4.61v.028c.2.905.368,1.838.509,2.772l.255,1.611c.028.142.028.311.057.453.028.169.056.311.084.48.056.51.142,1.019.2,1.528a6,6,0,0,1,.057.707c.085.9.169,1.837.226,2.771v.056C801.173,843.907,801.173,845.66,801.117,847.414Z" fill="#00008b"/><path d="M795.036,845.1a45.955,45.955,0,0,1-.225,4.836c-.057.65-.142,1.3-.227,1.951a37.085,37.085,0,0,1-1.612,6.9,33.67,33.67,0,0,1-1.64,4.044c-.255.509-.509,1.018-.792,1.5a11.239,11.239,0,0,1-.763,1.244,15.657,15.657,0,0,1-.962,1.414,22.131,22.131,0,0,1-2.376,2.8c-.282.283-.593.566-.876.849-.368.339-.763.679-1.159.989-.425.34-.82.651-1.245.934-.509.368-1.046.707-1.612,1.046a7.86,7.86,0,0,1-.819.453,14.512,14.512,0,0,1-1.471.735c-.594.282-1.216.537-1.838.763a24.026,24.026,0,0,1-3.337.99,34.883,34.883,0,0,0,1.584-17.307c-.651-3.846-6.476-2.234-5.883,1.584a26.963,26.963,0,0,1-2.346,16.062,23.661,23.661,0,0,1-7.975,9.361,28.63,28.63,0,0,1-26.667,2.347c0-.707-.057-1.414-.086-2.121a20.113,20.113,0,0,0-.112-5.006c-.142-1.272-.255-2.516-.368-3.76v-.34c-.2-3.648-.424-7.267-.622-10.972-.169-3.874-6.08-3.931-6.023,0,.028,3.478.2,6.928.48,10.407a3.955,3.955,0,0,1,.085.65c0,.113.028.282.028.395.17,2.772.339,5.487.453,8.2-1.668,4.835-10.775,6.5-15.1,6.588-9.7.227-17.052-6.56-22.114-14.7a66.7,66.7,0,0,1-6.476-13.828c-1.244-3.7-7.07-2.121-5.826,1.612a73.882,73.882,0,0,0,5.43,12.3c.651,1.16,1.329,2.319,2.064,3.422a2.8,2.8,0,0,0,.226.4.477.477,0,0,0-.226.029.976.976,0,0,0-.283.028c-.735.17-1.47.282-2.177.395,0,.029,0,.029-.028,0a19.1,19.1,0,0,1-3.592.057,6.7,6.7,0,0,1-1.046-.141,8.373,8.373,0,0,1-1.216-.255c-.283-.056-.566-.141-.848-.226a11.3,11.3,0,0,1-1.386-.424,2.782,2.782,0,0,1-.424-.2c-.424-.17-.821-.368-1.245-.565l-.028-.029a19.334,19.334,0,0,1-3.478-2.291h-.028a19.586,19.586,0,0,1-1.641-1.47c-.282-.282-.537-.537-.791-.82l-.029-.029c-.254-.254-.509-.537-.764-.82a46.288,46.288,0,0,1-2.771-3.76,37.047,37.047,0,0,1-1.951-3.423c-.226-.452-.48-.932-.679-1.414a55.658,55.658,0,0,1-4.609-15.637c-.085-.566-.17-1.1-.2-1.641a40.7,40.7,0,0,1-.17-8.823c0-.085.029-.141.029-.226.113-.933.226-1.895.395-2.828a14.679,14.679,0,0,1,.255-1.47c.141-.736.311-1.471.481-2.234.367-1.5.791-2.97,1.273-4.44.225-.707.48-1.414.735-2.121.226-.622.48-1.245.735-1.867.594-1.5,1.273-3,2.008-4.468.537-1.074,1.1-2.149,1.7-3.195.17-.283.312-.566.481-.849.566-.99,1.188-1.979,1.81-2.941s1.244-1.894,1.923-2.828a8.327,8.327,0,0,1,.594-.791c.679-.962,1.414-1.923,2.149-2.857s1.5-1.809,2.263-2.686,1.526-1.725,2.346-2.545l1.189-1.188c.424-.4.819-.792,1.244-1.159.678-.622,1.385-1.188,2.121-1.782.734-.566,1.47-1.131,2.261-1.64.368-.255.764-.509,1.16-.763a32.028,32.028,0,0,1,5.4-2.687c.425-.17.821-.311,1.245-.453q1.23-.423,2.545-.763c15.327-3.846,32.266-2.517,47.848-1.7,2.8.142,5.627.311,8.483.622a4.152,4.152,0,0,0,4.893.736c.48.085.933.2,1.414.311.453.084.876.2,1.3.311.962.254,1.924.537,2.885.877.594.226,1.187.452,1.753.707.651.282,1.3.565,1.952.876.622.311,1.272.622,1.894.961.65.34,1.273.679,1.895,1.047.481.254.933.537,1.414.82.367.226.679.452,1.018.679.538.311,1.046.678,1.584,1.046a61.123,61.123,0,0,1,8.115,6.7c1.047,1.018,2.037,2.065,3.026,3.139a61.162,61.162,0,0,1,4.044,5c.425.566.82,1.132,1.217,1.726.338.508.678,1.017.99,1.555.65,1.046,1.271,2.149,1.837,3.28.283.566.566,1.131.848,1.725a55.836,55.836,0,0,1,2.744,7.381c.113.4.226.792.339,1.216.17.594.311,1.188.452,1.81a56.512,56.512,0,0,1,1.3,7.833c.056.679.112,1.358.141,2.036a3.642,3.642,0,0,1,.028.537C795.009,843.6,795.036,844.36,795.036,845.1Z" fill="#bbed0a"/><path d="M662.832,871.31a46.288,46.288,0,0,0,2.771,3.76A34.09,34.09,0,0,1,662.832,871.31Z" fill="#b275f0"/><path d="M671.54,880.037c-.365-.21-.733-.414-1.087-.65-.135-.089-.275-.15-.41-.245q-.592-.423-1.187-.933c.514.422,1.044.808,1.583,1.168a18.907,18.907,0,0,0,1.895,1.123l.028.029C672.081,880.388,671.815,880.193,671.54,880.037Z" fill="#b275f0"/><path d="M676.258,881.94a8.21,8.21,0,0,0,1.223.257c-.255-.057-.509-.085-.763-.141a2.66,2.66,0,0,1-.453-.114,1.636,1.636,0,0,1-.537-.113,13.045,13.045,0,0,1-1.7-.537,11.3,11.3,0,0,0,1.386.424C675.7,881.8,675.977,881.884,676.258,881.94Z" fill="#b275f0"/><path d="M682.119,882.281a15.324,15.324,0,0,1-3.592.057A19.1,19.1,0,0,0,682.119,882.281Z" fill="#b275f0"/><path d="M684.833,881.829a.028.028,0,0,1,.029.029,1.761,1.761,0,0,0-.538.056,15.232,15.232,0,0,1-2.177.367c.707-.113,1.442-.225,2.177-.395a.976.976,0,0,1,.283-.028A.477.477,0,0,1,684.833,881.829Z" fill="#b275f0"/><path d="M774.082,876.541a24.026,24.026,0,0,0,3.337-.99,28.59,28.59,0,0,1-3.337,1.018Z" fill="#b275f0"/><path d="M791.332,862.826a33.67,33.67,0,0,0,1.64-4.044A29.482,29.482,0,0,1,791.332,862.826Z" fill="#b275f0"/><path d="M774.082,876.541v.028a1.118,1.118,0,0,1-.085.227,31.075,31.075,0,0,1-3.309,6.476,29.15,29.15,0,0,1-7.041,7.408c-10.124,7.41-24.009,7.805-35.151,2.546-4.241,3.563-10.8,5.118-15.864,5.429-10.323.65-18.551-4.892-24.688-12.584a46.129,46.129,0,0,1-3.082-4.213.028.028,0,0,0-.029-.029,2.8,2.8,0,0,1-.226-.4c-.735-1.1-1.413-2.262-2.064-3.422a73.882,73.882,0,0,1-5.43-12.3c-1.244-3.733,4.582-5.316,5.826-1.612a66.7,66.7,0,0,0,6.476,13.828c5.062,8.145,12.414,14.932,22.114,14.7,4.326-.084,13.433-1.753,15.1-6.588-.114-2.715-.283-5.43-.453-8.2,0-.113-.028-.282-.028-.395a3.955,3.955,0,0,0-.085-.65c-.282-3.479-.452-6.929-.48-10.407-.057-3.931,5.854-3.874,6.023,0,.2,3.705.424,7.324.622,10.972v.34c.113,1.244.226,2.488.368,3.76a20.113,20.113,0,0,1,.112,5.006c.029.707.086,1.414.086,2.121a28.63,28.63,0,0,0,26.667-2.347,23.661,23.661,0,0,0,7.975-9.361,26.963,26.963,0,0,0,2.346-16.062c-.593-3.818,5.232-5.43,5.883-1.584A34.883,34.883,0,0,1,774.082,876.541Z" fill="#00008b"/><path d="M401.281,853.3c-.113.848-.255,1.7-.425,2.516-.255,1.33-.565,2.631-.9,3.9v.028c-.17.622-.367,1.244-.565,1.867-.283.791-.566,1.583-.905,2.318-.226.566-.481,1.1-.735,1.613v.028a3.68,3.68,0,0,1-.283.565,4.571,4.571,0,0,1-.34.622.218.218,0,0,1-.056.114c0,.028-.057.028-.057.056-.113.227-.254.481-.367.707-.114.2-.227.4-.34.566-.057.056-.084.113-.141.169-.028.057-.056.114-.085.17v.029c0,.027-.028.027-.028.056-.311.509-.679,1.018-1.047,1.527-.367.481-.735.961-1.1,1.414a4.442,4.442,0,0,1-.312.368,12.536,12.536,0,0,1-1.017,1.159l-.312.311-.056.057a6.521,6.521,0,0,1-.622.622l-.283.282a1.356,1.356,0,0,1-.283.283.99.99,0,0,0-.255.227,1.782,1.782,0,0,0-.226.226c-.056.028-.113.084-.169.113-.113.085-.2.17-.312.254-.452.4-.961.792-1.414,1.188a.242.242,0,0,1-.169.085h-.028c-.029.028-.029.028-.057.028a1.474,1.474,0,0,1-.254.2c-.453.311-.9.651-1.386.961-.4.255-.82.482-1.244.707a1.744,1.744,0,0,1-.283.2,3.118,3.118,0,0,1-.311.169c-.17.085-.34.2-.509.283-.029,0-.029.028-.057.028-.537.255-1.074.537-1.611.792s-1.075.481-1.641.707c-.028,0-.056.028-.085.028-.141.057-.254.085-.4.142-.2.085-.368.141-.537.2a14.749,14.749,0,0,1-1.414.509c-.283.085-.566.17-.877.254a.88.88,0,0,1-.255.085l-.255.085h-.113c-.339.113-.707.2-1.046.283a5.614,5.614,0,0,1-.735.17h-.057c-.028,0-.028,0-.056.028-.141.028-.311.056-.481.084-.028,0-.028,0-.057.029a.518.518,0,0,0-.2.057,7.563,7.563,0,0,1-.763.141.261.261,0,0,0-.142.028c-.027,0-.084.028-.112.028a1.033,1.033,0,0,1-.312.057h-.028c-.282.056-.594.085-.876.113-.312.057-.623.113-.934.142l-.961.112a2.334,2.334,0,0,1-2.46-1.159h-.029A3.329,3.329,0,0,1,370.4,877.3a25.022,25.022,0,0,0,4.3-.763h.028a26.779,26.779,0,0,0,4.751-1.584,15.808,15.808,0,0,0,1.839-.9,5.754,5.754,0,0,0,.9-.51,6.167,6.167,0,0,0,.792-.509,10.578,10.578,0,0,0,1.018-.678c.509-.368.99-.736,1.471-1.131.311-.255.594-.51.877-.792a10.555,10.555,0,0,0,.791-.792,27.081,27.081,0,0,0,6.222-10.265c.169-.425.311-.877.452-1.33.113-.367.226-.763.339-1.131,0-.028.029-.113.029-.17a30.241,30.241,0,0,0,.735-3.534q.169-.933.254-1.867v-.113c.085-.622.142-1.244.17-1.894.057-.651.085-1.3.085-1.98.028-1.216.028-2.4-.028-3.591-.028-1.641-.17-3.253-.34-4.864-.113-.792-.2-1.612-.311-2.4a53.368,53.368,0,0,0-1.47-6.956c-.057-.2-.113-.4-.17-.6a52.626,52.626,0,0,0-3.591-9.331c-.255-.538-.509-1.047-.792-1.556a53.241,53.241,0,0,0-4.921-7.663,61.78,61.78,0,0,0-4.3-5.034c-.368-.4-.764-.764-1.131-1.131-.82-.82-1.669-1.612-2.517-2.376-.876-.763-1.753-1.5-2.658-2.206q-.68-.508-1.358-1.018a58.084,58.084,0,0,0-5.26-3.45c-1.329-.763-2.658-1.5-4.044-2.149-.678-.339-1.385-.679-2.092-.989-.707-.34-1.414-.651-2.149-.934-1.443-.594-2.913-1.1-4.411-1.612-.453-.141-.764-.254-.99-.311a.728.728,0,0,0-.2-.056.027.027,0,0,1-.028.028.09.09,0,0,0-.057.028h-.028a5.694,5.694,0,0,1-.735,0c-1.781-.028-3.563,0-5.288,0-10.237.057-20.446-.028-30.626.509l-3,.17c-1.668.085-3.337.226-4.977.339-1.81.17-3.592.34-5.4.566-7.55.848-16.854,1.7-22.85,6.815-.819.707-1.64,1.414-2.431,2.178-.17.169-.368.339-.538.509q-1.146,1.1-2.29,2.29c-.566.594-1.1,1.159-1.669,1.782-.537.594-1.074,1.216-1.584,1.838-.763.9-1.5,1.81-2.148,2.743q-.468.552-.85,1.1c-.734.99-1.413,2.008-2.091,3.026-.538.848-1.075,1.725-1.613,2.6Q263,818.287,261.639,821a71.2,71.2,0,0,0-3.365,8.4c-.142.4-.255.792-.4,1.159v.057l-.339,1.188c-.2.707-.368,1.414-.537,2.149q-.341,1.442-.6,2.884c-.112.736-.226,1.5-.311,2.234-.113.9-.226,1.839-.254,2.743a2.679,2.679,0,0,0-.029.481c-.056.848-.085,1.725-.085,2.573a45.974,45.974,0,0,0,2.093,13.772c.2.566.368,1.075.565,1.64s.425,1.16.651,1.726.481,1.159.736,1.725q.55,1.272,1.187,2.545c.424.848.877,1.7,1.329,2.516.537.934,1.1,1.839,1.7,2.687q.721,1.1,1.527,2.121A34.192,34.192,0,0,0,268,876.428c.424.424.877.848,1.329,1.244a6.052,6.052,0,0,0,.933.763,6.946,6.946,0,0,0,.9.68,17.448,17.448,0,0,0,4.355,2.318,13.518,13.518,0,0,0,1.527.453,4.052,4.052,0,0,0,.622.141,7.511,7.511,0,0,0,1.1.17.781.781,0,0,0,.367.056,12.553,12.553,0,0,0,1.782.113,15.307,15.307,0,0,0,1.951-.113,6.308,6.308,0,0,0,1.018-.17c.34-.056.679-.141,1.018-.2a1.909,1.909,0,0,1,.538-.085h.056a2.883,2.883,0,0,1,2.687,1.5.027.027,0,0,0,.028.028,3.219,3.219,0,0,1,.311,2.771,2.2,2.2,0,0,1-.707.99.5.5,0,0,1-.141.113.578.578,0,0,1-.17.113l-.028.029a3.265,3.265,0,0,1-.9.368c-.311.056-.623.14-.905.2-.085.028-.141.028-.226.057-.566.113-1.131.2-1.669.254a22.139,22.139,0,0,1-2.715.142c-.339,0-.734,0-1.074-.029-.2,0-.4-.028-.565-.028-.17-.028-.34-.028-.509-.056a1.458,1.458,0,0,1-.368-.029h-.114c-.084,0-.141-.028-.225-.028a6.465,6.465,0,0,1-.793-.142c-.112-.028-.226-.028-.339-.056a.213.213,0,0,1-.141-.028c-.029,0-.057-.029-.085-.029a.359.359,0,0,1-.169-.028c-.17-.028-.312-.057-.453-.085-.453-.112-.848-.169-1.273-.311a.215.215,0,0,0-.113-.028c-.028,0-.057-.028-.113-.057-.622-.2-1.216-.4-1.838-.622-.339-.141-.679-.283-1.018-.452-.311-.142-.651-.283-.99-.453-.283-.17-.594-.339-.877-.509s-.593-.339-.876-.508c-.056-.029-.085-.057-.142-.086a2.591,2.591,0,0,1-.282-.169l-.17-.085c-.4-.255-.82-.537-1.216-.82a.5.5,0,0,1-.141-.113h-.029c-.4-.339-.792-.623-1.159-.962a2.911,2.911,0,0,1-.34-.283c-.085-.056-.169-.141-.254-.2l-.283-.282c-.2-.17-.368-.34-.537-.481-.283-.283-.594-.566-.877-.82-.395-.4-.763-.763-1.131-1.188-.453-.509-.905-1.046-1.385-1.583l-.51-.679c-.17-.226-.339-.453-.509-.678-.085-.114-.2-.255-.311-.4-.084-.113-.2-.283-.311-.424a8.154,8.154,0,0,1-.537-.82c-.339-.453-.65-.933-.962-1.442l-.339-.509c-.113-.17-.226-.368-.339-.538-.255-.452-.537-.933-.792-1.414a13.256,13.256,0,0,1-.65-1.272c-.227-.424-.453-.849-.651-1.273a3.549,3.549,0,0,0-.283-.565c-.056-.142-.141-.255-.2-.4-.282-.651-.565-1.273-.82-1.9-.084-.2-.169-.424-.254-.622-.311-.763-.622-1.527-.877-2.291-.339-.933-.65-1.866-.905-2.8-.084-.255-.169-.481-.226-.735a49.577,49.577,0,0,1-1.1-4.836,5.449,5.449,0,0,1-.169-.933c-.255-1.443-.425-2.857-.538-4.3a53.287,53.287,0,0,1,1.414-17.25v-.028a48.27,48.27,0,0,1,1.612-5.486c.538-1.527,1.159-3.083,1.81-4.61.905-2.149,1.923-4.213,3-6.278.368-.678.764-1.357,1.132-2.036.395-.678.792-1.357,1.215-2.036.284-.481.594-.961.934-1.442.254-.424.537-.877.848-1.3.509-.764,1.018-1.527,1.584-2.262.622-.9,1.3-1.782,1.98-2.658,1.47-1.839,3-3.592,4.609-5.26.537-.566,1.074-1.131,1.64-1.669a16.281,16.281,0,0,1,1.244-1.187c.424-.4.849-.764,1.273-1.16.876-.764,1.725-1.5,2.629-2.234h.029a21.839,21.839,0,0,1,3.393-2.206,6.3,6.3,0,0,1,.707-.4c.283-.113.566-.254.849-.367q.805-.383,1.612-.679c.424-.17.848-.34,1.272-.481.453-.141.877-.311,1.3-.452.283-.085.566-.142.877-.226.537-.142,1.075-.255,1.612-.4h.028c.028,0,.028,0,.085-.029,0-.028.056-.028.056-.028a9.2,9.2,0,0,1,1.273-.283c.339-.084.679-.141,1.018-.2.084-.028.169-.028.254-.056.877-.17,1.726-.339,2.631-.481h.027c3-.481,5.939-.82,8.739-1.131,2.432-.283,4.864-.537,7.324-.679,2.46-.226,4.921-.424,7.466-.537a3.452,3.452,0,0,1,.537-.028c2.489-.17,5-.283,7.551-.311,3.874-.17,7.833-.226,11.707-.226,4.892,0,9.7.084,14.478.254,7.325.2,14.989,4.355,20.9,8.37a67.56,67.56,0,0,1,24.264,29.156,7.33,7.33,0,0,1,.4.933,60.954,60.954,0,0,1,3.111,10.1v.028c.226,1.1.452,2.206.622,3.337,0,.028.028.057,0,.113a7.436,7.436,0,0,1,.113.792,54.52,54.52,0,0,1,.651,6.052c.028,0,.028,0,0,.028A54.942,54.942,0,0,1,401.281,853.3Z" fill="#00008b"/><path d="M395.455,847.357c0,.678-.028,1.329-.085,1.98-.028.65-.085,1.272-.17,1.894v.113q-.084.934-.254,1.867a30.241,30.241,0,0,1-.735,3.534c0,.057-.029.142-.029.17-.113.368-.226.764-.339,1.131a7.445,7.445,0,0,1-.452,1.33,27.081,27.081,0,0,1-6.222,10.265,17.939,17.939,0,0,1-1.668,1.584c-.481.395-.962.763-1.471,1.131a10.578,10.578,0,0,1-1.018.678,6.167,6.167,0,0,1-.792.509,5.754,5.754,0,0,1-.9.51,15.808,15.808,0,0,1-1.839.9,26.779,26.779,0,0,1-4.751,1.584,34.47,34.47,0,0,0,1.528-17.307c-.594-3.846-6.476-2.234-5.826,1.584a26.766,26.766,0,0,1-5.91,21.435,23.169,23.169,0,0,1-4.468,3.988,28.581,28.581,0,0,1-26.639,2.347,19.391,19.391,0,0,0-.113-2.206,14.5,14.5,0,0,0,0-3.676c-.029-.4-.085-.792-.113-1.245-.085-.932-.2-1.894-.283-2.828v-.169c-.2-4.016-.452-8.031-.651-12.075-.2-3.874-6.108-3.931-6.079,0,.084,3.478.2,6.928.537,10.407,0,.113.028.282.028.452.142,1.867.2,3.733.339,5.542.028,1.1.113,2.15.142,3.253-1.64,4.835-10.746,6.5-15.1,6.588-7.437.17-13.516-3.817-18.239-9.388-4.836-5.627-8.229-12.952-10.322-19.145-1.216-3.7-7.1-2.121-5.825,1.612a72.117,72.117,0,0,0,7.72,16.091,1.909,1.909,0,0,0-.538.085c-.678.141-1.357.282-2.036.367a15.307,15.307,0,0,1-1.951.113,12.553,12.553,0,0,1-1.782-.113.781.781,0,0,1-.367-.056,7.511,7.511,0,0,1-1.1-.17,4.052,4.052,0,0,1-.622-.141c-.509-.142-1.018-.283-1.527-.453a17.448,17.448,0,0,1-4.355-2.318,6.946,6.946,0,0,1-.9-.68,6.052,6.052,0,0,1-.933-.763c-.452-.4-.905-.82-1.329-1.244a34.192,34.192,0,0,1-2.489-2.828q-.805-1.017-1.527-2.121c-.594-.848-1.16-1.753-1.7-2.687-.452-.819-.9-1.668-1.329-2.516s-.82-1.7-1.187-2.545c-.255-.566-.51-1.16-.736-1.725s-.452-1.16-.651-1.726-.367-1.074-.565-1.64a45.974,45.974,0,0,1-2.093-13.772c0-.848.029-1.725.085-2.573a2.679,2.679,0,0,1,.029-.481c.056-.9.141-1.838.254-2.743.085-.735.2-1.5.311-2.234q.255-1.442.6-2.884c.169-.735.338-1.442.537-2.149l.339-1.188v-.057c.141-.367.254-.763.4-1.159a71.2,71.2,0,0,1,3.365-8.4q1.357-2.715,2.884-5.345c.538-.876,1.075-1.753,1.613-2.6.678-1.018,1.357-2.036,2.091-3.026q.383-.552.85-1.1c.65-.933,1.385-1.838,2.148-2.743.51-.622,1.047-1.244,1.584-1.838.565-.623,1.1-1.188,1.669-1.782q1.144-1.188,2.29-2.29c.17-.17.368-.34.538-.509.791-.764,1.612-1.471,2.431-2.178,6-5.119,15.3-5.967,22.85-6.815,1.809-.2,3.591-.4,5.4-.566,1.64-.113,3.309-.254,4.977-.339l3-.17c10.18-.537,20.389-.452,30.626-.509,1.725,0,3.507-.028,5.288,0a2.907,2.907,0,0,0,.735,0h.028a.09.09,0,0,1,.057-.028.027.027,0,0,0,.028-.028.728.728,0,0,1,.2.056c.226.085.537.2.99.339a70.069,70.069,0,0,1,6.56,2.518c.707.31,1.414.65,2.092.989,1.386.651,2.715,1.386,4.044,2.149a58.084,58.084,0,0,1,5.26,3.45q.678.51,1.358,1.018c.9.707,1.782,1.443,2.658,2.206.848.764,1.7,1.556,2.517,2.376.367.367.763.735,1.131,1.131a61.78,61.78,0,0,1,4.3,5.034,53.241,53.241,0,0,1,4.921,7.663c.283.509.537,1.018.792,1.556a52.626,52.626,0,0,1,3.591,9.331c.057.2.113.4.17.6a53.368,53.368,0,0,1,1.47,6.956A68.675,68.675,0,0,1,395.455,847.357Z" fill="#bbed0a"/><path d="M258.274,829.4c-.142.4-.255.792-.4,1.159.113-.395.254-.763.368-1.159a59.244,59.244,0,0,1,3.393-8.4A71.2,71.2,0,0,0,258.274,829.4Z" fill="#b275f0"/><path d="M259.773,863.731q.55,1.272,1.187,2.545c-.453-.849-.848-1.7-1.216-2.545-.254-.566-.509-1.16-.707-1.725C259.263,862.571,259.518,863.165,259.773,863.731Z" fill="#b275f0"/><path d="M264.523,815.656Q263,818.287,261.639,821A51.434,51.434,0,0,1,264.523,815.656Z" fill="#b275f0"/><path d="M285.45,881.8a.027.027,0,0,1,.028.028,2.143,2.143,0,0,0-.566.085q-1.017.213-2.036.339c.679-.085,1.358-.226,2.036-.367A1.909,1.909,0,0,1,285.45,881.8Z" fill="#b275f0"/><path d="M352.7,789.1l.028.029a.027.027,0,0,1-.028.028.09.09,0,0,0-.057.028C352.669,789.131,352.7,789.131,352.7,789.1Z" fill="#b275f0"/><path d="M374.726,876.541a26.779,26.779,0,0,0,4.751-1.584,24.665,24.665,0,0,1-4.751,1.612Z" fill="#b275f0"/><path d="M374.726,876.541v.028a31.35,31.35,0,0,1-2.714,5.628c-.227.339-.424.707-.651,1.075a30.371,30.371,0,0,1-7.1,7.408c-10.152,7.41-24.008,7.805-35.123,2.6-4.355,3.507-10.83,5.062-15.92,5.373-10.294.65-18.5-4.892-24.688-12.556a27.9,27.9,0,0,1-2.036-2.771c-.368-.509-.678-.99-1.018-1.5a.027.027,0,0,0-.028-.028,72.117,72.117,0,0,1-7.72-16.091c-1.273-3.733,4.609-5.316,5.825-1.612,2.093,6.193,5.486,13.518,10.322,19.145,4.723,5.571,10.8,9.558,18.239,9.388,4.356-.084,13.462-1.753,15.1-6.588-.029-1.1-.114-2.149-.142-3.253-.141-1.809-.2-3.675-.339-5.542,0-.17-.028-.339-.028-.452-.34-3.479-.453-6.929-.537-10.407-.029-3.931,5.881-3.874,6.079,0,.2,4.044.453,8.059.651,12.075v.169c.085.934.2,1.9.283,2.828.028.453.084.849.113,1.245a14.5,14.5,0,0,1,0,3.676,19.391,19.391,0,0,1,.113,2.206,28.581,28.581,0,0,0,26.639-2.347,23.169,23.169,0,0,0,4.468-3.988,26.766,26.766,0,0,0,5.91-21.435c-.65-3.818,5.232-5.43,5.826-1.584A34.47,34.47,0,0,1,374.726,876.541Z" fill="#00008b"/><path d="M752.788,791.252a4.152,4.152,0,0,1-4.893-.736,4.806,4.806,0,0,1-1.244-2.545c-.2-1.273-.453-2.46-.707-3.7-12.3-64.109-52.514-119.649-106.668-147.588a4.538,4.538,0,0,1-2.46-3.9c-.085-2.488,1.527-5,3.959-4.779a3.219,3.219,0,0,1,1.5.4A200.36,200.36,0,0,1,690.235,663.2h.028c3.619,3.507,7.127,7.183,10.52,10.973,1.414,1.583,2.8,3.195,4.129,4.807.282.311.565.679.82.99a4.435,4.435,0,0,0,.31.368c.114.113.2.226.312.339.311.4.622.792.9,1.188.4.48.793.961,1.188,1.47a1.466,1.466,0,0,1,.339.4c.255.339.482.65.736.961a.42.42,0,0,1,.085.114c.311.4.622.763.9,1.159a6.257,6.257,0,0,1,.395.509c.142.2.283.368.425.565v.057c.028,0,.028.028.057.028s.028,0,.028.029a.1.1,0,0,1,.028.085,1.656,1.656,0,0,1,.283.339,7.312,7.312,0,0,1,.566.735c.734.933,1.441,1.867,2.121,2.828a.449.449,0,0,0,.112.2c.255.34.481.65.735,1.018a.1.1,0,0,0,.029.085c0,.028,0,.028.028.056h.028l.057.057c.509.707,1.018,1.414,1.5,2.149.367.425.65.9.961,1.329.142.226.255.453.4.651.594.848,1.16,1.7,1.754,2.573.056.085.113.142.169.227.4.593.792,1.159,1.132,1.781.452.622.847,1.273,1.215,1.895.142.226.312.452.453.707.141.226.283.452.424.707l.255.424c.141.254.311.509.48.763.141.227.283.481.453.736a.612.612,0,0,1,.141.226c.82,1.273,1.556,2.573,2.263,3.846.254.424.508.877.792,1.329.027.056.056.085.084.141,1.046,1.782,2.036,3.62,3,5.458.085.057.085.113.114.17a6.8,6.8,0,0,0,.4.792c.084.141.141.311.226.452a2.755,2.755,0,0,1,.226.4c.283.537.566,1.074.849,1.64.678,1.244,1.3,2.517,1.894,3.79.113.226.254.452.367.706.2.453.4.906.623,1.358.141.311.311.65.424.962q.891,1.823,1.7,3.647c.566,1.216,1.1,2.461,1.612,3.676.254.594.509,1.16.735,1.726s.452,1.131.679,1.7c.141.311.283.622.424.962,1.159,2.828,2.263,5.684,3.309,8.6.113.282.226.565.339.876.169.453.311.9.452,1.358.481,1.414.961,2.884,1.443,4.327.4,1.215.792,2.431,1.131,3.647.339.99.65,2.008.933,3.026.255.933.537,1.839.792,2.8.2.65.367,1.3.565,1.951.312,1.16.594,2.29.9,3.45.029.142.057.283.085.424.2.764.4,1.527.566,2.291.2.933.424,1.838.594,2.743.339,1.357.622,2.686.933,4.015.028.142.057.255.084.368a1.618,1.618,0,0,1,.057.368c.113.481.2.961.311,1.442.312,1.47.594,2.969.849,4.44.085.368.17.848.254,1.244A3.88,3.88,0,0,1,752.788,791.252Z" fill="#00008b"/><path d="M659.5,648.835c-3.011-18.7-19.639-33.62-39.057-33.561-38.351.115-76.542,6.462-113.824,15.1-17.51,4.056-34.9,8.61-52.3,13.086-8.761,2.254-19.131,5.374-28.675,7.549a43.1,43.1,0,0,0-38.362,3.643c-11.994,7.546-20.577,22.187-20.5,36.707-.2-.05-.4-.1-.616-.155-.481-.113-.989-.226-1.5-.339-1.838-.508-3.733-1.018-5.572-1.527-.367-.114-.764-.225-1.131-.339l-1.527-.425c-1.442-.424-2.885-.932-4.326-1.357-1.16-.368-2.263-.764-3.422-1.131h-.029c-.65-.254-1.328-.481-2.007-.735a8.042,8.042,0,0,1-.991-.368h-.084a1.652,1.652,0,0,1-.4-.141c-.028,0-.028-.028-.057-.028s-.027-.029-.056-.029c-.17-.028-.311-.141-.452-.17-.283-.113-.623-.2-.906-.31a5.827,5.827,0,0,1-.678,1.1c-.029.027-.056.056-.085.084-.028.057-.057.086-.084.141h-.029c-.057.057-.114.113-.2.2-.763.82-1.555,1.611-2.318,2.431s-1.527,1.641-2.263,2.489q-3.943,4.326-7.494,8.936c-.678.877-1.357,1.754-2.008,2.658-.453.594-.877,1.16-1.329,1.754-.651.933-1.3,1.838-1.952,2.771-.14.227-.283.424-.423.623-.821,1.187-1.612,2.346-2.375,3.535-.85,1.3-1.7,2.629-2.518,3.959a175.65,175.65,0,0,0-9.587,17.588c-.678,1.358-1.3,2.744-1.922,4.129-.679,1.5-1.329,3-1.951,4.525-.283.594-.509,1.187-.736,1.781-.537,1.3-1.046,2.574-1.527,3.9a6.665,6.665,0,0,0-.424,1.045c-.623,1.753-1.273,3.535-1.867,5.317a188.035,188.035,0,0,0-5.316,18.409c-.566,2.348-1.074,4.666-1.527,7.042-.226,1.188-.453,2.346-.65,3.535q-.34,1.782-.594,3.563c3-.481,5.939-.82,8.738-1.131,2.433-.283,4.864-.537,7.325-.679,2.459-.226,4.92-.424,7.465-.538a3.579,3.579,0,0,1,.537-.027c2.489-.17,5-.283,7.551-.311,3.873-.17,7.834-.226,11.707-.226,4.892,0,9.7.084,14.479.254,7.324.2,14.989,4.355,20.9,8.37a67.554,67.554,0,0,1,24.264,29.156,7.188,7.188,0,0,1,.4.933H654.1a82.337,82.337,0,0,1,12.952-20.5c7.21-8.427,14.958-13.8,25.875-16.034a103.723,103.723,0,0,1,22.114-1.839c3.874.029,7.776.057,11.651.113,2.318.029,4.609.086,6.927.142,4.1.114,8.259.395,12.331.764C735.23,728.427,703.335,679.1,659.5,648.835Z" fill="#d8f476"/><path d="M367.035,689.7c-.283.509-.566.99-.877,1.5v.028h-.028a212.2,212.2,0,0,0-28.958,91.681l-.085,1.017c-13.941.9-29.353,2.687-43.549,3.762h-.029c-1.329.113-2.629.2-3.959.282-.311-.339-.594-.735-.876-1.1l-.029-.028a1.132,1.132,0,0,0-.113-.2.027.027,0,0,0-.028-.028,11.4,11.4,0,0,1-1.64-5.006v-.141c-.424-3.62.481-7.664,1.555-11.227,1.1-3.761,2.319-7.465,3.648-11.17a1.607,1.607,0,0,1,.113-.339,2.671,2.671,0,0,1,.114-.368A241.223,241.223,0,0,1,316.1,709.95c4.1-6.42,8.71-12.782,14.507-17.646l.028-.029c1.3-1.046,2.574-2.007,3.96-2.912h.028a25.933,25.933,0,0,1,8.2-3.733h.028a21.116,21.116,0,0,1,2.715-.651h.085C353.262,683.565,361.718,684.866,367.035,689.7Z" fill="#bbed0a"/><path d="M343.7,684.3a5.326,5.326,0,0,1-.688,1.093,3.8,3.8,0,0,1-.405.445,165.643,165.643,0,0,0-22.669,29.149,192.007,192.007,0,0,0-26.112,70.845c-.123.727-.243,1.5-.364,2.226l-.081.282c-.69,3.6-4.048,4.13-5.991,2.43a4.269,4.269,0,0,1-1.418-3.238v-.123a2.489,2.489,0,0,1,.081-.931c5.911-40.117,23.885-77.483,49.956-105.255a2.822,2.822,0,0,1,.446-.526c.485-.526.93-1.052,1.457-1.538.243-.285.485-.567.769-.85C342.127,674.829,345.568,680.255,343.7,684.3Z" fill="#00008b"/><path d="M670.67,366.921c5.738,10.531,11.433,21.072,17.17,31.6,4.683-19.4,13.591-35.967,20.983-53,8.441-19.437,5.28-37.905-10.61-49.573-5.737-4.163-13.307-6.853-20.445-8.014a199.609,199.609,0,0,1-48.454-14.265c-6.927-3.068-14.618-4.334-21.915-6.624-7.281-2.228-14.709-4.176-21.65-7.131-7.345-3.1-13.7-4.068-19.917,2.159-4.689,4.71-10.766,4.577-17.02,4.058-7.2-.578-14.743-2.039-21.789-1.422a51.371,51.371,0,0,0-6.429.551c-.98.147-2,.325-3.066.561-2.786.59-4.786,1.306-5.381,1.451-32.37,8.4-51.827,6.958-68.972,5.661-14.612-1.1-27.188-2.05-44.877,3.26-9.546,2.865-14.692,5.794-22.527,10.217-3.3,1.842-7.041,3.941-11.695,6.36-7.272,3.766-13.4,6.754-39.221,17.53-2.545,1.041-5,2.081-7.381,3.056l-2.412,1.027c-.027-.013-.063.018-.105.03q-6.963,2.484-13.764,5.7c-1.368.625-2.7,1.284-4.054,1.968a61.722,61.722,0,0,0-17.7,14.2c-7.271,8.2-15.572,13.145-26.487,13.809-5.4.328-10.351,2.266-12.229,7.444C234,376,220.372,389.679,208.7,404.725c-7.534,9.683-15.3,19.261-22.251,29.325-12.356,17.952-8.576,39.42,8.386,52.959,6.244,5,11.656,10.989,17.849,16.045,7.375,6.027,15.2,11.556,23.741,18.015-.589-15.543-1.119-29.43-1.671-43.312l1.694-.435c1.06,4,3.152,8.043,3.043,12.006-.451,17.012,2.5,33.432,6.317,49.891.923,4-.043,8.464.828,12.522.539,2.477,2.893,6.4,4.49,6.427,2.533.046,6.768-2.168,7.363-4.248,1.726-5.876,3.127-12.268,2.546-18.275-2.2-23.281-4.489-46.625-8.157-69.709-4.114-25.959-3.94-50.8,8.39-75.048,4.886-9.57,6.912-20.591,10.394-31.437.262,2.381,1.164,5.017.653,7.312-1.673,7.6-2.949,15.475-6,22.549A136.076,136.076,0,0,0,255.728,430.3c-.07.8-.144,1.583-.193,2.378l.006.021a150.743,150.743,0,0,0,1.99,38.4c.284,1.57.573,3.163.911,4.761a574.515,574.515,0,0,1,8.349,58.793c.687,7.193-1.781,14.951-3.9,22.155a10.674,10.674,0,0,1-2.764,4.212,23.877,23.877,0,0,1-4.3,3.363,3.86,3.86,0,0,1,.115.489c.588,4.5,1.093,9.035,1.619,13.56,2.139,18.386,4.323,37.414,9.957,55.231a104.186,104.186,0,0,0,5.661,14.287c.194.446.409.885.617,1.3a106.775,106.775,0,0,0,19.6,27.5c.55.583,1.116,1.141,1.708,1.712q2.822,2.761,5.877,5.385c.473.389.945.777,1.4,1.172.623.518,1.241,1.019,1.9,1.506.828.679,1.691,1.327,2.561,1.994.461.348.95.711,1.432,1.053,2,1.478,4.084,2.891,6.241,4.261.311.215.637.406.968.616,1.156.718,2.365,1.464,3.611,2.178.957.577,1.956,1.142,2.972,1.683a4.664,4.664,0,0,0,.406.232c1.074.588,2.169,1.171,3.258,1.734.054.027.1.035.128.051.748.4,1.543.8,2.3,1.155.609.306,1.238.606,1.868.906.187.1.389.175.582.292.639.255,1.269.557,1.92.851q5.775,2.608,11.779,4.655c.633.233,1.261.449,1.9.637q2.451.84,4.931,1.543c.527.178,1.063.309,1.611.481,1.844.5,3.71,1,5.585,1.446.706.17,1.413.34,2.14.5.149.045.313.064.483.1.733.184,1.476.323,2.246.475,1.613.328,3.247.648,4.9.945.806.121,1.644.275,2.445.376,2.031.362,4.035.622,6.074.852.891.1,1.739.206,2.638.256.663.095,1.314.151,2.013.215,1.377.132,2.791.235,4.172.3.837.068,1.662.1,2.493.145s1.678.07,2.5.1c.82.008,1.666.031,2.485.037.736.033,1.46.024,2.184.015.228,0,.482.017.73.013.635,0,1.29-.017,1.939-.048,1.7-.022,3.383-.083,5.084-.172.517-.016,1.03-.05,1.568-.073,2.387-.15,4.757-.362,7.115-.615.881-.1,1.763-.191,2.611-.322.4-.046.77-.088,1.161-.153.686-.064,1.318-.155,1.987-.278.57-.074,1.113-.161,1.655-.25.918-.127,1.809-.27,2.709-.458a1.149,1.149,0,0,0,.264-.032c1.1-.222,2.155-.412,3.25-.633l.273-.077c.933-.153,1.855-.349,2.792-.569,1.084-.263,2.174-.5,3.252-.787l.168-.047c1.169-.285,2.373-.6,3.53-.929l.8-.225a44.422,44.422,0,0,1-10.248-16.626A3.319,3.319,0,0,1,432,692.1c.184.491.357.943.541,1.435.127.289.254.579.387.89.326.755.652,1.509,1.01,2.213.154.3.3.57.456.894.345.662.712,1.319,1.116,1.945a12.318,12.318,0,0,0,.666,1.073,1.291,1.291,0,0,0,.228.327,7.582,7.582,0,0,0,.679.96,17.662,17.662,0,0,0,1.34,1.772c.276.336.546.651.844.98a28.57,28.57,0,0,0,2.905,2.9c.333.3.661.574,1.009.845a19.741,19.741,0,0,0,1.707,1.3,8.928,8.928,0,0,0,.879.622,1.926,1.926,0,0,0,.246.147c.338.232.722.47,1.1.689.525.33,1.085.628,1.625.932.321.171.641.342.956.493.321.17.63.3.945.451.469.215.927.39,1.417.6a6.04,6.04,0,0,0,.816.313,6.605,6.605,0,0,0,.74.29,45.9,45.9,0,0,0,5.456,1.635c.456.09.918.2,1.375.287.489.123.939.192,1.39.26.531.111,1.029.187,1.57.253.482.1.975.158,1.468.217.478.082.965.118,1.452.155.382.066.752.091,1.15.132.137,0,.275.01.391.019,19.309.84,40.871-4.585,42.123-4.9,11.874-3.064,22.171-5.682,31.153-8.213l.063-.017c.983-.3,1.966-.6,2.943-.917,1.587-.492,3.147-1,4.739-1.554,1.708-.547,3.425-1.139,5.116-1.745.872-.291,1.718-.593,2.563-.9s1.685-.627,2.54-.976c.851-.283,1.712-.612,2.525-.952.84-.323,1.674-.667,2.508-1.01.761-.28,1.49-.594,2.24-.914.593-.232,1.19-.53,1.777-.783.551-.221,1.075-.455,1.615-.716.608-.258,1.232-.542,1.828-.842.588-.252,1.185-.55,1.767-.822.952-.487,1.869-.941,2.806-1.4.718-.355,1.424-.749,2.109-1.138l.3-.15c.534-.28,1.056-.6,1.584-.9.179-.093.314-.176.493-.269.036-.031.078-.043.093-.071.878-.508,1.736-1.009,2.582-1.553.831-.516,1.65-1.074,2.5-1.616,1.754-1.19,3.422-2.441,5.01-3.737.588-.49,1.16-.957,1.7-1.455a51.054,51.054,0,0,0,4.295-4.254,8.473,8.473,0,0,0,.616-.717c.363-.4.7-.827,1.04-1.226l-.04-.142a3.529,3.529,0,0,1,1-2.65,3.233,3.233,0,0,1,1.422-.836l.21-.059a33.552,33.552,0,0,0,5.145-17.3q3.359-1.128,6.666-2.363a39.787,39.787,0,0,1-3.149,17.528c2.914-.776,5.8-1.655,8.636-2.629l.168-.047a214.742,214.742,0,0,0,26.631-11.851,142.642,142.642,0,0,0,26.31-19.191,134.235,134.235,0,0,0,12.345-13c2.383-2.824,4.658-5.788,6.772-8.839a128.009,128.009,0,0,0,7.821-12.613c.246-.417.47-.828.69-1.259,1.071-2,2.09-4.023,3.013-6.065.229-.476.463-.935.677-1.386,1.9-4.228,3.62-8.582,5.111-13.043,15.164-45.69-1.822-92.268-16.791-133.377-.8-2.2-1.613-4.434-2.422-6.662a29.82,29.82,0,0,1-1.981-6.545c-.079-.521-.384-1.284-.449-1.917-16.224-4.315-28.643-14.786-38.26-27.721q-2.967-3.995-5.839-8.071c-1.029-10.871-7.171-20.482-16.668-25.122-.637-1.019-1.291-2.03-1.921-3.053q-3.153-5.144-6.22-10.308c-.934-1.541-1.852-3.107-2.77-4.673a189.374,189.374,0,0,0-10.368-16,134.775,134.775,0,0,0-9.472-11.694c-.156-.151-.323-.342-.459-.5-.842-.892-1.683-1.783-2.562-2.645a95.857,95.857,0,0,0-21.843-16.681c-6.493-3.624-11.416-10.3-16.482-16.106-1.649-1.9-1.52-5.394-.941-8.817.675.462,1.7.781,2.048,1.465,4.383,8.3,11.571,13.666,19.278,18.534,18.87,11.934,31.8,29.149,43.473,47.59l.262.448c3.124,4.963,6.213,9.96,9.312,15,7.312,11.847,14.635,23.733,22.595,35.136,8.084,11.606,18.961,20.8,32.623,25.767,4.9,1.77,10.3,2.246,16.207,3.45-.1-8.183-4.434-12.592-8.324-16.971-7.806-8.925-15.924-17.589-19.358-29.289-1.069-3.631-1.359-7.483-1.992-11.258C669.257,367.385,669.961,367.144,670.67,366.921Z" fill="#d8f476"/><path d="M395.429,486.307a.555.555,0,0,1-.071.149,1.1,1.1,0,0,1-.911.473,6.692,6.692,0,0,1-2.776-.586c-7.133-2.509-23.184-12.173-40.713-7.017-22.465,6.571-29.919,32.247-33.562,30.6-3.755-1.724-.308-30.421,20.314-42.4a40.076,40.076,0,0,1,21.382-5.177c19.127.759,33.729,15.351,36.135,21.713A3.154,3.154,0,0,1,395.429,486.307Z" fill="#00008b"/><path d="M618.364,425.782c-2.374,3.58-22.192-13.65-44.4-7.131-18.206,5.327-26.545,23.192-31,28.882a7.45,7.45,0,0,1-1.29,1.384,1.176,1.176,0,0,1-1.268.336,1.451,1.451,0,0,1-.516-.464,4.038,4.038,0,0,1-.541-1.434c-1.522-6.85,3.363-30.042,21.35-40.5a40.148,40.148,0,0,1,21.4-5.183C604.436,402.546,620.572,422.335,618.364,425.782Z" fill="#00008b"/><path d="M656.093,466.984c-.033.444-.136.887-.206,1.363a4.491,4.491,0,0,1-.936,1.914,5.334,5.334,0,0,1-1.59,1.448,5.5,5.5,0,0,1-2.184.79,2.36,2.36,0,0,1-.549.067,124.4,124.4,0,0,1-9.776,45.234,113.123,113.123,0,0,1-9.3,17.592c.006.022.006.022-.015.027a141.97,141.97,0,0,1-38.452,72.308,155.116,155.116,0,0,1-24.477,20.217l.007.107c-1.037.508-2.079,1-3.122,1.488-.876-2.382-1.885-4.837-3-7.413-.675-1.591-1.394-3.257-2.146-4.957-.193-.444-.387-.891-.575-1.315q-.764-1.743-1.458-3.241c-.049-.094-.072-.175-.121-.269-.559-1.256-1.12-2.443-1.666-3.573a45.578,45.578,0,0,0-3.26-5.687,22.83,22.83,0,0,0-4.321-4.779,19.164,19.164,0,0,0-1.571-1.142c-.027-.016-.059-.05-.085-.063-.584-.379-1.2-.726-1.846-1.067a20.493,20.493,0,0,0-1.93-.891l-.006-.02a.07.07,0,0,0-.047-.007c-.363-.159-.7-.3-1.077-.435a25.675,25.675,0,0,0-2.77-.807l-.021.006a.02.02,0,0,0-.026-.014,37.5,37.5,0,0,0-4.96-3.338,35.75,35.75,0,0,0-8.261-3.452,44.943,44.943,0,0,0-17.882-1.176l-1.272.163-1.107-3.121c.627.127,1.259.275,1.906.4,1.423.295,2.834.549,4.276.752,34.1,4.666,69.77-4.843,95.216-28.311,24.315-22.323,36.641-53.111,37.391-83.721-.11.01-.17-.039-.238-.041a5.625,5.625,0,0,1-2.576-1.165c-.3-.35-.621-.672-.924-1.021a4.737,4.737,0,0,1-.887-2.662c.076-.456.12-.946.166-1.349a4.133,4.133,0,0,1,1-1.913,4.418,4.418,0,0,1,1.542-1.457,5.2,5.2,0,0,1,2.179-.81,5.082,5.082,0,0,1,2.208-.058c1.464.2,2.91.333,4.336.561a5.258,5.258,0,0,1,2.6,1.178,10.253,10.253,0,0,0,.934.976A4.971,4.971,0,0,1,656.093,466.984Z" fill="#00008b"/><path d="M534.609,590.527c-.408,0-.809.03-1.216.037-.9.036-1.786.026-2.69.041a.727.727,0,0,1-.318,0c-.781.046-1.511.036-2.282.037l-.619-.021c-.985-.028-1.947-.06-2.916-.114a2.5,2.5,0,0,1-.708-.017c-.937-.018-1.863-.084-2.79-.15a6.152,6.152,0,0,1-.619-.02c-.9-.05-1.805-.122-2.668-.2-2.764-.221-5.461-.526-8.145-.943-.095-.016-.211-.027-.307-.043-1.373-.2-2.758-.441-4.121-.687-1.492-.3-2.956-.578-4.453-.9l.006.021c.077,1.8.169,3.581.33,5.361q.1,1.338.273,2.66a9.112,9.112,0,0,0,.148,1.089,9.936,9.936,0,0,0,.138,1.135c.13,1.026.277,2.029.476,3.059.071.415.142.828.235,1.237.047.248.116.489.184.731.129.7.259,1.4.41,2.1.279,1.313.605,2.632.953,3.948.121.509.274,1.051.448,1.59a4.786,4.786,0,0,0,.174.536l.035.122c.17.6.345,1.227.564,1.84.291.873.588,1.767.934,2.67.309.935.686,1.871,1.042,2.814.2.464.372.916.565,1.36.2.466.394.912.592,1.376.211.507.443,1.007.68,1.525.15.372.327.757.5,1.121a2.585,2.585,0,0,0,.191.359c.232.5.485.993.711,1.472.159.325.34.645.5.969.267.468.494.947.762,1.415.081.128.137.244.218.371a2.252,2.252,0,0,1,.2.486,1.525,1.525,0,0,1,.064.548,1.855,1.855,0,0,1-.06.516c-.423,1.88-3.281,3.1-4.405,1.046-.838-1.523-1.639-3.079-2.4-4.648-.368-.743-.71-1.472-1.043-2.248-.026-.014,0-.02,0-.02a87.928,87.928,0,0,1-3.424-8.683,93.928,93.928,0,0,1-2.9-10.7c-.268-1.271-.5-2.575-.709-3.884l-.011-.04a94.806,94.806,0,0,1-1.243-12.144c0-.153-.022-.32-.02-.474q-.7.527-1.407,1.049c-.46.3-.913.628-1.367.951-.261.2-.527.386-.793.572-.928.652-1.883,1.29-2.818,1.923-2.965,1.964-5.991,3.795-9.093,5.518-.058.038-.1.05-.158.087-.978.558-1.919,1.084-2.929,1.609-1.5.812-3.031,1.571-4.566,2.328-.3.15-.6.3-.922.434l-.021.006c-1.2.578-2.4,1.154-3.6,1.712-1.226.562-2.458,1.105-3.675,1.621-.587.253-1.2.492-1.788.744-.614.239-1.2.492-1.8.722-2.414.942-4.86,1.85-7.308,2.669-1.218.43-2.463.847-3.657,1.205a103.624,103.624,0,0,0,2.9,11.569c.574,1.793,1.169,3.581,1.826,5.352.385,1.042.77,2.086,1.176,3.124.648,1.576,1.256,3.166,1.925,4.736.65,1.579,1.3,3.155,2.01,4.714.238.52.474,1.039.712,1.56s.475,1.04.733,1.553c.6,1.157,1.275,2.269,1.931,3.389.24.368.506.749.746,1.114.4.606.785,1.258,1.141,1.875a18.275,18.275,0,0,1,1.383,2.651l.033.035.021-.006c.19.272.375.525.564.8.114.163.235.348.37.5-1.331.354-2.662.708-3.976,1.121-.736.207-1.461.454-2.186.7-.391-.019-.789-.059-1.186-.1a157.252,157.252,0,0,1-25.581-4,148.976,148.976,0,0,1-72.045-41.254,124.987,124.987,0,0,1-19.951-8.76c-17.5-9.564-33.046-23.238-43.9-39.345a4.362,4.362,0,0,1-1.335,1.225,12.129,12.129,0,0,0-1.42.682,6.489,6.489,0,0,1-4.409-.258,4.711,4.711,0,0,1-1.695-1.26,4.08,4.08,0,0,1-1.023-1.776,3.613,3.613,0,0,1-.183-2.1,3.217,3.217,0,0,1,.692-1.976,15.727,15.727,0,0,1,2.878-3.484A20.105,20.105,0,0,1,295.967,551a7.058,7.058,0,0,1,2.9-.924c.471.063,1,.068,1.483.1a6.628,6.628,0,0,1,2.608,1.2,8.71,8.71,0,0,0,.906.963,3.985,3.985,0,0,1,.768,2,4.979,4.979,0,0,1-.06,2.124,4.164,4.164,0,0,1-.975,1.775,1.944,1.944,0,0,1-.522.646c10.53,15.936,25.854,29.544,43.216,38.862,32.951,17.745,73.917,19.541,110.449,5.683A149.739,149.739,0,0,0,478.9,592.906q4.637-2.643,9.006-5.667c.9-.582,1.8-1.2,2.682-1.843a.145.145,0,0,0,.079-.043c.3-.217.584-.426.865-.637a24.351,24.351,0,0,1,3.833-2.752,5.232,5.232,0,0,1,2.6-.536,3.837,3.837,0,0,1,.762.046c2.451.4,4.9.945,7.361,1.467l1.107,3.121,1.272-.163a44.943,44.943,0,0,1,17.882,1.176A35.75,35.75,0,0,1,534.609,590.527Z" fill="#00008b"/><path d="M565.493,629.539c-1,.478-2.007.935-2.987,1.407-.042.011-.057.037-.1.049,0-.087.023-.16.022-.244.076-.7.132-1.385.182-2.1a8.309,8.309,0,0,0,.064-1.3,1.664,1.664,0,0,0,.017-.5l-.011-.279a20.244,20.244,0,0,0-.049-2.832c-.036-.533-.079-1.087-.137-1.614C563.608,624.7,564.617,627.157,565.493,629.539Z" fill="#00008b"/><path d="M463.185,647.333a33.826,33.826,0,0,1-1.956-3.382c-.483-1.038-.966-2.075-1.428-3.118q.693,1.565,1.45,3.111C461.841,645.1,462.535,646.212,463.185,647.333Z" fill="#00008b"/><path d="M471.8,602.664c-2.373,1.17-4.825,2.3-7.28,3.333-.587.253-1.2.492-1.788.744l1.782-.763C466.989,604.932,469.426,603.834,471.8,602.664Z" fill="#00008b"/><path d="M500.769,587.569c.078,1.8.173,3.58.318,5.364-.173-1.8-.29-3.568-.341-5.357Z" fill="#00008b"/><path d="M508.934,622.727c-.241-.518-.455-1.022-.669-1.528-.4-.928-.776-1.822-1.153-2.737C507.658,619.893,508.272,621.308,508.934,622.727Z" fill="#00008b"/><path d="M512.1,629.464a2.789,2.789,0,0,0-.29-1.028l-.2-.376c.083.127.14.243.223.37a2.193,2.193,0,0,1,.209.484A1.444,1.444,0,0,1,512.1,629.464Z" fill="#00008b"/><path d="M530.389,590.606c-.775.045-1.517.037-2.281.036-.216-.005-.41-.016-.626-.019C528.44,590.636,529.415,590.622,530.389,590.606Z" fill="#00008b"/><path d="M546.527,600.44a66.2,66.2,0,0,0-6.9-6.56H539.6s0-.029-.027-.029c-.34-.056-.68-.114-1.019-.169a19.822,19.822,0,0,0-2.262-.368c-.537-.057-1.131-.112-1.7-.141a39.1,39.1,0,0,0-7.041.226c-.369.057-.707.084-1.047.141-.48.086-.962.142-1.47.255a4.118,4.118,0,0,0-.594.114c-.17.027-.4.084-.594.112a7.251,7.251,0,0,0-.763.142,4.875,4.875,0,0,0-.707.17c-.764.169-1.527.338-2.263.564-.848.2-1.668.453-2.489.707-.677.2-1.384.453-2.064.68-1.385.453-2.685.961-3.988,1.5-.621.226-1.244.509-1.865.792-.99.4-1.9.819-2.771,1.245-.17.084-.369.14-.51.226-.2.113-.367.168-.537.254l-1.414.707c-.453.254-.877.453-1.33.679l-.027.028v.028c-.029.226-.029.453-.057.707-.029.509-.057,1.019-.084,1.556-.029.31-.029.621-.029.933-.057.707-.057,1.414-.057,2.121v1.752c0,.99.028,2.008.057,3,.029,1.1.084,2.178.17,3.31a1.954,1.954,0,0,1,.4-.029,2.146,2.146,0,0,1,.4-.057c.029-.027.057,0,.113-.027a10.384,10.384,0,0,1,.057-1.33v-.2c.029-.227.056-.453.085-.68a4.845,4.845,0,0,1,.169-.877,4.331,4.331,0,0,1,.113-.564c.029-.114.057-.227.086-.34.084-.312.17-.65.283-.961a9.921,9.921,0,0,1,.621-1.5,14.46,14.46,0,0,1,2.744-4.185l.283-.283a15.892,15.892,0,0,1,3.392-2.715c.284-.14.538-.31.85-.453a12.132,12.132,0,0,1,1.838-.847c.678-.254,1.384-.508,2.091-.764,1.414-.48,2.857-.933,4.356-1.33q1.613-.422,3.224-.762c1.074-.226,2.177-.4,3.281-.538.2-.028.367-.056.564-.085.849-.084,1.67-.169,2.517-.2a27.262,27.262,0,0,1,9.248.875.1.1,0,0,1,.084.029,17.8,17.8,0,0,1,1.952.651,19.676,19.676,0,0,1,1.952.877c.65.367,1.244.707,1.808,1.074l.029.029a16.875,16.875,0,0,1,1.584,1.244A8.955,8.955,0,0,0,546.527,600.44Zm18.975,29.1c-.877-2.375-1.894-4.835-3-7.409-.68-1.583-1.414-3.252-2.15-4.949-.2-.452-.395-.905-.594-1.328-.508-1.16-.99-2.235-1.442-3.252a1.023,1.023,0,0,1-.113-.256c-.566-1.244-1.131-2.431-1.668-3.562a48.537,48.537,0,0,0-3.281-5.713,23.188,23.188,0,0,0-4.3-4.779c-.51-.4-1.018-.763-1.584-1.13-.028,0-.057-.057-.084-.057-.594-.4-1.217-.736-1.839-1.074-.622-.312-1.272-.623-1.923-.879l-.029-.027h-.027c-.367-.17-.707-.311-1.074-.453a23.745,23.745,0,0,0-2.772-.791H539.6s0-.029-.027-.029c-.34-.056-.68-.114-1.019-.169a19.822,19.822,0,0,0-2.262-.368c-.537-.057-1.131-.112-1.7-.141a39.1,39.1,0,0,0-7.041.226c-.369.057-.707.084-1.047.141-.48.086-.962.142-1.47.255a4.118,4.118,0,0,0-.594.114c-.17.027-.4.084-.594.112a7.251,7.251,0,0,0-.763.142,4.875,4.875,0,0,0-.707.17c-.764.169-1.527.338-2.263.564-.848.2-1.668.453-2.489.707-.677.2-1.384.453-2.064.68-1.385.453-2.685.961-3.988,1.5-.621.226-1.244.509-1.865.792-.99.4-1.9.819-2.771,1.245-.17.084-.369.14-.51.226-.2.113-.367.168-.537.254l-1.414.707c-.453.254-.877.453-1.33.679l-.027.028c-.254.141-.51.283-.764.4-2.291,1.272-3.874,2.233-4.5,2.629l-.962.623-.084.057v.027l.084.2v.084l.283.821.029.113a1.476,1.476,0,0,1-.369,1.414,1.613,1.613,0,0,1-2.035.31q-.721-.381-1.527-.763c-.424-.17-.82-.34-1.244-.481-.057-.027-.17-.056-.227-.084a17.776,17.776,0,0,0-2.574-.623,9.861,9.861,0,0,0-1.3-.169,9.972,9.972,0,0,0-1.3-.085,9.335,9.335,0,0,0-1.244-.029c-.424,0-.82.029-1.217.057-.395,0-.82.029-1.215.057-.509.056-1.046.085-1.527.169-.4.028-.764.086-1.1.141l-.764.086c-.254.027-.537.056-.82.113-.594.113-1.215.2-1.838.34-.283.055-.594.113-.9.2-.34.084-.707.17-1.076.283a22.357,22.357,0,0,0-2.6.735c-.481.142-.961.312-1.414.48-.254.086-.51.17-.735.256-.057.027-.113.056-.17.084-.453.17-.877.34-1.33.51a7.372,7.372,0,0,1-.707.31c-.2.086-.4.2-.564.283-.312.114-.594.283-.906.424-.934.453-1.838.934-2.742,1.471-.029,0-.029,0-.057.029-.849.508-1.64,1.017-2.432,1.555a32.5,32.5,0,0,0-4.27,3.591c-.029,0-.057.057-.057.057-.4.395-.735.82-1.1,1.215a20.8,20.8,0,0,0-2.969,4.3c-.17.31-.311.621-.453.932a10.745,10.745,0,0,0-.99,3.337,2.228,2.228,0,0,0-.055.4,15.8,15.8,0,0,0,0,3.28,17.825,17.825,0,0,0,.281,2.546q.171,1.061.426,2.289a75.019,75.019,0,0,0,5.2,14.366c.99,2.037,1.894,4.045,2.8,6,7.522,15.893,14.252,27.515,29.467,34.075a57.077,57.077,0,0,0,37.357,2.942c1.017-.282,2.064-.565,3.082-.9,18.1-5.826,33.4-20.5,37.723-36.565C570.225,646.28,568.782,638.362,565.5,629.539Zm-.085,20.955a35.963,35.963,0,0,1-.877,4.355c-4.3,15.893-20.106,30.344-38.431,35.123a53.228,53.228,0,0,1-27.148-.028,45.331,45.331,0,0,1-5.344-1.7c-.876-.311-1.753-.679-2.63-1.047-.4-.17-.793-.339-1.16-.537-.17-.085-.367-.17-.537-.254l-1.188-.594c-.452-.255-.9-.482-1.357-.736-.226-.113-.48-.226-.707-.367-.2-.113-.4-.255-.594-.4a41.431,41.431,0,0,1-6.872-5.289c-.028,0-.028,0-.057-.027-.254-.254-.508-.537-.791-.793a7.389,7.389,0,0,1-.65-.707c-.51-.537-.961-1.074-1.414-1.611-.707-.821-1.414-1.7-2.064-2.6-.424-.566-.85-1.131-1.244-1.724-.369-.51-.736-1.047-1.076-1.613-.537-.82-1.074-1.668-1.584-2.545-3.166-5.345-6.051-11.6-9.388-18.721-.367-.82-.735-1.64-1.074-2.432-.254-.593-.51-1.159-.736-1.724a4.435,4.435,0,0,1-.2-.537c-.31-.707-.564-1.414-.82-2.094-.424-1.046-.763-2.064-1.074-3.054-.17-.594-.367-1.16-.51-1.725a33.207,33.207,0,0,1-1.131-5.458c-.027-.367-.056-.707-.084-1.047a3.806,3.806,0,0,1-.029-.791c-.027-.34,0-.623,0-.9,0-.17.029-.312.029-.481,0-.058.028-.113.028-.17v-.283c.029-.141.056-.312.085-.48a8.321,8.321,0,0,1,.678-2.461,18.017,18.017,0,0,1,2.772-4.3c.339-.368.65-.764,1.017-1.1.34-.339.68-.678,1.047-1.017a28.774,28.774,0,0,1,2.857-2.263c.028-.056.057-.056.084-.085a1.888,1.888,0,0,1,.4-.254,3.86,3.86,0,0,1,.424-.283c.114-.085.227-.141.34-.226a1.826,1.826,0,0,1,.338-.227.111.111,0,0,1,.086-.027,2.973,2.973,0,0,1,.763-.453,33.907,33.907,0,0,1,3.9-2.008c.255-.113.48-.2.736-.311.2-.085.367-.142.564-.226.424-.17.821-.311,1.244-.453.34-.141.707-.254,1.047-.367.623-.2,1.217-.4,1.838-.565.482-.142.962-.255,1.443-.369.34-.113.678-.169,1.018-.254.4-.084.736-.142,1.1-.2.254-.029.48-.086.734-.113.481-.086.963-.143,1.414-.2,3.451-.453,7.353-.9,11.2.792a14.121,14.121,0,0,1,1.584.848,9.92,9.92,0,0,1,1.386,1.047,11.011,11.011,0,0,1,.99.99,10.331,10.331,0,0,1,1.244,1.611c.17.254.338.537.508.793,1.047-.142,2.121-.256,3.224-.4.793-.086,1.555-.2,2.348-.311a1.954,1.954,0,0,1,.4-.029,2.146,2.146,0,0,1,.4-.057c.029-.027.057,0,.113-.027a10.384,10.384,0,0,1,.057-1.33v-.2c.029-.227.056-.453.085-.68a4.845,4.845,0,0,1,.169-.877,4.331,4.331,0,0,1,.113-.564c.029-.114.057-.227.086-.34.084-.312.17-.65.283-.961a9.921,9.921,0,0,1,.621-1.5,14.46,14.46,0,0,1,2.744-4.185l.283-.283a15.892,15.892,0,0,1,3.392-2.715c.284-.14.538-.31.85-.453a12.132,12.132,0,0,1,1.838-.847c.678-.254,1.384-.508,2.091-.764,1.414-.48,2.857-.933,4.356-1.33q1.613-.422,3.224-.762c1.074-.226,2.177-.4,3.281-.538.2-.028.367-.056.564-.085.849-.084,1.67-.169,2.517-.2a27.262,27.262,0,0,1,9.248.875.1.1,0,0,1,.084.029,17.8,17.8,0,0,1,1.952.651,19.676,19.676,0,0,1,1.952.877c.65.367,1.244.707,1.808,1.074l.029.029a16.875,16.875,0,0,1,1.584,1.244c.028,0,.084.028.113.113l.028.057a2.809,2.809,0,0,1,.311.281c.029.029.056.029.056.058a13.059,13.059,0,0,1,2.263,2.545c.227.311.452.651.678.961a43.618,43.618,0,0,1,2.971,5.232c1.13,2.319,2.318,4.977,3.648,8.059.9,2.065,1.752,4.016,2.572,5.911.736,1.7,1.414,3.337,2.008,4.949.482,1.244.933,2.431,1.33,3.619.169.48.339.99.48,1.5.226.707.424,1.414.623,2.121.112.368.2.707.281,1.074s.17.735.256,1.1c.113.508.2,1.017.311,1.555a39.348,39.348,0,0,1,.48,4.1c.029.621.057,1.271.057,1.894A30.02,30.02,0,0,1,565.417,650.494Zm-20.36-51.128-.029-.028c-.028-.029-.057-.057-.085-.057-.849-.876-1.668-1.669-2.517-2.433-1.074-.99-2.177-1.922-3.337-2.8a3.584,3.584,0,0,0-.537-.368,19.822,19.822,0,0,0-2.262-.368c-.537-.057-1.131-.112-1.7-.141a39.1,39.1,0,0,0-7.041.226c-.369.057-.707.084-1.047.141-.48.086-.962.142-1.47.255a4.118,4.118,0,0,0-.594.114c-.17.027-.4.084-.594.112a7.251,7.251,0,0,0-.763.142,4.875,4.875,0,0,0-.707.17c-.764.169-1.527.338-2.263.564-.848.2-1.668.453-2.489.707-.677.2-1.384.453-2.064.68-1.385.453-2.685.961-3.988,1.5-.621.226-1.244.509-1.865.792-.99.4-1.9.819-2.771,1.245-.17.084-.369.14-.51.226-.2.113-.367.168-.537.254l-1.414.707c-.453.254-.877.453-1.33.679l-.027.028v.028c-.029.226-.029.453-.057.707-.029.509-.057,1.019-.084,1.556-.029.31-.029.621-.029.933-.057.707-.057,1.414-.057,2.121v1.752c0,.99.028,2.008.057,3,.029,1.1.084,2.178.17,3.31a1.954,1.954,0,0,1,.4-.029,2.146,2.146,0,0,1,.4-.057c.029-.027.057,0,.113-.027a10.384,10.384,0,0,1,.057-1.33v-.2c.029-.227.056-.453.085-.68a4.845,4.845,0,0,1,.169-.877,4.331,4.331,0,0,1,.113-.564c.029-.114.057-.227.086-.34.084-.312.17-.65.283-.961a9.921,9.921,0,0,1,.621-1.5,14.46,14.46,0,0,1,2.744-4.185l.283-.283a15.892,15.892,0,0,1,3.392-2.715c.284-.14.538-.31.85-.453a12.132,12.132,0,0,1,1.838-.847c.678-.254,1.384-.508,2.091-.764,1.414-.48,2.857-.933,4.356-1.33q1.613-.422,3.224-.762c1.074-.226,2.177-.4,3.281-.538.2-.028.367-.056.564-.085.849-.084,1.67-.169,2.517-.2a27.262,27.262,0,0,1,9.248.875.1.1,0,0,1,.084.029,17.8,17.8,0,0,1,1.952.651,19.676,19.676,0,0,1,1.952.877c.65.367,1.244.707,1.808,1.074C545.452,599.705,545.254,599.565,545.057,599.366Zm1.47,1.074a66.2,66.2,0,0,0-6.9-6.56H539.6s0-.029-.027-.029c-.34-.056-.68-.114-1.019-.169a19.822,19.822,0,0,0-2.262-.368c-.537-.057-1.131-.112-1.7-.141a39.1,39.1,0,0,0-7.041.226c-.369.057-.707.084-1.047.141-.48.086-.962.142-1.47.255a4.118,4.118,0,0,0-.594.114c-.17.027-.4.084-.594.112a7.251,7.251,0,0,0-.763.142,4.875,4.875,0,0,0-.707.17c-.764.169-1.527.338-2.263.564-.848.2-1.668.453-2.489.707-.677.2-1.384.453-2.064.68-1.385.453-2.685.961-3.988,1.5-.621.226-1.244.509-1.865.792-.99.4-1.9.819-2.771,1.245-.17.084-.369.14-.51.226-.2.113-.367.168-.537.254l-1.414.707c-.453.254-.877.453-1.33.679l-.027.028v.028c-.029.226-.029.453-.057.707-.029.509-.057,1.019-.084,1.556-.029.31-.029.621-.029.933-.057.707-.057,1.414-.057,2.121v1.752c0,.99.028,2.008.057,3,.029,1.1.084,2.178.17,3.31a1.954,1.954,0,0,1,.4-.029,2.146,2.146,0,0,1,.4-.057c.029-.027.057,0,.113-.027a10.384,10.384,0,0,1,.057-1.33v-.2c.029-.227.056-.453.085-.68a4.845,4.845,0,0,1,.169-.877,4.331,4.331,0,0,1,.113-.564c.029-.114.057-.227.086-.34.084-.312.17-.65.283-.961a9.921,9.921,0,0,1,.621-1.5,14.46,14.46,0,0,1,2.744-4.185l.283-.283a15.892,15.892,0,0,1,3.392-2.715c.284-.14.538-.31.85-.453a12.132,12.132,0,0,1,1.838-.847c.678-.254,1.384-.508,2.091-.764,1.414-.48,2.857-.933,4.356-1.33q1.613-.422,3.224-.762c1.074-.226,2.177-.4,3.281-.538.2-.028.367-.056.564-.085.849-.084,1.67-.169,2.517-.2a27.262,27.262,0,0,1,9.248.875.1.1,0,0,1,.084.029,17.8,17.8,0,0,1,1.952.651,19.676,19.676,0,0,1,1.952.877c.65.367,1.244.707,1.808,1.074l.029.029a16.875,16.875,0,0,1,1.584,1.244A8.955,8.955,0,0,0,546.527,600.44Z" fill="#00008b"/><path d="M565.7,646.309a30.02,30.02,0,0,1-.283,4.185,35.963,35.963,0,0,1-.877,4.355c-4.3,15.893-20.106,30.344-38.431,35.123a53.228,53.228,0,0,1-27.148-.028q-2.672-.723-5.344-1.7c-.876-.34-1.753-.707-2.63-1.076-.4-.168-.793-.338-1.16-.508-.17-.085-.367-.17-.537-.254l-1.188-.594c-.452-.255-.9-.482-1.357-.736s-.877-.509-1.3-.763a41.431,41.431,0,0,1-6.872-5.289c-.508-.48-1.018-.988-1.5-1.527s-.934-1.047-1.414-1.611c-.707-.821-1.414-1.7-2.064-2.6-.424-.566-.85-1.131-1.244-1.724-.369-.51-.736-1.047-1.076-1.613-.537-.82-1.074-1.668-1.584-2.545-3.166-5.345-6.051-11.6-9.388-18.721-.367-.82-.735-1.64-1.074-2.432-.254-.593-.51-1.159-.736-1.724a4.435,4.435,0,0,1-.2-.537c-.31-.707-.564-1.414-.82-2.094-.424-1.046-.763-2.064-1.074-3.054-.17-.594-.367-1.16-.51-1.725a33.207,33.207,0,0,1-1.131-5.458c-.027-.367-.056-.707-.084-1.047a3.806,3.806,0,0,1-.029-.791c-.027-.34,0-.623,0-.9,0-.17.029-.312.029-.481,0-.058.028-.113.028-.17v-.283c.424-.763.82-1.527,1.216-2.29l.2-.34c1.017-1.951,2.036-3.846,3.138-5.713.34-.339.68-.678,1.047-1.017a28.774,28.774,0,0,1,2.857-2.263c.141-.112.311-.225.48-.339a3.86,3.86,0,0,1,.424-.283c.114-.085.227-.141.34-.226l.424-.254a6.7,6.7,0,0,1,.763-.453,33.907,33.907,0,0,1,3.9-2.008c.255-.113.48-.2.736-.311.2-.085.367-.142.564-.226.424-.17.821-.311,1.244-.453.34-.141.707-.254,1.047-.367.623-.2,1.217-.4,1.838-.565.482-.142.962-.255,1.443-.369.961-.226,1.922-.423,2.855-.564.481-.086.963-.143,1.414-.2,3.451-.453,7.353-.9,11.2.792a14.121,14.121,0,0,1,1.584.848,9.92,9.92,0,0,1,1.386,1.047,11.011,11.011,0,0,1,.99.99,10.331,10.331,0,0,1,1.244,1.611,101.456,101.456,0,0,0,9.332,36.452,3.026,3.026,0,0,0,3.421,1.584,3.28,3.28,0,0,0,.566-.2A2.9,2.9,0,0,0,511.913,649a94.81,94.81,0,0,1-6.476-18.522,96.442,96.442,0,0,1-2.318-15.327,1.678,1.678,0,0,1,.4-.057,2.146,2.146,0,0,1,.4-.057c.029-.027.057,0,.113-.027a10.384,10.384,0,0,1,.057-1.33c0-.283.056-.594.085-.877a4.421,4.421,0,0,1,.169-.877,4.331,4.331,0,0,1,.113-.564c.029-.114.057-.227.086-.34.084-.312.17-.65.283-.961a9.921,9.921,0,0,1,.621-1.5,14.46,14.46,0,0,1,2.744-4.185l.283-.283a15.892,15.892,0,0,1,3.392-2.715c.284-.14.538-.31.85-.453a12.132,12.132,0,0,1,1.838-.847c.678-.254,1.384-.508,2.091-.764,1.414-.48,2.857-.933,4.356-1.33q1.613-.422,3.224-.762c1.074-.226,2.177-.4,3.281-.538.2-.028.367-.056.564-.085.849-.084,1.67-.169,2.517-.2a29.177,29.177,0,0,1,8.767.791c.17.029.339.057.481.084a.1.1,0,0,1,.084.029,17.8,17.8,0,0,1,1.952.651,19.676,19.676,0,0,1,1.952.877c.65.367,1.244.707,1.808,1.074l.029.029a16.875,16.875,0,0,1,1.584,1.244c.028,0,.084.028.113.113l.028.057a2.809,2.809,0,0,1,.311.281c.029.029.056.029.056.058a13.483,13.483,0,0,1,1.7,2.319,28.16,28.16,0,0,1,3.422,5.6c.254.254.509.537.793.82,1.13,2.319,2.318,4.977,3.648,8.059.9,2.065,1.752,4.016,2.572,5.911.736,1.7,1.414,3.337,2.008,4.949.482,1.244.933,2.431,1.33,3.619.169.48.339.99.48,1.5.226.707.424,1.414.623,2.121.112.368.2.707.281,1.074s.17.735.256,1.1c.113.508.2,1.017.311,1.555a39.348,39.348,0,0,1,.48,4.1C565.672,645.036,565.7,645.686,565.7,646.309Z" fill="#ff81cb"/><path d="M454.705,627.984v.283c0,.057-.028.112-.028.17C454.677,628.295,454.705,628.154,454.705,627.984Z" fill="#ffb4e7"/><path d="M504.023,615.005c-.056.027-.084,0-.113.027a2.146,2.146,0,0,0-.4.057c.141-.029.282-.057.4-.084Z" fill="#ffb4e7"/><path d="M547.234,601.176a16.875,16.875,0,0,0-1.584-1.244l-.029-.029c-.564-.367-1.158-.707-1.808-1.074a19.676,19.676,0,0,0-1.952-.877,17.8,17.8,0,0,0-1.952-.651,12.535,12.535,0,0,1,5.034,1.98c.028,0,.057.028.085.057l.029.028a13.171,13.171,0,0,1,1.47,1.074A8.955,8.955,0,0,1,547.234,601.176Z" fill="#ffb4e7"/><path d="M471.8,602.664c-.915.78-1.81,1.554-2.673,2.362a61.67,61.67,0,0,0-7.853,8.71,32.69,32.69,0,0,0-4.277,3.6c-.021.006-.057.037-.051.059-.389.392-.752.8-1.115,1.2a20.964,20.964,0,0,0-2.962,4.313,103.624,103.624,0,0,1-2.9-11.569c1.194-.358,2.439-.775,3.657-1.205,2.448-.819,4.894-1.727,7.308-2.669.593-.23,1.181-.483,1.8-.722.587-.252,1.2-.491,1.788-.744C466.974,604.96,469.426,603.834,471.8,602.664Z" fill="#00008b"/><path d="M535.005,505.889c.86,29.395-29.625,50.048-35.743,53.879l-1.1.68,7.928,22.493,1.107,3.121,1.272-.163a44.943,44.943,0,0,1,17.882,1.176,35.75,35.75,0,0,1,8.261,3.452,37.5,37.5,0,0,1,4.96,3.338c-.341-.078-.675-.136-1.008-.193-.749-.158-1.508-.271-2.26-.363-.562-.06-1.144-.112-1.721-.145a39.4,39.4,0,0,0-7.038.243c-.353.036-.7.09-1.049.145-.48.07-.96.139-1.455.236-.653.1-1.317.24-1.959.379-.237.045-.475.089-.706.154-.768.174-1.51.362-2.246.569-.847.218-1.667.449-2.5.726-.694.2-1.4.436-2.081.673-1.371.452-2.683.951-3.963,1.486-.635.245-1.264.509-1.867.787-1,.411-1.9.819-2.778,1.261a4.8,4.8,0,0,0-.524.234c-.178.1-.362.168-.519.255-.5.228-.958.467-1.414.7s-.895.447-1.329.678l-.043.012.006.019c-.262.119-.518.257-.754.387-2.3,1.258-3.891,2.227-4.507,2.617l-.955.639-.094.071.085.3.275.813.034.122c.547,1.779,1.119,3.487,1.622,5.192a13.9,13.9,0,0,0-1.98-2.029,13.5,13.5,0,0,0-2.041-1.445,17.08,17.08,0,0,0-1.532-.763c-.416-.186-.821-.333-1.226-.48a1.4,1.4,0,0,0-.25-.082,13.884,13.884,0,0,0-2.56-.626,8.834,8.834,0,0,0-1.3-.177,9.941,9.941,0,0,0-1.3-.091,8.622,8.622,0,0,0-1.253-.016c-.413-.013-.814.013-1.216.039q-.609.01-1.2.078c-.533.042-1.046.077-1.546.154q-.594.069-1.124.122c-.507.055-1.029.137-1.551.218-.605.105-1.212.212-1.833.343-.3.063-.6.126-.921.2-.337.1-.7.174-1.058.275-.873.2-1.736.447-2.608.735-.478.158-.956.314-1.429.49-.247.091-.493.184-.719.268a.474.474,0,0,0-.163.067c-.451.172-.881.336-1.327.527-.241.111-.487.2-.708.308a6.039,6.039,0,0,0-.582.272c-.3.13-.6.278-.9.428-.937.46-1.848.935-2.742,1.469a.084.084,0,0,0-.057.037c-.837.5-1.646,1.008-2.424,1.553a61.67,61.67,0,0,1,7.853-8.71c.863-.808,1.758-1.582,2.673-2.362l.021-.006a84.323,84.323,0,0,1,22.646-13.422c.467-.2.96-.379,1.427-.575l.063-.017,1.444-.518-2.032-6.162-5.494-16.594-.844-.176c-12.912-3.358-36.385-12.126-48.454-33.278-3.08-5.369-8.227-14.371-5.235-23.492,3.483-10.522,15.9-15.28,27.921-19.841,32.955-12.612,54.966-13.383,65.335-2.29C534.631,492.718,534.891,501.294,535.005,505.889Z" fill="#00008b"/><path d="M510.358,652.869a3.28,3.28,0,0,1-.566.2,3.026,3.026,0,0,1-3.421-1.584,101.456,101.456,0,0,1-9.332-36.452c-.113-1.724-.17-3.449-.2-5.2v-1.753c0-.764.029-1.584.057-2.348v-.084a.959.959,0,0,1,0-.283c.056-2.064.17-4.1.367-6.193a3.1,3.1,0,0,1,3.281-2.714,2.882,2.882,0,0,1,2.744,3.111c-.057.706-.114,1.441-.17,2.148v.028c-.029.226-.029.453-.057.707-.029.509-.057,1.019-.057,1.556-.027.31-.056.621-.056.933-.057.707-.057,1.414-.057,2.121v1.752c0,.99.028,2.008.057,3,.029,1.1.084,2.178.17,3.31v.028a96.442,96.442,0,0,0,2.318,15.327A94.81,94.81,0,0,0,511.913,649,2.9,2.9,0,0,1,510.358,652.869Z" fill="#00008b"/><path d="M441.264,716.64a30.813,30.813,0,0,1-4.224-2.346c-1.543.487-3.166.971-4.709,1.454a153.279,153.279,0,0,1-59.782,4.206c-4.224-1.129-8.447-2.347-12.671-3.56-19.493-5.656-38.582-13.5-54.664-26.122-24.122-18.766-38.419-48.37-46.541-78.7a1.061,1.061,0,0,1-.079-.488c-1.463-8.816-2.52-17.628-3.5-26.365-.567-4.289-1.055-8.5-1.543-12.78v-.246a6.119,6.119,0,0,1-2.273-1.455,9.667,9.667,0,0,1,2.517-6.31,2.076,2.076,0,0,0,1.461.892c2.357,0,6.417-2.105,6.986-4.044.44-1.5.938-1.688,1.238-1.709,2.057-.133,4.575,20.863,7.045,34.051,1.279,6.836,5.81,31.038,17.073,51.221,3.335,5.977,16.69,28.5,42.684,42.683,0,0,31.719,17.307,97.009,17.891.2,0,1.084.1,2.272.162C436.96,705.478,440.86,711.059,441.264,716.64Z" fill="#bbed0a"/><path d="M636.3,350.623c-11.589-17.442-21.84-38.106-39.462-50.3-2.731-1.89-38.812-23.17-40.624-19.025a7.881,7.881,0,0,0,1.285,8.572c10.593,12.348,26.844,17.365,37.758,29.287,12.314,13.447,21.481,30.69,31.55,45.844,13.645,20.539,27.371,42.8,46.027,59.238a2.811,2.811,0,0,1,1.862.15c.932.409,1.847.848,2.767,1.285A43.464,43.464,0,0,0,682.456,427a35.5,35.5,0,0,0,8.25,1.146,28.078,28.078,0,0,0,7.4-1.11,14.1,14.1,0,0,0,3.884-1.492c.093-.1.191-.191.284-.29C671.929,409.907,654.489,378,636.3,350.623Z" fill="#bbed0a"/><path d="M697.366,442.015c-1.2-3.326-2.391-6.486-3.585-9.729a5.419,5.419,0,0,0-.855-1.538c4.354.854,8.879,1.109,10.757-2.73s-2.049-10.588-3.414-15.965c-1.367-5.294-4.012-10.588-3.841-15.794.083-6.061,2.217-12.209,4.351-18.011,4.867-12.551,10.417-24.843,15.282-37.307,3.159-8.024,4.182-16.218,1.45-24.755-6.4-19.891-19.547-31.5-40.549-34.489a154,154,0,0,1-26.548-5.465c-22.538-7.34-44.9-15.281-67.269-23.134-5.977-2.134-11.7-2.217-16.392,2.222-7,6.573-14.853,6.144-23.646,5.29-1.793-.167-3.585-.342-5.378-.426l-2.817-.083c-1.28.083-2.645.167-4.183.342-2.22.167-4.183.338-6.232.6-1.365.171-2.732.342-4.354.513,0,0-5.037.6-9.218,1.192-19.637,2.818-24.074,5.552-39.1,6.319a208.9,208.9,0,0,1-28.257-.855c-14.426-1.025-28.086-2.046-46.61,3.5-10.075,2.989-15.708,6.231-23.476,10.583-3.33,1.793-6.915,3.927-11.525,6.319a406.832,406.832,0,0,1-38.841,17.328c-2.392.938-5.208,1.963-8.2,3.072-4.268,1.538-9.218,3.247-14.6,4.952h-.086C288.541,319,277.7,326,268.823,336.844c-2.647,3.33-8.708,5.035-13.318,5.465-14,1.279-20.318,5.206-24.245,18.524A72.01,72.01,0,0,1,217.517,386.7c-11.44,14-22.709,28.257-34.659,41.829-14.512,16.736-13.831,47.978,7.853,61.383,5.208,3.243,10.5,7,14.428,11.7a99.256,99.256,0,0,0,25.95,22.109c7.941,4.781,11.44,11.78,11.526,21.083a58.181,58.181,0,0,0,2.561,15.794,7,7,0,0,0,1.792,3.33,6.4,6.4,0,0,0,2.391,1.534v.259c.513,4.522,1.025,8.962,1.621,13.489,1.026,9.22,2.135,18.524,3.673,27.827a1.114,1.114,0,0,0,.083.513,199.752,199.752,0,0,0,6.4,28.086c8.707,27.49,26.891,50.024,52.843,65.734,1.024.6,2.135,1.193,3.158,1.876.94.43,1.878,1.026,2.818,1.451a28.533,28.533,0,0,0,2.73,1.455,9.635,9.635,0,0,0,1.282.679,155.462,155.462,0,0,0,50.451,15.11,160.482,160.482,0,0,0,62.831-4.439c1.622-.513,3.329-1.021,4.95-1.534a32.884,32.884,0,0,0,4.439,2.476c8.112,3.926,17.5,5.46,27.574,5.46,16.306,0,33.978-4.01,49.515-8.024a2.922,2.922,0,0,0,1.194-.083h.086c1.707-.513,3.414-1.025,5.206-1.538l2.989-.938c1.792-.425,3.584-.942,5.206-1.367h.087a3.322,3.322,0,0,0,1.109-.513c23.818-7.257,51.988-17.328,65.391-35.681,2.732-.6,5.294-1.279,7.855-2.051,1.109-.254,2.218-.6,3.243-.937l1.707-.513c.854-.254,1.707-.513,2.561-.767a5.727,5.727,0,0,1,.684-.258,19.444,19.444,0,0,0,2.39-.855,5.785,5.785,0,0,0,1.109-.425c28.343-10.329,52.331-28,69.234-50.879a96.612,96.612,0,0,0,5.89-8.62,119.306,119.306,0,0,0,7-12.467,6.838,6.838,0,0,0,.6-1.109c1.023-2.047,1.875-4.014,2.815-6.061l.513-1.367a91.641,91.641,0,0,0,3.585-9.558C730.147,531.909,712.732,484.1,697.366,442.015Zm10.585,135.649q-2.3,6.66-5.121,13.06c-.258.429-.427.854-.683,1.367-.94,2.051-1.964,4.014-2.989,6.061-.256.429-.513.854-.767,1.284a118.021,118.021,0,0,1-7.77,12.546c-2.134,3.072-4.439,6.061-6.827,8.879A125.987,125.987,0,0,1,671.5,633.837a143.439,143.439,0,0,1-26.292,19.207,213.146,213.146,0,0,1-26.635,11.867H618.4c-2.818,1.026-5.719,1.876-8.622,2.643.513-1.192.94-2.388,1.365-3.585a37.8,37.8,0,0,0,1.709-13.742.12.12,0,0,0,0-.171,47.266,47.266,0,0,0-.94-8.2,3.315,3.315,0,0,0-6.488,1.367,38.318,38.318,0,0,1,.855,9.133,33.267,33.267,0,0,1-1.368,8.878c-.083.254-.171.6-.254.855a27.066,27.066,0,0,1-1.453,3.668,34.654,34.654,0,0,1-2.134,3.926l-.171.088a3.145,3.145,0,0,0-1.45.854,3.532,3.532,0,0,0-1.024,2.647l.084.084c-.342.429-.682.854-1.024,1.279-.256.259-.427.43-.683.684a50.412,50.412,0,0,1-4.269,4.268c-.51.513-1.108.942-1.706,1.451a58.664,58.664,0,0,1-5.038,3.76c-.767.508-1.621,1.108-2.474,1.621s-1.709,1.021-2.561,1.534a.085.085,0,0,0-.086.088c-.171.083-.341.171-.512.254-.513.258-1.026.6-1.536.854l-.342.171a16.971,16.971,0,0,1-2.134,1.109c-.94.513-1.793.938-2.818,1.451-.511.258-1.109.6-1.707.854s-1.28.513-1.878.767c-.513.259-1.025.513-1.623.771-.511.255-1.109.513-1.705.767-.769.342-1.538.6-2.3.938a21.672,21.672,0,0,1-2.476.942l-2.562,1.026c-.854.337-1.623.679-2.476.937-.852.342-1.707.6-2.561.938-1.707.6-3.414,1.2-5.123,1.709-1.622.6-3.158,1.022-4.779,1.534-.94.342-1.963.6-2.9.942h-.086c-8.964,2.56-19.293,5.119-31.158,8.2-1.282.342-22.794,5.8-42.085,4.952a.761.761,0,0,1-.428-.087,4.378,4.378,0,0,1-1.11-.088,7.629,7.629,0,0,1-1.451-.167c-.513-.087-1.025-.087-1.536-.175s-1.025-.166-1.536-.254c-.429-.083-.94-.171-1.367-.254-.513-.088-.938-.259-1.365-.342a37.617,37.617,0,0,1-5.465-1.621c-.256-.088-.511-.171-.769-.259s-.6-.254-.853-.342c-.427-.171-.939-.425-1.365-.6-.341-.171-.6-.258-.94-.425a10.664,10.664,0,0,1-.94-.513c-.6-.341-1.108-.6-1.621-.942a12.992,12.992,0,0,1-1.109-.679c-.171,0-.171-.088-.256-.175a5.382,5.382,0,0,1-.94-.6c-.513-.425-1.109-.855-1.707-1.28-.342-.258-.6-.6-.94-.854a30.913,30.913,0,0,1-2.9-2.9,9.014,9.014,0,0,1-.855-1.025,13.471,13.471,0,0,1-1.365-1.705c-.256-.342-.427-.683-.683-1.025-.086-.088-.169-.171-.257-.259-.171-.425-.425-.767-.6-1.108a14.549,14.549,0,0,1-1.111-1.964,7.643,7.643,0,0,0-.51-.854c-.342-.767-.684-1.451-1.026-2.218-.085-.342-.256-.6-.341-.942a9.6,9.6,0,0,0-.6-1.363,3.243,3.243,0,0,0-4.185-2.051,3.439,3.439,0,0,0-2.048,4.269c.683,1.709,1.367,3.33,2.134,4.952A27.951,27.951,0,0,0,430,703.156a34.452,34.452,0,0,0,1.878,2.9,2.656,2.656,0,0,1,.427.6c1.2,1.538,2.391,2.989,3.67,4.356l-.767.171c-1.2.342-2.39.683-3.5.938l-.171.087c-1.109.255-2.217.509-3.243.767-.938.171-1.878.425-2.818.513l-.254.083c-1.111.259-2.222.43-3.245.684h-.342c-.852.171-1.707.342-2.645.513a11.905,11.905,0,0,1-1.709.17,13.533,13.533,0,0,1-1.963.342,6.538,6.538,0,0,0-1.194.171c-.769.084-1.707.171-2.561.254-2.391.259-4.7.513-7.087.6a11.163,11.163,0,0,1-1.621.083c-1.707.088-3.331.171-5.035.171a16.272,16.272,0,0,1-1.966.083h-2.9c-.854,0-1.707-.083-2.476-.083-.854,0-1.707,0-2.561-.083-.767-.088-1.622-.088-2.476-.171-1.365,0-2.818-.171-4.183-.259-.682-.083-1.365-.171-1.964-.254a24.848,24.848,0,0,1-2.646-.258,47.437,47.437,0,0,1-6.061-.851c-.853-.087-1.707-.258-2.476-.342-1.622-.341-3.243-.6-4.867-.942q-1.151-.257-2.3-.508a.625.625,0,0,1-.427-.088c-.769-.171-1.45-.341-2.134-.512-1.878-.426-3.756-.938-5.636-1.451-.51-.171-1.108-.258-1.621-.425-1.622-.513-3.243-1.026-4.865-1.626a16.807,16.807,0,0,1-1.963-.6,117.023,117.023,0,0,1-11.782-4.693,17.042,17.042,0,0,0-1.877-.772,2.2,2.2,0,0,0-.6-.341,18.87,18.87,0,0,1-1.877-.938c-.767-.342-1.536-.684-2.305-1.109a.085.085,0,0,1-.086-.087c-1.109-.509-2.22-1.109-3.328-1.7-.086-.088-.257-.171-.342-.259-1.025-.512-2.049-1.109-2.989-1.621-1.279-.767-2.476-1.451-3.585-2.218-.341-.171-.683-.429-1.025-.6-2.134-1.363-4.181-2.818-6.232-4.268-.512-.342-.937-.684-1.45-1.022q-1.282-1.024-2.562-2.05c-.6-.426-1.279-.938-1.877-1.451a16.6,16.6,0,0,0-1.366-1.2q-3.072-2.69-5.891-5.377c-.6-.6-1.195-1.109-1.707-1.709a108.7,108.7,0,0,1-19.635-27.486c-.171-.426-.425-.855-.6-1.368a99,99,0,0,1-5.636-14.255c-5.633-17.841-7.853-36.877-9.987-55.23-.513-4.527-1.026-9.054-1.622-13.577,0-.171-.085-.341-.085-.512a22.148,22.148,0,0,0,4.268-3.327,10.476,10.476,0,0,0,2.733-4.185c.341-1.279.767-2.559,1.108-3.843.428-1.363.769-2.643,1.109-4.01a36.955,36.955,0,0,0,1.026-4.439,24.694,24.694,0,0,0,.512-3.5,26.831,26.831,0,0,0,.257-3.756,13.712,13.712,0,0,0-.086-2.647,570.326,570.326,0,0,0-8.366-58.819c-.341-1.534-.6-3.156-.854-4.694a150.055,150.055,0,0,1-2.049-38.415c.086-.854.171-1.621.256-2.388a131.556,131.556,0,0,1,2.733-17.245,140.311,140.311,0,0,1,7.853-23.734c2.987-7.086,4.268-15.023,5.975-22.621.513-2.222-.425-4.865-.683-7.258-3.5,10.842-5.463,21.855-10.413,31.417-12.294,24.243-12.465,49.086-8.368,75.038,3.67,23.134,5.976,46.439,8.2,69.744a30.27,30.27,0,0,1-.087,6.232c-.084.684-.171,1.451-.255,2.134a32.353,32.353,0,0,1-.94,4.865c-.256,1.113-.512,2.305-.852,3.414a11.766,11.766,0,0,1-.427,1.625c-.6,2.047-4.867,4.269-7.343,4.269a2.177,2.177,0,0,1-1.536-.942,4.545,4.545,0,0,1-.94-1.193,11.93,11.93,0,0,1-2.048-4.356c-.853-4.009.085-8.536-.853-12.463-3.755-16.477-6.744-32.95-6.319-49.94.171-3.927-1.963-8.024-2.987-11.951l-1.707.429c.513,13.827,1.109,27.745,1.622,43.28-8.537-6.49-16.3-11.951-23.732-18.011-6.147-5.04-11.611-11.013-17.843-16.052-16.9-13.573-20.743-35-8.366-52.926,6.916-10.074,14.685-19.637,22.282-29.365,11.611-15.027,25.268-28.687,32.013-47.211,1.878-5.123,6.83-7.086,12.207-7.424,10.927-.683,19.207-5.552,26.464-13.747a62.24,62.24,0,0,1,17.757-14.255c1.365-.684,2.645-1.368,4.012-1.964,4.525-2.134,9.135-4.014,13.743-5.719h.171l2.391-1.025c2.39-1.025,4.866-2.047,7.34-3.072,25.869-10.758,32.013-13.747,39.27-17.5,4.61-2.472,8.366-4.522,11.7-6.4,7.853-4.44,12.976-7.341,22.536-10.159,17.672-5.377,30.221-4.351,44.818-3.326,17.159,1.363,36.623,2.814,68.977-5.635.6-.171,2.645-.855,5.377-1.451,1.111-.258,2.135-.429,3.075-.6a53.352,53.352,0,0,1,6.488-.509c7-.6,14.512.851,21.769,1.451,6.231.508,12.292.6,16.988-4.1,6.231-6.227,12.548-5.206,19.974-2.134,6.915,2.905,14.341,4.869,21.6,7.086,7.343,2.305,15.025,3.585,21.94,6.661a198.525,198.525,0,0,0,48.4,14.256c7.171,1.2,14.768,3.843,20.489,8.024,15.877,11.7,19.037,30.133,10.586,49.6-7.343,16.99-16.307,33.55-21,53.012-5.718-10.587-11.437-21.083-17.156-31.671a18.75,18.75,0,0,1-2.051.684,94.246,94.246,0,0,0,1.963,11.267c3.5,11.7,11.611,20.4,19.379,29.282,3.928,4.44,8.2,8.791,8.365,16.986-5.973-1.192-11.352-1.621-16.218-3.414-13.66-4.952-24.585-14.172-32.609-25.781-8.026-11.437-15.281-23.3-22.624-35.168-3.074-5.039-6.231-9.991-9.306-14.939l-.254-.517c-11.7-18.436-24.587-35.6-43.452-47.548-7.768-4.864-14.94-10.241-19.293-18.524-.342-.683-1.368-1.025-2.049-1.45-.6,3.413-.769,6.915.94,8.791,5.035,5.806,9.987,12.463,16.475,16.135a94.752,94.752,0,0,1,21.852,16.648c.855.855,1.709,1.793,2.562,2.647a2.237,2.237,0,0,0,.427.509,126.476,126.476,0,0,1,9.477,11.7,189.76,189.76,0,0,1,10.329,15.965c.94,1.621,1.878,3.159,2.816,4.693,2.05,3.5,4.1,6.916,6.231,10.329.684,1.026,1.282,2.135,1.966,3.16,5.291,8.453,10.756,16.9,16.646,25.014,1.878,2.73,3.841,5.377,5.8,8.024,9.648,12.976,22.026,23.476,38.244,27.744.086.684.342,1.451.428,1.964a25.035,25.035,0,0,0,2.048,6.49c.77,2.217,1.622,4.522,2.391,6.657C706.073,485.382,723.061,531.992,707.951,577.664Z" fill="#00008b" stroke="#00008b" stroke-miterlimit="10" stroke-width="1.414"/></svg>