<svg xmlns="http://www.w3.org/2000/svg" viewBox="0 0 1080 1080"><path d="M619.349,581.713c-.03,0-.061.029-.091.058a.445.445,0,0,1,.182-.058Z" fill="#00008b"/><path d="M618.68,582a.544.544,0,0,0-.152.116.17.17,0,0,1,.152-.087c.031-.029.061-.058.091-.058A.116.116,0,0,0,618.68,582Z" fill="#00008b"/><path d="M619.349,581.713c-.03,0-.061.029-.091.058a.445.445,0,0,1,.182-.058Z" fill="#00008b"/><path d="M618.68,582a.544.544,0,0,0-.152.116.17.17,0,0,1,.152-.087c.031-.029.061-.058.091-.058A.116.116,0,0,0,618.68,582Z" fill="#00008b"/><path d="M619.349,581.713c-.03,0-.061.029-.091.058a.445.445,0,0,1,.182-.058Z" fill="#00008b"/><path d="M618.68,582a.544.544,0,0,0-.152.116.17.17,0,0,1,.152-.087c.031-.029.061-.058.091-.058A.116.116,0,0,0,618.68,582Z" fill="#00008b"/><path d="M618.528,582.12a.17.17,0,0,1,.152-.087V582A.544.544,0,0,0,618.528,582.12Z" fill="#00008b"/><path d="M618.528,582.12a.17.17,0,0,1,.152-.087V582A.544.544,0,0,0,618.528,582.12Z" fill="#00008b"/><path d="M618.528,582.12a.17.17,0,0,1,.152-.087V582A.544.544,0,0,0,618.528,582.12Z" fill="#00008b"/><path d="M618.528,582.12a.17.17,0,0,1,.152-.087V582A.544.544,0,0,0,618.528,582.12Z" fill="#00008b"/><path d="M618.528,582.12a.17.17,0,0,1,.152-.087V582A.544.544,0,0,0,618.528,582.12Z" fill="#00008b"/><path d="M618.528,582.12a.17.17,0,0,1,.152-.087V582A.544.544,0,0,0,618.528,582.12Z" fill="#00008b"/><path d="M618.528,582.12a.17.17,0,0,1,.152-.087V582A.544.544,0,0,0,618.528,582.12Z" fill="#00008b"/><path d="M618.528,582.12a.17.17,0,0,1,.152-.087V582A.544.544,0,0,0,618.528,582.12Z" fill="#00008b"/><path d="M618.528,582.12a.17.17,0,0,1,.152-.087V582A.544.544,0,0,0,618.528,582.12Z" fill="#00008b"/><path d="M618.68,582a.544.544,0,0,0-.152.116.17.17,0,0,1,.152-.087c.031-.029.061-.058.091-.058A.116.116,0,0,0,618.68,582Z" fill="#00008b"/><path d="M619.349,581.713c-.03,0-.061.029-.091.058a.445.445,0,0,1,.182-.058Z" fill="#00008b"/><path d="M618.68,582a.544.544,0,0,0-.152.116.17.17,0,0,1,.152-.087c.031-.029.061-.058.091-.058A.116.116,0,0,0,618.68,582Z" fill="#00008b"/><path d="M619.349,581.713c-.03,0-.061.029-.091.058a.445.445,0,0,1,.182-.058Z" fill="#00008b"/><rect x="242.274" y="632.437" width="0.715" height="2.011" fill="#00008b"/><path d="M354.108,599.759h.029c0-.029.029-.059.029-.088C354.137,599.7,354.137,599.73,354.108,599.759Z" fill="#00008b"/><path d="M354.108,599.759h.029c0-.029.029-.059.029-.088C354.137,599.7,354.137,599.73,354.108,599.759Z" fill="#00008b"/><path d="M354.108,599.759h.029c0-.029.029-.059.029-.088C354.137,599.7,354.137,599.73,354.108,599.759Z" fill="#00008b"/><path d="M354.108,599.759h.029c0-.029.029-.059.029-.088C354.137,599.7,354.137,599.73,354.108,599.759Z" fill="#00008b"/><path d="M354.108,599.759h.029c0-.029.029-.059.029-.088C354.137,599.7,354.137,599.73,354.108,599.759Z" fill="#00008b"/><path d="M538.563,746.738a122.373,122.373,0,0,1-69.4,6.178,210.819,210.819,0,0,1-15.006-97.927,216.811,216.811,0,0,1,27.38-86.955c1.637.156,3.313.234,5.048.234a56.489,56.489,0,0,0,6.139-.331A358.114,358.114,0,0,1,521.316,631.6,336.123,336.123,0,0,1,538.563,746.738Z" fill="#a070ec" stroke="#00008b" stroke-miterlimit="10" stroke-width="0.974"/><path d="M610.445,643.3a107.667,107.667,0,0,1-3.336,26.711c-.49-1.131-.98-2.281-1.489-3.431-1.188-2.582-2.451-5.221-3.827-7.9a.019.019,0,0,0-.019-.019q-3.054-5.939-6.861-12.14a183.068,183.068,0,0,0-27.2-34.006c-.792-.792-1.6-1.584-2.412-2.357l-1.207-1.149c-.358-.34-.735-.679-1.093-1.037-.17-.132-.34-.3-.509-.453q-5.118-4.693-10.33-8.859a225.091,225.091,0,0,0-53.649-31.726c5.165-1.244,9.029-3.28,10.556-5.674a148.949,148.949,0,0,1,44.657,9.916,126.536,126.536,0,0,1,42.056,26.937,119.631,119.631,0,0,1,8.445,9.011c.075.226.151.452.245.678.132.4.264.811.415,1.207.471,1.413.9,2.808,1.319,4.241A107.759,107.759,0,0,1,610.445,643.3Z" fill="#a070ec" stroke="#00008b" stroke-miterlimit="10" stroke-width="0.974"/><path d="M555.8,548.448a152.476,152.476,0,0,0-22.9-.641,149.2,149.2,0,0,0-30.2,4.562,44.986,44.986,0,0,0-14.383-2.6c.189-.377.4-.773.622-1.15a35.14,35.14,0,0,1,3.091-4.731,33.955,33.955,0,0,1,8.445-7.766,39.87,39.87,0,0,1,8.05-3.959,119.853,119.853,0,0,1,30.066,7.71q4.383,1.753,8.558,3.845Q551.585,545.894,555.8,548.448Z" fill="#a070ec" stroke="#00008b" stroke-miterlimit="10" stroke-width="2.576"/><path d="M463.418,559.011a4.492,4.492,0,0,0,1.247,2.982c-18.163,1.578-48.018,7.269-73.665,27.4a115.681,115.681,0,0,1,60.9-50.825,101.648,101.648,0,0,1,25.549,11.926C469.186,551.917,463.418,555.191,463.418,559.011Z" fill="#9630ee" stroke="#00008b" stroke-miterlimit="10" stroke-width="0.974"/><path d="M604.225,607.13a119.631,119.631,0,0,0-8.445-9.011,126.536,126.536,0,0,0-42.056-26.937,148.949,148.949,0,0,0-44.657-9.916,4.33,4.33,0,0,0,.679-2.262c0-2.6-2.7-4.939-7.05-6.635a149.2,149.2,0,0,1,30.2-4.562,152.476,152.476,0,0,1,22.9.641h.019a113.927,113.927,0,0,1,44.77,49.728Q602.594,602.557,604.225,607.13Z" fill="#9630ee" stroke="#00008b" stroke-miterlimit="10" stroke-width="0.974"/><path d="M508.513,532.156a40.033,40.033,0,0,0-8.049,3.957,34.933,34.933,0,0,0-12.16,13.661c-.565-.02-1.131-.02-1.715-.02a56.084,56.084,0,0,0-9.14.74A101.648,101.648,0,0,0,451.9,538.568a120.781,120.781,0,0,1,41.626-7.327A122.581,122.581,0,0,1,508.513,532.156Z" fill="#eadcff" stroke="#00008b" stroke-miterlimit="10" stroke-width="2.576"/><path d="M469.167,752.916c-38.937-7.912-70.722-34.377-84.773-69.3a152.224,152.224,0,0,1,22.314-56.886c19.644-30.556,46.2-49.655,65.265-60.529a42.422,42.422,0,0,0,9.568,1.832,216.811,216.811,0,0,0-27.38,86.955A210.819,210.819,0,0,0,469.167,752.916Z" fill="#9630ee" stroke="#00008b" stroke-miterlimit="10" stroke-width="0.974"/><path d="M509.741,559.011a4.248,4.248,0,0,1-.683,2.26c-1.52,2.4-5.378,4.424-10.543,5.672a44.876,44.876,0,0,1-5.787.994,56.489,56.489,0,0,1-6.139.331c-1.735,0-3.411-.078-5.048-.234a42.422,42.422,0,0,1-9.568-1.832c-3.333-1.092-5.905-2.553-7.308-4.209a4.492,4.492,0,0,1-1.247-2.982c0-3.82,5.768-7.094,14.031-8.517a56.084,56.084,0,0,1,9.14-.74c.584,0,1.15,0,1.715.02a44.964,44.964,0,0,1,14.4,2.592C507.051,554.061,509.741,556.4,509.741,559.011Z" stroke="#00008b" stroke-miterlimit="10" stroke-width="0.974"/><path d="M607.109,670.015a105.538,105.538,0,0,1-5.523,16.117,107.85,107.85,0,0,1-7.352,14.119c-1.508,2.432-3.091,4.788-4.769,7.088-.019.019-.019.038-.038.056a114.9,114.9,0,0,1-32.065,29.784,116.986,116.986,0,0,1-16.06,8.408.018.018,0,0,1-.019.018q-1.357.594-2.714,1.132c0-.283.018-.585.018-.886.057-2.225.094-4.506.094-6.824A336.89,336.89,0,0,0,521.32,631.6c-1.677-4.976-3.431-9.839-5.259-14.552q-.876-2.347-1.81-4.637a.7.7,0,0,0-.075-.17q-2.207-5.514-4.524-10.782a367.293,367.293,0,0,0-16.928-33.517,45.453,45.453,0,0,0,5.787-1,225.091,225.091,0,0,1,53.649,31.726q5.2,4.156,10.33,8.859c.169.151.339.321.509.453.358.358.735.7,1.093,1.037l1.207,1.149c.81.773,1.62,1.565,2.412,2.357a183.068,183.068,0,0,1,27.2,34.006q3.816,6.192,6.861,12.14a.019.019,0,0,1,.019.019c1.376,2.677,2.639,5.316,3.827,7.9C606.129,667.734,606.619,668.884,607.109,670.015Z" fill="#9630ee" stroke="#00008b" stroke-miterlimit="10" stroke-width="0.974"/><path d="M381.807,771.035l-5.636.056c-.113-27.05-7.993-42.319-23.431-45.241a54.045,54.045,0,0,0-18.568-.056s0-.019-.019,0a42.985,42.985,0,0,0-18.266,7.182,22.628,22.628,0,0,0-9.2,12.856,16.887,16.887,0,0,0-.735,3.43l-5.58-.622a22.108,22.108,0,0,1,1.018-4.863A29.106,29.106,0,0,1,312.532,728.4c12.026-8.822,29.369-10.406,41.244-8.125,9.332,1.81,19.963,8.068,25.053,26.09a69.515,69.515,0,0,1,1.508,6.823A106.728,106.728,0,0,1,381.807,771.035Z" fill="#00008b"/><path d="M602.189,671.334c0,1.546-.019,3.167-.075,4.9s-.132,3.543-.227,5.447c.019.019,0,.038,0,.057-.019.377-.037.792-.075,1.187-.056,1.075-.132,2.131-.226,3.2a198.425,198.425,0,0,1-11.292,52.4l-.66,1.81-1.658.189c-3.375.414-6.768.81-10.142,1.206-1.828.208-3.638.415-5.467.622-1.3.151-2.62.283-3.921.434-2.054.245-4.109.452-6.183.678-2.356.264-4.731.509-7.106.754-.245.019-.509.057-.754.076-2.413.245-4.845.49-7.258.716-1.319.151-2.658.283-3.977.4-.32.038-.622.057-.924.094-.32.038-.622.057-.942.076-.9.094-1.81.188-2.715.264l-1.263.113H537.3l-4.863.452c-1.64.151-3.261.283-4.882.434-3.356.3-6.692.584-10.029.848-2.469.207-4.939.4-7.408.584-3.978.3-7.917.6-11.857.886q-13.658.933-27.409,1.64c-.81.057-1.658.1-2.469.132h-.019c-.094,0-.207.019-.3.019l-5.994.283a.036.036,0,0,1-.057,0c-2.28.113-4.542.226-6.823.32-3.62.17-7.258.3-10.877.434l-4.543.169c-1.357.038-2.715.1-4.053.132l-2.3.057-3.449.113c-1.151.038-2.319.076-3.45.094-1.489.037-2.971.067-4.456.1-1.248.028-2.5.073-3.744.091-.283.019-.566.019-.849.019-2.356.075-4.693.113-7.049.15h-.529c-2.148.057-4.279.1-6.427.1-.924.019-1.848.019-2.771.037-.472.019-.924.019-1.4.019-2.47.038-4.977.057-7.446.076h-.378c-3.449.037-6.88.037-10.31.037h-5.222V746.36h2.884q30.708.084,61.6-1.037c1.413-.057,2.846-.094,4.279-.17,6.993-.245,13.968-.565,20.942-.9a.768.768,0,0,0,.208-.019c3.035-.15,6.051-.3,9.086-.471H475c7.673-.452,15.326-.905,22.923-1.451q19.652-1.329,39.416-3.167c.452-.038.886-.076,1.338-.113,6.221-.585,12.461-1.188,18.681-1.848,1.112-.113,2.225-.245,3.356-.358,1.753-.188,3.487-.377,5.24-.565,6.6-.717,13.214-1.508,19.812-2.281a190.33,190.33,0,0,0,8.464-33.724l.17-1.131c.829-5.523,1.432-11.1,1.771-16.72a184.521,184.521,0,0,0,.019-22.96c-.037-.924-.094-1.678-.151-2.262-.282-3.676-.659-7.239-1.13-10.651a177.578,177.578,0,0,0-8.163-34.1c-.17-.434-.32-.886-.471-1.32h5.146c.189.49.377.98.528,1.47a170.169,170.169,0,0,1,9.8,45.713,2.39,2.39,0,0,1,.018.377.365.365,0,0,1,.019.151.7.7,0,0,1,.019.207c.019.283.038.6.056.98v.019c.019.358.057.773.076,1.207v.037c.019.415.038.867.075,1.358,0,.282.019.565.038.867,0,.3.019.622.019.961.019.452.038.924.038,1.414a4.8,4.8,0,0,1,.018.509C602.17,667.866,602.189,669.544,602.189,671.334Z" fill="#00008b"/><path d="M578.308,654.752a1.683,1.683,0,0,1-.607.535" fill="none"/><path d="M579.594,653.752l.643-.429c.214-.143.393-.286.571-.393a2.3,2.3,0,0,1,1.286-.286h.214a1.329,1.329,0,0,1,.393.036,1.427,1.427,0,0,1,1.214.536,1.927,1.927,0,0,1,.429,1.286c.036.035,0,.035,0,.035a.606.606,0,0,1,.036.25V657.5c0,.285-.072.642.107.857v.035" fill="none"/><path d="M336.623,833.279c-.019,0-.057,0-.057-.019a.148.148,0,0,0,.076.076c.075.019.132.056.207.075C336.774,833.355,336.7,833.336,336.623,833.279Zm224.491-36.89-1.961,1.677,1.979-1.658,2.3-2Zm123.093-266h-.15q-5.09-1.414-10.18-2.7h-.018c-2.263-.584-4.525-1.149-6.805-1.7q-2.178-.537-4.355-1.018h-.057c-1.432.339-2.884.679-4.279,1.056-2.036.509-4.015,1.112-5.937,1.753-2.922.923-5.731,1.979-8.427,3.11-.358.151-.7.3-1.055.452-.547.227-1.075.453-1.6.7-.057.019-.509.226-1.169.547-.264.113-.566.263-.9.414-.17.076-.34.17-.528.245-.848.377-1.7.83-2.526,1.226-.49-.114-1.036-.227-1.527-.321.491.113.98.226,1.508.358a4.536,4.536,0,0,1,.641.151c.566.094,1.131.226,1.678.358.716.151,1.432.321,2.13.49,1.961.415,3.883.905,5.882,1.395h.018c1.47.359,2.96.717,4.43,1.112,4.543-1.225,9.143-2.356,13.818-3.43,7.483-1.81,15.174-3.412,22.978-4.826C686.583,530.012,685.4,530.182,684.207,530.389ZM476.154,563.905v.038c-.037.075-.056.151-.094.226a1.394,1.394,0,0,0,.132-.226c.226-.471.452-.943.7-1.395C476.626,562.982,476.4,563.453,476.154,563.905Zm322.627-88.5c-.377.4-.773.735-1.15,1.093-.83.773-1.678,1.49-2.507,2.206-.848.7-1.715,1.47-2.62,2.168-.019.056-.057.075-.113.113-.66.528-1.339,1.055-2.036,1.564a1.78,1.78,0,0,0-.226.17,14.736,14.736,0,0,0,2.393-1.169c.151-.113.34-.207.491-.339a50.813,50.813,0,0,0,4.185-3.242,5.24,5.24,0,0,0,.7-.735c.566-.7,1.942-2.319,2.96-3.733C800.176,474.12,799.479,474.761,798.781,475.4Z" fill="#bc85f2"/><path d="M519.887,233.248c-2.676-2.394-6.183-4.053-9.387-5.674-6.711-3.393-13.5-6.541-20.321-9.746-6.183-2.959-12.309-5.9-18.492-8.652a47.945,47.945,0,0,0-9.029-3.713c-4.977-1.226-9.2,1.319-11.688,5.655-3.7,6.333-3.77,14.816-3.563,21.885.226,9.934,1.9,19.774,3.94,29.426a154.2,154.2,0,0,0,9.388,29.708c2.318,5.165,6.07,13.422,12.667,13.422a1.36,1.36,0,0,0,.6-.094c.15,0,.4-.057.716-.057a.365.365,0,0,0,.282-.094.678.678,0,0,0,.378-.076c3.487-.886,4.919-4.807,5.881-7.936,1.753-5.806,2.9-11.593,5.561-17.116a58.992,58.992,0,0,1,16.06-20.076c4.675-3.732,10.085-6.334,14.93-9.915C523.544,245.878,525.75,238.432,519.887,233.248Zm-6.295,8.6a2.879,2.879,0,0,1-.227.245l-.188.189c-4.072,3.789-9.671,6.069-14.082,9.387a68.932,68.932,0,0,0-16.475,17.4c-.943,1.471-1.81,2.979-2.62,4.524-.811,1.565-1.546,3.148-2.244,4.769-.339.792-.659,1.622-.98,2.432-.641,1.64-1.206,3.3-1.753,4.977-.264.829-.528,1.659-.773,2.507-.32,1.056-.584,2.13-.867,3.223-.3,1.094-.6,2.168-.98,3.224a40.186,40.186,0,0,1-3.581-6.522,132.834,132.834,0,0,1-7.089-21.434c-1.545-6.2-2.883-12.479-3.807-18.831-.3-2.111-.566-4.242-.773-6.372-.094-.848-.188-1.715-.283-2.582a66.322,66.322,0,0,1,.019-16.4c.132-.792.283-1.584.471-2.375.094-.528.226-1.075.377-1.621.151-.528.321-1.056.509-1.546q.143-.368.283-.679a4.974,4.974,0,0,1,.886-1.489h.019a1.368,1.368,0,0,1,.848-.528,4.491,4.491,0,0,1,.471.057.467.467,0,0,0,.151.019c.924.377,1.942.735,2.79,1.093,3.111,1.244,6.089,2.677,9.1,4.147,1,.49,2.017.98,3.035,1.47,5.617,2.621,11.273,5.146,16.871,7.767,3.751,1.734,7.465,3.525,11.122,5.41,1.847.942,3.676,1.9,5.486,2.9a38.32,38.32,0,0,1,3.77,2.224,6.465,6.465,0,0,1,.961.811c.169.188.3.32.3.32a.33.33,0,0,1,.113.019c.018,0,.018.019.018.038A7.174,7.174,0,0,1,513.592,241.844Z" fill="#00008b"/><path d="M617.571,393.5a63.567,63.567,0,0,1-12.517,37.833c-.622.81-1.263,1.677-1.9,2.469l-.018.019c-1.226,1.508-2.508,2.959-3.865,4.354-.452.472-.923.943-1.376,1.395-.226.226-.452.434-.679.66-.716.679-1.451,1.357-2.186,2a71.536,71.536,0,0,1-18.361,11.725q-1.837.792-3.732,1.527c-1.263.471-2.564.924-3.864,1.338-1.3.4-2.621.773-3.94,1.131-.679.17-1.357.34-2.036.491q-3.025.678-6.164,1.131a76.467,76.467,0,0,1-10.67.735,73.389,73.389,0,0,1-51.593-20.736,63.314,63.314,0,0,1-4.336-4.694,58.8,58.8,0,0,1-3.883-5.051A63.41,63.41,0,0,1,474.986,393.5a62.014,62.014,0,0,1,.829-10.142c.151-.829.3-1.659.453-2.469.339-1.64.735-3.243,1.206-4.845.226-.792.471-1.565.735-2.356.17-.528.358-1.037.547-1.565.358-1.018.754-2.036,1.168-3.035.66-1.527,1.358-3.016,2.111-4.486.491-.962,1.018-1.9,1.546-2.847.283-.471.566-.961.867-1.432.849-1.377,1.753-2.734,2.7-4.072.34-.434.66-.886,1-1.338.66-.849,1.339-1.716,2.036-2.545.019,0,.019,0,.019-.019.7-.83,1.414-1.64,2.168-2.451l.019-.019c.358-.395.754-.791,1.131-1.187s.772-.792,1.168-1.169a74.881,74.881,0,0,1,97.74-4.826c.886.717,1.754,1.433,2.6,2.187.848.735,1.677,1.508,2.488,2.281a67.067,67.067,0,0,1,11.518,14.7A63.052,63.052,0,0,1,617.571,393.5Z" fill="#00008b"/><path d="M802.683,369.236a64.2,64.2,0,0,1-18.549,44.921c-.415.414-.81.829-1.244,1.244a69.219,69.219,0,0,1-5.259,4.675q-2.092,1.639-4.3,3.167c-.98.659-1.98,1.3-3,1.941-1.018.622-2.055,1.207-3.111,1.791l-1.583.848c-1.075.547-2.168,1.075-3.28,1.565-.547.264-1.093.49-1.659.735-1.112.471-2.243.924-3.393,1.339a68.286,68.286,0,0,1-7.069,2.186,75.76,75.76,0,0,1-18.87,2.375,74.765,74.765,0,0,1-9.236-.565c-1-.113-2-.264-3-.415a75.407,75.407,0,0,1-14.345-3.808,70.581,70.581,0,0,1-10.443-4.939h-.019a72.693,72.693,0,0,1-7.106-4.731,21.847,21.847,0,0,1-2.376-1.829c-15.212-12.252-24.788-30.274-24.788-50.519A57.766,57.766,0,0,1,661,358.642a61.876,61.876,0,0,1,6.051-18.04,63.96,63.96,0,0,1,3.524-6.145,65.145,65.145,0,0,1,5.712-7.541c1.037-1.206,2.131-2.356,3.261-3.468a73.325,73.325,0,0,1,51.82-20.924C770.732,302.524,802.683,332.421,802.683,369.236Z" fill="#00008b"/><path d="M696.234,382.3,678.5,386.522A50.866,50.866,0,0,0,661,358.642a46.424,46.424,0,0,0-7.3-4.864c-10.009-5.334-20.961-6.522-29.972-3.317a32.121,32.121,0,0,0-14.7,11.4c-6.447,8.276-10.067,19.586-9.69,31.386l-18.19.641c-.641-18.04,5.617-34.93,16.362-46.711v-.019a49.47,49.47,0,0,1,19.963-13.742c.66-.245,1.338-.471,2.017-.7a46.8,46.8,0,0,1,6.221-1.508c11.837-2.054,24.75.264,36.569,6.579.811.453,1.621.9,2.413,1.376s1.565.943,2.357,1.433A69.073,69.073,0,0,1,696.234,382.3Z" fill="#00008b"/><path d="M693.369,404.354a41.44,41.44,0,0,1-6.145,17.211v.019a37.9,37.9,0,0,1-3.318,4.392c-.4.452-.811.9-1.244,1.338a29.729,29.729,0,0,1-2.658,2.47,30.1,30.1,0,0,1-2.922,2.168c-5.391,3.581-11.292,5.184-16.551,4.467a16.345,16.345,0,0,1-2.394-.49,14.679,14.679,0,0,1-2.168-.754,18.074,18.074,0,0,1-2.092-1.037,21.85,21.85,0,0,1-2.922-2.092A28.079,28.079,0,0,1,644,422.583a29.553,29.553,0,0,1-4.279,10.5,28.371,28.371,0,0,1-3.355,4.071,18.464,18.464,0,0,1-1.414,1.32,20.439,20.439,0,0,1-11.141,5.09c-.188.018-.358.037-.527.056-.264.038-.509.057-.773.075s-.528.038-.811.038a19.866,19.866,0,0,1-7.86-1.659c-.472-.188-.943-.4-1.4-.622q-.284-.141-.566-.283c-.4-.207-.773-.433-1.168-.659-.114-.076-.246-.151-.378-.226-.377-.246-.754-.491-1.112-.755-.358-.226-.7-.471-1.037-.735a27.65,27.65,0,0,1-3.148-2.827c-.339-.339-.659-.7-.961-1.056-.321-.358-.622-.735-.924-1.112a29.644,29.644,0,0,1-5.259-9.463l2.941-.924a26.168,26.168,0,0,0,4.222,7.918c4.6,6.239,11.593,10.009,18.38,9.293,5.184-.641,10.31-4.053,13.723-9.2a25.615,25.615,0,0,0,4.316-15.288v-.528a54.951,54.951,0,0,1-1.187-6.748l3.072-.528a36.707,36.707,0,0,1,1.188,6.88v.076c2.281,9.048,7.8,15.872,14.4,17.776,4.882,1.376,10.971,0,16.494-3.676a32.141,32.141,0,0,0,9.406-9.652,37.789,37.789,0,0,0,5.58-15.74Z" fill="#00008b"/><path d="M644.546,415.288a14.68,14.68,0,0,1-3.073.791,4.625,4.625,0,0,1-1.112.208c-9.425,1.074-19.887-5.26-19.736-10.594.151-5.806,12.63-9.633,19.736-10.632,1.64-.226,15.91-2.168,18.172,3.016C660.437,402.507,653.726,412.064,644.546,415.288Z" fill="#00008b"/><path d="M904.966,363.449v.056a2.24,2.24,0,0,1-2.771,1.885,37.487,37.487,0,0,0-4.053-.735,102.316,102.316,0,0,0-55.175,6.127,85.763,85.763,0,0,0-8.389,3.789c-1.036.546-2.073,1.093-3.11,1.677-1.282.717-2.564,1.452-3.827,2.206l-2.262,1.357c-.433.321-.867.641-1.319.961-.886.623-1.791,1.245-2.64,1.885-.433.34-.848.66-1.262,1h-.019a6.061,6.061,0,0,0-.585.452c-.659.452-1.319.943-1.96,1.451-.038.038-.075.057-.113.095-.849.641-1.678,1.319-2.488,2.017-.566.471-1.132.942-1.678,1.432a2.2,2.2,0,0,1-2.809.151,1.874,1.874,0,0,1-.377-.3,1.972,1.972,0,0,1-.038-3.073v-.019c1.245-1.093,2.489-2.149,3.751-3.167,1.245-1.018,2.508-2,3.789-2.978,1.735-1.32,3.526-2.507,5.373-3.676.867-.566,1.734-1.131,2.639-1.659.565-.339,1.131-.679,1.716-1,.527-.32,1.074-.622,1.62-.924,1.622-.905,3.262-1.753,4.883-2.563a81.442,81.442,0,0,1,8.256-3.695,106.658,106.658,0,0,1,53.461-6.447h.075c2.563.377,5.165.754,7.728,1.263a.278.278,0,0,1,.246.094l.056.038A1.941,1.941,0,0,1,904.966,363.449Z" fill="#00008b"/><path d="M894.014,430.368a118.181,118.181,0,0,0-26.5-10.255.328.328,0,0,0-.188-.094A91.822,91.822,0,0,0,851.6,417.1c-.113,0-.207,0-.207-.132-2.941-.358-5.957-.565-8.917-.716-3.11-.113-6.163-.113-9.274,0a122.259,122.259,0,0,0-19.322,2.187,2.243,2.243,0,0,1-1.507-.151,2.717,2.717,0,0,1-.736-.565c-1-1.15-.9-3.224,1.056-3.6,1.319-.283,2.658-.528,3.977-.754s2.658-.434,3.978-.6c2.413-.321,4.807-.566,7.219-.735.943-.076,1.867-.132,2.79-.17,1.112-.057,2.225-.094,3.337-.132h.019c3.072-.094,6.07-.094,9.1.113h.019a17.231,17.231,0,0,1,2,.076c4.185.282,8.295.716,12.348,1.394.094,0,.094.076.094.076A121.558,121.558,0,0,1,896.3,426.466C898.9,427.823,896.6,431.8,894.014,430.368Z" fill="#00008b"/><path d="M732.126,275.115a15.638,15.638,0,0,1-.3,3.035l-.9.848c-.566-.546-1.15-1.074-1.734-1.583-.6-.509-1.206-1-1.829-1.451-.622-.491-1.244-.943-1.885-1.358-.66-.433-1.3-.848-1.979-1.244s-1.357-.754-2.055-1.093a21.266,21.266,0,0,0-2.111-.962c-.358-.15-.716-.282-1.093-.414-.716-.264-1.471-.509-2.225-.717-.377-.113-.753-.207-1.131-.3a36,36,0,0,0-18.341-.245h-.019l-.207-.622-.076-.208-.094-.282a15.712,15.712,0,0,1,3.921-6.183c.283-.264.565-.528.867-.773a13.5,13.5,0,0,1,1.376-1.018c.245-.17.49-.321.754-.471.358-.208.716-.4,1.074-.585.491-.226.981-.452,1.471-.66a20.287,20.287,0,0,1,12.517-.622c.49.132.98.3,1.47.472a19.4,19.4,0,0,1,2.846,1.3,18.737,18.737,0,0,1,2.658,1.716c.453.339.886.716,1.32,1.112.3.245.6.547.886.829a3.776,3.776,0,0,0,.283.283c.32.358.641.716.942,1.093a19.015,19.015,0,0,1,1.546,2.432c.17.3.339.622.49.943.189.4.358.791.509,1.206a11.587,11.587,0,0,1,.528,1.621,6.832,6.832,0,0,1,.245,1.037,10.045,10.045,0,0,1,.188,1.319,1.653,1.653,0,0,1,.038.3Q732.126,274.465,732.126,275.115Z" fill="#00008b"/><path d="M469.425,432.31c-.057.132-.114.264-.17.377a1.762,1.762,0,0,1-.528.641.71.71,0,0,1-.245.169,1.087,1.087,0,0,1-.264.132,1.782,1.782,0,0,1-.433.095,2.01,2.01,0,0,1-.98-.095c-.792-.264-1.584-.528-2.395-.773h-.018c-.792-.245-1.584-.49-2.394-.735h-.019a110.044,110.044,0,0,0-16.136-3.393h-.019c-.415-.075-.83-.113-1.244-.151-2.6-.358-5.2-.584-7.861-.754H436.7a118.431,118.431,0,0,0-59.134,11.669c-2.677,1.3-4.976-2.677-2.281-3.921a121.954,121.954,0,0,1,60.869-12.347c2.62.151,5.277.377,7.841.7.434.038.867.1,1.3.151a113.677,113.677,0,0,1,15.288,3.016c1.187.3,2.356.622,3.525.98q1.017.284,2.036.622a3.606,3.606,0,0,1,.471.151c.056.019.132.038.189.057.395.113.791.245,1.187.377a2.27,2.27,0,0,1,.377.169,2.524,2.524,0,0,1,.6.453A2.364,2.364,0,0,1,469.425,432.31Z" fill="#00008b"/><path d="M478.944,470.03a72.463,72.463,0,0,0-20.132-1.64h-.019c-.433.037-.83.075-1.263.132-2.7.282-5.41.716-8.106,1.263h-.018a68.985,68.985,0,0,0-43.771,29.633c-1.584,2.375-5.5.056-3.884-2.3a73.646,73.646,0,0,1,45.656-31.556,50.469,50.469,0,0,1,7.9-1.357c.4-.075.81-.094,1.187-.132a73.642,73.642,0,0,1,23.639,1.583,1.4,1.4,0,0,1,.264.076h.019a1.735,1.735,0,0,1,.452.245.335.335,0,0,1,.132.094.714.714,0,0,1,.188.151.981.981,0,0,1,.189.207,2.145,2.145,0,0,1,.377.962v.018A2.314,2.314,0,0,1,478.944,470.03Z" fill="#00008b"/><path d="M890.693,708.256c-.114,21.237-2.034,42.977-7.7,63.321C870.6,793.8,856.564,815.468,838.3,833.252a232.252,232.252,0,0,1-29.4,24.186c-20.025,9.555-41.81,16-62.75,21.237-34.06,8.549-68.921,13.784-103.828,17.762q-52.359,5.864-105.154,7.977a1589.169,1589.169,0,0,1-247-9.464,3.455,3.455,0,0,1-1.28-.365H288.8a2.979,2.979,0,0,1-.732-.434c-.023,0-.045-.024-.068-.046a2.9,2.9,0,0,1-.617-.572,2.782,2.782,0,0,1-.366-.5,4.171,4.171,0,0,1-.3-.549c0-.006-.006-.016-.01-.022-.062-.123-.142-.242-.2-.367h.046a23.711,23.711,0,0,0,3.154,0c1.28.618,3,.207,4.412-.48a1.554,1.554,0,0,0,.594-.571c.549-.457,2.012-1.645,3.978-2.994.252-.183.5-.343.777-.527,1.623-1.073,3.246-2.079,4.869-2.948a12.806,12.806,0,0,1-1.9,3.269c7.269.822,14.47,1.577,21.739,2.263a1566.088,1566.088,0,0,0,232.254,4.915c67.367-3.59,136.106-9.739,201.255-28.117,32.255-9.144,66.567-21.945,89.93-46.909,12.481-13.372,21.716-31.157,27.157-49.536,5.281-17.785,7.178-36.279,7.5-54.772a383.064,383.064,0,0,0-2.766-55.365c-8.207-61.995-36.85-119.327-76.442-167.1-1.532-1.829-3.041-3.635-4.618-5.44-.046.046-.091.068-.137.114-2.446,1.92-5.007,3.771-7.612,5.509-.023-.183-.046-.389-.046-.389a2.509,2.509,0,0,1-.046-.389,1.94,1.94,0,0,0,1.212-.48,63.106,63.106,0,0,1,6.263-4.777c1.326-.892,2.675-1.737,4.024-2.56.022.023.045-.023.045-.023l3.292-1.851c1.417,1.6,2.812,3.2,4.183,4.846,1.715,2.057,3.384,4.091,5.029,6.149,25.923,32.506,46.474,69.15,59.618,108.286a319.74,319.74,0,0,1,9.738,35.66,287,287,0,0,1,4.732,29.672q1.235,10.87,1.669,21.877C890.625,695.661,890.762,701.924,890.693,708.256Z" fill="#9630ee" opacity="0.84"/><path d="M890.7,708.244c-.113,21.263-2.036,42.979-7.71,63.338-6.126,22.092-16.626,42.564-33.912,58.945-11.725,11.16-25.448,19.887-40.151,26.919a264.894,264.894,0,0,1-31.047,12.234q-5.938,1.95-11.914,3.675c-1.338.4-2.658.773-3.977,1.132-2.658.735-5.3,1.47-7.936,2.167s-5.279,1.358-7.9,2.017q-6.39,1.612-12.818,3.054-6.418,1.47-12.875,2.771-9.671,1.98-19.416,3.676-12.978,2.262-26.032,4.109c-10.877,1.546-21.773,2.9-32.687,4.148q-52.367,5.88-105.149,7.992a1576.088,1576.088,0,0,1-201.022-4.807q-23.045-2.007-45.995-4.675a3.475,3.475,0,0,1-.641-.113,3.559,3.559,0,0,1-.622-.245H288.8a2.509,2.509,0,0,1-.716-.433c-.038,0-.057,0-.076-.038a2.15,2.15,0,0,1-.32-.264l-.3-.3a3.039,3.039,0,0,1-.358-.509.713.713,0,0,1-.17-.282c-.056-.076-.094-.17-.15-.264v-.038a.059.059,0,0,1-.019-.038c-.038-.056-.038-.113-.076-.15a.372.372,0,0,0-.056-.151v-.019a4.571,4.571,0,0,1,.226-4.147,3.316,3.316,0,0,1,3.374-1.452c.66.1,1.3.151,1.942.189,2.45.32,4.92.584,7.37.829,1,.132,1.98.245,2.96.34h.018q5.458.621,10.877,1.168c1.81.189,3.62.377,5.429.547,1.81.188,3.62.358,5.448.528q23.3,2.205,46.637,3.751c3.148.207,6.3.4,9.425.584q13.995.821,27.974,1.433c3.167.132,6.333.245,9.482.358,6.2.226,12.385.415,18.587.566h.15c6.2.151,12.385.264,18.587.339h.169q9.274.113,18.549.113,41.369,0,82.679-2.224c23.167-1.226,46.485-2.771,69.747-5q12.724-1.215,25.373-2.733c8.445-1.018,16.89-2.149,25.278-3.393h.019q6.3-.933,12.573-1.979c6.277-1.056,12.555-2.168,18.794-3.375q25-4.806,49.464-11.63c31.254-8.86,64.412-21.151,87.712-44.62.753-.735,1.507-1.508,2.243-2.3,1.545-1.659,3.053-3.393,4.5-5.2q2.629-3.252,5.033-6.767c1.056-1.546,2.092-3.13,3.092-4.732q2.8-4.553,5.24-9.369a137.811,137.811,0,0,0,5.825-13.214c.848-2.243,1.64-4.524,2.394-6.805.358-1.131.716-2.281,1.055-3.431,4.3-14.477,6.334-29.388,7.145-44.374.131-2.318.226-4.618.282-6.937.019-1.15.057-2.318.076-3.468a385.239,385.239,0,0,0-2.771-55.364c-6.145-46.5-23.809-90.37-48.955-129.56q-3.139-4.891-6.428-9.708-3.309-4.779-6.748-9.482-6.9-9.416-14.327-18.36c-.754-.924-1.508-1.829-2.281-2.734-.754-.9-1.546-1.809-2.318-2.714-.114-.113-.246-.283-.377-.4-.736-.905-1.546-1.753-2.319-2.658a7.1,7.1,0,0,0-.6-.678c.17-.1.32-.208.49-.3.094-.075.282-.245.3-.264.189-.094.339-.226.49-.3.34-.263.7-.49,1.037-.754.7-.414,1.357-.867,2.036-1.338.867-.622,1.753-1.282,2.545-1.979.056.056.094.075.151.132.9,1.018,1.828,2.111,2.733,3.129a7.189,7.189,0,0,0,.509.565c1.433,1.6,2.809,3.2,4.185,4.845,1.7,2.074,3.374,4.109,5.014,6.164,25.92,32.5,46.486,69.163,59.624,108.3q1.471,4.383,2.828,8.785c.886,2.959,1.753,5.919,2.564,8.878q2.46,8.907,4.354,17.984a290.108,290.108,0,0,1,4.732,29.67q1.243,10.887,1.658,21.867C890.621,695.67,890.772,701.929,890.7,708.244Z" fill="#00008b"/><path d="M561.132,796.408l-1.979,1.658c-1.621-1.885-9.745-1.413-14.157-1.244-1.659.132-3.261.208-4.6.227-10.179.169-20.491.829-30.406,1.526-11.216.754-22.809,1.49-34.346,1.49h-1.753c-15.74-.1-31.48-.076-47.22-.076H409.706c-8.652,0-17.72-.377-26.428-.735-12.234-.547-24.732-1.056-36.721-.6a60.076,60.076,0,0,1-5.448,33.422,2.912,2.912,0,0,1-3.864,1.527c-.113-.057-.264-.132-.4-.189-.075-.019-.132-.056-.207-.075,0-.038-.019-.038-.019-.057-.622-1.414-1.131-2.94-1.622-4.448a1.2,1.2,0,0,1,.132-.321,52.346,52.346,0,0,0,4.317-31.424c.057-.075.132-.188.189-.264a34.694,34.694,0,0,1,2.94-3.6c.792-.886,1.641-1.7,2.508-2.507l.037-.019c.207.773.377,1.564.566,2.375,12.423-.584,25.3,0,37.8.528,8.709.4,17.682.754,26.221.754h16.909c15.8,0,31.556-.019,47.353.075,11.875.132,23.959-.7,35.627-1.489,10.029-.679,20.4-1.376,30.727-1.508,1.262,0,2.771-.094,4.373-.188,4.5-.245,9.388-.491,13.252.32a37.441,37.441,0,0,1,3.167,4.826C561.132,796.389,561.132,796.408,561.132,796.408Z" fill="#9630ee"/><path d="M563.432,794.409l-2.3,2-1.979,1.658c-1.621-1.885-9.745-1.413-14.157-1.244-1.659.132-3.261.208-4.6.227-10.179.169-20.491.829-30.406,1.526-11.216.754-22.809,1.49-34.346,1.49h-1.753c-15.74-.1-31.48-.076-47.22-.076H409.706c-8.652,0-17.72-.377-26.428-.735-12.234-.547-24.732-1.056-36.721-.6-2.281.075-4.524.207-6.749.415l-.169-2.244-.283-3.43c1.056-.019,2.13-.1,3.223-.17,1.018-.057,2.055-.132,3.111-.151,12.423-.584,25.3,0,37.8.528,8.709.4,17.682.754,26.221.754h16.909c15.8,0,31.556-.019,47.353.075,11.875.132,23.959-.7,35.627-1.489,10.029-.679,20.4-1.376,30.727-1.508,1.262,0,2.771-.094,4.373-.188,4.5-.245,9.388-.491,13.252.32a16.275,16.275,0,0,1,1.583.415c.415.132.829.282,1.188.433a3.842,3.842,0,0,1,.546.283A7.482,7.482,0,0,1,563.432,794.409Z" fill="#00008b"/><path d="M810.091,385.862v.019c1.245-1.112,2.489-2.168,3.751-3.186C812.58,383.713,811.336,384.769,810.091,385.862ZM800.855,473.5v-.019c-.679.641-1.376,1.282-2.074,1.923C799.479,474.761,800.176,474.12,800.855,473.5Zm-74.912,38.87c-11.122,3.054-22.508,4.882-33.743,7.389q-12.668,2.828-25.146,6.24-2.178-.537-4.355-1.018h-.057c-1.432.339-2.884.679-4.279,1.056-2.036.509-4.015,1.112-5.937,1.753-2.922.923-5.731,1.979-8.427,3.11-.358.151-.7.3-1.055.452-.377.076-.735.189-1.094.283-3.2.547-6.5,1.188-9.8,1.659-2.432-1.131-11.706-2.79-19.039-4.053,3.619.679,7.993,1.659,13.007,3.054,1.075.207,2.205.433,3.3.679l.377.075c.547.113,1.074.226,1.621.339.434.076.848.17,1.263.283h.019c.019,0,.019,0,.019.019.679.132,1.395.283,2.073.471.491.094,1.037.207,1.527.321.829-.4,1.678-.849,2.526-1.226.188-.075.358-.169.528-.245.339-.151.641-.3.9-.414.66-.321,1.112-.528,1.169-.547,3.675-1.64,12.422,1.338,19.661-.811a16.908,16.908,0,0,0,5.146-2.582c2.526-.283,5.089-.6,7.71-.962h.018c29.012-4,63.659-13.195,98.325-33.459-3.639,1.941-7.314,3.826-11.066,5.542A232.852,232.852,0,0,1,725.943,512.368Zm24.3-78.72a68.286,68.286,0,0,0,7.069-2.186C755.01,432.291,752.654,433.026,750.241,433.648Zm0,0A76.653,76.653,0,0,1,731.371,436a78.675,78.675,0,0,1-9.236-.546,74.765,74.765,0,0,0,9.236.565A75.76,75.76,0,0,0,750.241,433.648ZM728.525,265.011a26.541,26.541,0,0,1,1.546,2.432A19.015,19.015,0,0,0,728.525,265.011Zm-31.989,4.619-.226-.622.207.622ZM622.51,443.7c-.264,0-.528.019-.811.019a20.179,20.179,0,0,1-7.86-1.64,19.866,19.866,0,0,0,7.86,1.659C621.982,443.733,622.246,443.714,622.51,443.7Zm-14.364,84.734c.245.037.584.094.98.15-.547-.094-1-.169-1.226-.188C607.976,528.41,608.051,528.41,608.146,528.429Zm-.848-.132.339.056c.056,0,.113.019.17.019a.147.147,0,0,0-.057-.019Zm-4.789-.6a.517.517,0,0,1,.17.019c-.32-.037-.679-.094-1.074-.151C601.925,527.6,602.227,527.656,602.509,527.693Zm.623-93.875c-1.245,1.508-2.526,2.959-3.865,4.354C600.624,436.777,601.906,435.326,603.132,433.818Zm-3.79,93.4c.264.038.529.076.755.113-.359-.056-.755-.113-1.169-.188A4.167,4.167,0,0,0,599.342,527.222Zm-5.73-.942c1.451.245,2.865.49,4.26.716.264.038.509.075.754.113-.245-.056-.509-.094-.773-.132C596.459,526.751,595.045,526.525,593.612,526.28Zm3.9-179.118c-.811-.773-1.64-1.546-2.488-2.281.848.754,1.677,1.508,2.488,2.3Zm-41.9-71.481a20.716,20.716,0,0,0-12.365-1.263,20.226,20.226,0,0,0-10.821,6.334,15.754,15.754,0,0,0-3.958,12.931l.867.829a36.9,36.9,0,0,1,34.854-7.521l.4-1.169A16.276,16.276,0,0,0,555.609,275.681ZM490.33,434.873a62.9,62.9,0,0,1-3.883-5.051A58.8,58.8,0,0,0,490.33,434.873Zm-14.515-51.518a62.014,62.014,0,0,0-.829,10.142,63.41,63.41,0,0,0,11.461,36.325,63.467,63.467,0,0,1-10.632-46.467Zm4.6,82.4a1.693,1.693,0,0,1,.452.226,1.735,1.735,0,0,0-.452-.245Zm-.019-.019h.019c-.509-.622-1-1.263-1.509-1.9C479.4,464.469,479.887,465.11,480.4,465.732ZM469.425,432.31a2.364,2.364,0,0,0-.453-2.413A2.454,2.454,0,0,1,469.425,432.31Zm-1.433-3.035c-.4-.132-.792-.264-1.187-.377.414.132.791.264,1.187.4a2.227,2.227,0,0,1,.377.15A2.27,2.27,0,0,0,467.992,429.275Zm.226-95.158c0-.207-.04-.408-.059-.612a7.152,7.152,0,0,1,.04,1.329C468.218,334.589,468.218,334.344,468.218,334.117Zm-.059-.612c-.015-.151-.018-.3-.043-.453C468.14,333.2,468.146,333.354,468.159,333.505Zm-.043-.453a6.95,6.95,0,0,0-.369-1.423A7.422,7.422,0,0,1,468.116,333.052Zm-3.706,99.8c.811.245,1.6.509,2.395.773a2.01,2.01,0,0,0,.98.095,2.281,2.281,0,0,1-.98-.114C465.994,433.365,465.2,433.1,464.41,432.856Z" fill="#bc85f2"/><path d="M637.647,616.442c4.091.565,8.181,1.206,12.271,1.885Q643.812,617.28,637.647,616.442Zm-37.041-3.506a5.272,5.272,0,0,0-.547-.019c-.547-.038-1.075-.057-1.622-.076-1.074-.056-2.167-.113-3.242-.151l-3.242-.113a170.169,170.169,0,0,1,9.8,45.713,2.39,2.39,0,0,1,.018.377.019.019,0,0,1,.019.019v.132a.7.7,0,0,1,.019.207c.019.132.019.3.038.471a4.643,4.643,0,0,1,.018.509v.019a11.4,11.4,0,0,1,.076,1.207v.037c.019.208.019.453.019.7.019.207.037.433.056.66,0,.282.019.565.038.867,0,.3.019.622.019.961,0,.3.019.6.019.942a3.922,3.922,0,0,0,.019.472,4.8,4.8,0,0,1,.018.509c.019.678.019,1.357.019,2.111.019.9.019,1.866.019,2.828q0,2.317-.056,4.92c-.057,1.734-.132,3.543-.227,5.447.019.019,0,.038,0,.057-.019.377-.037.792-.075,1.187-.056,1.075-.132,2.131-.226,3.2a105.538,105.538,0,0,0,5.523-16.117,108.585,108.585,0,0,0-.905-56.759C604.338,613.124,602.472,613.03,600.606,612.936Zm-.019-14.76a113.927,113.927,0,0,0-44.77-49.728H555.8q-4.213-2.546-8.653-4.732-29.152,2.008-58.21,4.9c-4.128.415-8.276.83-12.4,1.282q-5.514.565-11.027,1.188c.509.98,1,2,1.433,3.016a50.2,50.2,0,0,1,3.562,11.555c.038.189.057.359.095.547a1.556,1.556,0,0,1-.076.829c-.415,1.358-2.432,2.357-4.26,2.564-1.527.17-2.922-.207-3.111-1.376a47.744,47.744,0,0,0-1.394-5.938,53.126,53.126,0,0,0-13.479-22.319l-.188-.188a70.029,70.029,0,0,0-25.618-15.835c-4.939-1.791-10.556-3.581-15.872-2.639-4.43.773-7.729,4.034-9.633,8.012-4.279,8.954-.754,17.3,5.75,23.186a7.777,7.777,0,0,1,1.376.433c1.263.49,1.658,1.188,1.526,1.885v.019a33.872,33.872,0,0,0,10.029,4.882,28.711,28.711,0,0,0,6.126,1.169c1.49.113,2.828.9,2.112,2.526-.717,1.584-3.356,2.243-4.9,2.111a40.673,40.673,0,0,1-8.162-1.432,36.42,36.42,0,0,1-13.856-7.22h-.037a14.634,14.634,0,0,0-14.44,6.654c-4.486,6.73-3.977,16.08-.188,23,3.77,6.88,10.613,11.668,18.021,13.912a39.915,39.915,0,0,0,14.986,1.432,62.74,62.74,0,0,0,12.5-2.488,4.646,4.646,0,0,1,.981-.17c1.32-.132,3,.151,3.374,1.471.452,1.753-1.81,2.9-3.129,3.3-2.036.6-4.091,1.149-6.183,1.583a63.618,63.618,0,0,1-12.366,1.451,47.537,47.537,0,0,1-12.4-1.319,37.157,37.157,0,0,1-9.1-3.45,3.245,3.245,0,0,1-.34.264h-.018v.019a2.467,2.467,0,0,0-.151.358,4.284,4.284,0,0,0-.151,1.753,10.148,10.148,0,0,0,1.225,3.808,28.858,28.858,0,0,0,6.013,7.71,26.618,26.618,0,0,0,5.712,4.053c.622.358,1.244.66,1.848.942a25.632,25.632,0,0,0,6.051,1.885,30.811,30.811,0,0,0,3.336.4c1.47.076,3.016,1.226,2.187,2.809a3.4,3.4,0,0,1-.849,1.018,46.365,46.365,0,0,0,20.359,2.375c7.3-.848,14.138-3.6,20.717-6.767,1.809-.867,3.6-1.791,5.391-2.715,1.055-.546,2.111-1.112,3.167-1.677.113-.227.245-.453.358-.717,0-.019,0-.019.019-.056v-.019a18.971,18.971,0,0,0,1.338-13.46c-.207-.678-.433-1.357-.716-2.035a1.262,1.262,0,0,1-.057-.189,1.719,1.719,0,0,1-.037-.3c.056-.868,1.131-1.678,2.488-2.168,1.961-.717,4.486-.754,5.071.678a18.867,18.867,0,0,1,1.47,7.39v.038a21.244,21.244,0,0,1-.923,6.145l.452-.226a101.643,101.643,0,0,1,17.04-7.183c.34-.15.642-.282.981-.414a66.68,66.68,0,0,1,18.7-4.5c2.337-.283,4.675-.453,7.069-.641,15.174-1.15,27.144-1.791,35.439-2.149,8.822-.377,13.515-.434,13.515-.434,11.48-.132,21.321-.188,30.105-.113C597.419,598.138,599.022,598.138,600.587,598.176ZM476.06,564.169c.038-.075.057-.151.094-.226v-.038c.246-.452.472-.923.735-1.357-.245.452-.471.924-.7,1.395A1.394,1.394,0,0,1,476.06,564.169Zm86.2,179.306c2.074-.226,4.129-.433,6.183-.678-.942.113-1.885.207-2.827.3C564.507,743.23,563.376,743.343,562.263,743.475Zm-20.019,2.036c-.32.038-.641.057-.961.094-.9.076-1.791.17-2.7.246l-1.263.113H537.3l-4.863.452c-1.64.151-3.261.283-4.882.434-3.356.3-6.692.584-10.029.848-2.469.207-4.939.4-7.408.584-3.978.3-7.917.6-11.857.886q-12.894.9-25.92,1.565c-.49.019-1,.056-1.489.075-.81.057-1.658.1-2.469.132h-.019c-.094,0-.207.019-.3.019l-5.994.283-6.824.339a113.746,113.746,0,0,0,14.628,4,118.871,118.871,0,0,0,23.657,2.338,117.252,117.252,0,0,0,43.715-8.351c3.374-1.357,6.673-2.865,9.859-4.524-1.32.132-2.639.245-3.94.377C542.848,745.455,542.546,745.474,542.244,745.511Zm-115.723,7.05c1.131-.018,2.3-.056,3.45-.094-2.636.077-5.27.133-7.906.192C423.55,752.628,425.032,752.6,426.521,752.561Zm-8.2.189c1.248-.018,2.5-.063,3.744-.091-.807.017-1.62.033-2.424.053C419.207,752.731,418.755,752.75,418.321,752.75Zm-7.9.169c2.356-.037,4.693-.075,7.049-.15-.377.019-.753.019-1.13.019C414.362,752.844,412.383,752.882,410.423,752.919Z" fill="#bc85f2"/><path d="M836.011,787.133c-37.249,54.931-108.9,65.939-211.088,81.623-30.689,4.713-101.605,7.5-242.192,12.894-32.875,1.263-60.02,2.243-78.4,2.9a14.837,14.837,0,0,0,.829-2.979,5.442,5.442,0,0,0,.17-.961c.49-3.6.113-7.446.037-11.084-.056-4.449-7.012-4.487-6.936,0,.056,5,1.734,11.876-2.9,15.306a12.858,12.858,0,0,1-3.43,1.848c-.641-.038-1.282-.094-1.942-.189a3.316,3.316,0,0,0-3.374,1.452,65.847,65.847,0,0,1-12.366-.076c-6.635-.358-13.7.189-19.887-2.639a25.86,25.86,0,0,1-10.349-8.746c-10.651-15.024-10.576-36.759-9.407-54.327,1.188-18.531,4.072-39.266,13.686-55.459a39.754,39.754,0,0,1,10.4-11.631c.019,0,.019-.018.038-.018,13.836-10.293,33.1-9.671,49.237-.867.811.433,1.584.885,2.319,1.338.415.226.83.49,1.226.754a61.972,61.972,0,0,1,8.143,6.107c.527.453,1.074.981,1.583,1.471a.63.63,0,0,1,.17.151c.377.377.792.773,1.169,1.15.452.452.886.9,1.319,1.376a8.061,8.061,0,0,1,.773.867,1,1,0,0,1,.283.282c.565.623,1.112,1.3,1.678,1.942v.019c.7.848,1.395,1.734,2.035,2.639a58.98,58.98,0,0,1,5.825,9.727c.151.358.339.716.49,1.093a19.065,19.065,0,0,1,.792,1.791c.34.811.622,1.6.924,2.432a12.226,12.226,0,0,1,.546,1.6,24.865,24.865,0,0,1,.83,2.714c.283.943.509,1.867.7,2.771.132.6.246,1.207.358,1.791.076.283.1.6.151.886a52.346,52.346,0,0,1-4.317,31.424,1.2,1.2,0,0,0-.132.321,4.512,4.512,0,0,0-.207.659,3.553,3.553,0,0,0,.038,1.414,3.643,3.643,0,0,0,.207.679,1.164,1.164,0,0,0,.189.3,1.493,1.493,0,0,0,.207.34,3.076,3.076,0,0,0,.471.509,2.826,2.826,0,0,0,.585.471c.037.019.056.056.075.056a.148.148,0,0,0,.076.076c.075.019.132.056.207.075.132.057.283.132.4.189a2.912,2.912,0,0,0,3.864-1.527,60.076,60.076,0,0,0,5.448-33.422c11.989-.453,24.487.056,36.721.6,8.708.358,17.776.735,26.428.735h16.966c15.74,0,31.48-.019,47.22.076h1.753c11.537,0,23.13-.736,34.346-1.49,9.915-.7,20.227-1.357,30.406-1.526,1.338-.019,2.94-.1,4.6-.227,4.412-.169,12.536-.641,14.157,1.244l1.979-1.658,2.3-2a7.482,7.482,0,0,0-2.168-1.715,3.842,3.842,0,0,0-.546-.283c-.359-.151-.773-.3-1.188-.433a16.275,16.275,0,0,0-1.583-.415c-5.787-7.616-14.082-12.667-23.6-11.744-55.986,5.486-112.8,2.752-168.92,2.658a30.922,30.922,0,0,0-20.3,8.219l-.037.019c-.434-1.791-.943-3.525-1.546-5.26-.3-.848-.584-1.7-.886-2.525-.038-.095-.076-.151-.113-.227-.3-.791-.641-1.6-1-2.375-.359-.886-.773-1.753-1.188-2.6-.4-.773-.791-1.565-1.244-2.357-.433-.81-.886-1.6-1.358-2.412-1.036-1.7-2.148-3.394-3.317-5-.471-.641-.942-1.263-1.432-1.866-.566-.735-1.151-1.47-1.773-2.168-.584-.7-1.187-1.376-1.828-2.073-.66-.7-1.338-1.376-2.017-2.055-.565-.566-1.15-1.112-1.734-1.678-1.508-1.357-3.073-2.677-4.732-3.939a67.4,67.4,0,0,0-14.232-8.351,22.628,22.628,0,0,1,9.2-12.856,42.985,42.985,0,0,1,18.266-7.182c.019-.019.019,0,.019,0a54.045,54.045,0,0,1,18.568.056c15.438,2.922,23.318,18.191,23.431,45.241l5.636-.056a106.728,106.728,0,0,0-1.47-17.852h.83c3.43,0,6.861,0,10.31-.037h.378c2.488-.019,4.957-.038,7.446-.076.471,0,.923,0,1.4-.019.923-.018,1.847-.018,2.771-.037,2.148-.019,4.279-.057,6.427-.1h.529c2.356-.037,4.693-.075,7.049-.15.283,0,.566,0,.849-.019,3.883-.057,7.766-.17,11.65-.283l3.449-.113,2.3-.057c1.357-.037,2.7-.094,4.053-.132l4.543-.169c3.638-.113,7.257-.264,10.9-.415h.038a113.746,113.746,0,0,0,14.628,4,118.871,118.871,0,0,0,23.657,2.338,117.252,117.252,0,0,0,43.715-8.351c3.374-1.357,6.673-2.865,9.859-4.524h.094c2.394-.245,4.788-.49,7.2-.735.245-.019.509-.057.754-.076,2.356-.245,4.731-.49,7.106-.754,2.074-.226,4.129-.433,6.183-.678,1.3-.151,2.62-.283,3.921-.434,1.829-.207,3.639-.414,5.467-.622,3.374-.4,6.767-.792,10.142-1.206l1.658-.189.66-1.81a198.425,198.425,0,0,0,11.292-52.4,105.538,105.538,0,0,0,5.523-16.117,108.585,108.585,0,0,0-.905-56.759,5.693,5.693,0,0,1,.585.038c2.054.132,4.128.282,6.182.452l2.112.17c1.432.113,2.865.245,4.3.377.622.056,1.244.113,1.866.188.3.038.622.076.923.113.491.038,1,.095,1.49.132.339.038.659.076.98.1.566.056,1.131.131,1.7.207q5.655.622,11.311,1.414c4.091.565,8.181,1.206,12.271,1.885a417.578,417.578,0,0,1,51.217,12.14,5.453,5.453,0,0,0,5.278-1.414,1.991,1.991,0,0,0,.114-2.79c.283.094.565.207.848.3a106.772,106.772,0,0,0-43.809-23.186,101.272,101.272,0,0,0-15.457-2.563c-15.062-1.565-28.917-2.394-47.522-2.639a113.927,113.927,0,0,0-44.77-49.728H555.8q-4.213-2.546-8.653-4.732,64.27-4.467,128.787-4.637,29.916-.112,59.813.735c1.546.057,4.166-.509,4.92-2.111.7-1.546-.622-2.413-2.111-2.469q-36.873-1.019-73.762-.641c7.483-1.81,15.174-3.412,22.978-4.826,1.207-.226,2.413-.434,3.6-.641h.037c34.779-6.522,70.822-16.362,99.286-35.741,4.222,26.316,21.621,50.218,21.621,50.218C820.516,558.137,896.766,697.518,836.011,787.133Z" fill="#bc85f2"/><path d="M341.109,832.073a2.912,2.912,0,0,1-3.864,1.527c-.113-.057-.264-.132-.4-.189-.075-.019-.132-.056-.207-.075a.148.148,0,0,1-.076-.076c-.019,0-.038-.037-.075-.056a2.826,2.826,0,0,1-.585-.471,3.076,3.076,0,0,1-.471-.509,1.493,1.493,0,0,1-.207-.34,1.164,1.164,0,0,1-.189-.3,3.643,3.643,0,0,1-.207-.679,3.553,3.553,0,0,1-.038-1.414,4.512,4.512,0,0,1,.207-.659,1.2,1.2,0,0,1,.132-.321,52.346,52.346,0,0,0,4.317-31.424c-.056-.282-.075-.6-.151-.886-.112-.584-.226-1.187-.358-1.791-.188-.9-.414-1.828-.7-2.771a24.865,24.865,0,0,0-.83-2.714,12.226,12.226,0,0,0-.546-1.6c-.3-.83-.584-1.621-.924-2.432a19.065,19.065,0,0,0-.792-1.791c-.151-.377-.339-.735-.49-1.093a58.98,58.98,0,0,0-5.825-9.727c-.64-.9-1.338-1.791-2.035-2.639v-.019c-.566-.641-1.113-1.319-1.678-1.942a1,1,0,0,0-.283-.282,8.061,8.061,0,0,0-.773-.867c-.433-.472-.867-.924-1.319-1.376-.377-.377-.792-.773-1.169-1.15a.63.63,0,0,0-.17-.151c-.509-.49-1.056-1.018-1.583-1.471a61.972,61.972,0,0,0-8.143-6.107c-.4-.264-.811-.528-1.226-.754-.735-.453-1.508-.9-2.319-1.338-16.135-8.8-35.4-9.426-49.237.867-.019,0-.019.018-.038.018a39.754,39.754,0,0,0-10.4,11.631c-9.614,16.193-12.5,36.928-13.686,55.459-1.169,17.568-1.244,39.3,9.407,54.327a25.86,25.86,0,0,0,10.349,8.746c6.183,2.828,13.252,2.281,19.887,2.639a65.847,65.847,0,0,0,12.366.076,18.607,18.607,0,0,0,5.316-1.263,12.858,12.858,0,0,0,3.43-1.848c4.638-3.43,2.96-10.311,2.9-15.306-.076-4.487,6.88-4.449,6.936,0,.076,3.638.453,7.483-.037,11.084a5.442,5.442,0,0,1-.17.961,14.837,14.837,0,0,1-.829,2.979v.037a12.425,12.425,0,0,1-1.3,2.47c-.169.264-.377.528-.565.773h-.02v.019h-.018a6.608,6.608,0,0,1-.83,1.036c-3.3,3.412-7.936,5-12.705,5.693H288.8a55.435,55.435,0,0,1-9.576.49c-8.351-.169-17.889.245-25.806-2.771a32.694,32.694,0,0,1-14.195-10.839c-13.214-17.4-12.875-43.488-11.046-64.205,1.922-22,5.975-48.54,22.432-64.676,13.949-13.591,33.459-14.722,50.783-8.8,1.753.565,3.544,1.32,5.3,2.055a67.4,67.4,0,0,1,14.232,8.351c1.659,1.262,3.224,2.582,4.732,3.939.584.566,1.169,1.112,1.734,1.678.679.679,1.357,1.357,2.017,2.055.641.7,1.244,1.376,1.828,2.073.622.7,1.207,1.433,1.773,2.168.49.6.961,1.225,1.432,1.866,1.169,1.6,2.281,3.3,3.317,5,.472.81.925,1.6,1.358,2.412.453.792.848,1.584,1.244,2.357.415.848.829,1.715,1.188,2.6.358.773.7,1.584,1,2.375.037.076.075.132.113.227.3.829.584,1.677.886,2.525.6,1.735,1.112,3.469,1.546,5.26.207.773.4,1.583.6,2.356a52,52,0,0,1,.867,5.58A60.076,60.076,0,0,1,341.109,832.073Z" fill="#00008b"/><path d="M254.6,757.3a29.359,29.359,0,0,1,11.807,2.625,36.921,36.921,0,0,1,10.567,7.18,42.371,42.371,0,0,1,11.908,24.147,52.839,52.839,0,0,1-.117,16.154c-.525,3.374,7.055,2.233,7.518-.741,1.567-10.055.605-20.724-3.671-30.028a41.761,41.761,0,0,0-19.5-20.294,38.125,38.125,0,0,0-15.774-3.912c-1.727-.036-4,.511-4.893,2.17-.829,1.54.716,2.669,2.159,2.7Z" fill="#00008b"/><path d="M332.047,728.422c15,5.558,21.389,22,22.159,36.974.094,1.836,1.729,2.811,3.5,2.643,1.449-.138,4.181-1.222,4.083-3.128-.46-8.942-2.328-17.764-6.8-25.607a36.469,36.469,0,0,0-18.7-16.138,4.895,4.895,0,0,0-5.279,1.414,2.366,2.366,0,0,0,1.029,3.842Z" fill="#00008b"/><path d="M337.161,724.126a29.21,29.21,0,0,0-7.663-1.712,7.963,7.963,0,0,0-2.765.241,6.738,6.738,0,0,0-2.515,1.174c-.36.31-1,.864-.791,1.419a1.583,1.583,0,0,0,1.395.834,26.518,26.518,0,0,1,4.125.666l-.67-.166a27.585,27.585,0,0,1,2.868.879,5.183,5.183,0,0,0,2.428.135,8.029,8.029,0,0,0,2.833-.932l.689-.451a2.186,2.186,0,0,0,.771-.96.947.947,0,0,0-.7-1.127Z" fill="#00008b"/><path d="M429.037,603.975a67.869,67.869,0,0,1-18.551,3.04c1.546-1.8,3.144-3.53,4.818-5.153a62.409,62.409,0,0,0,12.5-2.474c1.289-.386,3.891-.386,4.355,1.289C432.618,602.429,430.351,603.588,429.037,603.975Z"/><path d="M514.471,240.618a7.573,7.573,0,0,1-1.3,1.669c-4.068,3.771-9.669,6.057-14.081,9.372a68.894,68.894,0,0,0-16.459,17.4,73.867,73.867,0,0,0-8.366,19.226c-.641,2.1-1.1,4.319-1.852,6.446a39.869,39.869,0,0,1-3.589-6.538,132.15,132.15,0,0,1-7.087-21.42,173.552,173.552,0,0,1-4.594-25.214c-.732-6.9-1.372-14.447.2-21.351.412-2.125,1.281-4.526,2.081-5.326a1.543,1.543,0,0,1,.868-.548c.16,0,.435.091.618.091.914.365,1.943.731,2.788,1.1,4.138,1.646,8.047,3.658,12.116,5.624,11.247,5.235,22.631,10.1,33.489,16.069a39.1,39.1,0,0,1,3.772,2.218,9.063,9.063,0,0,1,1.28,1.121S514.471,240.55,514.471,240.618Z" fill="#9630ee"/><path d="M779.939,240.8c0,4.686,0,9.509-1.189,13.9-.48-.823-1.006-1.668-1.486-2.468-6.446-10.493-13.99-19.8-24.094-27.043-1.486-1.1-3.017-2.126-4.595-3.064-2.126-1.257-4.32-2.468-6.538-3.565-2.925-1.463-6.08-2.881-9.189-4.138-2.492-1.029-8.207-2.309-9.03-5.167a1.086,1.086,0,0,0,.183-.183c.206-.091,1.555-1.462,2.309-2.033,3.132-2.561,6.538-4.778,9.761-7.179,9.464-6.971,17.991-14.858,26.494-23.065a24.39,24.39,0,0,1,1.829-1.646,2.855,2.855,0,0,0,.823.343c.755.754,1.463,1.485,1.852,1.966,3.5,4.846,5.326,11.018,6.789,16.687.64,2.241,1.189,4.527,1.737,6.835.48,2.218.938,4.436,1.326,6.63A178.346,178.346,0,0,1,779.939,240.8Z" fill="#9630ee"/><path d="M468.218,334.117c0,.227,0,.472-.019.717a5.465,5.465,0,0,1-.075.565c-.038.17-.075.358-.113.528a7.6,7.6,0,0,1-.49,1.433c-10.387,22.884-10.387,51.047-9.029,75.59.037.6.075,1.207.112,1.791.1,1.207.208,2.394.359,3.582.075.584.169,1.187.245,1.772.188,1.168.377,2.337.622,3.506.113.584.226,1.169.358,1.753s.264,1.15.4,1.734a113.677,113.677,0,0,0-15.288-3.016v-.019c-2.884-27.672,2.545-56.287,11.744-82.339,1.187-3.393,2.469-6.805,3.864-10.123a3.21,3.21,0,0,0,.264-.509,3.444,3.444,0,0,0-.7-4.166,1.858,1.858,0,0,0,.113-.433,3.586,3.586,0,0,0,.056-.415,8.956,8.956,0,0,1,4.675,2.112c.208.188.415.376.6.584a6.043,6.043,0,0,1,.565.641c.17.226.339.452.49.7a4.6,4.6,0,0,1,.415.735,5.427,5.427,0,0,1,.339.754c.019.019.019.019.019.038a6.95,6.95,0,0,1,.369,1.423c.025.149.028.3.043.453C468.178,333.709,468.218,333.91,468.218,334.117Z" fill="#9630ee"/><path d="M480.415,465.732H480.4a1.4,1.4,0,0,0-.264-.076,73.642,73.642,0,0,0-23.639-1.583,98.45,98.45,0,0,1-7.54-19.793c-.339-1.282-.66-2.564-.961-3.864-.246-1.056-.471-2.093-.7-3.148-.019-.076-.019-.132-.038-.208-.15-.81-.32-1.64-.471-2.45q-.225-1.3-.452-2.6l-.057-.283a.36.36,0,0,0-.019-.15,1.745,1.745,0,0,1-.038-.3q-.225-1.272-.395-2.545h.019a110.044,110.044,0,0,1,16.136,3.393c.7,2.281,1.508,4.524,2.394,6.749.791,1.941,1.64,3.864,2.564,5.768.263.565.546,1.112.829,1.678.622,1.225,1.263,2.431,1.941,3.619.453.811.924,1.621,1.4,2.432,1.319,2.224,2.733,4.411,4.222,6.56.471.678.943,1.357,1.433,2.017q1.074,1.47,2.148,2.884C479.415,464.469,479.906,465.11,480.415,465.732Z" fill="#9630ee"/><path d="M632.651,533.82c-.094,1.546-22.79,2.469-46.372,0a254.249,254.249,0,0,1-41.415-7.842h-.037c-.076-.019-.132-.038-.189-.057a1.281,1.281,0,0,1-.245-.037c-.075-.019-.151-.019-.245-.038-.151-.038-.3-.057-.453-.094a170.154,170.154,0,0,1-24.656-7.107c-.528-.188-1.074-.4-1.6-.6-.528-.189-1.055-.415-1.583-.622-.3-.113-.585-.226-.868-.339-1.036-.434-2.073-.867-3.091-1.32-1.037-.452-2.055-.9-3.073-1.395-.283-.132-.546-.264-.829-.4-1.018-.49-2.017-.98-3-1.489-1.263-.641-2.508-1.32-3.733-2.017-.961-.528-1.922-1.093-2.884-1.659-2.884-1.715-5.674-3.563-8.37-5.5-.867-.622-1.7-1.244-2.544-1.9-.849-.641-1.678-1.3-2.489-1.961-.735-.584-1.451-1.168-2.149-1.771-.848-.717-1.677-1.452-2.488-2.187-1.225-1.112-2.432-2.262-3.6-3.412-1.169-1.169-2.319-2.356-3.431-3.563-1.112-1.225-2.2-2.469-3.261-3.732-2.112-2.526-4.128-5.165-6-7.9s-3.619-5.56-5.24-8.482a72.463,72.463,0,0,1,20.132,1.64,2.314,2.314,0,0,0,2.809-2.621,138.886,138.886,0,0,0,10.085,10.971,206.359,206.359,0,0,0,29.878,24.336c1.018.679,2.036,1.32,3.073,1.942.7.415,1.376.83,2.073,1.206a3.707,3.707,0,0,0,.471.264c.679.4,1.377.754,2.055,1.113,1.772.923,3.582,1.79,5.411,2.6.527.245,1.074.471,1.62.7.962.415,1.942.83,2.922,1.207.773.3,1.527.6,2.3.886,3.864,1.451,7.785,2.752,11.782,4,1.6.509,3.2,1,4.825,1.489,1,.3,2,.585,2.979.867,4.373,1.282,8.5,2.357,12.384,3.28q.99.255,1.923.453c.641.151,1.282.3,1.9.433,3.337.754,6.5,1.395,9.539,1.961,2.28.433,4.486.81,6.635,1.169,1.433.245,2.847.471,4.241.7.264.038.528.076.773.132a1.466,1.466,0,0,1,.3.038c.414.075.81.132,1.169.188.546.076,1.055.151,1.508.226.395.057.754.114,1.074.151.547.076,1.037.132,1.47.189.7.094,1.282.169,1.866.226.416.057.83.113,1.283.17l.452.056a.147.147,0,0,1,.057.019.2.2,0,0,1,.093.019c.227.019.679.094,1.226.188.188.038.4.057.622.1.207.037.433.075.66.113.829.151,1.7.282,2.6.452,7.333,1.263,16.607,2.922,19.039,4.053a1.405,1.405,0,0,1,.547.377c.019,0,.019,0,.019.019A.346.346,0,0,1,632.651,533.82Z" fill="#9630ee"/><path d="M882.289,715.69c-.019,1.15-.057,2.318-.076,3.468-.075,2.319-.169,4.619-.282,6.937-.811,14.986-2.847,29.9-7.145,44.374-.339,1.15-.7,2.3-1.055,3.431-.754,2.281-1.546,4.562-2.394,6.805a137.811,137.811,0,0,1-5.825,13.214q-2.431,4.808-5.24,9.369c-1,1.6-2.036,3.186-3.092,4.732q-2.4,3.505-5.033,6.767c-1.452,1.81-2.96,3.544-4.5,5.2-.736.791-1.49,1.564-2.243,2.3-23.3,23.469-56.458,35.76-87.712,44.62q-24.431,6.87-49.464,11.63c-6.239,1.207-12.517,2.319-18.794,3.375q-6.277,1.017-12.573,1.979h-.019c-8.388,1.244-16.833,2.375-25.278,3.393s-16.89,1.923-25.373,2.733c-23.262,2.225-46.58,3.77-69.747,5q-41.311,2.234-82.679,2.224-9.274,0-18.549-.113h-.169c-6.2-.075-12.385-.188-18.587-.339h-.15c-6.2-.151-12.385-.34-18.587-.566-3.149-.113-6.315-.226-9.482-.358q-14-.594-27.974-1.433c-3.13-.188-6.277-.377-9.425-.584q-23.328-1.556-46.637-3.751c-1.828-.17-3.638-.34-5.448-.528-1.809-.17-3.619-.358-5.429-.547q-5.428-.537-10.877-1.168v-.019h.02c.188-.245.4-.509.565-.773a12.425,12.425,0,0,0,1.3-2.47v-.037c18.379-.66,45.524-1.64,78.4-2.9,140.587-5.391,211.5-8.181,242.192-12.894,102.189-15.684,173.839-26.692,211.088-81.623,60.755-89.615-15.5-229-23.7-243.53,0,0-17.4-23.9-21.621-50.218,0,0,.019,0,.019-.018q1.952-1.274,3.845-2.658c1.283-.924,2.545-1.866,3.77-2.828a.7.7,0,0,0,.133-.113c.772.905,1.564,1.81,2.318,2.714.773.9,1.527,1.81,2.281,2.734q7.437,8.962,14.327,18.36,3.449,4.694,6.748,9.482,3.281,4.808,6.428,9.708c25.146,39.19,42.81,83.055,48.955,129.56A385.239,385.239,0,0,1,882.289,715.69Z" fill="#9630ee"/><path d="M557.947,791.563c-3.864-.811-8.747-.565-13.252-.32-1.6.094-3.111.188-4.373.188-10.33.132-20.7.829-30.727,1.508-11.668.792-23.752,1.621-35.627,1.489-15.8-.094-31.556-.075-47.353-.075H409.706c-8.539,0-17.512-.358-26.221-.754-12.5-.528-25.372-1.112-37.8-.528-.189-.811-.359-1.6-.566-2.375a30.922,30.922,0,0,1,20.3-8.219c56.118.094,112.934,2.828,168.92-2.658C543.865,778.9,552.16,783.947,557.947,791.563Z" fill="#9630ee"/><path d="M707.375,626.564c-.283-.094-.565-.207-.848-.3-2.338-.83-4.675-1.6-6.9-2.338,0,0,0-.037-.037,0a272.554,272.554,0,0,0-28.3-7.653c-10.631-2.281-19.416-3.506-27.428-4.468a1.017,1.017,0,0,1-.282-.056c-1.961-.207-3.9-.434-5.769-.641-1.734.038-4.43.057-7.728,0a200.678,200.678,0,0,1-25.2-2.092c-1.433-.208-2.489-.377-3.149-.472-10.688-1.7-22.074-1.413-38.737-.565-2.809.151-5.787.32-8.936.49a1.706,1.706,0,0,1-.32.019l-.961.056c-13.573.754-26.523,2.13-38.531,3.865-1.074.169-2.13.32-3.167.471-3.619.547-7.163,1.131-10.594,1.734-.075,0-.169,0-.207.038-4.2.716-8.219,1.451-12.121,2.224-2.6.528-5.146,1.056-7.6,1.6q-5.628,1.215-10.689,2.431c-.113.019-.207.057-.32.076-.226.037-.434.094-.66.15-.4.1-.754.17-1.131.283l.226-.226a5.058,5.058,0,0,0,.433-.452c.547-.491,1.113-1.056,1.735-1.584.377-.339.773-.7,1.187-1.055,1.49-1.3,3.168-2.658,5.015-4a66.26,66.26,0,0,1,13.609-7.729c.34-.15.642-.282.981-.414a66.68,66.68,0,0,1,18.7-4.5c2.337-.283,4.675-.453,7.069-.641,15.174-1.15,27.144-1.791,35.439-2.149,8.822-.377,13.515-.434,13.515-.434,11.48-.132,21.321-.188,30.105-.113,1.639.019,3.242.019,4.807.057,18.605.245,32.46,1.074,47.522,2.639a101.272,101.272,0,0,1,15.457,2.563A106.772,106.772,0,0,1,707.375,626.564Z" fill="#9630ee"/><path d="M414.686,626.236a3.307,3.307,0,0,1-.85,1.03.592.592,0,0,1-.258.181,6.052,6.052,0,0,1-3.787,1,29.1,29.1,0,0,1-4.741-.644c-.7-.129-1.391-.309-2.087-.489-.18-.052-.335-.1-.515-.155a37.3,37.3,0,0,1-4.019-1.469,28.7,28.7,0,0,1-4.149-2.138,33.323,33.323,0,0,1-6.415-5c-4.664-4.638-11.208-14.609-3.607-19.3a6.419,6.419,0,0,1,.721-.412c1.34-.7,3.942-.98,5.024.386.9,1.16-.025,2.293-1.03,3.015-.129.1-.232.18-.335.257h-.026v.026a3.912,3.912,0,0,0-.155.361,4.547,4.547,0,0,0-.154,1.752,10.683,10.683,0,0,0,1.237,3.813,29.018,29.018,0,0,0,6,7.7,27.04,27.04,0,0,0,5.72,4.046c.618.36,1.236.67,1.855.953a25.921,25.921,0,0,0,9.378,2.267C413.965,623.505,415.51,624.664,414.686,626.236Z" fill="#00008b"/><path d="M537.343,739.14c.019,2.318.019,4.6-.038,6.824.019.433,0,.848-.019,1.263,0,.791-.018,1.564-.037,2.337a117.252,117.252,0,0,1-43.715,8.351,118.871,118.871,0,0,1-23.657-2.338c-.358-.886-.716-1.809-1.075-2.733-.244-.622-.489-1.244-.735-1.885-.81-2.13-1.621-4.373-2.413-6.711-1.357-4-2.695-8.256-3.921-12.762a1.068,1.068,0,0,0-.037-.132,201.564,201.564,0,0,1-6.409-70.877,205.771,205.771,0,0,1,5.278-31.179c.283-1.112.566-2.206.886-3.3a3.878,3.878,0,0,1,.113-.452c.057-.17.094-.359.151-.528a3.278,3.278,0,0,1,.49-.773,4.061,4.061,0,0,1,1.64-1.075,3.978,3.978,0,0,1,.565-.188c.133-.019.264-.076.4-.094.848-.227,1.716-.472,2.564-.7.339-.075.641-.188.98-.264l1.075-.283c4-1.074,8.03-2.073,12.064-3.035,2.168-.508,4.336-1,6.522-1.47q6.108-1.357,12.272-2.488c.038-.038.132-.038.207-.038,3.488-.66,6.994-1.319,10.538-1.885.019.057.038.094.056.151.641,1.527,1.263,3.054,1.9,4.618,2.639,6.466,5.165,13.252,7.522,20.265A325.453,325.453,0,0,1,537.343,739.14Z" fill="#eadcff" stroke="#00008b" stroke-miterlimit="10" stroke-width="2.576"/><path d="M600.064,612.915q-1.186-1.4-2.467-2.783c-5.675.207-11.516-.458-15.395-.519-9.359-.147-18.93-.548-28.5-1.161,1.7,1.414,3.408,2.871,5.113,4.411,1.468,1.314,2.937,2.68,4.4,4.071a175.142,175.142,0,0,1,40.606,58.126A105.05,105.05,0,0,0,601.017,614C600.708,613.637,600.4,613.276,600.064,612.915Z" fill="#eadcff" stroke="#00008b" stroke-miterlimit="10" stroke-width="2.576"/><path d="M395.184,624.73a36.68,36.68,0,0,1-9.894-8.47,104.7,104.7,0,0,0,2.266,72.017,146.407,146.407,0,0,1,19.349-51.53q1.12-1.854,2.319-3.71c.232-.36.489-.747.721-1.107.021-.032.043-.062.064-.094A70.157,70.157,0,0,1,395.184,624.73Z" fill="#eadcff" stroke="#00008b" stroke-miterlimit="10" stroke-width="2.576"/><path d="M469.877,755.577a113.746,113.746,0,0,1-14.628-4h-.038c-.018,0-.018,0-.018-.019a113.5,113.5,0,0,1-14.76-6.239,112.092,112.092,0,0,1-42.339-37.249,1.721,1.721,0,0,1-.264-.377,105.049,105.049,0,0,1-10.273-19.416A146.37,146.37,0,0,1,406.9,636.744c.753-1.226,1.527-2.47,2.318-3.714l.566-.848c.056-.076.112-.17.17-.245a44.042,44.042,0,0,0,7.238,1.7c1.149.17,2.337.34,3.506.434a26.426,26.426,0,0,0,2.978.226,67.853,67.853,0,0,0,13.422-.528c5.825-.848,11.857-2.45,16.966-5.542,0,0,0-.037.018-.037a23.829,23.829,0,0,0,3.356-2.338c.207-.17.415-.339.6-.509.17-.169.358-.339.528-.509a.068.068,0,0,0,.056-.019,4.115,4.115,0,0,0,.528-.132,20.328,20.328,0,0,0,2.884-.886c.019-.018.019-.018.038-.018a6.02,6.02,0,0,1-.189.622c-.056.207-.113.414-.169.622-.057.169-.094.358-.151.528a3.878,3.878,0,0,0-.113.452c-.32,1.093-.6,2.187-.886,3.3a205.771,205.771,0,0,0-5.278,31.179,201.564,201.564,0,0,0,6.409,70.877,1.068,1.068,0,0,1,.037.132c1.226,4.506,2.564,8.766,3.921,12.762.792,2.338,1.6,4.581,2.413,6.711.246.641.491,1.263.735,1.885C469.161,753.768,469.519,754.691,469.877,755.577Z" fill="#bc85f2" stroke="#00008b" stroke-miterlimit="10" stroke-width="2.576"/><path d="M603.829,675.067c-.566,2.224-1.206,4.43-1.942,6.616.019.019,0,.038,0,.057a105.249,105.249,0,0,1-7.483,17.38c-1.527,2.809-3.167,5.561-4.939,8.219-.019.019-.019.038-.038.056a112.505,112.505,0,0,1-42.282,37.626s-.019.038-.037.019c-3.186,1.659-6.485,3.167-9.859,4.524.019-.773.037-1.546.037-2.337.019-.415.038-.83.019-1.263.057-2.225.057-4.506.038-6.824A325.453,325.453,0,0,0,520.51,637.762c-2.357-7.013-4.883-13.8-7.522-20.265-.641-1.564-1.263-3.091-1.9-4.618-.018-.057-.037-.094-.056-.151,1.037-.169,2.092-.339,3.148-.49.792-.132,1.6-.245,2.413-.377,7.615-1.169,15.306-2.092,23-2.809,1.885-.188,3.77-.339,5.655-.49.886-.075,1.773-.151,2.677-.207.679-.057,1.376-.094,2.055-.151h.113c1.207.094,2.413.17,3.619.245l.038.038c1.678,1.395,3.393,2.846,5.071,4.373q2.205,1.98,4.411,4.072a177.437,177.437,0,0,1,32.969,42.508c2.243,4.053,4.242,8.03,5.976,11.876a.018.018,0,0,1,.019.018Q603.037,673.228,603.829,675.067Z" fill="#bc85f2" stroke="#00008b" stroke-miterlimit="10" stroke-width="2.576"/><path d="M463.15,568.213a52.581,52.581,0,0,0-15.073-28.444,70.064,70.064,0,0,0-25.61-15.82c-4.947-1.8-10.564-3.581-15.871-2.653-4.432.772-7.73,4.044-9.636,8.012-4.277,8.966-.747,17.314,5.745,23.189a25.618,25.618,0,0,0,2.912,2.318v.026a33.027,33.027,0,0,0,16.154,6.055c1.5.1,2.835.9,2.113,2.525-.721,1.572-3.349,2.241-4.9,2.113a38.6,38.6,0,0,1-22.029-8.658h-.026a29.233,29.233,0,0,1-4.612-5l-.232-.309c-5.616-7.987-5.848-18.706.284-26.487,7.626-9.661,20.56-10,31.433-6.6,15.716,4.895,30.531,14.712,39.291,28.47a43.907,43.907,0,0,1,2.4,4.122,51.642,51.642,0,0,1,5.1,15.125C471.111,569.244,463.614,571.073,463.15,568.213Z" fill="#00008b"/><path d="M429.037,603.975a67.869,67.869,0,0,1-18.551,3.04,48.149,48.149,0,0,1-12.418-1.314,38.14,38.14,0,0,1-9.095-3.452,37.409,37.409,0,0,1-4.715-2.989c-7.987-5.952-13.321-15.047-12.419-25.688.953-10.976,10.048-19.839,20.483-21.694a21.931,21.931,0,0,1,10.383.619,9.671,9.671,0,0,1,1.392.437c1.262.49,1.649,1.185,1.52,1.881v.026c-.412,1.727-3.916,3.53-5.926,2.757a12.978,12.978,0,0,0-2.731-.722h-.026a14.656,14.656,0,0,0-14.454,6.648c-4.483,6.725-3.968,16.077-.18,23.008,3.761,6.879,10.615,11.671,18.009,13.913a39.958,39.958,0,0,0,14.995,1.417,62.409,62.409,0,0,0,12.5-2.474c1.289-.386,3.891-.386,4.355,1.289C432.618,602.429,430.351,603.588,429.037,603.975Z" fill="#00008b"/><path d="M706.413,629.053a5.453,5.453,0,0,1-5.278,1.414,417.578,417.578,0,0,0-51.217-12.14c-4.09-.679-8.18-1.32-12.271-1.885q-5.655-.792-11.311-1.414c-.565-.076-1.13-.132-1.7-.207-.321-.019-.641-.057-.98-.1-.792-.094-1.6-.169-2.413-.245-.622-.075-1.244-.132-1.866-.188-1.433-.132-2.866-.264-4.3-.377-2.752-.245-5.523-.453-8.294-.622a5.693,5.693,0,0,0-.585-.038c-1.866-.132-3.732-.226-5.6-.32a5.272,5.272,0,0,0-.547-.019c-.547-.038-1.075-.057-1.622-.076-1.074-.056-2.167-.113-3.242-.151l-3.242-.113c-1.734-.075-3.488-.132-5.2-.15-6.352-.1-12.705-.076-19.039.094-2.959.075-5.938.188-8.9.339q-7.833.339-15.646,1c-9.048.773-18.116,1.829-27.107,3.186-1.018.132-2.055.3-3.073.452a419.6,419.6,0,0,0-47.3,10.312,4.155,4.155,0,0,1-2.959-.132,2.067,2.067,0,0,1-1.188-1.754,2.493,2.493,0,0,1,.019-.376c.057-.17.094-.359.151-.528a3.278,3.278,0,0,1,.49-.773,4.061,4.061,0,0,1,1.64-1.075,3.978,3.978,0,0,1,.565-.188c.133-.019.264-.076.4-.094.848-.227,1.716-.472,2.564-.7.339-.075.641-.188.98-.264l1.075-.283c4-1.074,8.03-2.073,12.064-3.035,2.168-.508,4.336-1,6.522-1.47q6.108-1.357,12.272-2.488c.038-.038.132-.038.207-.038,3.488-.66,6.994-1.319,10.538-1.885,1.037-.169,2.092-.339,3.148-.49.792-.132,1.6-.245,2.413-.377,7.615-1.169,15.306-2.092,23-2.809,1.885-.188,3.77-.339,5.655-.49.886-.075,1.773-.151,2.677-.207.735-.057,1.452-.113,2.168-.151,1.037-.075,2.055-.151,3.092-.207,3.091-.189,6.2-.358,9.312-.472,10.82-.471,21.678-.509,32.5-.132,1.131.038,2.3.1,3.449.132,2.018.076,4.035.189,6.033.283,13.082.735,26.145,2.036,39.115,3.94a1.017,1.017,0,0,0,.282.056,423.628,423.628,0,0,1,55.723,12.121h.037c1.942.566,3.9,1.131,5.863,1.716a2.289,2.289,0,0,1,1.037.622A1.991,1.991,0,0,1,706.413,629.053Z" fill="#00008b"/><path d="M740.665,537.7c-.754,1.6-3.374,2.168-4.92,2.111q-29.916-.847-59.813-.735-64.44.17-128.787,4.637-29.152,2.008-58.21,4.9c-4.128.415-8.276.83-12.4,1.282q-5.514.565-11.027,1.188c-1.094.113-2.149.226-3.224.358-1.225.132-3.487-.132-3.3-1.866.208-1.64,2.7-2.47,4.11-2.62a.278.278,0,0,1,.113-.019c2.319-.264,4.637-.528,6.956-.754q10.914-1.245,21.866-2.3Q508,542.3,523.978,541c4.863-.4,9.746-.773,14.609-1.131q15.807-1.188,31.612-2.055,32.348-1.952,64.752-2.677h.019a14.973,14.973,0,0,1,1.584-.056c.64-.038,1.3-.057,1.96-.057q13.12-.31,26.278-.433,36.872-.4,73.762.641C740.043,535.29,741.362,536.157,740.665,537.7Z" fill="#00008b"/><path d="M467.762,623.994q-1.6,2.779-2.577,2.576-1.554-.323-1.546-8.167c.052-.232.129-.438.181-.644,0-.026,0-.026.025-.051v-.026a18.746,18.746,0,0,0,.619-15.485,1.7,1.7,0,0,1-.094-.665c.1-2.054,3.835-4.287,5.968-3.3a3.439,3.439,0,0,1,1.6,1.984,24.868,24.868,0,0,1,.979,13.475A28.057,28.057,0,0,1,467.762,623.994Z" fill="#00008b"/><path d="M468.354,621.933a27.3,27.3,0,0,1-2.37,2.808,34.752,34.752,0,0,1-3.247,2.937q-1.043.851-2.164,1.624c-9.945,6.853-23.24,9.249-34.885,9.378-4.947.051-12.342-.154-18.783-1.933-4.3-1.159-8.193-3.04-10.641-6.029a11.5,11.5,0,0,1-2.55-5.616,1.471,1.471,0,0,1,.257-1.134,1.556,1.556,0,0,1,.309-.412,6.807,6.807,0,0,1,5.952-1.469,1.275,1.275,0,0,1,.928,1,9.434,9.434,0,0,0,1.468,3.762,5.328,5.328,0,0,0,.335.464,11.676,11.676,0,0,0,1.056,1.185,14.94,14.94,0,0,0,4.02,2.654.094.094,0,0,1,.077.026c.593.283,1.211.515,1.829.747a43.119,43.119,0,0,0,7.24,1.7c1.16.181,2.345.335,3.5.438a29.194,29.194,0,0,0,2.989.232,66.835,66.835,0,0,0,13.423-.541c5.823-.85,11.852-2.448,16.954-5.539a.026.026,0,0,1,.026-.027,26.9,26.9,0,0,0,3.349-2.344c.412-.335.8-.67,1.185-1.03a.025.025,0,0,1,.026-.026,22.987,22.987,0,0,0,4.328-5.385c.181-.309.335-.619.49-.928a6.218,6.218,0,0,0,.361-.721c-.052.206-.129.412-.181.644-.567,1.752-1.082,3.555-1.6,5.385-.052.206-.1.412-.155.618s-.129.413-.18.618a3.184,3.184,0,0,1,.49-.772,4.53,4.53,0,0,1,2.215-1.263c.129-.025.258-.077.387-.1.85-.232,1.726-.463,2.576-.695C467.71,622.113,468.019,622.01,468.354,621.933Z" fill="#00008b"/><path d="M564.582,285.822l-.4,1.169a36.9,36.9,0,0,0-34.854,7.521l-.867-.829a15.754,15.754,0,0,1,3.958-12.931,20.226,20.226,0,0,1,10.821-6.334,20.716,20.716,0,0,1,12.365,1.263A16.276,16.276,0,0,1,564.582,285.822Z" fill="#00008b"/><path d="M842.967,370.782c-.227-1.546-.491-3.016-.849-4.562V366.2c-2.959-17.606-8.916-34.76-16.456-50.783-1.753-3.695-3.582-7.277-5.618-10.839-1.112-2.319-2.413-4.43-3.675-6.674-2.866-4.919-6-9.8-9.2-14.514a19.753,19.753,0,0,1-1.658-2.658c-.17-1.9.923-6.428,1.093-9.03.226-3.487.377-6.993.565-10.556a293.874,293.874,0,0,0-1.017-35.967,240.539,240.539,0,0,0-4.147-28.332c-.434-2.13-.9-4.242-1.4-6.372-1.564.585-3.034,1.131-4.467,1.829h-.132c-.528,2.168-.961,4.279-1.338,6.371a2.378,2.378,0,0,1-.849,1.565c-.188,0-.263,0-.339.094v.189c.7,3.468,1.339,6.974,1.9,10.594,3.393,22.281,3.582,45.166,1.564,67.579-.282,2.959-.565,5,1.018,7.465.924,1.376,1.923,2.676,2.828,3.977,2.865,4.317,5.636,8.728,8.219,13.271.546.942,1.206,2,1.734,3.091,1.206,1.98,2.281,4.034,3.393,6.183,9.294,17.814,16.457,37.23,19.718,57.212.245,1.545.528,3.129.716,4.675a155.687,155.687,0,0,1,1.075,18.473v.207a119.024,119.024,0,0,0,8.558,8.917A139.342,139.342,0,0,0,842.967,370.782Zm0,0c-.227-1.546-.491-3.016-.849-4.562V366.2c-2.959-17.606-8.916-34.76-16.456-50.783-1.753-3.695-3.582-7.277-5.618-10.839-1.112-2.319-2.413-4.43-3.675-6.674-2.866-4.919-6-9.8-9.2-14.514a19.753,19.753,0,0,1-1.658-2.658c-.17-1.9.923-6.428,1.093-9.03.226-3.487.377-6.993.565-10.556a293.874,293.874,0,0,0-1.017-35.967,240.539,240.539,0,0,0-4.147-28.332c-.434-2.13-.9-4.242-1.4-6.372-1.564.585-3.034,1.131-4.467,1.829h-.132c-.528,2.168-.961,4.279-1.338,6.371a2.378,2.378,0,0,1-.849,1.565c-.188,0-.263,0-.339.094v.189c.7,3.468,1.339,6.974,1.9,10.594,3.393,22.281,3.582,45.166,1.564,67.579-.282,2.959-.565,5,1.018,7.465.924,1.376,1.923,2.676,2.828,3.977,2.865,4.317,5.636,8.728,8.219,13.271.546.942,1.206,2,1.734,3.091,1.206,1.98,2.281,4.034,3.393,6.183,9.294,17.814,16.457,37.23,19.718,57.212.245,1.545.528,3.129.716,4.675a155.687,155.687,0,0,1,1.075,18.473v.207a119.024,119.024,0,0,0,8.558,8.917A139.342,139.342,0,0,0,842.967,370.782Zm0,0c-.227-1.546-.491-3.016-.849-4.562V366.2c-2.959-17.606-8.916-34.76-16.456-50.783-1.753-3.695-3.582-7.277-5.618-10.839-1.112-2.319-2.413-4.43-3.675-6.674-2.866-4.919-6-9.8-9.2-14.514a19.753,19.753,0,0,1-1.658-2.658c-.17-1.9.923-6.428,1.093-9.03.226-3.487.377-6.993.565-10.556a293.874,293.874,0,0,0-1.017-35.967,240.539,240.539,0,0,0-4.147-28.332c-.434-2.13-.9-4.242-1.4-6.372-1.564.585-3.034,1.131-4.467,1.829h-.132c-.528,2.168-.961,4.279-1.338,6.371a2.378,2.378,0,0,1-.849,1.565c-.188,0-.263,0-.339.094v.189c.7,3.468,1.339,6.974,1.9,10.594,3.393,22.281,3.582,45.166,1.564,67.579-.282,2.959-.565,5,1.018,7.465.924,1.376,1.923,2.676,2.828,3.977,2.865,4.317,5.636,8.728,8.219,13.271.546.942,1.206,2,1.734,3.091,1.206,1.98,2.281,4.034,3.393,6.183,9.294,17.814,16.457,37.23,19.718,57.212.245,1.545.528,3.129.716,4.675a155.687,155.687,0,0,1,1.075,18.473v.207a119.024,119.024,0,0,0,8.558,8.917A139.342,139.342,0,0,0,842.967,370.782Zm0,0c-.227-1.546-.491-3.016-.849-4.562V366.2c-2.959-17.606-8.916-34.76-16.456-50.783-1.753-3.695-3.582-7.277-5.618-10.839-1.112-2.319-2.413-4.43-3.675-6.674-2.866-4.919-6-9.8-9.2-14.514a19.753,19.753,0,0,1-1.658-2.658c-.17-1.9.923-6.428,1.093-9.03.226-3.487.377-6.993.565-10.556a293.874,293.874,0,0,0-1.017-35.967,240.539,240.539,0,0,0-4.147-28.332c-.434-2.13-.9-4.242-1.4-6.372-1.564.585-3.034,1.131-4.467,1.829h-.132c-.528,2.168-.961,4.279-1.338,6.371a2.378,2.378,0,0,1-.849,1.565c-.188,0-.263,0-.339.094v.189c.7,3.468,1.339,6.974,1.9,10.594,3.393,22.281,3.582,45.166,1.564,67.579-.282,2.959-.565,5,1.018,7.465.924,1.376,1.923,2.676,2.828,3.977,2.865,4.317,5.636,8.728,8.219,13.271.546.942,1.206,2,1.734,3.091,1.206,1.98,2.281,4.034,3.393,6.183,9.294,17.814,16.457,37.23,19.718,57.212.245,1.545.528,3.129.716,4.675a155.687,155.687,0,0,1,1.075,18.473v.207a119.024,119.024,0,0,0,8.558,8.917A139.342,139.342,0,0,0,842.967,370.782Zm0,0c-.227-1.546-.491-3.016-.849-4.562V366.2c-2.959-17.606-8.916-34.76-16.456-50.783-1.753-3.695-3.582-7.277-5.618-10.839-1.112-2.319-2.413-4.43-3.675-6.674-2.866-4.919-6-9.8-9.2-14.514a19.753,19.753,0,0,1-1.658-2.658c-.17-1.9.923-6.428,1.093-9.03.226-3.487.377-6.993.565-10.556a293.874,293.874,0,0,0-1.017-35.967,240.539,240.539,0,0,0-4.147-28.332c-.434-2.13-.9-4.242-1.4-6.372-1.564.585-3.034,1.131-4.467,1.829h-.132c-.528,2.168-.961,4.279-1.338,6.371a2.378,2.378,0,0,1-.849,1.565c-.188,0-.263,0-.339.094v.189c.7,3.468,1.339,6.974,1.9,10.594,3.393,22.281,3.582,45.166,1.564,67.579-.282,2.959-.565,5,1.018,7.465.924,1.376,1.923,2.676,2.828,3.977,2.865,4.317,5.636,8.728,8.219,13.271.546.942,1.206,2,1.734,3.091,1.206,1.98,2.281,4.034,3.393,6.183,9.294,17.814,16.457,37.23,19.718,57.212.245,1.545.528,3.129.716,4.675a155.687,155.687,0,0,1,1.075,18.473v.207a119.024,119.024,0,0,0,8.558,8.917A139.342,139.342,0,0,0,842.967,370.782Zm0,0c-.227-1.546-.491-3.016-.849-4.562V366.2c-2.959-17.606-8.916-34.76-16.456-50.783-1.753-3.695-3.582-7.277-5.618-10.839-1.112-2.319-2.413-4.43-3.675-6.674-2.866-4.919-6-9.8-9.2-14.514a19.753,19.753,0,0,1-1.658-2.658c-.17-1.9.923-6.428,1.093-9.03.226-3.487.377-6.993.565-10.556a293.874,293.874,0,0,0-1.017-35.967,240.539,240.539,0,0,0-4.147-28.332c-.434-2.13-.9-4.242-1.4-6.372-1.564.585-3.034,1.131-4.467,1.829h-.132c-.528,2.168-.961,4.279-1.338,6.371a2.378,2.378,0,0,1-.849,1.565c-.188,0-.263,0-.339.094v.189c.7,3.468,1.339,6.974,1.9,10.594,3.393,22.281,3.582,45.166,1.564,67.579-.282,2.959-.565,5,1.018,7.465.924,1.376,1.923,2.676,2.828,3.977,2.865,4.317,5.636,8.728,8.219,13.271.546.942,1.206,2,1.734,3.091,1.206,1.98,2.281,4.034,3.393,6.183,9.294,17.814,16.457,37.23,19.718,57.212.245,1.545.528,3.129.716,4.675a155.687,155.687,0,0,1,1.075,18.473v.207a119.024,119.024,0,0,0,8.558,8.917A139.342,139.342,0,0,0,842.967,370.782Zm0,0c-.227-1.546-.491-3.016-.849-4.562V366.2c-2.959-17.606-8.916-34.76-16.456-50.783-1.753-3.695-3.582-7.277-5.618-10.839-1.112-2.319-2.413-4.43-3.675-6.674-2.866-4.919-6-9.8-9.2-14.514a19.753,19.753,0,0,1-1.658-2.658c-.17-1.9.923-6.428,1.093-9.03.226-3.487.377-6.993.565-10.556a293.874,293.874,0,0,0-1.017-35.967,240.539,240.539,0,0,0-4.147-28.332c-.434-2.13-.9-4.242-1.4-6.372-1.564.585-3.034,1.131-4.467,1.829h-.132c-.528,2.168-.961,4.279-1.338,6.371a2.378,2.378,0,0,1-.849,1.565c-.188,0-.263,0-.339.094v.189c.7,3.468,1.339,6.974,1.9,10.594,3.393,22.281,3.582,45.166,1.564,67.579-.282,2.959-.565,5,1.018,7.465.924,1.376,1.923,2.676,2.828,3.977,2.865,4.317,5.636,8.728,8.219,13.271.546.942,1.206,2,1.734,3.091,1.206,1.98,2.281,4.034,3.393,6.183,9.294,17.814,16.457,37.23,19.718,57.212.245,1.545.528,3.129.716,4.675a155.687,155.687,0,0,1,1.075,18.473v.207a119.024,119.024,0,0,0,8.558,8.917A139.342,139.342,0,0,0,842.967,370.782Zm0,0c-.227-1.546-.491-3.016-.849-4.562V366.2c-2.959-17.606-8.916-34.76-16.456-50.783-1.753-3.695-3.582-7.277-5.618-10.839-1.112-2.319-2.413-4.43-3.675-6.674-2.866-4.919-6-9.8-9.2-14.514a19.753,19.753,0,0,1-1.658-2.658c-.17-1.9.923-6.428,1.093-9.03.226-3.487.377-6.993.565-10.556a293.874,293.874,0,0,0-1.017-35.967,240.539,240.539,0,0,0-4.147-28.332c-.434-2.13-.9-4.242-1.4-6.372-.565-2.394-1.168-4.656-1.828-7.069-.811-3.242-1.829-6.428-2.847-9.557,0-.094-.075-.207-.075-.283-4.524-14.081-10.575-32.63-28.144-33.026-14.175-.282-27.258,10.312-37.1,19.228-10.953,9.764-20.585,20.962-29.615,32.536-1.64,2.168-3.185,4.279-4.788,6.371a208.421,208.421,0,0,0-166.223,22.451c-14.874-11.951-30.821-23-48.541-30.349-11.706-4.882-26.409-9.425-38.945-4.788-14.609,5.429-17.569,21.508-17.569,35.4a239.908,239.908,0,0,0,7.71,60.737,228.177,228.177,0,0,0,19.134,48.05c-11.273,27.748-17.8,58.549-15.967,88.522.075,1.47.151,3.072.34,4.5v.019c.131,1.6.3,3.016.565,4.6a126.677,126.677,0,0,0,10.688,37.739c.641,1.376,1.282,2.846,2.017,4.223a113.12,113.12,0,0,0,43.13,46.259,152.107,152.107,0,0,0,28.616,13.2c4.071,1.414,8.162,2.62,12.346,3.676,1.283.358,2.545.7,3.865.98,10.273,1.565,21.244,2.9,32.818,3.921,5.241.453,10.6.848,16.08,1.15a526.1,526.1,0,0,0,58.229.057c.622.075,1.207.188,1.829.264,1.545-.453,3.072-.849,4.637-1.264,4.543-1.225,9.143-2.356,13.818-3.43,7.483-1.81,15.174-3.412,22.978-4.826,1.207-.226,2.413-.434,3.6-.641h.037c34.779-6.522,70.822-16.362,99.286-35.741,0,0,.019,0,.019-.018q1.952-1.274,3.845-2.658c1.283-.924,2.545-1.866,3.77-2.828a.7.7,0,0,0,.133-.113c.885-.66,1.771-1.357,2.639-2.073.32-.264.7-.566,1.017-.887.019.019.019.019.019,0l.019-.018c.528-.415,1.037-.886,1.527-1.32.434-.358.848-.716,1.263-1.112a115.527,115.527,0,0,0,24.562-30.444,117.467,117.467,0,0,0,7.654-16.437,111.541,111.541,0,0,0,5.315-19.228,36.02,36.02,0,0,0,.66-4.411c.17-.452.17-1.018.3-1.451.339-2.715.622-5.448.773-8.219A139.342,139.342,0,0,0,842.967,370.782Zm-24.412,81.377c-.7,1.075-1.395,2.13-2.111,3.186-.566.811-1.131,1.621-1.735,2.432-.565.773-1.149,1.546-1.771,2.318-.924,1.226-1.867,2.376-2.809,3.544-.716.867-1.452,1.716-2.187,2.545-2.224,2.507-4.6,4.92-7.087,7.295-.679.641-1.376,1.282-2.074,1.923-.377.4-.773.735-1.15,1.093-.83.773-1.678,1.49-2.507,2.206-.848.7-1.715,1.47-2.62,2.168-.019.056-.057.075-.113.113-.66.528-1.339,1.055-2.036,1.564a1.78,1.78,0,0,0-.226.17A127.57,127.57,0,0,1,772.2,494.234c-3.639,1.941-7.314,3.826-11.066,5.542a232.852,232.852,0,0,1-35.193,12.592c-11.122,3.054-22.508,4.882-33.743,7.389q-12.668,2.828-25.146,6.24c-.114.038-.246.056-.359.094-4.071,1.112-8.086,2.225-12.2,3.11-3.789.811-7.8,1.188-11.555,2.149-.377.076-.735.189-1.094.283-3.2.547-6.5,1.188-9.8,1.659-.245.038-.49.075-.735.094a56.463,56.463,0,0,1-7.521.566c-12.4.773-25.147-1.7-37.513-2.715,0,0-23.978-1.96-41.415-5.259h-.037c-.057-.019-.132-.019-.189-.038,0,0-.094-.019-.245-.056-.075-.019-.151-.019-.245-.038-.113-.038-.245-.057-.377-.094H543.7a170.154,170.154,0,0,1-24.656-7.107c-.528-.188-1.074-.4-1.6-.6-.528-.189-1.055-.415-1.583-.622-.3-.113-.585-.226-.868-.339-1.036-.434-2.073-.867-3.091-1.32-1.037-.452-2.055-.9-3.073-1.395-.283-.132-.546-.264-.829-.4-1.018-.49-2.017-.98-3-1.489-1.263-.641-2.508-1.32-3.733-2.017-.961-.528-1.922-1.093-2.884-1.659-2.884-1.715-5.674-3.563-8.37-5.5-.867-.622-1.7-1.244-2.544-1.9-.849-.641-1.678-1.3-2.489-1.961-.735-.584-1.451-1.168-2.149-1.771-.848-.717-1.677-1.452-2.488-2.187-1.225-1.112-2.432-2.243-3.6-3.412s-2.319-2.356-3.431-3.563c-1.112-1.225-2.2-2.469-3.261-3.732-2.112-2.526-4.128-5.165-6-7.9a99.156,99.156,0,0,1-5.259-8.464v-.018c-.792-1.433-1.565-2.828-2.3-4.317a98.45,98.45,0,0,1-7.54-19.793c-.339-1.282-.66-2.564-.961-3.864-.246-1.056-.471-2.093-.7-3.148-.019-.076-.019-.132-.038-.208-.15-.81-.32-1.64-.471-2.45q-.225-1.3-.452-2.6l-.057-.283a.36.36,0,0,0-.019-.15,1.745,1.745,0,0,1-.038-.3c-.131-.848-.263-1.7-.376-2.545a34.4,34.4,0,0,1-.547-4.656v-.019c-2.884-27.672,2.545-56.287,11.744-82.339,1.187-3.393,2.469-6.805,3.864-10.123a3.21,3.21,0,0,0,.264-.509,3.444,3.444,0,0,0-.7-4.166c-.019-.018-.057-.037-.076-.075-15.212-27.974-23.11-58.059-25.617-89.71-1-11.857-4.3-33.855,8.2-41.3,9.2-5.5,22.263-1.47,31.424,1.828,19.077,7.088,36.363,19.36,52.028,32.235,1.489,1.263,3.657,1.941,5.5.716a199.694,199.694,0,0,1,164.848-22.262c2.035.622,3.94-.453,5.165-2.13q4.242-6,8.916-11.8,4.638-5.8,9.557-11.386c.3-.339.6-.678.924-1.018.3-.339.6-.7.924-1.036,1.244-1.376,2.507-2.715,3.732-4.072,8.275-8.841,17.267-17.267,27.8-23.035,4.712-2.564,10.2-4.845,15.664-4.129a8.474,8.474,0,0,1,1,.208c.3.075.584.151.867.245a4.685,4.685,0,0,1,.547.188c.226.095.452.189.659.283a11.528,11.528,0,0,1,1.357.716,7.747,7.747,0,0,1,.66.434,13.2,13.2,0,0,1,1.772,1.47l.566.566c.358.377.7.773,1.037,1.206.226.283.451.585.659.867.452.622.867,1.263,1.244,1.9.189.321.377.622.547.943.377.66.716,1.338,1.037,2.017.169.339.32.66.471,1,.151.358.321.716.471,1.074.848,2,1.6,4.016,2.262,5.844a193.429,193.429,0,0,1,5.9,19.114c.527,2.036,1.093,4.148,1.47,6.165.509,2.13,1,4.222,1.489,6.352v.189c.7,3.468,1.339,6.974,1.9,10.594,3.393,22.281,3.582,45.166,1.564,67.579-.282,2.959-.565,5,1.018,7.465.924,1.376,1.923,2.676,2.828,3.977,2.865,4.317,5.636,8.728,8.219,13.271.546.942,1.206,2,1.734,3.091,1.206,1.98,2.281,4.034,3.393,6.183,9.294,17.814,16.457,37.23,19.718,57.212.245,1.545.528,3.129.716,4.675a155.687,155.687,0,0,1,1.075,18.473v.207c0,3.13-.151,6.146-.453,9.294-.169,2.111-.452,4.222-.735,6.315a18.589,18.589,0,0,1-.452,2.865c-.264,1.565-.566,3.054-.811,4.524A107.878,107.878,0,0,1,818.555,452.159Z" fill="#00008b"/><path d="M834.578,374.571c-1.056.546-2.073,1.112-3.11,1.677-1.282.717-2.564,1.452-3.827,2.206-.754.452-1.508.923-2.262,1.376-.433.32-.867.641-1.319.942-.886.623-1.791,1.245-2.64,1.885-.433.34-.848.66-1.262,1h-.019a6.061,6.061,0,0,0-.585.452c-.659.452-1.319.943-1.96,1.451-.038.038-.075.057-.113.095-.849.659-1.659,1.319-2.488,2.017-.566.471-1.132.961-1.678,1.451a2.2,2.2,0,0,1-2.809.132,1.874,1.874,0,0,1-.377-.3,1.972,1.972,0,0,1-.038-3.073v-.019c1.245-1.093,2.489-2.149,3.751-3.167,1.245-1.018,2.508-2,3.789-2.978,1.735-1.32,3.526-2.507,5.373-3.676.867-.584,1.734-1.131,2.639-1.659.565-.339,1.131-.679,1.716-1,.527-.339,1.074-.641,1.62-.924,1.622-.905,3.262-1.753,4.883-2.563-3.261-19.982-10.424-39.4-19.718-57.212-1.112-2.149-2.187-4.2-3.393-6.183-.528-1.093-1.188-2.149-1.734-3.091-2.583-4.543-5.354-8.954-8.219-13.271-.9-1.3-1.9-2.6-2.828-3.977-1.583-2.47-1.3-4.506-1.018-7.465,2.018-22.413,1.829-45.3-1.564-67.579-.565-3.62-1.207-7.126-1.9-10.594v-.189c-.49-2.13-.98-4.222-1.489-6.352-.377-2.017-.943-4.129-1.47-6.165a193.429,193.429,0,0,0-5.9-19.114c-.659-1.828-1.414-3.845-2.262-5.844-.15-.358-.32-.716-.471-1.074-.151-.339-.3-.66-.471-1-.321-.679-.66-1.357-1.037-2.017-.17-.321-.358-.622-.547-.943-.377-.641-.792-1.282-1.244-1.9-.208-.282-.433-.584-.659-.867-.34-.433-.679-.829-1.037-1.206l-.566-.566a13.2,13.2,0,0,0-1.772-1.47,7.747,7.747,0,0,0-.66-.434,11.528,11.528,0,0,0-1.357-.716c-.207-.094-.433-.188-.659-.283a4.685,4.685,0,0,0-.547-.188c-.283-.094-.566-.17-.867-.245a8.474,8.474,0,0,0-1-.208c-5.466-.716-10.952,1.565-15.664,4.129-10.538,5.768-19.53,14.194-27.8,23.035-1.225,1.357-2.488,2.7-3.732,4.072-.321.339-.622.7-.924,1.036l-.9,1.018q-4.92,5.6-9.576,11.386t-8.916,11.8c-1.225,1.677-3.13,2.752-5.165,2.13a199.694,199.694,0,0,0-164.848,22.262c-1.847,1.225-4.015.547-5.5-.716-15.665-12.875-32.951-25.147-52.028-32.235-9.161-3.3-22.224-7.332-31.424-1.828-12.5,7.446-9.2,29.444-8.2,41.3,2.507,31.651,10.4,61.736,25.617,89.71.019.038.057.057.076.075a1.858,1.858,0,0,0,.113-.433,3.367,3.367,0,0,0,.038-.415h.018a8.956,8.956,0,0,1,4.675,2.112c.208.188.415.376.6.584a6.043,6.043,0,0,1,.565.641,4.274,4.274,0,0,1,.49.7,3.158,3.158,0,0,1,.415.735,2.984,2.984,0,0,1,.339.754c.019.019.019.019.019.038a7.292,7.292,0,0,1,.452,3.2,2.881,2.881,0,0,1-.075.565,3.02,3.02,0,0,1-.113.528,7.6,7.6,0,0,1-.49,1.433c-10.387,22.884-10.387,51.047-9.029,75.59.037.6.075,1.207.112,1.791.1,1.207.208,2.394.359,3.582.075.584.169,1.187.245,1.772q.282,1.752.622,3.506c.113.584.226,1.169.358,1.753s.283,1.15.415,1.715c1.168.3,2.337.641,3.506,1q1.017.284,2.036.622a3.606,3.606,0,0,1,.471.151c.056.019.132.038.189.057.395.113.791.245,1.187.377a2.27,2.27,0,0,1,.377.169,2.524,2.524,0,0,1,.6.453,2.364,2.364,0,0,1,.453,2.413c-.057.132-.114.264-.17.377a1.762,1.762,0,0,1-.528.641.71.71,0,0,1-.245.169,1.087,1.087,0,0,1-.264.132,1.782,1.782,0,0,1-.433.095,2.01,2.01,0,0,1-.98-.095c-.792-.264-1.584-.528-2.395-.773h-.018c-.792-.245-1.584-.49-2.394-.735.716,2.281,1.508,4.524,2.375,6.749.791,1.941,1.64,3.864,2.564,5.768.263.565.546,1.131.829,1.678.622,1.225,1.263,2.431,1.941,3.619.453.829.905,1.621,1.4,2.432,1.319,2.224,2.733,4.411,4.222,6.56.471.678.943,1.338,1.433,2.017q1.074,1.47,2.148,2.884c.509.641,1,1.282,1.509,1.9a1.735,1.735,0,0,1,.452.245.335.335,0,0,1,.132.094.5.5,0,0,1,.188.151.981.981,0,0,1,.189.207,1.793,1.793,0,0,1,.377.962v.018a138.886,138.886,0,0,0,10.085,10.971,206.359,206.359,0,0,0,29.878,24.336c1.018.679,2.036,1.32,3.073,1.942.678.415,1.376.83,2.073,1.206a3.707,3.707,0,0,0,.471.264c.679.4,1.377.754,2.055,1.113,1.772.923,3.582,1.79,5.411,2.6.527.245,1.074.471,1.62.7.962.415,1.942.83,2.922,1.207.773.3,1.527.6,2.3.886,3.864,1.451,7.785,2.752,11.782,4,1.6.49,3.2.98,4.825,1.471,1,.3,2,.6,2.979.885,4.373,1.282,8.5,2.357,12.384,3.28q.99.226,1.923.453c.641.151,1.282.3,1.9.433,3.337.736,6.5,1.377,9.539,1.961,2.28.433,4.486.81,6.635,1.169,1.433.245,2.847.471,4.241.7.264.038.528.076.773.132a1.466,1.466,0,0,1,.3.038c.414.075.81.132,1.169.188.546.076,1.055.151,1.508.226.395.057.754.114,1.074.151.547.076,1.037.132,1.47.189.7.094,1.3.169,1.866.226.416.057.83.113,1.283.17l.452.056a.147.147,0,0,1,.057.019.2.2,0,0,1,.093.019c.227.019.679.094,1.226.188.188.038.4.057.622.1s.433.075.66.113c.829.151,1.7.282,2.6.452,7.333,1.263,16.607,2.922,19.039,4.053,3.3-.471,6.6-1.112,9.8-1.659.359-.094.717-.207,1.094-.283.358-.15.7-.3,1.055-.452,2.7-1.131,5.5-2.187,8.427-3.11,1.922-.641,3.9-1.244,5.937-1.753,1.395-.377,2.847-.717,4.279-1.056h.057q2.178.48,4.355,1.018,12.5-3.421,25.146-6.24c11.235-2.507,22.621-4.335,33.743-7.389a232.852,232.852,0,0,0,35.193-12.592c3.752-1.716,7.427-3.6,11.066-5.542,6.352-3.714,12.328-7.578,17.927-11.518a1.78,1.78,0,0,1,.226-.17c.7-.509,1.376-1.036,2.036-1.564.056-.038.094-.057.113-.113.9-.7,1.772-1.471,2.62-2.168.829-.716,1.677-1.433,2.507-2.206.377-.358.773-.7,1.15-1.093.7-.641,1.4-1.282,2.074-1.923a.138.138,0,0,1,.037-.056.1.1,0,0,0,.057-.076c2.394-2.318,4.713-4.693,6.993-7.163.735-.829,1.471-1.678,2.187-2.545.942-1.168,1.885-2.318,2.809-3.544.622-.772,1.206-1.545,1.771-2.318.6-.811,1.169-1.621,1.735-2.432.716-1.056,1.414-2.111,2.111-3.186a107.878,107.878,0,0,0,14.647-35.91,122.259,122.259,0,0,0-19.322,2.187,2.243,2.243,0,0,1-1.507-.151,2.717,2.717,0,0,1-.736-.565c-1-1.15-.9-3.224,1.056-3.6,1.319-.283,2.658-.528,3.977-.754s2.658-.434,3.978-.6c2.413-.321,4.807-.566,7.219-.735.924-.076,1.867-.132,2.79-.17,1.112-.057,2.225-.094,3.337-.132h.019a18.589,18.589,0,0,0,.452-2.865c.283-2.093.566-4.2.735-6.315.3-3.148.453-6.164.453-9.294v-.207A155.687,155.687,0,0,0,834.578,374.571ZM732.465,191.325a201.455,201.455,0,0,0,19.68-17.022c2.658-2.658,5.655-6.523,9.387-7.823,4.317-1.471,7.88-.057,10.8,2.846a10.981,10.981,0,0,1,.773.83A18.057,18.057,0,0,1,774.6,172c.226.339.452.66.678,1.018a8.723,8.723,0,0,1,.66,1.055,32.674,32.674,0,0,1,1.81,3.412,8.553,8.553,0,0,1,.547,1.188c.546,1.187,1.036,2.413,1.489,3.638.3.811.584,1.621.867,2.432.264.792.528,1.583.754,2.375.584,1.923,1.093,3.751,1.489,5.335.17.622.32,1.225.452,1.772.057.264.133.527.189.773.188.735.339,1.583.546,2.3.491,2.225,1.037,4.336,1.358,6.541,2.941,14.723,4.411,30.18,3.337,44.884-.4,4.976-.83,11.932-4.807,15.57-6.3,5.863-11.669-2.6-14.591-7.484-7.3-11.97-16.211-21.81-28.633-28.69a50.077,50.077,0,0,0-6.165-2.941c-3.883-1.847-7.766-3.3-11.593-5.127-3.732-1.772-7.54-4.43-8.181-8.86a2.163,2.163,0,0,1-.075-.754c-.1-.094-.1-.245-.1-.433C714.255,201.278,726.64,195.66,732.465,191.325Zm-32.4,71.01a11.4,11.4,0,0,1,.867-.773,13.5,13.5,0,0,1,1.376-1.018c.245-.17.49-.321.754-.471.358-.208.716-.4,1.074-.585.491-.226.981-.452,1.471-.66a20.71,20.71,0,0,1,12.517-.64,14.554,14.554,0,0,1,1.47.49,19.4,19.4,0,0,1,2.846,1.3,18.737,18.737,0,0,1,2.658,1.716c.453.339.886.716,1.32,1.112a9.234,9.234,0,0,1,.886.829,3.776,3.776,0,0,0,.283.283c.32.339.641.716.942,1.093a19.015,19.015,0,0,1,1.546,2.432c.17.3.339.622.49.943.189.4.358.791.509,1.206a11.587,11.587,0,0,1,.528,1.621,9.16,9.16,0,0,1,.245,1.037,10.045,10.045,0,0,1,.188,1.319,1.653,1.653,0,0,1,.038.3q.057.623.057,1.244a15.638,15.638,0,0,1-.3,3.035l-.9.848c-.566-.546-1.15-1.074-1.734-1.583-.6-.509-1.206-1-1.829-1.451-.622-.491-1.244-.943-1.885-1.358-.66-.433-1.3-.848-1.979-1.244s-1.357-.754-2.055-1.093c-.678-.339-1.394-.66-2.111-.962-.358-.15-.716-.282-1.093-.414-.716-.264-1.471-.509-2.225-.717-.377-.113-.753-.207-1.131-.3a36,36,0,0,0-18.341-.245h-.019l-.207-.622-.076-.208-.094-.282A15.712,15.712,0,0,1,700.061,262.335ZM532.423,280.752a20.226,20.226,0,0,1,10.821-6.334,20.716,20.716,0,0,1,12.365,1.263,16.276,16.276,0,0,1,8.973,10.141l-.4,1.169a36.9,36.9,0,0,0-34.854,7.521l-.867-.829A15.754,15.754,0,0,1,532.423,280.752Zm-58.417,24.713a1.36,1.36,0,0,1-.6.094c-6.6,0-10.349-8.257-12.667-13.422a154.2,154.2,0,0,1-9.388-29.708c-2.036-9.652-3.714-19.492-3.94-29.426-.207-7.069-.132-15.552,3.563-21.885,2.488-4.336,6.711-6.881,11.688-5.655a47.945,47.945,0,0,1,9.029,3.713c6.183,2.752,12.309,5.693,18.492,8.652,6.824,3.2,13.61,6.353,20.321,9.746,3.2,1.621,6.711,3.28,9.387,5.674,5.863,5.184,3.657,12.63-2.073,16.947-4.845,3.581-10.255,6.183-14.93,9.915a58.992,58.992,0,0,0-16.06,20.076c-2.658,5.523-3.808,11.31-5.561,17.116-.962,3.129-2.394,7.05-5.881,7.936a.678.678,0,0,1-.378.076.365.365,0,0,1-.282.094C474.4,305.408,474.156,305.465,474.006,305.465ZM784.134,414.157c-.415.414-.81.829-1.244,1.244a69.219,69.219,0,0,1-5.259,4.675q-2.092,1.668-4.3,3.167c-.98.678-1.98,1.319-3,1.941s-2.055,1.226-3.111,1.791l-1.583.848c-1.075.547-2.168,1.075-3.28,1.565-.547.264-1.093.49-1.659.735-1.112.471-2.243.924-3.393,1.339a68.286,68.286,0,0,1-7.069,2.186,75.76,75.76,0,0,1-18.87,2.375,74.765,74.765,0,0,1-9.236-.565c-1-.113-2-.264-3-.415a75.407,75.407,0,0,1-14.345-3.808,70.581,70.581,0,0,1-10.443-4.939h-.019a69.252,69.252,0,0,1-7.106-4.712,37.9,37.9,0,0,1-3.318,4.392,16.892,16.892,0,0,1-1.244,1.338,29.729,29.729,0,0,1-2.658,2.47,30.1,30.1,0,0,1-2.922,2.168c-5.391,3.581-11.292,5.184-16.551,4.467a17.854,17.854,0,0,1-4.562-1.244,18.074,18.074,0,0,1-2.092-1.037,20.268,20.268,0,0,1-2.922-2.092A28.079,28.079,0,0,1,644,422.583a29.553,29.553,0,0,1-4.279,10.5,28.371,28.371,0,0,1-3.355,4.071,18.464,18.464,0,0,1-1.414,1.32,20.439,20.439,0,0,1-11.141,5.09c-.188.018-.358.037-.527.056-.264.038-.509.057-.773.075s-.528.038-.811.038a19.866,19.866,0,0,1-7.86-1.659,10.041,10.041,0,0,1-1.4-.622q-.284-.141-.566-.283c-.4-.207-.792-.414-1.168-.659-.114-.076-.246-.151-.378-.226a10.574,10.574,0,0,1-1.112-.755c-.358-.226-.7-.471-1.037-.735a27.65,27.65,0,0,1-3.148-2.827c-.339-.339-.659-.7-.961-1.056-.339-.358-.641-.716-.942-1.093-1.226,1.508-2.508,2.959-3.865,4.354-.452.472-.923.943-1.376,1.395-.226.226-.452.434-.679.66-.716.679-1.451,1.357-2.186,2a71.536,71.536,0,0,1-18.361,11.725q-1.837.821-3.732,1.527c-1.263.471-2.564.924-3.864,1.338s-2.621.792-3.94,1.131c-.679.17-1.357.34-2.036.491q-3.025.678-6.164,1.131a76.467,76.467,0,0,1-10.67.735,73.389,73.389,0,0,1-51.593-20.736,63.314,63.314,0,0,1-4.336-4.694,58.8,58.8,0,0,1-3.883-5.051A63.41,63.41,0,0,1,474.986,393.5a62.014,62.014,0,0,1,.829-10.142c.151-.829.3-1.659.453-2.469.339-1.64.735-3.243,1.206-4.845.226-.792.471-1.565.735-2.356.17-.528.358-1.037.547-1.565.358-1.018.754-2.036,1.168-3.035.66-1.527,1.358-3.016,2.111-4.486.491-.962,1.018-1.9,1.546-2.847.283-.471.566-.961.867-1.432.849-1.377,1.753-2.734,2.7-4.072.34-.434.66-.886,1-1.338.66-.849,1.339-1.716,2.036-2.545.019,0,.019,0,.019-.019.7-.83,1.414-1.64,2.168-2.451l.019-.019c.358-.395.754-.791,1.131-1.187s.772-.792,1.168-1.169a74.881,74.881,0,0,1,97.74-4.826c.886.717,1.754,1.433,2.6,2.187.848.735,1.677,1.508,2.488,2.281a49.47,49.47,0,0,1,19.963-13.742c.66-.245,1.338-.471,2.017-.7a46.8,46.8,0,0,1,6.221-1.508c11.837-2.054,24.75.264,36.569,6.579.83.453,1.641.9,2.413,1.376.792.472,1.565.943,2.357,1.433a63.96,63.96,0,0,1,3.524-6.145,65.145,65.145,0,0,1,5.712-7.541c1.037-1.206,2.131-2.356,3.261-3.468a73.325,73.325,0,0,1,51.82-20.924c39.361,0,71.312,29.9,71.312,66.712A64.2,64.2,0,0,1,784.134,414.157Z" fill="#bc85f2"/><path d="M684.848,419.736a32.141,32.141,0,0,1-9.406,9.652c-5.523,3.676-11.612,5.052-16.494,3.676-6.6-1.9-12.121-8.728-14.4-17.776,9.18-3.224,15.891-12.781,13.987-17.211-2.262-5.184-16.532-3.242-18.172-3.016-7.106,1-19.585,4.826-19.736,10.632-.151,5.334,10.311,11.668,19.736,10.594a4.625,4.625,0,0,0,1.112-.208v.057a25.615,25.615,0,0,1-4.316,15.288c-3.413,5.146-8.539,8.558-13.723,9.2-6.787.716-13.78-3.054-18.38-9.293a63.176,63.176,0,0,0,3.978-69.465,32.121,32.121,0,0,1,14.7-11.4c9.011-3.205,19.963-2.017,29.972,3.317a46.424,46.424,0,0,1,7.3,4.864,57.766,57.766,0,0,0-.943,10.575C660.06,389.462,669.636,407.484,684.848,419.736Z" fill="#bc85f2"/><path d="M785.435,203.841c-.321-2.205-.867-4.316-1.358-6.541-.207-.716-.358-1.564-.546-2.3-.056-.246-.132-.509-.189-.773-.132-.547-.282-1.15-.452-1.772-.4-1.584-.9-3.412-1.489-5.335-.245-.792-.49-1.583-.754-2.375-.283-.811-.566-1.621-.867-2.432-.453-1.225-.943-2.451-1.489-3.638-.17-.415-.358-.811-.547-1.188a32.674,32.674,0,0,0-1.81-3.412c-.207-.358-.433-.716-.66-1.055-.226-.358-.452-.679-.678-1.018a20.393,20.393,0,0,0-1.489-1.847c-.246-.283-.509-.566-.773-.83-2.922-2.9-6.485-4.317-10.8-2.846-3.732,1.3-6.729,5.165-9.387,7.823a201.455,201.455,0,0,1-19.68,17.022c-5.825,4.335-18.21,9.953-17.833,18.681,0,.188,0,.339.1.433a2.163,2.163,0,0,0,.075.754c.641,4.43,4.449,7.088,8.181,8.86,3.827,1.828,7.71,3.28,11.593,5.127a50.077,50.077,0,0,1,6.165,2.941c12.422,6.88,21.338,16.72,28.633,28.69,2.922,4.883,8.294,13.347,14.591,7.484,3.977-3.638,4.411-10.594,4.807-15.57C789.846,234.021,788.376,218.564,785.435,203.841ZM778.743,254.7c-.471-.81-1-1.659-1.47-2.469-6.466-10.481-13.987-19.793-24.11-27.051-1.471-1.074-3.017-2.111-4.6-3.072l-.282-.17c-2.017-1.15-4.129-2.3-6.24-3.374h-.019c-2.9-1.471-6.07-2.885-9.161-4.147-.472-.189-1.056-.4-1.7-.6-.433-.15-.886-.3-1.338-.471h-.019a27.289,27.289,0,0,1-2.771-1.131c-1.565-.754-2.865-1.7-3.223-2.959,0,0,.094-.076.188-.17.017-.011.075-.063.1-.085.06-.046.135-.107.237-.2.509-.452,1.414-1.338,1.98-1.753,3.11-2.582,6.541-4.788,9.764-7.2,9.444-6.956,17.983-14.835,26.485-23.054.208-.207.4-.4.566-.547a9.791,9.791,0,0,1,.923-.81c.132-.113.246-.208.34-.283a1.406,1.406,0,0,0,.264.151,4.8,4.8,0,0,0,.546.169v.019c.773.773,1.47,1.489,1.866,1.98l.227.339c.32.433.6.886.886,1.338.056.076.113.17.169.264.358.6.716,1.244,1.037,1.885l.019.019a48.843,48.843,0,0,1,3.261,8.5q.084.31.17.622c.377,1.244.7,2.469,1,3.694.32,1.113.622,2.262.923,3.412.283,1.131.566,2.3.83,3.45.471,2.2.924,4.43,1.32,6.617a177.365,177.365,0,0,1,3.015,33.176C779.93,245.482,779.93,250.308,778.743,254.7Z" fill="#00008b"/></svg>