<?xml version="1.0" encoding="utf-8"?>
<!-- Generator: Adobe Illustrator 24.3.0, SVG Export Plug-In . SVG Version: 6.00 Build 0)  -->
<svg version="1.1" id="Layer_1" xmlns="http://www.w3.org/2000/svg" xmlns:xlink="http://www.w3.org/1999/xlink" x="0px" y="0px"
	 viewBox="0 0 1080 1080" style="enable-background:new 0 0 1080 1080;" xml:space="preserve">
<style type="text/css">
	.st0{fill:#00008B;}
	.st1{fill:#00008B;stroke:#00008B;stroke-width:21.1213;stroke-miterlimit:10;}
</style>
<g>
	<g>
		<path class="st0" d="M837.1,663.2c0.8-3.8,1.3-7.8,3.3-11.1c2.2-3.6,6-5.9,8.9-8.8c3-3.1,5.3-6.7,6.3-11c0.8-3.7,0.6-7.4,0.1-11.2
			c-0.5-3.4-1.3-6.9-0.9-10.3c0.5-4,3.2-7.4,5.5-10.6c2.7-3.9,4.9-7.8,5.6-12.5c0.3-2.2-2-4.1-4-4.2c-17.3-0.4-32.4,7.9-46.6,16.7
			c-7.3,4.5-14.5,9.1-22.3,12.8c-2.7,1.3-5.4,2.5-8.1,3.7c-12.9-17.5-25.9-34.9-38.7-52.5c-24.2-33-47.9-66.7-78.3-94.5
			c-14.6-13.4-30.6-25.4-48-34.9c-15.8-8.6-32.6-15.3-49.9-20.3c-35.9-10.4-73.7-13.6-111-12.1c-36.7,1.5-73.4,7.5-108.7,17.7
			c-4.1,1.2-8.3,2.5-12.4,3.8c-2.9,0.9-3.5,4-2.5,6.1c-3,0.4-5.4,4-2.6,6.7c14.2,13.5,23,31.8,33.2,48.2
			c10.8,17.5,24.5,32.7,39.2,47.1c30.4,30,65.2,55.6,103.2,75.1c37.4,19.2,77.8,32.6,119.5,38.4c40.2,5.5,81.6,3.5,120.9-7.2
			c11.3-3.1,22.7-6.9,33.6-11.4c8.3,11.3,16.6,22.7,24.7,34.1c3,4.2,6,8.5,9,12.8c1.3,1.8,3.4,2.8,5.6,1.7c1.8-0.9,3-3.7,1.7-5.6
			c-10.9-15.6-22-31-33.2-46.3c5.3-2.4,10.5-5,15.5-7.8c14.3-8.1,27.9-19.1,44.2-22.9c2.1-0.5,4.3-0.8,6.5-1
			c-1.2,2.2-2.9,4.2-4.2,6.2c-2.5,3.6-4.6,7.5-5.1,11.9c-0.9,6.7,2.3,13.4,1,20.1c-1.6,8.3-10.9,11.5-14.7,18.5
			c-4,7.2-3,16.1-8.1,22.7c-3.2,4.2,3.8,8.5,7,4.3C834.7,671.9,836.2,667.6,837.1,663.2z M416.2,475.4
			c-19.9-12.3-0.8-43.1,19.1-30.8C455.2,456.8,436.1,487.7,416.2,475.4z"/>
		<path class="st0" d="M897.6,611.9c0-1.2-4.4-2.4-10-2.8c-5.6-0.4-10.2,0.2-10.4,1.4c-0.2,1.1,4.3,2.4,10,2.8
			C892.8,613.7,897.5,613.1,897.6,611.9z"/>
		<path class="st0" d="M908.7,644.6c0.2-1.3-9.1-3.4-20-6.7c-10.9-3.3-19.2-7.8-19.9-6.8c-0.6,0.9,7,7.2,18.6,10.8
			C899,645.4,908.5,645.6,908.7,644.6z"/>
		<path class="st0" d="M886.1,672.1c0.7-1-4.1-4.8-10.2-8.2c-6.1-3.4-10.3-6.8-11.2-6.1c-1.1,0.7,2.6,6.2,9.1,9.7
			C880.1,671.1,885.5,673,886.1,672.1z"/>
		<path class="st0" d="M522.2,627.8c0.2-1.3-10-3-25.1-9.3c-15.1-6.2-34.5-18.1-54.1-33.9c-19.6-16-37.3-30.8-49.6-41.8
			c-12.3-11.1-19.4-18.5-20.4-17.8c-0.9,0.7,4.7,9.6,16.2,22c11.5,12.4,28.6,27.9,48.5,44.2c20,16.2,40.9,27.9,57.3,32.9
			C511.4,629.2,522.1,628.8,522.2,627.8z"/>
		<path class="st0" d="M726.3,502.7c0.9-0.2-0.1-8.6-5.9-20.7c-5.7-12.1-17-27.2-32.7-40.2c-31.7-26.1-64.7-33.7-65-31.7
			c-1,2.5,29.7,13.3,59.7,38.2c14.9,12.4,26.2,25.9,32.9,36.6C722.1,495.6,725.1,503.1,726.3,502.7z"/>
		<path class="st0" d="M735.2,521c7.7,4.7,15-7.2,7.4-11.9C734.9,504.4,727.6,516.3,735.2,521L735.2,521z"/>
	</g>
</g>
</svg>
