<?xml version="1.0" encoding="utf-8"?>
<!-- Generator: Adobe Illustrator 24.3.0, SVG Export Plug-In . SVG Version: 6.00 Build 0)  -->
<svg version="1.1" id="Layer_1" xmlns="http://www.w3.org/2000/svg" xmlns:xlink="http://www.w3.org/1999/xlink" x="0px" y="0px"
	 viewBox="0 0 1080 1080" style="enable-background:new 0 0 1080 1080;" xml:space="preserve">
<style type="text/css">
	.st0{fill:#00008B;}
	.st1{fill:#00008B;stroke:#00008B;stroke-width:21.1213;stroke-miterlimit:10;}
</style>
<path class="st1" d="M419.8,345.8c2.3-16.2,2.2-29.3,6.4-40.7c5.7-15.3,18.6-34,37.7-25.4c34.2,15.3,0,53.3-5.6,71.7
	c-4,13.1,2.1,26.9,8,39.2c42.4,88.5,84.1,177.1,124.6,266.5c9.4,20.8,21.1,39.5,42.8,49.2c8.1,3.6,17.1,5.9,23.8,11.7
	c28.3,24.5-5.5,69.4-37.5,48.2c-13-8.6-24.7-19.2-38.5-30c-5.1,10.7-7.6,22-14.4,29c-7.4,7.6-19.4,16.2-28.5,15.3
	c-9.3-1-23.9-12.2-24.8-20.2c-1.7-15.8,0.6-34.6,8.3-48.3c9-16.2,12.2-29.6,4.1-46.1c-38.5-78.8-76.8-157.7-115.2-236.6
	c-9.4-19.2-20.8-32.2-46.3-30.4c-22.9,1.7-35.6-18.2-38.7-37.3c-1.9-12.2,5.4-29.4,14.4-39c13.7-14.8,31.3-9,46.7,2
	C396.7,331.1,406.6,337.1,419.8,345.8z"/>
</svg>
