<?xml version="1.0" encoding="utf-8"?>
<!-- Generator: Adobe Illustrator 24.3.0, SVG Export Plug-In . SVG Version: 6.00 Build 0)  -->
<svg version="1.1" id="Layer_1" xmlns="http://www.w3.org/2000/svg" xmlns:xlink="http://www.w3.org/1999/xlink" x="0px" y="0px"
	 viewBox="0 0 1080 1080" style="enable-background:new 0 0 1080 1080;" xml:space="preserve">
<style type="text/css">
	.st0{fill:#00008B;}
	.st1{fill:#00008B;stroke:#00008B;stroke-width:21.1213;stroke-miterlimit:10;}
</style>
<g>
	<g>
		<g>
			<path class="st0" d="M579.8,646.2c-15,49.4,46.4,268,114.9,178.9c31.2-61.6-54.4-133.2-102.7-75.5
				c-42.1,61.8,61.9,163.2,100.9,208.8c4.4,4.4,11.8-2,7.3-6.4c-35.7-36-67-76.5-92.3-120.5c-68.8-97,86.4-135.5,82.4-24.8
				c-2.6,19.2-19.3,38.9-39.4,26.2c-49.8-44.9-66.2-121.1-61.4-186C590.1,640.5,580.4,639.9,579.8,646.2L579.8,646.2z"/>
			<g>
				<path class="st0" d="M639.6,231.2c-4.9-1.3-5.9-12.5-12.7-5.9c-67.7-30.8-137,0.8-196.3,34.9c-35.9,14.4-75,16.3-112.8,22.3
					c-18.6-10-14.2,42.8-18.6,54.5c-8.3,49.2-13.9,81.2,47.9,59.6c59.2-3,145.6-35.1,186.1,23.4c28.7,41.6-31.6,264.2,60.9,228.8
					c35.6-18.4-9.4-148,17.9-196.4c9.4-25.9,33.9-40.4,54.7-56.2C727.3,352.3,701.8,259.9,639.6,231.2z M620.2,421.1
					c-59.8,57.3,3.1,190-32.7,219.7c-38.5,16.1-31.6-42.2-37.6-65.4c-6.7-46.7,7.8-94-0.7-140.2c-26-90.5-144.6-52.8-213.2-46
					c24.6-26.7,26.3-75.5-3.4-98.8c118.2,0.1,179-101.8,290.8-55.9c-21.1,52-23.2,128.7,36.2,155.2
					C646.4,400,631.6,408.7,620.2,421.1z"/>
				<path class="st0" d="M231.8,364.1c-13.2-11.2,13.6-6.6-7.5-41.3c4.2-13,18.1-9.6,10.7-32c-1.8-6-11.4-4.1-9.6,1.9
					c1.1,3.5,3,8.6,1.2,12.2c-13.3,8.2-15.5,19.5-6.2,32.3c7.9,8.9-2,12.8-3.1,21.1c1.7,10.4,12.8,16.6,18.8,24.8
					c4.2,4.6,11.6-1.8,7.3-6.4C239.5,372.5,235.6,368.3,231.8,364.1z"/>
				<path class="st0" d="M272.5,312.2c-3.4-6.3,3-12.6,1.1-19.3c-0.3-5.8-8.7-11.8-5.1-17.2c11.1-15.6-20.4-10.2-7.9,11.8
					c9.2,14.9-7.2,20.8,10,38.4c6.6,9.6-9.3,11.5-6.9,19.4C278.8,355.6,288.7,325,272.5,312.2z"/>
				<path class="st0" d="M554.4,259.5c-61.8-20.5-110,41.9-168.6,46.3c-6.3,0.5-4.3,10,1.9,9.6c57.7-3.5,103.6-64.3,163.7-46.6
					C557.3,270.7,560.4,261.5,554.4,259.5z"/>
				<path class="st0" d="M563.4,267.5c-4.7,4.1,1.7,11.5,6.4,7.3C574.6,270.7,568.1,263.4,563.4,267.5z"/>
			</g>
		</g>
		<path class="st0" d="M692.2,422.7c0.2,0.3,2.5-1.1,6.2-4.1c3.7-2.9,8.8-7.6,14.4-14c11.2-12.7,24.1-33.2,30.2-58.7
			c6.2-25.5,4.1-49.6-0.1-66c-2.1-8.3-4.4-14.7-6.4-19c-1.9-4.3-3.3-6.6-3.6-6.4c-0.8,0.3,3.3,9.9,6.4,26.2
			c3.2,16.2,4.5,39.5-1.4,64c-5.9,24.5-17.8,44.6-28,57.6C699.6,415.3,691.6,422,692.2,422.7z"/>
		<path class="st0" d="M718.1,439.7c0.4,0.5,5.6-3.4,12.4-11.2c6.8-7.8,15.1-19.7,21.4-34.3c6.2-14.6,9.2-28.8,10.1-39.1
			c0.9-10.3,0.2-16.7-0.5-16.7c-1.6-0.1-2.1,25.5-14.4,53.8C735.1,420.6,716.8,438.6,718.1,439.7z"/>
	</g>
</g>
</svg>
