<svg xmlns="http://www.w3.org/2000/svg" viewBox="0 0 1080 1080"><ellipse cx="516.449" cy="952.234" rx="355.573" ry="25.766" fill="#b5c187" opacity="0.74"/><path d="M686.458,621.186a2.348,2.348,0,0,1-1.188,1.644,104.63,104.63,0,0,1-33.589,13.133c-1.319.26-2.67.5-4,.732-.325.065-.667.13-.976.179-1.074.179-2.148.325-3.222.472-.391.065-.8.114-1.205.163-1.253.162-2.506.293-3.759.423-.1,0-.179.016-.26.016-1.416.147-2.848.228-4.248.293a15.7,15.7,0,0,1-1.757.1c-.814.032-1.611.081-2.409.1-.895.017-1.79.033-2.669.033-35.981.13-70.612-14.875-100.653-33.345a1.268,1.268,0,0,1-.261-.179c-3.059-1.855.635-5.924,3.63-4.085,0,0,.032,0,.032.016,4.963,3.06,10.025,6,15.183,8.772q6.615,3.612,13.475,6.8h.033c1.008.472,2,.96,3.011,1.4,19.967,8.983,42.474,14.972,64.736,15.151,2.344.049,4.671,0,7.015-.131,16.989-.8,33.654-5.174,48.675-14.418a2.265,2.265,0,0,1,.732-.342A2.892,2.892,0,0,1,686.458,621.186Z" fill="#00008b"/><path d="M762.538,510.719c-3.743,15.851-14.386,29.863-29.57,36.681a56.353,56.353,0,0,1-17.673,4.687,52.071,52.071,0,0,1-7.974.2,50.764,50.764,0,0,1-21.547-5.777c-15.313-8.169-25.468-24.02-28.105-40.765a69.736,69.736,0,0,1,1.693-29.049c2.718-9.944,7.99-18.862,11.619-28.447a1.575,1.575,0,0,1,1.367-1.042c1.074-.195,2.279.6,1.807,1.888a5.658,5.658,0,0,1-.326.781c-3.808,9.781-9.146,18.894-11.684,29.131a64.15,64.15,0,0,0-.1,31.847c4.134,15.591,15.46,29.814,31.116,35.461a49.44,49.44,0,0,0,16.55,2.864c1.058,0,2.116-.016,3.173-.1a51.9,51.9,0,0,0,25.811-8.5c13.36-8.9,21.237-24.476,22.051-40.18a57.657,57.657,0,0,0-4.215-23.679c-2.539-6.737-5.419-13.409-6.217-20.537a26.446,26.446,0,0,1-.211-3.239v-.016c0-.163-.017-.326-.017-.488a4.822,4.822,0,0,1-.016-.488v-.115a1.631,1.631,0,0,1,2.067-1.4,1.431,1.431,0,0,1,1.2,1.514c-.195,11.212,6.054,20.993,8.886,31.571A56.31,56.31,0,0,1,762.538,510.719Z" fill="#00008b"/><path d="M751.016,456.007c-.228.049-.472.114-.7.179a112.447,112.447,0,0,1-75.624-4.769,1.237,1.237,0,0,1-.8-1.562,1.788,1.788,0,0,1,2.425-1.172c.375.147.716.326,1.074.456a107.768,107.768,0,0,0,41.678,8.267c.813,0,1.627-.016,2.424-.032.814-.017,1.612-.033,2.409-.082,2.311-.1,4.622-.26,6.933-.521,1.3-.13,2.587-.292,3.889-.488,1.3-.179,2.588-.39,3.889-.634.651-.1,1.286-.212,1.921-.358.651-.131,1.286-.261,1.936-.407,1.937-.391,3.841-.879,5.745-1.416.635-.163,1.253-.342,1.888-.521.032-.032.032-.032.049-.032C752.155,452.312,753,455.405,751.016,456.007Z" fill="#00008b"/><path d="M750.105,452.931c-.635.179-1.253.374-1.888.537-1.9.521-3.824.993-5.745,1.416-.65.146-1.285.276-1.936.407s-1.286.244-1.921.358c-1.3.244-2.587.455-3.889.634-1.3.2-2.6.358-3.889.488-2.311.261-4.622.424-6.933.521-.8.049-1.6.065-2.409.082-.8.016-1.611.032-2.424.032a107.768,107.768,0,0,1-41.678-8.267,156.762,156.762,0,0,1,34.078-3.011c.634.017,1.285.033,1.92.066.537.016,1.09.032,1.643.065.782.032,1.563.065,2.328.113.781.049,1.546.1,2.327.163.553.033,1.106.082,1.66.131.846.065,1.708.146,2.555.243.911.082,1.806.18,2.718.293q1.317.147,2.636.342c.765.1,1.529.212,2.295.326,1.025.162,2.066.325,3.092.488.683.13,1.367.26,2.066.374,1.205.228,2.393.456,3.581.716.683.147,1.367.293,2.05.456,2.588.586,5.159,1.237,7.73,1.953v.1a4.822,4.822,0,0,0,.016.488C750.088,452.605,750.105,452.768,750.105,452.931Z" fill="#bde3f9"/><path d="M750.088,451.857v.586a4.822,4.822,0,0,1-.016-.488v-.1Z" fill="#93d6f7"/><path d="M752.139,450.441a1.56,1.56,0,0,1-1.985,1.448c-.017,0-.033-.032-.066-.032h-.016v-.017c-2.555-.715-5.142-1.366-7.73-1.936-.683-.163-1.367-.309-2.05-.456-1.188-.26-2.376-.488-3.581-.716-.683-.13-1.366-.244-2.066-.374-1.026-.163-2.067-.326-3.092-.488-.766-.114-1.53-.228-2.295-.326q-1.319-.195-2.636-.342c-.912-.113-1.807-.211-2.718-.293-.847-.1-1.709-.178-2.555-.243-.554-.049-1.107-.1-1.66-.131-.781-.065-1.546-.114-2.327-.163-.765-.048-1.546-.081-2.328-.113-.553-.033-1.106-.049-1.643-.065-.635-.033-1.286-.049-1.92-.066a156.762,156.762,0,0,0-34.078,3.011c-1.139.228-2.294.456-3.434.716h-.065a.1.1,0,0,1-.065.016,1.622,1.622,0,0,1-1.481-2.669,1.289,1.289,0,0,1,.749-.439,160.073,160.073,0,0,1,77.919,2A1.508,1.508,0,0,1,752.139,450.441Z" fill="#00008b"/><path d="M375.579,788.79a3.04,3.04,0,0,1-1.725-1.578c-1.66-3.255-3.385-6.526-5.191-9.732q-5.029-9.155-10.888-17.869a262.8,262.8,0,0,0-79.888-77.138c-3.727-2.311-.276-8.153,3.483-5.826a272.733,272.733,0,0,1,26.559,18.78c1.594,1.269,3.173,2.571,4.735,3.873s3.125,2.637,4.655,3.987c1.4,1.221,2.782,2.458,4.133,3.711,1.416,1.286,2.816,2.6,4.2,3.922.5.5,1.025.976,1.53,1.5a.434.434,0,0,1,.1.081c.195.163.358.342.553.537,1.156,1.107,2.295,2.246,3.4,3.4.456.439.895.862,1.285,1.3.065.048.114.081.13.146.033.016.049.016.017.033.081.032.13.081.13.114a1.014,1.014,0,0,1,.26.276.325.325,0,0,1,.131.114c.032.016.048.016.016.033.081.032.114.081.114.13.048,0,.016.016.016.016.049.017.049.017.032.032.472.456.944.928,1.368,1.384.325.325.634.667.911.992,1.155,1.172,2.246,2.377,3.336,3.581.212.244.44.488.651.732.765.846,1.546,1.709,2.278,2.572.44.488.846.976,1.27,1.448q2.783,3.2,5.468,6.493c.553.667,1.074,1.335,1.611,2v.032a1.542,1.542,0,0,1,.162.179c.2.228.375.456.554.684.227.309.472.618.716.911l.032.033c.993,1.269,1.986,2.571,2.962,3.857,1.644,2.164,3.255,4.361,4.8,6.574.7.977,1.4,1.969,2.067,2.962,1.367,1.953,2.669,3.922,3.971,5.94,1.106,1.692,2.18,3.385,3.238,5.11.765,1.237,1.514,2.49,2.246,3.727a.016.016,0,0,1,.016.016c.667,1.107,1.3,2.23,1.953,3.369.554.927,1.091,1.871,1.611,2.815.082.13.147.26.212.374.569,1.009,1.123,2.034,1.659,3.06.457.83.9,1.66,1.351,2.506.651,1.269,1.3,2.555,1.954,3.824C381.291,786.837,378.02,789.571,375.579,788.79Z" fill="#00008b"/><path d="M567.122,954.344a2.989,2.989,0,0,1-1.871.586q-44.794.39-89.6.8-79.359.708-158.67,1.416c-12.873.114-25.762.521-38.634.326-8.43-.147-18.162-1.254-24.541-7.275-8.576-8.088-5.338-19.87-.732-29.081,5.809-11.555,12.2-22.849,18.324-34.257a3.09,3.09,0,0,1,.553-.765,4.323,4.323,0,0,1,.407-.374,3.263,3.263,0,0,1,3.678.033h.016a3.338,3.338,0,0,1,1.3,4.524c-.276.52-.553,1.009-.83,1.53-3.092,5.744-6.184,11.5-9.243,17.233-3.223,6.022-6.8,11.978-9.569,18.227-2.279,5.077-4.069,11.49-.537,16.469,2.489,3.515,6.835,5.078,10.919,5.956a55.793,55.793,0,0,0,12.547,1.009c6.2-.016,12.417-.1,18.618-.146q19.162-.171,38.259-.358l75.934-.684,122.168-1.074c8.2-.081,16.371-.162,24.557-.228,1.709-.032,3.385-.032,5.078-.048a3.074,3.074,0,0,1,2.6,1.188A3.545,3.545,0,0,1,567.122,954.344Z" fill="#00008b"/><path d="M443.88,605.4l-.016-.016c-.2-.586-.391-1.171-.554-1.741C443.49,604.229,443.685,604.814,443.88,605.4Z" fill="#e1b0c5"/><path d="M763.3,635.019c-7.73,19.056-23.858,32.71-41.808,42.328-26.868,14.37-56.535,21.009-86.577,21.4-2.278.049-4.54.049-6.867-.016A235.841,235.841,0,0,1,592.8,695.4c-1.025-.163-2.083-.359-3.125-.537-3.238-.586-1.871-5.469,1.384-4.866.358.065.748.13,1.122.2,1.465.277,2.9.5,4.362.749.993.162,1.953.293,2.929.439,2.2.325,4.427.618,6.624.895.716.081,1.415.163,2.148.244,1.318.163,2.669.309,4,.407,1.172.114,2.311.212,3.466.293.879.1,1.725.163,2.588.195,3.076.212,6.135.342,9.211.424.358,0,.732.032,1.074,0,1.725.081,3.466.081,5.208.081h.586c.829-.033,1.676-.033,2.489-.033,2.376-.065,4.7-.13,7.047-.26,1.2-.082,2.441-.147,3.645-.228q1.832-.121,3.662-.293c2.441-.228,4.849-.488,7.274-.814,1.2-.146,2.441-.341,3.646-.5A179.054,179.054,0,0,0,716.158,674.4c15.639-7.974,30.627-18.926,39.187-34.468,5.6-10.122,7.99-21.042,4.524-32.271-3.108-10.154-9.911-18.991-18.064-25.794-7.421-6.151-21.953-16.273-31.717-9.585-2.9,2.018-3.385,4.655-2.491,7.193a9.414,9.414,0,0,0,1.221,2.327,12.376,12.376,0,0,0,1.546,1.872,14.415,14.415,0,0,0,10.122,4.1c3.3.032,3.3,5.094,0,5.045-5.858-.033-13.279-3.662-16.729-8.983a11.251,11.251,0,0,1-1.888-4.964,10.421,10.421,0,0,1,.814-5.419,12.053,12.053,0,0,1,5.468-5.891,17.979,17.979,0,0,1,7.193-2.181h.016a20.43,20.43,0,0,1,3.141-.081c7.388.374,14.126,4.036,20.147,7.958,9.862,6.444,18.389,15.411,23.418,26C767.583,610.852,768.152,623.106,763.3,635.019Z" fill="#00008b"/><path d="M737.85,621.9c-11.895,12.254-32.254,10.041-46.2,2.539a41.833,41.833,0,0,1-5.191-3.255,31.193,31.193,0,0,1-3.678-3.076c-3.043-2.88-5.4-6.363-5.614-10.09-.44-7.844,7.4-10.3,13.962-10.626.863-.049,1.725-.065,2.523-.049a2.6,2.6,0,0,1,1.253,4.8,2.557,2.557,0,0,1-1.253.26c-3.141-.065-6.982-.277-9.569,1.823-3.06,2.522-1.3,5.793.764,8.316a32.847,32.847,0,0,0,13.492,9.438c11.473,4.606,26.607,5.892,35.867-3.661C736.5,615.962,740.129,619.542,737.85,621.9Z" fill="#00008b"/><path d="M592.8,695.4a17.707,17.707,0,0,1-2.978,8.185,6.857,6.857,0,0,1-.456.668,21.19,21.19,0,0,1-3.548,3.97,23.982,23.982,0,0,1-14.662,5.794c-7.974.374-15.526-3.222-21.091-8.625-2.36-2.295,1.286-5.875,3.629-3.58,6.2,6.037,15.362,9.129,23.76,5.761a17.386,17.386,0,0,0,5.435-3.581c0-.016,0-.016.033-.016.211-.2.423-.423.635-.635,3.726-3.84,5.956-9.243,2.782-13.767-9.634-13.866-31.539-11.75-45.127-5.908-7.682,3.3-14.7,7.942-22.328,11.408-7.567,3.385-14.516,7.877-21.888,11.571-25.452,12.628-57.382,9.243-79.758-7.925-2.6-2.019,1.074-5.6,3.661-3.613,14.045,10.806,32.4,15.443,50.042,13.751a67.025,67.025,0,0,0,22.279-6.038c8.349-3.938,16.063-9,24.476-12.758,8.137-3.646,15.509-8.772,23.858-11.961a60.868,60.868,0,0,1,10.008-2.9c1.269-.244,2.539-.44,3.857-.586a50.9,50.9,0,0,1,12.677-.1c7.8.944,15.379,4.166,20.7,10.009a15.111,15.111,0,0,1,3.385,5.663A12.873,12.873,0,0,1,592.8,695.4Z" fill="#00008b"/><path d="M837.088,906.027c-.146,2.018-.358,4.036-.634,6-2.083,15.46-8.755,31.636-23.565,39.236-12.026,6.2-26.1,5.777-39.171,2.685-3.417-.8-6.753-1.758-9.959-2.848a.823.823,0,0,1-.277-.13c-1.709-.846-.8-3.808,1.2-3.125,15.769,5.338,35.119,8.235,49.847-1.448,12.709-8.365,17.641-24.134,18.959-38.422.016-.212.049-.424.049-.635.048-.537.1-1.058.13-1.6.065-.895.114-1.79.162-2.7.066-1.416.1-2.848.1-4.28,0-2.6-.114-5.224-.358-7.844-.114-1.3-.26-2.637-.472-3.938-.032-.294-.081-.587-.13-.879-.081-.651-.212-1.27-.326-1.921a57.9,57.9,0,0,0-1.757-7.046c-.244-.765-.488-1.53-.765-2.295a48.879,48.879,0,0,0-6.835-12.775c-7.111-9.471-18.91-16.257-30.9-15.9-.96.032-1.92.1-2.864.211a29.846,29.846,0,0,0-5.6,1.286,29.358,29.358,0,0,0-17.787,38.65c.781,2.018-2.523,2.9-3.3.9a2.342,2.342,0,0,1-.1-.244c-.293-.781-.553-1.53-.781-2.311-.179-.618-.358-1.22-.488-1.839a28.749,28.749,0,0,1-.732-4.8,32.77,32.77,0,0,1,25.159-34.436c.407-.081.83-.163,1.253-.244a31.5,31.5,0,0,1,4.052-.5c13.947-.895,27.568,7.1,35.559,18.194C835.965,873.853,838.309,890.485,837.088,906.027Z" fill="#00008b"/><path d="M792.384,846.172a1.736,1.736,0,0,1-2.864.211.5.5,0,0,1-.114-.146,16.631,16.631,0,0,0-2.262-2.9c-5.843-5.859-15.574-6.168-22.735-1.888-9.455,5.7-13.084,16.681-12.986,27.112.033,2.149-3.4,2.149-3.418,0a41.625,41.625,0,0,1,2.669-15.313,30.67,30.67,0,0,1,1.693-3.727,27.853,27.853,0,0,1,11.375-11.587c9.1-4.882,21.107-3.336,27.454,4.9a13.2,13.2,0,0,1,1.188,1.709A1.473,1.473,0,0,1,792.384,846.172Z" fill="#00008b"/><path d="M711.341,548.784a4.193,4.193,0,0,0-1.628.39c1.058,0,2.116-.016,3.173-.1A3.308,3.308,0,0,0,711.341,548.784Z" fill="#e1b0c5"/><path d="M756.533,476.723c-2.539-6.737-5.419-13.409-6.217-20.537a112.447,112.447,0,0,1-75.624-4.769,1.237,1.237,0,0,1-.8-1.562.1.1,0,0,1-.065.016c-3.808,9.781-9.146,18.894-11.684,29.131a64.15,64.15,0,0,0-.1,31.847c4.134,15.591,15.46,29.814,31.116,35.461a49.44,49.44,0,0,0,16.55,2.864,4.193,4.193,0,0,1,1.628-.39,3.308,3.308,0,0,1,1.545.293,51.9,51.9,0,0,0,25.811-8.5c13.36-8.9,21.237-24.476,22.051-40.18A57.657,57.657,0,0,0,756.533,476.723Zm-49,65.193c-21.188-.993-35.981-20.9-38.894-38.276a44.821,44.821,0,0,1,2.278-22.507q38.911,1.124,77.8,2.246A37.768,37.768,0,0,1,751,496.9C750.544,516.952,732.627,543.088,707.532,541.916Z" fill="#bde3f9"/><path d="M751,496.9c-.456,20.049-18.373,46.185-43.468,45.013-21.188-.993-35.981-20.9-38.894-38.276a44.821,44.821,0,0,1,2.278-22.507q38.911,1.124,77.8,2.246A37.768,37.768,0,0,1,751,496.9Z" fill="#00008b"/><path d="M594.624,715.33c-.732,5.761-5.028,10.057-10.171,12.5-.325.13-.667.293-1.008.424a30.955,30.955,0,0,1-3.858,1.334,37.2,37.2,0,0,1-31.18-5.761c-2.652-1.9-.081-6.314,2.6-4.394a32.312,32.312,0,0,0,26.591,5.435c4.378-1.09,9.016-3.205,11.115-7.42,1.693-3.483.733-7.844-2.9-9.228a6.224,6.224,0,0,0-1.48-.374,2.558,2.558,0,0,1-1.807-3.108,2.29,2.29,0,0,1,.358-.749c0-.016,0-.016.033-.016.211-.2.423-.423.635-.635a3.482,3.482,0,0,1,2.147-.39,9.542,9.542,0,0,1,3.662,1.3A11.383,11.383,0,0,1,594.624,715.33Z" fill="#00008b"/><path d="M714.5,606.963a2.62,2.62,0,0,1-3.141,1.757,50.507,50.507,0,0,1-11.945-3.564,18.971,18.971,0,0,1-4.508-3.01,17.4,17.4,0,0,1-3.776-4.752,12.773,12.773,0,0,1-1.4-8.674c1.172-5.777,6.526-9.309,12.14-9.846a14.773,14.773,0,0,1,5.143.391,4.976,4.976,0,0,1,.585.211,2.265,2.265,0,0,1,1.221,2.327,2.5,2.5,0,0,1-3.157,2.327,9.471,9.471,0,0,0-1.9-.292,9.24,9.24,0,0,0-7.291,2.75,6.945,6.945,0,0,0-1.155,7.746c2.864,6.656,11.017,8.2,17.4,9.488A2.59,2.59,0,0,1,714.5,606.963Z" fill="#00008b"/><path d="M715.36,552.722v12.661h-.016a4.094,4.094,0,0,1-4,3.759,3.8,3.8,0,0,1-3.19-1.578,3.891,3.891,0,0,1-.847-2.376V552.722a3.948,3.948,0,0,1,.017-.44,3.873,3.873,0,0,1,2.392-3.108,4.193,4.193,0,0,1,1.628-.39,3.308,3.308,0,0,1,1.545.293,4.226,4.226,0,0,1,2.409,3.01A2.8,2.8,0,0,1,715.36,552.722Z" fill="#00008b"/><path d="M752.139,853.3c-.472,0-.993-.016-1.465-.048a224.987,224.987,0,0,1-41.6-4.687,229.46,229.46,0,0,1-54.891-19.04h-.016a215.578,215.578,0,0,1-20.066-11.262,174.749,174.749,0,0,1-63.6-70.189c-.342-.667-.651-1.318-.977-1.969-1.041-2.214,2.3-4.134,3.337-1.937.081.179.178.358.26.521.293.586.553,1.172.862,1.758a166.892,166.892,0,0,0,31.653,44.313c.521.521,1.042,1.026,1.578,1.546.5.5,1.042.993,1.563,1.5,1.285,1.22,2.587,2.408,3.906,3.58.244.227.5.439.764.651,1.79,1.594,3.6,3.108,5.436,4.573.749.618,1.5,1.2,2.246,1.79,2.424,1.871,4.882,3.694,7.372,5.435,1.058.749,2.132,1.481,3.206,2.2,1.122.765,2.262,1.5,3.417,2.23,1.92,1.253,3.857,2.441,5.842,3.6.6.375,1.237.733,1.872,1.091.618.374,1.221.732,1.855,1.073l.016.017h.017c1.725.976,3.466,1.92,5.207,2.864,1.953,1.041,3.89,2.034,5.875,3,3.889,1.969,7.861,3.791,11.88,5.516a220.967,220.967,0,0,0,84.445,18.1,1.094,1.094,0,0,1,.228.016C754.629,849.784,754.547,853.332,752.139,853.3Z" fill="#00008b"/><path d="M350.257,737.837c-.537-.667-1.058-1.335-1.611-2a2.794,2.794,0,0,0,1.106-.781c.147.439.277.895.407,1.351A2.745,2.745,0,0,1,350.257,737.837Z" fill="#ecd2df"/><path d="M353.023,596.775a1.329,1.329,0,0,0-.065.293c-1.529,8.072-3.01,16.176-4.394,24.3-3.238,19.415-5.728,39.431-5.875,59.334-.064-20.212,2.523-40.554,5.875-60.262,1.384-7.925,2.865-15.8,4.394-23.711C352.974,596.743,352.991,596.743,353.023,596.775Z" fill="#ecd2df"/><path d="M361.778,601.869c-.211-.114-.406-.228-.6-.342l.195.1C361.5,601.706,361.632,601.788,361.778,601.869Z" fill="#ecd2df"/><path d="M435.353,645.206l-.391-.1c-.26-.065-.537-.13-.813-.211.292.081.569.146.862.211h.016C435.141,645.141,435.239,645.174,435.353,645.206Z" fill="#ecd2df"/><path d="M555.567,677.461a1.882,1.882,0,0,1-1.9,1.888,1.939,1.939,0,0,1-1.92-1.888c-.065-.749-.114-1.514-.179-2.262-.26-4.3-.374-8.577-.374-12.856,0-2.458,3.84-2.458,3.84,0,0,4.084.114,8.185.391,12.27C555.437,675.573,555.5,676.517,555.567,677.461Z" fill="#00008b"/><path d="M582.371,739.367c-.017.032-.033.048-.05.081a4.311,4.311,0,0,1-.39.521c.13-.18.277-.375.407-.57v-.016A.053.053,0,0,0,582.371,739.367Z" fill="#df9ebd"/><path d="M584.046,736.16a12.22,12.22,0,0,1-.976,2.1A17.329,17.329,0,0,0,584.046,736.16Z" fill="#df9ebd"/><path d="M634.007,638.241a15.7,15.7,0,0,1-1.757.1c-.814.032-1.611.081-2.409.1-.895.017-1.79.033-2.669.033a32.764,32.764,0,0,0-.814-5.468,22.389,22.389,0,0,0-.618-2.214c-2.653-7.925-10.106-9.78-17.771-10.431-16.485-1.383-32.906-2.636-49.358-3.906h-.033q-5.517-.439-11.034-.862a3.628,3.628,0,0,1-2.441-5.94,2.9,2.9,0,0,1,2.441-.814q17.991,1.416,35.933,2.832c6,.472,11.977.944,17.966,1.416,5.192.423,10.578.537,15.639,1.822A21.2,21.2,0,0,1,632.591,629.7a30.163,30.163,0,0,1,.782,3.173A39.973,39.973,0,0,1,634.007,638.241Z" fill="#00008b"/><path d="M656.612,824.5a3.184,3.184,0,0,1-.8,1.4c-2.083,2.213-6.721.487-5.875-3a.571.571,0,0,1,.065-.163c5.924-20.2.261-40.928-5.988-60.343-5.761-17.869-11.571-35.461-14.582-54.045-.537-3.174-.992-6.4-1.383-9.618-.2-1.628-.391-3.239-.537-4.9.358,0,.732.032,1.074,0,1.725.081,3.466.081,5.208.081h.586q.219,2.417.536,4.833c.57,4.54,1.286,9.081,2.132,13.572,3.629,19.431,10.578,37.772,16.193,56.666C658.6,787.032,662.031,806.105,656.612,824.5Z" fill="#00008b"/><path d="M773.718,953.953a2.413,2.413,0,0,1-2.408,1.986c-3.223.048-6.445.081-9.683.13-28.984.423-57.968,1.171-86.919,1.953-35.9.976-71.963,1.236-107.586-3.678-.488-.065-1.025-.114-1.53-.179-10.057-1.432-20.082-3.32-29.976-5.729-23.24-5.663-45.681-14.239-66.153-26.689q-1.978-1.2-3.906-2.441c-.537-.342-1.074-.683-1.611-1.041-1.383-.879-2.767-1.807-4.134-2.751-1.448-.976-2.9-1.985-4.312-3.01-1.237-.895-2.474-1.791-3.695-2.718-.6-.439-1.188-.879-1.773-1.334-1.449-1.107-2.864-2.23-4.28-3.369q-1.71-1.366-3.369-2.783c-.309-.228-.6-.488-.895-.748-1.139-.961-2.262-1.937-3.385-2.93-1.823-1.595-3.629-3.238-5.387-4.915-.895-.83-1.774-1.66-2.636-2.522-1.269-1.221-2.506-2.457-3.727-3.711-.7-.716-1.383-1.431-2.067-2.147-.553-.554-1.09-1.123-1.611-1.693-.472-.5-.944-1.009-1.415-1.53-.814-.878-1.612-1.757-2.393-2.652-.455-.489-.879-.977-1.3-1.465-1.042-1.188-2.084-2.392-3.093-3.613-1.041-1.237-2.05-2.473-3.043-3.726-.341-.407-.683-.83-1.009-1.237-.8-1.009-1.595-2.035-2.376-3.076-1.318-1.725-2.6-3.45-3.873-5.208a214.585,214.585,0,0,1-36-81.5,2.436,2.436,0,0,1,.489-2.148c1.22-1.449,3.987-1.514,4.475.8.732,3.515,1.53,7.031,2.441,10.513,0,.033.016.065.016.1a211.7,211.7,0,0,0,39.773,78.586,221.354,221.354,0,0,0,18.325,20.147,216.062,216.062,0,0,0,49.439,36.047c23.972,12.628,50.254,20.212,77.041,24.54,1.709-.032,3.385-.032,5.078-.048a3.074,3.074,0,0,1,2.6,1.188c5.013.715,10.057,1.318,15.086,1.806,35.3,3.434,70.807,2.441,106.17,1.367,24.785-.732,49.587-1.2,74.372-1.546l7.828-.1A2.4,2.4,0,0,1,773.718,953.953Z" fill="#e1b0c5" opacity="0.69"/><path d="M773.718,953.953a2.413,2.413,0,0,1-2.408,1.986c-3.223.048-6.445.081-9.683.13-28.984.423-57.968,1.171-86.919,1.953-35.9.976-71.963,1.236-107.586-3.678-.488-.065-1.025-.114-1.53-.179-10.057-1.432-20.082-3.32-29.976-5.729-23.24-5.663-45.681-14.239-66.153-26.689q-1.978-1.2-3.906-2.441c-.537-.342-1.074-.683-1.611-1.041-1.383-.879-2.767-1.807-4.134-2.751-1.448-.976-2.9-1.985-4.312-3.01-1.237-.895-2.474-1.791-3.695-2.718-.6-.439-1.188-.879-1.773-1.334-1.449-1.107-2.864-2.23-4.28-3.369q-1.71-1.366-3.369-2.783c-.309-.228-.6-.488-.895-.748-1.139-.961-2.262-1.937-3.385-2.93-1.823-1.595-3.629-3.238-5.387-4.915-.895-.83-1.774-1.66-2.636-2.522-1.269-1.221-2.506-2.457-3.727-3.711-.7-.716-1.383-1.431-2.067-2.147-.553-.554-1.09-1.123-1.611-1.693-.472-.5-.944-1.009-1.415-1.53-.814-.878-1.612-1.757-2.393-2.652-.455-.489-.879-.977-1.3-1.465-1.042-1.188-2.084-2.392-3.093-3.613-1.041-1.237-2.05-2.473-3.043-3.726-.341-.407-.683-.83-1.009-1.237-.8-1.009-1.595-2.035-2.376-3.076-1.318-1.725-2.6-3.45-3.873-5.208a214.585,214.585,0,0,1-36-81.5,2.436,2.436,0,0,1,.489-2.148c1.22-1.449,3.987-1.514,4.475.8.732,3.515,1.53,7.031,2.441,10.513,0,.033.016.065.016.1a211.7,211.7,0,0,0,39.773,78.586,221.354,221.354,0,0,0,18.325,20.147,216.062,216.062,0,0,0,49.439,36.047c23.972,12.628,50.254,20.212,77.041,24.54,2.571.424,5.126.814,7.681,1.14,5.013.715,10.057,1.318,15.086,1.806,35.3,3.434,70.807,2.441,106.17,1.367,24.785-.732,49.587-1.2,74.372-1.546l7.828-.1A2.4,2.4,0,0,1,773.718,953.953Z" fill="#00008b"/><path d="M582.338,739.383v.016a.059.059,0,0,1-.017.049,4.311,4.311,0,0,1-.39.521,1.909,1.909,0,0,1-.277.358c-.162.228-.358.439-.536.65-.082.114-.18.2-.261.294-.244.26-.488.5-.749.764a5.179,5.179,0,0,1-.618.586c-.032.033-.081.065-.114.1a10.6,10.6,0,0,1-.8.7c-.017.017-.017.017-.033.017-.309.277-.651.521-.976.765a6.505,6.505,0,0,1-.684.472c-.016.016-.016.048-.032.048-.049.033-.114.082-.163.114-.651.424-1.334.847-2.018,1.237h-.017a6.675,6.675,0,0,1-.667.375,37.548,37.548,0,0,1-3.482,1.627,36.975,36.975,0,0,1-9.537,2.408,39.466,39.466,0,0,1-23.288-4.572,2.122,2.122,0,0,1-.455,1.545,86.577,86.577,0,0,1-31.881,26.559C483,784.9,456.85,786.4,433.807,776.845a84.737,84.737,0,0,1-10.139-4.98c-.667-.357-1.318-.748-1.937-1.139-.65-.374-1.285-.781-1.92-1.172-1.253-.8-2.506-1.66-3.727-2.522-.618-.439-1.2-.863-1.806-1.334-1.53-1.139-3.011-2.327-4.459-3.581-.553-.455-1.074-.911-1.611-1.383-1.953-1.758-3.841-3.6-5.647-5.55-.488-.5-.96-1.025-1.432-1.578a86.22,86.22,0,0,1-6.851-8.772c-.424-.618-.83-1.236-1.237-1.855-.5-.764-.993-1.562-1.449-2.359-.309-.5-.618-1.026-.911-1.53-.732-1.27-1.432-2.571-2.1-3.889-.326-.635-.651-1.286-.944-1.954-.293-.618-.57-1.22-.846-1.838-.244-.553-.489-1.123-.733-1.693-.032-.1-.081-.179-.114-.293a15.535,15.535,0,0,1,2.034-1.822,10.322,10.322,0,0,1,2.246-1.237c.277.716.554,1.432.846,2.148a.223.223,0,0,1,.05.081c.276.651.569,1.3.862,1.937.667,1.513,1.416,2.978,2.2,4.41.325.618.651,1.22.992,1.839a83.976,83.976,0,0,0,5.192,7.86c.732.993,1.481,1.953,2.262,2.9a83.051,83.051,0,0,0,71.247,30.318c23.141-2.213,45.29-14.4,58.927-32.938a2.474,2.474,0,0,1,1.6-1.041c-.553-.375-1.106-.782-1.627-1.189a34.95,34.95,0,0,1-4.1-3.661,8.769,8.769,0,0,0-.537-3.678,1.365,1.365,0,0,1,.2-.244.869.869,0,0,1,.179-.163,2.665,2.665,0,0,1,.716-.488,1.968,1.968,0,0,1,.374-.13.681.681,0,0,1,.163-.033,2.022,2.022,0,0,1,.423-.049,2.277,2.277,0,0,1,1.725.8,34.011,34.011,0,0,0,26.12,10.61,30.516,30.516,0,0,0,4.931-.6c.5-.1,1.041-.212,1.562-.358a31.746,31.746,0,0,0,7.323-2.7,19.25,19.25,0,0,0,2.376-1.416,16.093,16.093,0,0,0,2.1-1.693,13.284,13.284,0,0,0,1.14-1.22,8.676,8.676,0,0,0,.944-1.367,5.079,5.079,0,0,0,.374-.635,9.609,9.609,0,0,0,.83-2.409,10.206,10.206,0,0,0,.163-1.578v-.114a5.479,5.479,0,0,1,2.018,1.383A6.091,6.091,0,0,1,582.338,739.383Z" fill="#ffb4e7"/><path d="M537.227,747.454a86.577,86.577,0,0,1-31.881,26.559C483,784.9,456.85,786.4,433.807,776.845a84.737,84.737,0,0,1-10.139-4.98c-.667-.357-1.318-.748-1.937-1.139-.65-.374-1.285-.781-1.92-1.172-1.253-.8-2.506-1.66-3.727-2.522-.618-.439-1.2-.863-1.806-1.334-1.53-1.139-3.011-2.327-4.459-3.581-.553-.455-1.074-.911-1.611-1.383-1.953-1.758-3.841-3.6-5.647-5.55-.488-.5-.96-1.025-1.432-1.578a86.22,86.22,0,0,1-6.851-8.772c-.424-.618-.83-1.236-1.237-1.855-.5-.764-.993-1.562-1.449-2.359-.309-.5-.618-1.026-.911-1.53-.732-1.27-1.432-2.571-2.1-3.889-.326-.635-.651-1.286-.944-1.954-.293-.618-.57-1.22-.846-1.838-.244-.553-.489-1.123-.733-1.693-.032-.1-.081-.179-.114-.293-.325-.781-.651-1.578-.944-2.359-1.171-3.093,3.825-4.378,4.964-1.351.1.228.179.439.26.651.277.716.554,1.432.846,2.148a.223.223,0,0,1,.05.081c.276.651.569,1.3.862,1.937.667,1.513,1.416,2.978,2.2,4.41.325.618.651,1.22.992,1.839a83.976,83.976,0,0,0,5.192,7.86c.732.993,1.481,1.953,2.262,2.9a83.051,83.051,0,0,0,71.247,30.318c23.141-2.213,45.29-14.4,58.927-32.938a2.474,2.474,0,0,1,1.6-1.041,2.747,2.747,0,0,1,3.287,2.034A2.122,2.122,0,0,1,537.227,747.454Z" fill="#00008b"/><path d="M584.844,732.564c0,.2-.032.374-.049.553-.033.244-.065.5-.114.765-.065.277-.13.57-.2.847-.016.032-.016.081-.033.113a2.377,2.377,0,0,1-.13.489.231.231,0,0,1-.032.1c-.082.26-.163.488-.245.732a12.22,12.22,0,0,1-.976,2.1c0,.016-.016.032-.032.049a10.765,10.765,0,0,1-.619.976c0,.032-.032.049-.048.082s-.033.048-.05.081a4.311,4.311,0,0,1-.39.521,1.909,1.909,0,0,1-.277.358c-.162.228-.358.439-.536.65-.082.114-.18.2-.261.294-.244.26-.488.5-.749.764a5.179,5.179,0,0,1-.618.586c-.032.033-.081.065-.114.1a10.6,10.6,0,0,1-.8.7c-.017.017-.017.017-.033.017-.309.277-.651.521-.976.765a6.505,6.505,0,0,1-.684.472c-.016.016-.016.048-.032.048-.049.033-.114.082-.163.114-.651.424-1.334.847-2.018,1.237h-.017a6.675,6.675,0,0,1-.667.375,37.548,37.548,0,0,1-3.482,1.627,36.975,36.975,0,0,1-9.537,2.408,39.466,39.466,0,0,1-23.288-4.572c-1.122-.635-2.229-1.318-3.287-2.034-.553-.375-1.106-.782-1.627-1.189a34.95,34.95,0,0,1-4.1-3.661c-.147-.147-.261-.277-.407-.407a2.332,2.332,0,0,1-.651-2.132.731.731,0,0,1,.081-.244,1.044,1.044,0,0,1,.131-.374,3.319,3.319,0,0,1,.179-.358c.048-.066.1-.114.13-.163a1.365,1.365,0,0,1,.2-.244.869.869,0,0,1,.179-.163,2.665,2.665,0,0,1,.716-.488,1.968,1.968,0,0,1,.374-.13.681.681,0,0,1,.163-.033,2.022,2.022,0,0,1,.423-.049,2.277,2.277,0,0,1,1.725.8,34.011,34.011,0,0,0,26.12,10.61,30.516,30.516,0,0,0,4.931-.6c.5-.1,1.041-.212,1.562-.358a31.746,31.746,0,0,0,7.323-2.7,19.25,19.25,0,0,0,2.376-1.416,16.093,16.093,0,0,0,2.1-1.693,13.284,13.284,0,0,0,1.14-1.22,8.676,8.676,0,0,0,.944-1.367,5.079,5.079,0,0,0,.374-.635,9.609,9.609,0,0,0,.83-2.409,10.206,10.206,0,0,0,.163-1.578v-.114a10.486,10.486,0,0,0-.18-1.969c-.064-.244-.129-.521-.195-.781-.846-3.157,4.134-4.508,4.964-1.351a3.216,3.216,0,0,1,.1.374A14.546,14.546,0,0,1,584.844,732.564Z" fill="#00008b"/><path d="M762.733,886.97a1.493,1.493,0,0,1-.309.049c-.651.033-1.318.1-1.985.146-4.2.326-8.4.651-12.6.944-1.563.1-3.125.212-4.687.293-.342.049-.651.065-.977.082-10.171.618-20.358,1.057-30.562.944-.846.015-1.692,0-2.555-.017-30.058-.5-59.025-7.226-87.423-16.648-1.839-.6-3.678-1.237-5.517-1.888-.992-.358-1.985-.716-2.994-1.074-1.741-.635-3.483-1.285-5.191-1.953q-4.077-1.561-8.105-3.254-4-1.708-7.958-3.532c-.879-.391-1.741-.814-2.62-1.221-2.6-1.269-5.191-2.554-7.762-3.9-.863-.439-1.693-.895-2.539-1.367-1.693-.911-3.353-1.872-5.029-2.848-.83-.472-1.66-.96-2.473-1.465-2.588-1.562-5.143-3.173-7.665-4.865-1.465-1.01-2.93-2.018-4.378-3.044-1.383-.992-2.75-2.018-4.1-3.043-2.474-1.9-4.9-3.857-7.258-5.891-1.416-1.2-2.8-2.458-4.182-3.711a.483.483,0,0,0-.147-.162c-.716-.667-1.432-1.318-2.132-2l-2.066-2.018c-1.937-1.953,1.106-4.98,3.075-3.011l1.009,1.025.684.668c.13.114.26.228.374.342.13.13.26.228.374.341.717.716,1.448,1.4,2.181,2.067.277.261.57.521.846.749.667.618,1.334,1.237,2.018,1.806.976.879,1.969,1.725,2.962,2.539.57.472,1.139.96,1.709,1.4a174.3,174.3,0,0,0,26.119,17.478c1.009.57,2.034,1.107,3.027,1.644,1.009.521,2.035,1.058,3.06,1.563,13.849,6.932,28.446,12.237,43.223,16.908a318.15,318.15,0,0,0,45.144,11.2c28.544,4.655,57.446,2.832,86.137.586a8.428,8.428,0,0,1,.927-.081h.033C765.109,882.527,765.207,886.466,762.733,886.97Z" fill="#00008b"/><path d="M426.142,635.865a.088.088,0,0,0,.081.049.675.675,0,0,1-.081-.016Z" fill="#ffdaf1"/><path d="M338.247,703.515a165.025,165.025,0,0,0,4.931,25.827c-.424-.472-.83-.96-1.27-1.448a.062.062,0,0,1-.016-.049,173.051,173.051,0,0,1-3.645-21.287,216.193,216.193,0,0,1-1.3-24.02C337.043,689.52,337.45,696.518,338.247,703.515Z" fill="#f6a2ff"/><path d="M298.229,905.506c-1.155-1.155-2.278-2.295-3.385-3.45-1.4-1.416-2.75-2.848-4.068-4.3-.977-1.042-1.953-2.1-2.864-3.157q-2.613-2.905-5.077-5.875c-1.3-1.53-2.572-3.092-3.809-4.655-1.123-1.4-2.229-2.8-3.287-4.231-.179-.211-.342-.423-.5-.651-2.376-3.157-4.686-6.346-6.916-9.6q-3.393-4.956-6.558-10.041c-1.595-2.539-3.125-5.126-4.622-7.714-1.5-2.62-2.929-5.257-4.329-7.893-.927-1.757-1.855-3.548-2.734-5.338-.895-1.774-1.757-3.58-2.636-5.386-.846-1.807-1.676-3.629-2.49-5.452A248.583,248.583,0,0,1,223.5,734.842a209.836,209.836,0,0,1,4.231-49.912q1.44-6.858,3.483-13.6c1.269-4.264,2.766-8.642,2.685-13.166-.147-8.137-5.94-13.589-12.091-18.227-6.933-5.256-14.614-10.041-20-16.941-4.882-6.216-8.121-14.858-4.622-22.457,3.4-7.389,11.262-11.392,18.666-13.98a65.56,65.56,0,0,1,7.828-2.18c1.269-.293,2.571-.537,3.857-.733.521-.1,1.009-.163,1.513-.227.83-.131,1.66-.245,2.507-.326.081-.016.162-.016.244-.032.976-.1,1.952-.212,2.913-.277a20.883,20.883,0,0,1,1.383,1.839c-8.023-1.676-16.095,4.963-17.934,12.823-1.823,7.844,1.318,16.128,6.135,22.654,4.818,6.509,11.2,11.733,16.974,17.445,5.761,5.745,11.1,12.336,12.97,20.18,2.409,10.089-1.237,20.472-3.889,30.5a167.7,167.7,0,0,0,12.661,118.327c8.82,17.234,20.586,32.856,29.472,50.058C301.191,873.479,301.972,887.133,298.229,905.506Z" fill="#d8f476"/><path d="M354.26,590.266v.016c0,.049-.016.065-.016.114v.016c-.423,2.132-.83,4.215-1.221,6.363a1.329,1.329,0,0,0-.065.293c-1.529,8.072-3.01,16.176-4.394,24.3-3.238,19.415-5.728,39.431-5.875,59.334v.31c-.081,18.275,1.823,36.453,7.063,54.029v.016c.147.439.277.895.407,1.351a2.745,2.745,0,0,1,.1,1.432v.032a2.565,2.565,0,0,1-1.611,1.823,2.861,2.861,0,0,1-4.036-1.725c-.5-1.66-.993-3.271-1.432-4.947-.472-1.677-.9-3.4-1.27-5.126a.062.062,0,0,1-.016-.049,173.051,173.051,0,0,1-3.645-21.287,216.193,216.193,0,0,1-1.3-24.02v-1.562c.1-29.423,5.337-58.748,10.838-87.634a.84.84,0,0,0,.049-.2c.407-2.181.846-4.361,1.253-6.558v-.082c.1.082.212.163.326.245.1.065.211.162.309.244.228.146.439.309.651.472.407.309.846.634,1.269.943a.391.391,0,0,0,.114.065c.814.619,1.627,1.189,2.49,1.758C354.244,590.233,354.26,590.233,354.26,590.266Z" fill="#00008b"/><path d="M656.609,831.521c-.818-.648-1.636-1.295-2.42-1.994" fill="none"/><path d="M574.657,746.076c-.529-.46-1.04-.9-1.534-1.38-.2-.171-.409-.358-.6-.546" fill="none"/><path d="M654.172,829.527a87.1,87.1,0,0,1-9.439-9.49" fill="none"/><path d="M833.574,890.925c-.115-1.3-.261-2.637-.473-3.939-.032-.292-.081-.586-.131-.878-.08-.651-.211-1.27-.325-1.921a57.9,57.9,0,0,0-1.757-7.046c-.244-.765-.488-1.53-.765-2.295a48.909,48.909,0,0,0-6.835-12.775c-7.112-9.471-18.91-16.258-30.9-15.9a1.736,1.736,0,0,1-2.864.212,29.846,29.846,0,0,0-5.6,1.286,29.358,29.358,0,0,0-17.787,38.65c.781,2.018-2.523,2.9-3.3.9-.032-.1-.081-.162-.1-.244a1.565,1.565,0,0,1-.308.049c-.653.033-1.319.1-1.987.146-4.2.326-8.4.651-12.6.944-1.563.1-3.125.212-4.688.292-.341.05-.65.066-.976.083-10.171.618-20.358,1.057-30.562.944-.847.016-1.693,0-2.555-.017-30.057-.5-59.025-7.226-87.423-16.648-1.839-.6-3.678-1.237-5.517-1.888-.993-.358-1.985-.716-2.994-1.074-1.742-.635-3.483-1.285-5.192-1.953q-4.076-1.561-8.1-3.255-4-1.707-7.957-3.531c-.879-.391-1.742-.814-2.621-1.221-2.6-1.269-5.191-2.554-7.762-3.9-.863-.44-1.693-.9-2.539-1.367-1.693-.912-3.352-1.872-5.029-2.849-.83-.471-1.66-.943-2.473-1.464-2.588-1.562-5.143-3.173-7.665-4.865-1.465-1.009-2.93-2.019-4.378-3.044-1.384-.992-2.751-2.018-4.1-3.043-2.473-1.9-4.9-3.857-7.258-5.892-1.415-1.2-2.8-2.456-4.182-3.71a.52.52,0,0,0-.146-.163c-.717-.666-1.434-1.318-2.133-2l-2.066-2.018c-1.937-1.953,1.1-4.979,3.075-3.011l1.009,1.025c.244.212.472.44.7.652,6.445-4.346,17.7,5.63,23.19,8.934,54.681,32.889,119.076,47.926,181.99,42.491,3.89-.342,8.707-.146,11.246,2.408a32.77,32.77,0,0,1,25.158-34.436c.407-.08.83-.162,1.253-.243-5.842-5.859-15.574-6.168-22.734-1.888-9.455,5.7-13.084,16.681-12.987,27.112.033,2.149-3.4,2.149-3.417,0a41.608,41.608,0,0,1,2.669-15.313,224.957,224.957,0,0,1-41.6-4.687,229.481,229.481,0,0,1-54.892-19.04h-.017a215.948,215.948,0,0,1-20.065-11.262,174.752,174.752,0,0,1-63.6-70.19,36.937,36.937,0,0,1-9.537,2.409,39.463,39.463,0,0,1-23.287-4.572,2.142,2.142,0,0,1-.456,1.546,86.581,86.581,0,0,1-31.88,26.558C483,784.9,456.85,786.4,433.807,776.845a84.888,84.888,0,0,1-10.139-4.98c-.668-.358-1.318-.748-1.937-1.139-.65-.375-1.285-.782-1.92-1.171-1.253-.8-2.506-1.66-3.726-2.523-.619-.439-1.2-.863-1.806-1.334-1.53-1.139-3.012-2.327-4.46-3.58-.553-.457-1.074-.912-1.611-1.384-1.953-1.757-3.841-3.6-5.647-5.55-.489-.5-.96-1.025-1.432-1.578a86.362,86.362,0,0,1-6.851-8.772c-.423-.617-.83-1.237-1.237-1.855-.5-.764-.994-1.562-1.448-2.359-.327-.489-.619-1.009-.912-1.53-.733-1.269-1.432-2.571-2.1-3.89-.325-.634-.651-1.285-.943-1.953-.293-.618-.57-1.22-.846-1.838-.245-.554-.489-1.123-.732-1.693-.033-.1-.082-.179-.115-.293-.325-.781-.651-1.578-.944-2.359-1.172-3.093,3.825-4.378,4.963-1.351.1.228.18.44.262.651,4.914-1.954,9.535,1.367,13.426,4.882,10.609,9.731,21.692,18.519,34.875,24.687a95.042,95.042,0,0,0,22.8,7.5c20.39,3.922,42.686.228,59.172-12.189,2.749-2.1,5.418-4.492,6.965-7.567a11.119,11.119,0,0,0,1.2-4.655c-.147-.146-.261-.276-.407-.407a2.333,2.333,0,0,1-.651-2.131.341.341,0,0,1,.082-.245,1.054,1.054,0,0,1,.129-.374,1.245,1.245,0,0,1,.179-.357c.049-.065.1-.114.131-.164a9.838,9.838,0,0,0-.749-1.481c3.352-2.115,7.34,1.238,10.513,3.565a24.586,24.586,0,0,0,28.349.049c2.392-1.806,4.475-4.069,7.193-5.387a8.357,8.357,0,0,1,6.331-.537,10.558,10.558,0,0,0-.179-1.969,37.2,37.2,0,0,1-31.181-5.761c-2.652-1.9-.082-6.315,2.6-4.394a32.321,32.321,0,0,0,26.591,5.436c4.378-1.091,9.016-3.207,11.115-7.421,1.693-3.483.732-7.844-2.9-9.228a23.982,23.982,0,0,1-14.664,5.794c-7.973.374-15.525-3.222-21.09-8.625-2.36-2.295,1.286-5.875,3.629-3.58,6.2,6.037,15.362,9.129,23.76,5.761a17.386,17.386,0,0,0,5.435-3.581c0-.016,0-.016.033-.016a2.353,2.353,0,0,1,.635-.635c3.727-3.84,5.956-9.243,2.782-13.767-9.635-13.865-31.539-11.75-45.127-5.908-7.682,3.3-14.7,7.942-22.328,11.408-7.567,3.385-14.516,7.876-21.888,11.571-25.452,12.629-57.382,9.243-79.758-7.925-2.6-2.019,1.074-5.6,3.661-3.614,14.045,10.807,32.4,15.444,50.042,13.752a67.073,67.073,0,0,0,22.279-6.038c8.349-3.938,16.063-9,24.476-12.758,8.137-3.645,15.509-8.772,23.858-11.962a60.865,60.865,0,0,1,10.008-2.9c-.26-4.3-.374-8.577-.374-12.857,0-2.457,3.84-2.457,3.84,0,0,4.085.114,8.186.391,12.271a50.853,50.853,0,0,1,12.677-.1c7.8.944,15.379,4.166,20.7,10.008a15.122,15.122,0,0,1,3.385,5.664c1.465.276,2.9.5,4.362.748.992.163,1.953.294,2.929.44,2.2.326,4.427.618,6.624.895.715.081,1.415.163,2.148.244,1.318.162,2.669.31,4,.407,1.172.114,2.311.212,3.466.292.879.1,1.725.164,2.588.2,3.075.211,6.135.342,9.211.423.358,0,.732.033,1.075,0,1.724.082,3.466.082,5.206.082h.587c.829-.033,1.675-.033,2.489-.033,2.376-.065,4.7-.13,7.047-.261,1.2-.08,2.441-.146,3.645-.226q1.832-.123,3.661-.294c2.442-.228,4.85-.488,7.275-.813,1.2-.147,2.441-.342,3.646-.5A179.054,179.054,0,0,0,716.158,674.4c15.638-7.974,30.627-18.926,39.187-34.468,5.6-10.122,7.99-21.042,4.524-32.27-3.108-10.156-9.91-18.992-18.064-25.795-7.42-6.151-21.953-16.274-31.717-9.585-2.9,2.018-3.386,4.655-2.49,7.194a2.263,2.263,0,0,1,1.22,2.326,12.262,12.262,0,0,0,1.546,1.871,14.411,14.411,0,0,0,10.123,4.1c3.3.033,3.3,5.1,0,5.045-5.859-.032-13.28-3.661-16.73-8.982a9.239,9.239,0,0,0-7.291,2.75,6.943,6.943,0,0,0-1.155,7.746c2.864,6.656,11.017,8.2,17.4,9.488a2.59,2.59,0,0,1,1.791,3.141,2.62,2.62,0,0,1-3.141,1.757,50.56,50.56,0,0,1-11.946-3.563,18.994,18.994,0,0,1-4.507-3.012,2.546,2.546,0,0,1-1.253.261c-3.141-.066-6.981-.277-9.569,1.823-3.06,2.522-1.3,5.793.764,8.315a32.85,32.85,0,0,0,13.491,9.439c11.474,4.605,26.608,5.891,35.868-3.662,2.295-2.359,5.924,1.221,3.646,3.581-11.9,12.254-32.256,10.041-46.2,2.539a41.576,41.576,0,0,1-5.192-3.255,2.352,2.352,0,0,1-1.187,1.644,104.673,104.673,0,0,1-33.591,13.133c-1.317.26-2.668.521-4,.732-.326.064-.668.13-.977.179-1.075.179-2.148.325-3.222.471-.391.066-.8.115-1.205.163-1.253.163-2.507.294-3.759.424-.1,0-.178.016-.26.016-1.416.146-2.848.228-4.247.293a15.746,15.746,0,0,1-1.758.1c-.814.032-1.611.081-2.408.1-.9.016-1.791.033-2.67.033-30.735.111-60.474-10.834-87.22-25.538a33.316,33.316,0,0,0-4.007-3.578c-5.7-4.3-9.115-4.142-14.486-7.651a18.07,18.07,0,0,0-.952-7.726c-6.315-17.514-10.9-46.144-31.925-51.342a33.21,33.21,0,0,0-15.093-.136,167.016,167.016,0,0,0-23.143-17.537c-12.079-7.583-26.735-15.6-41.224-16.22a28.112,28.112,0,0,0-27.76,17.1,139.627,139.627,0,0,0-28.421,71.316c-1.523,8.041-3,16.115-4.377,24.2-3.238,19.415-5.728,39.431-5.875,59.334v.309c.082,17.479,2.181,34.842,7.47,51.621a2.407,2.407,0,0,1-.407,2.409v.016c.147.439.277.895.407,1.35a2.746,2.746,0,0,1,.1,1.432v.033a1.547,1.547,0,0,1,.162.18c.212.227.374.455.553.683.228.309.472.618.717.912l.033.032c.992,1.269,1.984,2.571,2.962,3.856,1.643,2.165,3.254,4.362,4.8,6.575.7.976,1.4,1.969,2.068,2.962,1.367,1.952,2.668,3.921,3.971,5.94,1.106,1.692,2.18,3.385,3.238,5.11.765,1.237,1.514,2.49,2.246,3.727a.016.016,0,0,1,.016.016c.425.308.819.612,1.234.919-.01.022-.026.041-.034.064a3.553,3.553,0,0,0,1.388,4.126,7.458,7.458,0,0,0,.274,1.614,6.1,6.1,0,0,0,4.088,4.351,2.324,2.324,0,0,0,.728.073c1.123,1.683,2.177,3.411,3.189,5.163a9.773,9.773,0,0,0,2.319,3.975,2.292,2.292,0,0,0,.3.216c.319.823.649,1.642,1,2.452a.955.955,0,0,0,.606.486c-.013,1.092-.064,2.183-.064,3.276a1.056,1.056,0,0,0,.839,1.1c-3.693,14.384,3.5,32,21.661,33.65,5.373,7.431,10.872,14.837,16.653,22,1.908,4.253,3.644,8.307,5.272,11.361,4.16,7.8,10.332,11.734,16.9,12.795a144.95,144.95,0,0,0,28.487,21.1c15.322,8.524,32.4,12.376,48.529,18.934,17.729,7.206,34.925,13.163,53.614,17.448,8.421,1.93,15.6.047,21.088-3.935,75.128,15.571,141.518,5.687,161.855,1.894.107.18.19.371.3.549,3.932,6.1,9.01,9.46,15.738,12.1,11.41,4.481,27.233-1.192,34.527-10.814.79-.353,1.577-.735,2.357-1.086a29.907,29.907,0,0,0,11.044-8.067c3.944-4.892,6.857-9.685,7.551-15.791.353-.157.722-.318,1.067-.471.048-.538.1-1.058.13-1.6.065-.895.113-1.79.162-2.7.066-1.416.1-2.849.1-4.281C833.931,896.165,833.817,893.545,833.574,890.925Z" fill="#ffb4e7"/><path d="M568.362,451.8c1.92,6.591,3.808,13.182,5.744,19.757,4.753-10.253,11.49-18.406,17.446-27.015,6.8-9.813,7.193-20.537-.114-29a27.964,27.964,0,0,0-10.22-7,110.986,110.986,0,0,1-24.736-13.931c-3.417-2.555-7.47-4.214-11.164-6.4a124.208,124.208,0,0,1-10.968-6.639c-3.646-2.636-7-3.954-11.083-1.254-3.076,2.067-6.379,1.238-9.715.18-3.857-1.2-7.8-2.946-11.685-3.466a26.091,26.091,0,0,0-3.564-.489c-.553-.048-1.123-.065-1.741-.065-1.579,0-2.751.147-3.092.147-18.552.715-28.984-2.474-38.162-5.322-7.812-2.392-14.565-4.476-24.785-3.694a52.806,52.806,0,0,0-13.41,2.929c-2.018.635-4.28,1.334-7.079,2.132-4.394,1.2-8.072,2.132-23.337,4.963-1.5.261-2.962.554-4.361.8l-1.432.277c-.017-.017-.033,0-.049,0a76.68,76.68,0,0,0-8.137,1.514c-.83.178-1.627.373-2.441.585a33.246,33.246,0,0,0-11.245,5.761c-4.9,3.694-9.976,5.435-15.981,4.459-2.978-.488-5.891-.016-7.5,2.652-5.761,9.472-14.727,15.46-22.783,22.41-5.208,4.491-10.513,8.886-15.46,13.653-8.755,8.511-9.146,20.961-1.465,30.611,2.832,3.581,5.094,7.584,7.893,11.164,3.32,4.28,6.949,8.317,10.855,12.971,1.448-8.74,2.75-16.567,4.019-24.395l.977-.033c.114,2.376.8,4.9.293,7.08-2.2,9.455-2.441,19.008-2.246,28.657.049,2.361-.993,4.721-.976,7.1.016,1.448.846,3.939,1.725,4.15,1.367.342,3.905-.374,4.475-1.481a28.644,28.644,0,0,0,3.466-9.878c1.449-13.3,2.864-26.608,3.5-39.952.716-15,3.646-28.87,13.1-40.9,3.743-4.752,6.1-10.659,9.244-16.29-.146,1.367.065,2.946-.472,4.167-1.79,4.036-3.385,8.283-5.842,11.863a77.728,77.728,0,0,0-10.415,21.6c-.131.439-.261.862-.391,1.3h.016a87.527,87.527,0,0,0-3.287,21.709c-.016.912-.065,1.84-.049,2.767a337.028,337.028,0,0,1-2.164,33.883c-.44,4.1-2.669,8.12-4.638,11.895a5.818,5.818,0,0,1-1.986,2,13.29,13.29,0,0,1-2.717,1.368c0,.081.016.178.016.276-.195,2.587-.456,5.191-.684,7.763-.927,10.545-1.9,21.449-.862,32.091a63.523,63.523,0,0,0,1.464,8.674c.049.277.114.554.18.8a62.887,62.887,0,0,0,7.518,17.787c.244.391.488.765.748,1.172q1.221,1.88,2.588,3.71c.212.293.423.57.635.846.26.359.537.717.846,1.075.374.472.781.944,1.172,1.416.211.26.423.52.651.764.927,1.09,1.888,2.116,2.913,3.158.146.146.309.308.455.471.554.537,1.123,1.107,1.725,1.66.456.424.944.863,1.416,1.3a1.043,1.043,0,0,1,.2.179c.52.456,1.041.912,1.578,1.367.032.017.049.017.065.033.358.325.749.65,1.123.944.293.244.6.488.911.732a1.8,1.8,0,0,1,.277.228c.326.228.635.471.96.715,1.888,1.449,3.841,2.784,5.859,4.053.341.195.651.391.976.586.83.521,1.66,1.009,2.49,1.481l.83.439q1.416.782,2.88,1.514c.359.179.733.358,1.107.553.081.033.163.065.261.1.358.195.764.357,1.155.553.846.391,1.692.765,2.555,1.123.439.163.863.358,1.3.5,1.058.456,2.116.863,3.206,1.237.456.147.911.325,1.4.472.359.13.684.228,1.075.358.732.244,1.48.489,2.229.683.439.147.895.261,1.334.391.456.131.912.244,1.351.358.44.1.912.228,1.351.342.39.1.8.179,1.188.26a2.647,2.647,0,0,0,.39.1c.342.065.717.163,1.075.211.911.2,1.838.359,2.766.538l.879.146c1.3.2,2.62.375,3.922.537q.756.073,1.465.146c.227,0,.439.033.65.049.391.033.733.081,1.107.081.326.033.619.05.928.066a12.168,12.168,0,0,0,1.529.065.247.247,0,0,0,.147.032c.618,0,1.22.033,1.839.033h.163c.52.032,1.041.032,1.578.032.619-.015,1.237-.015,1.872-.048l.1-.017c.668,0,1.351-.032,2.018-.065l.456-.032a26.11,26.11,0,0,1-3.678-10.546,1.848,1.848,0,1,1,3.661-.488c.033.293.082.57.131.879.016.179.065.358.1.537.081.456.2.928.292,1.367a4.427,4.427,0,0,1,.147.553c.114.407.244.83.391,1.221.064.212.162.456.243.684a.337.337,0,0,0,.082.194c.081.244.179.44.26.635a10.91,10.91,0,0,0,.537,1.156,6.367,6.367,0,0,0,.342.651,14.928,14.928,0,0,0,1.253,1.969,5.412,5.412,0,0,0,.456.6,10.778,10.778,0,0,0,.781.944,3.428,3.428,0,0,0,.407.439c.032.033.065.081.114.131a5.033,5.033,0,0,0,.521.5c.244.245.52.489.764.717.163.146.31.277.472.407l.472.374c.228.163.456.325.7.5a2.542,2.542,0,0,0,.407.276c.114.082.244.163.358.244a27.179,27.179,0,0,0,2.783,1.6c.244.1.471.212.716.309.26.131.488.228.732.326.293.13.537.244.83.342a6.458,6.458,0,0,0,.765.293c.26.1.5.179.781.26a2.882,2.882,0,0,0,.6.211,1.413,1.413,0,0,0,.212.065c10.415,2.848,22.767,2.474,23.483,2.458,6.786-.26,12.71-.456,17.869-.765h.032c.586-.049,1.156-.1,1.709-.163.911-.081,1.839-.146,2.75-.276,1.009-.1,2-.212,2.994-.342.5-.065.993-.114,1.5-.179.488-.082.976-.147,1.5-.244.488-.049.992-.13,1.481-.211s.976-.18,1.481-.261c.439-.065.862-.146,1.318-.228.341-.065.7-.163,1.041-.228a8.223,8.223,0,0,0,.96-.2c.375-.081.749-.162,1.091-.259.358-.049.716-.147,1.058-.228.586-.163,1.123-.31,1.692-.44a11.641,11.641,0,0,0,1.27-.39l.178-.033c.326-.1.652-.212.977-.325.114-.016.195-.049.293-.066.016-.015.049-.015.065-.032.537-.179,1.042-.358,1.578-.553.5-.2,1.026-.391,1.53-.586,1.091-.472,2.148-.96,3.157-1.5a8.671,8.671,0,0,0,1.091-.6,24.621,24.621,0,0,0,2.831-1.84c.131-.113.277-.194.407-.325.244-.179.472-.374.7-.554v-.081a1.96,1.96,0,0,1,.847-1.35,1.41,1.41,0,0,1,.862-.293l.13-.017a20.056,20.056,0,0,0,5.37-14.255,1.847,1.847,0,0,1,1.855-1.871,1.882,1.882,0,0,1,1.84,1.9,25.479,25.479,0,0,1-2.734,11.8q-.539.879-1.123,1.708l1.123-.146h.1a99.226,99.226,0,0,0,14.939-3.6,69.748,69.748,0,0,0,23.288-14.24c1.53-1.383,3.011-2.864,4.427-4.41a72.92,72.92,0,0,0,5.37-6.559,5.938,5.938,0,0,0,.488-.651c.782-1.074,1.5-2.147,2.2-3.254q.269-.366.488-.733c1.433-2.294,2.784-4.687,4.037-7.16,12.677-25.452,8.966-55.689,5.711-82.362-.178-1.432-.357-2.88-.536-4.329-.033-.228-.049-.472-.1-.7a44.839,44.839,0,0,1-10.659-15.248c-3.4-7.6-6.429-15.379-9.179-23.239q-1.124-3.272-2.2-6.543c-.342-.959-.651-1.952-.976-2.929-1.14-3.515-2.393-6.949-3.825-10.236a75.174,75.174,0,0,0-3.824-7.7c-.049-.1-.13-.228-.179-.342-.358-.586-.716-1.188-1.09-1.79a55.9,55.9,0,0,0-9.992-11.994c-3.125-2.816-5.045-7.161-7.128-11.034-.684-1.269-.212-3.189.488-5.045.309.342.83.651.944,1.091,1.448,5.158,4.735,9.048,8.381,12.71,8.9,8.983,14,20.2,18.227,31.929.032.1.065.211.1.293,1.139,3.157,2.246,6.33,3.352,9.52,2.637,7.518,5.273,15.053,8.284,22.409A39.367,39.367,0,0,0,568.329,483.8c2.458,1.594,5.354,2.523,8.414,3.922.879-4.59-.96-7.584-2.588-10.513-3.238-5.94-6.672-11.766-7.193-18.732a54.9,54.9,0,0,1,.2-6.542C567.548,451.882,567.955,451.833,568.362,451.8Z" fill="#ffb4e7"/><path d="M482.765,524.16c-2.212,14.129-19.974,21.469-23.52,22.8l2.382,13.343.4,3.432-1.434.133-4.821.446-.394-3.51q-1-6.583-1.991-13.168a35.043,35.043,0,0,1-11.863-5.776,30.013,30.013,0,0,1-10.373-13.168c-1.1-2.85-2.98-7.582-.582-11.709,2.756-4.749,9.668-5.969,16.333-7.144,18.332-3.27,29.878-1.794,34.3,4.39C483.755,517.8,483.12,521.931,482.765,524.16Z" fill="#00008b"/><path d="M514.784,561.376A62.558,62.558,0,0,1,493.2,579.583a71.036,71.036,0,0,1-7.3,3.293c-.052-.53-.081-1.061-.182-1.572-.334-1.944-.736-3.868-1.164-5.774a51.266,51.266,0,0,0-2.064-6.695,52.4,52.4,0,0,0,22.987-2.788A46.572,46.572,0,0,0,514.784,561.376Z" fill="#00008b"/><path d="M519.834,556.441l-6.038,3.922a.6.6,0,0,1-.2.114,45.891,45.891,0,0,1-8.805,4.394,50.074,50.074,0,0,1-22.132,2.669l-.732-.066-1.677-.162.5,1.335.228.553a60.086,60.086,0,0,1,2.018,6.542c.406,1.9.813,3.808,1.155,5.761.033.179.033.374.065.569.033.163.033.342.065.521l.212,2.246v.033l.96-.391a4.554,4.554,0,0,1,.488-.2h.033c.211-.081.407-.162.6-.243a70.094,70.094,0,0,0,7.486-3.369,64.213,64.213,0,0,0,22.083-18.634h.017a1.1,1.1,0,0,0,.179-.292l2.49-3.337.016-.016,1.888-2.555Zm-32.581,24.428c-.341-1.873-.716-3.727-1.139-5.583a48.99,48.99,0,0,0-1.416-4.995,53.391,53.391,0,0,0,21.449-3.06c.895-.342,1.79-.716,2.7-1.091a63.337,63.337,0,0,1-16.518,12.369C490.7,579.338,488.994,580.136,487.253,580.869Z" fill="#00008b"/><path d="M427.547,584.07a76.459,76.459,0,0,1-10.426-4.227,67.572,67.572,0,0,1-22.072-17.175,68.162,68.162,0,0,0,29.752,8.871A68.826,68.826,0,0,0,427.547,584.07Z" fill="#00008b"/><path d="M429.725,585.8l-.635-2.051a5.2,5.2,0,0,1-.179-.618,66.911,66.911,0,0,1-2.506-11.5c0-.082-.016-.131-.016-.212l-.147-1.091-1.35-.1h-.26a65.852,65.852,0,0,1-28.415-8.478c-.1-.049-.162-.1-.276-.147l-6.2-3.466-.781-.44,2.2,2.62.033.033,1.692,2.018a13.125,13.125,0,0,0,.863,1.041A69.027,69.027,0,0,0,416.3,580.95a78.58,78.58,0,0,0,10.627,4.312c.016,0,.016.017.033.017l1.09.341v.016l.016.016h.065l1.319.424.422.13Zm-4.459-3.938a73.163,73.163,0,0,1-7.339-3.125,66.859,66.859,0,0,1-16.47-11.408,67.324,67.324,0,0,0,21.905,5.42A65.193,65.193,0,0,0,425.266,581.861Z" fill="#00008b"/><path d="M539.72,511.965c-.016.716-.049,1.432-.13,2.148,0,.179-.033.341-.049.521a65.491,65.491,0,0,1-5.126,22.734,55.263,55.263,0,0,1-15.558,21.026l-.016.016a2.35,2.35,0,0,1-.342.277l-.033.032a43.806,43.806,0,0,1-3.661,2.653c0,.016,0,.016-.017.016a.016.016,0,0,1-.016.016h-.016c-.358.213-.683.424-1.042.651s-.732.44-1.106.652a6.277,6.277,0,0,1-.554.309c-.195.114-.374.228-.553.325l-.585.293c-.2.1-.391.2-.57.293-.277.162-.586.293-.863.423-.456.228-.928.439-1.383.635-.163.065-.309.146-.456.195-.293.13-.586.244-.911.375-.423.178-.83.341-1.253.488-1.188.439-2.409.83-3.613,1.172-.081.016-.179.048-.26.065-.456.129-.9.244-1.351.341-.342.1-.7.179-1.042.26-.309.065-.634.131-.943.18l-.245.048c-.26.066-.521.114-.781.163l-.293.049h-.032c-.635.114-1.253.212-1.888.293-.374.049-.732.1-1.107.13-.227.033-.455.065-.683.081-.277.033-.57.05-.846.082h-.131c-.064,0-.114.016-.178.016-.668.049-1.335.1-2,.114q-1.074.05-2.148.049h-.2c-.7,0-1.415-.016-2.115-.049-.1,0-.179-.016-.277-.016a8.426,8.426,0,0,1-.911-.049c-.31-.016-.619-.032-.928-.065-.342-.016-.667-.049-1.009-.082h-.016c-.57-.048-1.156-.1-1.725-.178-.977-.114-1.969-.261-2.946-.456-.228-.033-.455-.065-.667-.1-.228-.032-.439-.081-.651-.13-.439-.082-.862-.163-1.318-.26-.5-.1-.993-.212-1.5-.325-.472-.115-.944-.229-1.416-.359-.212-.048-.423-.1-.618-.163a4.381,4.381,0,0,1-.5-.13c-.521-.146-1.025-.277-1.53-.439-.39-.114-.748-.228-1.122-.358-.375-.114-.733-.244-1.107-.374-.489-.163-.96-.309-1.432-.489-.179-.064-.375-.13-.554-.211-.651-.228-1.3-.488-1.953-.766-.146-.048-.292-.113-.439-.178-.781-.325-1.578-.667-2.36-1.042-.26.147-.537.293-.748.423-.537.277-1.026.586-1.546.879h-.016c-.18.081-.359.179-.521.261-.1.048-.212.114-.326.163-.5.276-1.025.52-1.546.764a57.1,57.1,0,0,1-5.5,2.328c-.309.113-.619.227-.912.341l-1.22.39c-.862.294-1.725.554-2.6.782-.6.163-1.22.325-1.823.472-.667.178-1.35.341-2.034.488-.667.147-1.334.277-2.018.407-.456.081-.9.162-1.351.227q-.683.123-1.366.2l-.733.1-.651.1c-1.025.114-2.018.212-3.027.293-.277.016-.569.049-.846.049-.228.016-.456.033-.683.033-.179.016-.342.032-.5.032-.342.016-.684.033-1.009.033h-.6c-.928.032-1.774.016-2.653,0-.52-.017-1.057-.065-1.595-.1-.667-.033-1.334-.081-2-.13s-1.335-.114-1.986-.2c-.032,0-.081-.016-.114-.016a2.222,2.222,0,0,0-.325-.032c-.065,0-.114-.017-.179-.017-.049-.016-.114-.016-.163-.032h-.016a.367.367,0,0,1-.13-.033l-.277-.032c-.407-.049-.8-.114-1.188-.163-.1-.016-.179-.032-.276-.049-.424-.065-.863-.13-1.286-.211-.1-.017-.179-.033-.261-.049a1.2,1.2,0,0,0-.244-.032c-.13-.033-.244-.05-.358-.082-.114-.016-.228-.049-.342-.065a2.511,2.511,0,0,0-.39-.081c-.195-.033-.391-.082-.57-.115s-.358-.081-.537-.129c-.488-.115-.927-.213-1.4-.326-.439-.114-.879-.212-1.318-.342-.456-.114-.879-.244-1.319-.374a.207.207,0,0,1-.1-.016c-.049-.017-.081-.033-.13-.049l-.83-.244c-.407-.114-.8-.244-1.188-.375-.082-.032-.147-.049-.228-.081a.29.29,0,0,1-.114-.033l-.146-.048c-.814-.277-1.6-.554-2.393-.863s-1.643-.651-2.457-.976c-.016,0-.016-.017-.033-.017-.455-.179-.878-.39-1.318-.569-.081-.049-.179-.082-.244-.114a6.4,6.4,0,0,1-.749-.342,1.825,1.825,0,0,1-.309-.13,2.663,2.663,0,0,1-.293-.146c-.521-.229-1.025-.5-1.529-.749-.44-.228-.879-.456-1.335-.683-.57-.294-1.106-.6-1.676-.912h-.016v-.017c-1.237-.683-2.409-1.382-3.564-2.115,0,0-.017,0-.017-.016a.813.813,0,0,1-.276-.179l-.033-.033A84.262,84.262,0,0,1,361.733,528c-.244-.457-.472-.912-.7-1.384s-.439-.944-.634-1.432c-1.009-2.229,1.725-3.548,3.922-3.076a1.475,1.475,0,0,0-.863.456c-.016.032-.049.1.065.375a29.511,29.511,0,0,0,1.253,2.7c.017.016.017.049.033.065A81.419,81.419,0,0,0,393,557.3l.114.1.9.586c.846.537,1.742,1.058,2.718,1.611l.472.277c.39.228.765.439,1.106.618.294.147.586.31.863.456l.765.391c.374.195.748.39,1.2.6.163.081.309.162.553.276.212.1.407.2.6.277a2.131,2.131,0,0,1,.325.13l.96.439h.325l.245.245c.7.293,1.415.586,2.131.862.749.293,1.5.57,2.214.814l.195.065c.781.26,1.562.521,2.376.765l.163.032.049.033c.8.228,1.595.439,2.392.65l1.9.457c.114.032.26.049.5.1l.977.212.57.1c.39.081.781.131,1.155.2l1.79.261.114.031c.195.017.358.033.537.065l.114.017c1.074.114,2.132.212,3.141.26l.667.049c.277.016,1.318.1,1.562.1.472.016.944.016,1.432.016.2,0,.391,0,.586-.016.163.016.326,0,.488,0h.619c.439-.017.879-.017,1.432-.065.472,0,.944-.049,1.416-.082,1.155-.081,2.327-.195,3.531-.373.651-.082,1.318-.163,2-.294.341-.049.7-.113,1.057-.178l.228-.05c1.27-.228,2.556-.5,3.858-.862,1.253-.309,2.375-.619,3.449-.961.652-.211,1.3-.439,1.9-.634l.423-.163c.44-.162.879-.325,1.335-.5.683-.261,1.351-.537,2.051-.846.439-.179.862-.375,1.318-.6.7-.325,1.4-.666,2.148-1.057.195-.1.391-.212.6-.326.1-.049.211-.1.325-.162l.212-.115c.244-.13.472-.26.716-.407.114-.081.244-.146.358-.211.147-.081.26-.146.374-.211.147-.082.309-.18.489-.277l.992-.57.749.358c.749.358,1.5.684,2.36,1.042a2.588,2.588,0,0,0,.358.163c.586.244,1.188.488,1.871.748,0,0,.423.163.488.179.44.163.879.326,1.384.489.341.129.683.244,1.041.357l1.074.359c.635.195,1.253.374,1.953.553q.927.267,1.9.488c.472.114.944.228,1.449.325.439.1.846.179,1.253.261.374.081.748.13,1.2.211.032,0,.065.016.1.016.912.2,1.872.326,2.783.44.374.065.765.1,1.107.13.13.017.244.017.358.033l.179.016c1.709.163,3.434.244,5.11.244a47.888,47.888,0,0,0,5.094-.26c1.2-.114,2.457-.293,3.791-.538a43.562,43.562,0,0,0,4.362-1.008c1.269-.374,2.376-.749,3.45-1.156.391-.13.748-.277,1.155-.455l.863-.359.7-.325c.341-.146.683-.309,1.074-.489.228-.113.471-.227.781-.39l1.041-.553.44-.244c.569-.341,1.139-.667,1.643-.993l.31-.2,1.122-.732c1.042-.716,2.083-1.481,3.093-2.311l.146-.114.228-.195a53.626,53.626,0,0,0,14.76-20.408,64.546,64.546,0,0,0,4.768-20.652c.065-.536.1-1.09.13-1.643.1-.83.147-1.66.163-2.506a.542.542,0,0,0-.146-.423.954.954,0,0,0-.375-.228C537.23,509.084,539.769,509.849,539.72,511.965Z" fill="#00008b"/><path d="M366.624,523.318a1.554,1.554,0,0,1-.243,1.027,3.365,3.365,0,0,1-.238.417,2.041,2.041,0,0,1-.431.431,2.659,2.659,0,0,1-1.013.554,4.544,4.544,0,0,1-.718.2,3.5,3.5,0,0,1-1.377.643.507.507,0,0,1-.173.013c-.215.045-.452.049-.679.073a3.84,3.84,0,0,1-1.629-.355,5.52,5.52,0,0,1-.67-.412,2.153,2.153,0,0,1-.67-.836,1.742,1.742,0,0,1-.286-1.018,1.649,1.649,0,0,1,.277-1.006,1.872,1.872,0,0,1,.636-.868,6.859,6.859,0,0,1,1.009-.668,3.327,3.327,0,0,1,.426-.234,10.591,10.591,0,0,1,1.232-.414,1.736,1.736,0,0,1,.226-.034c.042-.022.075-.012.118-.023.323-.057.646-.083.98-.12a4.108,4.108,0,0,1,1.619.366c.231.141.439.271.659.412a2.5,2.5,0,0,1,.84,1.154A5.1,5.1,0,0,1,366.624,523.318Z" fill="#00008b"/><path d="M541.509,511.5c-.029.265-.082.541-.112.782a2.262,2.262,0,0,1-.645,1.009,2.031,2.031,0,0,1-.717.562.586.586,0,0,1-.284.177,4.6,4.6,0,0,1-2.461.362h-.048c-.024,0-.036.012-.06.012a4.779,4.779,0,0,1-1.895,0c-.012,0-.013-.011-.024,0-.28-.133-.557-.186-.824-.308a3.335,3.335,0,0,1-1.3-1.022c-.127-.25-.265-.489-.367-.705a1.678,1.678,0,0,1-.078-1.18,1.9,1.9,0,0,1,.415-1.1,2.473,2.473,0,0,1,.915-.819,2.759,2.759,0,0,1,1.21-.513c.143-.025.3-.05.442-.065a12.909,12.909,0,0,1,1.363-.171,3.006,3.006,0,0,1,.444.026,7.973,7.973,0,0,1,1.36.15,3.78,3.78,0,0,1,1.6.742c.173.2.382.383.555.587A2.311,2.311,0,0,1,541.509,511.5Z" fill="#00008b"/><path d="M486.228,587.1a23.586,23.586,0,0,1-7.144,16.144c-10.513,10.594-30.123,9.813-41.32.2-4.849-4.182-6.949-10.4-8.983-15.737a13.917,13.917,0,0,1-.553-1.644.743.743,0,0,1-.081-.162c-.017-.065-.066-.18-.082-.245l-.016-.016v-.016c-.179-.537-.358-1.025-.5-1.546-.325-1.025-.618-2.067-.911-3.092-.163-.667-.341-1.334-.488-1.969a.7.7,0,0,1-.033-.179c-.114-.521-.227-1.009-.341-1.513a1.465,1.465,0,0,1-.065-.261c-.049-.277-.1-.537-.147-.8-.065-.277-.114-.554-.163-.814a1.5,1.5,0,0,0-.065-.293v-.1c-.049-.325-.114-.635-.163-.96a4.915,4.915,0,0,0-.081-.488,4.8,4.8,0,0,1-.065-.488c-.065-.537-.146-1.074-.212-1.595-.048-.423-.13-.846-.178-1.3-.05-.667-.131-1.35-.163-2l.667.049c.277.016,1.318.1,1.562.1.472.016.944.016,1.432.016.2,0,.391,0,.586-.016.065,1.107.179,2.2.342,3.255v.016c.082.65.179,1.285.293,1.92.032.131.049.261.081.407,0,.065.017.114.017.179.016.1.032.212.048.326.017.065.033.146.049.228a5.749,5.749,0,0,0,.147.732c.048.276.1.553.146.813.049.277.114.537.179.814.049.211.114.439.163.667s.1.456.146.667c.033.13.065.245.1.375a2.617,2.617,0,0,0,.081.277c.017.048.017.113.033.162.032.163.081.31.114.489.211.829.439,1.66.716,2.489.1.326.195.635.293.944.081.326.2.635.293.944q.219.732.488,1.465c.163.439.309.863.472,1.3a.611.611,0,0,0,.081.179c.082.244.163.472.26.7s.18.472.277.716c.195.5.391,1.025.6,1.545.147.342.294.7.456,1.059.456,1.073.911,2.164,1.432,3.221.261.521.521,1.059.814,1.579.277.521.586,1.025.9,1.546.228.342.439.684.683,1.009a15.931,15.931,0,0,0,3.3,3.4c.212.162.423.325.651.487.439.326.895.619,1.367.912.228.146.456.276.7.407a30.435,30.435,0,0,0,3.433,1.692c.44.2.895.358,1.335.521.456.163.911.326,1.383.456.456.163.928.292,1.383.407h.017c.944.211,1.887.407,2.831.569.293.049.619.081.912.114a.455.455,0,0,1,.146.016c.472.049.96.1,1.449.114a.939.939,0,0,0,.211.016q.781.05,1.562.05c.521,0,1.026-.017,1.546-.05s1.025-.065,1.53-.13c.309-.033.6-.081.912-.13.325-.033.618-.1.927-.147.082-.015.146-.032.212-.048a.584.584,0,0,0,.162-.033,2.582,2.582,0,0,0,.375-.081c.293-.066.6-.131.911-.212a15.08,15.08,0,0,0,1.481-.423c.325-.114.651-.228.977-.358a8.876,8.876,0,0,0,.829-.325,4.764,4.764,0,0,0,.521-.212c.147-.081.293-.146.456-.228.163-.065.309-.146.455-.212.147-.081.293-.162.44-.227a26.03,26.03,0,0,0,2.539-1.611c.26-.2.521-.391.781-.6.309-.259.618-.52.911-.8.163-.147.326-.309.488-.472s.315-.315.473-.472c.276-.293.553-.586.813-.878.195-.212.374-.424.553-.635.163-.212.342-.423.5-.651a2.845,2.845,0,0,0,.374-.521c.179-.228.342-.472.5-.716a6.792,6.792,0,0,0,.39-.635c.114-.195.228-.39.342-.6a15.043,15.043,0,0,0,.813-1.627c.114-.277.245-.553.342-.846.114-.277.212-.554.309-.847A19.214,19.214,0,0,0,482,587.085a.247.247,0,0,1,.016-.1v-.016c-.146-.879-.26-1.742-.374-2.62-.1-.651-.163-1.319-.244-1.969-.033-.261-.049-.5-.082-.749a5.774,5.774,0,0,0-.1-.733c-.033-.259-.049-.488-.1-.748-.033-.244-.065-.5-.1-.749-.016-.162-.049-.341-.081-.5l-.1-.537a2.915,2.915,0,0,0-.065-.375.486.486,0,0,0-.032-.146c-.065-.455-.163-.927-.261-1.4-.325-1.384-.716-2.783-1.172-4.151-.439-1.366-.943-2.733-1.5-4.084v-.016c-.244-.619-.52-1.254-.83-1.872a1.206,1.206,0,0,1,.147-1.367c.032,0,.065.016.1.016.912.2,1.872.326,2.783.44.374.065.765.1,1.107.13a18.282,18.282,0,0,1,.814,1.936c.195.472.374.912.553,1.351v.017c.114.292.212.553.309.83s.195.553.293.813c.195.554.374,1.107.553,1.66.179.57.326,1.14.488,1.693.147.57.293,1.107.424,1.692.146.619.276,1.237.406,1.856.033.163.066.325.114.5,0,.032.017.081.017.114a.057.057,0,0,0,.016.048,1.256,1.256,0,0,0,.049.359c.048.179.1.39.13.585.016.066.032.163.049.261.146.683.26,1.351.39,2.05.033.18.065.342.082.522v.065c0,.065.016.13.016.2a1.607,1.607,0,0,1,.033.39,3.663,3.663,0,0,0,.048.39v.017c.017.472.049.944.049,1.4h.033a21.551,21.551,0,0,0,.195,2.328.936.936,0,0,1,0,.52C486.212,587.1,486.228,587.1,486.228,587.1Z" fill="#00008b"/><path d="M482.014,586.977v.015a.192.192,0,0,0-.016.1,20.581,20.581,0,0,1-7.841,15.424,20.977,20.977,0,0,1-3.322,2.221c-.29.157-.6.314-.887.456a24.149,24.149,0,0,1-2.8,1.113,23.624,23.624,0,0,1-2.394.643c-.239.057-.5.1-.735.143-.617.115-1.233.215-1.849.287-.5.058-1.011.1-1.525.13s-1.028.044-1.542.045a28.783,28.783,0,0,1-4.289-.32c-.944-.14-1.889-.337-2.834-.563-.928-.24-1.856-.523-2.768-.848-.447-.17-.894-.339-1.342-.523-3.769-1.585-7.34-3.866-9.46-6.9a41.272,41.272,0,0,1-4.263-8.43c-.211-.511-.422-1.022-.615-1.533-.193-.483-.369-.951-.545-1.42-.37-.979-.722-1.959-1.022-2.939-.212-.624-.407-1.249-.6-1.888-.264-.823-.5-1.661-.692-2.5-.124-.426-.231-.867-.338-1.293s-.214-.894-.3-1.334c-.125-.54-.25-1.079-.341-1.633-.108-.483-.2-.98-.271-1.463-.145-.767-.255-1.548-.366-2.329,1.2-.016,2.417-.06,3.65-.162,1.216-.087,2.45-.2,3.682-.375q1.053-.129,2.106-.3c1.8-.287,3.594-.659,5.406-1.116a61.565,61.565,0,0,0,14.433-5.52c7.435,4.86,10.308,13.065,7.276,20.5-.737,1.805,2.767,2.566,3.5.775,3.083-7.533.691-15.654-5.655-21.339.637.269,1.291.523,1.944.763s1.308.481,1.979.708c.739.254,1.479.494,2.235.72.671.213,1.341.4,2.029.58.67.183,1.357.352,2.044.508.5.127,1,.24,1.5.324q1.314.3,2.627.507a53.236,53.236,0,0,1,2.668,8.248q.214.96.379,1.917c.054.355.126.7.163,1.037.074.5.147.994.2,1.491.073.5.13.98.186,1.477.075.668.15,1.321.242,1.974C481.757,585.231,481.868,586.1,482.014,586.977Z" fill="#ff81cb"/><path d="M469.107,585.435c-.737,1.791-4.241,1.03-3.5-.775,3.032-7.434.159-15.639-7.276-20.5a14.784,14.784,0,0,0-1.552-.964c-1.947-1.062-.137-3.607,1.81-2.559a25.844,25.844,0,0,1,4.867,3.458C469.8,569.781,472.19,577.9,469.107,585.435Z" fill="#00008b"/><path d="M416.971,481.308c-.236,3.325-5.961,12.131-16.669,14.966a28.235,28.235,0,0,1-13.029.307c-13.8-3.018-20.8-16.16-18.967-17.47,1.777-1.243,10.512,9.958,24.4,10.164,10.85.174,18.252-6.476,21.86-8.589a4.1,4.1,0,0,1,1.457-.635.781.781,0,0,1,.614.1l.067.062A1.319,1.319,0,0,1,416.971,481.308Z" fill="#00008b"/><path d="M512.217,486.118a24.48,24.48,0,0,1-11.918,2.229c-11.439-.884-19.195-10.214-20-13.622a1.5,1.5,0,0,1-.052-.748.514.514,0,0,1,.137-.308.7.7,0,0,1,.734-.136,4.149,4.149,0,0,1,.959.36c3.545,1.586,11.813,7.828,22.185,6.344,12.629-1.781,18.632-13.708,20.671-12.614C526.809,468.7,523.252,480.983,512.217,486.118Z" fill="#00008b"/><path d="M560.681,573.089c-.9,1.806-1.855,3.6-2.881,5.273l-.407.732c-.683,1.107-1.367,2.213-2.067,3.272-.146.211-.292.407-.439.634a79.01,79.01,0,0,1-4.931,6.542q-1.88,2.295-3.954,4.394a72.425,72.425,0,0,1-40.994,21.433,4.027,4.027,0,0,1-.635.113c-.423.065-.846.115-1.285.163a1.722,1.722,0,0,1-.407.049c-.472.065-.944.114-1.4.163l-.911.1c-.57.05-1.156.1-1.742.147l-.943.049c-.423,0-.863.016-1.286.032.456-.635.977-1.22,1.416-1.855.569-.8,1.107-1.643,1.627-2.49.6-.048,1.2-.1,1.807-.163l1.123-.146h.1a99.226,99.226,0,0,0,14.939-3.6,69.748,69.748,0,0,0,23.288-14.24c1.53-1.383,3.011-2.864,4.427-4.41a72.92,72.92,0,0,0,5.37-6.559,5.938,5.938,0,0,0,.488-.651c.782-1.074,1.5-2.147,2.2-3.254q.269-.366.488-.733c1.433-2.294,2.784-4.687,4.037-7.16,12.677-25.452,8.966-55.689,5.711-82.362-.178-1.432-.357-2.88-.536-4.329-.033-.228-.049-.472-.1-.7a26.909,26.909,0,0,1-.228-2.8,11.491,11.491,0,0,1,1.937,1.286c.585.439,1.188.879,1.79,1.3.13,1.074.244,2.148.39,3.238.049.472.1.96.163,1.448C570.2,515.366,574.009,546.384,560.681,573.089Z" fill="#00008b"/><path d="M781.063,874.767a22.2,22.2,0,0,1,9.779-18.323,22.9,22.9,0,0,1,21.14-1.865,56.081,56.081,0,0,1,11.445,6.6c1.29.9,2.512-1.213,1.232-2.107-6.818-4.765-14.5-9.277-23.128-8.688a24.57,24.57,0,0,0-19.409,11.778,24.933,24.933,0,0,0-3.5,12.608,1.222,1.222,0,0,0,2.442,0Z" fill="#2a2e7e"/><path d="M762.334,852.838a17.6,17.6,0,0,1,24.471-8.978c1.388.734,2.623-1.373,1.232-2.107a19.838,19.838,0,0,0-28.057,10.436c-.576,1.462,1.783,2.1,2.354.649Z" fill="#2a2e7e"/><path d="M626.358,633c-22.262-.179-44.769-6.168-64.736-15.151-1.01-.44-2-.928-3.011-1.4,16.452,1.27,32.873,2.523,49.358,3.906,7.665.651,15.118,2.506,17.771,10.431A22.389,22.389,0,0,1,626.358,633Z" fill="#bbed0a"/><path d="M535.616,948.436,413.448,949.51l-75.934.684q-19.113.195-38.259.358c-6.2.049-12.417.13-18.618.146a55.793,55.793,0,0,1-12.547-1.009c-4.084-.878-8.43-2.441-10.919-5.956-3.532-4.979-1.742-11.392.537-16.469,2.766-6.249,6.346-12.205,9.569-18.227,3.059-5.728,6.151-11.489,9.243-17.233q4.394,5.345,9.081,10.447c2.815,3.059,5.712,6.021,8.69,8.951a3.132,3.132,0,0,0,2.767.96,4.535,4.535,0,0,0,.456-.114,3.628,3.628,0,0,0,1.48-.879c.13-.13.261-.276.391-.423a3.009,3.009,0,0,0,.553-.96,3.121,3.121,0,0,0,.147-.553A2.69,2.69,0,0,0,300,907.8a2.546,2.546,0,0,0-.211-.554,3.955,3.955,0,0,0-.635-.813c-.326-.326-.635-.619-.928-.912v-.016c3.743-18.373,2.962-32.027-5.744-48.9-8.886-17.2-20.652-32.824-29.472-50.058a167.7,167.7,0,0,1-12.661-118.327c2.652-10.025,6.3-20.408,3.889-30.5-1.871-7.844-7.209-14.435-12.97-20.18-5.777-5.712-12.156-10.936-16.974-17.445-4.817-6.526-7.958-14.81-6.135-22.654,1.839-7.86,9.911-14.5,17.934-12.823a20.883,20.883,0,0,0-1.383-1.839c2.246-.163,4.508-.261,6.737-.309,14.093-.2,28.154,1.79,42.166,3.189q9.544.952,19.072,1.872c2.458.227,4.948.472,7.421.7q10.082.975,20.164,1.9c4.882.424,9.748.863,14.646,1.286a1.842,1.842,0,0,0,.6,0c.765.6,1.514,1.155,2.262,1.693-1.643,8.446-3.287,16.941-4.752,25.468-3.661,21.156-6.363,42.524-6.086,63.924v.032a216.193,216.193,0,0,0,1.3,24.02,173.051,173.051,0,0,0,3.645,21.287.062.062,0,0,0,.016.049c-.732-.863-1.513-1.726-2.278-2.572-.211-.244-.439-.488-.651-.732-1.09-1.2-2.181-2.409-3.336-3.581-.277-.325-.586-.667-.911-.992-.424-.456-.9-.928-1.368-1.384.017-.015.017-.015-.032-.032,0,0,.032-.016-.016-.016,0-.049-.033-.1-.114-.13.032-.017.016-.017-.016-.033a.325.325,0,0,0-.131-.114,1.014,1.014,0,0,0-.26-.276c0-.033-.049-.082-.13-.114.032-.017.016-.017-.017-.033-.016-.065-.065-.1-.13-.146-.39-.44-.829-.863-1.285-1.3-1.107-1.156-2.246-2.295-3.4-3.4-.195-.195-.358-.374-.553-.537a.434.434,0,0,0-.1-.081c-.489-.521-1.009-1.009-1.53-1.5-1.383-1.318-2.783-2.636-4.2-3.922-1.351-1.253-2.734-2.49-4.133-3.711-1.53-1.35-3.092-2.685-4.655-3.987s-3.141-2.6-4.735-3.873a272.733,272.733,0,0,0-26.559-18.78c-3.759-2.327-7.21,3.515-3.483,5.826a262.8,262.8,0,0,1,79.888,77.138q5.835,8.715,10.888,17.869a2.436,2.436,0,0,0-.489,2.148,214.585,214.585,0,0,0,36,81.5c1.269,1.758,2.555,3.483,3.873,5.208.781,1.041,1.579,2.067,2.376,3.076.326.407.668.83,1.009,1.237.993,1.253,2,2.489,3.043,3.726,1.009,1.221,2.051,2.425,3.093,3.613.422.488.846.976,1.3,1.465.781.895,1.579,1.774,2.393,2.652.471.521.943,1.025,1.415,1.53.521.57,1.058,1.139,1.611,1.693.668.732,1.367,1.431,2.067,2.147,1.221,1.254,2.458,2.49,3.727,3.711.862.846,1.741,1.692,2.636,2.522,1.758,1.677,3.564,3.32,5.387,4.915,1.123.993,2.246,1.969,3.385,2.93.293.26.586.52.895.748q1.661,1.416,3.369,2.783c1.416,1.139,2.831,2.262,4.28,3.369.585.439,1.171.895,1.773,1.334,1.221.927,2.458,1.823,3.695,2.718,1.416,1.025,2.864,2.034,4.312,3.01,1.367.944,2.751,1.872,4.134,2.751.537.358,1.074.716,1.611,1.041q1.927,1.245,3.906,2.441C489.935,934.2,512.376,942.773,535.616,948.436Z" fill="#bbed0a"/><path d="M650,822.737a.571.571,0,0,0-.065.163c-1.741-.944-3.482-1.888-5.207-2.864h-.017l-.016-.017c-.634-.341-1.237-.7-1.855-1.073-.635-.358-1.269-.716-1.872-1.091-1.985-1.155-3.922-2.343-5.842-3.6-1.155-.733-2.295-1.465-3.417-2.23-1.074-.716-2.148-1.448-3.206-2.2-2.49-1.741-4.948-3.564-7.372-5.435-.749-.586-1.5-1.172-2.246-1.79-1.839-1.465-3.646-2.979-5.436-4.573-.26-.212-.52-.424-.764-.651-1.319-1.172-2.621-2.36-3.906-3.58-.521-.5-1.058-.993-1.563-1.5-.536-.52-1.057-1.025-1.578-1.546a166.892,166.892,0,0,1-31.653-44.313,6.675,6.675,0,0,0,.667-.375h.017c.684-.39,1.367-.813,2.018-1.237.049-.032.114-.081.163-.114.016,0,.016-.032.032-.048a6.505,6.505,0,0,0,.684-.472c.325-.244.667-.488.976-.765.016,0,.016,0,.033-.017a10.6,10.6,0,0,0,.8-.7c.033-.033.082-.065.114-.1a5.179,5.179,0,0,0,.618-.586c.261-.26.505-.5.749-.764.081-.1.179-.18.261-.294.178-.211.374-.422.536-.65a1.909,1.909,0,0,0,.277-.358,4.311,4.311,0,0,0,.39-.521c.017-.033.033-.049.05-.081s.048-.05.048-.082a10.765,10.765,0,0,0,.619-.976c.016-.017.032-.033.032-.049a12.22,12.22,0,0,0,.976-2.1c.082-.244.163-.472.245-.732a.231.231,0,0,0,.032-.1,2.377,2.377,0,0,0,.13-.489c.017-.032.017-.081.033-.113.065-.277.13-.57.2-.847.049-.26.081-.521.114-.765.017-.179.049-.358.049-.553a14.546,14.546,0,0,0-.391-4.736c5.143-2.441,9.439-6.737,10.171-12.5a11.383,11.383,0,0,0-5.256-11.082,6.857,6.857,0,0,0,.456-.668A17.707,17.707,0,0,0,592.8,695.4a235.841,235.841,0,0,0,35.249,3.336c.391,3.222.846,6.444,1.383,9.618,3.011,18.584,8.821,36.176,14.582,54.045C650.265,781.809,655.928,802.541,650,822.737Z" fill="#bbed0a"/><path d="M336.061,589.3a10.24,10.24,0,0,1-1.4-5.193l.049-.365q-21.307-1.878-42.611-3.971c-13.621-1.351-27.291-3.173-40.977-3.857a131.061,131.061,0,0,0-22.914.7c-10.155,1.335-20.033,4.345-28.088,10.285-6.592,4.849-11.2,12.075-11.262,20.342-.065,8.332,4.1,16.177,9.586,22.3,6.1,6.786,14.027,11.554,21.156,17.168,2.913,2.328,5.89,5.029,7.013,8.675,1.253,4.182-.341,8.69-1.578,12.709a202.6,202.6,0,0,0-8.381,53.476,250.547,250.547,0,0,0,17.039,96.78,266.007,266.007,0,0,0,38.26,67.749c1.48,1.92,2.994,3.823,4.572,5.712q4.394,5.345,9.081,10.447c2.815,3.06,5.712,6.022,8.69,8.951a3.131,3.131,0,0,0,2.766.96,4.4,4.4,0,0,0,.456-.114,4,4,0,0,0,1.481-.879c.13-.13.261-.277.391-.423a3.761,3.761,0,0,0,.553-.96,3.109,3.109,0,0,0,.147-.554A2.677,2.677,0,0,0,300,907.8a2.47,2.47,0,0,0-.212-.554,3.914,3.914,0,0,0-.634-.813c-.325-.326-.635-.619-.927-.912v-.016c-1.156-1.155-2.279-2.294-3.386-3.45-1.4-1.416-2.75-2.848-4.068-4.3-.977-1.042-1.953-2.1-2.865-3.157-1.74-1.937-3.433-3.889-5.077-5.875-1.3-1.53-2.571-3.092-3.808-4.655-1.122-1.4-2.229-2.8-3.287-4.231-.179-.211-.342-.423-.5-.651-2.393-3.157-4.7-6.346-6.917-9.6-2.278-3.287-4.459-6.656-6.559-10.042-1.594-2.538-3.123-5.125-4.621-7.713-1.5-2.62-2.929-5.257-4.328-7.893-.929-1.757-1.856-3.548-2.735-5.337-.91-1.775-1.774-3.581-2.636-5.387-.846-1.807-1.676-3.63-2.49-5.452A248.583,248.583,0,0,1,223.5,734.842a209.888,209.888,0,0,1,4.231-49.912q1.44-6.858,3.483-13.6c1.27-4.264,2.766-8.642,2.685-13.166-.146-8.137-5.94-13.588-12.092-18.227-6.932-5.256-14.613-10.041-20-16.94-4.883-6.217-8.121-14.859-4.623-22.459,3.4-7.387,11.262-11.391,18.667-13.979a65.6,65.6,0,0,1,7.827-2.18c1.269-.294,2.572-.537,3.858-.733.52-.1,1.008-.163,1.512-.228.83-.13,1.66-.243,2.506-.325.082-.017.163-.017.245-.032.976-.1,1.953-.213,2.913-.277,2.245-.163,4.507-.26,6.737-.31,14.094-.2,28.154,1.791,42.165,3.19q9.544.952,19.073,1.872c2.458.227,4.948.472,7.421.7q10.082.975,20.163,1.9,3.453.3,6.9.606Q336.617,590.02,336.061,589.3Z" fill="#00008b"/><path d="M761.464,882.82c-28.691,2.246-57.593,4.069-86.137-.586a318.15,318.15,0,0,1-45.144-11.2c-14.777-4.671-29.374-9.976-43.223-16.908-1.025-.5-2.051-1.042-3.06-1.563-.993-.537-2.018-1.074-3.027-1.644a174.3,174.3,0,0,1-26.119-17.478c-.57-.439-1.139-.927-1.709-1.4-.993-.814-1.986-1.66-2.962-2.539-.684-.586-1.351-1.188-2.018-1.806-.276-.228-.569-.488-.846-.749-.733-.683-1.464-1.367-2.181-2.067-.114-.113-.244-.211-.374-.341l-.358-.358c6.444-4.345,17.706,5.63,23.19,8.934,54.68,32.889,119.076,47.926,181.99,42.491,3.89-.342,8.707-.146,11.246,2.409A28.749,28.749,0,0,0,761.464,882.82Z" fill="#e179e6"/><path d="M534.4,743.875a2.474,2.474,0,0,0-1.6,1.041c-13.637,18.536-35.786,30.725-58.927,32.938a83.051,83.051,0,0,1-71.247-30.318c-.781-.944-1.53-1.9-2.262-2.9a83.976,83.976,0,0,1-5.192-7.86c-.341-.619-.667-1.221-.992-1.839-.781-1.432-1.53-2.9-2.2-4.41-.293-.635-.586-1.286-.862-1.937a.223.223,0,0,0-.05-.081c-.292-.716-.569-1.432-.846-2.148,4.915-1.953,9.537,1.367,13.426,4.882,10.611,9.731,21.693,18.52,34.875,24.687a95.064,95.064,0,0,0,22.8,7.5c20.391,3.923,42.686.228,59.172-12.189,2.75-2.1,5.418-4.491,6.964-7.567a11.1,11.1,0,0,0,1.205-4.654,34.95,34.95,0,0,0,4.1,3.661C533.289,743.093,533.842,743.5,534.4,743.875Z" fill="#e179e6"/><path d="M579.767,731.555v.114a10.206,10.206,0,0,1-.163,1.578,9.609,9.609,0,0,1-.83,2.409,5.079,5.079,0,0,1-.374.635,8.676,8.676,0,0,1-.944,1.367,13.284,13.284,0,0,1-1.14,1.22,16.093,16.093,0,0,1-2.1,1.693,19.25,19.25,0,0,1-2.376,1.416,31.746,31.746,0,0,1-7.323,2.7c-.521.146-1.058.261-1.562.358a30.516,30.516,0,0,1-4.931.6,34.011,34.011,0,0,1-26.12-10.61,2.277,2.277,0,0,0-1.725-.8,2.022,2.022,0,0,0-.423.049.681.681,0,0,0-.163.033,1.968,1.968,0,0,0-.374.13,2.665,2.665,0,0,0-.716.488.869.869,0,0,0-.179.163,1.365,1.365,0,0,0-.2.244,9.744,9.744,0,0,0-.749-1.481c3.352-2.116,7.339,1.237,10.513,3.564a24.586,24.586,0,0,0,28.349.049c2.392-1.806,4.475-4.069,7.193-5.387A8.357,8.357,0,0,1,579.767,731.555Z" fill="#e179e6"/><path d="M406.544,620.628a18.281,18.281,0,0,1-2.179-1.94c-.981.1-1.94.168-2.9.24a88.417,88.417,0,0,1-60.4-19.871c-.215-.167-.43-.359-.646-.526-.43-.36-.862-.766-1.316-1.149-.455-.408-.91-.814-1.341-1.2-.479-.48-1-.958-1.508-1.437C323.9,582.778,316.6,567.959,315,551.583c-1.054-10.988-.072-22.1.885-32.822.216-2.562.455-5.147.646-7.685a.512.512,0,0,0,.025-.167,4.03,4.03,0,0,1-1.724-3.232c-.1-1.078-.119-2.155-.119-3.256a10.046,10.046,0,0,1,2.25.311,7.544,7.544,0,0,1,3.758,2.155,7.888,7.888,0,0,1,1.868,3.04,12.4,12.4,0,0,1,.574,2.3c1.653,13.13,3.4,26.247,5.028,39.381,2.361,19.1,15.788,32.568,16.758,33.517,15.631,15.282,48.117,26.4,55.734,30.069.241.116.708.394,1.34.743A10.1,10.1,0,0,1,406.544,620.628Z" fill="#e179e6"/><path d="M580.04,487.208a4.483,4.483,0,0,1-.671,2.777c-1.46,1.915-3.9,1.221-6.177.192a8.874,8.874,0,0,1-1.747-.934,5.876,5.876,0,0,0-2.322-1.15c-.838-.478-1.651-.981-2.442-1.532a32.06,32.06,0,0,1-3.9-3.016,44.844,44.844,0,0,1-10.654-15.25c-3.4-7.613-6.439-15.394-9.192-23.246-.743-2.179-1.462-4.358-2.179-6.536-.359-.958-.671-1.963-.982-2.945-1.149-3.519-2.394-6.943-3.83-10.222a72.16,72.16,0,0,0-3.83-7.709c-.048-.1-.121-.216-.169-.336-.359-.6-.718-1.2-1.1-1.8a55.279,55.279,0,0,0-9.983-11.994c-3.136-2.8-5.051-7.158-7.134-11.036a4.251,4.251,0,0,1-.167-2.873,11.205,11.205,0,0,1,1.169.422,9.868,9.868,0,0,1,1.152.583,8.947,8.947,0,0,0,3.831.6c2.144-.1,14.884,4.823,23.94,21.546,1.923,3.551,1.737,4.046,7.183,21.546,7.336,23.578,9.012,26.985,10.126,29.112a74.552,74.552,0,0,0,15.968,21.115C577.933,485.436,578.962,486.322,580.04,487.208Z" fill="#e179e6"/><path d="M833.541,907.345c0,.212-.033.423-.049.635-1.318,14.288-6.25,30.057-18.96,38.422-14.727,9.683-34.077,6.786-49.846,1.448-2-.683-2.913,2.279-1.205,3.125-24.784.342-49.586.814-74.37,1.547-35.364,1.073-70.874,2.066-106.171-1.368-5.028-.488-10.074-1.09-15.086-1.806a3.074,3.074,0,0,0-2.6-1.188c-1.693.016-3.369.016-5.078.049-26.787-4.329-53.069-11.913-77.04-24.541a216.016,216.016,0,0,1-49.44-36.047,221.354,221.354,0,0,1-18.325-20.147A211.7,211.7,0,0,1,375.6,788.888c0-.033-.016-.065-.016-.1,2.441.781,5.713-1.953,4.182-4.98-.651-1.269-1.3-2.555-1.953-3.824-.456-.846-.894-1.676-1.35-2.506-.538-1.026-1.091-2.051-1.66-3.06-.065-.114-.131-.244-.212-.374-.521-.944-1.057-1.888-1.612-2.815-.649-1.139-1.284-2.262-1.952-3.369,6.212,8.945,15.331,21.945,26.592,37.514,30.226,41.787,38.682,50.65,43.093,55.063a262.864,262.864,0,0,0,47.88,35.91c41.935,24.714,145.174,43.417,278.785,33.275a71.6,71.6,0,0,0,66.169-22.279Z" fill="#e179e6"/><path d="M596.032,442.846c-4.094,6.392-8.523,12.569-12.544,18.985a31.445,31.445,0,0,0-4.453,9.528c-.671,2.921.143,6.177.286,9.289.1,2.035.695,4.549.719,6.56a4.483,4.483,0,0,1-.671,2.777c-1.46,1.915-3.9,1.221-6.177.192a8.874,8.874,0,0,1-1.747-.934,5.876,5.876,0,0,0-2.322-1.15c-.838-.478-1.651-.981-2.442-1.532a32.06,32.06,0,0,1-3.9-3.016,44.844,44.844,0,0,1-10.654-15.25c-3.4-7.613-6.439-15.394-9.192-23.246-.743-2.179-1.462-4.358-2.179-6.536-.359-.958-.671-1.963-.982-2.945-1.149-3.519-2.394-6.943-3.83-10.222a72.16,72.16,0,0,0-3.83-7.709c-.048-.1-.121-.216-.169-.336-.359-.6-.718-1.2-1.1-1.8a55.279,55.279,0,0,0-9.983-11.994c-3.136-2.8-5.051-7.158-7.134-11.036a4.251,4.251,0,0,1-.167-2.873,13.009,13.009,0,0,1,.67-2.155c.31.335.813.646.934,1.077a15.36,15.36,0,0,0,.717,2.083c1.652,4.166,4.525,7.47,7.662,10.63,8.9,8.977,14,20.2,18.218,31.936.048.1.072.216.119.287,1.126,3.161,2.227,6.321,3.353,9.528,2.632,7.518,5.266,15.035,8.283,22.409a39.184,39.184,0,0,0,14.819,18.386c2.442,1.6,5.339,2.538,8.4,3.927a12.218,12.218,0,0,0,.191-3.185c-.215-2.9-1.556-5.147-2.776-7.326-3.232-5.937-6.679-11.754-7.182-18.721a54.8,54.8,0,0,1,.19-6.56c.384-.047.791-.095,1.2-.119,1.916,6.584,3.808,13.191,5.747,19.751,4.764-10.247,11.491-18.41,17.452-27,6.8-9.816,7.182-20.541-.12-28.992a27.774,27.774,0,0,0-10.222-7.014,111.039,111.039,0,0,1-24.731-13.934c-3.423-2.538-7.468-4.214-11.155-6.392a123.5,123.5,0,0,1-10.965-6.631c-3.664-2.634-7.015-3.95-11.084-1.269-3.089,2.083-6.393,1.245-9.72.191-3.856-1.2-7.805-2.944-11.684-3.471a28.158,28.158,0,0,0-3.567-.479c-.55-.048-1.125-.071-1.747-.071-1.581,0-2.753.143-3.089.143-18.553.718-28.991-2.466-38.16-5.315-7.806-2.394-14.556-4.476-24.779-3.687a52.223,52.223,0,0,0-13.43,2.921c-2.012.622-4.262,1.341-7.063,2.131-4.4,1.2-8.068,2.13-23.342,4.956-1.508.263-2.968.55-4.357.813l-1.436.264h-.048a78.574,78.574,0,0,0-8.14,1.508c-.838.192-1.628.383-2.442.6a33.1,33.1,0,0,0-11.252,5.77c-4.884,3.687-9.959,5.435-15.968,4.453-2.993-.5-5.89-.024-7.518,2.658-5.745,9.456-14.723,15.441-22.767,22.407-5.219,4.478-10.51,8.882-15.465,13.647-8.763,8.5-9.145,20.948-1.46,30.62,2.824,3.566,5.1,7.565,7.9,11.156,3.3,4.285,6.942,8.307,10.844,12.975,1.437-8.738,2.754-16.566,4.023-24.395l.982-.048c.095,2.394.79,4.908.287,7.087-2.2,9.456-2.443,19.008-2.251,28.656.048,2.37-.981,4.716-.981,7.086a6.883,6.883,0,0,0,.311,1.844c.311,1.126.861,2.179,1.412,2.323a4.748,4.748,0,0,0,2.346-.168,3.526,3.526,0,0,0,2.131-1.317,28.557,28.557,0,0,0,3.472-9.887c1.46-13.287,2.872-26.6,3.5-39.933.718-15.011,3.662-28.872,13.1-40.914,3.759-4.74,6.1-10.654,9.265-16.279-.167,1.364.048,2.944-.479,4.165-1.8,4.022-3.4,8.283-5.842,11.851a80.047,80.047,0,0,0-6.942,12.353,76.936,76.936,0,0,0-3.471,9.241c-.143.455-.264.862-.408,1.317h.025a87.446,87.446,0,0,0-3.28,21.713c-.024.91-.072,1.82-.048,2.754-.1,11.323-.958,22.647-2.179,33.875-.43,4.118-2.657,8.14-4.62,11.9a5.9,5.9,0,0,1-1.987,2.012,2.663,2.663,0,0,1-.359.191,11.453,11.453,0,0,1-2.371,1.173c0,.072.025.192.025.287-.192,2.586-.455,5.171-.694,7.757-.911,10.534-1.892,21.451-.862,32.081a69.136,69.136,0,0,0,1.46,8.69,7.416,7.416,0,0,0,.192.79,63.234,63.234,0,0,0,7.516,17.787c.24.384.48.767.743,1.173.813,1.245,1.676,2.49,2.585,3.711.215.288.432.575.647.839.263.358.527.717.838,1.077.383.478.79.957,1.172,1.412.217.263.432.526.647.766.934,1.1,1.891,2.131,2.921,3.16.144.144.311.311.455.479.55.527,1.124,1.1,1.723,1.652.456.431.958.862,1.413,1.317a.671.671,0,0,1,.192.167l1.579,1.365c.048.024.048.024.073.024a14.171,14.171,0,0,0,1.124.958c.288.239.6.478.911.718.094.1.19.143.286.239.312.24.623.479.959.718,1.891,1.437,3.829,2.777,5.841,4.046a9.685,9.685,0,0,1,.981.6c.838.5,1.653,1,2.49,1.46.287.167.55.311.838.455q1.4.789,2.873,1.508c.359.192.742.359,1.1.551a1.158,1.158,0,0,0,.263.1c.359.192.766.36,1.174.551.837.407,1.675.766,2.537,1.126.455.167.862.358,1.317.5,1.053.455,2.106.862,3.208,1.245.454.144.909.335,1.388.479.359.12.695.216,1.078.359.718.239,1.484.478,2.226.67.431.144.886.264,1.341.407.454.12.909.24,1.34.335l1.365.359c.383.1.79.168,1.173.264.12.024.263.072.407.1.336.048.694.168,1.053.215.91.192,1.844.359,2.778.526.287.048.574.1.886.144,1.292.192,2.609.384,3.9.551.526.048,1.005.1,1.484.144a5.867,5.867,0,0,1,.647.048c.382.024.718.071,1.1.071.334.024.622.048.933.072.527.048,1.03.072,1.532.072a.3.3,0,0,0,.144.024c.622,0,1.221.024,1.844.024h.143c.526.047,1.054.047,1.581.047.622-.023,1.244-.023,1.89-.047l.1-.024c.527,0,1.053-.024,1.6-.048.143,0,.263-.024.407-.024l.454-.024a26.232,26.232,0,0,1-3.686-10.558,1.848,1.848,0,1,1,3.662-.478c.048.287.1.574.144.886a2.034,2.034,0,0,0,.1.526c.071.455.191.934.287,1.365a3.787,3.787,0,0,1,.144.551c.119.406.238.837.382,1.221.073.215.168.454.264.694a.319.319,0,0,0,.072.191c.072.24.191.431.263.623.168.406.335.814.527,1.173a6,6,0,0,0,.359.646,13.618,13.618,0,0,0,1.245,1.963,5.709,5.709,0,0,0,.454.6,7.616,7.616,0,0,0,.791.957,2.368,2.368,0,0,0,.406.432c.025.023.048.095.1.143.167.144.336.335.527.5.239.239.527.479.766.718.167.144.311.263.479.407.168.119.311.239.479.359.216.168.454.335.694.5a3.141,3.141,0,0,0,.407.287c.1.072.239.167.36.239a31.061,31.061,0,0,0,2.776,1.6c.24.1.479.192.719.312.263.119.478.215.718.311a7.732,7.732,0,0,0,.838.335,7.3,7.3,0,0,0,.766.312c.264.095.5.167.79.263a2.942,2.942,0,0,0,.6.191.778.778,0,0,0,.215.072c10.415,2.849,22.768,2.466,23.486,2.466,6.775-.263,12.689-.455,17.859-.766h.025c.6-.048,1.172-.1,1.723-.168.911-.072,1.82-.144,2.754-.287,1-.1,1.986-.192,2.993-.335.5-.072.98-.12,1.483-.168.5-.1.982-.144,1.509-.263.478-.048.981-.12,1.484-.192.479-.1.957-.192,1.461-.263.455-.072.861-.144,1.316-.239.359-.048.718-.168,1.053-.216s.647-.12.958-.191c.383-.1.742-.168,1.1-.264a7.542,7.542,0,0,0,1.053-.239c.575-.168,1.126-.311,1.7-.431a12.923,12.923,0,0,0,1.268-.383l.167-.048c.336-.1.647-.216.982-.312.121-.023.192-.048.288-.071.023-.024.048-.024.071-.048.528-.168,1.03-.335,1.581-.55.5-.192,1.03-.384,1.532-.576,1.077-.478,2.13-.957,3.137-1.507a6.16,6.16,0,0,0,1.1-.6A23.854,23.854,0,0,0,493.088,615a2.62,2.62,0,0,0,.407-.311c.239-.192.479-.384.719-.551v-.1a1.9,1.9,0,0,1,.838-1.341,1.435,1.435,0,0,1,.861-.287l.12-.024c3.351-3.543,5.338-8.164,5.386-14.269a1.85,1.85,0,0,1,1.844-1.867,1.889,1.889,0,0,1,1.843,1.915,25.477,25.477,0,0,1-2.729,11.8c-.359.575-.742,1.149-1.125,1.7a20.973,20.973,0,0,1-1.412,1.843,25.162,25.162,0,0,0-2.156,2.634c-.023.024-.071.072-.071.1h-.119c-9.386,8.619-25.857,10.774-39.622,11.875a2.109,2.109,0,0,1-.67.168h-.048c-.957.048-1.987.1-2.993.143l-1.772.1c-1.028.1-1.987.143-3.016.239a2.206,2.206,0,0,1-.694-.1c-14.364.575-31.769.36-42.135-8.043a18.281,18.281,0,0,1-2.179-1.94c-.981.1-1.94.168-2.9.24a88.417,88.417,0,0,1-60.4-19.871c-.215-.167-.43-.359-.646-.526-.43-.36-.862-.766-1.316-1.149-.455-.408-.91-.814-1.341-1.2-.479-.48-1-.958-1.508-1.437C323.9,582.778,316.6,567.959,315,551.583c-1.054-10.988-.072-22.1.885-32.822.216-2.562.455-5.147.646-7.685a.512.512,0,0,0,.025-.167,4.03,4.03,0,0,1-1.724-3.232c-.1-1.078-.119-2.155-.119-3.256a34.29,34.29,0,0,1,.574-5.913c1.029-5.2-.12-9.528-3.9-13.167A58.9,58.9,0,0,1,299.769,469.8a34.177,34.177,0,0,0-6.511-8.355c-10.247-10.127-7.086-27.651,2.753-35.217,8.02-6.152,15.753-12.712,23.6-19.128a40.629,40.629,0,0,0,10.439-12.736c3.614-6.967,7.516-8.4,15.249-7.374,2.586.335,6.057.1,7.9-1.389a39.04,39.04,0,0,1,9.5-5.841,49.086,49.086,0,0,1,10.2-3.088c3.136-.311,6.008-.671,8.523-.982,1.8-.239,3.375-.478,4.835-.694a213.517,213.517,0,0,0,23.078-4.932c2.778-.766,4.98-1.484,6.968-2.082a56.009,56.009,0,0,1,14-3.041c10.7-.838,18,1.413,25.711,3.782a121.062,121.062,0,0,0,15.346,3.951c8.236,1.436,10.965.431,21.978,1.293,2.322.167,5.1.454,5.1.454.91.12,1.7.192,2.466.264,1.125.1,2.2.239,3.447.407.838.1,1.628.192,2.346.335l1.509.383c.957.263,1.915.575,2.849.886,4.692,1.556,8.9,2.8,13.478-.048,3.04-1.892,6.152-1.149,9.169.79,11.276,7.134,22.5,14.34,33.948,21.211A92.339,92.339,0,0,0,581.476,405c11.108,4.19,16.95,12.329,18.147,24.228A20.867,20.867,0,0,1,596.032,442.846Z" fill="#00008b" stroke="#00008b" stroke-miterlimit="10" stroke-width="0.814"/><path d="M997.993,274.378c-5.205,18.448-19.351,32.9-35.043,43.132-17.6,11.492-37.7,18.191-58.283,21.85a230.049,230.049,0,0,1-76.912.283c-5.977-.979-11.93-2.164-17.83-3.633a1.611,1.611,0,0,0-1.443.335c-.077.052-.128.052-.206.1a87.019,87.019,0,0,1-51.686,18.964,112.9,112.9,0,0,0,51.068-26.436c4.277-3.839,10.1-.773,11.826-.593,13.94,1.263,67.688.748,107.445-25.92,11.209-7.5,33.7-22.571,37.413-48.08a58.538,58.538,0,0,0-6.159-34.6c-6.7-11.646-16.515-21.85-27.389-30.121,19.814,4.767,39.164,13.991,53.1,29.219C997.632,233.873,1003.584,254.563,997.993,274.378Z" fill="#bbed0a"/><path d="M964.342,254.383c-3.71,25.509-26.2,40.582-37.413,48.08-39.757,26.668-93.5,27.183-107.445,25.92-1.726-.18-7.549-3.246-11.826.593a112.9,112.9,0,0,1-51.068,26.436.64.64,0,0,1-.207.026h-.154a97.537,97.537,0,0,0,26.848-25.56,1.259,1.259,0,0,0,.129-.18c.051-.078.129-.155.18-.232a1.443,1.443,0,0,0-.619-2.242,1.262,1.262,0,0,0-.386-.258c-20.587-8.631-41.535-21.154-53.954-40.246-6.055-9.3-9.586-19.969-9.173-31.126.413-10.461,4.123-20.536,9.689-29.348,26.074-41.406,80.854-46.276,125.171-44.678,25.354.9,51.584,2.061,76.319,7.987.1.026.232.052.335.078l.026.025c10.874,8.271,20.69,18.475,27.389,30.121A58.538,58.538,0,0,1,964.342,254.383Z" fill="#eeffb1"/><path d="M923.554,184.454a.025.025,0,0,1,.026.025c2.473,1.6,4.818,3.35,7.188,5.154" fill="none" stroke="#eeffb1" stroke-miterlimit="10" stroke-width="1.136"/><path d="M756.383,355.438a.481.481,0,0,1-.206.051c-1.984.464-3.865.825-5.72,1.108a18,18,0,0,1-2.01.335h-.026" fill="none" stroke="#eeffb1" stroke-miterlimit="10" stroke-width="1.136"/><path d="M913.9,248.941c-.021.368-.055.733-.1,1.1-.763,6.445-4.658,12.6-9.016,17.18-5.322,5.591-11.986,9.56-18.61,13.4-3.7,2.142-6,3.23-8.964,3.091-3.357-.158-5.734-1.8-10.2-5.255-7.913-6.114-11.857-9.183-13.6-11.127-3.45-3.845-7.177-8-9.245-12.92a19.628,19.628,0,0,1-1.573-9.026c.432-6.565,4.281-14.944,12.672-18.545,10.785-4.627,21.384,2.976,23.182,4.327.449.337.844.658,1.181.943a.185.185,0,0,0,.025.024c.046.037.089.078.133.115,4.287-4.535,9.773-7.109,15.2-6.8C905.825,226.062,914.56,238.3,913.9,248.941Z" fill="#ffb4e7"/><path d="M913.8,250.038c-.763,6.445-4.658,12.6-9.016,17.18-5.322,5.591-11.986,9.56-18.61,13.4-3.7,2.142-6,3.23-8.964,3.091-3.357-.158-5.734-1.8-10.2-5.255-7.913-6.114-11.857-9.183-13.6-11.127-3.45-3.845-7.177-8-9.245-12.92,5.591,6.4,16.521,21.1,31.5,21.883C890.4,277.062,903.618,264.083,913.8,250.038Z" fill="#ff81cb"/><path d="M907.923,231.945c-3.661-4.125-8.251-6.544-12.924-6.81-5.3-.3-10.834,2.131-15.235,6.682-.385-.323-.756-.619-1.133-.9-2.871-2.156-13.051-8.843-23.49-4.364-8.826,3.787-12.443,12.5-12.859,18.809a19.829,19.829,0,0,0,1.6,9.165c2.087,4.968,5.918,9.237,9.3,13.007,1.748,1.95,5.661,5,13.641,11.166,4.627,3.576,7.007,5.16,10.375,5.319.18.008.357.012.532.012,2.7,0,4.909-1.006,8.6-3.145,7.167-4.154,13.52-8.033,18.679-13.453,3-3.158,8.182-9.612,9.1-17.356.047-.392.08-.756.1-1.116A24.165,24.165,0,0,0,907.923,231.945Zm5.667,16.977h0c-.021.347-.052.7-.1,1.079-.9,7.566-5.981,13.9-8.933,17-5.1,5.361-11.416,9.216-18.541,13.345-3.823,2.215-6,3.181-8.794,3.05-3.207-.151-5.407-1.62-10.026-5.191-7.95-6.142-11.847-9.179-13.562-11.092-3.51-3.913-7.14-7.959-9.187-12.83a19.235,19.235,0,0,1-1.55-8.885c.4-6.136,3.917-14.605,12.486-18.282a18.046,18.046,0,0,1,7.18-1.462c7.32,0,13.565,4.153,15.695,5.752.362.272.72.558,1.091.869a28.875,28.875,0,0,0-4.46,7.075l3.734-5.425q.664-.762,1.383-1.472h0c4.308-4.556,9.76-7,14.956-6.7,4.507.257,8.945,2.6,12.5,6.6A23.536,23.536,0,0,1,913.59,248.922Z" fill="#00008b"/><path d="M792.424,282.289a6.41,6.41,0,0,1-4.4,1.5,6.242,6.242,0,0,1-4.361-1.5,6.177,6.177,0,0,1,0-8.416,6.237,6.237,0,0,1,4.361-1.5,6.354,6.354,0,0,1,4.42,1.519,5.432,5.432,0,0,1,1.686,4.254A5.25,5.25,0,0,1,792.424,282.289Z" fill="#00008b"/><path d="M806.582,282.289a6.41,6.41,0,0,1-4.4,1.5,6.242,6.242,0,0,1-4.361-1.5,6.177,6.177,0,0,1,0-8.416,6.237,6.237,0,0,1,4.361-1.5,6.357,6.357,0,0,1,4.421,1.519,5.431,5.431,0,0,1,1.685,4.254A5.25,5.25,0,0,1,806.582,282.289Z" fill="#00008b"/><path d="M820.74,282.289a6.408,6.408,0,0,1-4.4,1.5,6.237,6.237,0,0,1-4.36-1.5,6.174,6.174,0,0,1,0-8.416,6.233,6.233,0,0,1,4.36-1.5,6.357,6.357,0,0,1,4.421,1.519,5.431,5.431,0,0,1,1.685,4.254A5.25,5.25,0,0,1,820.74,282.289Z" fill="#00008b"/><path d="M834.9,282.289a6.406,6.406,0,0,1-4.4,1.5,6.237,6.237,0,0,1-4.36-1.5,6.177,6.177,0,0,1,0-8.416,6.233,6.233,0,0,1,4.36-1.5,6.357,6.357,0,0,1,4.421,1.519,5.432,5.432,0,0,1,1.686,4.254A5.25,5.25,0,0,1,834.9,282.289Z" fill="#00008b"/><path d="M849.057,282.289a6.411,6.411,0,0,1-4.406,1.5,6.241,6.241,0,0,1-4.36-1.5,6.177,6.177,0,0,1,0-8.416,6.236,6.236,0,0,1,4.36-1.5,6.355,6.355,0,0,1,4.421,1.519,5.432,5.432,0,0,1,1.686,4.254A5.253,5.253,0,0,1,849.057,282.289Z" fill="#00008b"/><path d="M995.287,228.565c-10.359-17.778-28.523-30.017-47.41-37.258a147.009,147.009,0,0,0-24.323-6.853c-17.83-3.5-36.3-4.458-54.237-5.54-46.586-2.834-104.25-2.345-136.922,36.82-13.554,16.258-20.819,38.134-13.759,58.824,7.5,21.9,27.106,37.593,46.869,48.157,4.509,2.422,9.121,4.561,13.784,6.57a93.583,93.583,0,0,1-30.018,26.359,1.449,1.449,0,0,0-.824,1.288,1.815,1.815,0,0,0,1.7,1.881,90.74,90.74,0,0,0,59.725-19.324,235.98,235.98,0,0,0,79.412,5.436c22.8-2.319,45.581-7.91,65.858-18.809,17.109-9.2,33.316-22.417,42-40.144A60.928,60.928,0,0,0,995.287,228.565ZM962.95,317.51c-17.6,11.492-37.7,18.191-58.283,21.85a230.049,230.049,0,0,1-76.912.283c-5.977-.979-11.93-2.164-17.83-3.633a1.611,1.611,0,0,0-1.443.335c-.077.052-.128.052-.206.1a87.019,87.019,0,0,1-51.686,18.964.64.64,0,0,1-.207.026h-.154a97.537,97.537,0,0,0,26.848-25.56,1.259,1.259,0,0,0,.129-.18c.051-.078.129-.155.18-.232a1.443,1.443,0,0,0-.619-2.242,1.262,1.262,0,0,0-.386-.258c-20.587-8.631-41.535-21.154-53.954-40.246-6.055-9.3-9.586-19.969-9.173-31.126.413-10.461,4.123-20.536,9.689-29.348,26.074-41.406,80.854-46.276,125.171-44.678,25.354.9,51.584,2.061,76.319,7.987.1.026.232.052.335.078l.026.025c19.814,4.767,39.164,13.991,53.1,29.219,13.734,15,19.686,35.686,14.1,55.5C992.788,292.826,978.642,307.281,962.95,317.51Z" fill="#00008b"/></svg>