<svg width="694" height="694" viewBox="0 0 694 694" fill="none" xmlns="http://www.w3.org/2000/svg">
<path fill-rule="evenodd" clip-rule="evenodd" d="M522.483 691.077C455.147 674.207 317.297 626.643 192.325 501.673C67.355 376.703 19.7933 238.853 2.92232 171.517C-6.77301 132.82 10.686 95.478 40.2897 74.3323L117.898 18.8977C163.307 -13.5373 226.477 -2.531 258.241 43.3503L307.1 113.925C327.84 143.883 320.687 184.943 291.037 206.122L252.078 233.95C257.974 256.503 276.313 302.82 333.747 360.253C391.18 417.687 437.497 436.023 460.05 441.92L487.877 402.96C509.057 373.313 550.117 366.157 580.073 386.897L650.65 435.757C696.53 467.523 707.537 530.69 675.1 576.1L619.667 653.71C598.52 683.313 561.18 700.773 522.483 691.077ZM239.466 454.533C353.113 568.18 478.527 611.337 538.683 626.41C547.477 628.61 558.107 625.193 565.417 614.96L620.853 537.35C631.663 522.217 627.997 501.16 612.7 490.57L542.127 441.71L512.263 483.52C500.06 500.607 477.49 514.007 451.21 508.337C418.41 501.26 357.777 478.563 286.607 407.393C215.437 336.223 192.74 275.59 185.662 242.79C179.992 216.51 193.394 193.94 210.48 181.736L252.288 151.873L203.428 81.2977C192.84 66.0037 171.784 62.335 156.647 73.1467L79.039 128.581C68.8043 135.892 65.3873 146.522 67.5903 155.314C82.663 215.473 125.82 340.887 239.466 454.533Z" fill="#00008D"/>
</svg>
