<svg xmlns="http://www.w3.org/2000/svg" viewBox="0 0 1011.532 1011.532"><path d="M775.43,231.266l-.044.073a.4.4,0,0,0,.132.015Zm0,0-.044.073a.4.4,0,0,0,.132.015Zm115.557,47.673v-.03c-.059-.4-.162-.809-.265-1.22l-.014-.015-.059-.177c-.956-3.089-3.53-5.575-5.663-7.4-6.311-5.4-13.945-9.546-21.329-13.547-7.561-4.1-15.386-8.34-21.741-13.93a13.868,13.868,0,0,1-1.279-1.088c-.6-.574-1.221-1.162-1.854-1.78l-1.309-1.412c-.471-.5-.912-1.045-1.353-1.574-.088-.1-.191-.236-.294-.353l-.839-1.1a14.19,14.19,0,0,1-1.191-1.663,3.464,3.464,0,0,1-.338-.47c-.339-.515-.692-1.1-.986-1.648-.412-.632-.794-1.368-1.162-2.074-.412-.765-.765-1.515-1.089-2.28l-.1-.22a11.472,11.472,0,0,1-.456-1.074c-.235-.471-.456-1.015-.676-1.589-1.6-4.133-2.824-8.517-4.016-12.768a110.608,110.608,0,0,0-5.133-15.5c-6.517-14.519-19.991-26.624-37-33.214-11.238-4.384-24.344-6.62-38.965-6.649H743.7c-3.721,0-7.031.118-10.134.338.353.618.691,1.251,1.029,1.883.721,1.236,1.368,2.412,2.03,3.575.383.706.78,1.4,1.162,2.1.25.441.5.883.75,1.309.265.471.515.927.78,1.383l2.471,4.5-3.692-3.575c-.956-.926-1.883-1.853-2.854-2.824l-.088-.088c-.809-.765-1.6-1.544-2.412-2.339l-.088-.1Q720.343,150.231,708,138.1c-2.589-2.53-5.517-5.4-9.106-6.193a10.415,10.415,0,0,0-2.25-.221c-4.281,0-8.4,2.369-11.929,4.605A543.088,543.088,0,0,0,625.8,178.4c-2.839,2.338-6.369,5.266-7.634,9.149a11.927,11.927,0,0,0-.515,5.178c.4,4.163,2.633,8.428,4.531,11.664l.382.662c.736,1.221,1.471,2.471,2.25,3.663l.6.971c.75,1.235,1.515,2.471,2.294,3.662.824,1.324,1.677,2.589,2.486,3.781.986,1.5,2.045,3,3.06,4.442.882,1.25,1.78,2.456,2.677,3.648,1.441,1.942,2.942,3.942,4.516,5.869,1.176,1.486,2.339,2.927,3.545,4.383,1.6,1.883,3.515,4.1,5.486,6.237a3.342,3.342,0,0,1,.3.338c1.867,2.045,3.647,3.928,5.383,5.693.235.235.486.5.736.75s.485.515.735.75a216.129,216.129,0,0,0,23.933,20.888,9.978,9.978,0,0,0,3.118,1.839l.1.014a4.8,4.8,0,0,0,.691.1,2.724,2.724,0,0,0,.824-.059c2.78-.588,3.236-4.81,3.265-7.266v-.544c.089-13.151.177-26.374.309-39.554.015-1.339.015-2.648.03-3.972s.014-2.633.029-3.971c.059-7.208.118-15.386,3.53-22.462a17.751,17.751,0,0,1,1.574-2.691c.294-.427.574-.824.883-1.236a18.919,18.919,0,0,1,11.032-7.208,13.665,13.665,0,0,1,5.354,0l1.912.383-1.647,1.03c-.736.456-1.4.912-2.059,1.4a17.973,17.973,0,0,0-1.883,1.486,2.809,2.809,0,0,0-.368.353c-8.179,7.369-12.665,20.593-12.341,36.317.029,2.589.191,5.134.368,7.5a8.212,8.212,0,0,0,.058.9c.177,2.413.4,4.81.618,7.208.9,9.944,1.824,20.211-.073,30.213-.574,2.972-1.589,6.634-4.413,8.664a7.414,7.414,0,0,1-3.207,1.339,8.051,8.051,0,0,1-1.265.132l-.323.324-.368-.324c-4.487-.176-9.12-3.427-11.518-5.384-8.369-6.663-16.577-13.9-24.373-21.475-1.707-1.677-3.383-3.339-5.046-5.046a334.935,334.935,0,0,1-31.213-36.479c-.486.6-.971,1.206-1.442,1.809a140.417,140.417,0,0,0-26.271,54.5,162.272,162.272,0,0,0-3.148,18.96c-1,8.34-1.868,15.548-6.325,24.7a64.273,64.273,0,0,1-9.958,14.93c-.868,1.015-1.868,2.1-3.059,3.31a84.411,84.411,0,0,1-12.4,10.326v.353l-.544.029c-1.147.795-2.28,1.53-3.412,2.266l-.751.485c-3.721,2.354-7.31,4.339-10.767,6.266l-.6.339c-8.517,4.707-16.783,9.12-24.565,13.135l-2.692,1.383c-45.981,23.77-88.948,41.922-117.381,53.925-59.676,25.226-72.8,30.728-73.9,31.051l-5.236,1.545,1.942-1.236c-.265.1-.559.206-.839.324-7.605,2.957-15.4,5.84-22.932,8.62q-7.259,2.691-14.489,5.4c-20.564,7.8-47.349,14.812-72.267-.309-4.854-2.956-8.223-7.031-9.473-11.5-1.927-6.825.794-13.223,3.428-19.431a58.251,58.251,0,0,0,3.221-8.9c2.015-8.149,2.295-19.078-7.708-24.771-10.414-6.031-25.183-5.163-34.494-1.794-11.885,4.383-22.9,13.253-31.86,25.624-17.284,23.594-16.666,57.116,1.485,79.7,3.545,4.531,8.5,8.547,15.18,12.283,17.181,9.59,34.465,9.061,54.455,8.458,6.089-.192,12.267-.927,18.239-1.633,8.753-1.044,17.8-2.118,26.816-1.515,7.9.529,14.724,2.412,20.3,5.589,3.574,2.045,2.147,6.325,1,9.753a22.781,22.781,0,0,0-.838,2.824,416.617,416.617,0,0,0-5.016,42.246c-.53,6.619-.927,13.341-1.368,20.46-2.677,44.188-5.722,94.259-38.318,126.193-18.226,17.916-49.7,28.374-74.592,13.738a11.073,11.073,0,0,0-5.736-1.735,9.228,9.228,0,0,0-2.884.456c-3.854,1.235-7.531,5.133-9.84,10.429A75.134,75.134,0,0,0,158.4,846.3c37.48,19.711,98.392,4.472,125.34-31.36,27.418-36.45,29.463-82.476,31.434-127,.6-13.444,1.221-27.359,2.559-40.583l.427-4.236,1.088,4.118c5.5,20.814,12.8,41.451,19.843,61.4,2.663,7.532,5.413,15.313,8.046,23.006a270.323,270.323,0,0,0,18.4,44.57c2.8,4.971,6.811,10.988,13.047,13.238a13.431,13.431,0,0,0,10.827-.529c8.369-4.148,12.65-15.813,13.767-19.284,2.678-8.061,4.84-16.446,6.943-24.565,2.457-9.532,5-19.4,8.414-28.845,5.8-16.151,12.577-32.92,20.108-49.807,4.707-10.59,9.885-21.152,14.915-31.346l3.942-8.06c4.884-10.032,9.5-19.52,15.946-28.551,2.059-2.928,4.206-5.767,6.266-8.5q1.168-1.545,2.339-3.089c.5-.589.941-1.192,1.368-1.751l.455-.632c.089-.147.177-.265.251-.368.044-.059.117-.147.132-.177a4.573,4.573,0,0,1,.5-.764,10.273,10.273,0,0,0,.662-.986l.236-.338c1.4-1.927,2.868-3.957,4.25-5.958a266.832,266.832,0,0,1,23.124-28.33l1.456-1.53-.118,2.1q-4.9,88.344-7.972,147.682-2.67,49.889-3.913,72.077c-.559,8.59-.088,25.285,9.179,40.686,8.693,14.386,25.991,24.3,45.158,25.859,16.224,1.236,33.817-2.883,52.277-12.238,3.648-1.839,7.84-5.766,8.4-9.414a4.29,4.29,0,0,0-1.309-3.913c-1.206-1.206-3-1.618-4.913-2.059-.78-.191-1.6-.382-2.368-.632-8.811-2.839-11.8-13.327-13.283-20.961a311.7,311.7,0,0,1-5.9-58.515,295.463,295.463,0,0,1,1.6-34.008c.324-3.236.633-5.869.956-8.3l.088-.662.663-.015c66.163-1.441,128.81-33.317,163.5-83.2a168.537,168.537,0,0,0,29.654-100.025,152.286,152.286,0,0,0-3.133-27.609,5.329,5.329,0,0,0-.118-.633,146.812,146.812,0,0,0-5.266-19.093l-.029-.176c-.147-1.412-.353-2.869-.618-4.457-.426-2.545-.956-4.972-1.559-7.208-.647-2.324-1.883-6.281-3.442-11.3-3.854-12.385-9.679-31.095-14.239-49.056l-.044-.1c-.912-3.6-2.074-8.31-3.059-12.87-2.6-11.886-3.869-21.094-3.751-27.345l.014-.353c.089-2.53.28-7.252,2.369-11a8.872,8.872,0,0,1,1.368-1.986,10.052,10.052,0,0,1,2.088-1.853c3.692-2.383,8.091-1.927,11.5-1.265,1.059.176,2.192.412,3.428.721q9.729,2.382,19.46,4.8,9.687,2.4,19.343,4.78c7.634,1.839,15.5,3.766,23.285,2.545a24.2,24.2,0,0,0,8.34-2.927c4.972-2.368,8.473-6.119,9.841-10.429-24.035,5.1-45.129-8.031-60.883-20.123-1.985-1.515-3.927-3.059-5.869-4.589l-4.471-3.5a3.534,3.534,0,0,0-.986-.573.048.048,0,0,0-.029-.015,7.265,7.265,0,0,0,.471,3.913,1.474,1.474,0,0,1,.117.662,1.523,1.523,0,0,1-.47,1.1,1.711,1.711,0,0,1-1.28.441,2.939,2.939,0,0,1-2.4-1.809,10.856,10.856,0,0,1,.471-9.208,10.407,10.407,0,0,1,6.81-5.134,2.472,2.472,0,0,1,2.251.809,2.237,2.237,0,0,1,.765,2.074,1.451,1.451,0,0,1-1.148,1.015,7.138,7.138,0,0,0-2.677,1.265c.25.059.5.118.721.177a17.28,17.28,0,0,1,1.853.661c5.075,2.119,9.576,5.458,13.93,8.679,1.118.839,2.251,1.662,3.383,2.486a79.11,79.11,0,0,0,30.684,13.5c7.826,1.53,22.418,3.207,32.361-2.544a2.4,2.4,0,0,1,.25-.162c1.177-.809,2.133-1.589,2.78-2.1l.265-.22c.471-.383.956-.795,1.4-1.221a40.3,40.3,0,0,0,6.839-7.885c.25-.353.471-.676.677-1.014l.191-.295a3.668,3.668,0,0,0,.25-.412c.25-.382.456-.706.633-1.029a6.929,6.929,0,0,0,.529-.942,5.451,5.451,0,0,1,.324-.6,39.284,39.284,0,0,0,4.369-14.165c.059-.706.117-1.471.147-2.236l.059-1.471,1.176.883a3.936,3.936,0,0,1,.5.5,5.357,5.357,0,0,1,1.163,4.972.986.986,0,0,1-.089.294h.015a5.357,5.357,0,0,0,3.015-2.6,5.839,5.839,0,0,0,.677-1.5l.059-.221A6.142,6.142,0,0,0,890.987,278.939ZM699.308,564.582a117.871,117.871,0,0,1-27.33,25.447,103.942,103.942,0,0,1-14.9,8.532c-3.957,1.706-8.046,3.265-12.135,4.618-12.194,4.163-26.08,7.267-42.466,9.488l-1.147.147.294-1.118a570.628,570.628,0,0,0,18.107-115.41c.633-12.915.765-25.4-4.56-36.362-6.428-13.194-19.475-19.622-29.286-22.7a81.967,81.967,0,0,0-12.047-2.736l-.515-.073a70.361,70.361,0,0,0-42.128,6.59,65.861,65.861,0,0,0-11.474,7.384c-59.131,55.219-104.407,134.885-134.488,236.734l-.618,2.1-.838-2.03c-8.664-21.02-16.4-42.539-22.991-63.971-2.56-8.326-4.854-16.872-7.09-25.139-3.148-11.694-6.4-23.8-10.429-35.435a191.212,191.212,0,0,0-15.092-32.919l-.6-1.015c-5.31-9.091-10.8-18.49-21.138-22.241-2.309-.824-3.471-1.883-3.544-3.221-.133-2.5,3.883-4.663,7.648-6.487l.265-.133q17.343-8.406,34.656-16.886c56.249-27.477,114.41-55.867,173.248-80.123,27.9-11.5,48.173-17.724,63.794-19.593a84.182,84.182,0,0,1,10.9-.632c3.589.059,6.722.309,9.738.544.9.074,1.78.133,2.662.206a164.8,164.8,0,0,1,35.259,5.957,123.757,123.757,0,0,1,33.92,15.372,103.053,103.053,0,0,1,26.992,25.7C734.876,470.412,725.153,530.765,699.308,564.582ZM785.7,242.93l-.015.015a2.516,2.516,0,0,1-1.53.485,4.064,4.064,0,0,1-1.6-.368c-2.162-.882-4.53-3.545-4.648-6.075-.044-.559-.1-1.117-.191-1.706h-.118l-.044-.779c-.015-.045-.03-.1-.044-.148a.7.7,0,0,1-.059-.191,2.171,2.171,0,0,1-.118-.338l-.221-.515a5.762,5.762,0,0,0-.279-.515l-.059-.1a2.708,2.708,0,0,1-.368-.441l-.338-.353-.015.015-.809-.574-.353-.147a6.679,6.679,0,0,0-.9-.353l-.221-.059-1.779-.25-.25-.029a11.387,11.387,0,0,0-3.369.544,13.237,13.237,0,0,0-5.266,3.707,2.1,2.1,0,0,1-1.662.735c-2.162-.015-4.575-2.9-4.6-2.927-1.412-1.8-2.457-4.56-.78-6.487a15.875,15.875,0,0,1,18.137-4.133,21.5,21.5,0,0,1,12.444,18.048A3.276,3.276,0,0,1,785.7,242.93Zm-10.311-11.591a.4.4,0,0,0,.132.015l-.088-.088Zm110.35,52.336a3.426,3.426,0,0,0-.118-.676c0,.029-.015.044-.015.073-.1,1.045-.264,2.089-.456,3.119a2.553,2.553,0,0,0,.368-.721l.118-.324A3.024,3.024,0,0,0,885.736,283.675Z" fill="#00008b"/><path d="M775.43,231.265l-.044.074a.4.4,0,0,0,.132.015Zm0,0-.044.074a.4.4,0,0,0,.132.015Zm0,0-.044.074a.4.4,0,0,0,.132.015Zm0,0-.044.074a.4.4,0,0,0,.132.015Zm115.557,47.674v-.03c-.059-.4-.162-.809-.265-1.221l-.014-.014-.059-.177c-.956-3.089-3.53-5.575-5.663-7.4-6.311-5.4-13.945-9.547-21.329-13.548-7.561-4.1-15.386-8.34-21.741-13.93a14.186,14.186,0,0,1-1.279-1.088c-.6-.574-1.221-1.162-1.854-1.78l-1.309-1.412c-.471-.5-.912-1.045-1.353-1.574-.088-.1-.191-.236-.294-.353l-.839-1.1a14.094,14.094,0,0,1-1.191-1.662,3.464,3.464,0,0,1-.338-.47c-.339-.515-.692-1.1-.986-1.648-.412-.632-.794-1.368-1.162-2.074-.412-.765-.765-1.515-1.089-2.28l-.1-.22a11.472,11.472,0,0,1-.456-1.074c-.235-.471-.456-1.015-.676-1.589-1.6-4.133-2.824-8.517-4.016-12.768a110.608,110.608,0,0,0-5.133-15.5c-6.517-14.519-19.991-26.625-37-33.214-11.238-4.384-24.344-6.62-38.965-6.649H743.7c-3.721,0-7.031.118-10.134.338.353.618.691,1.251,1.029,1.883.721,1.236,1.368,2.412,2.03,3.575.383.706.78,1.4,1.162,2.1.25.441.5.883.75,1.309.265.471.515.927.78,1.383l2.471,4.5-3.692-3.575c-.956-.926-1.883-1.853-2.854-2.824l-.088-.088c-.809-.765-1.6-1.544-2.412-2.339l-.088-.1Q720.343,150.232,708,138.1c-2.589-2.53-5.517-5.4-9.106-6.193a10.415,10.415,0,0,0-2.25-.221c-4.281,0-8.4,2.369-11.929,4.6A543.234,543.234,0,0,0,625.8,178.4c-2.839,2.339-6.369,5.266-7.634,9.149a11.926,11.926,0,0,0-.515,5.178c.4,4.163,2.633,8.428,4.531,11.664l.382.662c.736,1.221,1.471,2.471,2.25,3.663l.6.971c.75,1.235,1.515,2.471,2.294,3.662.824,1.324,1.677,2.589,2.486,3.781.986,1.5,2.045,3,3.06,4.442.882,1.25,1.78,2.456,2.677,3.648,1.441,1.942,2.942,3.942,4.516,5.869,1.176,1.486,2.339,2.927,3.545,4.383,1.6,1.883,3.515,4.1,5.486,6.237a3.342,3.342,0,0,1,.3.338c1.867,2.045,3.647,3.928,5.383,5.693.235.235.486.5.736.75s.485.515.735.75a216.129,216.129,0,0,0,23.933,20.888,9.978,9.978,0,0,0,3.118,1.839l.1.014a4.8,4.8,0,0,0,.691.1,2.724,2.724,0,0,0,.824-.059c2.78-.588,3.236-4.81,3.265-7.266v-.544c.089-13.151.177-26.374.309-39.554.015-1.339.015-2.648.03-3.972s.014-2.633.029-3.971c.059-7.208.118-15.386,3.53-22.462a17.751,17.751,0,0,1,1.574-2.691c.294-.427.574-.824.883-1.236a18.919,18.919,0,0,1,11.032-7.208,13.665,13.665,0,0,1,5.354,0l1.912.383-1.647,1.03c-.736.455-1.4.912-2.059,1.4a17.973,17.973,0,0,0-1.883,1.486,2.809,2.809,0,0,0-.368.353c-8.179,7.369-12.665,20.593-12.341,36.317.029,2.589.191,5.134.368,7.5a8.212,8.212,0,0,0,.058.9c.177,2.413.4,4.81.618,7.208.9,9.944,1.824,20.211-.073,30.213-.574,2.971-1.589,6.634-4.413,8.664a7.414,7.414,0,0,1-3.207,1.339,8.051,8.051,0,0,1-1.265.132l-.323.324-.368-.324c-4.487-.177-9.12-3.427-11.518-5.384-8.369-6.663-16.577-13.9-24.373-21.475-1.707-1.677-3.383-3.339-5.046-5.046a334.935,334.935,0,0,1-31.213-36.479c-.486.6-.971,1.206-1.442,1.809a140.417,140.417,0,0,0-26.271,54.5,162.272,162.272,0,0,0-3.148,18.96c-1,8.34-1.868,15.548-6.325,24.7a64.273,64.273,0,0,1-9.958,14.93c-.868,1.015-1.868,2.1-3.059,3.31a84.411,84.411,0,0,1-12.4,10.326v.353l-.544.029c-1.147.795-2.28,1.53-3.412,2.266l-.751.485c-3.721,2.354-7.31,4.339-10.767,6.266l-.6.339c-8.517,4.707-16.783,9.12-24.565,13.135l-2.692,1.383c-45.981,23.77-88.948,41.922-117.381,53.925-59.676,25.226-72.8,30.728-73.9,31.051l-5.236,1.545,1.942-1.236c-.265.1-.559.206-.839.324-7.605,2.956-15.4,5.839-22.932,8.62q-7.259,2.691-14.489,5.4c-20.564,7.8-47.349,14.812-72.267-.309-4.854-2.957-8.223-7.031-9.473-11.5-1.927-6.826.794-13.225,3.428-19.432a58.251,58.251,0,0,0,3.221-8.9c2.015-8.149,2.295-19.078-7.708-24.771-10.414-6.031-25.183-5.163-34.494-1.794-11.885,4.383-22.9,13.253-31.86,25.624-17.284,23.594-16.666,57.116,1.485,79.7,3.545,4.531,8.5,8.547,15.18,12.283,17.181,9.59,34.465,9.061,54.455,8.458,6.089-.191,12.267-.927,18.239-1.633,8.753-1.045,17.8-2.118,26.816-1.515,7.9.529,14.724,2.412,20.3,5.589,3.574,2.045,2.147,6.325,1,9.753a22.781,22.781,0,0,0-.838,2.824,416.617,416.617,0,0,0-5.016,42.246c-.53,6.619-.927,13.341-1.368,20.46-2.677,44.188-5.722,94.259-38.318,126.193-18.226,17.916-49.7,28.374-74.592,13.738a11.073,11.073,0,0,0-5.736-1.735,9.228,9.228,0,0,0-2.884.456c-3.854,1.235-7.531,5.133-9.84,10.429A75.134,75.134,0,0,0,158.4,846.3c37.48,19.711,98.392,4.472,125.34-31.36,27.418-36.45,29.463-82.476,31.434-127,.6-13.444,1.221-27.359,2.559-40.583l.427-4.236,1.088,4.118c5.5,20.814,12.8,41.452,19.843,61.4,2.663,7.532,5.413,15.313,8.046,23.006a270.323,270.323,0,0,0,18.4,44.57c2.8,4.971,6.811,10.987,13.047,13.238a13.431,13.431,0,0,0,10.827-.529c8.369-4.149,12.65-15.813,13.767-19.285,2.678-8.06,4.84-16.445,6.943-24.564,2.457-9.532,5-19.4,8.414-28.846,5.8-16.151,12.577-32.919,20.108-49.806,4.707-10.59,9.885-21.152,14.915-31.346l3.942-8.06c4.884-10.032,9.5-19.52,15.946-28.551,2.059-2.928,4.206-5.767,6.266-8.5l2.339-3.09c.5-.588.941-1.191,1.368-1.75l.455-.632c.089-.148.177-.265.251-.368.044-.059.117-.147.132-.177a4.573,4.573,0,0,1,.5-.764,10.273,10.273,0,0,0,.662-.986l.236-.338c1.4-1.927,2.868-3.957,4.25-5.958a266.832,266.832,0,0,1,23.124-28.33l1.456-1.53-.118,2.1q-4.9,88.344-7.972,147.682-2.67,49.889-3.913,72.077c-.559,8.59-.088,25.285,9.179,40.686,8.693,14.386,25.991,24.3,45.158,25.859,16.224,1.236,33.817-2.883,52.277-12.238,3.648-1.838,7.84-5.766,8.4-9.414a4.29,4.29,0,0,0-1.309-3.913c-1.206-1.206-3-1.618-4.913-2.059-.78-.191-1.6-.383-2.368-.632-8.811-2.839-11.8-13.327-13.283-20.961a311.7,311.7,0,0,1-5.9-58.515,295.473,295.473,0,0,1,1.6-34.008c.324-3.236.633-5.869.956-8.3l.088-.662.663-.015c66.163-1.441,128.81-33.316,163.5-83.2a168.537,168.537,0,0,0,29.654-100.025,152.286,152.286,0,0,0-3.133-27.609,5.329,5.329,0,0,0-.118-.633,146.812,146.812,0,0,0-5.266-19.093l-.029-.176c-.147-1.412-.353-2.869-.618-4.457-.426-2.545-.956-4.972-1.559-7.208-.647-2.324-1.883-6.281-3.442-11.3-3.854-12.385-9.679-31.095-14.239-49.056l-.044-.1c-.912-3.6-2.074-8.311-3.059-12.87-2.6-11.886-3.869-21.094-3.751-27.345l.014-.353c.089-2.53.28-7.252,2.369-11a8.872,8.872,0,0,1,1.368-1.986,10.052,10.052,0,0,1,2.088-1.853c3.692-2.383,8.091-1.927,11.5-1.265,1.059.176,2.192.412,3.428.721q9.729,2.382,19.46,4.8,9.687,2.4,19.343,4.78c7.634,1.839,15.5,3.766,23.285,2.545a24.2,24.2,0,0,0,8.34-2.927c4.972-2.368,8.473-6.119,9.841-10.429-24.035,5.1-45.129-8.031-60.883-20.122-1.985-1.516-3.927-3.06-5.869-4.59l-4.471-3.5a3.56,3.56,0,0,0-.986-.574.049.049,0,0,0-.029-.014,7.265,7.265,0,0,0,.471,3.913,1.474,1.474,0,0,1,.117.662,1.523,1.523,0,0,1-.47,1.1,1.711,1.711,0,0,1-1.28.441,2.939,2.939,0,0,1-2.4-1.809,10.856,10.856,0,0,1,.471-9.208,10.407,10.407,0,0,1,6.81-5.134,2.472,2.472,0,0,1,2.251.809,2.237,2.237,0,0,1,.765,2.074,1.451,1.451,0,0,1-1.148,1.015,7.138,7.138,0,0,0-2.677,1.265c.25.059.5.118.721.176a17.484,17.484,0,0,1,1.853.662c5.075,2.119,9.576,5.458,13.93,8.679,1.118.839,2.251,1.662,3.383,2.486a79.11,79.11,0,0,0,30.684,13.5c7.826,1.53,22.418,3.207,32.361-2.545a2.6,2.6,0,0,1,.25-.161c1.177-.809,2.133-1.589,2.78-2.1l.265-.22c.471-.383.956-.795,1.4-1.221a40.318,40.318,0,0,0,6.839-7.884c.25-.354.471-.677.677-1.015l.191-.295a3.668,3.668,0,0,0,.25-.412c.25-.382.456-.706.633-1.029a6.929,6.929,0,0,0,.529-.942,5.451,5.451,0,0,1,.324-.6,39.284,39.284,0,0,0,4.369-14.165c.059-.706.117-1.471.147-2.236l.059-1.471,1.176.883a4,4,0,0,1,.5.5,5.357,5.357,0,0,1,1.163,4.972.986.986,0,0,1-.089.294h.015a5.357,5.357,0,0,0,3.015-2.6,5.823,5.823,0,0,0,.677-1.5l.059-.221A6.142,6.142,0,0,0,890.987,278.939ZM699.308,564.582a117.871,117.871,0,0,1-27.33,25.447,103.942,103.942,0,0,1-14.9,8.532c-3.957,1.706-8.046,3.265-12.135,4.618-12.194,4.163-26.08,7.267-42.466,9.488l-1.147.147.294-1.118a570.628,570.628,0,0,0,18.107-115.41c.633-12.915.765-25.4-4.56-36.362-6.428-13.195-19.475-19.622-29.286-22.7a81.967,81.967,0,0,0-12.047-2.736l-.515-.073a70.361,70.361,0,0,0-42.128,6.59,65.861,65.861,0,0,0-11.474,7.384c-59.131,55.219-104.407,134.885-134.488,236.734l-.618,2.1-.838-2.03c-8.664-21.02-16.4-42.539-22.991-63.971-2.56-8.326-4.854-16.872-7.09-25.139-3.148-11.694-6.4-23.8-10.429-35.435a191.292,191.292,0,0,0-15.092-32.92l-.6-1.014c-5.31-9.091-10.8-18.49-21.138-22.241-2.309-.824-3.471-1.883-3.544-3.222-.133-2.5,3.883-4.662,7.648-6.486l.265-.133q17.343-8.406,34.656-16.886c56.249-27.477,114.41-55.867,173.248-80.123,27.9-11.5,48.173-17.725,63.794-19.593a84.182,84.182,0,0,1,10.9-.632c3.589.059,6.722.309,9.738.544.9.074,1.78.132,2.662.206a164.757,164.757,0,0,1,35.259,5.958,123.726,123.726,0,0,1,33.92,15.371,103.053,103.053,0,0,1,26.992,25.7C734.876,470.412,725.153,530.765,699.308,564.582ZM785.7,242.93l-.015.015a2.516,2.516,0,0,1-1.53.485,4.064,4.064,0,0,1-1.6-.368c-2.162-.882-4.53-3.545-4.648-6.074-.044-.56-.1-1.118-.191-1.707h-.118l-.044-.779c-.015-.044-.03-.1-.044-.148a.7.7,0,0,1-.059-.191,2.171,2.171,0,0,1-.118-.338l-.221-.515a5.762,5.762,0,0,0-.279-.515l-.059-.1a2.708,2.708,0,0,1-.368-.441l-.338-.353-.015.015-.809-.574-.353-.147a6.679,6.679,0,0,0-.9-.353l-.221-.059-1.779-.25-.25-.029a11.387,11.387,0,0,0-3.369.544,13.237,13.237,0,0,0-5.266,3.707,2.1,2.1,0,0,1-1.662.735c-2.162-.015-4.575-2.9-4.6-2.927-1.412-1.8-2.457-4.56-.78-6.487a15.875,15.875,0,0,1,18.137-4.133,21.5,21.5,0,0,1,12.444,18.048A3.276,3.276,0,0,1,785.7,242.93Zm-10.311-11.591a.4.4,0,0,0,.132.015l-.088-.089Zm.044-.074-.044.074a.4.4,0,0,0,.132.015Zm0,0-.044.074a.4.4,0,0,0,.132.015Zm0,0-.044.074a.4.4,0,0,0,.132.015Zm0,0-.044.074a.4.4,0,0,0,.132.015Z" fill="#fff"/><path d="M786.638,239.988a21.5,21.5,0,0,0-12.444-18.048,15.875,15.875,0,0,0-18.137,4.133c-1.677,1.927-.632,4.692.78,6.487.029.029,2.442,2.912,4.6,2.927a2.1,2.1,0,0,0,1.662-.735,13.237,13.237,0,0,1,5.266-3.707,11.387,11.387,0,0,1,3.369-.544l.25.029,1.779.25.221.059a6.679,6.679,0,0,1,.9.353l.353.147.809.574.015-.015.338.353a2.708,2.708,0,0,0,.368.441l.059.1a5.762,5.762,0,0,1,.279.515l.221.515a2.171,2.171,0,0,0,.118.338.7.7,0,0,0,.059.191c.014.045.029.1.044.148l.044.779h.118c.088.589.147,1.147.191,1.707.118,2.529,2.486,5.192,4.648,6.074a4.064,4.064,0,0,0,1.6.368,2.516,2.516,0,0,0,1.53-.485l.015-.015A3.276,3.276,0,0,0,786.638,239.988Zm-11.252-8.649.044-.074.088.089A.4.4,0,0,1,775.386,231.339Z"/><path d="M916.493,288.029c-1.824-12.547-10.708-20.122-13.606-22.593-8.178-6.987-17.328-11.93-25.4-16.3-9.62-5.192-17.931-9.678-21.888-15.8-2.427-3.722-3.957-9.209-5.737-15.578a130.808,130.808,0,0,0-6.236-18.534c-8.9-19.857-26.875-36.244-49.292-44.922-13.827-5.384-29.654-8.135-47.261-8.179-2.707,0-5.384.059-8,.177q-6.024-5.913-12.062-11.871c-3.78-3.677-10.09-9.855-19.666-11.973a32.078,32.078,0,0,0-7.355-.809c-9.767,0-17.534,4.074-23.668,7.943A568.806,568.806,0,0,0,614.891,173.5c-3.972,3.295-11.356,9.4-14.563,19.226a34.908,34.908,0,0,0-1.044,18.254c-.191.236-.868,1.1-.868,1.1a163.037,163.037,0,0,0-30.39,63.119,183.476,183.476,0,0,0-3.574,21.4c-.912,7.6-1.412,11.8-4.251,17.622a44.643,44.643,0,0,1-8.84,12.282,71.5,71.5,0,0,1-13.077,10.238c-3.236,2.03-6.561,3.883-9.782,5.678l-.456.25c-9.208,5.06-18.181,9.855-26.727,14.239C456.1,380.287,413.621,398.232,385.5,410.1c-31.993,13.518-52.822,22.314-63.736,26.889-3.266.515-6.767,1.883-13.68,4.545-7.5,2.913-15.063,5.707-22.623,8.5-4.869,1.809-9.738,3.6-14.636,5.457-12.915,4.9-23.02,7.179-31.817,7.179a38.662,38.662,0,0,1-19.534-4.9c.471-1.265,1.1-2.721,1.574-3.868a76.381,76.381,0,0,0,4.369-12.3c5.266-21.476-1.6-40-18.225-49.453-8.443-4.9-18.77-7.488-29.89-7.488a70.06,70.06,0,0,0-23.579,4.045c-16.063,5.928-30.669,17.519-42.172,33.406-23.168,31.625-22.285,76.592,1.927,106.7,5.383,6.9,12.532,12.783,21.9,18.049,18.211,10.149,35.626,11.546,51.733,11.546,4.737,0,9.664-.132,14.312-.279,7.061-.206,13.739-1.015,20.182-1.78a164.762,164.762,0,0,1,18.7-1.53q1.279,0,2.559.045c-1.927,12.547-3.045,24.844-3.942,36.391-.53,6.751-.956,13.738-1.4,20.872-2.559,42.114-5.207,85.668-31.654,111.586-8.885,8.723-21.491,14.151-32.92,14.151a28.4,28.4,0,0,1-14.533-3.678,33.3,33.3,0,0,0-17.195-4.883c-13.96,0-26.7,9.311-33.229,24.271C87.7,799.8,106.694,854.623,151.337,878.452c14.224,7.472,31.228,11.429,49.174,11.429,40.377,0,82.373-19.754,104.466-49.144,16.887-22.432,25.4-47.659,29.978-73.268a283.33,283.33,0,0,0,14.151,31.493l.279.515c4.325,7.722,11.635,18.549,25.094,23.417a37.137,37.137,0,0,0,12.4,2.178c18.122,0,33.817-13.9,40.893-36.039,2.927-8.781,5.192-17.548,7.384-26.035,2.427-9.444,4.736-18.372,7.8-26.845,5.634-15.666,12.194-31.9,19.519-48.321,4.5-10.164,9.355-20.019,14.489-30.463l4.045-8.252c3.442-7.061,6.722-13.812,10.561-20.049-1.6,29.684-3,56.014-4.192,78.46-1.72,32.42-3.015,56.749-3.868,71.282-.883,13.665.544,34.082,12.356,53.675,12.532,20.77,35.891,34.45,62.6,36.627,2.427.176,4.9.279,7.355.279,18.195,0,37.288-5,56.734-14.856,8.605-4.355,18.49-13.46,20.432-25.977a26.476,26.476,0,0,0-7.62-23.168,29.25,29.25,0,0,0-13.238-7.428,37.9,37.9,0,0,1-1.177-4.736,289.4,289.4,0,0,1-5.487-54.411c-.073-7.075.133-14.283.633-21.564,65.972-6.8,126.884-40.848,162.172-91.6a190.919,190.919,0,0,0,33.64-113.307,175.242,175.242,0,0,0-3.692-32.272,171.492,171.492,0,0,0-5.281-19.667,98.667,98.667,0,0,0-2.559-12.782c-.691-2.457-1.971-6.59-3.619-11.871-3.6-11.576-8.972-28.786-13.282-45.423l-.015-2.294-1.206-2.471a229.068,229.068,0,0,1-5.045-24.712l31.36,7.722c6.546,1.589,14.666,3.575,23.476,3.575a54.676,54.676,0,0,0,8.5-.648c11.989-1.838,22.668-8.178,29.272-17.4l.942-1.309.735-1.427c.4-.765.765-1.559,1.1-2.339a71.019,71.019,0,0,0,13.768-8.84,64.613,64.613,0,0,0,14.4-16.636l1.338-1.413,1.089-2.9q.9-1.788,1.721-3.619a28.341,28.341,0,0,0,7.825-8.693A28.834,28.834,0,0,0,916.493,288.029Zm-30.86-2.883-.118.324a2.553,2.553,0,0,1-.368.721c.192-1.03.354-2.074.456-3.119,0-.029.015-.044.015-.073a3.426,3.426,0,0,1,.118.676A3.024,3.024,0,0,1,885.633,285.146Zm5.163-3.6-.059.221a5.839,5.839,0,0,1-.677,1.5,5.357,5.357,0,0,1-3.015,2.6h-.015a.986.986,0,0,0,.089-.294,5.357,5.357,0,0,0-1.163-4.972,3.936,3.936,0,0,0-.5-.5l-1.176-.883-.059,1.471c-.03.765-.088,1.53-.147,2.236a39.284,39.284,0,0,1-4.369,14.165,5.451,5.451,0,0,0-.324.6,6.929,6.929,0,0,1-.529.942c-.177.323-.383.647-.633,1.029a3.668,3.668,0,0,1-.25.412l-.191.295c-.206.338-.427.661-.677,1.014a40.3,40.3,0,0,1-6.839,7.885c-.442.426-.927.838-1.4,1.221l-.265.22c-.647.515-1.6,1.295-2.78,2.1a2.4,2.4,0,0,0-.25.162c-9.943,5.751-24.535,4.074-32.361,2.544a79.11,79.11,0,0,1-30.684-13.5c-1.132-.824-2.265-1.647-3.383-2.486-4.354-3.221-8.855-6.56-13.93-8.679a17.28,17.28,0,0,0-1.853-.661c-.22-.059-.471-.118-.721-.177a7.138,7.138,0,0,1,2.677-1.265,1.451,1.451,0,0,0,1.148-1.015,2.237,2.237,0,0,0-.765-2.074,2.472,2.472,0,0,0-2.251-.809,10.407,10.407,0,0,0-6.81,5.134,10.856,10.856,0,0,0-.471,9.208,2.939,2.939,0,0,0,2.4,1.809,1.711,1.711,0,0,0,1.28-.441,1.523,1.523,0,0,0,.47-1.1,1.474,1.474,0,0,0-.117-.662,7.265,7.265,0,0,1-.471-3.913.048.048,0,0,1,.029.015,3.534,3.534,0,0,1,.986.573l4.471,3.5c1.942,1.53,3.884,3.074,5.869,4.589,15.754,12.092,36.848,25.227,60.883,20.123-1.368,4.31-4.869,8.061-9.841,10.429a24.2,24.2,0,0,1-8.34,2.927c-7.781,1.221-15.651-.706-23.285-2.545q-9.664-2.382-19.343-4.78-9.73-2.4-19.46-4.8c-1.236-.309-2.369-.545-3.428-.721-3.412-.662-7.811-1.118-11.5,1.265a10.052,10.052,0,0,0-2.088,1.853,8.872,8.872,0,0,0-1.368,1.986c-2.089,3.751-2.28,8.473-2.369,11l-.014.353c-.118,6.251,1.147,15.459,3.751,27.345.985,4.56,2.147,9.266,3.059,12.87l.044.1c4.56,17.961,10.385,36.671,14.239,49.056,1.559,5.016,2.795,8.973,3.442,11.3.6,2.236,1.133,4.663,1.559,7.208.265,1.588.471,3.045.618,4.457l.029.176a146.812,146.812,0,0,1,5.266,19.093,5.329,5.329,0,0,1,.118.633,152.286,152.286,0,0,1,3.133,27.609,168.537,168.537,0,0,1-29.654,100.025c-34.685,49.879-97.332,81.755-163.495,83.2l-.663.015-.088.662c-.323,2.427-.632,5.06-.956,8.3a295.463,295.463,0,0,0-1.6,34.008,311.7,311.7,0,0,0,5.9,58.515c1.486,7.634,4.472,18.122,13.283,20.961.765.25,1.588.441,2.368.632,1.912.441,3.707.853,4.913,2.059a4.29,4.29,0,0,1,1.309,3.913c-.559,3.648-4.751,7.575-8.4,9.414-18.46,9.355-36.053,13.474-52.277,12.238-19.167-1.559-36.465-11.473-45.158-25.859-9.267-15.4-9.738-32.1-9.179-40.686q1.3-22.152,3.913-72.077,3.132-59.33,7.972-147.682l.118-2.1-1.456,1.53a266.832,266.832,0,0,0-23.124,28.33c-1.382,2-2.853,4.031-4.25,5.958l-.236.338a10.273,10.273,0,0,1-.662.986,4.573,4.573,0,0,0-.5.764c-.015.03-.088.118-.132.177-.074.1-.162.221-.251.368l-.455.632c-.427.559-.868,1.162-1.368,1.751q-1.17,1.543-2.339,3.089c-2.06,2.735-4.207,5.574-6.266,8.5-6.443,9.031-11.062,18.519-15.946,28.551l-3.942,8.06c-5.03,10.194-10.208,20.756-14.915,31.346-7.531,16.887-14.312,33.656-20.108,49.807-3.412,9.443-5.957,19.313-8.414,28.845-2.1,8.119-4.265,16.5-6.943,24.565-1.117,3.471-5.4,15.136-13.767,19.284a13.431,13.431,0,0,1-10.827.529c-6.236-2.25-10.252-8.267-13.047-13.238a270.323,270.323,0,0,1-18.4-44.57c-2.633-7.693-5.383-15.474-8.046-23.006-7.045-19.946-14.341-40.583-19.843-61.4l-1.088-4.118-.427,4.236c-1.338,13.224-1.956,27.139-2.559,40.583-1.971,44.526-4.016,90.552-31.434,127-26.948,35.832-87.86,51.071-125.34,31.36a75.134,75.134,0,0,1-33.272-96.067c2.309-5.3,5.986-9.194,9.84-10.429a9.228,9.228,0,0,1,2.884-.456,11.073,11.073,0,0,1,5.736,1.735c24.888,14.636,56.366,4.178,74.592-13.738,32.6-31.934,35.641-82,38.318-126.193.441-7.119.838-13.841,1.368-20.46a416.617,416.617,0,0,1,5.016-42.246,22.781,22.781,0,0,1,.838-2.824c1.147-3.428,2.574-7.708-1-9.753-5.575-3.177-12.4-5.06-20.3-5.589-9.017-.6-18.063.471-26.816,1.515-5.972.706-12.15,1.441-18.239,1.633-19.99.6-37.274,1.132-54.455-8.458-6.678-3.736-11.635-7.752-15.18-12.283-18.151-22.579-18.769-56.1-1.485-79.7,8.958-12.371,19.975-21.241,31.86-25.624,9.311-3.369,24.08-4.237,34.494,1.794,10,5.693,9.723,16.622,7.708,24.771a58.251,58.251,0,0,1-3.221,8.9c-2.634,6.208-5.355,12.606-3.428,19.431,1.25,4.472,4.619,8.547,9.473,11.5,24.918,15.121,51.7,8.105,72.267.309q7.215-2.714,14.489-5.4c7.532-2.78,15.327-5.663,22.932-8.62.28-.118.574-.221.839-.324l-1.942,1.236,5.236-1.545c1.1-.323,14.225-5.825,73.9-31.051,28.433-12,71.4-30.155,117.381-53.925l2.692-1.383c7.782-4.015,16.048-8.428,24.565-13.135l.6-.339c3.457-1.927,7.046-3.912,10.767-6.266l.751-.485c1.132-.736,2.265-1.471,3.412-2.266l.544-.029v-.353a84.411,84.411,0,0,0,12.4-10.326c1.191-1.206,2.191-2.3,3.059-3.31a64.273,64.273,0,0,0,9.958-14.93c4.457-9.149,5.325-16.357,6.325-24.7a162.272,162.272,0,0,1,3.148-18.96,140.417,140.417,0,0,1,26.271-54.5c.471-.6.956-1.206,1.442-1.809a334.935,334.935,0,0,0,31.213,36.479c1.663,1.707,3.339,3.369,5.046,5.046,7.8,7.575,16,14.812,24.373,21.475,2.4,1.957,7.031,5.208,11.518,5.384l.368.324.323-.324a8.051,8.051,0,0,0,1.265-.132,7.414,7.414,0,0,0,3.207-1.339c2.824-2.03,3.839-5.692,4.413-8.664,1.9-10,.97-20.269.073-30.213-.22-2.4-.441-4.795-.618-7.208a8.212,8.212,0,0,1-.058-.9c-.177-2.368-.339-4.913-.368-7.5-.324-15.724,4.162-28.948,12.341-36.317a2.809,2.809,0,0,1,.368-.353,17.973,17.973,0,0,1,1.883-1.486c.661-.485,1.323-.941,2.059-1.4l1.647-1.03-1.912-.383a13.665,13.665,0,0,0-5.354,0,18.919,18.919,0,0,0-11.032,7.208c-.309.412-.589.809-.883,1.236a17.751,17.751,0,0,0-1.574,2.691c-3.412,7.076-3.471,15.254-3.53,22.462-.015,1.338-.029,2.648-.029,3.971s-.015,2.633-.03,3.972c-.132,13.18-.22,26.4-.309,39.554v.544c-.029,2.456-.485,6.678-3.265,7.266a2.724,2.724,0,0,1-.824.059,4.8,4.8,0,0,1-.691-.1l-.1-.014a9.978,9.978,0,0,1-3.118-1.839,216.129,216.129,0,0,1-23.933-20.888c-.25-.235-.5-.5-.735-.75s-.5-.515-.736-.75c-1.736-1.765-3.516-3.648-5.383-5.693a3.342,3.342,0,0,0-.3-.338c-1.971-2.133-3.883-4.354-5.486-6.237-1.206-1.456-2.369-2.9-3.545-4.383-1.574-1.927-3.075-3.927-4.516-5.869-.9-1.192-1.8-2.4-2.677-3.648-1.015-1.442-2.074-2.942-3.06-4.442-.809-1.192-1.662-2.457-2.486-3.781-.779-1.191-1.544-2.427-2.294-3.662l-.6-.971c-.779-1.192-1.514-2.442-2.25-3.663l-.382-.662c-1.9-3.236-4.134-7.5-4.531-11.664a11.927,11.927,0,0,1,.515-5.178c1.265-3.883,4.795-6.811,7.634-9.149a543.088,543.088,0,0,1,58.912-42.113c3.53-2.236,7.648-4.605,11.929-4.605a10.415,10.415,0,0,1,2.25.221c3.589.794,6.517,3.663,9.106,6.193q12.311,12.135,24.653,24.226l.088.1c.809.795,1.6,1.574,2.412,2.339l.088.088c.971.971,1.9,1.9,2.854,2.824l3.692,3.575-2.471-4.5c-.265-.456-.515-.912-.78-1.383-.25-.426-.5-.868-.75-1.309-.382-.706-.779-1.4-1.162-2.1-.662-1.163-1.309-2.339-2.03-3.575-.338-.632-.676-1.265-1.029-1.883,3.1-.22,6.413-.338,10.134-.338h.177c14.621.029,27.727,2.265,38.965,6.649,17,6.59,30.478,18.695,37,33.214a110.608,110.608,0,0,1,5.133,15.5c1.192,4.251,2.412,8.635,4.016,12.768.22.574.441,1.118.676,1.589a11.472,11.472,0,0,0,.456,1.074l.1.22c.324.765.677,1.515,1.089,2.28.368.706.75,1.442,1.162,2.074.294.545.647,1.133.986,1.648a3.464,3.464,0,0,0,.338.47,14.19,14.19,0,0,0,1.191,1.663l.839,1.1c.1.117.206.25.294.353.441.529.882,1.074,1.353,1.574l1.309,1.412c.633.618,1.251,1.206,1.854,1.78a13.868,13.868,0,0,0,1.279,1.088c6.355,5.59,14.18,9.826,21.741,13.93,7.384,4,15.018,8.149,21.329,13.547,2.133,1.824,4.707,4.31,5.663,7.4l.059.177.014.015c.1.411.206.823.265,1.22v.03A6.142,6.142,0,0,1,890.8,281.542Z"/><path d="M701.971,425.18a103.053,103.053,0,0,0-26.992-25.7,123.757,123.757,0,0,0-33.92-15.372,164.8,164.8,0,0,0-35.259-5.957c-.882-.073-1.765-.132-2.662-.206-3.016-.235-6.149-.485-9.738-.544a84.182,84.182,0,0,0-10.9.632c-15.621,1.869-35.891,8.091-63.794,19.593-58.838,24.256-117,52.646-173.248,80.123Q328.138,486.2,310.8,494.638l-.265.133c-3.765,1.824-7.781,3.986-7.648,6.487.073,1.338,1.235,2.4,3.544,3.221,10.341,3.751,15.828,13.15,21.138,22.241l.6,1.015a191.212,191.212,0,0,1,15.092,32.919c4.03,11.635,7.281,23.741,10.429,35.435,2.236,8.267,4.53,16.813,7.09,25.139,6.59,21.432,14.327,42.951,22.991,63.971l.838,2.03.618-2.1c30.081-101.849,75.357-181.515,134.488-236.734a65.861,65.861,0,0,1,11.474-7.384,70.361,70.361,0,0,1,42.128-6.59l.515.073a81.967,81.967,0,0,1,12.047,2.736c9.811,3.075,22.858,9.5,29.286,22.7,5.325,10.958,5.193,23.447,4.56,36.362A570.628,570.628,0,0,1,601.623,611.7l-.294,1.118,1.147-.147c16.386-2.221,30.272-5.325,42.466-9.488,4.089-1.353,8.178-2.912,12.135-4.618a103.942,103.942,0,0,0,14.9-8.532,117.871,117.871,0,0,0,27.33-25.447C725.153,530.765,734.876,470.412,701.971,425.18Zm-63.324,37.289c-7.841-16.122-22.624-27.963-42.731-34.259a102.489,102.489,0,0,0-15.284-3.486l-.353-.044A89.077,89.077,0,0,0,566,423.518a93.635,93.635,0,0,0-31.507,5.56c23.667-9.561,41.363-14.959,54.013-16.474a63.337,63.337,0,0,1,7.516-.456c2.957,0,5.678.22,8.547.441l3.015.235c36.524,2.663,63.324,15.386,79.652,37.862,25.565,35.141,18.887,84.874-2.339,112.645-11.723,15.328-28.11,24.742-33.42,27.066a133.791,133.791,0,0,1-17.078,6.075,590.585,590.585,0,0,0,11.047-86.727C646.207,494.447,646.31,478.193,638.647,462.469ZM367.742,565.611a214.573,214.573,0,0,0-16.886-36.832l-.588-1c-1.869-3.192-3.957-6.752-6.414-10.341q7.392-3.618,14.813-7.237C413.43,483.459,470,455.82,526.958,432.167c-.9.427-1.721.824-2.457,1.192a88.786,88.786,0,0,0-15.4,9.914l-.632.515-.6.559c-50.086,46.746-90.552,109.747-120.721,187.766-.544-1.692-1.073-3.4-1.6-5.1-2.442-7.958-4.589-15.945-6.87-24.4C375.421,590.544,372.067,578.056,367.742,565.611Z"/></svg>