<?xml version="1.0" encoding="utf-8"?>
<!-- Generator: Adobe Illustrator 24.3.0, SVG Export Plug-In . SVG Version: 6.00 Build 0)  -->
<svg version="1.1" id="Layer_1" xmlns="http://www.w3.org/2000/svg" xmlns:xlink="http://www.w3.org/1999/xlink" x="0px" y="0px"
	 viewBox="0 0 1080 1080" style="enable-background:new 0 0 1080 1080;" xml:space="preserve">
<style type="text/css">
	.st0{fill:#00008B;}
	.st1{fill:#00008B;stroke:#00008B;stroke-width:21.1213;stroke-miterlimit:10;}
</style>
<g>
	<g>
		<path class="st0" d="M569.2,379c-1.9-2.3-10.1-11.6-23.3-13.3c-16.4-2.1-33.8,8.4-43.3,26.7c-9.8-17.8-27-28.4-43.3-26.7
			c-21.7,2.3-33.9,25.5-36.6,40c-6.1,32.2,25.3,72.2,80,96.6c8.5-3.4,62.6-25.8,73.3-73.3C578,419.8,583.3,395.9,569.2,379z
			 M500.5,422.9c0.3-2.2,0.5-4.3,1-6.4c0.8-3.3,2.3-6.2,5.8-7.5c0.2,0,0.4,0,0.6,0c1.7,0.9,3.5,1.6,5,2.8c4.5,3.5,5.9,12.2,2.7,16.7
			c-1.9,2.7-4.2,4.8-7.9,4.5c-2.2-0.2-4.1-1-5.3-2.8C500.9,428,500.1,425.6,500.5,422.9z M486.7,411.6c3-2.2,5.9-2.1,7.9,1
			c3.1,4.6,5,9.7,3.7,15.4c-0.9,4-3.1,5.7-7.2,5.9c-3.4,0.4-8-3.7-9.1-7.3C480.8,422.3,482.4,414.8,486.7,411.6z M469.8,440.5
			c-0.9-4.1-1-8.1,1.7-11.7c1.6-2.1,3.6-2.6,6-1.7c3.8,1.4,10.7,9.8,10.2,14.9c0.4,4.8-4.9,9-10.6,6.8
			C473.2,447.3,470.7,444.6,469.8,440.5z M526.1,463.5c-0.6,4.7-4,6.9-8.7,6c-3.1-0.6-6.1-1.4-9.3-1.9c-5.9-0.9-11.6,0.2-17.2,2.3
			c-1.6,0.6-3.3,1.1-4.9,1.4c-3.8,0.7-6.9-1.6-7.5-5.5c-0.2-1.3-0.3-2.7-0.4-4c0-2.5,0.2-4.9,1.7-6.9c0.8-1.1,2-2.3,3.3-2.8
			c2.8-1,4.9-2.9,6.4-5.3c1.3-2,2.3-4.2,3.5-6.3c4.2-7.1,12.6-7,16.7,0.2c1.6,2.8,3.4,5.4,6.1,7.4c1.1,0.8,2.4,1.6,3.7,1.8
			c2.8,0.5,4.5,2.3,5.6,4.7C526.2,457.4,526.5,460.5,526.1,463.5z M527.8,444.5c-2.6,1.9-5.3,3.3-8.6,2.4c-3.5-1-5.3-3.5-5.2-9.2
			c0.1-2.7,2.2-6.1,4.7-9.3c0.9-1.2,2-2.2,3.2-3.1c2.4-1.9,4.8-1.5,7,0.6C533.3,430.3,532.6,441,527.8,444.5z"/>
		<path class="st0" d="M740.6,694.7c7-34.8-19.7-140.8,23.8-146c13.3-1.4,27-0.2,40.2-1.9c21.3-2.3,36.4-29.7,19.5-45.1
			c-37.1-33.1-75.3-65-112.8-97.7c-56.6-46.5-109.3-98.5-168-142c-48.5-25.6-88.5,16.2-122,46.4c-74.4,64.4-149.5,128-223.5,192.9
			c-21.6,21.2,5.2,48.8,29.1,46.8c17.2,0.7,39.2-4.3,49.8,13.1c11,68.5,0.8,142,4.1,212.1c-2.5,15.6,5.2,36.6-3.4,49.5
			c-4.1,1.8-7.9-0.7-8.1-5.5c-0.1-70.7,0-141.4,0-212.2c-1.9-15.5,7.5-43.6-15.6-45.3c-29.4,1-70.9-0.7-75-38.1
			c-2-32.1,35.9-46,54.5-66.8c33.1-28.6,66.3-57.1,99.5-85.6c46.8-33,117.5-120.5,169.3-126c57.3-6.3,92.4,50.6,134.1,80.6
			c64.6,56,129.7,111.3,194.2,167.4c20,18.1,14.8,44.7-4.1,58.4c-18.7,15.2-43,6.3-64.2,11.7c-24.1,29-3.1,152.1-9.8,198.9
			c-3.1,12.3,8.2,65.4-8.2,62.3C734.7,783.9,743.7,736.3,740.6,694.7z"/>
		<path class="st0" d="M508.7,263.1c60,4.6,93.5,65.2,140.2,96.7c41.3,35.9,83,71.4,124.5,107.1c9.5,12.3,51.3,35.1,47.4,48.4
			c-11.7,6.5-26.6-18.9-37.4-24.5c-46.6-40-93-80.2-139.6-120.2c-51.1-32.8-110.8-137-176-77.8C400.7,350.9,333.2,408.5,266,466.6
			c-14.5,8.1-53.6,56.1-65.5,48.5c-4.5-13,33.3-31.9,41.5-43.1c28.9-24.9,57.8-49.9,86.8-74.7c27.6-23.8,55.3-47.6,83-71.4
			C441.9,303.9,468.7,263.3,508.7,263.1z"/>
		<g>
			<path class="st0" d="M270.1,797.3c-49.5,16.2,148.5,26.2,160.9,27.2c0,0,0.5-11.1,0.5-11.1C377.7,810.8,323.4,805.4,270.1,797.3z
				"/>
			<path class="st0" d="M773.9,790.8c-58,10.3-116.4,17.3-175.1,21.1c-9.9,25.5,113.2-3.8,132.6-2.9c14.9-2.2,29.4-4.6,44.4-7.3
				L773.9,790.8z"/>
		</g>
		<path class="st0" d="M589.2,581.3C404.7,455.8,416.9,730.4,422.8,839.1c63.6,3.4,127.3,3,191-1.4
			C618.1,792.2,634.3,619.6,589.2,581.3z"/>
	</g>
</g>
</svg>
