<svg xmlns="http://www.w3.org/2000/svg" viewBox="0 0 1080 1080"><path d="M410.31,509.3l-.5.06a101.577,101.577,0,0,0-41.21,14.5c.22-.36.46-.72.71-1.08a96.176,96.176,0,0,1,37.13-13.04C407.73,509.57,409.03,509.42,410.31,509.3Z" fill="#c8f657"/><path d="M551.42,647.24c-.52.01-1.07-.02-1.59-.03a36.319,36.319,0,0,0,.93,5.42c.22.88.47,1.76.76,2.62a35.31,35.31,0,0,0,4.18,8.52,34.068,34.068,0,0,0,2.5,3.24c.63.73,1.29,1.43,1.97,2.11.23.22.46.44.7.66.19.16.39.34.58.5.09.08.18.17.28.25.06.05.13.1.19.15,0,.01,0,.01-.01.01-1.49.51-2.98,1.01-4.48,1.49a.01.01,0,0,0-.01.01c-.81-.78-1.58-1.61-2.33-2.48q-.96-1.11-1.83-2.28c-.38-.52-.75-1.05-1.11-1.58a40.262,40.262,0,0,1-2.41-4.17,39.641,39.641,0,0,1-2.19-5.36c-.2.6-.41,1.19-.64,1.77a38.075,38.075,0,0,1-7.21,12.11c-.37.4-.75.8-1.14,1.18-.19.19-.39.38-.59.57a24.226,24.226,0,0,1-7.19,4.73c-.38.16-.76.31-1.15.45-.28.1-.56.19-.84.28a24.362,24.362,0,0,1-2.58.66c-.14.03-.28.06-.42.08-6.55,1.19-14.04-.07-21.26-3.68-.66-.33-1.31-.67-1.95-1.03s-1.28-.73-1.9-1.12c-.42-.26-.83-.53-1.25-.81.83-1.09,1.64-2.2,2.41-3.32a37.582,37.582,0,0,0,3.5,2.09c.33.18.67.35,1.01.52,6.1,3.03,12.33,4.22,17.78,3.46a20.112,20.112,0,0,0,2.08-.4h.01a18.423,18.423,0,0,0,2.97-.97,18.787,18.787,0,0,0,3.45-1.9c.36-.25.72-.51,1.08-.79a.01.01,0,0,0,.01-.01c.47-.37.93-.75,1.38-1.16.68-.63,1.33-1.3,1.97-2.02.62-.71,1.21-1.47,1.78-2.26,0-.01,0-.01.01-.01a35.774,35.774,0,0,0,2.59-4.32.01.01,0,0,1,.01-.01c.57-1.15,1.1-2.36,1.58-3.61q.24-.645.48-1.32c.33-.96.63-1.95.9-2.96a2.1,2.1,0,0,0,.06-.24c.12-.46.23-.91.34-1.38.32-1.39.59-2.82.79-4.28h-.02v-.01c-.74-.16-1.47-.35-2.2-.56a.035.035,0,0,0-.02-.01c-.36-.11-.72-.23-1.08-.35a32.247,32.247,0,0,1-4.66-2.01q-.75-.39-1.47-.81c-.96-.57-1.88-1.17-2.75-1.8-.3-.21-.58-.42-.87-.64s-.56-.43-.83-.66c-.21-.17-.41-.34-.61-.51-.59-.51-1.16-1.02-1.69-1.55-.36-.36-.71-.72-1.04-1.08a23.992,23.992,0,0,1-2.4-3.04c-.11-.16-.21-.32-.31-.49a11.145,11.145,0,0,1-.66-1.14c-.13-.24-.25-.48-.35-.71a9.16,9.16,0,0,1-.57-1.46,4.825,4.825,0,0,1-.17-.59,5.567,5.567,0,0,1-.14-.66c-.04-.21-.07-.42-.09-.62v-.01c-.02-.21-.03-.41-.03-.61a5.3,5.3,0,0,1,.2-1.51c2.15-7.41,21.73-7.2,24-7.16,9.69.21,27.15,3.26,28.33,11C577.28,636.8,564.24,647.1,551.42,647.24Z" fill="#c8f657"/><path d="M516.6,581.4c-.15.16-.3.32-.43.49-.24-1.22-.49-2.43-.78-3.63q-.345-1.5-.75-2.97c.33.91.64,1.83.94,2.76v.01C515.94,579.16,516.28,580.28,516.6,581.4Z" fill="#c8f657"/><path d="M574.14,533.5a.833.833,0,0,0-.15-.04c-20.62-4.84-43.59.35-63.05,14.11-2.09,1.48-4.17,3.08-6.16,4.73-.4.33-.79.67-1.18,1.02a100.446,100.446,0,0,0-93.29-44.02c38.01-4.55,73.35,12.18,92.52,40.37q2.82-2.37,5.83-4.5c18.38-12.99,40.1-17.86,59.63-13.33Q571.26,532.53,574.14,533.5Z" fill="#c8f657"/><path d="M600.53,670.01c-.52.61-1.07,1.2-1.64,1.77-1.3-.62-2.58-1.27-3.83-1.96-.01,0-.02,0-.02-.01a33.549,33.549,0,0,0,3.2-3.41l.01.01Q599.345,668.24,600.53,670.01Z" fill="#c8f657"/><path d="M416.74,382c-.96-11.88-18.52-17.28-27.06-22.18q-1.92-1.1-3.81-2.22c-1.11-.65-2.21-1.32-3.3-1.99a.031.031,0,0,0-.02-.01c-.68-.42-1.35-.84-2.02-1.26-.12-.07-.23-.15-.35-.22-.14-.09-.29-.18-.43-.28q-1-.615-1.98-1.26l-.24-.15c-.25-.17-.51-.33-.76-.5-.17-.11-.33-.22-.5-.33-.67-.43-1.35-.87-2.01-1.33-.04-.03-.09-.06-.13-.09-.08-.05-.16-.11-.24-.16-.96-.63-1.92-1.29-2.87-1.95-.91-.63-1.81-1.26-2.71-1.9-.68-.48-1.37-.97-2.04-1.47a.351.351,0,0,1-.08-.05c-.43-.31-.85-.62-1.28-.94-.53-.38-1.05-.76-1.57-1.16l-.21-.15c-.24-.18-.47-.36-.71-.54l-1.35-1.02c-.02-.01-.03-.03-.05-.04-.23-.17-.46-.34-.69-.52-2.07-1.59-4.23-3.56-6.53-5.28-.22-.16-.43-.32-.65-.47-.37-.27-.74-.52-1.11-.76-.3-.19-.6-.38-.9-.56q-.69-.4-1.38-.75c-.31-.15-.63-.3-.94-.43-.16-.07-.32-.13-.48-.19a4.588,4.588,0,0,0-.48-.17c-.16-.06-.32-.11-.49-.16s-.32-.1-.49-.14-.32-.07-.49-.11c-.53-.11-1.04-.19-1.55-.25a13.44,13.44,0,0,0-2.09-.07.277.277,0,0,0-.09.01.915.915,0,0,0-.17.01h-.09c-.14.01-.28.02-.42.04a1.068,1.068,0,0,0-.25.03,5.622,5.622,0,0,0-.57.09,1.857,1.857,0,0,0-.34.06,3.4,3.4,0,0,0-.34.07h-.02c-.13.04-.27.07-.4.11l-.42.12a12.843,12.843,0,0,0-1.35.5,12.663,12.663,0,0,0-1.27.65c-.2.12-.41.25-.62.39s-.4.27-.59.41-.39.29-.58.45-.38.3-.56.47-.37.33-.55.51-.35.35-.53.53a22.947,22.947,0,0,0-1.99,2.44q-.465.645-.9,1.35c-.26.41-.5.83-.74,1.26-.23.4-.45.82-.67,1.24l-.06.12c-.19.37-.37.74-.55,1.13-.02.05-.05.1-.07.16-.23.47-.44.96-.65,1.45-.23.54-.45,1.1-.66,1.66-.19.51-.38,1.02-.56,1.54-.02.05-.04.11-.06.17-.08.21-.15.43-.22.65s-.15.44-.22.66c-.01.01-.01.01-.01.02-.04.14-.09.27-.13.41-.27.87-.53,1.76-.78,2.65a1.332,1.332,0,0,1-.05.19c-.23.83-.44,1.65-.65,2.48-.14.59-.28,1.19-.41,1.78-.12.53-.23,1.05-.34,1.58-.01.06-.03.13-.04.19-.07.35-.15.7-.21,1.05s-.14.69-.2,1.03c-.04.22-.08.44-.12.65-.05.24-.09.48-.13.72-.06.28-.1.56-.15.84q-.135.84-.27,1.65c-.26,1.62-.48,3.15-.66,4.57l-.09.69c-.18,1.37-.33,2.61-.45,3.67-.45,3.91-.83,7.88-1.12,11.87-.1,1.33-.19,2.66-.27,4q-.255,4.02-.37,8.06-.135,4.035-.13,8.09c0,.92.01,1.84.01,2.76.02,1.65.06,3.31.11,4.96v.12c.05,1.28.1,2.57.16,3.85.01.12.02.24.02.36.07,1.33.15,2.66.24,3.98.05.81.11,1.61.17,2.42.13,1.61.27,3.23.44,4.83.08.8.17,1.6.26,2.4.03.21.05.43.08.64.13,1.14.28,2.27.43,3.41a.881.881,0,0,1,.02.17c.15,1.05.3,2.09.46,3.13.01.08.03.17.04.25.03.18.05.35.08.53.13.8.26,1.6.4,2.39s.28,1.6.43,2.4c.16.88.33,1.75.51,2.62,1.34,6.58,3.05,15.88,8.98,20.1a9.389,9.389,0,0,0,5.4,1.97,5.49,5.49,0,0,0,.58-.03,2.975,2.975,0,0,0,.43-.05h.02a2.741,2.741,0,0,0,.28-.05,5.751,5.751,0,0,0,.84-.22c.1-.03.2-.06.3-.1.14-.05.28-.11.42-.17.16-.07.33-.15.49-.24s.35-.18.52-.29a5.393,5.393,0,0,0,.5-.33,5.6,5.6,0,0,0,.49-.36q.255-.195.51-.42a11.667,11.667,0,0,0,.89-.84c.3-.31.59-.64.88-.98.14-.17.28-.34.42-.52.21-.26.41-.54.61-.82s.39-.56.58-.84c.26-.38.5-.77.74-1.17.11-.2.23-.4.35-.6.21-.35.4-.7.59-1.05.1-.17.18-.33.27-.5.1-.19.19-.38.29-.56.36-.71.7-1.4,1.02-2.08.37-.77.71-1.52,1.02-2.21,7.78-17.33,18.2-32.19,33.74-43.52q.81-.6,1.65-1.17c.86-.6,1.72-1.18,2.6-1.74.42-.27.84-.54,1.26-.8,1.05-.67,2.12-1.31,3.18-1.94.6-.35,1.19-.71,1.79-1.05,1.19-.7,2.38-1.38,3.58-2.07.95-.55,1.9-1.1,2.85-1.66s1.91-1.12,2.85-1.69h.01c.94-.58,1.88-1.16,2.81-1.75h.01c.29-.18.58-.38.87-.57h.01c.58-.4,1.15-.81,1.72-1.24.28-.22.56-.44.83-.67.21-.17.42-.35.62-.52.31-.28.62-.56.91-.85.18-.17.35-.35.52-.53a1.848,1.848,0,0,0,.14-.14c.01-.01.02-.03.04-.04.17-.2.35-.39.52-.6a15.842,15.842,0,0,0,1.08-1.4,14.225,14.225,0,0,0,.92-1.54c.1-.2.2-.42.3-.63.01-.02.01-.03.02-.05.04-.09.08-.18.11-.27.06-.15.12-.29.17-.44a1.587,1.587,0,0,0,.07-.2c.1-.28.18-.56.26-.85a9.149,9.149,0,0,0,.22-1.04,3.122,3.122,0,0,0,.06-.41c.02-.13.03-.27.04-.4a2.828,2.828,0,0,0,.03-.41c.01-.14.02-.28.02-.42v-.15a.773.773,0,0,0-.03-.27A6.37,6.37,0,0,0,416.74,382Zm-80.66,74.74c-.11.31-.22-.02,0,0Zm3.59-.05c.02-.03-.01-.07-.07-.19C340.04,456.67,339.52,456.86,339.67,456.69Zm53.35-65.71c-9.12,5.17-17.89,10.8-25.59,17.96-12.33,11.47-20.98,25.22-27.85,40.45-.55,1.21-1.09,2.41-1.68,3.63-2.29-5.84-3.05-12.31-3.83-18.56a244.429,244.429,0,0,1,.28-63.83c1.12-7.9,2.44-16.56,6.42-23.63a24.505,24.505,0,0,1,2.07-2.86h.03a7.014,7.014,0,0,0,1.04-.73c.66.47,1.62,1.04,2.82,1.93,12.75,9.64,25.6,18.8,39.54,26.67,4.75,2.68,9.72,5.04,14.35,7.93,1.1.68,3.18,2.28,3.37,2.41a2.947,2.947,0,0,0,.42.22C403.57,386.56,396.12,389.2,393.02,390.98Z" fill="#00008a"/><path d="M334.074,434.461c.779,6.247,1.536,12.721,3.825,18.558.593-1.214,1.136-2.422,1.68-3.63,6.875-15.232,15.521-28.976,27.847-40.451,7.708-7.157,16.475-12.786,25.6-17.963,3.1-1.774,10.554-4.414,11.394-8.409a2.254,2.254,0,0,1-.424-.22c-.189-.125-2.273-1.725-3.374-2.405-4.623-2.894-9.6-5.247-14.347-7.928-13.945-7.878-26.785-17.034-39.537-26.672-1.2-.891-2.165-1.465-2.818-1.929a7.21,7.21,0,0,1-1.05.726l-.023,0a25.823,25.823,0,0,0-2.073,2.86c-3.977,7.064-5.3,15.731-6.423,23.628A244.314,244.314,0,0,0,334.074,434.461Z" fill="#df9dfa"/><path d="M609.86,650.96a41.77,41.77,0,0,1-5.39,13.68c-.21.34-.42.68-.63,1.01-.33.49-.66.97-1,1.45-.19.26-.38.53-.58.79-.39.51-.79,1.01-1.19,1.5-.18.21-.35.42-.54.62-.52.61-1.07,1.2-1.64,1.77a34.418,34.418,0,0,1-6.21,4.99c-.52.33-1.04.63-1.56.92s-1.06.56-1.6.81a.01.01,0,0,1-.01.01c-.81.38-1.63.72-2.45,1.03a.01.01,0,0,1-.01.01,27.524,27.524,0,0,1-5.97,1.45c-.21.03-.42.06-.63.08-.26.03-.52.05-.79.07-.23.02-.47.03-.71.04s-.48.01-.72.01a25.346,25.346,0,0,1-5.67-.59c-.51-.11-1.02-.24-1.53-.38-.25-.07-.51-.14-.76-.22-.51-.15-1.01-.33-1.51-.51s-1-.4-1.49-.61-.99-.44-1.48-.69a32.867,32.867,0,0,1-4.26-2.58c-.24-.16-.47-.33-.7-.5-.67-.52-1.34-1.06-1.99-1.63-.44-.37-.87-.76-1.29-1.18a1.538,1.538,0,0,0-.12-.13c-.8-.78-1.58-1.6-2.32-2.47-.65-.74-1.26-1.5-1.85-2.28-.38-.52-.75-1.05-1.11-1.58a36.081,36.081,0,0,1-2.41-4.17,39.641,39.641,0,0,1-2.19-5.36c-.01-.01-.01-.01-.01-.02-.2.6-.41,1.2-.63,1.79a38.075,38.075,0,0,1-7.21,12.11c-.38.41-.76.8-1.14,1.18-.19.19-.39.38-.59.57a24.226,24.226,0,0,1-7.19,4.73c-.38.16-.76.31-1.15.45-.28.1-.56.19-.84.28a18.76,18.76,0,0,1-2.58.66c-.14.03-.28.06-.42.08-6.54,1.22-14.03-.05-21.28-3.67-.65-.33-1.3-.67-1.93-1.04s-1.28-.73-1.9-1.12c-.42-.26-.83-.53-1.25-.81a47.911,47.911,0,0,1-7.68-6.42c-.87-.88-1.7-1.8-2.51-2.75a56.068,56.068,0,0,1-11.25-22.3l3.96-1.01a51.986,51.986,0,0,0,10.21,20.37c.74.9,1.51,1.77,2.31,2.6.01.01.02.01.02.02.27.28.54.55.81.82a43.1,43.1,0,0,0,5.23,4.44c.21.16.43.31.65.46s.44.3.67.44c1.13.76,2.29,1.45,3.49,2.1.33.18.67.35,1.01.52,6.1,3.03,12.33,4.22,17.78,3.46.71-.11,1.4-.24,2.08-.4h.01a20.949,20.949,0,0,0,2.96-.98,19.43,19.43,0,0,0,3.46-1.89c.36-.25.72-.51,1.08-.79a.01.01,0,0,0,.01-.01c.47-.37.93-.75,1.38-1.16.68-.63,1.33-1.3,1.97-2.02.62-.71,1.21-1.47,1.78-2.26,0-.01,0-.01.01-.01a33.364,33.364,0,0,0,2.59-4.32.01.01,0,0,1,.01-.01,35.751,35.751,0,0,0,1.58-3.61q.24-.645.48-1.32c.33-.96.63-1.95.9-2.96a2.1,2.1,0,0,0,.06-.24c.12-.46.23-.91.34-1.38.31-1.39.57-2.82.77-4.28v-.01c.04-.02.03-.13.07-.15a43.588,43.588,0,0,1,.39-9.53l4.11.24a54.977,54.977,0,0,1-.41,9.31c.05.25.03.48.07.73a36.319,36.319,0,0,0,.93,5.42c.22.88.48,1.76.76,2.62a35.31,35.31,0,0,0,4.18,8.52,33.612,33.612,0,0,0,2.48,3.25c.64.74,1.3,1.44,1.99,2.1.23.22.46.44.7.66.19.16.39.34.58.5.09.08.18.17.28.25.06.06.12.11.18.16a.7.7,0,0,1,.1.08,30.752,30.752,0,0,0,3.62,2.59c.41.25.83.49,1.25.72.63.35,1.27.66,1.92.95.43.19.86.36,1.29.53a22.816,22.816,0,0,0,4.6,1.26c.44.07.87.13,1.31.17a17.926,17.926,0,0,0,2.19.1c.58-.01,1.17-.04,1.74-.09a21.626,21.626,0,0,0,2.54-.39h.02c.57-.12,1.13-.27,1.69-.43a24.027,24.027,0,0,0,2.9-1.06,28.54,28.54,0,0,0,7.98-5.3,33.465,33.465,0,0,0,3.19-3.41,36.256,36.256,0,0,0,3.27-4.78,39.36,39.36,0,0,0,4.32-11.47Z" fill="#00008a"/><path d="M545.619,646.623a28.927,28.927,0,0,0,4.213.59c.521.009,1.071.04,1.589.025,12.821-.136,25.864-10.437,24.771-17.612-1.187-7.734-18.645-10.787-28.336-10.992-2.261-.04-21.843-.251-23.993,7.155C522.039,632.039,532.679,643.824,545.619,646.623Z" fill="#00008a"/><path d="M316.477,685.942c1.125-.23,2.227-.553,3.33-.867a3.471,3.471,0,0,0,2.352-4.141l-.34-.8a3.391,3.391,0,0,0-1.207-1.208l-.805-.339a3.4,3.4,0,0,0-1.79,0c-1.1.314-2.2.637-3.33.868A3.769,3.769,0,0,0,312.675,681a2.5,2.5,0,0,0-.4,1.251,2.557,2.557,0,0,0,.06,1.343l.339.8a3.386,3.386,0,0,0,1.208,1.208l.8.339a3.377,3.377,0,0,0,1.79,0Z" fill="#0b4883"/><path d="M781.08,380.59v-.09c-.03-1.36-.08-2.73-.13-4.1-.12-2.77-.3-5.53-.56-8.29-.05-.6-.11-1.21-.17-1.82-.1-.91-.2-1.83-.3-2.77-.12-.93-.24-1.88-.37-2.82-.09-.63-.18-1.26-.29-1.9a.235.235,0,0,0-.02-.08c-.1-.62-.21-1.23-.33-1.85s-.24-1.27-.38-1.9q-.195-.9-.42-1.8c-.08-.34-.17-.68-.26-1.03-.08-.31-.17-.62-.26-.93-.06-.23-.13-.45-.2-.68-.08-.27-.17-.55-.26-.82-.23-.73-.48-1.44-.75-2.15-.22-.6-.46-1.19-.71-1.77a.37.37,0,0,1-.05-.11c-.15-.35-.31-.69-.47-1.03a.01.01,0,0,0-.01-.01c-.14-.3-.29-.58-.44-.88-.33-.66-.68-1.3-1.06-1.92-.16-.26-.32-.52-.49-.78-.39-.61-.8-1.21-1.24-1.78-3.38-4.46-8.12-7.14-13.33-6.54a14.746,14.746,0,0,0-3.41.87c-4.04,1.59-7.78,4.19-11.46,6.46-7.85,4.85-15.61,9.83-23.42,14.79-1.08.68-2.15,1.36-3.23,2.04-2.16,1.37-4.32,2.72-6.48,4.09q-2.97,1.875-5.94,3.77-1.875,1.2-3.74,2.41-1.6,1.035-3.21,2.1c-1.07.7-2.14,1.41-3.2,2.12-.51.34-1.02.68-1.53,1.03s-1.03.69-1.54,1.05-1.03.71-1.54,1.07h-.01c-1.02.73-2.02,1.48-2.99,2.26h-.01c-.48.39-.95.79-1.42,1.21s-.92.84-1.36,1.27-.87.88-1.28,1.35c-7.04,7.99-2.82,17.55,5.67,22.39.44.25.88.5,1.33.74s.88.48,1.32.71.91.47,1.38.7c.45.23.9.45,1.36.67s.91.44,1.37.66.92.43,1.38.64c.82.39,1.64.76,2.47,1.14l1.68.78c.92.43,1.84.86,2.75,1.3h.01c.57.28,1.14.56,1.7.85.43.21.85.42,1.27.65,1.27.66,2.52,1.35,3.74,2.1.16.1.31.19.46.29s.31.2.47.3c.31.19.63.39.93.58.1.07.19.13.29.19l.09.06c.1.07.2.14.3.2.62.41,1.24.83,1.85,1.27.14.09.28.19.42.29l.23.17c.26.18.52.37.77.56.33.24.67.49.99.74l.96.75c.4.31.8.63,1.19.95l1.26,1.05c.06.05.12.1.17.15.29.24.58.49.86.76.34.3.68.6,1.02.91.38.34.74.68,1.11,1.04l.02.02c.06.06.12.11.18.17.33.31.65.62.97.95.4.4.79.8,1.18,1.2.13.14.27.28.39.42q.495.5.93.99c.04.04.07.08.11.12l.02.02q.615.66,1.2,1.35c.42.48.84.97,1.25,1.46.05.07.11.14.17.21.44.54.86,1.08,1.29,1.62.05.06.09.12.14.18q1.305,1.695,2.52,3.48c.42.6.82,1.21,1.22,1.83,4.46,6.95,7.1,14.61,10.43,22.07,1.83,4.09,4.52,9.23,9.48,9.78a4.838,4.838,0,0,0,.57.05.3.3,0,0,0,.13.01,5.754,5.754,0,0,0,1.66.01c.28-.03.56-.08.83-.13s.54-.12.8-.19a10.884,10.884,0,0,0,1.51-.56c.24-.11.48-.23.71-.36.14-.08.29-.16.43-.25s.29-.17.43-.27c.22-.15.45-.31.66-.46a35636134778.96,35636134778.96,0,0,1,.1-.08c.03-.03.07-.06.11-.1a4.289,4.289,0,0,0,.35-.28c.12-.1.24-.2.35-.31.25-.23.49-.47.73-.71.13-.14.26-.27.38-.41s.26-.29.38-.44c.24-.29.48-.59.71-.9.21-.28.42-.57.62-.86.26-.39.52-.8.76-1.21.35-.58.68-1.18.98-1.78.57-1.1,1.07-2.25,1.53-3.4.12-.28.23-.57.34-.86.16-.42.32-.85.47-1.28s.3-.84.44-1.26q.33-.99.63-1.92c.23-.75.45-1.47.66-2.15,4.09-13.53,6.28-27.58,7.58-41.62.36-4,.66-8.02.86-12.06.05-.96.09-1.93.13-2.89.04-.92.07-1.85.09-2.77.01-.12.01-.23.01-.35.02-.87.04-1.74.05-2.62.01-.96.02-1.91.02-2.87C781.12,383.4,781.11,382,781.08,380.59ZM766.7,416c-1.27,10.07-2.92,20.29-5.94,30.01a50.689,50.689,0,0,1-3.75,9.54c-.25-.56-.49-1.13-.72-1.7s-.47-1.12-.69-1.69c-.41-1-.81-2.02-1.21-3.03-.29-.71-.57-1.42-.87-2.12a96.407,96.407,0,0,0-14.55-24.46,93.229,93.229,0,0,0-24.98-20.6c-6.53-3.75-14.47-5.93-20.59-10.3a18.544,18.544,0,0,1-2.03-1.98.359.359,0,0,1,.08-.18l.04-.06c.24-.25,1.17-1.33,1.53-1.62a52.512,52.512,0,0,1,4.72-3.69c13.61-9.78,28.23-18.29,42.38-27.27,5.1-3.24,10.14-6.57,15.39-9.58,1.09-.63,2.34-1.28,3.56-1.88.21-.1.47-.2.72-.33a3.056,3.056,0,0,1,1.37.62,2.226,2.226,0,0,1,.26.27,5.442,5.442,0,0,1,.36.43c.02.03.04.05.06.08.11.15.22.3.34.48.19.27.37.57.56.9a10.915,10.915,0,0,1,.59,1.09c.09.16.19.35.29.56.07.13.13.26.19.39.41.87.79,1.8,1.11,2.69,3.23,9.02,3.66,19.22,3.85,28.69A240.284,240.284,0,0,1,766.7,416Z" fill="#00008a"/><path d="M691.372,389.672a17.372,17.372,0,0,0,2.031,1.978c6.121,4.367,14.052,6.551,20.591,10.3a93.265,93.265,0,0,1,24.975,20.606,96.28,96.28,0,0,1,14.55,24.459c1.194,2.826,2.252,5.742,3.493,8.537a50.628,50.628,0,0,0,3.743-9.539c3.027-9.721,4.677-19.94,5.949-30.013a241.182,241.182,0,0,0,2.065-34.733c-.189-9.469-.619-19.677-3.849-28.693-.991-2.776-2.588-5.849-3.759-6.892a3.176,3.176,0,0,0-1.366-.623c-.258.131-.517.238-.727.338-1.214.6-2.471,1.25-3.558,1.882-5.251,3.009-10.288,6.338-15.387,9.576-14.148,8.977-28.776,17.492-42.379,27.268a51.522,51.522,0,0,0-4.721,3.687c-.36.292-1.291,1.375-1.532,1.628l-.042.055A.312.312,0,0,0,691.372,389.672Z" fill="#df9dfa"/><path d="M515.58,578.06v-.01c-.3-.93-.61-1.85-.94-2.76q.4,1.47.75,2.97c.29,1.2.54,2.41.78,3.63.13-.17.28-.33.43-.49C516.28,580.28,515.94,579.16,515.58,578.06Zm0,0v-.01c-.3-.93-.61-1.85-.94-2.76q.4,1.47.75,2.97c.29,1.2.54,2.41.78,3.63.13-.17.28-.33.43-.49C516.28,580.28,515.94,579.16,515.58,578.06Zm0,0v-.01c-.3-.93-.61-1.85-.94-2.76q.4,1.47.75,2.97c.29,1.2.54,2.41.78,3.63.13-.17.28-.33.43-.49C516.28,580.28,515.94,579.16,515.58,578.06Z" fill="#c8f657"/><path d="M319.66,405.41c0-2.7.05-5.4.13-8.09Q319.655,401.355,319.66,405.41Zm.13-8.09q.135-4.035.37-8.06Q319.9,393.28,319.79,397.32Zm1.76-23.93c-.45,3.91-.83,7.88-1.12,11.87q.45-6,1.13-11.87c.12-1.06.27-2.3.44-3.67C321.82,371.09,321.67,372.33,321.55,373.39Zm.54-4.36c.19-1.42.41-2.95.66-4.57C322.49,366.08,322.27,367.61,322.09,369.03Zm2.94,287.55c-.06-.01-.13-.03-.19-.04.32.72.65,1.44,1,2.16.19.4.39.8.59,1.19A2.168,2.168,0,0,0,325.03,656.58Zm81.41-146.84a96.176,96.176,0,0,0-37.13,13.04c-.25.36-.49.72-.71,1.08a101.577,101.577,0,0,1,41.21-14.5l.5-.06C409.03,509.42,407.73,509.57,406.44,509.74Zm10.3-126.08c0,.14,0,.28-.01.42.01-.14.02-.28.02-.42v-.15C416.75,383.56,416.74,383.61,416.74,383.66Zm0-1.66a8.461,8.461,0,0,1-.02,1.24A6.37,6.37,0,0,0,416.74,382Zm314.72,50.93q1.305,1.695,2.52,3.48C733.18,435.22,732.34,434.07,731.46,432.93Z" fill="#c8f657"/><path d="M274.75,663.61c.04.21.09.42.13.63.22,1.07.45,2.15.7,3.21.06.28.12.56.2.83q.81,3.525,1.79,7.02c.54,1.97,1.14,3.93,1.78,5.88q1.444,4.518,3.167,8.969h67.472a95.166,95.166,0,0,1-14.419-15.4q-2.4-3.18-4.51-6.58a92.493,92.493,0,0,1-4.63-8.28c-.2-.39-.4-.79-.59-1.19-.35-.72-.68-1.44-1-2.16-18.61-41.28-1.86-80.88.28-85.74,1.5-3.12,15.38-30.73,44.19-48.02a96.176,96.176,0,0,1,37.13-13.04c1.29-.17,2.59-.32,3.87-.44,38.01-4.55,73.35,12.18,92.52,40.37q2.82-2.37,5.83-4.5c18.38-12.99,40.1-17.86,59.63-13.33q2.97.69,5.85,1.66a70.967,70.967,0,0,1,25.01,11.41q2.94,2.085,5.72,4.45c.41.35.82.71,1.22,1.08a103.924,103.924,0,0,1,68.08-38.91,102.334,102.334,0,0,1,11.63-.88h.03a100.221,100.221,0,0,1,101.65,88.59,101.906,101.906,0,0,1-5.76,47.64c-.63,1.71-1.31,3.39-2.03,5.06a104.96,104.96,0,0,1-28.419,38.209h65.005c.381-.992.772-1.979,1.134-2.979.72-1.97,1.42-3.97,2.03-5.98.29-.9.57-1.81.83-2.72.44-1.41.84-2.83,1.23-4.26a171.237,171.237,0,0,0,5.03-26.69c.15-1.39.29-2.79.4-4.2.42-4.89.64-9.83.65-14.79.01-2.09-.03-4.19-.09-6.29-.06-2.02-.16-4.04-.29-6.08-2.62-40.7-16.53-81.07-36.42-116.57a300.925,300.925,0,0,0,17.62-67.82c1.01-7.42,1.76-14.94,2.23-22.51a.363.363,0,0,1,0-.18c.27-4.39.46-8.8.56-13.2v-.03c.22-10.51-.07-21.03-.88-31.44q-.42-5.49-1.05-10.87c-.15-1.62-.36-3.23-.56-4.84-.12-1.03-.27-2.02-.43-3.05v-.02a81.655,81.655,0,0,0-5.8-20.87v-.02a42.5,42.5,0,0,0-6.65-10.62,31.254,31.254,0,0,0-16.8-10.08c-17.61-4.07-36.58,4.39-51.5,12.92-22.61,12.9-42.27,30.32-60.24,49.02a283.241,283.241,0,0,0-227.62-2.33c-2.43-2.6-4.94-5.16-7.48-7.69-14.08-14.11-28.97-27.57-45.36-38.96-14.79-10.28-34.16-22.34-53.07-19.59-23.72,3.43-28.78,29.86-32.52,49.54a322.756,322.756,0,0,0-5.12,70.9,391.111,391.111,0,0,0,4.74,48.56c.74,4.72,1.58,9.45,2.49,14.14.67,3.44,2.9,9.36,2.97,11.9a21.647,21.647,0,0,1-1.7,3.86,298.976,298.976,0,0,0-19.55,46.23c-7.52,22.79-12.61,46.95-13.83,71.12-.11,2.1-.2,4.19-.24,6.28a194.45,194.45,0,0,0,3.62,42.98C274.66,663.15,274.7,663.38,274.75,663.61ZM682.81,380.63c.41-.47.84-.91,1.28-1.35s.89-.86,1.36-1.27.94-.82,1.42-1.21h.01c.97-.8,1.97-1.54,2.99-2.26h.01c.51-.37,1.02-.73,1.54-1.07.51-.36,1.03-.71,1.54-1.05s1.02-.69,1.53-1.03c1.06-.71,2.13-1.42,3.2-2.12s2.14-1.41,3.21-2.1q1.86-1.215,3.74-2.41,2.97-1.89,5.94-3.77c2.16-1.37,4.32-2.72,6.48-4.09,1.08-.68,2.15-1.36,3.23-2.04,7.81-4.96,15.57-9.94,23.42-14.79,3.68-2.27,7.42-4.87,11.46-6.46a14.746,14.746,0,0,1,3.41-.87c5.21-.6,9.95,2.08,13.33,6.54.44.57.85,1.17,1.24,1.78.17.26.33.52.49.78.38.62.73,1.26,1.06,1.92.16.29.3.59.44.88a.01.01,0,0,1,.01.01c.16.34.32.68.47,1.03a.37.37,0,0,0,.05.11c.25.58.49,1.17.71,1.77.27.71.52,1.42.75,2.15.09.27.18.55.26.82.07.23.14.45.2.68.09.31.18.62.26.93.09.35.18.69.26,1.03q.225.9.42,1.8c.14.63.27,1.27.38,1.9s.23,1.23.33,1.85a.235.235,0,0,1,.02.08c.11.64.2,1.27.29,1.9.14.94.26,1.88.37,2.82s.21,1.86.3,2.77c.06.61.12,1.22.17,1.82.26,2.76.44,5.52.56,8.29.06,1.37.1,2.73.13,4.1v.09c.03,1.41.04,2.81.04,4.22,0,.96-.01,1.91-.02,2.87-.01.88-.03,1.75-.05,2.62,0,.12,0,.23-.01.35-.02.92-.05,1.85-.09,2.77-.04.96-.08,1.93-.13,2.89-.2,4.04-.5,8.06-.86,12.06-1.3,14.04-3.49,28.09-7.58,41.62-.21.68-.43,1.4-.66,2.15-.2.62-.4,1.27-.63,1.92-.14.42-.29.84-.44,1.26s-.3.85-.47,1.28c-.1.28-.22.57-.34.86-.46,1.15-.96,2.3-1.53,3.4-.3.6-.63,1.2-.98,1.78-.24.41-.5.82-.76,1.21-.2.29-.4.58-.62.86-.22.31-.46.61-.71.9a5.2,5.2,0,0,1-.38.44c-.12.14-.25.27-.38.41a9.757,9.757,0,0,1-.73.71c-.11.11-.23.21-.35.31a4.289,4.289,0,0,1-.35.28c-.04.04-.08.07-.11.1a35636134778.96,35636134778.96,0,0,0-.1.08c-.22.16-.44.32-.66.46-.14.1-.28.18-.43.27s-.29.17-.43.25c-.23.13-.47.25-.71.36a10.884,10.884,0,0,1-1.51.56c-.26.07-.53.14-.8.19s-.55.1-.83.13a5.754,5.754,0,0,1-1.66-.01.3.3,0,0,1-.13-.01,4.838,4.838,0,0,1-.57-.05c-4.96-.55-7.65-5.69-9.48-9.78-3.33-7.46-5.97-15.12-10.43-22.07-.4-.62-.8-1.23-1.22-1.83q-1.215-1.785-2.52-3.48c-.05-.06-.09-.12-.14-.18-.43-.54-.85-1.08-1.29-1.62-.06-.07-.12-.14-.17-.21-.41-.49-.83-.98-1.25-1.46q-.585-.69-1.2-1.35l-.02-.02c-.04-.04-.07-.08-.11-.12q-.45-.5-.93-.99c-.12-.14-.26-.28-.39-.42-.39-.4-.78-.8-1.18-1.2-.32-.32-.64-.64-.97-.95-.06-.06-.12-.11-.18-.17l-.02-.02c-.37-.36-.73-.7-1.11-1.04-.34-.31-.68-.61-1.02-.91-.28-.26-.57-.51-.86-.76-.05-.05-.11-.1-.17-.15l-1.26-1.05c-.39-.32-.79-.64-1.19-.95l-.96-.75c-.32-.25-.66-.5-.99-.74-.25-.19-.51-.38-.77-.56l-.23-.17c-.14-.1-.28-.2-.42-.29-.61-.44-1.23-.86-1.85-1.27-.1-.06-.2-.13-.3-.2l-.09-.06c-.1-.06-.19-.12-.29-.19-.3-.19-.62-.39-.93-.58-.16-.1-.31-.2-.47-.3s-.31-.19-.46-.28c-1.23-.74-2.48-1.44-3.74-2.11-.42-.22-.84-.44-1.27-.65-.56-.29-1.13-.57-1.7-.85-.01.01-.01.01-.01,0-.91-.44-1.83-.87-2.75-1.3l-1.68-.78c-.83-.38-1.65-.75-2.47-1.14-.46-.21-.92-.43-1.38-.64s-.92-.44-1.37-.66-.91-.44-1.36-.67c-.47-.23-.93-.46-1.38-.7s-.88-.47-1.32-.71-.89-.49-1.33-.74C679.99,398.18,675.77,388.62,682.81,380.63ZM319.79,397.32q.12-4.035.37-8.06c.08-1.34.17-2.67.27-4,.29-3.99.67-7.96,1.12-11.87.12-1.06.27-2.3.45-3.67l.09-.69c.18-1.42.4-2.95.66-4.57q.135-.81.27-1.65c.05-.28.09-.56.15-.84.04-.24.08-.48.13-.72.04-.21.08-.43.12-.65.06-.34.13-.68.2-1.03s.14-.7.21-1.05c.01-.06.03-.13.04-.19.11-.53.22-1.05.34-1.58.13-.59.27-1.19.41-1.78.2-.83.42-1.66.65-2.48a1.332,1.332,0,0,0,.05-.19c.25-.89.51-1.78.78-2.65.04-.14.09-.27.13-.41,0-.01,0-.01.01-.02.07-.22.14-.44.22-.66s.14-.44.22-.65c.02-.06.04-.12.06-.17.18-.52.36-1.03.56-1.54.21-.56.43-1.12.66-1.66.21-.49.42-.98.65-1.45.02-.06.05-.11.07-.16.18-.39.36-.76.55-1.13l.06-.12c.22-.42.44-.84.67-1.24.24-.43.48-.85.74-1.26q.435-.705.9-1.35a22.947,22.947,0,0,1,1.99-2.44c.18-.18.35-.36.53-.53s.37-.35.55-.51.37-.32.56-.47.38-.31.58-.45.39-.28.59-.41.42-.27.62-.39a11.714,11.714,0,0,1,1.27-.65,9.531,9.531,0,0,1,1.35-.5l.42-.12c.13-.04.27-.07.4-.11h.02a3.4,3.4,0,0,1,.34-.07,1.857,1.857,0,0,1,.34-.06,5.622,5.622,0,0,1,.57-.09,1.068,1.068,0,0,1,.25-.03c.14-.02.28-.03.42-.04h.09a.915.915,0,0,1,.17-.01.277.277,0,0,1,.09-.01,13.44,13.44,0,0,1,2.09.07,15,15,0,0,1,1.55.24,3.894,3.894,0,0,1,.49.12c.17.04.33.09.49.14a2.807,2.807,0,0,1,.49.16,4.588,4.588,0,0,1,.48.17c.16.06.32.12.48.19.31.13.63.27.94.43q.69.345,1.38.75c.3.18.6.37.9.56.37.24.74.49,1.11.76.22.15.43.31.65.47,2.3,1.71,4.46,3.68,6.53,5.27.23.18.46.35.69.53.02.01.03.03.05.04l1.35,1.02c.24.18.47.36.71.54l.21.15c.52.39,1.04.78,1.57,1.16.43.32.85.63,1.28.94a.351.351,0,0,0,.08.05c.67.5,1.36.99,2.04,1.47.9.64,1.8,1.27,2.71,1.9.95.66,1.91,1.32,2.87,1.95.08.05.16.11.24.16.04.03.09.06.13.09.66.45,1.34.89,2.01,1.33.17.11.33.22.5.33.25.17.51.33.76.5l.24.15q.975.645,1.98,1.26c.14.1.29.19.43.28.12.07.23.15.35.22.67.42,1.34.84,2.02,1.26a.031.031,0,0,1,.02.01c1.09.67,2.19,1.34,3.3,1.99q1.89,1.125,3.81,2.22c8.54,4.9,26.1,10.3,27.06,22.18a6.37,6.37,0,0,1-.02,1.24.773.773,0,0,1,.03.27v.15c0,.14-.01.28-.02.42a2.828,2.828,0,0,1-.03.41c-.01.13-.02.27-.04.4a3.122,3.122,0,0,1-.06.41,9.149,9.149,0,0,1-.22,1.04c-.08.29-.16.57-.26.85a1.587,1.587,0,0,1-.07.2c-.05.15-.11.29-.17.44-.03.09-.07.18-.11.27-.01.02-.01.03-.02.05-.1.21-.2.43-.3.63a14.225,14.225,0,0,1-.92,1.54,15.842,15.842,0,0,1-1.08,1.4c-.17.21-.35.4-.52.6-.02.01-.03.03-.04.04a1.848,1.848,0,0,1-.14.14c-.17.18-.34.36-.52.53-.29.29-.6.57-.91.85-.2.17-.41.35-.62.52-.27.23-.55.45-.83.67-.56.44-1.14.85-1.72,1.24h-.01c-.29.19-.58.39-.87.57h-.01c-.93.6-1.87,1.18-2.81,1.75h-.01c-.95.58-1.89,1.14-2.85,1.69s-1.9,1.11-2.85,1.66c-1.2.69-2.39,1.37-3.58,2.07-.6.34-1.19.69-1.79,1.05-1.06.63-2.13,1.27-3.18,1.94-.42.26-.84.53-1.26.8-.88.56-1.74,1.14-2.6,1.74q-.84.57-1.65,1.17c-15.54,11.33-25.96,26.19-33.74,43.52-.31.69-.65,1.44-1.02,2.21-.31.68-.65,1.38-1.02,2.08-.1.18-.19.37-.29.56-.09.17-.17.33-.27.5-.19.35-.38.7-.59,1.05-.12.2-.24.4-.35.6-.24.4-.48.79-.74,1.17-.18.29-.38.57-.58.84s-.4.56-.61.82c-.14.18-.28.35-.42.52-.28.34-.58.67-.88.98a11.667,11.667,0,0,1-.89.84q-.255.225-.51.42a5.6,5.6,0,0,1-.49.36,5.393,5.393,0,0,1-.5.33c-.17.11-.35.2-.52.29s-.33.17-.49.24c-.14.06-.28.12-.42.17-.1.04-.2.07-.3.1a5.751,5.751,0,0,1-.84.22,2.741,2.741,0,0,1-.28.05h-.02a2.975,2.975,0,0,1-.43.05,5.49,5.49,0,0,1-.58.03,9.389,9.389,0,0,1-5.4-1.97c-5.93-4.22-7.64-13.52-8.98-20.1-.18-.87-.35-1.74-.51-2.62-.15-.8-.29-1.6-.43-2.4s-.27-1.59-.4-2.39c-.03-.18-.05-.35-.08-.53-.01-.08-.03-.17-.04-.25-.16-1.04-.31-2.08-.46-3.13a.881.881,0,0,0-.02-.17c-.16-1.13-.3-2.27-.43-3.41-.03-.21-.05-.43-.08-.64-.09-.8-.18-1.6-.26-2.4-.17-1.6-.31-3.22-.44-4.83-.06-.81-.12-1.61-.17-2.42-.1-1.32-.18-2.65-.24-3.98,0-.12-.01-.24-.02-.36-.06-1.28-.11-2.57-.16-3.85v-.12c-.05-1.65-.09-3.31-.11-4.96,0-.92-.01-1.84-.01-2.76Q319.66,401.36,319.79,397.32Z" fill="#c8f657"/><path d="M609.14,681.15c-2.14-2.39-4.17-4.9-6.07-7.5-.87-1.19-1.72-2.41-2.54-3.64-.52.61-1.07,1.2-1.64,1.77a34.418,34.418,0,0,1-6.21,4.99c-.52.33-1.04.63-1.56.92s-1.06.56-1.6.81a.01.01,0,0,1-.01.01,24.908,24.908,0,0,1-2.45,1.03.01.01,0,0,1-.01.01,26.351,26.351,0,0,1-5.96,1.46c-.21.03-.43.05-.64.07-.26.03-.52.05-.79.07-.23.02-.47.03-.71.04s-.48.01-.72.01a25.346,25.346,0,0,1-5.67-.59c-.51-.11-1.02-.23-1.53-.38-.25-.07-.51-.14-.76-.22-.51-.15-1.01-.33-1.51-.51s-1-.39-1.49-.61-.99-.44-1.48-.69a30.782,30.782,0,0,1-4.26-2.58c-.24-.16-.47-.33-.7-.5-.68-.51-1.34-1.05-1.99-1.63-.44-.37-.87-.76-1.29-1.18a.741.741,0,0,1-.13-.12c-.81-.78-1.58-1.61-2.33-2.48q-.96-1.11-1.83-2.28c-.38-.52-.75-1.05-1.11-1.58a40.262,40.262,0,0,1-2.41-4.17,39.641,39.641,0,0,1-2.19-5.36c-.2.6-.41,1.19-.64,1.77a38.075,38.075,0,0,1-7.21,12.11c-.37.4-.75.8-1.14,1.18-.19.19-.39.38-.59.57a24.226,24.226,0,0,1-7.19,4.73c-.38.16-.76.31-1.15.45-.28.1-.56.19-.84.28a24.362,24.362,0,0,1-2.58.66c-.14.03-.28.06-.42.08-6.55,1.19-14.04-.07-21.26-3.68-.66-.33-1.31-.67-1.95-1.03s-1.28-.73-1.9-1.12c-.42-.26-.83-.53-1.25-.81q-2.79,3.705-5.92,7.15c-.98,1.15-2.02,2.21-3.09,3.31-.83.84-1.68,1.67-2.54,2.48q-3.153,2.982-6.563,5.7H618.206q-3.083-2.673-5.946-5.589C611.19,683.44,610.14,682.33,609.14,681.15Z" fill="#c8f657"/><path d="M598.24,666.39v.01a33.549,33.549,0,0,1-3.2,3.41,28.7,28.7,0,0,1-7.96,5.31,24.027,24.027,0,0,1-2.9,1.06c-.56.16-1.12.31-1.69.43h-.02a21.626,21.626,0,0,1-2.54.39c-.57.05-1.16.08-1.74.09a17.926,17.926,0,0,1-2.19-.1c-.44-.04-.87-.1-1.31-.17a22.816,22.816,0,0,1-4.6-1.26c-.43-.17-.86-.34-1.29-.53-.65-.29-1.29-.6-1.92-.95-.42-.23-.84-.47-1.25-.72a30.752,30.752,0,0,1-3.62-2.59l-.09-.09c-.06-.05-.13-.1-.19-.15-.1-.08-.19-.17-.28-.25-.19-.16-.39-.34-.58-.5-.24-.22-.47-.44-.7-.66-.68-.68-1.34-1.38-1.97-2.11a34.068,34.068,0,0,1-2.5-3.24,35.31,35.31,0,0,1-4.18-8.52c-.29-.86-.54-1.74-.76-2.62a36.319,36.319,0,0,1-.93-5.42c.52.01,1.07.04,1.59.03,12.82-.14,25.86-10.44,24.77-17.61-1.18-7.74-18.64-10.79-28.33-11-2.27-.04-21.85-.25-24,7.16a5.3,5.3,0,0,0-.2,1.51c0,.2.01.4.03.61v.01c.02.2.05.41.09.62a5.567,5.567,0,0,0,.14.66,4.825,4.825,0,0,0,.17.59,9.16,9.16,0,0,0,.57,1.46c.1.23.22.47.35.71a11.145,11.145,0,0,0,.66,1.14c.1.17.2.33.31.49a23.992,23.992,0,0,0,2.4,3.04c.33.36.68.72,1.04,1.08.53.53,1.1,1.04,1.69,1.55.2.17.4.34.61.51.27.23.55.45.83.66s.57.43.87.64c.87.63,1.79,1.23,2.75,1.8q.72.42,1.47.81a32.247,32.247,0,0,0,4.66,2.01c.36.12.72.24,1.08.35a.035.035,0,0,1,.02.01c.73.21,1.46.4,2.2.56v.01h.02c-.2,1.46-.47,2.89-.79,4.28-.11.47-.22.92-.34,1.38a2.1,2.1,0,0,1-.06.24c-.27,1.01-.57,2-.9,2.96q-.24.675-.48,1.32c-.48,1.25-1.01,2.46-1.58,3.61a.01.01,0,0,0-.01.01,35.774,35.774,0,0,1-2.59,4.32c-.01,0-.01,0-.01.01-.57.79-1.16,1.55-1.78,2.26-.64.72-1.29,1.39-1.97,2.02-.45.41-.91.79-1.38,1.16a.01.01,0,0,1-.01.01c-.36.28-.72.54-1.08.79a18.787,18.787,0,0,1-3.45,1.9,18.423,18.423,0,0,1-2.97.97h-.01a20.112,20.112,0,0,1-2.08.4c-5.45.76-11.68-.43-17.78-3.46-.34-.17-.68-.34-1.01-.52a37.582,37.582,0,0,1-3.5-2.09l.01-.01a102.475,102.475,0,0,0,17.91-70.75,99.719,99.719,0,0,0-3.16-16.03c-.32-1.12-.66-2.24-1.02-3.34v-.01c.34-.36.68-.71,1.02-1.06a67.075,67.075,0,0,1,9.43-8.12c13.32-9.47,28.67-13.11,42.08-9.99a41.625,41.625,0,0,1,7.57,2.55,49.8,49.8,0,0,1,15.4,10.89c.4.41.8.82,1.2,1.25-.41.94-.81,1.89-1.19,2.85a101.985,101.985,0,0,0-6.57,49.76,100.9,100.9,0,0,0,3.41,16.79.01.01,0,0,0,.01.01A98.377,98.377,0,0,0,598.24,666.39Z" fill="#c8f657"/><path d="M75.548,690.159H971.393c3.082,0,6.9-1.6,7.082-5.147.171-3.4-3.714-5.633-6.7-5.633H75.929c-3.082,0-6.905,1.6-7.082,5.146-.171,3.4,3.714,5.634,6.7,5.634Z" fill="#00008b"/><path d="M848.88,652.66a107.888,107.888,0,0,0-22.35-5.14,110.289,110.289,0,0,0-33.73,1.12c-2.83.52-5.63,1.18-8.42,1.92-1.57.43-3.14.89-4.69,1.38a109.905,109.905,0,0,0-14.15,5.62c-2.48,1.18-4.09-2.75-1.63-3.94a112.477,112.477,0,0,1,17.81-6.74q1.32-.375,2.64-.72c2.78-.72,5.56-1.34,8.38-1.85a115.028,115.028,0,0,1,57.82,4.44C853.14,649.64,851.46,653.53,848.88,652.66Z" fill="#00008a"/><path d="M354.38,684.11a120.737,120.737,0,0,0-18.81-9.36c-.29-.12-.59-.23-.89-.35-2.96-1.11-5.93-2.14-8.95-3.02a120.316,120.316,0,0,0-47.83-4.22c-.78.09-1.55.18-2.32.29q-5.01.675-9.97,1.78c-.43.09-.87.19-1.3.29-2.9.66-4.3-3.76-1.39-4.44q5.805-1.365,11.69-2.16c.68-.09,1.35-.18,2.02-.25a122.609,122.609,0,0,1,15.66-.88,125.175,125.175,0,0,1,33.99,4.89q2.415.69,4.78,1.49c1.38.46,2.76.94,4.13,1.45a123.17,123.17,0,0,1,21.4,10.39C359.14,681.58,356.94,685.67,354.38,684.11Z" fill="#00008a"/><path d="M326.43,659.89a2.24,2.24,0,0,1-2.52,1.19,68.7,68.7,0,0,0-20.63-1.19,67.88,67.88,0,0,0-9.5,1.54c-.5.11-1,.23-1.49.36a71.006,71.006,0,0,0-14.39,5.37c-.71.36-1.42.73-2.12,1.12-.09.04-.18.09-.27.14a69.389,69.389,0,0,0-25.68,24.17c-1.57,2.53-5.65.29-4.06-2.24a74.289,74.289,0,0,1,19.84-21.12,73.137,73.137,0,0,1,7.3-4.64c.61-.34,1.22-.66,1.84-.98s1.25-.64,1.88-.94a75.357,75.357,0,0,1,14.99-5.47,77.3,77.3,0,0,1,9.23-1.7,74.9,74.9,0,0,1,23.99,1.04c.06.01.13.03.19.04A2.168,2.168,0,0,1,326.43,659.89Z" fill="#00008a"/><path d="M781.72,646.88c-.63,1.71-1.31,3.39-2.03,5.06a104.31,104.31,0,0,1-81.84,61.92,100.8,100.8,0,0,1-85.59-29.3c-1.07-1.12-2.12-2.23-3.12-3.41-2.14-2.39-4.17-4.9-6.07-7.5-.87-1.19-1.72-2.41-2.54-3.64q-1.185-1.77-2.28-3.6l-.01-.01v-.01a98.377,98.377,0,0,1-10.3-23.41.01.01,0,0,1-.01-.01,100.9,100.9,0,0,1-3.41-16.79,101.985,101.985,0,0,1,6.57-49.76c.38-.96.78-1.91,1.19-2.85-.4-.43-.8-.84-1.2-1.25a49.8,49.8,0,0,0-15.4-10.89,41.625,41.625,0,0,0-7.57-2.55c-13.41-3.12-28.76.52-42.08,9.99a67.075,67.075,0,0,0-9.43,8.12c-.34.35-.68.7-1.02,1.06-.3-.93-.61-1.85-.94-2.76q.4,1.47.75,2.97c.29,1.2.54,2.41.78,3.63.13-.17.28-.33.43-.49a99.719,99.719,0,0,1,3.16,16.03,102.475,102.475,0,0,1-17.91,70.75l-.01.01c-.77,1.12-1.58,2.23-2.41,3.32q-2.79,3.705-5.92,7.15c-.98,1.15-2.02,2.21-3.09,3.31-.83.84-1.68,1.67-2.54,2.48a102.983,102.983,0,0,1-79.94,28.06,93.485,93.485,0,0,1-72.37-37.76q-2.4-3.18-4.51-6.58a92.493,92.493,0,0,1-4.63-8.28,2.168,2.168,0,0,0-1.4-3.31c-.06-.01-.13-.03-.19-.04-18.61-41.28-1.86-80.88.28-85.74,1.5-3.12,15.38-30.73,44.19-48.02-.25.36-.49.72-.71,1.08a101.577,101.577,0,0,1,41.21-14.5l.5-.06a100.446,100.446,0,0,1,93.29,44.02c.39-.35.78-.69,1.18-1.02,1.99-1.65,4.07-3.25,6.16-4.73,19.46-13.76,42.43-18.95,63.05-14.11a.833.833,0,0,1,.15.04,70.967,70.967,0,0,1,25.01,11.41q2.94,2.085,5.72,4.45c.41.35.82.71,1.22,1.08a103.924,103.924,0,0,1,68.08-38.91,102.334,102.334,0,0,1,11.63-.88h.03a100.221,100.221,0,0,1,101.65,88.59A101.906,101.906,0,0,1,781.72,646.88Z" fill="#00008d"/><path d="M326.43,659.89c-.2-.39-.4-.79-.59-1.19-.35-.72-.68-1.44-1-2.16.06.01.13.03.19.04A2.168,2.168,0,0,1,326.43,659.89Z" fill="#00008b"/><path d="M410.31,509.3l-.5.06a101.577,101.577,0,0,0-41.21,14.5c.22-.36.46-.72.71-1.08a96.176,96.176,0,0,1,37.13-13.04C407.73,509.57,409.03,509.42,410.31,509.3Z" fill="#00008b"/><path d="M516.6,581.4c-.15.16-.3.32-.43.49-.24-1.22-.49-2.43-.78-3.63q-.345-1.5-.75-2.97c.33.91.64,1.83.94,2.76v.01C515.94,579.16,516.28,580.28,516.6,581.4Z" fill="#00008a"/><path d="M515.58,578.05v.01c-.07.07-.13.13-.19.2q-.345-1.5-.75-2.97C514.97,576.2,515.28,577.12,515.58,578.05Z" fill="#00008a"/><path d="M187.436,696.023a21.825,21.825,0,0,0,1.363,3.309v.027a6.406,6.406,0,0,0,.611,1.14,13.547,13.547,0,0,0,.695,1.195.809.809,0,0,1,.111.222,15.016,15.016,0,0,0,.889,1.279,19,19,0,0,0,2.336,2.78c.334.361.695.695,1.029,1a7.8,7.8,0,0,0,.778.666c.417.361.806.695,1.223,1a27.173,27.173,0,0,0,6.727,3.671c.528.194,1.085.388,1.613.555.389.111.806.251,1.167.362h.028a11.455,11.455,0,0,0,1.557.388h.056a10.824,10.824,0,0,0,1.306.279,16.461,16.461,0,0,0,2,.3l.835.111a2,2,0,0,0,2.057-1h.027a2.774,2.774,0,0,0-2.084-4.087,24.141,24.141,0,0,1-3.642-.666c-11.37-2.7-17.208-12.566-17.4-24.491a51.924,51.924,0,0,1,2.391-16.958c.138-.472.305-.918.472-1.361.167-.473.334-.947.528-1.39a44.673,44.673,0,0,1,6.366-11.287,50.388,50.388,0,0,1,25.1-17.541c.5-.167.806-.278,1.028-.334,0,.028.167.111.668.056,1.5-.028,3,0,4.447,0,12.2.082,24.38-.083,36.5,1.278.139.029.278.029.417.056,6.338.723,14.149,1.418,19.181,5.7a59.337,59.337,0,0,1,10.313,11.4c.362.474.7.973,1.029,1.5.334.5.639,1,.946,1.5A56.3,56.3,0,0,1,305.832,669a39.494,39.494,0,0,1-1.251,28.8c-3.78,8.534-10.675,17.653-21.127,15.262a1.43,1.43,0,0,0-.473-.084,2.44,2.44,0,0,0-2.251,1.252,2.756,2.756,0,0,0-.306,2.363,2.247,2.247,0,0,0,1.667,1.361,20.977,20.977,0,0,0,4.587.528,13.451,13.451,0,0,0,1.835-.111,9.5,9.5,0,0,0,1.529-.194c.25-.029.473-.111.723-.14.361-.083.695-.166,1.056-.277a22.416,22.416,0,0,0,3.42-1.334c.556-.278,1.056-.584,1.612-.918.5-.3,1-.668,1.5-1.029a10.825,10.825,0,0,0,1.279-1.028,11.821,11.821,0,0,0,.917-.8,26.6,26.6,0,0,0,3.7-4.143c.333-.445.667-.918.972-1.39a11.176,11.176,0,0,0,.779-1.2,22.156,22.156,0,0,0,1.223-2.056c.417-.7.75-1.446,1.14-2.169a44.744,44.744,0,0,0,3.308-30.718,43.819,43.819,0,0,0-1.335-4.615c-.5-1.3-1-2.584-1.529-3.891-.723-1.668-1.5-3.335-2.362-4.948-.278-.529-.557-1.057-.862-1.557-.278-.528-.584-1.029-.89-1.53A62.887,62.887,0,0,0,290.265,637.7a22.718,22.718,0,0,0-3.475-2.167,40.185,40.185,0,0,0-4.226-1.668c-.667-.2-1.39-.361-2.085-.528a1.233,1.233,0,0,1-.139-.028c-.695-.167-1.39-.306-2.113-.445-.75-.167-1.5-.278-2.251-.417-2.2-.362-4.392-.612-6.5-.861l-.834-.085c-.39-.055-.778-.082-1.167-.138-1.641-.2-3.281-.334-4.976-.445-2.058-.194-4.142-.334-6.255-.445a2.683,2.683,0,0,0-.473-.028c-2.057-.138-4.169-.249-6.31-.278-3.253-.138-6.589-.167-9.841-.167-4.087,0-8.117.084-12.148.2-6.144.194-12.566,3.669-17.513,7.032a56.9,56.9,0,0,0-20.183,24.019c-.055.138-.138.305-.194.445a6.358,6.358,0,0,0-.306.778.166.166,0,0,0-.028.111c-.194.445-.361.889-.528,1.334a50.72,50.72,0,0,0-2.057,7.061C184.851,679.26,184.879,688.406,187.436,696.023Z" fill="#00008a"/><path d="M190.727,684.079c.171,11.923,6.012,21.773,17.391,24.49a28.84,28.84,0,0,1-1.29-14.537c.509-3.228,5.435-1.869,4.891,1.325a22.454,22.454,0,0,0,4.959,18,19.309,19.309,0,0,0,3.737,3.328,23.965,23.965,0,0,0,22.348,1.971,16.6,16.6,0,0,1,.1-1.835,11.731,11.731,0,0,1,0-3.091c.033-.34.068-.678.1-1.053.066-.781.169-1.6.237-2.377v-.136c.169-3.364.373-6.725.543-10.122.17-3.261,5.13-3.3,5.095,0-.067,2.921-.169,5.808-.441,8.729,0,.1-.034.237-.034.373-.1,1.562-.17,3.126-.272,4.654-.033.917-.1,1.8-.136,2.718,1.394,4.075,9.036,5.468,12.67,5.536,6.249.136,11.344-3.192,15.32-7.879a50.221,50.221,0,0,0,8.661-16.068c1.018-3.09,5.944-1.765,4.891,1.36a59.433,59.433,0,0,1-6.522,13.519,2.231,2.231,0,0,1,.476.068c10.463,2.411,17.357-6.726,21.127-15.252a39.606,39.606,0,0,0,1.257-28.8,59.967,59.967,0,0,0-18.036-26.7c-5.028-4.281-12.839-4.994-19.158-5.707-12.262-1.426-24.592-1.255-36.923-1.325-1.459,0-2.954-.033-4.448,0-.511.035-.68-.033-.68-.066-.2.066-.509.169-1.018.338a50.4,50.4,0,0,0-25.1,17.527C193.546,662.136,190.523,672.666,190.727,684.079Z" fill="#c8f657"/><path d="M208.118,708.569a24.168,24.168,0,0,0,2.276,4.722c.171.3.34.612.544.917a25.737,25.737,0,0,0,5.944,6.216c8.525,6.216,20.143,6.555,29.484,2.173,3.634,2.955,9.069,4.246,13.348,4.518,8.628.544,15.524-4.11,20.72-10.529a22.683,22.683,0,0,0,1.7-2.345c.305-.406.577-.814.849-1.255a59.433,59.433,0,0,0,6.522-13.519c1.053-3.125-3.873-4.45-4.891-1.36a50.221,50.221,0,0,1-8.661,16.068c-3.976,4.687-9.071,8.015-15.32,7.879-3.634-.068-11.276-1.461-12.67-5.536.034-.917.1-1.8.136-2.718.1-1.528.17-3.092.272-4.654,0-.136.034-.27.034-.373.272-2.921.374-5.808.441-8.729.035-3.3-4.925-3.261-5.095,0-.17,3.4-.374,6.758-.543,10.122v.136c-.068.781-.171,1.6-.237,2.377-.035.375-.07.713-.1,1.053a11.731,11.731,0,0,0,0,3.091,16.6,16.6,0,0,0-.1,1.835,23.965,23.965,0,0,1-22.348-1.971,19.309,19.309,0,0,1-3.737-3.328,22.454,22.454,0,0,1-4.959-18c.544-3.194-4.382-4.553-4.891-1.325A28.84,28.84,0,0,0,208.118,708.569Z" fill="#00008a"/><path d="M790.514,695.023a21.821,21.821,0,0,0,1.362,3.309v.027a6.412,6.412,0,0,0,.612,1.14,13.3,13.3,0,0,0,.695,1.195.838.838,0,0,1,.111.222,14.791,14.791,0,0,0,.889,1.279,19,19,0,0,0,2.336,2.78c.334.361.7.695,1.029,1a7.8,7.8,0,0,0,.778.666c.417.361.806.695,1.223,1a27.173,27.173,0,0,0,6.727,3.671c.528.194,1.085.388,1.613.555.389.111.806.251,1.167.362h.028a11.455,11.455,0,0,0,1.557.388h.055A10.881,10.881,0,0,0,812,712.9a16.461,16.461,0,0,0,2,.3l.834.111a1.993,1.993,0,0,0,2.057-1h.028a2.774,2.774,0,0,0-2.085-4.087,24.151,24.151,0,0,1-3.641-.666c-11.37-2.7-17.208-12.566-17.4-24.491a51.977,51.977,0,0,1,2.391-16.958c.139-.472.306-.918.473-1.361.167-.473.334-.947.528-1.39a44.673,44.673,0,0,1,6.366-11.287,50.39,50.39,0,0,1,25.1-17.541c.5-.167.807-.278,1.029-.334,0,.028.167.111.667.056,1.5-.028,3,0,4.448,0,12.2.082,24.379-.083,36.5,1.278.139.029.278.029.417.056,6.338.723,14.149,1.418,19.181,5.7a59.337,59.337,0,0,1,10.313,11.4c.362.474.7.973,1.029,1.5.334.5.639,1,.945,1.5A56.207,56.207,0,0,1,908.909,668a39.488,39.488,0,0,1-1.25,28.8c-3.781,8.534-10.675,17.653-21.127,15.262a1.43,1.43,0,0,0-.473-.084,2.44,2.44,0,0,0-2.251,1.252,2.756,2.756,0,0,0-.306,2.363,2.247,2.247,0,0,0,1.667,1.361,20.977,20.977,0,0,0,4.587.528,13.451,13.451,0,0,0,1.835-.111,9.5,9.5,0,0,0,1.529-.194c.25-.029.473-.111.723-.14.361-.083.7-.166,1.056-.277a22.416,22.416,0,0,0,3.42-1.334c.555-.278,1.056-.584,1.611-.918.5-.3,1-.668,1.5-1.029a10.736,10.736,0,0,0,1.278-1.028,11.83,11.83,0,0,0,.918-.8,26.541,26.541,0,0,0,3.7-4.143c.334-.445.668-.918.973-1.39a11.015,11.015,0,0,0,.778-1.2,21.723,21.723,0,0,0,1.223-2.056c.418-.7.751-1.446,1.141-2.169a44.738,44.738,0,0,0,3.307-30.718,43.814,43.814,0,0,0-1.334-4.615c-.5-1.3-1-2.584-1.529-3.891-.723-1.668-1.5-3.335-2.362-4.948-.279-.529-.557-1.057-.862-1.557-.279-.528-.584-1.029-.89-1.53A62.908,62.908,0,0,0,893.342,636.7a22.66,22.66,0,0,0-3.474-2.167,40.271,40.271,0,0,0-4.226-1.668c-.667-.2-1.39-.361-2.085-.528a1.233,1.233,0,0,1-.139-.028c-.7-.167-1.39-.306-2.113-.445-.75-.167-1.5-.278-2.251-.417-2.2-.362-4.392-.612-6.5-.861l-.834-.085c-.39-.055-.779-.082-1.168-.138-1.64-.2-3.28-.334-4.976-.445-2.057-.194-4.142-.334-6.254-.445a2.683,2.683,0,0,0-.473-.028c-2.058-.138-4.17-.249-6.31-.278-3.253-.138-6.589-.167-9.841-.167-4.087,0-8.117.084-12.149.2-6.143.194-12.565,3.669-17.512,7.032a56.881,56.881,0,0,0-20.183,24.019c-.056.138-.138.305-.194.445a6.358,6.358,0,0,0-.306.778.166.166,0,0,0-.028.111c-.194.445-.361.889-.528,1.334a50.72,50.72,0,0,0-2.057,7.061C787.929,678.26,787.957,687.406,790.514,695.023Z" fill="#00008a"/><path d="M793.805,683.079c.17,11.923,6.012,21.773,17.391,24.49a28.829,28.829,0,0,1-1.29-14.537c.509-3.228,5.435-1.869,4.891,1.325a22.451,22.451,0,0,0,4.959,18,19.333,19.333,0,0,0,3.736,3.328,23.967,23.967,0,0,0,22.349,1.971,16.6,16.6,0,0,1,.1-1.835,11.731,11.731,0,0,1,0-3.091c.033-.34.068-.678.1-1.053.066-.781.169-1.6.237-2.377v-.136c.169-3.364.373-6.725.542-10.122.171-3.261,5.13-3.3,5.1,0-.067,2.921-.17,5.808-.442,8.729,0,.1-.033.237-.033.373-.1,1.562-.171,3.126-.272,4.654-.033.917-.1,1.8-.136,2.718,1.393,4.075,9.036,5.468,12.67,5.536,6.249.136,11.344-3.192,15.32-7.879a50.221,50.221,0,0,0,8.661-16.068c1.018-3.09,5.944-1.765,4.891,1.36a59.475,59.475,0,0,1-6.522,13.519,2.249,2.249,0,0,1,.476.068c10.462,2.411,17.357-6.726,21.127-15.252a39.606,39.606,0,0,0,1.257-28.8,59.969,59.969,0,0,0-18.037-26.7c-5.027-4.281-12.838-4.994-19.157-5.707-12.262-1.426-24.592-1.255-36.923-1.325-1.459,0-2.954-.033-4.448,0-.511.035-.68-.033-.68-.066-.2.066-.509.169-1.019.338a50.4,50.4,0,0,0-25.1,17.527C796.624,661.136,793.6,671.666,793.805,683.079Z" fill="#c8f657"/><path d="M811.2,707.569a24.112,24.112,0,0,0,2.276,4.722c.17.3.34.612.544.917a25.718,25.718,0,0,0,5.944,6.216c8.525,6.216,20.143,6.555,29.484,2.173,3.634,2.955,9.069,4.246,13.348,4.518,8.627.544,15.524-4.11,20.72-10.529a22.683,22.683,0,0,0,1.7-2.345c.3-.406.577-.814.849-1.255a59.475,59.475,0,0,0,6.522-13.519c1.053-3.125-3.873-4.45-4.891-1.36a50.221,50.221,0,0,1-8.661,16.068c-3.976,4.687-9.071,8.015-15.32,7.879-3.634-.068-11.277-1.461-12.67-5.536.033-.917.1-1.8.136-2.718.1-1.528.169-3.092.272-4.654,0-.136.033-.27.033-.373.272-2.921.375-5.808.442-8.729.034-3.3-4.925-3.261-5.1,0-.169,3.4-.373,6.758-.542,10.122v.136c-.068.781-.171,1.6-.237,2.377-.035.375-.07.713-.1,1.053a11.731,11.731,0,0,0,0,3.091,16.6,16.6,0,0,0-.1,1.835,23.967,23.967,0,0,1-22.349-1.971,19.333,19.333,0,0,1-3.736-3.328,22.451,22.451,0,0,1-4.959-18c.544-3.194-4.382-4.553-4.891-1.325A28.829,28.829,0,0,0,811.2,707.569Z" fill="#00008a"/><path d="M125.13,226.163c-1.225-.024.137,12.675-6.254,21.889-6.044,8.713-17.063,11.486-25.015,12.508,6.161.538,15.5,2.352,21.888,9.38,9.732,10.71,7.733,28.167,9.381,28.143,1.83-.027-1.814-21.474,9.38-31.269,9.262-8.105,25.047-5.054,25.016-6.254-.019-.758-6.275-.686-15.634-3.127-5.065-1.321-7.6-1.982-9.382-3.127C123.976,247.54,126.722,226.2,125.13,226.163Z" fill="#df9dfa"/><path d="M171.64,200.468c-1.656.007-.518,8.82-6.06,15.149-5.522,6.306-14.358,6.354-14.138,8.079.206,1.622,7.782-.3,13.128,4.04,6.242,5.064,5.106,15.137,7.07,15.148,1.712.01.922-7.663,6.059-13.129,5.329-5.669,13.319-5.01,13.3-7.1-.017-1.99-7.273-1.272-12.507-6.254C172.178,210.4,173.4,200.461,171.64,200.468Z" fill="#df9dfa"/></svg>