<svg xmlns="http://www.w3.org/2000/svg" viewBox="0 0 1080 1080"><path d="M689.353,481.1a2.413,2.413,0,0,1-1.221,1.691,107.628,107.628,0,0,1-34.55,13.508c-1.356.268-2.746.519-4.118.753-.335.067-.686.134-1,.184-1.105.185-2.21.335-3.315.486-.4.067-.82.117-1.238.167-1.289.168-2.578.3-3.867.436-.1,0-.184.016-.268.016-1.456.151-2.929.234-4.369.3a15.885,15.885,0,0,1-1.807.1c-.837.034-1.658.084-2.478.1-.921.017-1.841.034-2.745.034-37.01.134-72.631-15.3-103.531-34.3a1.278,1.278,0,0,1-.268-.185c-3.147-1.908.653-6.093,3.733-4.2,0,0,.033,0,.033.017,5.105,3.146,10.311,6.176,15.618,9.022q6.8,3.716,13.86,7h.033c1.038.485,2.059.987,3.1,1.439,20.539,9.24,43.689,15.4,66.588,15.585,2.41.05,4.8,0,7.214-.134,17.476-.821,34.617-5.323,50.067-14.831a2.342,2.342,0,0,1,.753-.352A2.975,2.975,0,0,1,689.353,481.1Z" fill="#00008b"/><path d="M767.609,367.474c-3.85,16.3-14.8,30.716-30.416,37.73a57.994,57.994,0,0,1-18.178,4.821,53.776,53.776,0,0,1-8.2.2,52.223,52.223,0,0,1-22.163-5.943c-15.751-8.4-26.2-24.707-28.908-41.931a71.707,71.707,0,0,1,1.741-29.879c2.8-10.228,8.218-19.4,11.951-29.26a1.621,1.621,0,0,1,1.406-1.072c1.105-.2,2.344.62,1.859,1.942a5.815,5.815,0,0,1-.335.8c-3.917,10.06-9.408,19.434-12.019,29.963a65.986,65.986,0,0,0-.1,32.758c4.252,16.036,15.9,30.666,32,36.474a50.86,50.86,0,0,0,17.024,2.947c1.088,0,2.175-.017,3.263-.1a53.372,53.372,0,0,0,26.549-8.738c13.742-9.156,21.844-25.175,22.681-41.328.419-8.471-1.322-16.455-4.335-24.356-2.611-6.93-5.574-13.793-6.395-21.125a27.327,27.327,0,0,1-.217-3.331v-.016c0-.168-.017-.335-.017-.5a4.817,4.817,0,0,1-.017-.5v-.117a1.679,1.679,0,0,1,2.126-1.44,1.473,1.473,0,0,1,1.239,1.557c-.2,11.533,6.227,21.594,9.139,32.474A57.91,57.91,0,0,1,767.609,367.474Z" fill="#00008b"/><path d="M755.757,311.2c-.234.051-.485.118-.72.184a115.663,115.663,0,0,1-77.786-4.9,1.273,1.273,0,0,1-.82-1.607,1.838,1.838,0,0,1,2.494-1.2c.385.15.736.334,1.105.468a110.833,110.833,0,0,0,42.869,8.5c.837,0,1.674-.017,2.493-.034.837-.016,1.658-.033,2.478-.083,2.377-.1,4.754-.268,7.131-.536,1.339-.134,2.661-.3,4-.5,1.34-.184,2.662-.4,4-.653.67-.1,1.322-.218,1.975-.368.67-.134,1.323-.268,1.992-.419,1.992-.4,3.95-.9,5.909-1.456.653-.167,1.289-.352,1.942-.536.033-.033.033-.033.05-.033C756.929,307.4,757.8,310.578,755.757,311.2Z" fill="#00008b"/><path d="M754.82,308.034c-.653.184-1.289.385-1.942.552-1.959.536-3.934,1.021-5.909,1.456-.669.151-1.322.285-1.992.419s-1.322.251-1.975.368c-1.339.251-2.661.469-4,.653-1.339.2-2.678.368-4,.5-2.377.268-4.754.435-7.131.536-.82.05-1.641.067-2.478.083-.819.017-1.656.034-2.493.034a110.833,110.833,0,0,1-42.869-8.5,161.238,161.238,0,0,1,35.051-3.1c.653.016,1.323.033,1.975.067.553.016,1.122.033,1.691.067.8.033,1.607.067,2.394.117.8.05,1.59.1,2.394.167.568.034,1.138.084,1.707.134.87.067,1.757.151,2.628.251.937.084,1.858.184,2.795.3q1.356.151,2.712.352c.787.1,1.573.217,2.36.335,1.055.167,2.126.334,3.181.5.7.134,1.406.268,2.126.385,1.238.234,2.46.469,3.682.736.7.151,1.406.3,2.109.469,2.662.6,5.306,1.272,7.951,2.009v.1a4.817,4.817,0,0,0,.017.5C754.8,307.7,754.82,307.866,754.82,308.034Z" fill="#bde3f9"/><path d="M754.8,306.929v.6a4.817,4.817,0,0,1-.017-.5v-.1Z" fill="#93d6f7"/><path d="M756.912,305.472a1.605,1.605,0,0,1-2.042,1.49c-.017,0-.033-.033-.067-.033h-.017v-.017c-2.627-.736-5.289-1.406-7.951-1.992-.7-.167-1.406-.318-2.109-.469-1.222-.267-2.444-.5-3.682-.736-.7-.134-1.406-.251-2.126-.385-1.055-.168-2.126-.335-3.181-.5-.787-.118-1.573-.235-2.36-.335q-1.356-.2-2.712-.352c-.937-.117-1.858-.217-2.795-.3-.871-.1-1.758-.184-2.628-.251-.569-.05-1.139-.1-1.707-.134-.8-.067-1.591-.117-2.394-.167-.787-.05-1.59-.084-2.394-.117-.569-.034-1.138-.051-1.691-.067-.652-.034-1.322-.051-1.975-.067a161.238,161.238,0,0,0-35.051,3.1c-1.172.235-2.36.469-3.532.737h-.067a.1.1,0,0,1-.067.017,1.669,1.669,0,0,1-1.524-2.746,1.327,1.327,0,0,1,.771-.451,164.648,164.648,0,0,1,80.146,2.058A1.552,1.552,0,0,1,756.912,305.472Z" fill="#00008b"/><path d="M369.587,653.5a3.132,3.132,0,0,1-1.775-1.624c-1.707-3.348-3.482-6.712-5.339-10.01q-5.174-9.416-11.2-18.379A270.326,270.326,0,0,0,269.1,544.138c-3.833-2.377-.284-8.386,3.582-5.992A280.023,280.023,0,0,1,300,557.463c1.641,1.305,3.264,2.644,4.871,3.984s3.214,2.711,4.788,4.1c1.439,1.255,2.862,2.527,4.252,3.816,1.456,1.323,2.895,2.679,4.318,4.034.519.519,1.055,1,1.574,1.54a.438.438,0,0,1,.1.084c.2.167.368.352.569.552,1.189,1.139,2.361,2.31,3.5,3.5.469.452.921.887,1.322,1.339.067.05.117.083.134.15.033.017.05.017.017.034.083.033.134.084.134.117a1.041,1.041,0,0,1,.267.285.307.307,0,0,1,.134.117c.034.017.051.017.017.033.084.034.117.084.117.135.05,0,.017.016.017.016.05.017.05.017.033.033.486.469.971.955,1.407,1.423.334.335.652.687.937,1.021,1.188,1.206,2.31,2.444,3.432,3.683.217.251.452.5.669.753.787.871,1.59,1.758,2.343,2.645.452.5.871,1,1.306,1.49q2.862,3.289,5.625,6.679c.568.686,1.1,1.372,1.657,2.059v.033a1.635,1.635,0,0,1,.167.184c.2.235.385.469.569.7.234.318.486.636.737.938l.033.033c1.021,1.306,2.042,2.645,3.047,3.967,1.69,2.227,3.347,4.486,4.938,6.763.719,1,1.439,2.025,2.125,3.047,1.407,2.008,2.746,4.034,4.085,6.109,1.138,1.741,2.243,3.482,3.331,5.256.787,1.272,1.557,2.561,2.31,3.834,0,0,.017,0,.017.016.686,1.139,1.339,2.294,2.008,3.465.57.954,1.122,1.925,1.658,2.9.083.134.15.268.217.385.586,1.038,1.155,2.092,1.707,3.147.469.854.921,1.708,1.39,2.578.669,1.305,1.339,2.628,2.009,3.933C375.462,651.486,372.1,654.3,369.587,653.5Z" fill="#00008b"/><path d="M566.606,823.781a3.076,3.076,0,0,1-1.925.6q-46.075.4-92.166.82-81.627.727-163.206,1.456c-13.241.118-26.5.536-39.738.336-8.671-.151-18.681-1.289-25.243-7.483-8.821-8.319-5.49-20.439-.753-29.913,5.975-11.885,12.554-23.5,18.848-35.236a3.179,3.179,0,0,1,.569-.786,4.312,4.312,0,0,1,.419-.385,3.358,3.358,0,0,1,3.783.033h.016a3.435,3.435,0,0,1,1.34,4.654c-.285.535-.569,1.037-.854,1.573-3.18,5.909-6.361,11.834-9.508,17.727-3.314,6.193-7,12.32-9.842,18.748-2.344,5.222-4.185,11.818-.553,16.939,2.561,3.616,7.031,5.223,11.232,6.127a57.5,57.5,0,0,0,12.906,1.038c6.378-.017,12.772-.1,19.149-.151q19.712-.175,39.354-.368l78.1-.7,125.661-1.1c8.436-.083,16.839-.167,25.259-.234,1.758-.034,3.482-.034,5.223-.051a3.167,3.167,0,0,1,2.678,1.222A3.647,3.647,0,0,1,566.606,823.781Z" fill="#00008b"/><path d="M439.841,464.862l-.017-.017c-.2-.6-.4-1.205-.569-1.791C439.439,463.657,439.64,464.259,439.841,464.862Z" fill="#e1b0c5"/><path d="M768.4,495.327c-7.951,19.6-24.539,33.646-43,43.539-27.635,14.78-58.151,21.61-89.051,22.011-2.344.051-4.67.051-7.064-.016a242.544,242.544,0,0,1-36.257-3.432c-1.055-.167-2.143-.368-3.214-.552-3.331-.6-1.925-5.625,1.423-5,.368.067.77.134,1.155.2,1.506.284,2.979.519,4.486.77,1.021.167,2.009.3,3.013.452,2.26.334,4.553.636,6.813.92.736.084,1.456.168,2.209.251,1.356.168,2.745.318,4.118.419,1.2.117,2.377.217,3.565.3.9.1,1.775.168,2.662.2,3.164.218,6.311.351,9.474.435.369,0,.754.034,1.1,0,1.775.084,3.565.084,5.357.084h.6c.854-.034,1.724-.034,2.561-.034,2.444-.067,4.838-.134,7.248-.267,1.239-.084,2.511-.151,3.75-.235q1.882-.125,3.766-.3c2.511-.234,4.988-.5,7.482-.837,1.239-.151,2.511-.352,3.75-.519A184.183,184.183,0,0,0,719.9,535.836c16.086-8.2,31.5-19.468,40.308-35.454,5.758-10.411,8.218-21.643,4.653-33.193-3.2-10.445-10.194-19.535-18.58-26.532-7.633-6.327-22.581-16.739-32.624-9.859-2.98,2.076-3.482,4.788-2.562,7.4a9.678,9.678,0,0,0,1.256,2.393,12.729,12.729,0,0,0,1.59,1.925,14.827,14.827,0,0,0,10.412,4.219c3.4.033,3.4,5.239,0,5.189-6.026-.034-13.659-3.766-17.208-9.24a11.576,11.576,0,0,1-1.942-5.106,10.729,10.729,0,0,1,.837-5.574,12.407,12.407,0,0,1,5.624-6.059,18.509,18.509,0,0,1,7.4-2.243h.017a21.1,21.1,0,0,1,3.231-.084c7.6.385,14.529,4.151,20.722,8.185,10.144,6.629,18.916,15.852,24.088,26.749C772.8,470.469,773.384,483.074,768.4,495.327Z" fill="#00008b"/><path d="M742.215,481.835c-12.236,12.605-33.177,10.328-47.522,2.612a43.059,43.059,0,0,1-5.34-3.348,32.246,32.246,0,0,1-3.783-3.164c-3.13-2.963-5.557-6.545-5.774-10.378-.452-8.068,7.615-10.6,14.361-10.931.888-.05,1.775-.067,2.595-.05a2.669,2.669,0,0,1,1.289,4.938,2.614,2.614,0,0,1-1.289.268c-3.231-.067-7.181-.284-9.842,1.875-3.148,2.594-1.34,5.959.786,8.553a33.774,33.774,0,0,0,13.877,9.709c11.8,4.737,27.368,6.06,36.893-3.766C740.826,475.726,744.559,479.408,742.215,481.835Z" fill="#00008b"/><path d="M593.02,557.429a18.209,18.209,0,0,1-3.063,8.42,7.235,7.235,0,0,1-.469.686,21.842,21.842,0,0,1-3.649,4.085,24.676,24.676,0,0,1-15.082,5.959c-8.2.385-15.969-3.315-21.694-8.872-2.427-2.36,1.323-6.043,3.733-3.683,6.378,6.211,15.8,9.391,24.439,5.926a17.862,17.862,0,0,0,5.591-3.683c0-.016,0-.016.033-.016.218-.2.435-.436.653-.653,3.833-3.95,6.127-9.508,2.863-14.161-9.91-14.262-32.441-12.086-46.418-6.077-7.9,3.4-15.115,8.169-22.966,11.734-7.784,3.482-14.931,8.1-22.514,11.9-26.18,12.989-59.022,9.508-82.038-8.152-2.678-2.076,1.1-5.758,3.766-3.716,14.446,11.115,33.328,15.885,51.473,14.145a68.97,68.97,0,0,0,22.915-6.211c8.588-4.051,16.522-9.257,25.176-13.123,8.369-3.75,15.952-9.023,24.54-12.3a62.673,62.673,0,0,1,10.294-2.979c1.306-.251,2.611-.452,3.967-.6a52.322,52.322,0,0,1,13.04-.1c8.018.971,15.819,4.285,21.292,10.294a15.567,15.567,0,0,1,3.482,5.826A13.245,13.245,0,0,1,593.02,557.429Z" fill="#00008b"/><path d="M844.29,774.083c-.15,2.076-.368,4.151-.653,6.177-2.142,15.9-9,32.54-24.238,40.358-12.37,6.378-26.849,5.942-40.291,2.762-3.515-.821-6.946-1.808-10.244-2.93a.85.85,0,0,1-.285-.134c-1.757-.87-.82-3.916,1.239-3.214,16.22,5.491,36.123,8.471,51.272-1.49,13.073-8.6,18.145-24.823,19.5-39.52.017-.218.05-.435.05-.653.05-.552.1-1.088.134-1.641.067-.92.117-1.841.167-2.778.067-1.456.1-2.93.1-4.4,0-2.679-.117-5.374-.368-8.069-.118-1.339-.268-2.712-.486-4.051-.033-.3-.084-.6-.134-.9-.083-.67-.217-1.306-.335-1.976a59.646,59.646,0,0,0-1.807-7.248c-.252-.786-.5-1.574-.787-2.36a50.294,50.294,0,0,0-7.031-13.14c-7.314-9.742-19.45-16.722-31.787-16.354-.987.033-1.975.1-2.946.217a30.765,30.765,0,0,0-5.758,1.323,30.2,30.2,0,0,0-18.3,39.755c.8,2.076-2.6,2.98-3.4.921a2.581,2.581,0,0,1-.1-.251c-.3-.8-.569-1.574-.8-2.377-.184-.636-.368-1.256-.5-1.892a29.662,29.662,0,0,1-.754-4.938,33.708,33.708,0,0,1,25.879-35.42c.418-.084.854-.167,1.289-.251a32.218,32.218,0,0,1,4.168-.519c14.345-.921,28.356,7.3,36.575,18.714C843.135,740.99,845.546,758.1,844.29,774.083Z" fill="#00008b"/><path d="M798.308,712.517a1.786,1.786,0,0,1-2.946.217.51.51,0,0,1-.117-.15,17.166,17.166,0,0,0-2.327-2.98c-6.01-6.026-16.019-6.344-23.384-1.941-9.726,5.858-13.459,17.157-13.358,27.887.033,2.209-3.5,2.209-3.516,0a42.82,42.82,0,0,1,2.746-15.752,31.579,31.579,0,0,1,1.741-3.833,28.638,28.638,0,0,1,11.7-11.918c9.357-5.022,21.711-3.432,28.239,5.038a13.649,13.649,0,0,1,1.222,1.758A1.515,1.515,0,0,1,798.308,712.517Z" fill="#00008b"/><path d="M714.948,406.627a4.287,4.287,0,0,0-1.674.4c1.088,0,2.175-.017,3.263-.1A3.413,3.413,0,0,0,714.948,406.627Z" fill="#e1b0c5"/><path d="M761.432,332.506c-2.611-6.93-5.574-13.793-6.395-21.125a115.663,115.663,0,0,1-77.786-4.9,1.273,1.273,0,0,1-.82-1.607.1.1,0,0,1-.067.017c-3.917,10.06-9.408,19.434-12.019,29.963a65.986,65.986,0,0,0-.1,32.758c4.252,16.036,15.9,30.666,32,36.474a50.86,50.86,0,0,0,17.024,2.947,4.287,4.287,0,0,1,1.674-.4,3.413,3.413,0,0,1,1.589.3,53.372,53.372,0,0,0,26.549-8.738c13.742-9.156,21.844-25.175,22.681-41.328C766.186,348.391,764.445,340.407,761.432,332.506Zm-50.4,67.057c-21.795-1.021-37.011-21.493-40.007-39.37a46.1,46.1,0,0,1,2.344-23.151q40.023,1.155,80.029,2.311a38.87,38.87,0,0,1,2.344,13.91C755.272,373.885,736.842,400.768,711.031,399.563Z" fill="#bde3f9"/><path d="M755.741,353.263c-.469,20.622-18.9,47.505-44.71,46.3-21.795-1.021-37.011-21.493-40.007-39.37a46.1,46.1,0,0,1,2.344-23.151q40.023,1.155,80.029,2.311A38.87,38.87,0,0,1,755.741,353.263Z" fill="#00008b"/><path d="M594.9,577.935c-.754,5.925-5.173,10.344-10.462,12.855-.335.134-.687.3-1.038.435a31.68,31.68,0,0,1-3.967,1.373,38.264,38.264,0,0,1-32.072-5.926c-2.729-1.958-.084-6.5,2.678-4.519a33.245,33.245,0,0,0,27.352,5.591c4.5-1.122,9.273-3.3,11.432-7.634,1.741-3.582.754-8.067-2.979-9.49a6.369,6.369,0,0,0-1.523-.385,2.631,2.631,0,0,1-1.858-3.2,2.328,2.328,0,0,1,.368-.77c0-.016,0-.016.033-.016.218-.2.435-.436.653-.653a3.584,3.584,0,0,1,2.21-.4,9.845,9.845,0,0,1,3.766,1.339A11.714,11.714,0,0,1,594.9,577.935Z" fill="#00008b"/><path d="M718.2,466.469a2.7,2.7,0,0,1-3.231,1.808,51.949,51.949,0,0,1-12.286-3.666,19.5,19.5,0,0,1-4.637-3.1,17.887,17.887,0,0,1-3.884-4.888,13.135,13.135,0,0,1-1.439-8.921c1.205-5.943,6.712-9.575,12.487-10.128a15.224,15.224,0,0,1,5.29.4,5.021,5.021,0,0,1,.6.218,2.328,2.328,0,0,1,1.256,2.393,2.575,2.575,0,0,1-3.248,2.394,9.713,9.713,0,0,0-1.958-.3,9.5,9.5,0,0,0-7.5,2.829,7.143,7.143,0,0,0-1.189,7.967c2.947,6.847,11.333,8.437,17.894,9.759A2.665,2.665,0,0,1,718.2,466.469Z" fill="#00008b"/><path d="M719.082,410.678V423.7h-.017a4.21,4.21,0,0,1-4.117,3.866,3.913,3.913,0,0,1-3.282-1.623,4,4,0,0,1-.87-2.444V410.678a4.162,4.162,0,0,1,.017-.452,3.98,3.98,0,0,1,2.461-3.2,4.287,4.287,0,0,1,1.674-.4,3.413,3.413,0,0,1,1.589.3,4.35,4.35,0,0,1,2.478,3.1A2.891,2.891,0,0,1,719.082,410.678Z" fill="#00008b"/><path d="M756.912,719.848c-.485,0-1.021-.016-1.506-.05a231.317,231.317,0,0,1-42.785-4.821,236,236,0,0,1-56.461-19.584h-.017A221.759,221.759,0,0,1,635.5,683.809a179.739,179.739,0,0,1-65.416-72.195c-.352-.687-.67-1.356-1-2.026-1.072-2.277,2.36-4.252,3.432-1.992.083.184.184.369.267.536.3.6.57,1.205.888,1.808a171.643,171.643,0,0,0,32.557,45.58c.536.536,1.071,1.055,1.624,1.59.519.519,1.071,1.021,1.607,1.541,1.322,1.255,2.661,2.477,4.017,3.682.251.234.519.452.787.669,1.841,1.641,3.7,3.2,5.591,4.7.77.636,1.54,1.239,2.31,1.842,2.494,1.924,5.021,3.8,7.582,5.59,1.089.77,2.193,1.524,3.3,2.26,1.155.787,2.327,1.54,3.515,2.294,1.975,1.288,3.967,2.511,6.009,3.7.62.385,1.273.753,1.926,1.121.636.385,1.255.753,1.908,1.105l.016.017h.017c1.775,1,3.565,1.975,5.357,2.946,2.008,1.071,4,2.092,6.043,3.08,4,2.025,8.085,3.9,12.219,5.674a227.272,227.272,0,0,0,86.859,18.614,1.1,1.1,0,0,1,.235.017C759.473,716.233,759.39,719.882,756.912,719.848Z" fill="#00008b"/><path d="M343.541,601.085c-.553-.687-1.089-1.373-1.657-2.059a2.883,2.883,0,0,0,1.138-.8c.15.452.285.921.418,1.39A2.828,2.828,0,0,1,343.541,601.085Z" fill="#ecd2df"/><path d="M346.386,455.99a1.385,1.385,0,0,0-.067.3c-1.573,8.3-3.1,16.638-4.519,24.991-3.331,19.97-5.892,40.559-6.043,61.031-.067-20.79,2.594-41.714,6.043-61.985,1.423-8.152,2.946-16.254,4.519-24.389C346.336,455.957,346.353,455.957,346.386,455.99Z" fill="#ecd2df"/><path d="M355.392,461.23c-.218-.117-.419-.235-.619-.352l.2.1C355.107,461.062,355.241,461.146,355.392,461.23Z" fill="#ecd2df"/><path d="M431.069,505.806l-.4-.1c-.268-.067-.553-.134-.837-.217.3.083.585.15.887.217h.017C430.852,505.739,430.952,505.772,431.069,505.806Z" fill="#ecd2df"/><path d="M554.721,538.983a1.936,1.936,0,0,1-1.959,1.941,1.994,1.994,0,0,1-1.975-1.941c-.067-.77-.117-1.557-.184-2.327-.268-4.419-.385-8.822-.385-13.224,0-2.527,3.95-2.527,3.95,0,0,4.2.118,8.42.4,12.621C554.587,537.041,554.654,538.012,554.721,538.983Z" fill="#00008b"/><path d="M582.29,602.658c-.017.034-.033.05-.05.084a4.485,4.485,0,0,1-.4.536c.134-.185.285-.385.419-.586v-.017A.051.051,0,0,0,582.29,602.658Z" fill="#df9ebd"/><path d="M584.014,599.36a12.621,12.621,0,0,1-1,2.16A17.875,17.875,0,0,0,584.014,599.36Z" fill="#df9ebd"/><path d="M635.4,498.641a15.885,15.885,0,0,1-1.807.1c-.837.034-1.658.084-2.478.1-.921.017-1.841.034-2.745.034a33.785,33.785,0,0,0-.837-5.624,22.966,22.966,0,0,0-.636-2.277c-2.729-8.152-10.395-10.06-18.279-10.73-16.957-1.423-33.847-2.711-50.77-4.017h-.033q-5.675-.453-11.349-.887a3.731,3.731,0,0,1-2.511-6.11,2.983,2.983,0,0,1,2.511-.837l36.96,2.912,18.479,1.457c5.34.435,10.881.552,16.087,1.875a21.8,21.8,0,0,1,15.952,15.215,30.793,30.793,0,0,1,.8,3.265A40.919,40.919,0,0,1,635.4,498.641Z" fill="#00008b"/><path d="M658.654,690.22a3.259,3.259,0,0,1-.82,1.44c-2.143,2.276-6.913.5-6.043-3.08a.546.546,0,0,1,.067-.167c6.093-20.774.267-42.1-6.16-62.069-5.926-18.379-11.9-36.475-15-55.59-.553-3.265-1.022-6.579-1.423-9.893-.2-1.674-.4-3.332-.553-5.039.369,0,.754.034,1.1,0,1.775.084,3.565.084,5.357.084h.6q.226,2.486.553,4.971c.586,4.671,1.322,9.341,2.192,13.961,3.733,19.986,10.881,38.851,16.656,58.285C660.7,651.687,664.228,671.305,658.654,690.22Z" fill="#00008b"/><path d="M779.108,823.38a2.481,2.481,0,0,1-2.477,2.042c-3.314.05-6.629.084-9.96.134-29.812.435-59.625,1.2-89.4,2.008-36.927,1-74.021,1.273-110.662-3.783-.5-.067-1.055-.117-1.574-.184-10.345-1.473-20.656-3.414-30.833-5.892-23.9-5.825-46.987-14.647-68.045-27.452q-2.034-1.23-4.017-2.511c-.552-.351-1.105-.7-1.657-1.071-1.423-.9-2.846-1.858-4.252-2.829-1.49-1-2.979-2.042-4.436-3.1-1.272-.92-2.544-1.841-3.8-2.795-.619-.452-1.222-.9-1.824-1.373-1.49-1.138-2.946-2.293-4.4-3.465q-1.756-1.405-3.464-2.862c-.319-.234-.62-.5-.921-.77-1.172-.988-2.327-1.992-3.482-3.013-1.874-1.641-3.733-3.331-5.541-5.055-.92-.854-1.824-1.708-2.711-2.6-1.306-1.256-2.578-2.528-3.833-3.817-.72-.736-1.423-1.472-2.126-2.209-.57-.569-1.122-1.155-1.657-1.741-.486-.519-.971-1.038-1.457-1.573-.836-.9-1.657-1.808-2.461-2.729-.468-.5-.9-1-1.338-1.506-1.072-1.222-2.143-2.461-3.181-3.716-1.071-1.272-2.109-2.545-3.13-3.834-.351-.418-.7-.853-1.038-1.272-.82-1.038-1.64-2.092-2.444-3.163-1.356-1.775-2.678-3.549-3.984-5.357a220.714,220.714,0,0,1-37.027-83.83,2.506,2.506,0,0,1,.5-2.209c1.255-1.49,4.1-1.557,4.6.82.753,3.616,1.573,7.232,2.511,10.814,0,.033.017.067.017.1a217.741,217.741,0,0,0,40.91,80.833,227.556,227.556,0,0,0,18.848,20.723,222.2,222.2,0,0,0,50.853,37.077c24.657,12.99,51.691,20.79,79.243,25.243,1.758-.034,3.482-.034,5.223-.051a3.167,3.167,0,0,1,2.678,1.222c5.156.737,10.344,1.356,15.517,1.859,36.307,3.532,72.832,2.51,109.206,1.406,25.493-.754,51-1.239,76.5-1.591l8.052-.1A2.474,2.474,0,0,1,779.108,823.38Z" fill="#e1b0c5" opacity="0.69"/><path d="M779.108,823.38a2.481,2.481,0,0,1-2.477,2.042c-3.314.05-6.629.084-9.96.134-29.812.435-59.625,1.2-89.4,2.008-36.927,1-74.021,1.273-110.662-3.783-.5-.067-1.055-.117-1.574-.184-10.345-1.473-20.656-3.414-30.833-5.892-23.9-5.825-46.987-14.647-68.045-27.452q-2.034-1.23-4.017-2.511c-.552-.351-1.105-.7-1.657-1.071-1.423-.9-2.846-1.858-4.252-2.829-1.49-1-2.979-2.042-4.436-3.1-1.272-.92-2.544-1.841-3.8-2.795-.619-.452-1.222-.9-1.824-1.373-1.49-1.138-2.946-2.293-4.4-3.465q-1.756-1.405-3.464-2.862c-.319-.234-.62-.5-.921-.77-1.172-.988-2.327-1.992-3.482-3.013-1.874-1.641-3.733-3.331-5.541-5.055-.92-.854-1.824-1.708-2.711-2.6-1.306-1.256-2.578-2.528-3.833-3.817-.72-.736-1.423-1.472-2.126-2.209-.57-.569-1.122-1.155-1.657-1.741-.486-.519-.971-1.038-1.457-1.573-.836-.9-1.657-1.808-2.461-2.729-.468-.5-.9-1-1.338-1.506-1.072-1.222-2.143-2.461-3.181-3.716-1.071-1.272-2.109-2.545-3.13-3.834-.351-.418-.7-.853-1.038-1.272-.82-1.038-1.64-2.092-2.444-3.163-1.356-1.775-2.678-3.549-3.984-5.357a220.714,220.714,0,0,1-37.027-83.83,2.506,2.506,0,0,1,.5-2.209c1.255-1.49,4.1-1.557,4.6.82.753,3.616,1.573,7.232,2.511,10.814,0,.033.017.067.017.1a217.741,217.741,0,0,0,40.91,80.833,227.556,227.556,0,0,0,18.848,20.723,222.2,222.2,0,0,0,50.853,37.077c24.657,12.99,51.691,20.79,79.243,25.243,2.645.435,5.273.837,7.9,1.171,5.156.737,10.344,1.356,15.517,1.859,36.307,3.532,72.832,2.51,109.206,1.406,25.493-.754,51-1.239,76.5-1.591l8.052-.1A2.474,2.474,0,0,1,779.108,823.38Z" fill="#00008b"/><path d="M582.257,602.675v.017a.061.061,0,0,1-.017.05,4.485,4.485,0,0,1-.4.536,1.938,1.938,0,0,1-.284.368c-.168.234-.369.452-.553.669-.083.117-.184.2-.268.3-.251.267-.5.519-.77.786a5.394,5.394,0,0,1-.635.6c-.034.034-.084.067-.118.1a10.8,10.8,0,0,1-.82.72c-.017.017-.017.017-.033.017-.318.285-.67.535-1,.786a6.338,6.338,0,0,1-.7.486c-.017.017-.017.05-.033.05-.051.034-.118.084-.168.117-.669.436-1.372.871-2.076,1.273h-.016a7.4,7.4,0,0,1-.686.385,39.2,39.2,0,0,1-3.582,1.674,38.068,38.068,0,0,1-9.81,2.477,40.593,40.593,0,0,1-23.953-4.7,2.189,2.189,0,0,1-.469,1.589A89.064,89.064,0,0,1,503.064,638.3c-22.983,11.2-49.882,12.738-73.585,2.912a87.08,87.08,0,0,1-10.428-5.122c-.687-.368-1.356-.77-1.992-1.171-.67-.386-1.322-.8-1.976-1.206-1.288-.82-2.577-1.707-3.833-2.594-.636-.452-1.239-.888-1.858-1.373-1.573-1.172-3.1-2.393-4.587-3.682-.568-.469-1.1-.938-1.656-1.423-2.009-1.808-3.951-3.7-5.809-5.709-.5-.518-.987-1.054-1.473-1.623a88.962,88.962,0,0,1-7.047-9.023c-.435-.635-.854-1.272-1.272-1.908-.519-.786-1.021-1.607-1.49-2.427-.318-.519-.636-1.054-.937-1.573-.754-1.306-1.474-2.645-2.16-4-.335-.653-.67-1.322-.971-2.009-.3-.636-.586-1.255-.87-1.891-.251-.569-.5-1.155-.753-1.741-.034-.1-.084-.184-.118-.3a15.955,15.955,0,0,1,2.093-1.875,10.661,10.661,0,0,1,2.31-1.273c.284.737.569,1.474.87,2.21a.223.223,0,0,1,.051.084c.284.669.585,1.339.886,1.992.687,1.557,1.457,3.063,2.26,4.536.335.636.67,1.255,1.021,1.892a86.516,86.516,0,0,0,5.34,8.084c.754,1.022,1.523,2.009,2.327,2.98a85.426,85.426,0,0,0,73.284,31.185c23.8-2.277,46.585-14.814,60.612-33.88a2.548,2.548,0,0,1,1.64-1.071c-.569-.385-1.138-.8-1.674-1.222a36.176,36.176,0,0,1-4.218-3.766,9.025,9.025,0,0,0-.552-3.784,1.44,1.44,0,0,1,.2-.25.866.866,0,0,1,.184-.168,2.753,2.753,0,0,1,.736-.5,2.162,2.162,0,0,1,.385-.134.726.726,0,0,1,.168-.033,2.008,2.008,0,0,1,.435-.051,2.34,2.34,0,0,1,1.774.821,34.979,34.979,0,0,0,26.866,10.913,31.245,31.245,0,0,0,5.072-.619c.519-.1,1.072-.218,1.607-.368a32.648,32.648,0,0,0,7.533-2.779A19.7,19.7,0,0,0,573.9,603.9a16.628,16.628,0,0,0,2.159-1.741,13.76,13.76,0,0,0,1.172-1.255,8.775,8.775,0,0,0,.971-1.407,5.175,5.175,0,0,0,.385-.653,9.829,9.829,0,0,0,.853-2.477,10.419,10.419,0,0,0,.168-1.623v-.117a5.608,5.608,0,0,1,2.076,1.422A6.267,6.267,0,0,1,582.257,602.675Z" fill="#ffb4e7"/><path d="M535.856,610.977A89.064,89.064,0,0,1,503.064,638.3c-22.983,11.2-49.882,12.738-73.585,2.912a87.08,87.08,0,0,1-10.428-5.122c-.687-.368-1.356-.77-1.992-1.171-.67-.386-1.322-.8-1.976-1.206-1.288-.82-2.577-1.707-3.833-2.594-.636-.452-1.239-.888-1.858-1.373-1.573-1.172-3.1-2.393-4.587-3.682-.568-.469-1.1-.938-1.656-1.423-2.009-1.808-3.951-3.7-5.809-5.709-.5-.518-.987-1.054-1.473-1.623a88.962,88.962,0,0,1-7.047-9.023c-.435-.635-.854-1.272-1.272-1.908-.519-.786-1.021-1.607-1.49-2.427-.318-.519-.636-1.054-.937-1.573-.754-1.306-1.474-2.645-2.16-4-.335-.653-.67-1.322-.971-2.009-.3-.636-.586-1.255-.87-1.891-.251-.569-.5-1.155-.753-1.741-.034-.1-.084-.184-.118-.3-.334-.8-.669-1.624-.971-2.427-1.2-3.181,3.934-4.5,5.106-1.39.1.235.184.452.268.669.284.737.569,1.474.87,2.21a.223.223,0,0,1,.051.084c.284.669.585,1.339.886,1.992.687,1.557,1.457,3.063,2.26,4.536.335.636.67,1.255,1.021,1.892a86.516,86.516,0,0,0,5.34,8.084c.754,1.022,1.523,2.009,2.327,2.98a85.426,85.426,0,0,0,73.284,31.185c23.8-2.277,46.585-14.814,60.612-33.88a2.548,2.548,0,0,1,1.64-1.071,2.828,2.828,0,0,1,3.382,2.093A2.189,2.189,0,0,1,535.856,610.977Z" fill="#00008b"/><path d="M584.834,595.661c0,.2-.033.385-.05.569-.033.251-.067.519-.117.787-.067.285-.134.586-.2.871-.017.033-.017.083-.033.116a2.48,2.48,0,0,1-.134.5.234.234,0,0,1-.034.1c-.083.268-.167.5-.251.753a12.621,12.621,0,0,1-1,2.16c0,.017-.017.033-.033.05a11.18,11.18,0,0,1-.637,1c0,.033-.033.05-.05.083s-.033.05-.05.084a4.485,4.485,0,0,1-.4.536,1.938,1.938,0,0,1-.284.368c-.168.234-.369.452-.553.669-.083.117-.184.2-.268.3-.251.267-.5.519-.77.786a5.394,5.394,0,0,1-.635.6c-.034.034-.084.067-.118.1a10.8,10.8,0,0,1-.82.72c-.017.017-.017.017-.033.017-.318.285-.67.535-1,.786a6.338,6.338,0,0,1-.7.486c-.017.017-.017.05-.033.05-.051.034-.118.084-.168.117-.669.436-1.372.871-2.076,1.273h-.016a7.4,7.4,0,0,1-.686.385,39.2,39.2,0,0,1-3.582,1.674,38.068,38.068,0,0,1-9.81,2.477,40.593,40.593,0,0,1-23.953-4.7c-1.155-.654-2.294-1.356-3.382-2.093-.569-.385-1.138-.8-1.674-1.222a36.176,36.176,0,0,1-4.218-3.766c-.15-.151-.268-.285-.418-.419a2.4,2.4,0,0,1-.67-2.192.757.757,0,0,1,.084-.252,1.072,1.072,0,0,1,.134-.385,3.713,3.713,0,0,1,.184-.368c.05-.067.1-.117.134-.168a1.44,1.44,0,0,1,.2-.25.866.866,0,0,1,.184-.168,2.753,2.753,0,0,1,.736-.5,2.162,2.162,0,0,1,.385-.134.726.726,0,0,1,.168-.033,2.008,2.008,0,0,1,.435-.051,2.34,2.34,0,0,1,1.774.821,34.979,34.979,0,0,0,26.866,10.913,31.245,31.245,0,0,0,5.072-.619c.519-.1,1.072-.218,1.607-.368a32.648,32.648,0,0,0,7.533-2.779A19.7,19.7,0,0,0,573.9,603.9a16.628,16.628,0,0,0,2.159-1.741,13.76,13.76,0,0,0,1.172-1.255,8.775,8.775,0,0,0,.971-1.407,5.175,5.175,0,0,0,.385-.653,9.829,9.829,0,0,0,.853-2.477,10.419,10.419,0,0,0,.168-1.623v-.117a10.836,10.836,0,0,0-.184-2.026c-.067-.251-.134-.536-.2-.8-.87-3.247,4.252-4.636,5.105-1.389a3.214,3.214,0,0,1,.1.385A14.964,14.964,0,0,1,584.834,595.661Z" fill="#00008b"/><path d="M767.809,754.482a1.633,1.633,0,0,1-.318.05c-.669.034-1.356.1-2.042.15-4.319.336-8.637.67-12.956.971-1.607.1-3.214.218-4.821.3-.351.05-.669.067-1,.083-10.462.636-20.941,1.088-31.436.971-.87.017-1.741,0-2.628-.016-30.917-.519-60.713-7.433-89.922-17.125-1.892-.619-3.783-1.272-5.675-1.941-1.021-.369-2.042-.737-3.08-1.105-1.791-.653-3.582-1.323-5.34-2.009q-4.192-1.606-8.336-3.347-4.118-1.758-8.185-3.633c-.9-.4-1.791-.837-2.7-1.256-2.678-1.3-5.34-2.627-7.985-4.017-.887-.452-1.741-.921-2.611-1.406-1.741-.937-3.448-1.925-5.173-2.929-.853-.485-1.707-.988-2.544-1.507-2.662-1.607-5.289-3.264-7.884-5-1.506-1.038-3.013-2.075-4.5-3.13-1.423-1.021-2.829-2.076-4.218-3.13-2.544-1.959-5.038-3.967-7.465-6.06-1.457-1.239-2.88-2.527-4.3-3.816a.506.506,0,0,0-.15-.168c-.737-.686-1.473-1.355-2.193-2.058l-2.126-2.076c-1.992-2.009,1.138-5.122,3.164-3.1l1.038,1.054.7.687c.134.117.267.235.385.351.134.134.267.235.385.352.736.736,1.489,1.44,2.243,2.126.284.268.586.536.87.77.686.636,1.373,1.272,2.076,1.858,1,.9,2.025,1.774,3.047,2.611.585.485,1.171.988,1.757,1.44A179.334,179.334,0,0,0,580.75,717.4c1.038.586,2.092,1.139,3.114,1.691,1.037.536,2.092,1.088,3.147,1.607,14.244,7.131,29.259,12.588,44.459,17.392A327.222,327.222,0,0,0,677.9,749.61c29.36,4.788,59.089,2.913,88.6.6a8.9,8.9,0,0,1,.954-.084h.033C770.253,749.912,770.354,753.963,767.809,754.482Z" fill="#00008b"/><path d="M421.6,496.2a.093.093,0,0,0,.084.05.711.711,0,0,1-.084-.017Z" fill="#ffdaf1"/><path d="M331.187,565.782a169.875,169.875,0,0,0,5.072,26.565c-.435-.486-.854-.988-1.306-1.49a.063.063,0,0,1-.016-.05,178,178,0,0,1-3.75-21.895,222.528,222.528,0,0,1-1.339-24.707C329.949,551.386,330.367,558.584,331.187,565.782Z" fill="#f6a2ff"/><path d="M290.026,773.547c-1.189-1.188-2.343-2.36-3.482-3.549-1.439-1.456-2.829-2.929-4.185-4.418-1-1.072-2.008-2.16-2.946-3.248-1.791-1.992-3.532-4-5.222-6.043-1.339-1.573-2.645-3.18-3.917-4.787-1.155-1.44-2.293-2.879-3.382-4.352-.184-.218-.351-.435-.519-.67-2.443-3.247-4.82-6.528-7.114-9.875q-3.489-5.1-6.746-10.329c-1.64-2.611-3.213-5.272-4.753-7.934-1.54-2.695-3.013-5.407-4.453-8.119-.954-1.807-1.908-3.649-2.812-5.49-.921-1.824-1.808-3.683-2.712-5.54-.87-1.859-1.724-3.733-2.561-5.608A255.68,255.68,0,0,1,213.16,598a215.875,215.875,0,0,1,4.352-51.338q1.482-7.056,3.582-13.994c1.306-4.386,2.846-8.888,2.762-13.542-.151-8.369-6.11-13.977-12.437-18.748-7.131-5.406-15.031-10.328-20.572-17.425-5.022-6.394-8.353-15.283-4.754-23.1,3.5-7.6,11.584-11.717,19.2-14.379a67.571,67.571,0,0,1,8.052-2.243c1.306-.3,2.645-.552,3.967-.753.536-.1,1.038-.168,1.557-.234.854-.134,1.707-.251,2.578-.335.084-.017.167-.017.251-.034,1-.1,2.008-.217,3-.284a21.336,21.336,0,0,1,1.423,1.891c-8.252-1.724-16.555,5.106-18.447,13.191-1.874,8.068,1.356,16.588,6.311,23.3,4.955,6.7,11.517,12.069,17.459,17.945,5.926,5.909,11.416,12.688,13.341,20.756,2.477,10.378-1.272,21.058-4,31.369A172.5,172.5,0,0,0,253.8,671.757c9.073,17.727,21.175,33.8,30.315,51.489C293.072,740.605,293.876,754.649,290.026,773.547Z" fill="#dca87f"/><path d="M347.658,449.3v.016c0,.051-.016.067-.016.118v.016c-.436,2.193-.854,4.336-1.256,6.545a1.385,1.385,0,0,0-.067.3c-1.573,8.3-3.1,16.638-4.519,24.991-3.331,19.97-5.892,40.559-6.043,61.031v.318c-.084,18.8,1.875,37.5,7.265,55.574v.016c.15.452.285.921.418,1.39a2.828,2.828,0,0,1,.1,1.473v.033a2.642,2.642,0,0,1-1.657,1.875,2.944,2.944,0,0,1-4.152-1.774c-.519-1.708-1.021-3.365-1.473-5.089-.485-1.724-.921-3.5-1.306-5.273a.063.063,0,0,1-.016-.05,178,178,0,0,1-3.75-21.895,222.528,222.528,0,0,1-1.339-24.707V542.6c.1-30.264,5.49-60.428,11.148-90.14a.865.865,0,0,0,.051-.2c.418-2.244.87-4.487,1.289-6.746v-.084c.1.084.217.167.334.251a3.919,3.919,0,0,1,.318.251c.235.151.452.318.67.486.418.318.87.652,1.305.97a.394.394,0,0,0,.118.067c.836.637,1.673,1.222,2.561,1.808C347.642,449.261,347.658,449.261,347.658,449.3Z" fill="#00008b"/><path d="M658.651,697.447c-.841-.666-1.682-1.332-2.489-2.05" fill="none"/><path d="M574.356,609.559c-.543-.473-1.069-.929-1.577-1.419-.211-.176-.421-.368-.614-.561" fill="none"/><path d="M656.145,695.4a89.578,89.578,0,0,1-9.709-9.762" fill="none"/><path d="M840.675,758.549c-.118-1.339-.268-2.712-.486-4.051-.033-.3-.084-.6-.134-.9-.083-.67-.218-1.307-.335-1.976a59.646,59.646,0,0,0-1.807-7.248c-.251-.786-.5-1.574-.787-2.36a50.294,50.294,0,0,0-7.031-13.14c-7.315-9.743-19.451-16.723-31.787-16.354a1.786,1.786,0,0,1-2.946.217,30.765,30.765,0,0,0-5.758,1.323,30.2,30.2,0,0,0-18.3,39.755c.8,2.075-2.594,2.979-3.4.92-.033-.1-.084-.166-.1-.25a1.648,1.648,0,0,1-.317.05c-.671.034-1.356.1-2.043.15-4.319.335-8.638.67-12.956.971-1.607.1-3.214.218-4.821.3-.351.051-.669.067-1,.085-10.462.635-20.941,1.087-31.437.971-.87.016-1.741,0-2.627-.018-30.917-.519-60.713-7.432-89.923-17.124-1.891-.619-3.782-1.272-5.675-1.941-1.021-.368-2.041-.738-3.079-1.105-1.792-.653-3.582-1.323-5.34-2.009q-4.192-1.606-8.336-3.348-4.118-1.757-8.185-3.632c-.9-.4-1.791-.837-2.7-1.256-2.678-1.3-5.34-2.627-7.984-4.017-.888-.452-1.741-.921-2.612-1.406-1.741-.937-3.448-1.925-5.172-2.93-.854-.484-1.708-.97-2.545-1.506-2.662-1.607-5.289-3.264-7.884-5-1.506-1.037-3.013-2.076-4.5-3.13-1.423-1.021-2.829-2.076-4.218-3.13-2.544-1.959-5.039-3.968-7.465-6.061-1.456-1.237-2.88-2.526-4.3-3.815a.519.519,0,0,0-.151-.168c-.737-.685-1.474-1.356-2.193-2.058l-2.126-2.076c-1.992-2.009,1.138-5.122,3.164-3.1l1.037,1.054c.252.218.486.452.721.67,6.628-4.469,18.211,5.791,23.853,9.19,56.244,33.83,122.479,49.3,187.193,43.705,4-.351,8.955-.15,11.567,2.478a33.707,33.707,0,0,1,25.878-35.421c.418-.083.853-.166,1.289-.25-6.01-6.027-16.02-6.345-23.384-1.942-9.727,5.859-13.459,17.159-13.359,27.887.034,2.21-3.5,2.21-3.515,0a42.778,42.778,0,0,1,2.746-15.751,231.3,231.3,0,0,1-42.785-4.821,236.035,236.035,0,0,1-56.462-19.584h-.016A221.979,221.979,0,0,1,635.5,683.81a179.744,179.744,0,0,1-65.416-72.2,38.027,38.027,0,0,1-9.81,2.477,40.586,40.586,0,0,1-23.953-4.7,2.2,2.2,0,0,1-.469,1.591,89.048,89.048,0,0,1-32.791,27.317c-22.984,11.2-49.884,12.739-73.585,2.913a87.258,87.258,0,0,1-10.43-5.122c-.686-.368-1.355-.77-1.992-1.171-.668-.386-1.321-.8-1.974-1.206-1.289-.82-2.578-1.707-3.833-2.594-.637-.452-1.24-.888-1.858-1.373-1.574-1.171-3.1-2.393-4.587-3.682-.569-.47-1.1-.938-1.657-1.423-2.009-1.808-3.951-3.7-5.809-5.709-.5-.519-.987-1.054-1.473-1.623a88.994,88.994,0,0,1-7.047-9.023c-.435-.635-.854-1.272-1.272-1.908-.52-.786-1.022-1.607-1.49-2.427-.335-.5-.636-1.037-.938-1.574-.754-1.305-1.473-2.644-2.159-4-.334-.653-.67-1.323-.971-2.009-.3-.636-.586-1.256-.87-1.891-.251-.569-.5-1.155-.753-1.741-.033-.1-.084-.184-.118-.3-.334-.8-.669-1.623-.971-2.426-1.205-3.181,3.934-4.5,5.1-1.39.1.235.185.452.27.669,5.054-2.009,9.807,1.407,13.809,5.022,10.913,10.01,22.313,19.049,35.872,25.393a97.782,97.782,0,0,0,23.451,7.717c20.973,4.034,43.906.234,60.864-12.538,2.828-2.158,5.573-4.62,7.164-7.783a11.446,11.446,0,0,0,1.238-4.788c-.15-.15-.268-.284-.418-.419a2.4,2.4,0,0,1-.67-2.191.353.353,0,0,1,.084-.252,1.09,1.09,0,0,1,.133-.385,1.308,1.308,0,0,1,.184-.368c.051-.067.1-.117.135-.168a10.024,10.024,0,0,0-.771-1.523c3.449-2.176,7.55,1.273,10.815,3.666a25.288,25.288,0,0,0,29.159.05c2.46-1.857,4.6-4.185,7.4-5.54a8.6,8.6,0,0,1,6.512-.553,10.833,10.833,0,0,0-.184-2.025,38.264,38.264,0,0,1-32.072-5.926c-2.729-1.958-.085-6.5,2.679-4.519a33.241,33.241,0,0,0,27.35,5.591c4.5-1.122,9.274-3.3,11.434-7.634,1.741-3.582.752-8.068-2.98-9.491a24.659,24.659,0,0,1-15.083,5.959c-8.2.386-15.968-3.313-21.693-8.871-2.428-2.36,1.323-6.043,3.733-3.683,6.378,6.211,15.8,9.391,24.439,5.926a17.9,17.9,0,0,0,5.591-3.683c0-.016,0-.016.034-.016a2.386,2.386,0,0,1,.653-.653c3.833-3.95,6.126-9.508,2.861-14.161-9.91-14.262-32.44-12.086-46.417-6.077-7.9,3.4-15.115,8.169-22.966,11.734-7.783,3.482-14.932,8.1-22.514,11.9-26.179,12.99-59.022,9.508-82.039-8.152-2.677-2.076,1.105-5.759,3.766-3.716,14.447,11.115,33.329,15.885,51.473,14.144a68.981,68.981,0,0,0,22.916-6.21c8.588-4.051,16.522-9.257,25.176-13.123,8.37-3.749,15.952-9.023,24.539-12.3a62.741,62.741,0,0,1,10.295-2.979c-.268-4.419-.384-8.822-.384-13.224,0-2.528,3.949-2.528,3.949,0,0,4.2.117,8.42.4,12.621a52.323,52.323,0,0,1,13.04-.1c8.017.971,15.818,4.285,21.292,10.294a15.56,15.56,0,0,1,3.482,5.826c1.506.284,2.979.519,4.486.769,1.021.168,2.009.3,3.013.452,2.259.336,4.553.636,6.813.921l2.21.252c1.355.166,2.745.318,4.117.418,1.206.117,2.377.218,3.565.3.9.1,1.774.167,2.662.2,3.163.217,6.31.351,9.475.435.368,0,.752.033,1.105,0,1.773.084,3.565.084,5.355.084h.6c.852-.034,1.723-.034,2.56-.034,2.444-.067,4.838-.134,7.249-.268,1.238-.083,2.51-.15,3.749-.233q1.882-.126,3.766-.3c2.511-.234,4.988-.5,7.482-.837,1.239-.15,2.511-.352,3.75-.519A184.207,184.207,0,0,0,719.9,535.836c16.085-8.2,31.5-19.468,40.307-35.454,5.758-10.411,8.219-21.643,4.653-33.193-3.2-10.446-10.193-19.534-18.58-26.532-7.633-6.327-22.581-16.739-32.624-9.859-2.98,2.076-3.482,4.788-2.561,7.4a2.329,2.329,0,0,1,1.255,2.393,12.72,12.72,0,0,0,1.589,1.925,14.828,14.828,0,0,0,10.413,4.218c3.4.034,3.4,5.24,0,5.189-6.026-.033-13.659-3.765-17.208-9.239a9.509,9.509,0,0,0-7.5,2.828,7.146,7.146,0,0,0-1.188,7.969c2.946,6.846,11.333,8.436,17.894,9.759a2.663,2.663,0,0,1,1.842,3.23,2.7,2.7,0,0,1-3.231,1.808,52,52,0,0,1-12.287-3.666,19.568,19.568,0,0,1-4.636-3.1,2.623,2.623,0,0,1-1.289.268c-3.231-.067-7.181-.284-9.843,1.875-3.146,2.594-1.339,5.959.787,8.553a33.793,33.793,0,0,0,13.876,9.709c11.8,4.737,27.369,6.059,36.893-3.767,2.362-2.426,6.094,1.256,3.75,3.683-12.235,12.605-33.177,10.328-47.522,2.612a42.978,42.978,0,0,1-5.339-3.348,2.414,2.414,0,0,1-1.222,1.69,107.607,107.607,0,0,1-34.55,13.509c-1.356.268-2.745.536-4.117.753-.336.067-.687.134-1.006.185-1.1.183-2.208.334-3.313.484-.4.067-.822.118-1.24.168-1.289.168-2.578.3-3.866.436-.1,0-.184.016-.268.016-1.456.151-2.929.234-4.368.3a16.391,16.391,0,0,1-1.808.1c-.837.034-1.657.084-2.477.1-.921.016-1.842.033-2.747.033-31.613.114-62.2-11.144-89.713-26.268a34.35,34.35,0,0,0-4.122-3.681c-5.858-4.42-9.375-4.26-14.9-7.869a18.58,18.58,0,0,0-.979-7.947c-6.5-18.015-11.217-47.464-32.838-52.809a34.16,34.16,0,0,0-15.524-.141,171.85,171.85,0,0,0-23.805-18.038c-12.424-7.8-27.5-16.043-42.4-16.683-13.719-.589-23.862,6.982-28.554,17.592A143.627,143.627,0,0,0,346.3,456.388c-1.566,8.27-3.084,16.574-4.5,24.9-3.331,19.97-5.892,40.559-6.044,61.031v.318c.085,17.978,2.244,35.838,7.684,53.1a2.475,2.475,0,0,1-.419,2.478v.016c.152.452.285.921.419,1.389a2.819,2.819,0,0,1,.1,1.473v.034a1.641,1.641,0,0,1,.167.185c.217.233.385.468.568.7.235.318.486.636.738.938l.033.033c1.021,1.3,2.042,2.645,3.047,3.967,1.691,2.226,3.347,4.487,4.937,6.763.72,1,1.44,2.025,2.127,3.047,1.406,2.008,2.744,4.033,4.085,6.109,1.137,1.741,2.242,3.482,3.33,5.257.787,1.271,1.557,2.56,2.31,3.833,0,0,.017,0,.017.016.436.317.841.63,1.268.945-.009.023-.026.043-.035.066a3.656,3.656,0,0,0,1.429,4.245,7.637,7.637,0,0,0,.281,1.66,6.274,6.274,0,0,0,4.2,4.475,2.4,2.4,0,0,0,.749.075c1.156,1.731,2.239,3.508,3.28,5.31a10.064,10.064,0,0,0,2.386,4.09,2.446,2.446,0,0,0,.312.222c.329.845.668,1.688,1.033,2.522a.988.988,0,0,0,.623.5c-.013,1.123-.066,2.245-.066,3.369a1.087,1.087,0,0,0,.863,1.136c-3.8,14.8,3.605,32.911,22.28,34.612,5.528,7.644,11.184,15.261,17.13,22.623,1.962,4.375,3.747,8.545,5.422,11.686,4.28,8.026,10.628,12.07,17.38,13.161a149.1,149.1,0,0,0,29.3,21.7c15.761,8.767,33.327,12.729,49.917,19.474,18.236,7.413,35.924,13.54,55.147,17.947,8.662,1.986,16.047.049,21.691-4.047,77.276,16.016,145.564,5.85,166.482,1.948.11.185.2.382.314.565,4.045,6.274,9.268,9.73,16.187,12.448,11.737,4.609,28.012-1.226,35.515-11.123.813-.364,1.622-.757,2.424-1.118a30.748,30.748,0,0,0,11.36-8.3c4.057-5.032,7.054-9.962,7.767-16.243.363-.161.743-.326,1.1-.484.05-.553.1-1.088.134-1.641.067-.92.116-1.841.167-2.778.067-1.456.1-2.93.1-4.4C841.043,763.939,840.925,761.244,840.675,758.549Z" fill="#ffee76"/><path d="M567.881,306.87c1.976,6.78,3.917,13.559,5.909,20.322,4.888-10.545,11.818-18.932,17.944-27.787,7-10.093,7.4-21.124-.117-29.829a28.762,28.762,0,0,0-10.512-7.2,114.2,114.2,0,0,1-25.443-14.329c-3.516-2.629-7.684-4.335-11.483-6.579a127.516,127.516,0,0,1-11.282-6.83c-3.75-2.711-7.2-4.067-11.4-1.289-3.164,2.126-6.561,1.273-9.993.185-3.967-1.239-8.018-3.03-12.019-3.565a26.88,26.88,0,0,0-3.665-.5c-.57-.05-1.156-.067-1.792-.067-1.623,0-2.829.151-3.18.151-19.083.736-29.813-2.545-39.253-5.474-8.035-2.46-14.982-4.6-25.494-3.8-5.674.451-8.888,1.473-13.793,3.013-2.076.653-4.4,1.372-7.282,2.193-4.519,1.238-8.3,2.193-24,5.105-1.54.268-3.047.569-4.486.82l-1.473.285c-.017-.017-.034,0-.051,0a78.982,78.982,0,0,0-8.369,1.557c-.854.184-1.674.384-2.511.6a34.193,34.193,0,0,0-11.567,5.926c-5.038,3.8-10.261,5.59-16.437,4.586-3.064-.5-6.06-.016-7.717,2.728-5.926,9.743-15.149,15.9-23.435,23.051-5.356,4.619-10.813,9.139-15.9,14.043-9.006,8.755-9.407,21.56-1.507,31.487,2.913,3.682,5.24,7.8,8.119,11.482,3.415,4.4,7.148,8.555,11.165,13.342,1.49-8.989,2.829-17.041,4.134-25.093l1-.033c.117,2.444.82,5.039.3,7.282-2.26,9.725-2.511,19.551-2.31,29.477.05,2.427-1.021,4.855-1,7.3.017,1.489.87,4.05,1.774,4.268,1.406.351,4.017-.385,4.6-1.524a29.47,29.47,0,0,0,3.565-10.16c1.49-13.676,2.946-27.369,3.6-41.094.737-15.434,3.75-29.7,13.476-42.066,3.85-4.888,6.277-10.964,9.507-16.755-.15,1.405.067,3.029-.485,4.285-1.841,4.151-3.482,8.52-6.009,12.2A79.918,79.918,0,0,0,328.3,290.8c-.134.452-.268.886-.4,1.338h.017a90.02,90.02,0,0,0-3.382,22.33c-.016.937-.067,1.892-.05,2.846a346.813,346.813,0,0,1-2.226,34.851c-.452,4.218-2.745,8.353-4.771,12.236a5.987,5.987,0,0,1-2.042,2.059,13.689,13.689,0,0,1-2.8,1.406c0,.084.016.184.016.285-.2,2.661-.468,5.339-.7,7.984C311,386.984,310,398.2,311.07,409.146a65.231,65.231,0,0,0,1.507,8.922c.05.285.117.57.184.821a64.706,64.706,0,0,0,7.733,18.3c.251.4.5.787.77,1.206q1.255,1.933,2.662,3.816c.218.3.435.586.652.87.268.369.553.738.871,1.106.385.485.8.971,1.2,1.456.218.268.435.535.67.786.954,1.122,1.942,2.177,3,3.248.151.151.318.318.469.485.569.553,1.155,1.139,1.774,1.707.469.436.971.888,1.456,1.34a1.035,1.035,0,0,1,.2.184c.536.469,1.072.937,1.624,1.406.033.017.05.017.067.033.368.335.77.67,1.155.971.3.251.619.5.937.754a1.84,1.84,0,0,1,.285.234c.335.234.653.485.988.736,1.941,1.49,3.95,2.863,6.026,4.169.351.2.669.4,1,.6.854.536,1.707,1.038,2.561,1.523l.853.452q1.456.8,2.963,1.557c.369.184.754.368,1.139.569.083.034.167.067.268.1.368.2.786.368,1.188.569.87.4,1.741.787,2.628,1.155.452.167.887.368,1.339.519,1.088.469,2.176.887,3.3,1.272.469.151.937.334,1.439.485.369.134.7.234,1.1.369.753.25,1.523.5,2.293.7.452.152.921.269,1.373.4.469.134.937.25,1.389.367.452.1.938.235,1.39.353.4.1.82.184,1.222.267a2.8,2.8,0,0,0,.4.1c.352.067.737.168,1.105.218.938.2,1.892.368,2.846.552l.9.151c1.339.2,2.695.386,4.034.552q.779.077,1.506.151c.235,0,.452.034.67.05.4.034.753.084,1.138.084.335.033.636.05.954.067a12.506,12.506,0,0,0,1.574.067.25.25,0,0,0,.15.033c.636,0,1.256.034,1.892.034h.167c.536.033,1.072.033,1.624.033.636-.016,1.272-.016,1.925-.05l.1-.017c.687,0,1.39-.033,2.076-.067l.469-.033a26.85,26.85,0,0,1-3.783-10.847,1.9,1.9,0,1,1,3.766-.5c.033.3.084.586.134.9.017.184.067.368.1.552.083.469.2.954.3,1.406a4.826,4.826,0,0,1,.151.569c.116.419.25.854.4,1.256.067.218.167.469.251.7a.35.35,0,0,0,.084.2c.084.251.184.452.268.653a11.027,11.027,0,0,0,.552,1.188,6.425,6.425,0,0,0,.352.669,15.321,15.321,0,0,0,1.289,2.026,5.378,5.378,0,0,0,.468.619,11.075,11.075,0,0,0,.8.971,3.558,3.558,0,0,0,.418.452c.034.034.067.084.117.134a5.334,5.334,0,0,0,.536.519c.251.251.536.5.787.737.167.15.318.284.485.418l.486.385c.234.168.468.335.72.519a2.639,2.639,0,0,0,.418.285c.117.083.251.166.368.251a28.258,28.258,0,0,0,2.863,1.64c.251.1.485.217.736.318.268.134.5.235.753.335.3.133.553.251.854.352a6.587,6.587,0,0,0,.787.3c.268.1.519.184.8.267a3,3,0,0,0,.62.218,1.622,1.622,0,0,0,.217.067c10.713,2.929,23.418,2.544,24.155,2.528,6.98-.268,13.073-.469,18.379-.787h.034c.6-.05,1.188-.1,1.757-.168.938-.083,1.892-.15,2.829-.284,1.038-.1,2.059-.218,3.08-.352.519-.067,1.021-.117,1.54-.184.5-.084,1-.151,1.54-.251.5-.05,1.021-.134,1.523-.217s1-.185,1.524-.268c.451-.067.887-.15,1.355-.235.352-.067.72-.167,1.072-.234a8.48,8.48,0,0,0,.987-.2c.385-.084.771-.167,1.122-.268.368-.049.736-.151,1.088-.234.6-.168,1.155-.318,1.741-.452a12,12,0,0,0,1.305-.4l.184-.034c.336-.1.67-.218,1-.335.117-.016.2-.05.3-.067.017-.016.05-.016.067-.034.553-.183,1.072-.367,1.624-.568.519-.2,1.055-.4,1.573-.6,1.122-.485,2.21-.988,3.248-1.54a9.09,9.09,0,0,0,1.121-.619,25.687,25.687,0,0,0,2.913-1.892c.134-.117.284-.2.418-.335.251-.184.486-.385.72-.569v-.084a2.02,2.02,0,0,1,.871-1.389,1.453,1.453,0,0,1,.887-.3l.134-.017c3.431-3.632,5.49-8.4,5.524-14.663a1.9,1.9,0,0,1,1.908-1.925,1.936,1.936,0,0,1,1.891,1.958A26.183,26.183,0,0,1,500,469.558q-.552.9-1.155,1.757c.385-.049.77-.1,1.155-.15h.1a102.118,102.118,0,0,0,15.366-3.7,71.729,71.729,0,0,0,23.954-14.647c1.573-1.423,3.1-2.946,4.553-4.536a75.387,75.387,0,0,0,5.524-6.746,6.39,6.39,0,0,0,.5-.67c.8-1.105,1.54-2.209,2.259-3.348q.277-.377.5-.753,2.21-3.54,4.151-7.365c13.04-26.18,9.223-57.281,5.875-84.716-.184-1.473-.368-2.963-.552-4.453-.033-.235-.05-.486-.1-.72a46.156,46.156,0,0,1-10.965-15.684c-3.5-7.817-6.611-15.819-9.44-23.9q-1.156-3.365-2.26-6.729c-.352-.988-.67-2.009-1-3.013-1.172-3.616-2.461-7.148-3.934-10.529a77.441,77.441,0,0,0-3.934-7.918c-.05-.1-.134-.234-.184-.351-.368-.6-.736-1.222-1.121-1.841a57.494,57.494,0,0,0-10.278-12.337c-3.214-2.9-5.19-7.365-7.332-11.349-.7-1.305-.218-3.281.5-5.189.318.351.854.669.971,1.121,1.49,5.306,4.871,9.307,8.621,13.073,9.156,9.24,14.395,20.774,18.748,32.843.033.1.067.217.1.3,1.171,3.248,2.31,6.511,3.448,9.792,2.712,7.734,5.424,15.484,8.52,23.05a40.491,40.491,0,0,0,15.25,18.932c2.527,1.64,5.507,2.6,8.654,4.034.9-4.721-.988-7.8-2.662-10.813-3.331-6.11-6.863-12.1-7.4-19.267a56.572,56.572,0,0,1,.2-6.73C567.044,306.955,567.463,306.9,567.881,306.87Z" fill="#ffee76"/><path d="M479.837,381.3c-2.275,14.533-20.545,22.083-24.192,23.447q1.224,6.863,2.45,13.724l.416,3.53-1.475.137-4.959.459-.4-3.611q-1.025-6.771-2.048-13.544a36.043,36.043,0,0,1-12.2-5.941,30.877,30.877,0,0,1-10.669-13.544c-1.133-2.932-3.066-7.8-.6-12.044,2.835-4.885,9.944-6.14,16.8-7.349,18.856-3.363,30.732-1.845,35.28,4.516C480.855,374.761,480.2,379.006,479.837,381.3Z" fill="#00008b"/><path d="M512.772,419.579a64.35,64.35,0,0,1-22.205,18.727,72.985,72.985,0,0,1-7.5,3.388c-.054-.546-.083-1.091-.188-1.617-.343-2-.757-3.979-1.2-5.939a52.683,52.683,0,0,0-2.123-6.887,53.912,53.912,0,0,0,23.644-2.867A47.932,47.932,0,0,0,512.772,419.579Z" fill="#00008b"/><path d="M517.965,414.5l-6.21,4.035a.632.632,0,0,1-.2.116,47.144,47.144,0,0,1-9.056,4.52,51.516,51.516,0,0,1-22.765,2.745l-.753-.067-1.724-.167.518,1.372.235.569a61.809,61.809,0,0,1,2.076,6.729c.418,1.959.837,3.917,1.188,5.926.034.185.034.385.067.586.034.168.034.352.067.536l.218,2.309v.035l.987-.4a4.627,4.627,0,0,1,.5-.2h.033c.217-.083.419-.166.619-.25a71.988,71.988,0,0,0,7.7-3.465,66.038,66.038,0,0,0,22.715-19.167h.017a1.138,1.138,0,0,0,.184-.3l2.561-3.432.017-.018,1.941-2.627Zm-33.511,25.126c-.352-1.926-.737-3.833-1.172-5.742a50.58,50.58,0,0,0-1.456-5.138,54.916,54.916,0,0,0,22.062-3.148c.92-.351,1.841-.736,2.779-1.121A65.16,65.16,0,0,1,489.676,437.2C488,438.055,486.245,438.875,484.454,439.629Z" fill="#00008b"/><path d="M423.04,442.922a78.723,78.723,0,0,1-10.724-4.348,69.518,69.518,0,0,1-22.7-17.666,70.117,70.117,0,0,0,30.6,9.125A70.868,70.868,0,0,0,423.04,442.922Z" fill="#00008b"/><path d="M425.281,444.7l-.653-2.11a5.18,5.18,0,0,1-.184-.636,68.726,68.726,0,0,1-2.578-11.834c0-.084-.017-.134-.017-.218l-.15-1.122-1.39-.1h-.267a67.753,67.753,0,0,1-29.227-8.721c-.1-.051-.167-.1-.284-.152l-6.378-3.565-.8-.452,2.26,2.7.034.033,1.74,2.076a13.706,13.706,0,0,0,.888,1.071,71,71,0,0,0,23.2,18.045,80.706,80.706,0,0,0,10.931,4.436c.017,0,.017.017.033.017l1.122.352v.016l.016.016h.068l1.355.436.435.134Zm-4.587-4.051a75.5,75.5,0,0,1-7.549-3.215,68.785,68.785,0,0,1-16.94-11.733,69.272,69.272,0,0,0,22.531,5.574A67.05,67.05,0,0,0,420.694,440.65Z" fill="#00008b"/><path d="M538.42,368.755c-.016.737-.05,1.473-.134,2.209,0,.185-.033.352-.05.537a67.357,67.357,0,0,1-5.272,23.384,56.842,56.842,0,0,1-16,21.626l-.017.018a2.472,2.472,0,0,1-.351.284l-.034.033a44.974,44.974,0,0,1-3.766,2.729c0,.017,0,.017-.017.017a.016.016,0,0,1-.017.016h-.016c-.369.218-.7.436-1.072.67-.368.218-.753.452-1.138.67a6.366,6.366,0,0,1-.569.318c-.2.117-.385.234-.569.334l-.6.3c-.2.1-.4.2-.586.3-.284.167-.6.3-.887.435-.469.235-.954.452-1.423.653-.167.067-.318.151-.469.2-.3.133-.6.251-.937.385-.435.184-.853.352-1.289.5-1.222.452-2.477.854-3.716,1.206-.083.016-.184.049-.268.067-.468.133-.92.251-1.389.351-.352.1-.72.184-1.071.267-.318.067-.653.134-.971.185l-.251.05c-.268.067-.536.117-.8.167l-.3.05H494.4c-.653.118-1.289.219-1.942.3-.385.051-.754.1-1.138.134-.235.034-.469.067-.7.083-.285.034-.586.051-.871.085h-.134c-.067,0-.117.016-.184.016-.686.05-1.373.1-2.059.117q-1.105.051-2.209.05h-.2c-.72,0-1.457-.016-2.176-.05-.1,0-.184-.017-.285-.017a8.651,8.651,0,0,1-.937-.05c-.318-.017-.636-.033-.954-.066-.352-.018-.687-.051-1.038-.085h-.017c-.586-.049-1.189-.1-1.775-.184-1-.116-2.025-.268-3.029-.468-.235-.034-.469-.067-.686-.1-.235-.034-.452-.085-.67-.134-.452-.085-.887-.168-1.356-.269-.519-.1-1.021-.217-1.54-.334-.485-.118-.971-.234-1.456-.368-.218-.05-.436-.1-.636-.168a4.572,4.572,0,0,1-.519-.134c-.536-.15-1.055-.284-1.574-.452-.4-.117-.77-.234-1.154-.368-.386-.117-.754-.251-1.139-.385-.5-.167-.987-.318-1.473-.5-.184-.067-.385-.134-.569-.218-.67-.234-1.339-.5-2.009-.787-.151-.05-.3-.117-.452-.184-.8-.334-1.623-.686-2.427-1.071-.268.151-.552.3-.77.435-.552.285-1.055.6-1.59.9h-.017c-.184.084-.368.184-.535.268-.1.05-.218.117-.335.168-.519.284-1.055.535-1.591.786a58.421,58.421,0,0,1-5.657,2.394c-.318.117-.636.234-.938.352l-1.255.4c-.887.3-1.775.569-2.678.8-.62.168-1.256.335-1.875.486-.686.184-1.389.351-2.093.5-.686.151-1.372.285-2.075.419-.469.083-.921.167-1.39.234q-.7.126-1.405.2l-.754.1c-.217.034-.452.067-.669.1-1.055.117-2.076.217-3.114.3-.285.017-.586.05-.87.05-.235.017-.469.034-.7.034-.184.016-.352.033-.519.033-.352.017-.7.034-1.038.034h-.62c-.953.033-1.824.016-2.728,0-.535-.017-1.088-.067-1.64-.1-.686-.033-1.373-.083-2.059-.134s-1.373-.117-2.042-.2c-.034,0-.084-.016-.118-.016a2.211,2.211,0,0,0-.334-.034c-.067,0-.118-.017-.185-.017-.049-.016-.116-.016-.167-.033H415.3a.4.4,0,0,1-.134-.034l-.284-.033c-.418-.05-.82-.117-1.222-.167l-.284-.051c-.436-.067-.888-.133-1.323-.217-.1-.017-.184-.034-.268-.05a1.263,1.263,0,0,0-.251-.034c-.134-.033-.251-.05-.368-.084-.117-.016-.235-.05-.352-.067a2.813,2.813,0,0,0-.4-.083c-.2-.034-.4-.083-.586-.118s-.368-.083-.553-.133c-.5-.118-.954-.218-1.439-.335-.452-.117-.9-.218-1.356-.352-.469-.116-.9-.251-1.356-.385a.223.223,0,0,1-.1-.016c-.049-.017-.083-.034-.133-.051l-.854-.251c-.418-.116-.82-.25-1.222-.384-.084-.034-.151-.051-.234-.084a.3.3,0,0,1-.117-.034l-.151-.05c-.837-.284-1.64-.569-2.461-.887-.837-.319-1.69-.67-2.527-1-.017,0-.017-.018-.034-.018-.469-.183-.9-.4-1.356-.585-.084-.05-.184-.084-.251-.117a6.451,6.451,0,0,1-.77-.352,1.745,1.745,0,0,1-.318-.134,2.48,2.48,0,0,1-.3-.15c-.536-.235-1.055-.519-1.574-.77-.452-.235-.9-.469-1.372-.7-.586-.3-1.138-.62-1.724-.938h-.017V420.9c-1.272-.7-2.478-1.422-3.666-2.176,0,0-.017,0-.017-.016a.837.837,0,0,1-.284-.185l-.034-.033a86.673,86.673,0,0,1-30.264-33.244c-.251-.469-.486-.937-.72-1.423s-.452-.971-.653-1.473c-1.037-2.293,1.775-3.649,4.035-3.163a1.51,1.51,0,0,0-.888.469c-.016.032-.05.1.067.385a30.094,30.094,0,0,0,1.289,2.778c.017.017.017.05.033.067A83.762,83.762,0,0,0,387.5,415.39l.117.1.921.6c.87.552,1.791,1.089,2.8,1.657l.486.285c.4.234.786.452,1.138.636.3.151.6.319.887.469l.787.4c.385.2.769.4,1.238.619.168.084.319.167.57.284.217.1.418.2.619.285a2.063,2.063,0,0,1,.334.134l.988.452h.335l.251.251c.72.3,1.456.6,2.193.887.77.3,1.54.586,2.276.837l.2.067c.8.267,1.607.536,2.444.787l.167.033.051.033c.82.235,1.64.452,2.46.67l1.959.469c.117.034.268.051.519.1l1,.217.586.1c.4.083.8.134,1.189.2l1.841.268.117.032c.2.018.368.034.552.067l.117.018c1.105.116,2.193.217,3.231.267.234.017.452.034.686.05.285.017,1.356.1,1.608.1.485.016.97.016,1.473.016.2,0,.4,0,.6-.016.167.016.335,0,.5,0h.636c.452-.017.9-.017,1.473-.067.486,0,.971-.05,1.457-.084,1.188-.084,2.393-.2,3.632-.384.669-.085,1.356-.168,2.059-.3.351-.051.72-.117,1.088-.184l.234-.05c1.306-.235,2.629-.52,3.968-.887,1.289-.318,2.444-.637,3.548-.988.67-.218,1.339-.452,1.959-.653l.435-.167c.452-.168.9-.335,1.372-.519.7-.268,1.39-.553,2.11-.871.452-.184.887-.385,1.356-.619.719-.335,1.439-.686,2.209-1.088.2-.1.4-.218.619-.335.1-.05.218-.1.335-.167l.218-.118c.251-.134.485-.268.736-.418a4.045,4.045,0,0,1,.369-.218c.15-.083.267-.15.385-.217.15-.084.317-.185.5-.284l1.021-.586.77.367c.77.369,1.54.7,2.427,1.072a2.62,2.62,0,0,0,.368.167c.6.251,1.222.5,1.925.77,0,0,.435.168.5.184.452.168.9.335,1.423.5.352.133.7.251,1.071.368l1.105.368c.653.2,1.289.385,2.009.569q.954.276,1.958.5c.486.118.971.235,1.49.335.452.1.871.184,1.289.268.385.084.77.134,1.239.218.033,0,.067.016.1.016.938.2,1.925.335,2.863.453.384.066.787.1,1.138.133.134.017.251.017.368.034l.184.017c1.758.167,3.532.251,5.256.251a49.286,49.286,0,0,0,5.24-.268c1.238-.117,2.527-.3,3.9-.553a44.64,44.64,0,0,0,4.486-1.037c1.306-.385,2.444-.771,3.549-1.189.4-.134.77-.285,1.188-.469l.887-.368.72-.335c.352-.15.7-.318,1.105-.5.234-.117.485-.234.8-.4l1.071-.568.452-.251c.585-.352,1.171-.687,1.69-1.022l.318-.2,1.155-.753c1.072-.736,2.143-1.523,3.181-2.377l.15-.117.235-.2a55.159,55.159,0,0,0,15.182-20.991,66.408,66.408,0,0,0,4.9-21.242c.066-.552.1-1.122.133-1.69.1-.854.151-1.708.168-2.578a.559.559,0,0,0-.15-.435.991.991,0,0,0-.386-.235C535.859,365.792,538.471,366.579,538.42,368.755Z" fill="#00008b"/><path d="M360.376,380.434a1.6,1.6,0,0,1-.25,1.056,3.724,3.724,0,0,1-.245.429,2.135,2.135,0,0,1-.444.442,2.726,2.726,0,0,1-1.041.571,4.81,4.81,0,0,1-.739.2,3.586,3.586,0,0,1-1.416.661.489.489,0,0,1-.178.014c-.221.046-.465.05-.7.075a3.959,3.959,0,0,1-1.676-.365A5.759,5.759,0,0,1,353,383.1a2.205,2.205,0,0,1-.689-.86,1.785,1.785,0,0,1-.294-1.047,1.7,1.7,0,0,1,.284-1.035,1.934,1.934,0,0,1,.654-.893,7.173,7.173,0,0,1,1.038-.687,3.462,3.462,0,0,1,.439-.241,11.183,11.183,0,0,1,1.266-.425,1.7,1.7,0,0,1,.233-.035.529.529,0,0,1,.121-.024c.332-.058.665-.085,1.009-.123a4.214,4.214,0,0,1,1.665.377c.237.144.452.278.678.424a2.573,2.573,0,0,1,.864,1.186A5.386,5.386,0,0,1,360.376,380.434Z" fill="#00008b"/><path d="M540.26,368.28c-.029.271-.084.555-.114.8a2.331,2.331,0,0,1-.664,1.038,2.075,2.075,0,0,1-.738.578.6.6,0,0,1-.291.182,4.732,4.732,0,0,1-2.532.373h-.05c-.024,0-.036.012-.061.012a4.942,4.942,0,0,1-1.95,0c-.012,0-.012-.012-.024,0-.288-.137-.573-.191-.848-.317a3.431,3.431,0,0,1-1.335-1.05c-.13-.258-.272-.5-.377-.726a1.731,1.731,0,0,1-.081-1.213,1.952,1.952,0,0,1,.428-1.128,2.542,2.542,0,0,1,.94-.842,2.855,2.855,0,0,1,1.245-.528c.147-.026.307-.052.455-.067a13.319,13.319,0,0,1,1.4-.176,3.055,3.055,0,0,1,.457.027,8.227,8.227,0,0,1,1.4.154,3.894,3.894,0,0,1,1.649.763c.178.209.393.4.571.6A2.374,2.374,0,0,1,540.26,368.28Z" fill="#00008b"/><path d="M483.4,446.039a24.263,24.263,0,0,1-7.348,16.606c-10.814,10.9-30.984,10.093-42.5.2-4.988-4.3-7.148-10.7-9.24-16.186a14.348,14.348,0,0,1-.569-1.691.792.792,0,0,1-.084-.167c-.016-.067-.067-.185-.084-.252l-.016-.016v-.016c-.185-.553-.368-1.056-.519-1.591-.335-1.054-.636-2.126-.937-3.18-.168-.687-.352-1.372-.5-2.026a.743.743,0,0,1-.033-.183c-.117-.537-.234-1.038-.352-1.557a1.653,1.653,0,0,1-.067-.269c-.05-.284-.1-.552-.15-.819-.067-.285-.117-.57-.168-.837a1.488,1.488,0,0,0-.067-.3v-.1c-.05-.336-.117-.653-.167-.988-.017-.167-.05-.335-.084-.5s-.05-.335-.067-.5c-.067-.553-.15-1.105-.217-1.641-.051-.435-.134-.87-.184-1.338-.051-.687-.134-1.39-.168-2.06.234.017.452.034.686.05.285.017,1.356.1,1.608.1.485.016.97.016,1.473.016.2,0,.4,0,.6-.016.067,1.139.184,2.26.351,3.348v.016c.085.67.185,1.323.3,1.976.033.134.05.268.084.418,0,.067.016.117.016.184.017.1.034.218.05.335.017.067.034.151.051.235a5.9,5.9,0,0,0,.15.753c.051.284.1.569.151.836.05.285.117.553.184.837.05.218.117.452.168.687s.1.468.15.686c.034.134.067.251.1.386a2.584,2.584,0,0,0,.083.284c.017.05.017.117.034.167.033.167.084.318.117.5.218.854.452,1.708.737,2.561.1.335.2.653.3.971.084.335.2.653.3.971q.227.753.5,1.506c.168.452.318.888.486,1.34a.608.608,0,0,0,.083.184c.084.251.168.485.268.72.084.234.184.486.285.736.2.519.4,1.055.619,1.59.151.352.3.72.469,1.089.469,1.1.937,2.225,1.473,3.313.268.537.535,1.089.837,1.624.285.536.6,1.055.92,1.591.235.351.452.7.7,1.037a16.366,16.366,0,0,0,3.4,3.5c.217.168.435.334.669.5.452.335.921.636,1.406.937.235.151.469.285.72.419a31.345,31.345,0,0,0,3.532,1.741c.452.2.921.368,1.373.535.468.168.937.335,1.423.469.468.168.954.3,1.422.419h.017c.971.217,1.941.418,2.912.586.3.05.637.083.938.117a.489.489,0,0,1,.151.016c.485.051.987.1,1.489.118a1,1,0,0,0,.218.016q.8.051,1.607.051c.536,0,1.054-.017,1.59-.051s1.055-.067,1.574-.134c.317-.033.619-.083.937-.133.335-.034.636-.1.954-.151.084-.017.151-.034.218-.05a.584.584,0,0,0,.167-.034,2.56,2.56,0,0,0,.385-.084c.3-.067.619-.134.937-.217.519-.117,1.022-.268,1.524-.435.334-.118.669-.235,1-.369a9.125,9.125,0,0,0,.854-.334,5.024,5.024,0,0,0,.535-.218c.151-.084.3-.151.469-.235.168-.066.318-.15.469-.217.151-.084.3-.167.452-.234a26.522,26.522,0,0,0,2.611-1.658c.268-.2.536-.4.8-.619.318-.267.636-.535.937-.82.167-.151.335-.318.5-.485s.324-.325.486-.487c.284-.3.569-.6.836-.9.2-.217.385-.435.57-.653.167-.217.351-.435.519-.669a2.963,2.963,0,0,0,.385-.536c.184-.234.351-.485.519-.736a7.1,7.1,0,0,0,.4-.653c.117-.2.235-.4.351-.62a15.279,15.279,0,0,0,.837-1.674c.118-.284.252-.568.352-.87.118-.284.218-.569.318-.87a19.8,19.8,0,0,0,1.055-5.909.26.26,0,0,1,.016-.1v-.016c-.15-.9-.267-1.792-.385-2.695-.1-.67-.167-1.356-.251-2.026-.033-.268-.05-.519-.083-.77a6.069,6.069,0,0,0-.1-.753c-.034-.268-.051-.5-.1-.77-.033-.251-.067-.518-.1-.77-.017-.167-.051-.352-.084-.519l-.1-.552a3.244,3.244,0,0,0-.066-.386.515.515,0,0,0-.034-.15c-.067-.468-.167-.954-.268-1.439-.335-1.423-.736-2.863-1.2-4.269-.452-1.406-.971-2.812-1.54-4.2v-.016c-.251-.637-.536-1.29-.854-1.926a1.239,1.239,0,0,1,.151-1.405c.033,0,.067.016.1.016.938.2,1.925.335,2.863.453.384.066.787.1,1.138.133a18.741,18.741,0,0,1,.837,1.992c.2.485.385.937.569,1.389v.018c.117.3.218.568.318.853s.2.57.3.837c.2.569.385,1.138.569,1.707.185.586.335,1.172.5,1.741.15.586.3,1.139.435,1.741.151.636.284,1.272.418,1.909.034.167.067.334.118.519,0,.032.016.083.016.116a.059.059,0,0,0,.017.05,1.327,1.327,0,0,0,.05.369c.05.184.1.4.134.6.017.067.033.168.05.268.151.7.268,1.39.4,2.109.033.185.067.352.084.536v.067c0,.067.016.134.016.2a1.608,1.608,0,0,1,.034.4,3.915,3.915,0,0,0,.05.4v.017c.017.486.051.971.051,1.439h.033a22.222,22.222,0,0,0,.2,2.394.974.974,0,0,1,0,.536C483.382,446.039,483.4,446.039,483.4,446.039Z" fill="#00008b"/><path d="M479.064,445.912v.015a.2.2,0,0,0-.016.1,21.168,21.168,0,0,1-8.065,15.865,21.562,21.562,0,0,1-3.417,2.285c-.3.161-.614.322-.913.469a24.9,24.9,0,0,1-2.88,1.144,24.182,24.182,0,0,1-2.462.662c-.247.058-.511.1-.757.147-.634.118-1.268.221-1.9.3-.511.059-1.039.1-1.568.134s-1.057.046-1.586.047a29.89,29.89,0,0,1-4.412-.329c-.971-.145-1.943-.348-2.915-.58-.954-.247-1.909-.538-2.847-.872-.46-.175-.92-.349-1.381-.539-3.877-1.63-7.549-3.976-9.73-7.1a42.441,42.441,0,0,1-4.385-8.672c-.217-.526-.434-1.051-.633-1.577-.2-.5-.379-.978-.56-1.46-.38-1.007-.742-2.015-1.052-3.023-.218-.642-.418-1.285-.618-1.942-.272-.847-.51-1.708-.712-2.57-.128-.438-.238-.891-.348-1.329s-.22-.92-.313-1.373c-.128-.555-.257-1.11-.351-1.679-.11-.5-.2-1.008-.279-1.5-.148-.789-.262-1.592-.375-2.4,1.234-.017,2.485-.063,3.754-.167,1.251-.09,2.519-.209,3.787-.386q1.083-.133,2.166-.31c1.849-.295,3.7-.678,5.561-1.149a63.311,63.311,0,0,0,14.846-5.678c7.647,5,10.6,13.439,7.483,21.086-.758,1.856,2.847,2.639,3.6.8,3.171-7.748.71-16.1-5.817-21.95.655.277,1.328.539,2,.786.673.262,1.345.5,2.035.727.761.262,1.521.509,2.3.742.69.218,1.38.407,2.087.6.689.188,1.4.363,2.1.522.513.131,1.025.247,1.537.334q1.351.3,2.7.522a54.853,54.853,0,0,1,2.744,8.484q.221.985.389,1.971c.056.366.13.716.169,1.067.075.511.151,1.022.208,1.533.075.512.134,1.008.191,1.52.077.686.154,1.358.249,2.03C478.8,444.116,478.914,445.007,479.064,445.912Z" fill="#ff81cb"/><path d="M465.789,444.326c-.758,1.842-4.363,1.059-3.6-.8,3.119-7.647.164-16.087-7.483-21.086a15.366,15.366,0,0,0-1.6-.991c-2-1.092-.141-3.71,1.862-2.633a26.689,26.689,0,0,1,5.006,3.557C466.5,428.225,468.96,436.578,465.789,444.326Z" fill="#00008b"/><path d="M412.162,337.222c-.243,3.42-6.131,12.478-17.145,15.394a29.044,29.044,0,0,1-13.4.315c-14.2-3.1-21.4-16.621-19.509-17.969,1.827-1.278,10.813,10.242,25.1,10.455,11.159.179,18.773-6.661,22.485-8.835a4.2,4.2,0,0,1,1.5-.653.794.794,0,0,1,.63.106l.07.064A1.355,1.355,0,0,1,412.162,337.222Z" fill="#00008b"/><path d="M510.131,342.169a25.161,25.161,0,0,1-12.258,2.293c-11.766-.909-19.745-10.506-20.575-14.011a1.547,1.547,0,0,1-.054-.77.523.523,0,0,1,.141-.316.722.722,0,0,1,.755-.141,4.345,4.345,0,0,1,.987.371c3.645,1.631,12.15,8.051,22.818,6.526,12.991-1.832,19.166-14.1,21.263-12.975C525.141,324.253,521.481,336.888,510.131,342.169Z" fill="#00008b"/><path d="M559.98,431.627c-.92,1.858-1.908,3.7-2.963,5.424l-.418.753c-.7,1.138-1.406,2.276-2.126,3.365-.151.217-.3.418-.452.652a81.184,81.184,0,0,1-5.072,6.729q-1.933,2.361-4.067,4.52a74.49,74.49,0,0,1-42.166,22.045,4.029,4.029,0,0,1-.653.117c-.435.067-.87.118-1.322.168a1.817,1.817,0,0,1-.419.05c-.485.067-.971.117-1.439.168l-.938.1-1.791.151-.971.05c-.435,0-.887.016-1.322.033.469-.653,1-1.255,1.456-1.908.586-.82,1.139-1.69,1.674-2.561.619-.05,1.239-.1,1.858-.168.385-.049.77-.1,1.155-.15h.1a102.118,102.118,0,0,0,15.366-3.7,71.729,71.729,0,0,0,23.954-14.647c1.573-1.423,3.1-2.946,4.553-4.536a75.387,75.387,0,0,0,5.524-6.746,6.39,6.39,0,0,0,.5-.67c.8-1.105,1.54-2.209,2.259-3.348q.277-.377.5-.753,2.21-3.54,4.151-7.365c13.04-26.18,9.223-57.281,5.875-84.716-.184-1.473-.368-2.963-.552-4.453-.033-.235-.05-.486-.1-.72a27.648,27.648,0,0,1-.235-2.879,11.737,11.737,0,0,1,1.992,1.322c.6.452,1.222.9,1.841,1.339.134,1.105.252,2.21.4,3.332.05.485.1.987.168,1.489C569.773,372.254,573.689,404.158,559.98,431.627Z" fill="#00008b"/><path d="M786.663,741.929a22.825,22.825,0,0,1,10-18.81,23.562,23.562,0,0,1,21.867-1.928,58.046,58.046,0,0,1,11.7,6.76c1.327.927,2.584-1.249,1.267-2.169-6.987-4.883-14.852-9.512-23.7-8.942a25.279,25.279,0,0,0-19.981,12,25.626,25.626,0,0,0-3.674,13.091,1.256,1.256,0,0,0,2.511,0Z" fill="#2a2e7e"/><path d="M767.4,719.373a18.107,18.107,0,0,1,25.17-9.234c1.427.755,2.7-1.411,1.267-2.168a20.405,20.405,0,0,0-28.858,10.735c-.593,1.5,1.835,2.156,2.421.667Z" fill="#2a2e7e"/><path d="M627.536,493.252c-22.9-.185-46.049-6.345-66.588-15.585-1.038-.452-2.059-.954-3.1-1.439,16.923,1.306,33.813,2.594,50.77,4.017,7.884.67,15.55,2.578,18.279,10.73A22.966,22.966,0,0,1,627.536,493.252Z" fill="#a86442"/><path d="M534.2,817.705l-125.661,1.1-78.1.7q-19.661.2-39.354.368c-6.377.05-12.771.134-19.149.151a57.5,57.5,0,0,1-12.906-1.038c-4.2-.9-8.671-2.511-11.232-6.127-3.632-5.121-1.791-11.717.553-16.939,2.845-6.428,6.528-12.555,9.842-18.748,3.147-5.893,6.328-11.818,9.508-17.727q4.519,5.5,9.34,10.747c2.9,3.146,5.876,6.193,8.939,9.206a3.221,3.221,0,0,0,2.846.988c.15-.034.318-.067.468-.117a3.753,3.753,0,0,0,1.524-.9c.133-.134.267-.285.4-.436a3.093,3.093,0,0,0,.569-.987,3.193,3.193,0,0,0,.151-.569,2.761,2.761,0,0,0-.084-1.473,2.634,2.634,0,0,0-.217-.569,4.053,4.053,0,0,0-.653-.837c-.335-.335-.653-.637-.954-.938v-.017c3.85-18.9,3.046-32.942-5.909-50.3-9.14-17.693-21.242-33.762-30.315-51.489a172.5,172.5,0,0,1-13.022-121.71c2.728-10.311,6.477-20.991,4-31.369-1.925-8.068-7.415-14.847-13.341-20.756-5.942-5.876-12.5-11.249-17.459-17.945-4.955-6.712-8.185-15.232-6.311-23.3,1.892-8.085,10.195-14.915,18.447-13.191a21.336,21.336,0,0,0-1.423-1.891c2.31-.168,4.637-.268,6.93-.318,14.5-.2,28.959,1.841,43.371,3.28q9.817.979,19.618,1.926c2.528.234,5.089.485,7.633.719q10.371,1,20.74,1.959c5.022.435,10.027.887,15.065,1.322a1.9,1.9,0,0,0,.62,0c.786.619,1.556,1.189,2.326,1.741-1.69,8.688-3.381,17.425-4.887,26.2-3.767,21.76-6.546,43.739-6.261,65.751v.033a222.528,222.528,0,0,0,1.339,24.707,178,178,0,0,0,3.75,21.895.063.063,0,0,0,.016.05c-.753-.887-1.556-1.774-2.343-2.645-.217-.251-.452-.5-.669-.753-1.122-1.239-2.244-2.477-3.432-3.683-.285-.334-.6-.686-.937-1.021-.436-.468-.921-.954-1.407-1.423.017-.016.017-.016-.033-.033,0,0,.033-.016-.017-.016,0-.051-.033-.1-.117-.135.034-.016.017-.016-.017-.033a.307.307,0,0,0-.134-.117,1.041,1.041,0,0,0-.267-.285c0-.033-.051-.084-.134-.117.033-.017.016-.017-.017-.034-.017-.067-.067-.1-.134-.15-.4-.452-.853-.887-1.322-1.339-1.138-1.189-2.31-2.36-3.5-3.5-.2-.2-.368-.385-.569-.552a.438.438,0,0,0-.1-.084c-.5-.535-1.038-1.038-1.574-1.54-1.423-1.355-2.862-2.711-4.318-4.034-1.39-1.289-2.813-2.561-4.252-3.816-1.574-1.39-3.18-2.762-4.788-4.1s-3.23-2.679-4.871-3.984a280.023,280.023,0,0,0-27.318-19.317c-3.866-2.394-7.415,3.615-3.582,5.992a270.326,270.326,0,0,1,82.172,79.344q6,8.963,11.2,18.379a2.506,2.506,0,0,0-.5,2.209A220.714,220.714,0,0,0,399,727.9c1.306,1.808,2.628,3.582,3.984,5.357.8,1.071,1.624,2.125,2.444,3.163.335.419.687.854,1.038,1.272,1.021,1.289,2.059,2.562,3.13,3.834,1.038,1.255,2.109,2.494,3.181,3.716.435.5.87,1,1.338,1.506.8.921,1.625,1.825,2.461,2.729.486.535.971,1.054,1.457,1.573.535.586,1.087,1.172,1.657,1.741.686.753,1.406,1.473,2.126,2.209,1.255,1.289,2.527,2.561,3.833,3.817.887.87,1.791,1.741,2.711,2.6,1.808,1.724,3.667,3.414,5.541,5.055,1.155,1.021,2.31,2.025,3.482,3.013.3.268.6.536.921.77q1.707,1.457,3.464,2.862c1.457,1.172,2.913,2.327,4.4,3.465.6.452,1.2.921,1.824,1.373,1.256.954,2.528,1.875,3.8,2.795,1.457,1.055,2.946,2.093,4.436,3.1,1.406.971,2.829,1.925,4.252,2.829.552.368,1.1.736,1.657,1.071q1.983,1.281,4.017,2.511C487.212,803.058,510.3,811.88,534.2,817.705Z" fill="#a86442"/><path d="M651.858,688.413a.546.546,0,0,0-.067.167c-1.792-.971-3.582-1.942-5.357-2.946h-.017l-.016-.017c-.653-.352-1.272-.72-1.908-1.105-.653-.368-1.306-.736-1.926-1.121-2.042-1.188-4.034-2.411-6.009-3.7-1.188-.754-2.36-1.507-3.515-2.294-1.105-.736-2.209-1.49-3.3-2.26-2.561-1.791-5.088-3.666-7.582-5.59-.77-.6-1.54-1.206-2.31-1.842-1.892-1.506-3.75-3.063-5.591-4.7-.268-.217-.536-.435-.787-.669-1.356-1.2-2.7-2.427-4.017-3.682-.536-.52-1.088-1.022-1.607-1.541-.553-.535-1.088-1.054-1.624-1.59a171.643,171.643,0,0,1-32.557-45.58,7.4,7.4,0,0,0,.686-.385h.016c.7-.4,1.407-.837,2.076-1.273.05-.033.117-.083.168-.117.016,0,.016-.033.033-.05a6.338,6.338,0,0,0,.7-.486c.335-.251.687-.5,1-.786.016,0,.016,0,.033-.017a10.8,10.8,0,0,0,.82-.72c.034-.033.084-.066.118-.1a5.394,5.394,0,0,0,.635-.6c.268-.267.519-.519.77-.786.084-.1.185-.185.268-.3.184-.217.385-.435.553-.669a1.938,1.938,0,0,0,.284-.368,4.485,4.485,0,0,0,.4-.536c.017-.034.033-.05.05-.084s.05-.05.05-.083a11.18,11.18,0,0,0,.637-1c.016-.017.033-.033.033-.05a12.621,12.621,0,0,0,1-2.16c.084-.251.168-.485.251-.753a.234.234,0,0,0,.034-.1,2.48,2.48,0,0,0,.134-.5c.016-.033.016-.083.033-.116.067-.285.134-.586.2-.871.05-.268.084-.536.117-.787.017-.184.05-.368.05-.569a14.964,14.964,0,0,0-.4-4.871c5.289-2.511,9.708-6.93,10.462-12.855a11.714,11.714,0,0,0-5.407-11.4,7.235,7.235,0,0,0,.469-.686,18.209,18.209,0,0,0,3.063-8.42,242.544,242.544,0,0,0,36.257,3.432c.4,3.314.87,6.628,1.423,9.893,3.1,19.115,9.072,37.211,15,55.59C652.125,646.314,657.951,667.639,651.858,688.413Z" fill="#a86442"/><path d="M328.939,448.3a10.539,10.539,0,0,1-1.445-5.342l.05-.375q-21.916-1.932-43.829-4.085c-14.01-1.39-28.071-3.264-42.149-3.967a134.774,134.774,0,0,0-23.569.72c-10.445,1.372-20.605,4.469-28.891,10.579-6.78,4.987-11.516,12.42-11.583,20.923-.068,8.571,4.217,16.639,9.859,22.933,6.277,6.98,14.429,11.885,21.761,17.66,3,2.394,6.059,5.172,7.214,8.922,1.289,4.3-.351,8.939-1.623,13.073a208.344,208.344,0,0,0-8.621,55,257.706,257.706,0,0,0,17.526,99.548,273.641,273.641,0,0,0,39.354,69.685c1.522,1.975,3.079,3.933,4.7,5.875q4.521,5.5,9.342,10.747c2.9,3.146,5.875,6.193,8.938,9.206a3.223,3.223,0,0,0,2.845.988,4.6,4.6,0,0,0,.469-.118,4.124,4.124,0,0,0,1.523-.9c.134-.134.269-.285.4-.436a3.9,3.9,0,0,0,.569-.987,3.1,3.1,0,0,0,.151-.57,2.758,2.758,0,0,0-.084-1.472,2.557,2.557,0,0,0-.218-.569,4.012,4.012,0,0,0-.652-.837c-.335-.335-.653-.637-.954-.938v-.017c-1.189-1.188-2.343-2.36-3.482-3.549q-2.158-2.184-4.184-4.418c-1.006-1.072-2.01-2.16-2.947-3.247-1.791-1.993-3.532-4-5.222-6.044-1.34-1.573-2.646-3.18-3.918-4.787-1.154-1.44-2.293-2.879-3.381-4.352-.184-.218-.351-.435-.518-.67-2.461-3.247-4.838-6.527-7.115-9.876-2.343-3.381-4.587-6.846-6.746-10.328-1.64-2.611-3.213-5.272-4.753-7.934-1.54-2.694-3.013-5.407-4.453-8.118-.954-1.808-1.908-3.65-2.812-5.491-.937-1.825-1.825-3.682-2.711-5.54-.871-1.859-1.725-3.734-2.561-5.608A255.657,255.657,0,0,1,213.16,598a215.879,215.879,0,0,1,4.351-51.338q1.484-7.056,3.584-13.994c1.305-4.385,2.844-8.888,2.761-13.542-.15-8.369-6.11-13.977-12.437-18.748-7.13-5.406-15.031-10.328-20.572-17.425-5.022-6.394-8.353-15.283-4.754-23.1,3.5-7.6,11.584-11.717,19.2-14.379a67.555,67.555,0,0,1,8.051-2.243c1.306-.3,2.645-.552,3.968-.753.535-.1,1.038-.168,1.556-.235.853-.134,1.707-.25,2.578-.334.084-.017.167-.017.251-.033,1-.1,2.009-.219,3-.285,2.31-.168,4.637-.268,6.93-.318,14.5-.2,28.959,1.841,43.371,3.28q9.816.981,19.618,1.926c2.529.234,5.09.485,7.633.719q10.37,1,20.74,1.959,3.55.307,7.1.623Q329.51,449.042,328.939,448.3Z" fill="#00008b"/><path d="M766.5,750.213c-29.511,2.31-59.24,4.185-88.6-.6a327.222,327.222,0,0,1-46.434-11.516c-15.2-4.8-30.215-10.261-44.459-17.392-1.055-.519-2.11-1.071-3.147-1.607-1.022-.552-2.076-1.105-3.114-1.691a179.334,179.334,0,0,1-26.866-17.977c-.586-.452-1.172-.955-1.757-1.44-1.022-.837-2.043-1.707-3.047-2.611-.7-.6-1.39-1.222-2.076-1.858-.284-.234-.586-.5-.87-.77-.754-.7-1.507-1.406-2.243-2.126-.118-.117-.251-.218-.385-.352l-.369-.368c6.629-4.469,18.212,5.792,23.854,9.19,56.243,33.83,122.479,49.3,187.193,43.705,4-.351,8.955-.15,11.566,2.478A29.662,29.662,0,0,0,766.5,750.213Z" fill="#ffda10"/><path d="M532.943,607.295a2.548,2.548,0,0,0-1.64,1.071c-14.027,19.066-36.809,31.6-60.612,33.88a85.426,85.426,0,0,1-73.284-31.185c-.8-.971-1.573-1.958-2.327-2.98A86.516,86.516,0,0,1,389.74,600c-.351-.637-.686-1.256-1.021-1.892-.8-1.473-1.573-2.979-2.26-4.536-.3-.653-.6-1.323-.886-1.992a.223.223,0,0,0-.051-.084c-.3-.736-.586-1.473-.87-2.21,5.055-2.008,9.809,1.407,13.81,5.022,10.913,10.01,22.313,19.049,35.871,25.394a97.817,97.817,0,0,0,23.452,7.716c20.974,4.035,43.906.235,60.863-12.537,2.829-2.16,5.574-4.62,7.164-7.784a11.4,11.4,0,0,0,1.239-4.787,36.176,36.176,0,0,0,4.218,3.766C531.8,606.491,532.374,606.91,532.943,607.295Z" fill="#ffda10"/><path d="M579.612,594.624v.117a10.419,10.419,0,0,1-.168,1.623,9.829,9.829,0,0,1-.853,2.477,5.175,5.175,0,0,1-.385.653,8.775,8.775,0,0,1-.971,1.407,13.76,13.76,0,0,1-1.172,1.255A16.628,16.628,0,0,1,573.9,603.9a19.7,19.7,0,0,1-2.444,1.456,32.648,32.648,0,0,1-7.533,2.779c-.535.15-1.088.268-1.607.368a31.245,31.245,0,0,1-5.072.619,34.979,34.979,0,0,1-26.866-10.913,2.34,2.34,0,0,0-1.774-.821,2.008,2.008,0,0,0-.435.051.726.726,0,0,0-.168.033,2.162,2.162,0,0,0-.385.134,2.753,2.753,0,0,0-.736.5.866.866,0,0,0-.184.168,1.44,1.44,0,0,0-.2.25,10.112,10.112,0,0,0-.77-1.523c3.448-2.176,7.549,1.273,10.813,3.666a25.289,25.289,0,0,0,29.16.05c2.46-1.857,4.6-4.184,7.4-5.54A8.591,8.591,0,0,1,579.612,594.624Z" fill="#ffda10"/><path d="M401.437,480.525a18.9,18.9,0,0,1-2.242-2c-1.008.1-1.994.173-2.979.247a90.952,90.952,0,0,1-62.129-20.439c-.221-.173-.442-.37-.664-.542-.443-.37-.887-.788-1.354-1.182-.468-.419-.936-.837-1.379-1.231-.493-.493-1.035-.985-1.552-1.478-12.706-12.312-20.216-27.555-21.866-44.4-1.085-11.3-.075-22.729.91-33.761.223-2.635.468-5.295.665-7.9a.541.541,0,0,0,.025-.172,4.144,4.144,0,0,1-1.773-3.325c-.1-1.108-.123-2.216-.123-3.348a10.264,10.264,0,0,1,2.315.32,7.758,7.758,0,0,1,3.865,2.216,8.115,8.115,0,0,1,1.922,3.128,12.727,12.727,0,0,1,.59,2.363c1.7,13.506,3.5,27,5.172,40.508,2.428,19.645,16.239,33.5,17.237,34.475,16.078,15.719,49.493,27.155,57.327,30.929.248.119.729.4,1.378.763A10.4,10.4,0,0,1,401.437,480.525Z" fill="#ffda10"/><path d="M579.893,343.291a4.6,4.6,0,0,1-.69,2.856c-1.5,1.97-4.013,1.256-6.353.2a9.046,9.046,0,0,1-1.8-.961,6.058,6.058,0,0,0-2.388-1.182c-.862-.492-1.7-1.009-2.511-1.575a32.763,32.763,0,0,1-4.014-3.1,46.135,46.135,0,0,1-10.959-15.686c-3.5-7.831-6.623-15.834-9.455-23.911-.764-2.241-1.5-4.482-2.241-6.723-.369-.985-.691-2.019-1.01-3.028-1.182-3.62-2.463-7.142-3.939-10.515a74.219,74.219,0,0,0-3.941-7.929c-.049-.1-.123-.222-.173-.345-.369-.616-.738-1.232-1.132-1.847A56.841,56.841,0,0,0,519.02,257.2c-3.226-2.881-5.195-7.363-7.338-11.352a4.38,4.38,0,0,1-.172-2.955,11.864,11.864,0,0,1,1.2.434,10.228,10.228,0,0,1,1.185.6,9.2,9.2,0,0,0,3.94.616c2.205-.1,15.31,4.961,24.625,22.162,1.978,3.652,1.787,4.162,7.388,22.162,7.546,24.252,9.27,27.756,10.416,29.944a76.662,76.662,0,0,0,16.424,21.719C577.725,341.468,578.785,342.379,579.893,343.291Z" fill="#ffda10"/><path d="M840.641,775.439c0,.218-.033.435-.05.653-1.355,14.7-6.428,30.917-19.5,39.521-15.148,9.96-35.052,6.98-51.271,1.489-2.059-.7-3,2.344-1.239,3.214-25.493.352-51,.837-76.5,1.591-36.375,1.1-72.9,2.126-109.205-1.407-5.173-.5-10.363-1.121-15.518-1.857a3.166,3.166,0,0,0-2.678-1.223c-1.741.017-3.465.017-5.223.051-27.553-4.453-54.586-12.254-79.242-25.242a222.22,222.22,0,0,1-50.854-37.078,227.713,227.713,0,0,1-18.849-20.723A217.739,217.739,0,0,1,369.6,653.6c0-.033-.017-.067-.017-.1,2.51.8,5.876-2.008,4.3-5.122-.67-1.306-1.34-2.628-2.009-3.933-.469-.87-.92-1.724-1.389-2.578-.553-1.055-1.122-2.109-1.708-3.147-.067-.117-.134-.251-.217-.385-.536-.971-1.088-1.941-1.658-2.9-.669-1.171-1.322-2.326-2.008-3.465,6.389,9.2,15.769,22.573,27.352,38.586,31.09,42.983,39.788,52.1,44.324,56.638a270.388,270.388,0,0,0,49.25,36.937c43.133,25.421,149.324,44.658,286.754,34.226a73.654,73.654,0,0,0,68.061-22.916Z" fill="#ffda10"/><path d="M596.342,297.661c-4.211,6.574-8.767,12.928-12.9,19.527a32.362,32.362,0,0,0-4.58,9.8c-.69,3,.147,6.353.295,9.554.1,2.093.714,4.679.739,6.748a4.6,4.6,0,0,1-.69,2.856c-1.5,1.97-4.013,1.256-6.353.2a9.046,9.046,0,0,1-1.8-.961,6.058,6.058,0,0,0-2.388-1.182c-.862-.492-1.7-1.009-2.511-1.575a32.763,32.763,0,0,1-4.014-3.1,46.135,46.135,0,0,1-10.959-15.686c-3.5-7.831-6.623-15.834-9.455-23.911-.764-2.241-1.5-4.482-2.241-6.723-.369-.985-.691-2.019-1.01-3.028-1.182-3.62-2.463-7.142-3.939-10.515a74.219,74.219,0,0,0-3.941-7.929c-.049-.1-.123-.222-.173-.345-.369-.616-.738-1.232-1.132-1.847A56.841,56.841,0,0,0,519.02,257.2c-3.226-2.881-5.195-7.363-7.338-11.352a4.38,4.38,0,0,1-.172-2.955,13.435,13.435,0,0,1,.689-2.217c.32.346.837.665.961,1.108a15.876,15.876,0,0,0,.738,2.143c1.7,4.285,4.655,7.683,7.881,10.933,9.159,9.235,14.4,20.784,18.739,32.85.049.1.074.222.122.3,1.158,3.251,2.291,6.5,3.449,9.8,2.708,7.733,5.417,15.464,8.52,23.049a40.3,40.3,0,0,0,15.243,18.912c2.511,1.65,5.491,2.61,8.642,4.039a12.534,12.534,0,0,0,.2-3.276c-.221-2.979-1.6-5.294-2.855-7.535-3.325-6.107-6.871-12.091-7.388-19.256a56.489,56.489,0,0,1,.2-6.748c.395-.049.813-.1,1.232-.123,1.97,6.772,3.916,13.569,5.91,20.316,4.9-10.54,11.82-18.937,17.951-27.777,6.994-10.1,7.387-21.128-.123-29.821a28.594,28.594,0,0,0-10.515-7.215,114.152,114.152,0,0,1-25.437-14.332c-3.521-2.61-7.682-4.334-11.475-6.574a126.847,126.847,0,0,1-11.278-6.822c-3.768-2.708-7.216-4.062-11.4-1.305-3.177,2.143-6.576,1.281-10,.2-3.965-1.232-8.028-3.029-12.018-3.571a28.95,28.95,0,0,0-3.668-.493c-.566-.049-1.158-.073-1.8-.073-1.625,0-2.831.147-3.176.147-19.085.739-29.821-2.536-39.252-5.467-8.029-2.462-14.972-4.6-25.487-3.792-5.689.444-8.889,1.453-13.814,3.005-2.07.639-4.384,1.378-7.265,2.191-4.531,1.231-8.3,2.191-24.009,5.1-1.552.27-3.053.566-4.482.837l-1.477.271h-.05a80.614,80.614,0,0,0-8.372,1.551c-.862.2-1.675.394-2.512.615a34.036,34.036,0,0,0-11.574,5.935c-5.023,3.792-10.243,5.59-16.424,4.58-3.079-.517-6.058-.024-7.733,2.734-5.91,9.727-15.144,15.883-23.418,23.048-5.368,4.605-10.81,9.136-15.907,14.037-9.013,8.741-9.406,21.547-1.5,31.5,2.9,3.669,5.245,7.781,8.126,11.475,3.4,4.408,7.141,8.545,11.154,13.347,1.478-8.988,2.833-17.041,4.138-25.093l1.01-.049c.1,2.462.812,5.048.3,7.289-2.266,9.726-2.513,19.552-2.315,29.476.049,2.437-1.009,4.851-1.009,7.288a7.059,7.059,0,0,0,.32,1.9c.32,1.157.886,2.241,1.452,2.389a4.879,4.879,0,0,0,2.413-.173,3.628,3.628,0,0,0,2.192-1.354,29.347,29.347,0,0,0,3.571-10.17c1.5-13.667,2.955-27.359,3.6-41.075.738-15.44,3.767-29.7,13.469-42.083,3.866-4.876,6.28-10.959,9.53-16.745-.172,1.4.049,3.029-.493,4.284-1.847,4.137-3.5,8.521-6.009,12.19a82.382,82.382,0,0,0-7.141,12.706,78.982,78.982,0,0,0-3.569,9.5c-.148.468-.272.887-.42,1.355h.025a89.984,89.984,0,0,0-3.374,22.334c-.024.936-.073,1.872-.049,2.832-.1,11.648-.985,23.3-2.241,34.844-.443,4.236-2.733,8.373-4.752,12.239a6.07,6.07,0,0,1-2.044,2.068,2.9,2.9,0,0,1-.369.2,11.856,11.856,0,0,1-2.439,1.206c0,.073.026.2.026.3-.2,2.66-.468,5.319-.715,7.979-.936,10.835-1.945,22.064-.886,33a71.126,71.126,0,0,0,1.5,8.939,7.792,7.792,0,0,0,.2.813,65.045,65.045,0,0,0,7.732,18.3c.246.394.492.788.763,1.206.837,1.281,1.724,2.561,2.66,3.817.221.3.443.591.665.862.27.37.542.739.862,1.108.394.493.813.985,1.206,1.453.222.271.443.542.665.788.96,1.133,1.945,2.192,3,3.251.148.147.32.32.468.492.566.542,1.157,1.133,1.772,1.7.469.444.986.887,1.454,1.355a.665.665,0,0,1,.2.172l1.625,1.4c.049.026.049.026.074.026a14.552,14.552,0,0,0,1.157.984c.3.247.616.493.937.739.1.1.2.148.294.246.321.247.641.493.986.739,1.946,1.478,3.939,2.856,6.008,4.161a10.2,10.2,0,0,1,1.009.616c.862.518,1.7,1.035,2.561,1.5.3.172.567.32.862.468q1.442.813,2.956,1.551c.369.2.763.37,1.133.567a1.174,1.174,0,0,0,.27.1c.369.2.788.37,1.207.566.861.419,1.723.789,2.609,1.158.469.172.888.369,1.356.517,1.083.468,2.166.887,3.3,1.281.468.148.935.344,1.428.492.369.124.715.222,1.109.369.738.247,1.526.493,2.289.69.444.148.912.271,1.379.418.468.124.936.247,1.38.346l1.4.369c.394.1.813.172,1.207.271.123.024.27.074.418.1.345.05.715.173,1.084.222.935.2,1.9.369,2.857.541.3.05.59.1.911.148,1.329.2,2.684.4,4.014.567.541.049,1.034.1,1.527.147a5.987,5.987,0,0,1,.665.05c.393.024.738.074,1.132.074.344.024.64.049.96.074.542.049,1.059.074,1.576.074a.321.321,0,0,0,.148.024c.64,0,1.255.025,1.9.025h.148c.541.049,1.083.049,1.626.049.639-.025,1.279-.025,1.944-.049l.1-.025c.543,0,1.084-.024,1.651-.049.147,0,.271-.025.419-.025l.467-.024a26.988,26.988,0,0,1-3.792-10.86,1.9,1.9,0,1,1,3.767-.493c.049.3.1.591.148.912a2.059,2.059,0,0,0,.1.541c.073.468.2.96.3,1.4a3.774,3.774,0,0,1,.148.566c.123.419.246.862.394,1.256.074.222.173.468.271.715a.323.323,0,0,0,.074.2c.074.247.2.443.27.64.173.419.345.838.542,1.207a6.191,6.191,0,0,0,.37.665,13.967,13.967,0,0,0,1.28,2.019,5.834,5.834,0,0,0,.468.616,7.808,7.808,0,0,0,.813.985,2.4,2.4,0,0,0,.418.443,1.635,1.635,0,0,0,.1.148c.172.148.345.345.542.517.245.246.541.493.788.739.171.147.319.271.492.418.172.123.32.247.492.37.223.172.468.344.714.517a3.258,3.258,0,0,0,.419.3c.1.074.246.172.37.245a31.94,31.94,0,0,0,2.856,1.65c.246.1.493.2.739.321.271.123.492.221.739.32a7.762,7.762,0,0,0,.862.344,7.481,7.481,0,0,0,.787.321c.272.1.517.172.813.27a3,3,0,0,0,.616.2.775.775,0,0,0,.221.073c10.712,2.931,23.419,2.537,24.157,2.537,6.969-.271,13.052-.468,18.37-.788h.025c.616-.049,1.206-.1,1.773-.173.936-.074,1.872-.148,2.833-.3,1.034-.1,2.042-.2,3.078-.345.517-.074,1.008-.123,1.525-.172.517-.1,1.01-.148,1.553-.271.492-.049,1.009-.123,1.526-.2.493-.1.984-.2,1.5-.271.467-.074.886-.148,1.353-.246.37-.05.739-.173,1.084-.222s.665-.123.985-.2c.394-.1.763-.172,1.132-.271a7.67,7.67,0,0,0,1.084-.246c.591-.172,1.157-.32,1.749-.443a13.573,13.573,0,0,0,1.305-.394l.172-.049c.345-.1.664-.222,1.01-.321.123-.024.2-.049.3-.073.024-.025.05-.025.074-.05.542-.172,1.059-.345,1.625-.566.517-.2,1.06-.394,1.577-.591,1.107-.493,2.19-.985,3.226-1.552a6.307,6.307,0,0,0,1.132-.615,24.557,24.557,0,0,0,2.9-1.9,2.712,2.712,0,0,0,.419-.32c.246-.2.493-.395.739-.566v-.1a1.96,1.96,0,0,1,.862-1.379,1.477,1.477,0,0,1,.886-.3l.123-.024c3.447-3.645,5.491-8.4,5.541-14.677a1.9,1.9,0,0,1,1.9-1.921,1.945,1.945,0,0,1,1.9,1.97,26.188,26.188,0,0,1-2.808,12.14c-.369.592-.762,1.182-1.156,1.749a21.843,21.843,0,0,1-1.453,1.9,25.9,25.9,0,0,0-2.217,2.709c-.024.024-.073.074-.073.1h-.123c-9.654,8.865-26.6,11.081-40.755,12.214a2.168,2.168,0,0,1-.689.173h-.049c-.985.049-2.044.1-3.078.148l-1.823.1c-1.058.1-2.044.148-3.1.247a2.267,2.267,0,0,1-.714-.1c-14.775.591-32.678.37-43.34-8.273a18.9,18.9,0,0,1-2.242-2c-1.008.1-1.994.173-2.979.247a90.952,90.952,0,0,1-62.129-20.439c-.221-.173-.442-.37-.664-.542-.443-.37-.887-.788-1.354-1.182-.468-.419-.936-.837-1.379-1.231-.493-.493-1.035-.985-1.552-1.478-12.706-12.312-20.216-27.555-21.866-44.4-1.085-11.3-.075-22.729.91-33.761.223-2.635.468-5.295.665-7.9a.541.541,0,0,0,.025-.172,4.144,4.144,0,0,1-1.773-3.325c-.1-1.108-.123-2.216-.123-3.348a35.349,35.349,0,0,1,.59-6.083c1.06-5.344-.122-9.8-4.013-13.543a60.565,60.565,0,0,1-11.943-15.982,35.2,35.2,0,0,0-6.7-8.594c-10.54-10.417-7.289-28.442,2.832-36.223,8.25-6.329,16.2-13.076,24.28-19.675a41.78,41.78,0,0,0,10.737-13.1c3.718-7.166,7.731-8.643,15.685-7.584,2.66.344,6.231.1,8.127-1.429a40.15,40.15,0,0,1,9.775-6.008,50.572,50.572,0,0,1,10.491-3.177c3.226-.32,6.18-.689,8.767-1.009,1.847-.247,3.471-.492,4.973-.714a219.757,219.757,0,0,0,23.739-5.073c2.856-.788,5.122-1.527,7.166-2.142,4.9-1.527,8.447-2.66,14.406-3.128,11.006-.862,18.517,1.453,26.446,3.891a124.629,124.629,0,0,0,15.785,4.063c8.471,1.477,11.278.443,22.606,1.33,2.388.173,5.245.468,5.245.468.935.123,1.748.2,2.536.271,1.157.1,2.265.246,3.545.418.863.1,1.675.2,2.414.345l1.552.394c.985.271,1.969.591,2.93.911,4.826,1.6,9.16,2.881,13.864-.049,3.127-1.946,6.328-1.182,9.431.812,11.6,7.339,23.147,14.751,34.919,21.818a95.142,95.142,0,0,0,14.207,6.526c11.426,4.309,17.435,12.681,18.666,24.92A21.461,21.461,0,0,1,596.342,297.661Z" fill="#00008b" stroke="#00008b" stroke-miterlimit="10" stroke-width="0.837"/></svg>