<?xml version="1.0" encoding="utf-8"?>
<!-- Generator: Adobe Illustrator 24.3.0, SVG Export Plug-In . SVG Version: 6.00 Build 0)  -->
<svg version="1.1" xmlns="http://www.w3.org/2000/svg" xmlns:xlink="http://www.w3.org/1999/xlink" x="0px" y="0px"
	 viewBox="0 0 619 619" style="enable-background:new 0 0 619 619;" xml:space="preserve">
<style type="text/css">
	.st0{fill:none;}
	.st1{fill:#00008B;}
	.st2{fill:#00008B;stroke:#00008B;stroke-width:0.75;stroke-miterlimit:10;}
	.st3{fill:#00008B;stroke:#00008B;stroke-width:3;stroke-miterlimit:10;}
	.st4{fill:url(#New_Pattern);}
</style>
<pattern  x="-230.5" y="-230.5" width="619" height="619" patternUnits="userSpaceOnUse" id="New_Pattern" viewBox="59.5 -714.4 619 619" style="overflow:visible;">
	<g>
		<rect x="59.5" y="-714.4" class="st0" width="619" height="619"/>
		<g>
			<g>
				<g>
					<path class="st1" d="M473.8-11.8c-7.9,3.8-16,8.1-24.7,9.1c-9.6,0.5-12.7-15.5-16.8-22.4c-5.3-12.8-10.8-27.9-8.5-41.5
						c0,0,0,0,0,0c0,0,0,0,0-0.1c0.9-1.4,1.7-2.9,3-3.9c-1.7-4.8-0.1-12.4,4.4-15.2c-0.5-1.1-0.8-2.4-1.2-3.6
						c-1.8,0.8-5.2,2.3-5.1-0.9c-0.9,0.3-1.7,0.6-2.6,1c1.4,2.2-1.7,2.2-2.9,2.9c-1.2,0.5-1.4-1.8-1.8-2.4c-0.7-0.9-0.7-2.5,0.7-3
						c4.9-1.8,9.7-3.7,14.6-5.5c1.5-0.6,2.6,0.9,2.5,2.1c3.3-0.9,3.8,3.3-0.6,4c0.4,1.1,0.8,2.3,1.1,3.4c5.2-2.5,10.5,4.9,11.5,9.5
						c19.8,1.4,24.5,35.6,31.8,50.4C482.9-19.9,482.3-15.2,473.8-11.8z M428.9-71.7c1.2-0.4,2.4-0.6,3.7-1
						c-1.7-1.3-0.8-10.7,0.5-7.8c-1.1,2.4-1,5.3,0.2,7.6c1.3-0.5,2.6-1.1,3.9-1.7c-0.3-2.4-1.2-4.6-2.6-6.6c0.6-2.6,3.4,5.3,3.3,6.3
						c1.4-0.6,2.7-1.3,4.1-1.8c-1-2.4-2.8-4.5-5.1-5.7c-0.8-3,6.1,4.1,5.9,5.4c0.7-0.3,1.5-0.5,2.2-0.7c-0.9-3.7-3.7-6.9-7.3-8.2
						c-0.9,0.2-1.6,1.3-2.7,1.5c-5.7,0.7-6.7,7.5-6.4,12.2C428.7-72,428.7-71.8,428.9-71.7z M426.8-49.9c3.9-3.1,9.2-3.3,13.9-4.4
						c7.8-1.8,14.9-5.5,20.9-10.9c-2.6-4.3-6.1-8.5-10.9-10.3c0,0-0.3-0.1-0.3-0.1c-7.5-1.3-13.9,5.1-21.1,6.3
						c-3.5,2-3.9,5.9-3.5,9.5C425.8-56.4,426.2-53.1,426.8-49.9z M433.6-28.1c11.7-6.7,26.4-7.3,36.6-16.5
						c-2.4-6.2-4.5-12.5-7.5-18.4c-6.2,5.5-13.8,9.3-21.9,11.1c-4.2,1.2-11.5,0.8-13.3,5.3c0.4,1.6,1,4.1,1.6,5.9
						C430.3-36.4,431.8-32.2,433.6-28.1z M471.1-42.3c-10.4,9-24.9,9.8-36.6,16.4c3,5.1,7.3,20.4,13.2,20.9
						c7.7-0.1,25.1-7.6,30.8-12.8c0,0,0.2-0.3,0.2-0.3c0.2-0.4,0.3-0.8,0.4-1.3c0,0,0-0.4,0-0.4c0-0.8-0.2-1.7-0.5-2.5
						C476.2-28.9,473.6-35.6,471.1-42.3z"/>
				</g>
			</g>
			<g>
				<path class="st1" d="M252-22.1c-23.3-2-57.3-32.9-50.6-58.9c3.5-10.6,10.8-14.8,18.7-14.6c1.6,0,2.3,2,1.1,3
					c-2,1.8-3.6,4.1-4.8,6.6c-2.3,4.6,0.1,9,4.6,11c3.5,1.6,8.1-1.2,10.1-4.2c0.2-0.3,0.5-0.8,0.8-1.2c0.8-1.5,2.8-1.8,4.1-0.7
					c1.3,1.1,2.6,1.9,3.4,2c1.2,0.1,2.8-0.3,4-1c0.8-0.5,1.9-0.2,2.4,0.6c1.4,2.3,2.5,4.8,3.1,7.4c1.7,8,24.8,42.8,11.5,44.6
					c2.6,5.7,17.7,16.4,10.4,21.9C261,11.2,256.6-14.7,252-22.1z M270.1-10.7c-3.7-6.3-8.8-11.7-13.1-17.6
					c-2.4,4.5-3.6,6.8-0.4,11.6c3.1,3.9,3.5,14.7,9.2,14.4c1.6-2.1,1.7-4.8,4.9-5.5C271.4-8.5,270.5-10,270.1-10.7z"/>
			</g>
		</g>
		<g>
			<g>
				<path class="st1" d="M688.3-418.8c1.4-2.6,0.8-6-1.9-7.6c-2.5-1.5-6.1-0.7-7.6,1.9c-1.4,2.6-0.8,6,1.9,7.6
					C683.2-415.4,686.9-416.1,688.3-418.8z"/>
				<circle class="st1" cx="673.7" cy="-451.9" r="3.9"/>
				<path class="st1" d="M675.3-436.2c1.6-3,0.9-6.9-2.2-8.7c-2.9-1.7-7.1-0.9-8.7,2.2c-1.6,3-0.9,6.9,2.2,8.7
					C669.4-432.3,673.7-433.2,675.3-436.2z"/>
				<path class="st1" d="M667.7-461.2c-2.1-1.2-4,2-1.9,3.2C667.8-456.7,669.7-460,667.7-461.2z"/>
			</g>
			<g>
				<path class="st1" d="M740.7-93.2c-22.3,2.7-82.4,18.6-87.8,13.4c-1.4-0.6-2.3-2.1-2-3.3c-1.5-10.4-6.4-31.2-8.1-43.4
					c-4.7-27.9,0.3-15.3,31-24.5c-0.1-7.3,5.5-13.1,12.5-14.4c7.7-1.5,15.4,2,20.4,7.8c15.8-1.7,26-5.7,28.4,1.7
					c1.2,10.5,6.4,31.2,8,43.6C744.9-95.5,746.4-93.8,740.7-93.2z M677.6-151.9c9.1-1.9,17.3-3.6,24.6-5c-3.9-3.6-9.2-5.6-14.5-4.9
					C682.6-161.1,677.9-157.1,677.6-151.9z M674.2-84.1c-1.4-2.9-2.2-6.1-2.8-9.2c-1.6-8.6-2.2-17.3-3.1-26
					c-5.2-29.2-0.1-26.1-23.3-23c-1.2,10.5,8.3,49,9.4,59.1C655.1-82.6,658.6-81.6,674.2-84.1z M723-117.2
					c-10.9-49.3-1.9-38.7-50-30.1c-14.1,1.1-5.4,5.5-4.7,15.2c1.9,9.2,2.3,18.5,3.3,27.8c0.9,6.7,1.4,13.7,4.4,19.9
					c11.3-1.9,24.9-4.8,36.9-7.3C735.9-95.7,725.1-93.7,723-117.2z M731.6-155.9c-0.7-0.4-3.7-1.2-16.1,0.5c2,4,2.3,8.6,3.4,12.9
					c3.1,12.9,6.2,25.9,8.3,39.1c0.5,12.2,8.9,6,13.7,6.7C742.1-107.3,732.6-145.8,731.6-155.9z"/>
			</g>
			<path class="st2" d="M642.5-231.6c-1.3-1.4-2.5-2.4-3.2-3.6c-0.6-1.1-1.2-2.6-0.9-3.7c0.2-0.9,2-2.1,2.6-1.9
				c1.5,0.5,3.7,1.6,3.8,2.7c0.4,4.8,3.5,5.3,7.3,6.1c10.5,2.3,21,5.1,31.4,7.9c2.9,0.8,5.5,1.2,8.3-0.6c1.8-1.2,4.1-1.4,5.7,0.7
				c1.6,2,0.6,4.6-1.9,5.4c-1.7,0.5-3.6,0.8-5.6,1.3c0.6,1.3,1.4,2.3,1.6,3.5c0.1,1.2,0,3-0.7,3.7c-0.8,0.8-2.9,1.3-3.7,0.7
				c-1.6-1-3.1-2.6-3.8-4.3c-0.8-2-1.8-3.3-3.9-3.8c-10-2.3-20-4.7-30-7.1c-2.4-0.6-4.5-0.5-6.2,1.9c-1.5,2.2-4.3,1.9-6.3,0.7
				c-1.3-0.7-2.3-2.7-2.5-4.2c-0.3-2.3,1.5-3.5,3.6-4.1C639.5-230.5,640.8-231,642.5-231.6z"/>
		</g>
		<g>
			<g>
				<path class="st1" d="M228.2-565.1c-4.5-1.6-9-3.3-13.9-3.5c-3.3-0.1-6.5,0.5-9.7,1.3c-1.5,0.4-3,0.7-4.5,0.6
					c-3.1-0.2-4.8-1.8-5.1-4.9c-0.4-3.3-0.2-6.5,1.9-9.3c0.7-0.9,1.9-1.8,3-2.1c2.9-0.7,5-2.6,6.7-4.8c0.9-1.1,1.5-2.3,2.3-3.5
					c1.3-2,3.1-3.5,5.5-4.1c3.1-0.7,5.5,0.6,7.3,2.8c1.2,1.5,1.9,3.5,3,5.1c1.1,1.6,2.4,3.2,3.7,4.6c0.4,0.5,1.1,0.9,1.8,1
					c3.1,0.8,4.5,3.1,4.8,6.1c0.2,1.8,0.1,3.6-0.1,5.4c-0.2,2.7-1.6,4.5-4.3,5.2C229.9-565.1,229.1-565.1,228.2-565.1z"/>
				<path class="st1" d="M242.8-592.6c-0.5,1.5-0.9,3.1-1.6,4.4c-1.8,3.2-6.1,5.1-9.1,4.3c-3.7-1-5.5-3.8-4.6-7.5
					c1.1-4.6,3.7-8.1,7.7-10.7c2.4-1.5,4.5-1,6,1.4c0.8,1.2,1.2,2.7,1.7,4C242.8-595.2,242.8-593.9,242.8-592.6z"/>
				<path class="st1" d="M224.6-596.4c-3.4-0.3-5.6-2-6.3-5.2c-1-5,0.6-9.5,3.6-13.4c1.5-2,3.8-2.1,5.8-0.7c2.8,2,4,4.9,4.5,8.1
					c0.7,4.3-0.9,7.6-4.5,9.9C226.8-597,225.6-596.8,224.6-596.4z"/>
				<path class="st1" d="M202.4-607c0.5-3.6,1.7-7.5,6-9.7c2.1-1.1,3.7-0.8,5.2,1c1.9,2.3,2.5,5.1,2.9,7.9c0.3,2.3,0.3,4.6-0.7,6.7
					c-1.8,4-6.5,5-9.8,2.2C203.5-601.1,202.4-603.3,202.4-607z"/>
				<path class="st1" d="M205.2-591.8c0.1,2.3-0.7,4.2-2.9,5.5c-2.6,1.5-5.1,1-7.5-0.5c-3.9-2.3-4.8-6-4.6-10.2
					c0.1-2.6,1-4.9,2.9-6.7c1.5-1.4,3.2-1.8,4.9-0.6c1.2,0.8,2.3,1.8,3.2,2.9C203.6-598.8,205.3-594.8,205.2-591.8z"/>
			</g>
			<g>
				<path class="st1" d="M615.8-145.9c-4.5-1.6-9-3.3-13.9-3.5c-3.3-0.1-6.5,0.5-9.7,1.3c-1.5,0.4-3,0.7-4.5,0.6
					c-3.1-0.2-4.8-1.8-5.1-4.9c-0.4-3.3-0.2-6.5,1.9-9.3c0.7-0.9,1.9-1.8,3-2.1c2.9-0.7,5-2.6,6.7-4.8c0.9-1.1,1.5-2.3,2.3-3.5
					c1.3-2,3.1-3.5,5.5-4.1c3.1-0.7,5.5,0.6,7.3,2.8c1.2,1.5,1.9,3.5,3,5.1c1.1,1.6,2.4,3.2,3.7,4.6c0.4,0.5,1.1,0.9,1.8,1
					c3.1,0.8,4.5,3.1,4.8,6.1c0.2,1.8,0.1,3.6-0.1,5.4c-0.2,2.7-1.6,4.5-4.3,5.2C617.5-145.9,616.7-145.9,615.8-145.9z"/>
				<path class="st1" d="M630.3-173.4c-0.5,1.5-0.9,3.1-1.6,4.4c-1.8,3.2-6.1,5.1-9.1,4.3c-3.7-1-5.5-3.8-4.6-7.5
					c1.1-4.6,3.7-8.1,7.7-10.7c2.4-1.5,4.5-1,6,1.4c0.8,1.2,1.2,2.7,1.7,4C630.3-176,630.3-174.7,630.3-173.4z"/>
				<path class="st1" d="M612.2-177.1c-3.4-0.3-5.6-2-6.3-5.2c-1-5,0.6-9.5,3.6-13.4c1.5-2,3.8-2.1,5.8-0.7c2.8,2,4,4.9,4.5,8.1
					c0.7,4.3-0.9,7.6-4.5,9.9C614.4-177.8,613.2-177.6,612.2-177.1z"/>
				<path class="st1" d="M590-187.8c0.5-3.6,1.7-7.5,6-9.7c2.1-1.1,3.7-0.8,5.2,1c1.9,2.3,2.5,5.1,2.9,7.9c0.3,2.3,0.3,4.6-0.7,6.7
					c-1.8,4-6.5,5-9.8,2.2C591.1-181.9,590-184.1,590-187.8z"/>
				<path class="st1" d="M592.8-172.6c0.1,2.3-0.7,4.2-2.9,5.5c-2.6,1.5-5.1,1-7.5-0.5c-3.9-2.3-4.8-6-4.6-10.2
					c0.1-2.6,1-4.9,2.9-6.7c1.5-1.4,3.2-1.8,4.9-0.6c1.2,0.8,2.3,1.8,3.2,2.9C591.2-179.6,592.8-175.6,592.8-172.6z"/>
			</g>
			<g>
				<path class="st1" d="M655.2-466c-4.5-1.6-9-3.3-13.9-3.5c-3.3-0.1-6.5,0.5-9.7,1.3c-1.5,0.4-3,0.7-4.5,0.6
					c-3.1-0.2-4.8-1.8-5.1-4.9c-0.4-3.3-0.2-6.5,1.9-9.3c0.7-0.9,1.9-1.8,3-2.1c2.9-0.7,5-2.6,6.7-4.8c0.9-1.1,1.5-2.3,2.3-3.5
					c1.3-2,3.1-3.5,5.5-4.1c3.1-0.7,5.5,0.6,7.3,2.8c1.2,1.5,1.9,3.5,3,5.1c1.1,1.6,2.4,3.2,3.7,4.6c0.4,0.5,1.1,0.9,1.8,1
					c3.1,0.8,4.5,3.1,4.8,6.1c0.2,1.8,0.1,3.6-0.1,5.4c-0.2,2.7-1.6,4.5-4.3,5.2C656.9-466,656.1-466,655.2-466z"/>
				<path class="st1" d="M669.8-493.4c-0.5,1.5-0.9,3.1-1.6,4.4c-1.8,3.2-6.1,5.1-9.1,4.3c-3.7-1-5.5-3.8-4.6-7.5
					c1.1-4.6,3.7-8.1,7.7-10.7c2.4-1.5,4.5-1,6,1.4c0.8,1.2,1.2,2.7,1.7,4C669.8-496.1,669.8-494.8,669.8-493.4z"/>
				<path class="st1" d="M651.6-497.2c-3.4-0.3-5.6-2-6.3-5.2c-1-5,0.6-9.5,3.6-13.4c1.5-2,3.8-2.1,5.8-0.7c2.8,2,4,4.9,4.5,8.1
					c0.7,4.3-0.9,7.6-4.5,9.9C653.8-497.9,652.6-497.6,651.6-497.2z"/>
				<path class="st1" d="M629.4-507.9c0.5-3.6,1.7-7.5,6-9.7c2.1-1.1,3.7-0.8,5.2,1c1.9,2.3,2.5,5.1,2.9,7.9
					c0.3,2.3,0.3,4.6-0.7,6.7c-1.8,4-6.5,5-9.8,2.2C630.5-501.9,629.4-504.2,629.4-507.9z"/>
				<path class="st1" d="M632.3-492.7c0.1,2.3-0.7,4.2-2.9,5.5c-2.6,1.5-5.1,1-7.5-0.5c-3.9-2.3-4.8-6-4.6-10.2
					c0.1-2.6,1-4.9,2.9-6.7c1.5-1.4,3.2-1.8,4.9-0.6c1.2,0.8,2.3,1.8,3.2,2.9C630.6-499.7,632.3-495.7,632.3-492.7z"/>
			</g>
			<g>
				<path class="st1" d="M350.8-224c-2.2,1.2-4.5,2.3-6.3,4.1c-1.2,1.2-2.2,2.7-3,4.2c-0.4,0.7-0.8,1.4-1.4,1.9
					c-1.2,1.1-2.4,1.2-3.7,0.2c-1.4-1-2.6-2.3-2.9-4.1c-0.1-0.6,0-1.4,0.3-1.9c0.8-1.4,0.8-2.8,0.6-4.3c-0.1-0.7-0.4-1.4-0.5-2.2
					c-0.3-1.2-0.2-2.5,0.4-3.6c0.8-1.4,2.2-1.9,3.7-1.8c1,0.1,2,0.5,3.1,0.7c1,0.2,2.1,0.2,3.1,0.3c0.3,0,0.7-0.1,1-0.3
					c1.5-0.9,2.8-0.6,4.1,0.3c0.8,0.6,1.4,1.3,2,2c0.9,1,1.1,2.2,0.5,3.5C351.4-224.7,351.1-224.4,350.8-224z"/>
				<path class="st1" d="M345.5-239.5c0.4,0.7,0.9,1.4,1.1,2.2c0.6,1.8-0.2,4.2-1.6,5.1c-1.7,1-3.4,0.8-4.5-0.9
					c-1.4-2.1-1.8-4.4-1.3-6.8c0.3-1.5,1.2-2.1,2.7-1.8c0.7,0.1,1.4,0.5,2.2,0.8C344.5-240.5,345-240,345.5-239.5z"/>
				<path class="st1" d="M337.5-233.9c-1.3,1.2-2.8,1.4-4.3,0.5c-2.3-1.4-3.4-3.6-3.9-6.2c-0.2-1.3,0.6-2.2,1.8-2.5
					c1.8-0.4,3.3,0.2,4.8,1.2c1.9,1.3,2.6,3.1,2.2,5.3C338-235,337.7-234.4,337.5-233.9z"/>
				<path class="st1" d="M325.4-229.2c-1.2-1.5-2.3-3.4-1.6-5.8c0.3-1.2,1-1.7,2.3-1.6c1.6,0.1,2.8,0.9,4.1,1.7
					c1,0.7,1.9,1.5,2.3,2.7c0.9,2.1-0.4,4.3-2.7,4.6C328.1-227.5,326.8-227.9,325.4-229.2z"/>
				<path class="st1" d="M332.3-224.8c0.9,0.8,1.4,1.8,1.1,3.1c-0.4,1.5-1.5,2.3-2.9,2.7c-2.3,0.7-4-0.3-5.6-1.9
					c-1-1-1.5-2.1-1.5-3.5c0-1.1,0.5-1.9,1.5-2.1c0.7-0.2,1.5-0.2,2.3-0.2C329-226.7,331.1-225.9,332.3-224.8z"/>
			</g>
			<g>
				<path class="st1" d="M430.7-371.4c-2.2,1.2-4.5,2.3-6.3,4.1c-1.2,1.2-2.2,2.7-3,4.2c-0.4,0.7-0.8,1.4-1.4,1.9
					c-1.2,1.1-2.4,1.2-3.7,0.2c-1.4-1-2.6-2.3-2.9-4.1c-0.1-0.6,0-1.4,0.3-1.9c0.8-1.4,0.8-2.8,0.6-4.3c-0.1-0.7-0.4-1.4-0.5-2.2
					c-0.3-1.2-0.2-2.5,0.4-3.6c0.8-1.4,2.2-1.9,3.7-1.8c1,0.1,2,0.5,3.1,0.7c1,0.2,2.1,0.2,3.1,0.3c0.3,0,0.7-0.1,1-0.3
					c1.5-0.9,2.8-0.6,4.1,0.3c0.8,0.6,1.4,1.3,2,2c0.9,1,1.1,2.2,0.5,3.5C431.3-372.1,431-371.8,430.7-371.4z"/>
				<path class="st1" d="M425.4-386.9c0.4,0.7,0.9,1.4,1.1,2.2c0.6,1.8-0.2,4.2-1.6,5.1c-1.7,1-3.4,0.8-4.5-0.9
					c-1.4-2.1-1.8-4.4-1.3-6.8c0.3-1.5,1.2-2.1,2.7-1.8c0.7,0.1,1.4,0.5,2.2,0.8C424.3-387.9,424.9-387.4,425.4-386.9z"/>
				<path class="st1" d="M417.4-381.3c-1.3,1.2-2.8,1.4-4.3,0.5c-2.3-1.4-3.4-3.6-3.9-6.2c-0.2-1.3,0.6-2.2,1.8-2.5
					c1.8-0.4,3.3,0.2,4.8,1.2c1.9,1.3,2.6,3.1,2.2,5.3C417.9-382.4,417.6-381.8,417.4-381.3z"/>
				<path class="st1" d="M405.3-376.6c-1.2-1.5-2.3-3.4-1.6-5.8c0.3-1.2,1-1.7,2.3-1.6c1.6,0.1,2.8,0.9,4.1,1.7
					c1,0.7,1.9,1.5,2.3,2.7c0.9,2.1-0.4,4.3-2.7,4.6C408-374.9,406.7-375.3,405.3-376.6z"/>
				<path class="st1" d="M412.1-372.2c0.9,0.8,1.4,1.8,1.1,3.1c-0.4,1.5-1.5,2.3-2.9,2.7c-2.3,0.7-4-0.3-5.6-1.9
					c-1-1-1.5-2.1-1.5-3.5c0-1.1,0.5-1.9,1.5-2.1c0.7-0.2,1.5-0.2,2.3-0.2C408.9-374.1,411-373.3,412.1-372.2z"/>
			</g>
			<path class="st1" d="M242-426.6c-4.2,3.1-10.1,11.2-15.5,6c-2.3-3.4,4.9-5.7,6.6-8.2c1.1-5.4-6,2.2-8.1,3.6
				c-7.6,1.4,2.7-6.5,4.6-7.8c0.9-5.4-6.1,2.2-8.1,3.6c-1.7,1.6-3.8-1.1-2-2.4c1.9-1.7,10.7-7.5,5.1-7.2c-2.7,1.3-5.8,7.1-8.9,5.3
				c-1.5-3.9,7.6-5.6,7.2-8.9c-2.8-3.5-7,7.3-10.7,4.7c-1.7-3.9,7.7-5.6,7.2-9c-2.8-3.4-7,7.4-10.7,4.7c-1-3.6,5.7-5.7,7.7-8.4
				c-2.9-5.2-7.3,6.8-11.2,4.1c-0.6-0.7-0.5-1.7,0.4-2.4c1.8-2.5,9.3-4.8,5.8-7.7c-1.7,1.4-12.3,11.1-9.3,3.5
				c1.8-2.5,9.2-4.8,5.7-7.8c-3,1.5-6.2,7.4-9.6,5.9c-1.2-3,5.6-6.6,8-7.9c-3.1-5.8-7,5.2-11.1,3.9c-2.4-3.2,5-5.8,6.7-8.1
				c0.3-7.1-7.7,6.6-10.6,3.6c-1-3.7,5.7-5.6,7.7-8.4c-2.9-5.2-7.2,6.8-11.2,4.1c-2-4.2,10.2-6.3,6.4-9.8c-2.8,0.9-5.1,4.1-7.7,5.8
				c-7.6,0.5,3.9-6.9,5.5-8.6c-2.9-5-7.2,6.9-11.1,4.2c-1-3.6,5.7-5.6,7.7-8.4c-2.2-3.8-5.9,3-8.6,4.2c-4.8,2.2-4.6-7-1.1-8.7
				c4.7-3.8,11.1-11.3,16.7-4.5c5.6,6.9,11.3,13.7,16.9,20.6C217-463,252.1-434.3,242-426.6z"/>
			<path class="st1" d="M458.4-536.6c-4.2,3.1-10.1,11.2-15.5,6c-2.3-3.4,4.9-5.7,6.6-8.2c1.1-5.4-6,2.2-8.1,3.6
				c-7.6,1.4,2.7-6.5,4.6-7.8c0.9-5.4-6.1,2.2-8.1,3.6c-1.7,1.6-3.8-1.1-2-2.4c1.9-1.7,10.7-7.5,5.1-7.2c-2.7,1.3-5.8,7.1-8.9,5.3
				c-1.5-3.9,7.6-5.6,7.2-8.9c-2.8-3.5-7,7.3-10.7,4.7c-1.7-3.9,7.7-5.6,7.2-9c-2.8-3.4-7,7.4-10.7,4.7c-1-3.6,5.7-5.7,7.7-8.4
				c-2.9-5.2-7.3,6.8-11.2,4.1c-0.6-0.7-0.5-1.7,0.4-2.4c1.8-2.5,9.3-4.8,5.8-7.7c-1.7,1.4-12.3,11.1-9.3,3.5
				c1.8-2.5,9.2-4.8,5.7-7.8c-3,1.5-6.2,7.4-9.6,5.9c-1.2-3,5.6-6.6,8-7.9c-3.1-5.8-7,5.2-11.1,3.9c-2.4-3.2,5-5.8,6.7-8.1
				c0.3-7.1-7.7,6.6-10.6,3.6c-1-3.7,5.7-5.6,7.7-8.4c-2.9-5.2-7.2,6.8-11.2,4.1c-2-4.2,10.2-6.3,6.4-9.8c-2.8,0.9-5.1,4.1-7.7,5.8
				c-7.6,0.5,3.9-6.9,5.5-8.6c-2.9-5-7.2,6.9-11.1,4.2c-1-3.6,5.7-5.6,7.7-8.4c-2.2-3.8-5.9,3-8.6,4.2c-4.8,2.2-4.6-7-1.1-8.7
				c4.7-3.8,11.1-11.3,16.7-4.5c5.6,6.9,11.3,13.7,16.9,20.6C433.4-573,468.5-544.3,458.4-536.6z"/>
			<path class="st1" d="M684.8-272.7c-4.2,3.1-10.1,11.2-15.5,6c-2.3-3.4,4.9-5.7,6.6-8.2c1.1-5.4-6,2.2-8.1,3.6
				c-7.6,1.4,2.7-6.5,4.6-7.8c0.9-5.4-6.1,2.2-8.1,3.6c-1.7,1.6-3.8-1.1-2-2.4c1.9-1.7,10.7-7.5,5.1-7.2c-2.7,1.3-5.8,7.1-8.9,5.3
				c-1.5-3.9,7.6-5.6,7.2-8.9c-2.8-3.5-7,7.3-10.7,4.7c-1.7-3.9,7.7-5.6,7.2-9c-2.8-3.4-7,7.4-10.7,4.7c-1-3.6,5.7-5.7,7.7-8.4
				c-2.9-5.2-7.3,6.8-11.2,4.1c-0.6-0.7-0.5-1.7,0.4-2.4c1.8-2.5,9.3-4.8,5.8-7.7c-1.7,1.4-12.3,11.1-9.3,3.5
				c1.8-2.5,9.2-4.8,5.7-7.8c-3,1.5-6.2,7.4-9.6,5.9c-1.2-3,5.6-6.6,8-7.9c-3.1-5.8-7,5.2-11.1,3.9c-2.4-3.2,5-5.8,6.7-8.1
				c0.3-7.1-7.7,6.6-10.6,3.6c-1-3.7,5.7-5.6,7.7-8.4c-2.9-5.2-7.2,6.8-11.2,4.1c-2-4.2,10.2-6.3,6.4-9.8c-2.8,0.9-5.1,4.1-7.7,5.8
				c-7.6,0.5,3.9-6.9,5.5-8.6c-2.9-5-7.2,6.9-11.1,4.2c-1-3.6,5.7-5.6,7.7-8.4c-2.2-3.8-5.9,3-8.6,4.2c-4.8,2.2-4.6-7-1.1-8.7
				c4.7-3.8,11.1-11.3,16.7-4.5c5.6,6.9,11.3,13.7,16.9,20.6C659.8-309.2,694.8-280.4,684.8-272.7z"/>
			<path class="st1" d="M288.9-178.4c-4.2,3.1-10.1,11.2-15.5,6c-2.3-3.4,4.9-5.7,6.6-8.2c1.1-5.4-6,2.2-8.1,3.6
				c-7.6,1.4,2.7-6.5,4.6-7.8c0.9-5.4-6.1,2.2-8.1,3.6c-1.7,1.6-3.8-1.1-2-2.4c1.9-1.7,10.7-7.5,5.1-7.2c-2.7,1.3-5.8,7.1-8.9,5.3
				c-1.5-3.9,7.6-5.6,7.2-8.9c-2.8-3.5-7,7.3-10.7,4.7c-1.7-3.9,7.7-5.6,7.2-9c-2.8-3.4-7,7.4-10.7,4.7c-1-3.6,5.7-5.7,7.7-8.4
				c-2.9-5.2-7.3,6.8-11.2,4.1c-0.6-0.7-0.5-1.7,0.4-2.4c1.8-2.5,9.3-4.8,5.8-7.7c-1.7,1.4-12.3,11.1-9.3,3.5
				c1.8-2.5,9.2-4.8,5.7-7.8c-3,1.5-6.2,7.4-9.6,5.9c-1.2-3,5.6-6.6,8-7.9c-3.1-5.8-7,5.2-11.1,3.9c-2.4-3.2,5-5.8,6.7-8.1
				c0.3-7.1-7.7,6.6-10.6,3.6c-1-3.7,5.7-5.6,7.7-8.4c-2.9-5.2-7.2,6.8-11.2,4.1c-2-4.2,10.2-6.3,6.4-9.8c-2.8,0.9-5.1,4.1-7.7,5.8
				c-7.6,0.5,3.9-6.9,5.5-8.6c-2.9-5-7.2,6.9-11.1,4.2c-1-3.6,5.7-5.6,7.7-8.4c-2.2-3.8-5.9,3-8.6,4.2c-4.8,2.2-4.6-7-1.1-8.7
				c4.7-3.8,11.1-11.3,16.7-4.5c5.6,6.9,11.3,13.7,16.9,20.6C263.9-214.9,299-186.1,288.9-178.4z"/>
			<g>
				<path class="st1" d="M506.8-337.3c-0.4-8.2-7.8-15.1-17.7-15.1c-4.6,0-9.3,1.7-12.5,4.4c-3.1,2.6-5.4,6.9-5.2,10.7
					c0.4,8.2,7.8,15.1,17.7,15.1c4.6,0,9.3-1.7,12.5-4.4C504.7-329.2,507-333.5,506.8-337.3z"/>
				<path class="st1" d="M482.6-364.8c-6.2,0-6.2,8.2,0,8.2C488.8-356.6,488.8-364.8,482.6-364.8z"/>
				<path class="st1" d="M497.7-380c-4.3,0-4.3,5.7,0,5.7C502-374.3,502-380,497.7-380z"/>
				<path class="st1" d="M523.5-361.8c-0.2-3.9-3.8-7.3-8.6-7.3c-4.5,0-8.8,3.4-8.6,7.3c0.2,3.9,3.8,7.3,8.6,7.3
					C519.4-354.5,523.7-357.9,523.5-361.8z"/>
			</g>
			<g>
				<path class="st1" d="M147.8-578.7c-4.5,4-11.6,29.2,0.5,24.5c6.8-4.2,2.7-16.4-5.6-13.6c-7.9,3.5-3.8,19.8-2.7,26.6
					c0.2,0.7,1.3,0.5,1.1-0.2c-1.3-5.7-2-11.6-1.8-17.4c-0.9-13.7,16.7-8.1,9.6,2.5c-1.4,1.7-4.2,2.7-5.5,0.2
					c-2.2-7.4,0.8-15.9,5.2-22C149.2-578.6,148.3-579.3,147.8-578.7L147.8-578.7z"/>
				<g>
					<path class="st1" d="M171.5-598c-3,0.3-6.3,0.2-8.8,2.2c-5.6,3.1-9,18.6-13.6,18.2c-11.2-2.1,8.1-20.4,7.8-26.2
						C156.4-612,146-614,140-617.3c-7.4-1.6-4.9-4.4-1.1-8.7c1.1-0.9,3.9-6.3,5.1-4.2c4.1,1.7,8,3.9,12.4,4.6
						c7.9,0.2,16.6,1.3,21.4,8.4c1.1-0.2,0.5,0.9,0.9,1.3C183.1-609.3,180.1-598.7,171.5-598z M171.2-599.1
						c-4.2-6.2,0.6-13.6,5.8-17.5c-8.2-11.3-20.4-4.9-32-12c1.5,4.1-1.6,8.8-5.6,9.9c7.2,3.5,21.1,6.9,18.2,17.4
						c-2,5.1-6.2,8.8-8.4,13.8c-0.8,2.6-5,8-0.2,8.7c5.3-0.8,7.1-17.6,16.5-19.6C167.2-598.9,169.2-598.9,171.2-599.1z"/>
					<path class="st1" d="M130.6-627.4c-0.6-1.9,1.7,0.2,1.7-4.5c1.2-1,2.4,0.1,3-2.5c0.2-0.7-0.9-1.1-1.1-0.4
						c-0.1,0.4-0.2,1-0.6,1.3c-1.8,0-2.7,1-2.6,2.8c0.2,1.4-1,1.1-1.6,1.9c-0.5,1.1,0.3,2.4,0.4,3.6c0.1,0.7,1.2,0.5,1.1-0.2
						C130.9-626.1,130.7-626.8,130.6-627.4z"/>
					<path class="st1" d="M137.7-630.1c0-0.8,1.1-1.1,1.3-1.8c0.3-0.6-0.1-1.7,0.5-2c2-0.9-1.4-2.2-1.5,0.7c0,2-2,1.6-1.3,4.4
						c0.1,1.3-1.6,0.6-1.9,1.5C135.7-625.4,138.6-627.8,137.7-630.1z"/>
					<path class="st1" d="M168.7-618.3c-4.8-5.7-13.4-2.5-19.4-5.6c-0.6-0.3-1,0.7-0.4,1.1c5.9,3.1,14.1-0.1,18.9,5.3
						C168.3-617,169.1-617.7,168.7-618.3z"/>
					<path class="st1" d="M169.1-616.9c-0.7,0.1-0.5,1.2,0.2,1.1C170-615.9,169.8-617,169.1-616.9z"/>
				</g>
			</g>
			<g>
				<path class="st1" d="M190.8-338c-1.8,7.8-10.7,11.5-12.1,12.1c-9-4-14.2-10.6-13.2-15.9c0.5-2.4,2.5-6.2,6-6.6
					c2.7-0.3,5.5,1.5,7.1,4.4c1.6-3,4.4-4.7,7.1-4.4c2.2,0.3,3.5,1.8,3.8,2.2C192-343.5,191.1-339.5,190.8-338z M178.6-337.8
					c0.2,0.3,0.5,0.4,0.9,0.5c0.6,0.1,1-0.3,1.3-0.7c0.5-0.7,0.3-2.2-0.5-2.8c-0.2-0.2-0.5-0.3-0.8-0.5c0,0-0.1,0-0.1,0
					c-0.6,0.2-0.8,0.7-1,1.2c-0.1,0.3-0.1,0.7-0.2,1.1C178.3-338.6,178.4-338.2,178.6-337.8z M175.3-338.4c0.2,0.6,0.9,1.3,1.5,1.2
					c0.7,0,1-0.3,1.2-1c0.2-0.9-0.1-1.8-0.6-2.5c-0.3-0.5-0.8-0.5-1.3-0.2C175.3-340.4,175.1-339.1,175.3-338.4z M174.5-334.8
					c1,0.4,1.8-0.3,1.8-1.1c0.1-0.8-1.1-2.2-1.7-2.5c-0.4-0.1-0.7-0.1-1,0.3c-0.4,0.6-0.4,1.2-0.3,1.9
					C173.4-335.5,173.8-335,174.5-334.8z M182.4-333.8c-0.2-0.4-0.5-0.7-0.9-0.8c-0.2,0-0.4-0.2-0.6-0.3c-0.4-0.3-0.7-0.8-1-1.2
					c-0.7-1.2-2.1-1.2-2.8,0c-0.2,0.3-0.4,0.7-0.6,1c-0.3,0.4-0.6,0.7-1.1,0.9c-0.2,0.1-0.4,0.3-0.5,0.5c-0.2,0.3-0.3,0.7-0.3,1.1
					c0,0.2,0,0.4,0.1,0.7c0.1,0.6,0.6,1,1.2,0.9c0.3,0,0.5-0.1,0.8-0.2c0.9-0.3,1.9-0.5,2.8-0.4c0.5,0.1,1,0.2,1.5,0.3
					c0.8,0.2,1.3-0.2,1.4-1C182.6-332.8,182.6-333.3,182.4-333.8z M183-338.6c-0.4-0.4-0.8-0.4-1.1-0.1c-0.2,0.1-0.4,0.3-0.5,0.5
					c-0.4,0.5-0.7,1.1-0.8,1.5c0,0.9,0.3,1.4,0.9,1.5c0.6,0.2,1-0.1,1.4-0.4C183.6-336.1,183.7-337.8,183-338.6z"/>
				<path class="st1" d="M217.9-294.2c1.2-5.7-3.3-23.2,3.9-24.1c2.2-0.2,4.4,0,6.6-0.3c3.5-0.4,6-4.9,3.2-7.4
					c-6.1-5.5-12.4-10.7-18.6-16.1c-9.3-7.7-18-16.2-27.7-23.4c-8-4.2-14.6,2.7-20.1,7.6c-12.3,10.6-24.7,21.1-36.8,31.8
					c-3.6,3.5,0.9,8,4.8,7.7c2.8,0.1,6.5-0.7,8.2,2.2c1.8,11.3,0.1,23.4,0.7,35c-0.4,2.6,0.9,6-0.6,8.2c-0.7,0.3-1.3-0.1-1.3-0.9
					c0-11.7,0-23.3,0-35c-0.3-2.6,1.2-7.2-2.6-7.5c-4.8,0.2-11.7-0.1-12.4-6.3c-0.3-5.3,5.9-7.6,9-11c5.5-4.7,10.9-9.4,16.4-14.1
					c7.7-5.4,19.4-19.9,27.9-20.8c9.4-1,15.2,8.3,22.1,13.3c10.6,9.2,21.4,18.3,32,27.6c3.3,3,2.4,7.4-0.7,9.6
					c-3.1,2.5-7.1,1-10.6,1.9c-4,4.8-0.5,25.1-1.6,32.8c-0.5,2,1.3,10.8-1.4,10.3C216.9-279.5,218.4-287.4,217.9-294.2z"/>
				<path class="st1" d="M179.7-365.4c9.9,0.8,15.4,10.8,23.1,15.9c6.8,5.9,13.7,11.8,20.5,17.6c1.6,2,8.5,5.8,7.8,8
					c-1.9,1.1-4.4-3.1-6.2-4c-7.7-6.6-15.3-13.2-23-19.8c-8.4-5.4-18.3-22.6-29-12.8c-11.1,9.6-22.2,19.1-33.3,28.7
					c-2.4,1.3-8.8,9.3-10.8,8c-0.7-2.1,5.5-5.3,6.8-7.1c4.8-4.1,9.5-8.2,14.3-12.3c4.6-3.9,9.1-7.9,13.7-11.8
					C168.7-358.7,173.1-365.3,179.7-365.4z"/>
				<g>
					<path class="st1" d="M140.3-277.3c-8.2,2.7,24.5,4.3,26.5,4.5c0,0,0.1-1.8,0.1-1.8C158.1-275.1,149.1-276,140.3-277.3z"/>
					<path class="st1" d="M223.4-278.4c-9.6,1.7-19.2,2.9-28.9,3.5c-1.6,4.2,18.7-0.6,21.9-0.5c2.5-0.4,4.8-0.8,7.3-1.2L223.4-278.4
						z"/>
				</g>
				<path class="st1" d="M192.9-312.9c-30.4-20.7-28.4,24.6-27.4,42.5c10.5,0.6,21,0.5,31.5-0.2
					C197.7-278.2,200.4-306.6,192.9-312.9z"/>
			</g>
			<g>
				<path class="st1" d="M572.8-309.9c-1.8,7.8-10.7,11.5-12.1,12.1c-9-4-14.2-10.6-13.2-15.9c0.5-2.4,2.5-6.2,6-6.6
					c2.7-0.3,5.5,1.5,7.1,4.4c1.6-3,4.4-4.7,7.1-4.4c2.2,0.3,3.5,1.8,3.8,2.2C574-315.4,573.1-311.4,572.8-309.9z M560.7-309.7
					c0.2,0.3,0.5,0.4,0.9,0.5c0.6,0.1,1-0.3,1.3-0.7c0.5-0.7,0.3-2.2-0.5-2.8c-0.2-0.2-0.5-0.3-0.8-0.5c0,0-0.1,0-0.1,0
					c-0.6,0.2-0.8,0.7-1,1.2c-0.1,0.3-0.1,0.7-0.2,1.1C560.3-310.5,560.4-310.1,560.7-309.7z M557.3-310.3c0.2,0.6,0.9,1.3,1.5,1.2
					c0.7,0,1-0.3,1.2-1c0.2-0.9-0.1-1.8-0.6-2.5c-0.3-0.5-0.8-0.5-1.3-0.2C557.4-312.2,557.1-311,557.3-310.3z M556.5-306.6
					c1,0.4,1.8-0.3,1.8-1.1c0.1-0.8-1.1-2.2-1.7-2.5c-0.4-0.1-0.7-0.1-1,0.3c-0.4,0.6-0.4,1.2-0.3,1.9
					C555.5-307.3,555.9-306.9,556.5-306.6z M564.4-305.7c-0.2-0.4-0.5-0.7-0.9-0.8c-0.2,0-0.4-0.2-0.6-0.3c-0.4-0.3-0.7-0.8-1-1.2
					c-0.7-1.2-2.1-1.2-2.8,0c-0.2,0.3-0.4,0.7-0.6,1c-0.3,0.4-0.6,0.7-1.1,0.9c-0.2,0.1-0.4,0.3-0.5,0.5c-0.2,0.3-0.3,0.7-0.3,1.1
					c0,0.2,0,0.4,0.1,0.7c0.1,0.6,0.6,1,1.2,0.9c0.3,0,0.5-0.1,0.8-0.2c0.9-0.3,1.9-0.5,2.8-0.4c0.5,0.1,1,0.2,1.5,0.3
					c0.8,0.2,1.3-0.2,1.4-1C564.7-304.7,564.6-305.2,564.4-305.7z M565-310.4c-0.4-0.4-0.8-0.4-1.1-0.1c-0.2,0.1-0.4,0.3-0.5,0.5
					c-0.4,0.5-0.7,1.1-0.8,1.5c0,0.9,0.3,1.4,0.9,1.5c0.6,0.2,1-0.1,1.4-0.4C565.7-307.9,565.8-309.7,565-310.4z"/>
				<path class="st1" d="M600-266.1c1.2-5.7-3.3-23.2,3.9-24.1c2.2-0.2,4.4,0,6.6-0.3c3.5-0.4,6-4.9,3.2-7.4
					c-6.1-5.5-12.4-10.7-18.6-16.1c-9.3-7.7-18-16.2-27.7-23.4c-8-4.2-14.6,2.7-20.1,7.6c-12.3,10.6-24.7,21.1-36.8,31.8
					c-3.6,3.5,0.9,8,4.8,7.7c2.8,0.1,6.5-0.7,8.2,2.2c1.8,11.3,0.1,23.4,0.7,35c-0.4,2.6,0.9,6-0.6,8.2c-0.7,0.3-1.3-0.1-1.3-0.9
					c0-11.7,0-23.3,0-35c-0.3-2.6,1.2-7.2-2.6-7.5c-4.8,0.2-11.7-0.1-12.4-6.3c-0.3-5.3,5.9-7.6,9-11c5.5-4.7,10.9-9.4,16.4-14.1
					c7.7-5.4,19.4-19.9,27.9-20.8c9.4-1,15.2,8.3,22.1,13.3c10.6,9.2,21.4,18.3,32,27.6c3.3,3,2.4,7.4-0.7,9.6
					c-3.1,2.5-7.1,1-10.6,1.9c-4,4.8-0.5,25.1-1.6,32.8c-0.5,2,1.3,10.8-1.4,10.3C599-251.4,600.5-259.2,600-266.1z"/>
				<path class="st1" d="M561.7-337.3c9.9,0.8,15.4,10.8,23.1,15.9c6.8,5.9,13.7,11.8,20.5,17.6c1.6,2,8.5,5.8,7.8,8
					c-1.9,1.1-4.4-3.1-6.2-4c-7.7-6.6-15.3-13.2-23-19.8c-8.4-5.4-18.3-22.6-29-12.8c-11.1,9.6-22.2,19.1-33.3,28.7
					c-2.4,1.3-8.8,9.3-10.8,8c-0.7-2.1,5.5-5.3,6.8-7.1c4.8-4.1,9.5-8.2,14.3-12.3c4.6-3.9,9.1-7.9,13.7-11.8
					C550.7-330.5,555.1-337.2,561.7-337.3z"/>
				<g>
					<path class="st1" d="M522.4-249.2c-8.2,2.7,24.5,4.3,26.5,4.5c0,0,0.1-1.8,0.1-1.8C540.1-247,531.2-247.9,522.4-249.2z"/>
					<path class="st1" d="M605.5-250.3c-9.6,1.7-19.2,2.9-28.9,3.5c-1.6,4.2,18.7-0.6,21.9-0.5c2.5-0.4,4.8-0.8,7.3-1.2L605.5-250.3
						z"/>
				</g>
				<path class="st1" d="M575-284.8c-30.4-20.7-28.4,24.6-27.4,42.5c10.5,0.6,21,0.5,31.5-0.2C579.8-250,582.4-278.5,575-284.8z"/>
			</g>
			<g>
				<path class="st1" d="M562.1-685.3c-5.6,2.7-11.5,4.6-17.6,5.5c20.9-9.6,17.8-10.8-0.8-0.9C535.8-675,566.3-683.2,562.1-685.3z"
					/>
				<path class="st1" d="M583.7-697.5c4.4,3.4-6.4,7.7-9.3,7.6C570.1-693.7,581-696.6,583.7-697.5z M579.9-694.4
					c1,1.1,2.5-0.5,3.2-1.3c-0.5,0.1-1.1,0.4-1.6,0.6C581-694.8,580.4-694.6,579.9-694.4z M575.1-691c1.7-0.3,3.3-1.3,4.9-2
					c-0.5-0.1-0.9-0.5-1.1-1C577.9-693.3,572.7-692.2,575.1-691z"/>
				<path class="st1" d="M620.5-663.1c-11.4,9-23.9,16.6-37.3,22.5c-13.3,5.9-27,10.1-40.8,12.4l-12.6-33.9c0.1,0,0.2,0,0.3-0.1
					c-0.4-2.9-4.6-9.7-4.4-12.3c2-9.1,82-48.6,79.3-30.4l2,5.5c0.1-0.1,0.2-0.2,0.3-0.2C610.5-691.4,617.6-671.1,620.5-663.1z
					 M531.7-674.9c13-1.2,26.2-4.9,38.5-10.6c10.7-5.1,20.7-11.5,29.3-19.5C594.3-707,534.4-680.4,531.7-674.9z M533.4-663
					c25.7-4.6,50.3-16.4,70.8-34l-2-5.4c-19.6,17.9-45.9,29.3-71.3,31.4C530.2-670.9,533.5-663.3,533.4-663z M572.7-666.3
					c-0.3-0.5-0.7-1-1.2-1.2c-0.4-0.2-0.7-0.1-1,0.3c-0.6,0.8-0.4,1.7-0.2,2.4c0.3,0.7,0.7,1,1.3,1.2c0.8,0.2,1.5-0.4,1.5-1.3
					C573.2-665.5,573-665.9,572.7-666.3z M573.6-665.3c0.4,0.5,0.9,0.7,1.5,0.4c0.1-0.2,0.3-0.3,0.4-0.5c0.4-0.8,0.4-1.5-0.1-2.3
					c-0.4-0.6-0.8-1-1.5-1.1c-0.5-0.1-0.9,0.2-1,0.7C572.9-667.1,573-666.2,573.6-665.3z M569.8-663.9c-0.4-0.1-0.7,0.2-0.8,0.6
					c-0.2,0.5-0.1,1,0.1,1.5c0.3,0.8,0.8,1.4,1.7,1.5c0.5,0,1-0.1,1.3-0.6c0.3-0.4,0.2-0.9,0-1.3c-0.3-0.6-0.9-1.2-1.5-1.5
					C570.4-663.8,570.1-663.9,569.8-663.9z M572.1-657.4c0.3,0.6,0.8,0.7,1.3,0.4c0.3-0.1,0.5-0.3,0.7-0.5c0.5-0.5,1-0.9,1.6-1.2
					c0.9-0.4,1.8-0.5,2.7-0.6c0.1-0.1,0.3-0.2,0.4-0.2c0.4-0.4,0.5-0.9,0.3-1.4c-0.1-0.4-0.3-0.7-0.4-1c-0.3-0.5-0.7-0.8-1.4-0.7
					c-0.1,0-0.3,0-0.4,0c-0.4-0.2-0.7-0.3-1-0.5c-0.3-0.2-0.6-0.5-1-0.7c-0.5-0.3-1-0.3-1.5,0.2c-0.4,0.3-0.5,0.8-0.6,1.3
					c0,0.3,0,0.6-0.1,0.9c-0.1,0.6-0.3,1.1-0.7,1.5c-0.2,0.2-0.3,0.4-0.3,0.7C571.5-658.7,571.8-658,572.1-657.4z M576-664.2
					c0.2,0.8,0.7,1.1,1.4,1c0.6-0.1,1.2-0.9,1.2-1.7c0-0.3-0.1-0.7-0.1-1c-0.1-0.3-0.2-0.5-0.3-0.8c-0.2-0.2-0.4-0.4-0.6-0.6
					c-0.5-0.3-0.9-0.2-1.2,0.3C576-666.1,575.8-665.2,576-664.2z M616.3-664.5l-3.2-8.6c-21,17.2-45.9,27.8-71.3,33.4
					C543.5-619.1,606.8-656.5,616.3-664.5z"/>
			</g>
			<g>
				<path class="st1" d="M433.7-461.9c0.8-1,2-2.3,3.5-3.4c1.5-1.1,3.1-1.7,4.3-2c1.2-0.3,2-0.2,2-0.4c0-0.1-0.2-0.2-0.5-0.4
					c-0.4-0.1-0.9-0.2-1.6-0.2c-0.7,0-1.5,0.1-2.4,0.4c-0.9,0.3-1.8,0.8-2.6,1.4c-1.7,1.2-2.9,2.8-3.5,4c-0.6,1.2-0.8,2-0.7,2.1
					C432.4-460.3,432.9-461,433.7-461.9z"/>
				<path class="st1" d="M436.3-469c0.3-0.2,0.8-0.4,1.2-0.6c0.5-0.2,1-0.3,1.6-0.5c0.6-0.1,1.1-0.2,1.6-0.3c0.5,0,1-0.1,1.4,0
					c0.8,0,1.3,0,1.4-0.1c0.1-0.1-0.4-0.5-1.2-0.7c-0.4-0.1-0.9-0.2-1.5-0.2c-0.6,0-1.2,0-1.9,0.2c-0.7,0.2-1.2,0.4-1.8,0.7
					c-0.5,0.3-0.9,0.6-1.3,0.9c-0.6,0.6-0.9,1.1-0.8,1.2C435.1-468.4,435.6-468.7,436.3-469z"/>
				<path class="st1" d="M466.9-427.7c-0.5,0.6-1.2,1.2-1.9,1.9c-0.7,0.7-1.6,1.4-2.5,2.1c-0.9,0.7-1.9,1.3-2.7,1.8
					c-0.9,0.5-1.7,0.9-2.4,1.2c-1.4,0.7-2.3,1-2.2,1.2c0,0.2,1,0.1,2.5-0.4c0.8-0.2,1.6-0.6,2.6-1.1c0.9-0.5,1.9-1.1,2.9-1.8
					c1-0.7,1.8-1.5,2.6-2.3c0.7-0.8,1.3-1.5,1.8-2.1c0.9-1.3,1.3-2.2,1.2-2.3C468.6-429.5,468-428.8,466.9-427.7z"/>
				<path class="st1" d="M457.2-417.9c-2.8,1.4-5.4,1.7-5.4,2.1c0,0.2,0.7,0.3,1.8,0.2c0.6,0,1.2-0.2,1.9-0.4
					c0.7-0.2,1.5-0.5,2.2-0.8c0.8-0.4,1.5-0.8,2.1-1.2c0.6-0.4,1.1-0.9,1.5-1.3c0.8-0.8,1.1-1.4,1-1.5
					C462-421,460.1-419.2,457.2-417.9z"/>
				<path class="st1" d="M469.3-437.8c-13.5,32.6-59,2.7-34.6-22.6C450.2-475.5,476.9-458.3,469.3-437.8z M440.8-461.5
					c8.5,7.1,13.6,15.3,25.9,10.2c-1.8-4.9-5.6-8.9-10.8-10.9C450.7-464.2,445.3-463.8,440.8-461.5z M464.9-434.7
					c-3.9,0-7.7,1-11.6,2.1c-9.8,3.2-15.9-7.4-22.8-12c0.1,7.5,4.6,14.5,12,17.3C450.9-424.1,460.2-427.4,464.9-434.7z M467.5-448.3
					c-15.8,5.7-18.1-1.7-29.1-10.4c-3.5-1.3-6.7,6.8-7.5,10c5,2.6,8.3,7.7,13.1,10.8c7,5.1,15.2-1,22.6-0.3
					C467.9-441.5,468.2-445,467.5-448.3z"/>
			</g>
			<g>
				<path class="st1" d="M112.4-530.9c0.5-0.6,1.2-1.4,2.1-2c0.9-0.7,1.9-1,2.6-1.2c0.7-0.2,1.2-0.1,1.2-0.3c0-0.1-0.1-0.1-0.3-0.2
					c-0.2-0.1-0.6-0.1-1-0.1c-0.4,0-0.9,0.1-1.4,0.3c-0.5,0.2-1.1,0.5-1.6,0.8c-1,0.7-1.7,1.7-2.1,2.4c-0.4,0.7-0.5,1.2-0.4,1.3
					C111.6-530,111.9-530.4,112.4-530.9z"/>
				<path class="st1" d="M114-535.2c0.2-0.1,0.5-0.2,0.7-0.3c0.3-0.1,0.6-0.2,0.9-0.3c0.3-0.1,0.7-0.1,1-0.2c0.3,0,0.6,0,0.8,0
					c0.5,0,0.8,0,0.8-0.1c0-0.1-0.2-0.3-0.7-0.4c-0.3-0.1-0.6-0.1-0.9-0.1c-0.3,0-0.7,0-1.1,0.1c-0.4,0.1-0.8,0.2-1.1,0.4
					c-0.3,0.2-0.6,0.3-0.8,0.5c-0.4,0.4-0.5,0.7-0.5,0.7C113.3-534.9,113.5-535,114-535.2z"/>
				<path class="st1" d="M132.4-510.4c-0.3,0.3-0.7,0.7-1.1,1.1c-0.4,0.4-1,0.8-1.5,1.2c-0.6,0.4-1.1,0.8-1.6,1.1
					c-0.5,0.3-1,0.6-1.4,0.7c-0.8,0.4-1.4,0.6-1.3,0.7c0,0.1,0.6,0,1.5-0.2c0.5-0.1,1-0.4,1.6-0.6c0.6-0.3,1.2-0.6,1.8-1.1
					c0.6-0.4,1.1-0.9,1.6-1.4c0.4-0.5,0.8-0.9,1.1-1.3c0.5-0.8,0.8-1.3,0.7-1.4C133.4-511.5,133-511,132.4-510.4z"/>
				<path class="st1" d="M126.5-504.5c-1.7,0.8-3.3,1-3.3,1.3c0,0.1,0.4,0.2,1.1,0.1c0.3,0,0.7-0.1,1.1-0.2c0.4-0.1,0.9-0.3,1.3-0.5
					c0.5-0.2,0.9-0.5,1.2-0.7c0.4-0.3,0.7-0.5,0.9-0.8c0.5-0.5,0.7-0.8,0.6-0.9C129.4-506.4,128.2-505.3,126.5-504.5z"/>
				<path class="st1" d="M133.8-516.5c-8.1,19.6-35.4,1.6-20.8-13.6C122.3-539.1,138.3-528.7,133.8-516.5z M116.6-530.7
					c5.1,4.2,8.2,9.2,15.6,6.1c-1.1-2.9-3.4-5.4-6.5-6.6C122.6-532.3,119.4-532.1,116.6-530.7z M131.1-514.6c-2.3,0-4.6,0.6-7,1.3
					c-5.9,1.9-9.5-4.4-13.7-7.2c0,4.5,2.8,8.7,7.2,10.4C122.7-508.3,128.3-510.2,131.1-514.6z M132.7-522.7
					c-9.5,3.4-10.9-1-17.5-6.3c-2.1-0.8-4.1,4.1-4.5,6c3,1.6,5,4.7,7.9,6.5c4.2,3.1,9.1-0.6,13.6-0.2
					C133-518.7,133.1-520.8,132.7-522.7z"/>
			</g>
			<g>
				<path class="st1" d="M163.3-174.1c-6.1-0.4-12.1-1.1-18.1-1.7l0-0.2c-6.8-0.6-13.6-0.9-20.3-2.1c-7.1-1.3-9.8-5.8-8.7-13.1
					c1.3-8.4,4.4-16.2,8.3-23.7c2.9-5.5,5.7-11,8.3-16.5c1.8-3.8,2-7.7,0.6-11.8c-1-2.8-0.3-4,2.8-4.2c5-0.3,10-0.7,15-0.4
					c8,0.6,15.9,1.6,23.8,2.6c3.6,0.5,3.7,1.9,2.6,5.3c-1.1,3.4-1.7,7.3-1.3,10.9c1.3,12.2,3.1,24.3,4.6,36.4
					C182.4-180.9,175.3-173.4,163.3-174.1z M173.8-233.9c-2.9,0-3.4,2.8-1.9,10.7c0.3,0.2,0.6,0.4,0.9,0.6c0.6-1,1.7-1.9,1.7-2.9
					C174.5-228.3,174.1-231.1,173.8-233.9z M135.6-238.8c1.4-0.1,2.5-0.2,3.5-0.1c9.4,0.9,18.9,1.8,28.3,2.7c0.8,0.1,2.1,0.4,2.4,0
					c1.6-2.3,3-4.7,4.7-7.6c-13.9-1.7-27-3.5-40.6-1.7C134.6-242.8,135.1-240.9,135.6-238.8z M132.3-226l37.5,3.6
					c-0.1-4-0.3-7.7-0.4-11.6c-10.5-2.1-20.9-3.7-31.6-3.5c-0.8,0-2,0.7-2.2,1.4C134.3-232.9,133.4-229.5,132.3-226z M120.1-201.1
					c17.7,2.3,34.8,4.5,52.3,6.8c-0.8-8.6-1.5-16.4-2.3-24.2c-0.1-0.7-1.1-1.8-1.8-1.9c-11.5-1.5-23.1-2.8-34.6-4.2
					c-1.7-0.2-2.7,0.3-3.5,1.9c-2.2,4.7-4.7,9.3-6.9,14C122-206.3,121.1-203.7,120.1-201.1z M172.4-192.3c-17.8-2.5-35.2-5-53.1-7.5
					c-0.7,3.9-1.6,7.1-1.8,10.4c-0.5,5.5,2.1,9,7.5,9.6c13.6,1.5,27.1,2.7,40.7,3.8c1.3,0.1,3-1,3.9-2
					C173.4-182.2,172-187.4,172.4-192.3z M174.1-195.8c0.3,0.2,0.6,0.5,0.9,0.7c1.1-1.1,3.3-2.4,3.2-3.4c-0.8-7.8-2.1-15.5-3.3-23.2
					l-0.8-0.6c-0.8,0.9-2.2,1.9-2.2,2.8C172.5-211.6,173.4-203.7,174.1-195.8z M178.4-194.6c-3,0.1-4.5,1.2-4.5,4.6
					c0,3.8-0.6,7.7-1,11.5C179.1-181.5,180.8-186.4,178.4-194.6z"/>
				<path class="st1" d="M172.8-222.6c-0.3-0.2-0.6-0.4-0.9-0.6c-1.5-7.9-1-10.7,1.9-10.7c0.3,2.8,0.7,5.6,0.7,8.4
					C174.5-224.5,173.4-223.6,172.8-222.6z"/>
				<path class="st1" d="M175-195.1c-0.3-0.2-0.6-0.5-0.9-0.7c-0.8-7.9-1.6-15.8-2.1-23.7c-0.1-0.9,1.4-1.8,2.2-2.8l0.8,0.6
					c1.1,7.7,2.4,15.4,3.3,23.2C178.3-197.5,176.1-196.2,175-195.1z"/>
				<path class="st1" d="M173-178.5c0.4-3.8,1-7.7,1-11.5c0-3.4,1.5-4.5,4.5-4.6C180.8-186.4,179.1-181.5,173-178.5z"/>
				<path class="st1" d="M129.2-182.3c-7.2,0.4-10.1-3.5-7.9-10.7C120.3-186.8,122.7-183.1,129.2-182.3z"/>
				<path class="st1" d="M172.4-194.4c-17.5-2.3-34.7-4.5-52.3-6.8c1-2.6,1.9-5.2,3.1-7.7c2.2-4.7,4.7-9.3,6.9-14
					c0.8-1.6,1.8-2.1,3.5-1.9c11.5,1.4,23.1,2.7,34.6,4.2c0.7,0.1,1.7,1.2,1.8,1.9C170.9-210.8,171.6-202.9,172.4-194.4z
					 M148.3-215.7c0.1,1.2,0.9,1.9,2.1,2.1c0.4-0.1,0.8-0.2,1.2-0.4c1.4-0.7,2-1.8,1.9-3.4c-0.1-1.2-0.4-2.3-1.3-3.1
					c-0.7-0.6-1.5-0.6-2.1,0C148.9-219.1,148.2-217.6,148.3-215.7z M142.8-218.2c-0.1,1.3,0.2,2.2,1,3c1.1,1.1,2.8,0.9,3.6-0.4
					c0.4-0.7,0.5-1.6,0.5-2.4c-0.1-1-0.2-2-0.8-2.9c-0.5-0.7-1-0.9-1.8-0.5C143.7-220.9,143.1-219.5,142.8-218.2z M139.4-211.3
					c0.8,0.6,1.7,0.9,2.7,0.4c0.8-0.4,1.2-1,1.2-1.9c0.1-1.1-0.3-2.6-1.1-3.6c-0.3-0.4-0.7-0.8-1-1.1c-0.6-0.5-1.2-0.4-1.8,0.1
					c-0.7,0.6-1.1,1.4-1.3,2.3C138-213.6,138.1-212.2,139.4-211.3z M153.5-205.9c0-1.1-0.4-1.9-1.5-2.3c-0.2-0.1-0.5-0.2-0.6-0.4
					c-0.4-0.6-0.8-1.2-1.2-1.8c-0.3-0.6-0.5-1.3-0.9-1.9c-0.6-0.9-1.4-1.4-2.5-1.3c-0.9,0.1-1.6,0.6-2.1,1.3
					c-0.3,0.4-0.6,0.8-0.9,1.2c-0.7,0.7-1.5,1.3-2.6,1.5c-0.4,0.1-0.8,0.3-1.1,0.6c-0.9,0.9-1,2.1-1,3.2c0,1.1,0.6,1.8,1.7,1.9
					c0.5,0.1,1.1,0,1.6-0.1c1.2-0.2,2.3-0.3,3.5-0.1c1.7,0.2,3.3,1,4.8,1.7c0.3,0,0.6,0.1,0.9,0.1c1-0.2,1.5-0.8,1.7-1.7
					C153.4-204.6,153.5-205.3,153.5-205.9z M156.9-213.1c-0.2-0.5-0.2-1-0.5-1.5c-0.5-0.9-1.2-1.2-2.1-0.7c-1.5,0.8-2.6,2-3.1,3.5
					c-0.4,1.3,0.1,2.3,1.4,2.8c1.1,0.4,2.7-0.1,3.4-1.2c0.3-0.5,0.5-1,0.7-1.5C156.8-212.2,156.9-212.6,156.9-213.1z"/>
			</g>
			<g>
				<path class="st1" d="M69.3-418.8c1.4-2.6,0.8-6-1.9-7.6c-2.5-1.5-6.1-0.7-7.6,1.9c-1.4,2.6-0.8,6,1.9,7.6
					C64.2-415.4,67.9-416.1,69.3-418.8z"/>
				<circle class="st1" cx="54.7" cy="-451.9" r="3.9"/>
				<path class="st1" d="M56.3-436.2c1.6-3,0.9-6.9-2.2-8.7c-2.9-1.7-7.1-0.9-8.7,2.2c-1.6,3-0.9,6.9,2.2,8.7
					C50.4-432.3,54.7-433.2,56.3-436.2z"/>
				<path class="st1" d="M65.6-439.8c-2.1-1.2-4,2-1.9,3.2C65.7-435.3,67.7-438.5,65.6-439.8z"/>
				<path class="st1" d="M48.7-461.2c-2.1-1.2-4,2-1.9,3.2C48.8-456.7,50.7-460,48.7-461.2z"/>
				<g>
					<path class="st1" d="M156.9-384c-7.9,3.8-16,8.1-24.7,9.1c-9.6,0.5-12.7-15.5-16.8-22.4c-5.3-12.8-10.8-27.9-8.5-41.5
						c0,0,0,0,0,0c0,0,0,0,0-0.1c0.9-1.4,1.7-2.9,3-3.9c-1.7-4.8-0.1-12.4,4.4-15.2c-0.5-1.1-0.8-2.4-1.2-3.6
						c-1.8,0.8-5.2,2.3-5.1-0.9c-0.9,0.3-1.7,0.6-2.6,1c1.4,2.2-1.7,2.2-2.9,2.9c-1.2,0.5-1.4-1.8-1.8-2.4c-0.7-0.9-0.7-2.5,0.7-3
						c4.9-1.8,9.7-3.7,14.6-5.5c1.5-0.6,2.6,0.9,2.5,2.1c3.3-0.9,3.8,3.3-0.6,4c0.4,1.1,0.8,2.3,1.1,3.4c5.2-2.5,10.5,4.9,11.5,9.5
						c19.8,1.4,24.5,35.6,31.8,50.4C166-392.1,165.3-387.4,156.9-384z M112-443.9c1.2-0.4,2.4-0.6,3.7-1c-1.7-1.3-0.8-10.7,0.5-7.8
						c-1.1,2.4-1,5.3,0.2,7.6c1.3-0.5,2.6-1.1,3.9-1.7c-0.3-2.4-1.2-4.6-2.6-6.6c0.6-2.6,3.4,5.3,3.3,6.3c1.4-0.6,2.7-1.3,4.1-1.8
						c-1-2.4-2.8-4.5-5.1-5.7c-0.8-3,6.1,4.1,5.9,5.4c0.7-0.3,1.5-0.5,2.2-0.7c-0.9-3.7-3.7-6.9-7.3-8.2c-0.9,0.2-1.6,1.3-2.7,1.5
						c-5.7,0.7-6.7,7.5-6.4,12.2C111.8-444.3,111.8-444.1,112-443.9z M109.8-422.2c3.9-3.1,9.2-3.3,13.9-4.4
						c7.8-1.8,14.9-5.5,20.9-10.9c-2.6-4.3-6.1-8.5-10.9-10.3c0,0-0.3-0.1-0.3-0.1c-7.5-1.3-13.9,5.1-21.1,6.3
						c-3.5,2-3.9,5.9-3.5,9.5C108.9-428.6,109.3-425.4,109.8-422.2z M116.7-400.3c11.7-6.7,26.4-7.3,36.6-16.5
						c-2.4-6.2-4.5-12.5-7.5-18.4c-6.2,5.5-13.8,9.3-21.9,11.1c-4.2,1.2-11.5,0.8-13.3,5.3c0.4,1.6,1,4.1,1.6,5.9
						C113.4-408.7,114.9-404.5,116.7-400.3z M154.2-414.5c-10.4,9-24.9,9.8-36.6,16.4c3,5.1,7.3,20.4,13.2,20.9
						c7.7-0.1,25.1-7.6,30.8-12.8c0,0,0.2-0.3,0.2-0.3c0.2-0.4,0.3-0.8,0.4-1.3c0,0,0-0.4,0-0.4c0-0.8-0.2-1.7-0.5-2.5
						C159.3-401.2,156.7-407.8,154.2-414.5z"/>
					<path class="st1" d="M153.3-416.8c-10.3,9.3-24.9,9.9-36.6,16.5c-1.7-4.1-3.3-8.3-4.6-12.6c-0.6-1.8-1.2-4.4-1.6-5.9
						c1.8-4.4,9.1-4,13.3-5.3c8.1-1.8,15.7-5.6,21.9-11.1C148.8-429.4,150.9-423,153.3-416.8z M133.4-419.8c1.9-1.2,1.1-4-0.9-4.6
						C129.9-424.7,130.9-418.9,133.4-419.8z M131-420.2c-0.1-3.7-4.3-4.6-3.5-0.2C128-418.6,130.8-418,131-420.2z M129.5-417.2
						c-0.7-2.1-4.7-3.5-3.8,0.1C125.9-414.7,130.3-414.4,129.5-417.2z M135.4-417.1c-1.4-0.5-2.5-2.7-4.2-1.6
						c-0.8,0.5-0.9,1.5-1.1,2.4c-0.6,1.7-2.6,2.5-1.3,4.6c1.2,2.3,4.9-2.3,8-1.3C139.3-413.8,137.5-417.5,135.4-417.1z M136.1-417.7
						c1.3-0.1,1.9-1.7,1.7-2.9C136.2-426,132-417.8,136.1-417.7z"/>
					<path class="st1" d="M107-438.8C107-438.8,107-438.9,107-438.8C106.9-438.7,106.9-438.8,107-438.8z"/>
					<path class="st1" d="M146.6-387.6c-4.5,2.1-9.1,4.3-14.1,4.3c-1.5,0.4-4.4-1.6-5.1,0.5C127-377.2,155.1-385.8,146.6-387.6z"/>
					<path class="st1" d="M150.5-389.4c-1.4,0.5-0.6,2.7,0.8,2.2C152.8-387.7,152-389.9,150.5-389.4z"/>
				</g>
				<path class="st1" d="M84.4-460.8c0-0.1-0.3-0.3-0.9-0.1c-0.3,0.1-0.7,0.3-1,0.6c-0.3,0.3-0.6,0.8-0.7,1.4
					c-0.2,1.2,0.5,2.6,1.7,3.4c0.6,0.4,1.3,0.7,2,0.9c0.7,0.2,1.5,0.4,2.3,0.4c1.7,0,3.2-0.7,4.3-1.6c1.1-0.9,1.8-1.9,2.4-2.7
					c1-1.7,1.4-2.9,1.3-3c-0.2-0.1-0.9,0.9-2.1,2.4c-0.6,0.7-1.3,1.6-2.3,2.3c-1,0.7-2.2,1.2-3.5,1.2c-1.3,0-2.7-0.4-3.7-1
					c-1-0.6-1.5-1.5-1.5-2.3c0-0.8,0.5-1.4,0.9-1.6C84.1-460.7,84.4-460.7,84.4-460.8z"/>
				<path class="st1" d="M94.4-444.4c-0.1,0-0.1,0.3-0.4,0.7c-0.3,0.4-0.9,0.8-1.7,0.6c-0.4-0.1-0.8-0.4-1-0.8
					c-0.3-0.4-0.5-0.9-0.6-1.5c-0.2-1.2-0.1-2.6,0.4-4c0.9-2.8,2.8-4.8,4.3-6c1.5-1.3,2.6-1.9,2.5-2.1c-0.1-0.2-1.3,0.2-3.1,1.3
					c-0.9,0.6-1.9,1.4-2.8,2.4c-0.9,1.1-1.7,2.4-2.2,4c-0.5,1.6-0.6,3.2-0.3,4.6c0.2,0.7,0.5,1.4,0.9,2c0.5,0.5,1.1,0.9,1.7,1
					c0.6,0.1,1.2,0,1.6-0.3c0.4-0.3,0.6-0.6,0.7-0.9C94.8-444.1,94.5-444.4,94.4-444.4z"/>
				<path class="st1" d="M81.3-442c-0.1,0-0.2,0.5-0.6,1.2c-0.4,0.7-1.4,1.5-2.8,1.6c-0.7,0-1.4-0.2-2-0.7c-0.6-0.5-1.1-1.2-1.3-2.1
					c-0.5-1.8,0.1-3.9,1.4-5.8c0.6-0.9,1.6-2.2,2.3-3c-0.8,0.2-1.7,0.6-2.3,0.7c-0.3,0.1-0.6,0.1-0.9,0.1c-0.2,0-0.2,0-0.3,0l-0.2,0
					c-0.4,0-0.8-0.2-1.1-0.4c-0.6-0.5-0.9-1.2-0.7-1.8c0.2-0.6,0.9-1.2,1.5-1.7c0.6-0.5,1.2-0.8,1.8-1.1c0.6-0.3,1.1-0.5,1.6-0.5
					c0.5,0,0.8,0.2,1.1,0.4c0.5,0.5,0.4,0.9,0.5,0.9c0,0,0.1-0.1,0.2-0.3c0-0.2,0-0.6-0.3-1c-0.2-0.4-0.8-0.7-1.4-0.8
					c-0.6-0.1-1.3,0.1-2,0.3c-0.7,0.2-1.4,0.6-2.1,1.1c-0.7,0.5-1.5,1-2,2.1c-0.2,0.5-0.2,1.2,0,1.8c0.2,0.6,0.6,1.1,1.1,1.5
					c0.5,0.4,1.1,0.6,1.7,0.7l0.2,0l0.1,0l0,0l0,0l0,0l0,0l0,0.1c-0.7,1-1.3,2.1-1.5,3.3c-0.3,1.2-0.3,2.5,0.1,3.5
					c0.3,1.1,1,2.1,1.9,2.7c0.9,0.6,1.9,0.8,2.8,0.7c0.9-0.1,1.6-0.5,2.1-0.9c0.5-0.5,0.8-1,1-1.4C81.5-441.5,81.4-442,81.3-442z"/>
				<path class="st1" d="M81.4-452.2c-0.1,0.2,0.1,0.4,0.5,0.6c0.4,0.2,1,0.3,1.7,0.2c0.7-0.1,1.2-0.5,1.5-0.8
					c0.3-0.3,0.4-0.6,0.2-0.8c-0.3-0.3-1,0.1-2,0.3C82.4-452.5,81.5-452.6,81.4-452.2z"/>
				<path class="st1" d="M81.2-446.4c0.2,0.3,2.2-0.5,4.4-2.2c2.1-1.7,3.4-3.5,3.2-3.7c-0.3-0.3-2,1.1-4,2.7
					C82.6-448.1,81-446.8,81.2-446.4z"/>
				<path class="st1" d="M86-443.9c0.4-0.1,0.5-1.1,0.8-2.3c0.2-1.2,0.6-2.2,0.2-2.4c-0.3-0.2-1.3,0.7-1.6,2.2
					C85.1-445,85.6-443.8,86-443.9z"/>
			</g>
			<g>
				<path class="st1" d="M386.2-665.5c1.4-2.6,0.8-6-1.9-7.6c-2.5-1.5-6.1-0.7-7.6,1.9c-1.4,2.6-0.8,6,1.9,7.6
					C381.1-662.2,384.8-662.9,386.2-665.5z"/>
				<circle class="st1" cx="371.7" cy="-698.6" r="3.9"/>
				<path class="st1" d="M373.2-683c1.6-3,0.9-6.9-2.2-8.7c-2.9-1.7-7.1-0.9-8.7,2.2c-1.6,3-0.9,6.9,2.2,8.7
					C367.3-679.1,371.6-680,373.2-683z"/>
				<path class="st1" d="M382.5-686.5c-2.1-1.2-4,2-1.9,3.2C382.6-682.1,384.6-685.3,382.5-686.5z"/>
				<path class="st1" d="M365.6-708c-2.1-1.2-4,2-1.9,3.2C365.7-703.5,367.7-706.7,365.6-708z"/>
				<g>
					<path class="st1" d="M473.8-630.8c-7.9,3.8-16,8.1-24.7,9.1c-9.6,0.5-12.7-15.5-16.8-22.4c-5.3-12.8-10.8-27.9-8.5-41.5
						c0,0,0,0,0,0c0,0,0,0,0-0.1c0.9-1.4,1.7-2.9,3-3.9c-1.7-4.8-0.1-12.4,4.4-15.2c-0.5-1.1-0.8-2.4-1.2-3.6
						c-1.8,0.8-5.2,2.3-5.1-0.9c-0.9,0.3-1.7,0.6-2.6,1c1.4,2.2-1.7,2.2-2.9,2.9c-1.2,0.5-1.4-1.8-1.8-2.4c-0.7-0.9-0.7-2.5,0.7-3
						c4.9-1.8,9.7-3.7,14.6-5.5c1.5-0.6,2.6,0.9,2.5,2.1c3.3-0.9,3.8,3.3-0.6,4c0.4,1.1,0.8,2.3,1.1,3.4c5.2-2.5,10.5,4.9,11.5,9.5
						c19.8,1.4,24.5,35.6,31.8,50.4C482.9-638.9,482.3-634.2,473.8-630.8z M428.9-690.7c1.2-0.4,2.4-0.6,3.7-1
						c-1.7-1.3-0.8-10.7,0.5-7.8c-1.1,2.4-1,5.3,0.2,7.6c1.3-0.5,2.6-1.1,3.9-1.7c-0.3-2.4-1.2-4.6-2.6-6.6c0.6-2.6,3.4,5.3,3.3,6.3
						c1.4-0.6,2.7-1.3,4.1-1.8c-1-2.4-2.8-4.5-5.1-5.7c-0.8-3,6.1,4.1,5.9,5.4c0.7-0.3,1.5-0.5,2.2-0.7c-0.9-3.7-3.7-6.9-7.3-8.2
						c-0.9,0.2-1.6,1.3-2.7,1.5c-5.7,0.7-6.7,7.5-6.4,12.2C428.7-691,428.7-690.8,428.9-690.7z M426.8-668.9
						c3.9-3.1,9.2-3.3,13.9-4.4c7.8-1.8,14.9-5.5,20.9-10.9c-2.6-4.3-6.1-8.5-10.9-10.3c0,0-0.3-0.1-0.3-0.1
						c-7.5-1.3-13.9,5.1-21.1,6.3c-3.5,2-3.9,5.9-3.5,9.5C425.8-675.4,426.2-672.1,426.8-668.9z M433.6-647.1
						c11.7-6.7,26.4-7.3,36.6-16.5c-2.4-6.2-4.5-12.5-7.5-18.4c-6.2,5.5-13.8,9.3-21.9,11.1c-4.2,1.2-11.5,0.8-13.3,5.3
						c0.4,1.6,1,4.1,1.6,5.9C430.3-655.4,431.8-651.2,433.6-647.1z M471.1-661.3c-10.4,9-24.9,9.8-36.6,16.4
						c3,5.1,7.3,20.4,13.2,20.9c7.7-0.1,25.1-7.6,30.8-12.8c0,0,0.2-0.3,0.2-0.3c0.2-0.4,0.3-0.8,0.4-1.3c0,0,0-0.4,0-0.4
						c0-0.8-0.2-1.7-0.5-2.5C476.2-647.9,473.6-654.6,471.1-661.3z"/>
					<path class="st1" d="M470.2-663.6c-10.3,9.3-24.9,9.9-36.6,16.5c-1.7-4.1-3.3-8.3-4.6-12.6c-0.6-1.8-1.2-4.4-1.6-5.9
						c1.8-4.4,9.1-4,13.3-5.3c8.1-1.8,15.7-5.6,21.9-11.1C465.7-676.2,467.8-669.8,470.2-663.6z M450.3-666.6c1.9-1.2,1.1-4-0.9-4.6
						C446.8-671.5,447.8-665.6,450.3-666.6z M448-667c-0.1-3.7-4.3-4.6-3.5-0.2C444.9-665.4,447.7-664.8,448-667z M446.4-664
						c-0.7-2.1-4.7-3.5-3.8,0.1C442.8-661.5,447.2-661.2,446.4-664z M452.4-663.9c-1.4-0.5-2.5-2.7-4.2-1.6
						c-0.8,0.5-0.9,1.5-1.1,2.4c-0.6,1.7-2.6,2.5-1.3,4.6c1.2,2.3,4.9-2.3,8-1.3C456.2-660.5,454.5-664.3,452.4-663.9z M453.1-664.4
						c1.3-0.1,1.9-1.7,1.7-2.9C453.1-672.8,449-664.5,453.1-664.4z"/>
					<path class="st1" d="M423.9-685.5C423.9-685.6,423.9-685.7,423.9-685.5C423.9-685.5,423.9-685.5,423.9-685.5z"/>
					<path class="st1" d="M463.5-634.4c-4.5,2.1-9.1,4.3-14.1,4.3c-1.5,0.4-4.4-1.6-5.1,0.5C443.9-623.9,472-632.6,463.5-634.4z"/>
					<path class="st1" d="M467.5-636.2c-1.4,0.5-0.6,2.7,0.8,2.2C469.7-634.5,468.9-636.7,467.5-636.2z"/>
				</g>
				<path class="st1" d="M401.3-707.6c0-0.1-0.3-0.3-0.9-0.1c-0.3,0.1-0.7,0.3-1,0.6c-0.3,0.3-0.6,0.8-0.7,1.4
					c-0.2,1.2,0.5,2.6,1.7,3.4c0.6,0.4,1.3,0.7,2,0.9c0.7,0.2,1.5,0.4,2.3,0.4c1.7,0,3.2-0.7,4.3-1.6c1.1-0.9,1.8-1.9,2.4-2.7
					c1-1.7,1.4-2.9,1.3-3c-0.2-0.1-0.9,0.9-2.1,2.4c-0.6,0.7-1.3,1.6-2.3,2.3c-1,0.7-2.2,1.2-3.5,1.2c-1.3,0-2.7-0.4-3.7-1
					c-1-0.6-1.5-1.5-1.5-2.3c0-0.8,0.5-1.4,0.9-1.6C401-707.5,401.3-707.5,401.3-707.6z"/>
				<path class="st1" d="M411.3-691.2c-0.1,0-0.1,0.3-0.4,0.7c-0.3,0.4-0.9,0.8-1.7,0.6c-0.4-0.1-0.8-0.4-1-0.8
					c-0.3-0.4-0.5-0.9-0.6-1.5c-0.2-1.2-0.1-2.6,0.4-4c0.9-2.8,2.8-4.8,4.3-6c1.5-1.3,2.6-1.9,2.5-2.1c-0.1-0.2-1.3,0.2-3.1,1.3
					c-0.9,0.6-1.9,1.4-2.8,2.4c-0.9,1.1-1.7,2.4-2.2,4c-0.5,1.6-0.6,3.2-0.3,4.6c0.2,0.7,0.5,1.4,0.9,2c0.5,0.5,1.1,0.9,1.7,1
					c0.6,0.1,1.2,0,1.6-0.3c0.4-0.3,0.6-0.6,0.7-0.9C411.7-690.8,411.4-691.2,411.3-691.2z"/>
				<path class="st1" d="M398.2-688.8c-0.1,0-0.2,0.5-0.6,1.2c-0.4,0.7-1.4,1.5-2.8,1.6c-0.7,0-1.4-0.2-2-0.7
					c-0.6-0.5-1.1-1.2-1.3-2.1c-0.5-1.8,0.1-3.9,1.4-5.8c0.6-0.9,1.6-2.2,2.3-3c-0.8,0.2-1.7,0.6-2.3,0.7c-0.3,0.1-0.6,0.1-0.9,0.1
					c-0.2,0-0.2,0-0.3,0l-0.2,0c-0.4,0-0.8-0.2-1.1-0.4c-0.6-0.5-0.9-1.2-0.7-1.8c0.2-0.6,0.9-1.2,1.5-1.7c0.6-0.5,1.2-0.8,1.8-1.1
					c0.6-0.3,1.1-0.5,1.6-0.5c0.5,0,0.8,0.2,1.1,0.4c0.5,0.5,0.4,0.9,0.5,0.9c0,0,0.1-0.1,0.2-0.3c0-0.2,0-0.6-0.3-1
					c-0.2-0.4-0.8-0.7-1.4-0.8c-0.6-0.1-1.3,0.1-2,0.3c-0.7,0.2-1.4,0.6-2.1,1.1c-0.7,0.5-1.5,1-2,2.1c-0.2,0.5-0.2,1.2,0,1.8
					c0.2,0.6,0.6,1.1,1.1,1.5c0.5,0.4,1.1,0.6,1.7,0.7l0.2,0l0.1,0l0,0l0,0l0,0l0,0l0,0.1c-0.7,1-1.3,2.1-1.5,3.3
					c-0.3,1.2-0.3,2.5,0.1,3.5c0.3,1.1,1,2.1,1.9,2.7c0.9,0.6,1.9,0.8,2.8,0.7c0.9-0.1,1.6-0.5,2.1-0.9c0.5-0.5,0.8-1,1-1.4
					C398.4-688.2,398.3-688.8,398.2-688.8z"/>
				<path class="st1" d="M398.3-699c-0.1,0.2,0.1,0.4,0.5,0.6c0.4,0.2,1,0.3,1.7,0.2c0.7-0.1,1.2-0.5,1.5-0.8
					c0.3-0.3,0.4-0.6,0.2-0.8c-0.3-0.3-1,0.1-2,0.3C399.3-699.3,398.4-699.3,398.3-699z"/>
				<path class="st1" d="M398.1-693.2c0.2,0.3,2.2-0.5,4.4-2.2c2.1-1.7,3.4-3.5,3.2-3.7c-0.3-0.3-2,1.1-4,2.7
					C399.6-694.9,397.9-693.5,398.1-693.2z"/>
				<path class="st1" d="M402.9-690.6c0.4-0.1,0.5-1.1,0.8-2.3c0.2-1.2,0.6-2.2,0.2-2.4c-0.3-0.2-1.3,0.7-1.6,2.2
					C402-691.7,402.6-690.6,402.9-690.6z"/>
			</g>
			<g>
				<path class="st1" d="M458.2-148.5c1.4-2.6,0.8-6-1.9-7.6c-2.5-1.5-6.1-0.7-7.6,1.9c-1.4,2.6-0.8,6,1.9,7.6
					C453.1-145.2,456.8-145.9,458.2-148.5z"/>
				<circle class="st1" cx="443.7" cy="-181.6" r="3.9"/>
				<path class="st1" d="M445.2-166c1.6-3,0.9-6.9-2.2-8.7c-2.9-1.7-7.1-0.9-8.7,2.2c-1.6,3-0.9,6.9,2.2,8.7
					C439.3-162.1,443.6-163,445.2-166z"/>
				<path class="st1" d="M454.5-169.5c-2.1-1.2-4,2-1.9,3.2C454.6-165.1,456.6-168.3,454.5-169.5z"/>
				<path class="st1" d="M437.6-191c-2.1-1.2-4,2-1.9,3.2C437.7-186.5,439.7-189.7,437.6-191z"/>
				<g>
					<path class="st1" d="M545.8-113.8c-7.9,3.8-16,8.1-24.7,9.1c-9.6,0.5-12.7-15.5-16.8-22.4c-5.3-12.8-10.8-27.9-8.5-41.5
						c0,0,0,0,0,0c0,0,0,0,0-0.1c0.9-1.4,1.7-2.9,3-3.9c-1.7-4.8-0.1-12.4,4.4-15.2c-0.5-1.1-0.8-2.4-1.2-3.6
						c-1.8,0.8-5.2,2.3-5.1-0.9c-0.9,0.3-1.7,0.6-2.6,1c1.4,2.2-1.7,2.2-2.9,2.9c-1.2,0.5-1.4-1.8-1.8-2.4c-0.7-0.9-0.7-2.5,0.7-3
						c4.9-1.8,9.7-3.7,14.6-5.5c1.5-0.6,2.6,0.9,2.5,2.1c3.3-0.9,3.8,3.3-0.6,4c0.4,1.1,0.8,2.3,1.1,3.4c5.2-2.5,10.5,4.9,11.5,9.5
						c19.8,1.4,24.5,35.6,31.8,50.4C554.9-121.9,554.3-117.2,545.8-113.8z M500.9-173.7c1.2-0.4,2.4-0.6,3.7-1
						c-1.7-1.3-0.8-10.7,0.5-7.8c-1.1,2.4-1,5.3,0.2,7.6c1.3-0.5,2.6-1.1,3.9-1.7c-0.3-2.4-1.2-4.6-2.6-6.6c0.6-2.6,3.4,5.3,3.3,6.3
						c1.4-0.6,2.7-1.3,4.1-1.8c-1-2.4-2.8-4.5-5.1-5.7c-0.8-3,6.1,4.1,5.9,5.4c0.7-0.3,1.5-0.5,2.2-0.7c-0.9-3.7-3.7-6.9-7.3-8.2
						c-0.9,0.2-1.6,1.3-2.7,1.5c-5.7,0.7-6.7,7.5-6.4,12.2C500.7-174,500.7-173.8,500.9-173.7z M498.8-151.9
						c3.9-3.1,9.2-3.3,13.9-4.4c7.8-1.8,14.9-5.5,20.9-10.9c-2.6-4.3-6.1-8.5-10.9-10.3c0,0-0.3-0.1-0.3-0.1
						c-7.5-1.3-13.9,5.1-21.1,6.3c-3.5,2-3.9,5.9-3.5,9.5C497.8-158.4,498.2-155.1,498.8-151.9z M505.6-130.1
						c11.7-6.7,26.4-7.3,36.6-16.5c-2.4-6.2-4.5-12.5-7.5-18.4c-6.2,5.5-13.8,9.3-21.9,11.1c-4.2,1.2-11.5,0.8-13.3,5.3
						c0.4,1.6,1,4.1,1.6,5.9C502.3-138.4,503.8-134.2,505.6-130.1z M543.1-144.3c-10.4,9-24.9,9.8-36.6,16.4
						c3,5.1,7.3,20.4,13.2,20.9c7.7-0.1,25.1-7.6,30.8-12.8c0,0,0.2-0.3,0.2-0.3c0.2-0.4,0.3-0.8,0.4-1.3c0,0,0-0.4,0-0.4
						c0-0.8-0.2-1.7-0.5-2.5C548.2-130.9,545.6-137.6,543.1-144.3z"/>
					<path class="st1" d="M542.2-146.6c-10.3,9.3-24.9,9.9-36.6,16.5c-1.7-4.1-3.3-8.3-4.6-12.6c-0.6-1.8-1.2-4.4-1.6-5.9
						c1.8-4.4,9.1-4,13.3-5.3c8.1-1.8,15.7-5.6,21.9-11.1C537.7-159.2,539.8-152.8,542.2-146.6z M522.3-149.6c1.9-1.2,1.1-4-0.9-4.6
						C518.8-154.5,519.8-148.6,522.3-149.6z M520-150c-0.1-3.7-4.3-4.6-3.5-0.2C516.9-148.4,519.7-147.8,520-150z M518.4-147
						c-0.7-2.1-4.7-3.5-3.8,0.1C514.8-144.5,519.2-144.2,518.4-147z M524.4-146.9c-1.4-0.5-2.5-2.7-4.2-1.6
						c-0.8,0.5-0.9,1.5-1.1,2.4c-0.6,1.7-2.6,2.5-1.3,4.6c1.2,2.3,4.9-2.3,8-1.3C528.2-143.5,526.5-147.3,524.4-146.9z M525.1-147.4
						c1.3-0.1,1.9-1.7,1.7-2.9C525.1-155.8,521-147.5,525.1-147.4z"/>
					<path class="st1" d="M495.9-168.5C495.9-168.6,495.9-168.7,495.9-168.5C495.9-168.5,495.9-168.5,495.9-168.5z"/>
					<path class="st1" d="M535.5-117.4c-4.5,2.1-9.1,4.3-14.1,4.3c-1.5,0.4-4.4-1.6-5.1,0.5C515.9-106.9,544-115.6,535.5-117.4z"/>
					<path class="st1" d="M539.5-119.2c-1.4,0.5-0.6,2.7,0.8,2.2C541.7-117.5,540.9-119.7,539.5-119.2z"/>
				</g>
				<path class="st1" d="M473.3-190.6c0-0.1-0.3-0.3-0.9-0.1c-0.3,0.1-0.7,0.3-1,0.6c-0.3,0.3-0.6,0.8-0.7,1.4
					c-0.2,1.2,0.5,2.6,1.7,3.4c0.6,0.4,1.3,0.7,2,0.9c0.7,0.2,1.5,0.4,2.3,0.4c1.7,0,3.2-0.7,4.3-1.6c1.1-0.9,1.8-1.9,2.4-2.7
					c1-1.7,1.4-2.9,1.3-3c-0.2-0.1-0.9,0.9-2.1,2.4c-0.6,0.7-1.3,1.6-2.3,2.3c-1,0.7-2.2,1.2-3.5,1.2c-1.3,0-2.7-0.4-3.7-1
					c-1-0.6-1.5-1.5-1.5-2.3c0-0.8,0.5-1.4,0.9-1.6C473-190.5,473.3-190.5,473.3-190.6z"/>
				<path class="st1" d="M483.3-174.2c-0.1,0-0.1,0.3-0.4,0.7c-0.3,0.4-0.9,0.8-1.7,0.6c-0.4-0.1-0.8-0.4-1-0.8
					c-0.3-0.4-0.5-0.9-0.6-1.5c-0.2-1.2-0.1-2.6,0.4-4c0.9-2.8,2.8-4.8,4.3-6c1.5-1.3,2.6-1.9,2.5-2.1c-0.1-0.2-1.3,0.2-3.1,1.3
					c-0.9,0.6-1.9,1.4-2.8,2.4c-0.9,1.1-1.7,2.4-2.2,4c-0.5,1.6-0.6,3.2-0.3,4.6c0.2,0.7,0.5,1.4,0.9,2c0.5,0.5,1.1,0.9,1.7,1
					c0.6,0.1,1.2,0,1.6-0.3c0.4-0.3,0.6-0.6,0.7-0.9C483.7-173.8,483.4-174.2,483.3-174.2z"/>
				<path class="st1" d="M470.2-171.8c-0.1,0-0.2,0.5-0.6,1.2c-0.4,0.7-1.4,1.5-2.8,1.6c-0.7,0-1.4-0.2-2-0.7
					c-0.6-0.5-1.1-1.2-1.3-2.1c-0.5-1.8,0.1-3.9,1.4-5.8c0.6-0.9,1.6-2.2,2.3-3c-0.8,0.2-1.7,0.6-2.3,0.7c-0.3,0.1-0.6,0.1-0.9,0.1
					c-0.2,0-0.2,0-0.3,0l-0.2,0c-0.4,0-0.8-0.2-1.1-0.4c-0.6-0.5-0.9-1.2-0.7-1.8c0.2-0.6,0.9-1.2,1.5-1.7c0.6-0.5,1.2-0.8,1.8-1.1
					c0.6-0.3,1.1-0.5,1.6-0.5c0.5,0,0.8,0.2,1.1,0.4c0.5,0.5,0.4,0.9,0.5,0.9c0,0,0.1-0.1,0.2-0.3c0-0.2,0-0.6-0.3-1
					c-0.2-0.4-0.8-0.7-1.4-0.8c-0.6-0.1-1.3,0.1-2,0.3c-0.7,0.2-1.4,0.6-2.1,1.1c-0.7,0.5-1.5,1-2,2.1c-0.2,0.5-0.2,1.2,0,1.8
					c0.2,0.6,0.6,1.1,1.1,1.5c0.5,0.4,1.1,0.6,1.7,0.7l0.2,0l0.1,0l0,0l0,0l0,0l0,0l0,0.1c-0.7,1-1.3,2.1-1.5,3.3
					c-0.3,1.2-0.3,2.5,0.1,3.5c0.3,1.1,1,2.1,1.9,2.7c0.9,0.6,1.9,0.8,2.8,0.7c0.9-0.1,1.6-0.5,2.1-0.9c0.5-0.5,0.8-1,1-1.4
					C470.4-171.2,470.3-171.8,470.2-171.8z"/>
				<path class="st1" d="M470.3-182c-0.1,0.2,0.1,0.4,0.5,0.6c0.4,0.2,1,0.3,1.7,0.2c0.7-0.1,1.2-0.5,1.5-0.8
					c0.3-0.3,0.4-0.6,0.2-0.8c-0.3-0.3-1,0.1-2,0.3C471.3-182.3,470.4-182.3,470.3-182z"/>
				<path class="st1" d="M470.1-176.2c0.2,0.3,2.2-0.5,4.4-2.2c2.1-1.7,3.4-3.5,3.2-3.7c-0.3-0.3-2,1.1-4,2.7
					C471.6-177.9,469.9-176.5,470.1-176.2z"/>
				<path class="st1" d="M474.9-173.6c0.4-0.1,0.5-1.1,0.8-2.3c0.2-1.2,0.6-2.2,0.2-2.4c-0.3-0.2-1.3,0.7-1.6,2.2
					C474-174.7,474.6-173.6,474.9-173.6z"/>
			</g>
			<g>
				<path class="st1" d="M511.1-418.8c1.4-2.6,0.8-6-1.9-7.6c-2.5-1.5-6.1-0.7-7.6,1.9c-1.4,2.6-0.8,6,1.9,7.6
					C506-415.4,509.7-416.1,511.1-418.8z"/>
				<circle class="st1" cx="496.6" cy="-451.9" r="3.9"/>
				<path class="st1" d="M498.1-436.2c1.6-3,0.9-6.9-2.2-8.7c-2.9-1.7-7.1-0.9-8.7,2.2c-1.6,3-0.9,6.9,2.2,8.7
					C492.2-432.3,496.5-433.2,498.1-436.2z"/>
				<path class="st1" d="M507.4-439.8c-2.1-1.2-4,2-1.9,3.2C507.5-435.3,509.5-438.5,507.4-439.8z"/>
				<path class="st1" d="M490.5-461.2c-2.1-1.2-4,2-1.9,3.2C490.6-456.7,492.6-460,490.5-461.2z"/>
				<g>
					<path class="st1" d="M598.7-384c-7.9,3.8-16,8.1-24.7,9.1c-9.6,0.5-12.7-15.5-16.8-22.4c-5.3-12.8-10.8-27.9-8.5-41.5
						c0,0,0,0,0,0c0,0,0,0,0-0.1c0.9-1.4,1.7-2.9,3-3.9c-1.7-4.8-0.1-12.4,4.4-15.2c-0.5-1.1-0.8-2.4-1.2-3.6
						c-1.8,0.8-5.2,2.3-5.1-0.9c-0.9,0.3-1.7,0.6-2.6,1c1.4,2.2-1.7,2.2-2.9,2.9c-1.2,0.5-1.4-1.8-1.8-2.4c-0.7-0.9-0.7-2.5,0.7-3
						c4.9-1.8,9.7-3.7,14.6-5.5c1.5-0.6,2.6,0.9,2.5,2.1c3.3-0.9,3.8,3.3-0.6,4c0.4,1.1,0.8,2.3,1.1,3.4c5.2-2.5,10.5,4.9,11.5,9.5
						c19.8,1.4,24.5,35.6,31.8,50.4C607.8-392.1,607.2-387.4,598.7-384z M553.8-443.9c1.2-0.4,2.4-0.6,3.7-1
						c-1.7-1.3-0.8-10.7,0.5-7.8c-1.1,2.4-1,5.3,0.2,7.6c1.3-0.5,2.6-1.1,3.9-1.7c-0.3-2.4-1.2-4.6-2.6-6.6c0.6-2.6,3.4,5.3,3.3,6.3
						c1.4-0.6,2.7-1.3,4.1-1.8c-1-2.4-2.8-4.5-5.1-5.7c-0.8-3,6.1,4.1,5.9,5.4c0.7-0.3,1.5-0.5,2.2-0.7c-0.9-3.7-3.7-6.9-7.3-8.2
						c-0.9,0.2-1.6,1.3-2.7,1.5c-5.7,0.7-6.7,7.5-6.4,12.2C553.6-444.3,553.6-444.1,553.8-443.9z M551.7-422.2
						c3.9-3.1,9.2-3.3,13.9-4.4c7.8-1.8,14.9-5.5,20.9-10.9c-2.6-4.3-6.1-8.5-10.9-10.3c0,0-0.3-0.1-0.3-0.1
						c-7.5-1.3-13.9,5.1-21.1,6.3c-3.5,2-3.9,5.9-3.5,9.5C550.7-428.6,551.1-425.4,551.7-422.2z M558.5-400.3
						c11.7-6.7,26.4-7.3,36.6-16.5c-2.4-6.2-4.5-12.5-7.5-18.4c-6.2,5.5-13.8,9.3-21.9,11.1c-4.2,1.2-11.5,0.8-13.3,5.3
						c0.4,1.6,1,4.1,1.6,5.9C555.2-408.7,556.7-404.5,558.5-400.3z M596-414.5c-10.4,9-24.9,9.8-36.6,16.4c3,5.1,7.3,20.4,13.2,20.9
						c7.7-0.1,25.1-7.6,30.8-12.8c0,0,0.2-0.3,0.2-0.3c0.2-0.4,0.3-0.8,0.4-1.3c0,0,0-0.4,0-0.4c0-0.8-0.2-1.7-0.5-2.5
						C601.1-401.2,598.5-407.8,596-414.5z"/>
					<path class="st1" d="M595.1-416.8c-10.3,9.3-24.9,9.9-36.6,16.5c-1.7-4.1-3.3-8.3-4.6-12.6c-0.6-1.8-1.2-4.4-1.6-5.9
						c1.8-4.4,9.1-4,13.3-5.3c8.1-1.8,15.7-5.6,21.9-11.1C590.6-429.4,592.7-423,595.1-416.8z M575.2-419.8c1.9-1.2,1.1-4-0.9-4.6
						C571.7-424.7,572.7-418.9,575.2-419.8z M572.9-420.2c-0.1-3.7-4.3-4.6-3.5-0.2C569.8-418.6,572.6-418,572.9-420.2z
						 M571.3-417.2c-0.7-2.1-4.7-3.5-3.8,0.1C567.7-414.7,572.1-414.4,571.3-417.2z M577.3-417.1c-1.4-0.5-2.5-2.7-4.2-1.6
						c-0.8,0.5-0.9,1.5-1.1,2.4c-0.6,1.7-2.6,2.5-1.3,4.6c1.2,2.3,4.9-2.3,8-1.3C581.1-413.8,579.4-417.5,577.3-417.1z M578-417.7
						c1.3-0.1,1.9-1.7,1.7-2.9C578-426,573.9-417.8,578-417.7z"/>
					<path class="st1" d="M548.8-438.8C548.8-438.8,548.8-438.9,548.8-438.8C548.8-438.7,548.8-438.8,548.8-438.8z"/>
					<path class="st1" d="M588.4-387.6c-4.5,2.1-9.1,4.3-14.1,4.3c-1.5,0.4-4.4-1.6-5.1,0.5C568.8-377.2,596.9-385.8,588.4-387.6z"
						/>
					<path class="st1" d="M592.4-389.4c-1.4,0.5-0.6,2.7,0.8,2.2C594.6-387.7,593.8-389.9,592.4-389.4z"/>
				</g>
				<path class="st1" d="M526.2-460.8c0-0.1-0.3-0.3-0.9-0.1c-0.3,0.1-0.7,0.3-1,0.6c-0.3,0.3-0.6,0.8-0.7,1.4
					c-0.2,1.2,0.5,2.6,1.7,3.4c0.6,0.4,1.3,0.7,2,0.9c0.7,0.2,1.5,0.4,2.3,0.4c1.7,0,3.2-0.7,4.3-1.6c1.1-0.9,1.8-1.9,2.4-2.7
					c1-1.7,1.4-2.9,1.3-3c-0.2-0.1-0.9,0.9-2.1,2.4c-0.6,0.7-1.3,1.6-2.3,2.3c-1,0.7-2.2,1.2-3.5,1.2c-1.3,0-2.7-0.4-3.7-1
					c-1-0.6-1.5-1.5-1.5-2.3c0-0.8,0.5-1.4,0.9-1.6C525.9-460.7,526.2-460.7,526.2-460.8z"/>
				<path class="st1" d="M536.2-444.4c-0.1,0-0.1,0.3-0.4,0.7c-0.3,0.4-0.9,0.8-1.7,0.6c-0.4-0.1-0.8-0.4-1-0.8
					c-0.3-0.4-0.5-0.9-0.6-1.5c-0.2-1.2-0.1-2.6,0.4-4c0.9-2.8,2.8-4.8,4.3-6c1.5-1.3,2.6-1.9,2.5-2.1c-0.1-0.2-1.3,0.2-3.1,1.3
					c-0.9,0.6-1.9,1.4-2.8,2.4c-0.9,1.1-1.7,2.4-2.2,4c-0.5,1.6-0.6,3.2-0.3,4.6c0.2,0.7,0.5,1.4,0.9,2c0.5,0.5,1.1,0.9,1.7,1
					c0.6,0.1,1.2,0,1.6-0.3c0.4-0.3,0.6-0.6,0.7-0.9C536.6-444.1,536.3-444.4,536.2-444.4z"/>
				<path class="st1" d="M523.1-442c-0.1,0-0.2,0.5-0.6,1.2c-0.4,0.7-1.4,1.5-2.8,1.6c-0.7,0-1.4-0.2-2-0.7
					c-0.6-0.5-1.1-1.2-1.3-2.1c-0.5-1.8,0.1-3.9,1.4-5.8c0.6-0.9,1.6-2.2,2.3-3c-0.8,0.2-1.7,0.6-2.3,0.7c-0.3,0.1-0.6,0.1-0.9,0.1
					c-0.2,0-0.2,0-0.3,0l-0.2,0c-0.4,0-0.8-0.2-1.1-0.4c-0.6-0.5-0.9-1.2-0.7-1.8c0.2-0.6,0.9-1.2,1.5-1.7c0.6-0.5,1.2-0.8,1.8-1.1
					c0.6-0.3,1.1-0.5,1.6-0.5c0.5,0,0.8,0.2,1.1,0.4c0.5,0.5,0.4,0.9,0.5,0.9c0,0,0.1-0.1,0.2-0.3c0-0.2,0-0.6-0.3-1
					c-0.2-0.4-0.8-0.7-1.4-0.8c-0.6-0.1-1.3,0.1-2,0.3c-0.7,0.2-1.4,0.6-2.1,1.1c-0.7,0.5-1.5,1-2,2.1c-0.2,0.5-0.2,1.2,0,1.8
					c0.2,0.6,0.6,1.1,1.1,1.5c0.5,0.4,1.1,0.6,1.7,0.7l0.2,0l0.1,0l0,0l0,0l0,0l0,0l0,0.1c-0.7,1-1.3,2.1-1.5,3.3
					c-0.3,1.2-0.3,2.5,0.1,3.5c0.3,1.1,1,2.1,1.9,2.7c0.9,0.6,1.9,0.8,2.8,0.7c0.9-0.1,1.6-0.5,2.1-0.9c0.5-0.5,0.8-1,1-1.4
					C523.3-441.5,523.2-442,523.1-442z"/>
				<path class="st1" d="M523.2-452.2c-0.1,0.2,0.1,0.4,0.5,0.6c0.4,0.2,1,0.3,1.7,0.2c0.7-0.1,1.2-0.5,1.5-0.8
					c0.3-0.3,0.4-0.6,0.2-0.8c-0.3-0.3-1,0.1-2,0.3C524.2-452.5,523.3-452.6,523.2-452.2z"/>
				<path class="st1" d="M523-446.4c0.2,0.3,2.2-0.5,4.4-2.2c2.1-1.7,3.4-3.5,3.2-3.7c-0.3-0.3-2,1.1-4,2.7
					C524.5-448.1,522.8-446.8,523-446.4z"/>
				<path class="st1" d="M527.8-443.9c0.4-0.1,0.5-1.1,0.8-2.3c0.2-1.2,0.6-2.2,0.2-2.4c-0.3-0.2-1.3,0.7-1.6,2.2
					C526.9-445,527.5-443.8,527.8-443.9z"/>
			</g>
			<g>
				<g>
					<path class="st1" d="M679.9-546.9c-6.1-0.4-12.1-1.1-18.1-1.7l0-0.2c-6.8-0.6-13.6-0.9-20.3-2.1c-7.1-1.3-9.8-5.8-8.7-13.1
						c1.3-8.4,4.4-16.2,8.3-23.7c2.9-5.5,5.7-11,8.3-16.5c1.8-3.8,2-7.7,0.6-11.8c-1-2.8-0.3-4,2.8-4.2c5-0.3,10-0.7,15-0.4
						c8,0.6,15.9,1.6,23.8,2.6c3.6,0.5,3.7,1.9,2.6,5.3c-1.1,3.4-1.7,7.3-1.3,10.9c1.3,12.2,3.1,24.3,4.6,36.4
						C699-553.6,691.9-546.2,679.9-546.9z M690.4-606.7c-2.9,0-3.4,2.8-1.9,10.7c0.3,0.2,0.6,0.4,0.9,0.6c0.6-1,1.7-1.9,1.7-2.9
						C691.1-601,690.7-603.9,690.4-606.7z M652.2-611.6c1.4-0.1,2.5-0.2,3.5-0.1c9.4,0.9,18.9,1.8,28.3,2.7c0.8,0.1,2.1,0.4,2.4,0
						c1.6-2.3,3-4.7,4.7-7.6c-13.9-1.7-27-3.5-40.6-1.7C651.2-615.6,651.7-613.6,652.2-611.6z M648.9-598.7l37.5,3.6
						c-0.1-4-0.3-7.7-0.4-11.6c-10.5-2.1-20.9-3.7-31.6-3.5c-0.8,0-2,0.7-2.2,1.4C650.9-605.6,650-602.3,648.9-598.7z M636.7-573.9
						c17.7,2.3,34.8,4.5,52.3,6.8c-0.8-8.6-1.5-16.4-2.3-24.2c-0.1-0.7-1.1-1.8-1.8-1.9c-11.5-1.5-23.1-2.8-34.6-4.2
						c-1.7-0.2-2.7,0.3-3.5,1.9c-2.2,4.7-4.7,9.3-6.9,14C638.6-579.1,637.7-576.5,636.7-573.9z M689-565.1
						c-17.8-2.5-35.2-5-53.1-7.5c-0.7,3.9-1.6,7.1-1.8,10.4c-0.5,5.5,2.1,9,7.5,9.6c13.6,1.5,27.1,2.7,40.7,3.8c1.3,0.1,3-1,3.9-2
						C690-555,688.6-560.2,689-565.1z M690.7-568.5c0.3,0.2,0.6,0.5,0.9,0.7c1.1-1.1,3.3-2.4,3.2-3.4c-0.8-7.8-2.1-15.5-3.3-23.2
						l-0.8-0.6c-0.8,0.9-2.2,1.9-2.2,2.8C689.1-584.3,690-576.4,690.7-568.5z M695-567.3c-3,0.1-4.5,1.2-4.5,4.6
						c0,3.8-0.6,7.7-1,11.5C695.7-554.3,697.4-559.2,695-567.3z"/>
					<path class="st1" d="M689.4-595.4c-0.3-0.2-0.6-0.4-0.9-0.6c-1.5-7.9-1-10.7,1.9-10.7c0.3,2.8,0.7,5.6,0.7,8.4
						C691.1-597.3,690-596.3,689.4-595.4z"/>
					<path class="st1" d="M691.6-567.9c-0.3-0.2-0.6-0.5-0.9-0.7c-0.8-7.9-1.6-15.8-2.1-23.7c-0.1-0.9,1.4-1.8,2.2-2.8l0.8,0.6
						c1.1,7.7,2.4,15.4,3.3,23.2C694.9-570.2,692.7-569,691.6-567.9z"/>
					<path class="st1" d="M689.6-551.2c0.4-3.8,1-7.7,1-11.5c0-3.4,1.5-4.5,4.5-4.6C697.4-559.2,695.7-554.3,689.6-551.2z"/>
					<path class="st1" d="M645.8-555.1c-7.2,0.4-10.1-3.5-7.9-10.7C636.9-559.6,639.3-555.8,645.8-555.1z"/>
					<path class="st1" d="M689-567.1c-17.5-2.3-34.7-4.5-52.3-6.8c1-2.6,1.9-5.2,3.1-7.7c2.2-4.7,4.7-9.3,6.9-14
						c0.8-1.6,1.8-2.1,3.5-1.9c11.5,1.4,23.1,2.7,34.6,4.2c0.7,0.1,1.7,1.2,1.8,1.9C687.5-583.5,688.2-575.7,689-567.1z
						 M664.9-588.5c0.1,1.2,0.9,1.9,2.1,2.1c0.4-0.1,0.8-0.2,1.2-0.4c1.4-0.7,2-1.8,1.9-3.4c-0.1-1.2-0.4-2.3-1.3-3.1
						c-0.7-0.6-1.5-0.6-2.1,0C665.5-591.9,664.8-590.3,664.9-588.5z M659.4-591c-0.1,1.3,0.2,2.2,1,3c1.1,1.1,2.8,0.9,3.6-0.4
						c0.4-0.7,0.5-1.6,0.5-2.4c-0.1-1-0.2-2-0.8-2.9c-0.5-0.7-1-0.9-1.8-0.5C660.3-593.6,659.7-592.3,659.4-591z M656-584
						c0.8,0.6,1.7,0.9,2.7,0.4c0.8-0.4,1.2-1,1.2-1.9c0.1-1.1-0.3-2.6-1.1-3.6c-0.3-0.4-0.7-0.8-1-1.1c-0.6-0.5-1.2-0.4-1.8,0.1
						c-0.7,0.6-1.1,1.4-1.3,2.3C654.6-586.4,654.7-585,656-584z M670.1-578.7c0-1.1-0.4-1.9-1.5-2.3c-0.2-0.1-0.5-0.2-0.6-0.4
						c-0.4-0.6-0.8-1.2-1.2-1.8c-0.3-0.6-0.5-1.3-0.9-1.9c-0.6-0.9-1.4-1.4-2.5-1.3c-0.9,0.1-1.6,0.6-2.1,1.3
						c-0.3,0.4-0.6,0.8-0.9,1.2c-0.7,0.7-1.5,1.3-2.6,1.5c-0.4,0.1-0.8,0.3-1.1,0.6c-0.9,0.9-1,2.1-1,3.2c0,1.1,0.6,1.8,1.7,1.9
						c0.5,0.1,1.1,0,1.6-0.1c1.2-0.2,2.3-0.3,3.5-0.1c1.7,0.2,3.3,1,4.8,1.7c0.3,0,0.6,0.1,0.9,0.1c1-0.2,1.5-0.8,1.7-1.7
						C670-577.4,670.1-578,670.1-578.7z M673.5-585.9c-0.2-0.5-0.2-1-0.5-1.5c-0.5-0.9-1.2-1.2-2.1-0.7c-1.5,0.8-2.6,2-3.1,3.5
						c-0.4,1.3,0.1,2.3,1.4,2.8c1.1,0.4,2.7-0.1,3.4-1.2c0.3-0.5,0.5-1,0.7-1.5C673.4-584.9,673.5-585.4,673.5-585.9z"/>
				</g>
				<path class="st1" d="M707.1-540.8c0-0.1-1-0.2-2.9-0.5c-1.9-0.2-4.6-0.6-7.9-1.2c-3.3-0.6-7.3-1.3-11.6-2.3
					c-4.4-0.9-9.2-2-14.2-2.9c-5.1-1-9.9-1.7-14.4-2.2c-4.5-0.5-8.5-0.6-11.9-0.5c-3.4,0.1-6.1,0.4-8,0.6c-1.9,0.3-2.9,0.5-2.9,0.6
					c0,0.1,1.1,0,2.9-0.2c1.9-0.2,4.6-0.3,8-0.3c3.4,0,7.4,0.2,11.8,0.7c4.4,0.5,9.3,1.3,14.3,2.3c5.1,1,9.9,2,14.3,2.9
					c4.4,0.9,8.4,1.6,11.7,2c3.4,0.5,6.1,0.8,8,0.9C706.1-540.7,707.1-540.7,707.1-540.8z"/>
			</g>
			<g>
				<g>
					<path class="st1" d="M304.2-307.5c-7.9,7-20.5,51.7,0.9,43.5c12-7.4,4.8-29-9.8-24.1c-13.9,6.3-6.7,35.1-4.7,47.2
						c0.3,1.2,2.3,0.9,2-0.3c-2.4-10.1-3.5-20.5-3.2-30.9c-1.6-24.3,29.6-14.4,17,4.5c-2.5,3.1-7.5,4.7-9.7,0.4
						c-3.9-13.2,1.4-28.2,9.2-39C306.6-307.4,305-308.6,304.2-307.5L304.2-307.5z"/>
					<g>
						<path class="st1" d="M346.1-341.8c-5.3,0.5-11.1,0.4-15.6,4c-9.9,5.5-15.9,32.9-24.1,32.3c-19.9-3.7,14.4-36.1,13.8-46.4
							c-0.8-14.5-19.3-18.2-29.9-24c-13.1-2.8-8.7-7.8-2-15.5c2-1.6,6.9-11.2,9.1-7.5c7.2,3,14.3,6.8,22.1,8.2
							c14,0.4,29.4,2.3,38,14.9c1.9-0.4,0.9,1.6,1.6,2.4C366.8-361.8,361.4-343,346.1-341.8z M345.6-343.7c-7.5-11,1-24.1,10.3-30.9
							c-14.6-19.9-36.1-8.7-56.7-21.3c2.7,7.2-2.8,15.6-10,17.6c12.7,6.1,37.4,12.2,32.3,30.8c-3.5,9-11,15.7-14.9,24.5
							c-1.4,4.7-8.9,14.1-0.4,15.4c9.4-1.3,12.6-31.2,29.2-34.8C338.7-343.4,342.2-343.3,345.6-343.7z"/>
						<path class="st1" d="M273.7-393.9c-1.1-3.4,3.1,0.3,3.1-8c2.1-1.8,4.2,0.3,5.3-4.4c0.3-1.2-1.5-1.9-1.9-0.7
							c-0.2,0.7-0.4,1.8-1.1,2.2c-3.2,0-4.8,1.7-4.5,5c0.4,2.4-1.7,2-2.8,3.3c-0.8,2,0.5,4.3,0.6,6.3c0.2,1.3,2.2,0.9,2-0.3
							C274.1-391.6,273.9-392.8,273.7-393.9z"/>
						<path class="st1" d="M286.3-398.6c0.1-1.5,1.9-1.9,2.3-3.3c0.6-1-0.3-3,0.9-3.5c3.6-1.5-2.5-4-2.6,1.2c0,3.6-3.5,2.9-2.4,7.8
							c0.1,2.4-2.9,1-3.3,2.6C282.8-390.4,287.8-394.7,286.3-398.6z"/>
						<path class="st1" d="M341.2-377.7c-8.6-10.2-23.7-4.5-34.4-9.9c-1.1-0.6-1.8,1.3-0.7,1.9c10.4,5.6,24.9-0.1,33.5,9.4
							C340.5-375.4,342-376.7,341.2-377.7z"/>
						<path class="st1" d="M341.9-375.3c-1.3,0.2-0.9,2.2,0.3,2C343.5-373.6,343.1-375.5,341.9-375.3z"/>
					</g>
				</g>
				<path class="st1" d="M347.7-334.5c0,0.1,0.5,0.1,1.5-0.1c1-0.1,2.3-0.4,4-0.9c3.3-1,7.7-3.2,11.5-7c3.8-3.8,6-8.2,7-11.5
					c0.5-1.7,0.8-3,0.9-4c0.1-1,0.1-1.5,0.1-1.5c-0.2,0-0.5,2.1-1.7,5.3c-1.2,3.2-3.4,7.4-7.1,11c-3.7,3.6-7.9,5.9-11,7
					C349.8-335,347.7-334.7,347.7-334.5z"/>
				<path class="st1" d="M350.4-328.8c0,0.1,1.3,0,3.4-0.6c2-0.6,4.7-1.8,7.4-3.7c2.7-1.9,4.7-4,5.9-5.8c1.3-1.7,1.8-2.9,1.7-3
					c-0.3-0.2-3.1,4.2-8.3,7.8C355.4-330.3,350.3-329.1,350.4-328.8z"/>
			</g>
			<g>
				<path class="st1" d="M395.4-180.6c12.9,9-29.8,50.1-32.5,58.4c1.2,0.9,3.9,2.3,2.3,4.1c-1.8,2.9-9-5.1-10.7-5.6l-11.2,15.3
					c1,1.3,8.3,4.2,5.5,6.7c-0.7,3.5-22.6-15.5-23.7-15.5c-1-0.7-0.7-1.9,0-2.7c1.5-2.5,6.9,3.7,8.3,4.1l11.2-15.3
					c0,0-12.6-9.3-12.6-9.3c-1.9-1.4,0.3-4.4,2.2-3l3.3,2.4c0,0,27.3-37.3,27.3-37.3c4.4-7.4,12.2-18.2,21.9-9
					c-2.1-5.6,5.3-7.5,8.3-3.2l4.5-4.6l1.2,1.2l-4.4,4.5C400.6-187.5,400.9-180.6,395.4-180.6z M383.6-187.8
					c-7.1-5.4-12.9,3.3-16.4,8.5c10.2,6.1,7.4,10-1.5,2l-3,4c18.8,10.4,14.6,16.2-1,1.4l-3.7,5.1c11.7,6.5,8.4,11-1.4,1.8l-4,5.5
					c17.8,11.5,14.9,15.6-1.5,2l-5.3,7.2c18.8,10.4,14.6,16.2-1,1.4l-5.9,8.1l23.4,17.1c1.2-3.1,38.4-48.5,34.8-51.5
					C396.8-180,386.7-184.9,383.6-187.8z"/>
				<g>
					<path class="st1" d="M401.9-201.6C401.9-201.6,401.9-201.6,401.9-201.6c0.1,0,0.2,0.1,0.3,0c2.5-0.8,4.8-2.2,6.5-4.2
						c0.8-0.9,1.6-2.2,1.3-3.5c-0.3-1.3-1.5-2.3-2.8-2.4c-2.6-0.1-3.3,3.1-3.7,5c-0.2,0.7-0.3,1.4-0.6,2.1c-0.4,0.8-0.8,1.6-1.2,2.5
						c0,0.1,0,0.2,0,0.3c-0.1,0-0.1,0-0.2,0.1L401.9-201.6z"/>
					<path class="st1" d="M416.5-204.8c-1.1-0.5-2.3-0.4-3.5-0.1c-1.6,0.4-3.1,1.1-4.4,2c-0.3,0.2-0.5,0.3-0.8,0.5
						c-0.2,0.1-0.4,0.3-0.7,0.5c-0.2,0.2-0.5,0.3-0.7,0.5c-0.3,0.2-0.5,0.4-0.8,0.6c-0.3,0.2-0.5,0.3-0.7,0.5
						c-0.1,0.1-0.3,0.3-0.4,0.4c-0.1,0-0.1,0.1-0.2,0.1c-0.1,0.1-0.2,0.1-0.2,0.2c0,0,0,0,0,0c0,0-0.1,0-0.1,0.1c0,0,0,0,0,0.1
						c0,0,0,0,0,0c-0.1,0.1-0.2,0.2-0.2,0.4c0,0.1,0,0.1,0,0.2c0.1,0.2,0.2,0.3,0.4,0.3c0.1,0,0.1,0,0.2,0c0.1,0,0.1-0.1,0.2-0.1
						c0,0,0,0,0,0c0.1,0,0.2-0.1,0.3-0.1c0,0,0.1,0,0.1,0c0.2-0.1,0.4-0.1,0.6-0.2c0.1,0,0.2-0.1,0.3-0.1c3.1-0.6,6.2,0.2,9.2,1.1
						c0.7,0.2,1.5,0.5,2.2,0.4c1.7-0.1,2.4-1.6,2.2-3.1C419.3-202.5,418.1-204.1,416.5-204.8z"/>
					<path class="st1" d="M409.6-197.3c-1-0.3-2-0.3-3.1-0.3c-0.9,0-2-0.1-2.8,0.2c-0.1,0-0.1,0-0.2,0.1c0,0,0,0,0,0c0,0,0,0,0,0
						c0,0-0.1,0-0.1,0c-0.1,0-0.1,0-0.2,0.1c0,0,0,0,0,0c0,0,0,0-0.1,0c-0.2,0-0.3,0.2-0.3,0.4c0,0.2,0.1,0.3,0.3,0.4
						c0.1,0,0.2,0,0.2,0.1c0,0,0.1,0,0.1,0c0,0,0,0,0,0c0,0,0,0,0.1,0c0.1,0.1,0.3,0.1,0.4,0.2c1.2,0.7,2,1.8,3.1,2.5
						c0.8,0.5,1.8,0.9,2.8,0.9C413.3-192.8,411.6-196.6,409.6-197.3z"/>
				</g>
			</g>
			<path class="st1" d="M392.5-428.1c-0.5-2.2-2.9-2.8-4.9-2.6c-1.5,0.1-3.2,0.6-4.5,1.4c-0.9,0.5-1.4,1.5-2.5,1.6
				c-0.7-0.8-1.1-1.8-2-2.5c-0.9-0.7-1.9-1.1-3-1.4c-3-0.7-4.2,1.6-3.8,4.4c0.5,3.5,2.3,6,4.2,8.9c1.1,1.7,2.6,4.2,4.5,5.1
				c2.3-2,4.9-3.9,7.1-6C389.5-421.1,393.2-425,392.5-428.1z"/>
			<path class="st1" d="M176.1-136c-0.5-2.2-2.9-2.8-4.9-2.6c-1.5,0.1-3.2,0.6-4.5,1.4c-0.9,0.5-1.4,1.5-2.5,1.6
				c-0.7-0.8-1.1-1.8-2-2.5c-0.9-0.7-1.9-1.1-3-1.4c-3-0.7-4.2,1.6-3.8,4.4c0.5,3.5,2.3,6,4.2,8.9c1.1,1.7,2.6,4.2,4.5,5.1
				c2.3-2,4.9-3.9,7.1-6C173.1-129,176.8-132.9,176.1-136z"/>
			<path class="st1" d="M242.1-359.5c-0.5-2.2-2.9-2.8-4.9-2.6c-1.5,0.1-3.2,0.6-4.5,1.4c-0.9,0.5-1.4,1.5-2.5,1.6
				c-0.7-0.8-1.1-1.8-2-2.5c-0.9-0.7-1.9-1.1-3-1.4c-3-0.7-4.2,1.6-3.8,4.4c0.5,3.5,2.3,6,4.2,8.9c1.1,1.7,2.6,4.2,4.5,5.1
				c2.3-2,4.9-3.9,7.1-6C239.2-352.5,242.8-356.4,242.1-359.5z"/>
			<path class="st1" d="M490.3-244.7c-0.5-2.2-2.9-2.8-4.9-2.6c-1.5,0.1-3.2,0.6-4.5,1.4c-0.9,0.5-1.4,1.5-2.5,1.6
				c-0.7-0.8-1.1-1.8-2-2.5c-0.9-0.7-1.9-1.1-3-1.4c-3-0.7-4.2,1.6-3.8,4.4c0.5,3.5,2.3,6,4.2,8.9c1.1,1.7,2.6,4.2,4.5,5.1
				c2.3-2,4.9-3.9,7.1-6C487.3-237.7,490.9-241.6,490.3-244.7z"/>
			<path class="st1" d="M655.1-406.2c-0.5-2.2-2.9-2.8-4.9-2.6c-1.5,0.1-3.2,0.6-4.5,1.4c-0.9,0.5-1.4,1.5-2.5,1.6
				c-0.7-0.8-1.1-1.8-2-2.5c-0.9-0.7-1.9-1.1-3-1.4c-3-0.7-4.2,1.6-3.8,4.4c0.5,3.5,2.3,6,4.2,8.9c1.1,1.7,2.6,4.2,4.5,5.1
				c2.3-2,4.9-3.9,7.1-6C652.1-399.2,655.8-403.1,655.1-406.2z"/>
			<path class="st1" d="M121.5-275.9c-0.5-2.2-2.9-2.8-4.9-2.6c-1.5,0.1-3.2,0.6-4.5,1.4c-0.9,0.5-1.4,1.5-2.5,1.6
				c-0.7-0.8-1.1-1.8-2-2.5c-0.9-0.7-1.9-1.1-3-1.4c-3-0.7-4.2,1.6-3.8,4.4c0.5,3.5,2.3,6,4.2,8.9c1.1,1.7,2.6,4.2,4.5,5.1
				c2.3-2,4.9-3.9,7.1-6C118.5-269,122.2-272.8,121.5-275.9z"/>
			<g>
				<path class="st1" d="M549.5-537c-11.3,4.5-4.1-6.6-12.8-5.4c-2.1,0.7-2.9,3-2.3,5c3.6,6.3-8.8,1.6-8,8.4c1,8,11.8-1.9,11.5,5.5
					c0.4,2,2,3.7,4.2,3.5c4.3-0.5,3.7-5.1,2.6-8.2c3.3-0.9,9.1-0.5,8.9-5.2C553.6-535.4,551.6-537.4,549.5-537z"/>
				<path class="st1" d="M585.5-500.5c-22.3,2.7-82.4,18.6-87.8,13.4c-1.4-0.6-2.3-2.1-2-3.3c-1.5-10.4-6.4-31.2-8.1-43.4
					c-4.7-27.9,0.3-15.3,31-24.5c-0.1-7.3,5.5-13.1,12.5-14.4c7.7-1.5,15.4,2,20.4,7.8c15.8-1.7,26-5.7,28.4,1.7
					c1.2,10.5,6.4,31.2,8,43.6C589.8-502.7,591.2-501.1,585.5-500.5z M522.5-559.1c9.1-1.9,17.3-3.6,24.6-5
					c-3.9-3.6-9.2-5.6-14.5-4.9C527.4-568.4,522.8-564.4,522.5-559.1z M519.1-491.4c-1.4-2.9-2.2-6.1-2.8-9.2
					c-1.6-8.6-2.2-17.3-3.1-26c-5.2-29.2-0.1-26.1-23.3-23c-1.2,10.5,8.3,49,9.4,59.1C500-489.9,503.4-488.9,519.1-491.4z
					 M567.8-524.4c-10.9-49.3-1.9-38.7-50-30.1c-14.1,1.1-5.4,5.5-4.7,15.2c1.9,9.2,2.3,18.5,3.3,27.8c0.9,6.7,1.4,13.7,4.4,19.9
					c11.3-1.9,24.9-4.8,36.9-7.3C580.7-503,570-501,567.8-524.4z M576.4-563.2c-0.7-0.4-3.7-1.2-16.1,0.5c2,4,2.3,8.6,3.4,12.9
					c3.1,12.9,6.2,25.9,8.3,39.1c0.5,12.2,8.9,6,13.7,6.7C587-514.6,577.4-553,576.4-563.2z"/>
			</g>
			<g>
				<path class="st1" d="M85.7-129.7c-11.3,4.5-4.1-6.6-12.8-5.4c-2.1,0.7-2.9,3-2.3,5c3.6,6.3-8.8,1.6-8,8.4c1,8,11.8-1.9,11.5,5.5
					c0.4,2,2,3.7,4.2,3.5c4.3-0.5,3.7-5.1,2.6-8.2c3.3-0.9,9.1-0.5,8.9-5.2C89.7-128.2,87.7-130.1,85.7-129.7z"/>
				<path class="st1" d="M121.7-93.2c-22.3,2.7-82.4,18.6-87.8,13.4c-1.4-0.6-2.3-2.1-2-3.3c-1.5-10.4-6.4-31.2-8.1-43.4
					c-4.7-27.9,0.3-15.3,31-24.5c-0.1-7.3,5.5-13.1,12.5-14.4c7.7-1.5,15.4,2,20.4,7.8c15.8-1.7,26-5.7,28.4,1.7
					c1.2,10.5,6.4,31.2,8,43.6C125.9-95.5,127.4-93.8,121.7-93.2z M58.6-151.9c9.1-1.9,17.3-3.6,24.6-5c-3.9-3.6-9.2-5.6-14.5-4.9
					C63.6-161.1,58.9-157.1,58.6-151.9z M55.2-84.1c-1.4-2.9-2.2-6.1-2.8-9.2c-1.6-8.6-2.2-17.3-3.1-26c-5.2-29.2-0.1-26.1-23.3-23
					c-1.2,10.5,8.3,49,9.4,59.1C36.1-82.6,39.6-81.6,55.2-84.1z M104-117.2c-10.9-49.3-1.9-38.7-50-30.1c-14.1,1.1-5.4,5.5-4.7,15.2
					c1.9,9.2,2.3,18.5,3.3,27.8c0.9,6.7,1.4,13.7,4.4,19.9C68.4-86.3,82-89.2,94-91.7C116.9-95.7,106.1-93.7,104-117.2z
					 M112.6-155.9c-0.7-0.4-3.7-1.2-16.1,0.5c2,4,2.3,8.6,3.4,12.9c3.1,12.9,6.2,25.9,8.3,39.1c0.5,12.2,8.9,6,13.7,6.7
					C123.1-107.3,113.6-145.8,112.6-155.9z"/>
			</g>
			<path class="st1" d="M279-452.6c-0.2,0.2,0.2,0.8,0.9,1.6c0.7,0.8,1.8,1.9,3.5,2.6c1.6,0.7,3.2,0.7,4.3,0.7
				c1.1-0.1,1.7-0.3,1.7-0.5c0-0.2-0.7-0.4-1.7-0.6c-1-0.2-2.4-0.4-3.7-1c-1.3-0.6-2.5-1.4-3.3-2C279.7-452.4,279.1-452.8,279-452.6
				z"/>
			<path class="st1" d="M369.6-530.2c0.2-0.1-0.1-0.8-0.7-1.8c-0.6-1-1.5-2.3-2.9-3.5c-1.3-1.2-2.9-2-4-2.2
				c-1.2-0.3-1.9-0.1-1.9,0.1c0,0.2,0.6,0.5,1.6,1c0.9,0.5,2.1,1.3,3.4,2.3c1.2,1.1,2.3,2.2,3.1,3
				C368.9-530.5,369.5-530.1,369.6-530.2z"/>
			<path class="st1" d="M241.1-442.9c0.2-0.1-1.5-3.2-4.8-7.7c-3.3-4.6-8.3-10.5-14.1-16.8c-2.9-3.1-5.6-6.1-7.9-9
				c-2.3-2.9-4.4-5.5-6.1-7.7c-1.7-2.2-2.9-4.1-3.7-5.4c-0.9-1.3-1.6-1.9-1.6-1.8c-0.1,0.1,0.4,0.8,1.1,2.2c0.6,1.4,1.8,3.4,3.4,5.8
				c1.6,2.3,3.6,5,5.8,8c2.3,2.9,5,6,7.9,9.2c5.8,6.2,10.9,12,14.4,16.4C238.9-445.6,240.9-442.8,241.1-442.9z"/>
			<path class="st1" d="M240.4-422.7c0,0.1,1.2,0,2.8-1c0.8-0.5,1.7-1.1,2.6-2c0.9-0.9,1.7-2.1,2.1-3.5c0.2-0.7,0.3-1.5,0.3-2.1
				c0-0.7,0-1.3-0.1-1.9c-0.1-1.2-0.4-2.3-0.7-3.2c-0.3-0.9-0.9-1.5-1.4-1.8c-0.1-0.1-0.2-0.1-0.3-0.1c-0.1,0-0.2,0-0.3,0
				c-0.1,0-0.2,0-0.2,0.1c0,0,0.1,0.1,0.2,0.2c0.1,0,0.1,0.1,0.2,0.1c0.1,0.1,0.1,0.1,0.2,0.2c0.3,0.3,0.7,0.9,0.9,1.7
				c0.2,0.8,0.4,1.9,0.4,3c0,1.2,0.1,2.5-0.3,3.7c-0.8,2.5-2.7,4.2-4.1,5.2C241.4-423.3,240.3-422.9,240.4-422.7z"/>
			<g>
				<path class="st1" d="M252-641.1c-23.3-2-57.3-32.9-50.6-58.9c3.5-10.6,10.8-14.8,18.7-14.6c1.6,0,2.3,2,1.1,3
					c-2,1.8-3.6,4.1-4.8,6.6c-2.3,4.6,0.1,9,4.6,11c3.5,1.6,8.1-1.2,10.1-4.2c0.2-0.3,0.5-0.8,0.8-1.2c0.8-1.5,2.8-1.8,4.1-0.7
					c1.3,1.1,2.6,1.9,3.4,2c1.2,0.1,2.8-0.3,4-1c0.8-0.5,1.9-0.2,2.4,0.6c1.4,2.3,2.5,4.8,3.1,7.4c1.7,8,24.8,42.8,11.5,44.6
					c2.6,5.7,17.7,16.4,10.4,21.9C261-607.8,256.6-633.7,252-641.1z M270.1-629.7c-3.7-6.3-8.8-11.7-13.1-17.6
					c-2.4,4.5-3.6,6.8-0.4,11.6c3.1,3.9,3.5,14.7,9.2,14.4c1.6-2.1,1.7-4.8,4.9-5.5C271.4-627.5,270.5-629,270.1-629.7z"/>
				<path class="st1" d="M197.5-690.8c0.1,1.7,0.3,3.3,0.4,4.6c0.3,2.6,0.4,4.3,0.1,4.4c-0.3,0.1-1-1.5-1.7-4.1
					c-0.4-1.3-0.7-2.9-1-4.7c-0.1-0.9-0.2-1.9-0.2-2.9c0-1,0-2,0.2-3.1c0.3-2.1,0.8-4,1.5-5.8c0.7-1.7,1.4-3.2,2.2-4.3
					c0.8-1.1,1.5-2,2.1-2.5c0.6-0.5,0.9-0.8,1.1-0.7c0.3,0.2-0.6,1.6-1.7,4c-0.5,1.2-1.1,2.6-1.6,4.2c-0.5,1.6-0.9,3.4-1.2,5.4
					c-0.1,0.9-0.2,1.9-0.2,2.8C197.4-692.5,197.4-691.6,197.5-690.8z"/>
				<path class="st1" d="M193.6-696.5c0.2,0.1-0.1,1-0.4,2.4c-0.3,1.4-0.5,3.4-0.3,5.6c0.2,2.2,1,4.1,1.5,5.5
					c0.5,1.4,0.8,2.3,0.6,2.4c-0.2,0.1-0.7-0.7-1.5-2c-0.4-0.7-0.8-1.5-1.1-2.5c-0.4-1-0.7-2.1-0.8-3.3c-0.2-2.4,0.2-4.6,0.7-6
					C192.8-695.9,193.4-696.6,193.6-696.5z"/>
				<path class="st1" d="M266.5-616.5c-0.3,0.2-0.8,0.4-1.4,0.5c-0.6,0.1-1.4,0-2.2-0.2c-0.4-0.1-0.8-0.3-1.2-0.5
					c-0.1-0.1-0.2-0.1-0.3-0.2c-0.1-0.1-0.2-0.2-0.3-0.2c-0.2-0.1-0.3-0.3-0.5-0.4c-0.3-0.3-0.6-0.6-0.9-1c-0.1-0.2-0.3-0.4-0.4-0.5
					c-0.1-0.1-0.1-0.2-0.2-0.3c0-0.1-0.1-0.2-0.1-0.3c-0.3-0.7-0.6-1.3-0.9-1.8c-0.5-1-0.7-1.7-0.6-1.8c0.1-0.1,0.7,0.4,1.4,1.3
					c0.3,0.5,0.7,1,1.1,1.7c0,0.1,0.1,0.2,0.1,0.2c0,0.1,0.1,0.1,0.1,0.2c0.1,0.1,0.2,0.3,0.3,0.4c0.2,0.3,0.5,0.6,0.8,0.8
					c0.2,0.1,0.3,0.3,0.5,0.4c0.1,0.1,0.1,0.1,0.2,0.2c0.1,0.1,0.1,0.1,0.2,0.1c0.3,0.2,0.6,0.3,0.9,0.5c0.6,0.2,1.2,0.4,1.8,0.4
					c1,0.1,1.6-0.2,1.8-0.1c0,0,0,0.1,0,0.2C266.8-616.7,266.7-616.6,266.5-616.5z"/>
			</g>
			<g>
				<path class="st1" d="M125.2-664.9c3-5.3,6.1-10.7,9.1-16c3.1-5.4,6.1-10.7,9.2-16.1c0.4-0.6,0.5-1.2,0.1-1.9
					c-0.4-0.7-1-0.9-1.7-0.7c-1.7,0.4-3.5,0.6-5.1,1.2c-3.3,1.2-5.5,3.7-7.4,6.5c-6,9.2-12,18.3-18,27.5c-0.3,0.5-0.6,0.7-1.2,0.7
					c-5.7,0.2-11.4,0.4-17.1,0.6c-0.9,0-1.5,0.4-2,1.2c-1.5,2.9-4.5,4.4-7.7,4c-3.2-0.4-5.8-2.7-6.5-5.9c-0.7-3.1,0.6-6.4,3.4-8.2
					c2.7-1.7,6.2-1.6,8.8,0.4c1.4,1.1,2.3,2.5,2.8,4.2c0.3,1.1,1.3,1.6,2.2,1.1c0.8-0.4,1.1-1.1,0.8-2.2c-1.6-5.9-7.9-9.3-13.8-7.3
					c-4.2,1.4-6.7,4.4-7.3,8.8c-0.6,4.5,1.1,8.2,4.9,10.6c3.7,2.4,7.6,2.3,11.5,0.1c1.2-0.7,2.3-1.4,3.6-2c2.1-0.9,4.3-1.5,6.6-0.9
					c4.3,1.2,7.2,4,8.6,8.2c1,3,1,6-0.8,8.8c-1.4,2.1-3.3,3.7-5.5,4.8c-3.2,1.7-5.1,4.2-5.8,7.7c-0.3,1.5-0.2,2.8,0,3.6
					c0.1,0.3,0.1,0.6,0.2,0.9c0.1,0.5,0.3,1.2,0.7,2c1.5,3.2,5.4,6.4,10.2,6.2c4.4-0.2,8.2-3,9.7-7.1c1.5-4.1,0.4-8.8-2.8-11.7
					c-0.3-0.2-0.7-0.5-1-0.5c-0.5,0.1-1.2,0.2-1.5,0.6c-0.6,0.9-0.4,1.5,0.4,2.3c2.4,2.4,3.1,5.7,1.8,8.7c-1.3,2.9-4.2,4.7-7.3,4.6
					c-1.2-0.1-2.3-0.4-3.3-0.9c-0.4-0.2-2.9-1.6-3.8-4.6c-0.1-0.5-0.5-1.8-0.2-3.5c0.4-2.4,1.8-3.8,2-4.1c0.7-0.8,1.7-1.4,2.8-1.8
					c1.2-0.4,2.5-0.6,3.9-0.9c0.2-0.2,0.4-0.4,0.7-0.8c0.5-0.6,0.7-1.2,0.8-1.4c2.6-4.5,5.2-9.1,7.7-13.6c0.2-0.4,0.5-0.6,1-0.7
					c4.4-0.4,8.8-0.7,13.1-1.1c6-0.6,12-1.2,18-1.8c2.4-0.3,4.8-0.5,7.1-1.5c3.2-1.3,5.6-3.5,7.3-6.4c0.6-1,0.3-2-0.7-2.4
					c-0.3-0.1-0.8-0.1-1.1-0.1c-10.7,0.3-21.4,0.7-32.1,1.1c-1.7,0.1-3.5,0-5.3,0C125-664.5,125.1-664.7,125.2-664.9z M112-657.8
					c0-1.2,1.1-2.2,2.3-2.2c1.2,0,2.2,1.1,2.2,2.3c0,1.2-1,2.2-2.3,2.2C113-655.6,112-656.6,112-657.8z"/>
				<path class="st1" d="M70.5-661.2c0.1-0.1-0.3-0.9-0.6-2.3c-0.4-1.4-0.7-3.4-0.3-5.6c0.3-2.2,1.2-4.1,2-5.3
					c0.8-1.3,1.4-1.9,1.3-2.1c-0.1-0.1-0.9,0.4-1.9,1.6c-1,1.2-2,3.2-2.4,5.6c-0.4,2.4,0.1,4.6,0.7,6
					C69.8-661.9,70.4-661.1,70.5-661.2z"/>
				<path class="st1" d="M68-656.7c0.2-0.2-1.2-1.7-1.9-4.1c-0.7-2.4-0.4-4.4-0.7-4.5c-0.1,0-0.4,0.5-0.5,1.3
					c-0.1,0.9-0.1,2.1,0.3,3.4c0.4,1.3,1.1,2.4,1.7,3C67.5-656.8,68-656.6,68-656.7z"/>
				<path class="st1" d="M116-617.7c0,0.1,0.7,0.1,1.7-0.4c1-0.5,2.2-1.4,3.1-2.8c0.9-1.4,1.3-2.8,1.3-3.9c0.1-1.1-0.2-1.7-0.3-1.7
					c-0.2,0-0.2,0.6-0.4,1.6c-0.2,1-0.7,2.2-1.5,3.5c-0.8,1.2-1.8,2.1-2.6,2.7C116.5-618.1,115.9-617.8,116-617.7z"/>
				<path class="st1" d="M110.1-614.2c0,0.1,0.7,0.4,1.9,0.4c1.2,0,2.9-0.2,4.6-0.9c1.7-0.7,3-1.8,3.8-2.7c0.8-0.9,1.1-1.6,1-1.6
					c-0.2-0.2-2.1,2-5.2,3.4C113-614.3,110.1-614.5,110.1-614.2z"/>
			</g>
			<path class="st2" d="M23.5-231.6c-1.3-1.4-2.5-2.4-3.2-3.6c-0.6-1.1-1.2-2.6-0.9-3.7c0.2-0.9,2-2.1,2.6-1.9
				c1.5,0.5,3.7,1.6,3.8,2.7c0.4,4.8,3.5,5.3,7.3,6.1c10.5,2.3,21,5.1,31.4,7.9c2.9,0.8,5.5,1.2,8.3-0.6c1.8-1.2,4.1-1.4,5.7,0.7
				c1.6,2,0.6,4.6-1.9,5.4c-1.7,0.5-3.6,0.8-5.6,1.3c0.6,1.3,1.4,2.3,1.6,3.5c0.1,1.2,0,3-0.7,3.7c-0.8,0.8-2.9,1.3-3.7,0.7
				c-1.6-1-3.1-2.6-3.8-4.3c-0.8-2-1.8-3.3-3.9-3.8c-10-2.3-20-4.7-30-7.1c-2.4-0.6-4.5-0.5-6.2,1.9c-1.5,2.2-4.3,1.9-6.3,0.7
				c-1.3-0.7-2.3-2.7-2.5-4.2c-0.3-2.3,1.5-3.5,3.6-4.1C20.5-230.5,21.8-231,23.5-231.6z"/>
			<path class="st3" d="M217-539.5c0.2-1.4,0.2-2.5,0.6-3.5c0.3-0.9,0.9-1.9,1.7-2.2c0.6-0.3,2.1,0.1,2.3,0.6c0.4,1,0.8,2.9,0.2,3.4
				c-2.6,2.5-1.4,4.4-0.1,7c3.6,7.1,6.8,14.4,10.1,21.6c0.9,2,1.9,3.7,4.2,4.4c1.5,0.5,2.7,1.7,2.3,3.6c-0.4,1.8-2.3,2.5-4,1.4
				c-1.1-0.7-2.1-1.7-3.3-2.6c-0.4,0.9-0.7,1.9-1.2,2.5c-0.6,0.7-1.7,1.4-2.5,1.3c-0.8-0.1-2.1-1.1-2.1-1.7c-0.1-1.4,0.1-3,0.7-4.2
				c0.8-1.4,1.1-2.6,0.4-4c-3.3-6.8-6.6-13.6-10-20.4c-0.8-1.7-1.8-2.8-4-2.6c-2,0.1-3.1-1.6-3.3-3.2c-0.2-1.1,0.5-2.5,1.2-3.4
				c1.2-1.3,2.7-0.8,4,0.2C215-540.8,215.8-540.2,217-539.5z"/>
			<path class="st2" d="M502.1-640.7c0.2-1.4,0.2-2.5,0.6-3.5c0.3-0.9,0.9-1.9,1.7-2.2c0.6-0.3,2.1,0.1,2.3,0.6
				c0.4,1,0.8,2.9,0.2,3.4c-2.6,2.5-1.4,4.4-0.1,7c3.6,7.1,6.8,14.4,10.1,21.6c0.9,2,1.9,3.7,4.2,4.4c1.5,0.5,2.7,1.7,2.3,3.6
				c-0.4,1.8-2.3,2.5-4,1.4c-1.1-0.7-2.1-1.7-3.3-2.6c-0.4,0.9-0.7,1.9-1.2,2.5c-0.6,0.7-1.7,1.4-2.5,1.3c-0.8-0.1-2.1-1.1-2.1-1.7
				c-0.1-1.4,0.1-3,0.7-4.2c0.8-1.4,1.1-2.6,0.4-4c-3.3-6.8-6.6-13.6-10-20.4c-0.8-1.7-1.8-2.8-4-2.6c-2,0.1-3.1-1.6-3.3-3.2
				c-0.2-1.1,0.5-2.5,1.2-3.4c1.2-1.3,2.7-0.8,4,0.2C500.1-642,500.9-641.5,502.1-640.7z"/>
			<g>
				<g>
					<path class="st1" d="M351.6-652.6c3.6,9.1,25,30.2,9.9,38.6c-8.8,3.9-27.5,22.4-35.6,8.1c-6.2-12-25.7-33.1-10.9-45.9l-1.7-2.9
						c-6.9,0.6-13.5-12-6.4-16.1c5-2.4,15-12,19.5-4c2,3.1,4.9,7.5,2.1,11l1.7,2.9C338.2-663.2,347.2-660,351.6-652.6z M327.2-661.2
						l-0.1-0.2l-11,6.5l0.1,0.2L327.2-661.2z M327.5-664.6c2.9-4.7-3.7-14.7-9.3-11.2c-6.8,4.6-18.4,7.2-9.9,17.3
						C311.3-651.2,323.9-663.6,327.5-664.6z M317.2-625.4l35.3-21c-6.6-15.4-20.5-15.6-32.6-6.1
						C309.7-646.5,310.5-633.7,317.2-625.4z M360.8-632.4l-35.3,21c7.3,18.8,24.5-0.1,34.7-4.7C366.7-619.8,364.7-627.5,360.8-632.4
						z"/>
					
						<rect x="309.9" y="-665.7" transform="matrix(0.5118 -0.8591 0.8591 0.5118 724.2275 -54.7548)" class="st1" width="8.2" height="2.2"/>
					
						<rect x="313.6" y="-667.9" transform="matrix(0.5118 -0.8591 0.8591 0.5118 727.9651 -52.6308)" class="st1" width="8.2" height="2.2"/>
					
						<rect x="317.3" y="-670.1" transform="matrix(0.5118 -0.8591 0.8591 0.5118 731.7032 -50.5065)" class="st1" width="8.2" height="2.2"/>
				</g>
				<path class="st1" d="M365-610.4c0,0.1,1.7-0.6,3.4-2.8c0.9-1.1,1.7-2.5,2.3-4.2c0.6-1.7,1-3.7,1-5.8c0-2.1-0.3-4.1-0.8-5.8
					c-0.2-0.9-0.5-1.7-0.8-2.4c-0.3-0.8-0.7-1.4-1-2c-0.7-1.1-1.4-2-1.8-2.6c-0.4-0.6-0.6-1-0.7-0.9c-0.1,0,0,0.4,0.3,1.1
					c0.3,0.7,0.9,1.6,1.5,2.8c0.3,0.6,0.6,1.2,0.8,1.9c0.2,0.7,0.5,1.5,0.7,2.4c0.4,1.7,0.7,3.6,0.7,5.5c0,2-0.3,3.8-0.9,5.5
					c-0.5,1.6-1.2,3-2,4.1C366.3-611.5,364.9-610.6,365-610.4z"/>
				<path class="st1" d="M309.4-631.4c0.1-0.1-0.4-1-1-2.6c-0.6-1.6-1.4-3.8-1.7-6.3c-0.1-1.3-0.1-2.5,0-3.6
					c0.1-0.5,0.1-1.1,0.3-1.5c0.1-0.2,0.1-0.5,0.2-0.7c0.1-0.2,0.2-0.4,0.3-0.6c0.7-1.5,1.5-2.2,1.3-2.4c-0.1-0.1-1.1,0.5-2,2
					c-0.1,0.2-0.2,0.4-0.3,0.6c-0.1,0.2-0.2,0.5-0.3,0.7c-0.2,0.5-0.3,1.1-0.4,1.6c-0.2,1.2-0.2,2.5-0.1,3.8c0.3,2.7,1.2,5,2.1,6.5
					C308.6-632.1,309.3-631.3,309.4-631.4z"/>
				<path class="st1" d="M304.6-633.8c0.1-0.1,0-0.5-0.2-1.2c-0.3-0.7-0.7-1.6-1-2.6c-0.3-1-0.4-1.9-0.4-2.6c0-0.7,0-1.2-0.1-1.2
					c-0.1,0-0.4,0.4-0.6,1.1c-0.2,0.8-0.2,1.9,0.2,3c0.4,1.1,0.9,2,1.4,2.6C304.1-634.1,304.5-633.8,304.6-633.8z"/>
			</g>
			<g>
				<path class="st1" d="M100.9-367.7c-0.2,0.3-0.8,0-0.6-0.3c0.4-0.5,0.3-1.2,0.6-1.8c0.3-0.6,1-0.8,1.2-1.5
					c0.1-0.5-0.2-1.1-0.1-1.6c0-0.3,0.2-0.7,0.4-0.9c0.1-0.2,0.2-0.3,0.3-0.5c-0.2,0-0.3,0-0.5,0.1c-1.3,0.3-2.4,1.2-3.5,1.8
					c-0.4,0.2-0.8,0.4-1.2,0.6c0.9,1.2,1.8,2.4,2.6,3.7c0.1,0.1,0,0.4-0.1,0.4c-0.2,0.1-0.3,0-0.4-0.1c-0.2-0.3-0.5-0.7-0.7-1
					c-0.6-0.9-1.3-1.8-1.9-2.7c-0.9,0.4-1.8,0.7-2.7,0.9c-3.1,0.8-6.4,1-9.5,0.6c-3.3-0.5-6.5-1.5-9.4-3c-3-1.5-5.8-3.6-8.1-5.9
					c-1.2-1.1-2.2-2.3-3.1-3.7c-0.8-1.3-1.5-2.7-2.6-3.8c-0.2-0.2,0-0.5,0.2-0.5c-0.1-0.2,0-0.4,0.2-0.5c0.3-0.1,0.7-0.2,1-0.3
					c2.8-0.8,5.7-1.3,8.6-1.4c2.9-0.1,5.9,0.1,8.8,1c1.4,0.4,2.7,0.9,3.9,1.6c1.4,0.8,2.6,1.7,3.8,2.8c2.4,2.2,4.3,4.9,6.2,7.5
					c1,1.4,2,2.8,3.1,4.1c0.2-0.1,0.4-0.2,0.6-0.3c0.6-0.3,1.2-0.7,1.8-1c1.1-0.7,2.3-1.4,3.7-1.3c0.2,0,0.3,0.2,0.3,0.3
					c-0.1,0.4-0.2,0.7-0.4,1c-0.2,0.3-0.4,0.5-0.4,0.8c0,0.3,0,0.5,0.1,0.8c0,0.3,0.1,0.6,0,0.9c-0.1,0.3-0.3,0.6-0.5,0.9
					c-0.2,0.2-0.5,0.4-0.7,0.7c-0.2,0.3-0.2,0.6-0.3,0.9C101.3-368.3,101.2-368,100.9-367.7z M69.6-385.9c-1.6-1-3.1,1.5-1.5,2.4
					C69.7-382.5,71.2-384.9,69.6-385.9z"/>
				<path class="st1" d="M106.1-372.7c0-0.1-0.3-0.2-0.8-0.2c-0.4,0-0.8,0-0.8,0.1c0,0.1,0.3,0.2,0.8,0.2
					C105.7-372.6,106.1-372.6,106.1-372.7z"/>
				<path class="st1" d="M107-370.1c0-0.1-0.7-0.3-1.6-0.5c-0.9-0.3-1.5-0.6-1.6-0.5c-0.1,0.1,0.6,0.6,1.5,0.9
					C106.2-370.1,107-370,107-370.1z"/>
				<path class="st1" d="M105.2-367.9c0.1-0.1-0.3-0.4-0.8-0.6c-0.5-0.3-0.8-0.5-0.9-0.5c-0.1,0.1,0.2,0.5,0.7,0.8
					C104.7-368,105.2-367.9,105.2-367.9z"/>
				<path class="st1" d="M76.5-371.4c0-0.1-0.8-0.2-2-0.7c-1.2-0.5-2.7-1.4-4.3-2.7c-1.5-1.3-2.9-2.4-3.9-3.3
					c-1-0.9-1.5-1.5-1.6-1.4c-0.1,0.1,0.4,0.8,1.3,1.7c0.9,1,2.3,2.2,3.8,3.5c1.6,1.3,3.2,2.2,4.5,2.6
					C75.6-371.3,76.5-371.4,76.5-371.4z"/>
				<path class="st1" d="M92.6-381.3c0.1,0,0-0.7-0.5-1.6c-0.5-1-1.3-2.1-2.6-3.2c-2.5-2.1-5.1-2.7-5.1-2.5c-0.1,0.2,2.3,1.1,4.7,3
					c1.2,1,2.1,2,2.6,2.9C92.3-381.9,92.5-381.3,92.6-381.3z"/>
				<path class="st1" d="M93.3-379.9c0.6,0.4,1.2-0.6,0.6-0.9C93.3-381.2,92.7-380.2,93.3-379.9L93.3-379.9z"/>
			</g>
			<g>
				<path class="st1" d="M261-285.6c0.1,0.3-0.3,0.4-0.4,0.2c-0.2-0.4-0.6-0.6-0.8-1c-0.2-0.4-0.1-0.9-0.4-1.1
					c-0.3-0.2-0.6-0.3-0.9-0.5c-0.2-0.1-0.3-0.3-0.4-0.5c-0.1-0.1-0.1-0.2-0.2-0.4c0,0.1-0.1,0.2-0.1,0.3c-0.3,0.8-0.1,1.7-0.2,2.6
					c0,0.3,0,0.6-0.1,0.9c1-0.1,2-0.2,2.9-0.3c0.1,0,0.2,0.1,0.2,0.2c0,0.1-0.1,0.2-0.2,0.2c-0.3,0-0.5,0-0.8,0.1
					c-0.7,0.1-1.4,0.1-2.2,0.2c-0.1,0.6-0.2,1.2-0.4,1.8c-0.6,2-1.6,3.9-2.9,5.6c-1.4,1.7-3,3.2-4.9,4.3c-1.9,1.2-3.9,2.1-6.1,2.6
					c-1,0.3-2.1,0.5-3.1,0.5c-1,0-2.1-0.1-3,0.2c-0.2,0.1-0.3-0.2-0.2-0.3c-0.1,0-0.2-0.1-0.2-0.3c0.1-0.2,0.1-0.4,0.2-0.7
					c0.5-1.8,1.2-3.6,2.1-5.3c0.9-1.7,2.1-3.3,3.5-4.6c0.7-0.6,1.4-1.2,2.2-1.7c0.9-0.5,1.8-0.9,2.8-1.2c2-0.6,4.2-0.8,6.3-1
					c1.1-0.1,2.2-0.2,3.4-0.3c0-0.2,0-0.3,0-0.5c0-0.4,0-0.9,0-1.3c0-0.9,0-1.8,0.5-2.5c0.1-0.1,0.2-0.1,0.3-0.1
					c0.2,0.2,0.3,0.4,0.4,0.6c0.1,0.2,0.2,0.4,0.3,0.5c0.1,0.1,0.3,0.2,0.5,0.2c0.2,0.1,0.4,0.2,0.5,0.3c0.2,0.2,0.3,0.4,0.3,0.6
					c0.1,0.2,0.1,0.4,0.2,0.6c0.1,0.2,0.3,0.3,0.4,0.4C260.8-286,261-285.8,261-285.6z M240.2-274.1c-1.1,0.6-0.2,2.2,0.9,1.7
					C242.2-273,241.3-274.6,240.2-274.1z"/>
				<path class="st1" d="M260-290.2c-0.1,0-0.2,0.1-0.4,0.4c-0.2,0.2-0.3,0.5-0.2,0.5c0,0,0.2-0.1,0.4-0.4
					C259.9-290,260-290.2,260-290.2z"/>
				<path class="st1" d="M261.7-289.9c0,0-0.4,0.3-0.8,0.7c-0.4,0.4-0.9,0.6-0.8,0.7c0,0.1,0.5-0.1,1-0.5
					C261.5-289.4,261.7-289.8,261.7-289.9z"/>
				<path class="st1" d="M262.3-288.1c0-0.1-0.3,0.1-0.6,0.2c-0.3,0.2-0.6,0.3-0.6,0.3c0,0.1,0.3,0,0.7-0.1
					C262.1-287.9,262.4-288.1,262.3-288.1z"/>
				<path class="st1" d="M250.7-273.1c-0.1,0-0.4,0.4-1.1,0.9c-0.7,0.5-1.7,1.1-2.9,1.5c-1.2,0.4-2.4,0.8-3.2,1.1
					c-0.8,0.3-1.3,0.4-1.3,0.4c0,0.1,0.6,0,1.4-0.1c0.9-0.2,2-0.5,3.3-1c1.3-0.5,2.3-1.1,3-1.7C250.5-272.6,250.8-273,250.7-273.1z"
					/>
				<path class="st1" d="M250.5-285.5c0,0-0.4-0.2-1.1-0.3c-0.7-0.1-1.7,0-2.7,0.4c-2,0.7-3.2,2-3.1,2.1c0.1,0.1,1.4-1,3.3-1.6
					c0.9-0.3,1.8-0.5,2.5-0.5C250.1-285.5,250.5-285.4,250.5-285.5z"/>
				<path class="st1" d="M251.6-285.4c0.4-0.2,0.1-0.9-0.3-0.6C250.9-285.8,251.2-285.2,251.6-285.4L251.6-285.4z"/>
			</g>
			<g>
				<path class="st1" d="M245.1-119.9c-15.1-1.3-37.2-21.4-32.9-38.3c2.3-6.9,7-9.6,12.2-9.5c1,0,1.5,1.3,0.7,2
					c-1.3,1.2-2.3,2.6-3.1,4.3c-1.5,3,0.1,5.8,3,7.2c2.3,1,5.3-0.8,6.6-2.7c0.2-0.2,0.3-0.5,0.5-0.8c0.5-1,1.8-1.2,2.7-0.5
					c0.8,0.7,1.7,1.2,2.2,1.3c0.8,0.1,1.8-0.2,2.6-0.7c0.5-0.3,1.2-0.1,1.5,0.4c0.9,1.5,1.6,3.1,2,4.8c1.1,5.2,16.1,27.8,7.5,29
					c1.7,3.7,11.5,10.7,6.7,14.2C250.9-98.3,248.1-115.1,245.1-119.9z M256.8-112.5c-2.4-4.1-5.7-7.6-8.5-11.4
					c-1.5,2.9-2.4,4.4-0.3,7.6c2,2.6,2.3,9.5,6,9.4c1.1-1.4,1.1-3.1,3.2-3.6C257.7-111,257.1-112,256.8-112.5z"/>
				<path class="st1" d="M254.5-103.9c-0.2,0.1-0.5,0.3-0.9,0.3c-0.4,0.1-0.9,0-1.4-0.1c-0.3-0.1-0.5-0.2-0.8-0.3
					c-0.1,0-0.1-0.1-0.2-0.1c-0.1-0.1-0.1-0.1-0.2-0.2c-0.1-0.1-0.2-0.2-0.3-0.3c-0.2-0.2-0.4-0.4-0.6-0.6c-0.1-0.1-0.2-0.2-0.3-0.4
					c0-0.1-0.1-0.1-0.1-0.2c0-0.1-0.1-0.1-0.1-0.2c-0.2-0.4-0.4-0.8-0.6-1.2c-0.3-0.7-0.5-1.1-0.4-1.2c0.1-0.1,0.5,0.3,0.9,0.9
					c0.2,0.3,0.5,0.7,0.7,1.1c0,0.1,0.1,0.1,0.1,0.2c0,0,0.1,0.1,0.1,0.1c0.1,0.1,0.1,0.2,0.2,0.3c0.2,0.2,0.3,0.4,0.5,0.5
					c0.1,0.1,0.2,0.2,0.3,0.3c0.1,0.1,0.1,0.1,0.1,0.1c0,0,0.1,0.1,0.1,0.1c0.2,0.1,0.4,0.2,0.6,0.3c0.4,0.2,0.8,0.2,1.1,0.3
					c0.7,0.1,1.1-0.1,1.1,0c0,0,0,0.1,0,0.1C254.7-104,254.6-103.9,254.5-103.9z"/>
			</g>
			<g>
				<path class="st1" d="M368-479.3c2.6-26.8,39.5-27.8,42.6,0.1c3.2-0.7,10.4,2.1,10.2-3.1c-1.7-9.7,4.1-23.7-3.4-30.9
					c-13.6-5.6-20.4-19.7-28.8-31c-3-5-9.3-2.6-14.1-3.1c-9.2,2-0.7-10.4-9.5-9.4c-15,3.5-103.1-9.1-98.2,9.1
					c3.3,13-9.4,75.6,11.7,68.1c3.4-27.6,39.7-27.1,42.6,0.2C336.6-479.3,352.3-479.3,368-479.3z M383.1-544.2
					c6.4,3.6,9,12,14.1,17.8c-8.5,0-16.7,0-24.9,0C373-537.2,368-547.4,383.1-544.2z"/>
				<g>
					<path class="st1" d="M348.6-532.8l-5.6,0c0,0,0,0,0,0l0,0c0,0,0,0,0,0l-1,0.1c0,0,0,0,0,0l-0.7,0c0,0,0,0,0,0l0,0c0,0,0,0,0,0
						l-5.3,0.3c0,0,0,0,0,0l-0.1,0.6c0,0,0,0,0,0c-0.5-0.3-1.2-0.5-2-0.5l0,0c-0.4,0-0.8,0-1.2,0.1c-0.3,0-0.7,0.1-1,0.1
						c-0.3,0-0.6,0.1-0.9,0.1l-0.7,0.1c0,0,0,0,0,0l0,0.3c0,0,0,0,0,0c-0.4-0.2-0.8-0.4-1.4-0.4c0,0-0.1,0-0.1,0c-0.3,0-0.7,0-1,0
						c-0.4,0-0.7,0.1-1.1,0.1c-0.1,0-0.2,0-0.3,0c0,0,0,0,0,0l0-0.1c0,0,0,0,0,0l-7.1,0.4c0,0,0,0,0,0l0,0.3c0,0,0,0,0,0l-5.6,0
						c0,0,0,0,0,0l-0.1,0.5c0,0,0,0,0,0c-0.2-0.1-0.4-0.2-0.7-0.2c-0.3-0.1-0.6-0.1-1-0.1c-0.2,0-0.4,0-0.7,0
						c-0.6,0.1-1.2,0.2-1.6,0.4c-0.5,0.2-0.9,0.5-1.2,0.8c0,0-0.1,0.1-0.1,0.1c0,0,0,0,0,0l0-1.3c0,0,0,0,0,0l-5.2,0.6c0,0,0,0,0,0
						l0,0.1c0,0,0,0,0,0l-2.7-0.2c0,0,0,0,0,0l-0.8,1.5c0,0,0,0,0,0l-0.4-1.6c0,0,0,0,0,0l-4.1,0.8c0,0,0,0,0,0l-1,7.3c0,0,0,0,0,0
						c0.3,0.2,0.5,0.4,0.8,0.5c0.3,0.2,0.7,0.4,1,0.7c0,0,0,0,0,0l0.7-0.2c0,0,0,0,0,0l0,0c0,0,0,0,0,0l2,0c0,0,0,0,0,0l0,0.2
						c0,0,0,0,0,0l3.6-0.1c0,0,0,0,0,0l0-0.2c0,0,0,0,0,0l1.4,0c0,0,0,0,0,0l0.4-1.2c0,0,0,0,0,0l0.4,0c0,0,0,0,0,0l0.2,1.3
						c0,0,0,0,0,0l3.9-0.5c0,0,0,0,0,0l0-0.3c0,0,0,0,0,0c0.1,0.1,0.3,0.1,0.5,0.2c0.3,0.1,0.7,0.1,1.1,0.1c0.2,0,0.4,0,0.7,0
						c0.5-0.1,1-0.2,1.4-0.3c0.4-0.1,0.8-0.3,1.1-0.5c0.3-0.2,0.6-0.4,0.8-0.7c0,0,0.1-0.1,0.1-0.1c0,0,0,0,0,0l-0.3,1.6
						c0,0,0,0,0,0l4.5-0.7c0,0,0,0,0,0v0l0.2,0.4c0,0,0,0,0,0l0,0l0,0c0,0,0,0,0,0l4.8-0.8c0,0,0,0,0,0l-0.1,0.3c0,0,0,0,0,0
						l3.9-0.5c0,0,0,0,0,0l0,0.2c0,0,0,0,0,0l2.5-0.3c0,0,0,0,0,0l0,0.3c0,0,0,0,0,0l3.7-0.7c0,0,0,0,0,0l0.3-1.5c0,0,0,0,0,0
						c0,0,0,0,0,0c0.2,0,0.4,0,0.7-0.1c0.3-0.1,0.6-0.2,0.9-0.3c0.1-0.1,0.2-0.1,0.3-0.2c0,0,0,0,0,0l-0.2,2.4c0,0,0,0,0,0l6.2-1
						c0,0,0,0,0,0l0,0l1.4,0.5l3.2-0.7c0,0,0,0,0,0c0,0,0,0,0,0l0.6-5.2c0,0,0,0,0,0l1.5-0.3c0,0,0,0,0,0L348.6-532.8
						C348.6-532.8,348.6-532.8,348.6-532.8z"/>
					<g>
						<path class="st1" d="M295-522.5l0.7-3.5l0.6,3.5l1.4,0l1.6-3.1l-0.6,3.4l1.5-0.1l1.4-7l-1.7-0.1l-1.8,3.4l-0.7-3.4l-2.5,0.5
							l-0.9,6.8L295-522.5z"/>
						<path class="st1" d="M302.2-523.9l2,0l0.2,1.2l2-0.2l-0.1-7l-3.5,0.4l-2.1,6.9l1.1,0L302.2-523.9z M302.6-525l1.1-2.9l0.4,2.7
							L302.6-525z"/>
						<path class="st1" d="M307-524.2c0.1,0.2,0.2,0.4,0.4,0.5c0.2,0.2,0.4,0.3,0.8,0.4c0.3,0.1,0.8,0.1,1.3,0.1
							c0.4,0,0.8-0.1,1.1-0.2c0.3-0.1,0.6-0.3,0.8-0.4c0.2-0.2,0.4-0.3,0.6-0.5c0.1-0.2,0.3-0.4,0.3-0.5c0.1-0.2,0.1-0.4,0.2-0.5
							c0-0.2,0-0.3,0-0.4c0-0.3,0-0.6-0.1-0.8c-0.1-0.2-0.2-0.4-0.4-0.5c-0.1-0.1-0.3-0.3-0.5-0.4c-0.2-0.1-0.4-0.2-0.6-0.2
							c-0.2-0.1-0.4-0.1-0.5-0.1c-0.2,0-0.3-0.1-0.4-0.1c-0.2-0.1-0.3-0.1-0.4-0.2c-0.1-0.1-0.1-0.2-0.1-0.3c0-0.1,0.1-0.2,0.2-0.3
							c0.1-0.1,0.2-0.1,0.4-0.1c0.2,0,0.5,0,0.7,0.1c0.2,0.1,0.4,0.2,0.5,0.3c0.2,0.1,0.3,0.3,0.5,0.5l1.2-1.3
							c-0.1-0.2-0.3-0.4-0.5-0.6c-0.2-0.1-0.5-0.2-0.8-0.3c-0.4-0.1-0.8-0.1-1.4-0.1c-0.5,0-0.9,0.2-1.3,0.3
							c-0.3,0.2-0.6,0.4-0.8,0.6c-0.2,0.2-0.4,0.5-0.5,0.8c-0.1,0.3-0.2,0.6-0.2,0.9c0,0.3,0,0.5,0.1,0.7c0.1,0.2,0.2,0.4,0.3,0.5
							c0.1,0.1,0.3,0.2,0.5,0.3c0.2,0.1,0.4,0.1,0.5,0.2c0.2,0,0.4,0.1,0.5,0.1c0.2,0,0.3,0.1,0.4,0.1c0.3,0.1,0.5,0.1,0.6,0.3
							c0.1,0.1,0.1,0.3,0.1,0.4c0,0.2-0.1,0.3-0.3,0.4c-0.1,0.1-0.3,0.2-0.5,0.2c-0.2,0-0.4,0-0.5-0.1c-0.1-0.1-0.3-0.2-0.4-0.3
							c-0.1-0.1-0.2-0.3-0.3-0.4l-1.8,0.8C306.9-524.5,307-524.4,307-524.2z"/>
						<path class="st1" d="M314.9-528.6l-1,5.2l2.3-0.4l0.6-5.2l1.7-0.3l0.3-1.3l-5.2,0l-0.2,2.1L314.9-528.6z"/>
						<path class="st1" d="M318.5-523.7l4.3-0.7l0.4-2.5l-2.8,0.8c0-0.1,0-0.2,0.1-0.3c0-0.1,0-0.2,0.1-0.3c0-0.1,0-0.2,0.1-0.3
							c0-0.1,0-0.2,0-0.2c0.1,0,0.3,0,0.4,0s0.3,0,0.5,0c0.2,0,0.3,0,0.5,0l0.3-1.5l-1.5,0.5l0.3-1.1l2.7,0l0.4-2l-4.9,0.3
							L318.5-523.7z"/>
						<path class="st1" d="M325.8-524.4l0.2-2.1c0.1,0,0.2,0,0.3,0c0.1,0,0.2,0,0.3,0c0.1,0,0.2,0,0.3,0.1c0.1,0,0.1,0.1,0.2,0.2
							c0.1,0.1,0.2,0.3,0.2,0.5c0,0.2,0,0.4,0,0.6c0,0.2,0,0.5-0.1,0.7l1.9-0.2c0.1-0.3,0.1-0.7,0.2-1c0-0.1,0-0.3,0-0.4
							c0-0.1,0-0.3,0-0.4c0-0.1,0-0.2,0-0.3c0-0.1,0-0.2-0.1-0.2c-0.1-0.1-0.1-0.2-0.2-0.2c-0.1-0.1-0.2-0.1-0.3-0.2
							c0.2-0.1,0.3-0.3,0.5-0.5c0.2-0.2,0.3-0.5,0.4-0.8c0.1-0.3,0.2-0.7,0.1-1c0-0.3-0.1-0.6-0.2-0.9c-0.1-0.3-0.3-0.5-0.6-0.6
							c-0.3-0.2-0.6-0.2-0.9-0.2c-0.3,0-0.6,0-1,0c-0.4,0-0.7,0.1-1,0.1c-0.4,0-0.8,0.1-1.1,0.1l-1.4,7L325.8-524.4z M326.3-529.7
							c0.1,0,0.3,0,0.4,0c0.1,0,0.3,0,0.4,0.1c0.1,0,0.2,0.1,0.3,0.2c0.1,0.1,0.1,0.2,0.1,0.3c0,0.2,0,0.4-0.1,0.5
							c-0.1,0.1-0.2,0.2-0.3,0.3c-0.1,0.1-0.3,0.1-0.4,0.2c-0.2,0-0.3,0.1-0.4,0.1L326.3-529.7z"/>
						<path class="st1" d="M329.7-524.3l1.7-0.3l0.4-1.8c0.2,0.1,0.3,0.1,0.6,0.2c0.2,0,0.4,0,0.7,0c0.2-0.1,0.5-0.2,0.7-0.3
							c0.2-0.1,0.5-0.3,0.7-0.5c0.2-0.2,0.4-0.5,0.6-0.8c0.2-0.3,0.3-0.8,0.4-1.3c0.1-0.8,0-1.4-0.4-1.9c-0.4-0.4-1-0.6-1.8-0.6
							c-0.4,0-0.8,0-1.1,0c-0.3,0-0.6,0.1-0.9,0.1c-0.3,0-0.6,0.1-0.9,0.1L329.7-524.3z M333.4-528.6c-0.1,0.1-0.2,0.2-0.4,0.3
							c-0.1,0.1-0.3,0.1-0.4,0.1c-0.1,0-0.3,0-0.4,0l0.4-2.2c0.2,0,0.3,0,0.5,0c0.2,0,0.3,0.1,0.4,0.2c0.1,0.1,0.2,0.2,0.2,0.4
							c0,0.2,0,0.4,0,0.7C333.6-528.9,333.5-528.7,333.4-528.6z"/>
						<path class="st1" d="M335.5-524.7l4.3-0.7l0.4-2.5l-2.8,0.8c0-0.1,0-0.2,0.1-0.3c0-0.1,0-0.2,0.1-0.3c0-0.1,0-0.2,0.1-0.3
							c0-0.1,0-0.2,0-0.2c0.1,0,0.3,0,0.4,0c0.2,0,0.3,0,0.5,0c0.2,0,0.3,0,0.5,0l0.3-1.5l-1.5,0.5l0.3-1.1l2.7,0l0.4-2l-4.9,0.3
							L335.5-524.7z"/>
						<path class="st1" d="M342.9-530.4l-1,5.2l2.3-0.4l0.6-5.2l1.7-0.3l0.3-1.3l-5.2,0l-0.2,2.1L342.9-530.4z"/>
					</g>
				</g>
				<path class="st1" d="M283.4-479.9c-0.4,20.4,31.9,20.4,31.6,0C315.3-500.4,283-500.4,283.4-479.9z M299.2-490.3
					c13.4,0,13.4,21-0.2,20.7C285.5-469.4,285.7-490.6,299.2-490.3z"/>
				<path class="st1" d="M389.4-495.7c-20.4-0.4-20.6,31.8-0.1,31.5C409.9-463.7,409.9-495.9,389.4-495.7z M389.3-490.3
					c13.5,0,13.4,21-0.2,20.7C375.6-469.5,375.9-490.5,389.3-490.3z"/>
				<g>
					<path class="st1" d="M344.7-474.4c-27.7,0-27.7,1.9,0,1.8C372.3-472.6,372.3-474.5,344.7-474.4z"/>
					<path class="st1" d="M276.7-474.7c-1.5,0.2-15.4-0.8-9.5,1.4C268.6-472.2,283-473.5,276.7-474.7z"/>
					<path class="st1" d="M291.5-463.8c-2.7,1-9.6-9.5-7.2-4.1C285.9-461.2,296.9-462.7,291.5-463.8z"/>
					<path class="st1" d="M285.7-463.4c-2.4-2.5-3.4-1-0.9,1.1C287.2-460.3,288.6-461.4,285.7-463.4z"/>
					<path class="st1" d="M400.2-464.7c-4.5,3.6-13.9,4.3-19,2.5C385-457.5,397.8-458.7,400.2-464.7z"/>
				</g>
			</g>
			<g>
				<path class="st1" d="M418.4-282.9c3-5.3,6.1-10.7,9.1-16c3.1-5.4,6.1-10.7,9.2-16.1c0.4-0.6,0.5-1.2,0.1-1.9
					c-0.4-0.7-1-0.9-1.7-0.7c-1.7,0.4-3.5,0.6-5.1,1.2c-3.3,1.2-5.5,3.7-7.4,6.5c-6,9.2-12,18.3-18,27.5c-0.3,0.5-0.6,0.7-1.2,0.7
					c-5.7,0.2-11.4,0.4-17.1,0.6c-0.9,0-1.5,0.4-2,1.2c-1.5,2.9-4.5,4.4-7.7,4c-3.2-0.4-5.8-2.7-6.5-5.9c-0.7-3.1,0.6-6.4,3.4-8.2
					c2.7-1.7,6.2-1.6,8.8,0.4c1.4,1.1,2.3,2.5,2.8,4.2c0.3,1.1,1.3,1.6,2.2,1.1c0.8-0.4,1.1-1.1,0.8-2.2c-1.6-5.9-7.9-9.3-13.8-7.3
					c-4.2,1.4-6.7,4.4-7.3,8.8c-0.6,4.5,1.1,8.2,4.9,10.6c3.7,2.4,7.6,2.3,11.5,0.1c1.2-0.7,2.3-1.4,3.6-2c2.1-0.9,4.3-1.5,6.6-0.9
					c4.3,1.2,7.2,4,8.6,8.2c1,3,1,6-0.8,8.8c-1.4,2.1-3.3,3.7-5.5,4.8c-3.2,1.7-5.1,4.2-5.8,7.7c-0.3,1.5-0.2,2.8,0,3.6
					c0.1,0.3,0.1,0.6,0.2,0.9c0.1,0.5,0.3,1.2,0.7,2c1.5,3.2,5.4,6.4,10.2,6.2c4.4-0.2,8.2-3,9.7-7.1c1.5-4.1,0.4-8.8-2.8-11.7
					c-0.3-0.2-0.7-0.5-1-0.5c-0.5,0.1-1.2,0.2-1.5,0.6c-0.6,0.9-0.4,1.5,0.4,2.3c2.4,2.4,3.1,5.7,1.8,8.7c-1.3,2.9-4.2,4.7-7.3,4.6
					c-1.2-0.1-2.3-0.4-3.3-0.9c-0.4-0.2-2.9-1.6-3.8-4.6c-0.1-0.5-0.5-1.8-0.2-3.5c0.4-2.4,1.8-3.8,2-4.1c0.7-0.8,1.7-1.4,2.8-1.8
					c1.2-0.4,2.5-0.6,3.9-0.9c0.2-0.2,0.4-0.4,0.7-0.8c0.5-0.6,0.7-1.2,0.8-1.4c2.6-4.5,5.2-9.1,7.7-13.6c0.2-0.4,0.5-0.6,1-0.7
					c4.4-0.4,8.8-0.7,13.1-1.1c6-0.6,12-1.2,18-1.8c2.4-0.3,4.8-0.5,7.1-1.5c3.2-1.3,5.6-3.5,7.3-6.4c0.6-1,0.3-2-0.7-2.4
					c-0.3-0.1-0.8-0.1-1.1-0.1c-10.7,0.3-21.4,0.7-32.1,1.1c-1.7,0.1-3.5,0-5.3,0C418.2-282.5,418.3-282.7,418.4-282.9z
					 M405.2-275.9c0-1.2,1.1-2.2,2.3-2.2c1.2,0,2.2,1.1,2.2,2.3c0,1.2-1,2.2-2.3,2.2C406.2-273.6,405.2-274.6,405.2-275.9z"/>
				<path class="st1" d="M363.8-279.2c0.1-0.1-0.3-0.9-0.6-2.3c-0.4-1.4-0.7-3.4-0.3-5.6c0.3-2.2,1.2-4.1,2-5.3
					c0.8-1.3,1.4-1.9,1.3-2.1c-0.1-0.1-0.9,0.4-1.9,1.6c-1,1.2-2,3.2-2.4,5.6c-0.4,2.4,0.1,4.6,0.7,6
					C363-279.9,363.7-279.2,363.8-279.2z"/>
				<path class="st1" d="M361.3-274.7c0.2-0.2-1.2-1.7-1.9-4.1c-0.7-2.4-0.4-4.4-0.7-4.5c-0.1,0-0.4,0.5-0.5,1.3
					c-0.1,0.9-0.1,2.1,0.3,3.4c0.4,1.3,1.1,2.4,1.7,3C360.7-274.9,361.2-274.6,361.3-274.7z"/>
				<path class="st1" d="M409.2-235.7c0,0.1,0.7,0.1,1.7-0.4c1-0.5,2.2-1.4,3.1-2.8c0.9-1.4,1.3-2.8,1.3-3.9
					c0.1-1.1-0.2-1.7-0.3-1.7c-0.2,0-0.2,0.6-0.4,1.6c-0.2,1-0.7,2.2-1.5,3.5c-0.8,1.2-1.8,2.1-2.6,2.7
					C409.7-236.2,409.1-235.9,409.2-235.7z"/>
				<path class="st1" d="M403.3-232.3c0,0.1,0.7,0.4,1.9,0.4c1.2,0,2.9-0.2,4.6-0.9c1.7-0.7,3-1.8,3.8-2.7c0.8-0.9,1.1-1.6,1-1.6
					c-0.2-0.2-2.1,2-5.2,3.4C406.2-232.4,403.3-232.6,403.3-232.3z"/>
			</g>
		</g>
		<g>
			<path class="st1" d="M65.8-272.7c-4.2,3.1-10.1,11.2-15.5,6c-2.3-3.4,4.9-5.7,6.6-8.2c1.1-5.4-6,2.2-8.1,3.6
				c-7.6,1.4,2.7-6.5,4.6-7.8c0.9-5.4-6.1,2.2-8.1,3.6c-1.7,1.6-3.8-1.1-2-2.4c1.9-1.7,10.7-7.5,5.1-7.2c-2.7,1.3-5.8,7.1-8.9,5.3
				c-1.5-3.9,7.6-5.6,7.2-8.9c-2.8-3.5-7,7.3-10.7,4.7c-1.7-3.9,7.7-5.6,7.2-9c-2.8-3.4-7,7.4-10.7,4.7c-1-3.6,5.7-5.7,7.7-8.4
				c-2.9-5.2-7.3,6.8-11.2,4.1c-0.6-0.7-0.5-1.7,0.4-2.4c1.8-2.5,9.3-4.8,5.8-7.7c-1.7,1.4-12.3,11.1-9.3,3.5
				c1.8-2.5,9.2-4.8,5.7-7.8c-3,1.5-6.2,7.4-9.6,5.9c-1.2-3,5.6-6.6,8-7.9c-3.1-5.8-7,5.2-11.1,3.9c-2.4-3.2,5-5.8,6.7-8.1
				c0.3-7.1-7.7,6.6-10.6,3.6c-1-3.7,5.7-5.6,7.7-8.4c-2.9-5.2-7.2,6.8-11.2,4.1c-2-4.2,10.2-6.3,6.4-9.8c-2.8,0.9-5.1,4.1-7.7,5.8
				c-7.6,0.5,3.9-6.9,5.5-8.6c-2.9-5-7.2,6.9-11.1,4.2c-1-3.6,5.7-5.6,7.7-8.4c-2.2-3.8-5.9,3-8.6,4.2c-4.8,2.2-4.6-7-1.1-8.7
				c4.7-3.8,11.1-11.3,16.7-4.5c5.6,6.9,11.3,13.7,16.9,20.6C40.8-309.2,75.8-280.4,65.8-272.7z"/>
			<g>
				<g>
					<path class="st1" d="M60.9-546.9c-6.1-0.4-12.1-1.1-18.1-1.7l0-0.2c-6.8-0.6-13.6-0.9-20.3-2.1c-7.1-1.3-9.8-5.8-8.7-13.1
						c1.3-8.4,4.4-16.2,8.3-23.7c2.9-5.5,5.7-11,8.3-16.5c1.8-3.8,2-7.7,0.6-11.8c-1-2.8-0.3-4,2.8-4.2c5-0.3,10-0.7,15-0.4
						c8,0.6,15.9,1.6,23.8,2.6c3.6,0.5,3.7,1.9,2.6,5.3c-1.1,3.4-1.7,7.3-1.3,10.9c1.3,12.2,3.1,24.3,4.6,36.4
						C80-553.6,72.9-546.2,60.9-546.9z M71.4-606.7c-2.9,0-3.4,2.8-1.9,10.7c0.3,0.2,0.6,0.4,0.9,0.6c0.6-1,1.7-1.9,1.7-2.9
						C72.1-601,71.7-603.9,71.4-606.7z M33.2-611.6c1.4-0.1,2.5-0.2,3.5-0.1c9.4,0.9,18.9,1.8,28.3,2.7c0.8,0.1,2.1,0.4,2.4,0
						c1.6-2.3,3-4.7,4.7-7.6c-13.9-1.7-27-3.5-40.6-1.7C32.2-615.6,32.7-613.6,33.2-611.6z M29.9-598.7l37.5,3.6
						c-0.1-4-0.3-7.7-0.4-11.6c-10.5-2.1-20.9-3.7-31.6-3.5c-0.8,0-2,0.7-2.2,1.4C31.9-605.6,31-602.3,29.9-598.7z M17.7-573.9
						c17.7,2.3,34.8,4.5,52.3,6.8c-0.8-8.6-1.5-16.4-2.3-24.2c-0.1-0.7-1.1-1.8-1.8-1.9c-11.5-1.5-23.1-2.8-34.6-4.2
						c-1.7-0.2-2.7,0.3-3.5,1.9c-2.2,4.7-4.7,9.3-6.9,14C19.6-579.1,18.7-576.5,17.7-573.9z M70-565.1c-17.8-2.5-35.2-5-53.1-7.5
						c-0.7,3.9-1.6,7.1-1.8,10.4c-0.5,5.5,2.1,9,7.5,9.6c13.6,1.5,27.1,2.7,40.7,3.8c1.3,0.1,3-1,3.9-2C71-555,69.6-560.2,70-565.1z
						 M71.7-568.5c0.3,0.2,0.6,0.5,0.9,0.7c1.1-1.1,3.3-2.4,3.2-3.4c-0.8-7.8-2.1-15.5-3.3-23.2l-0.8-0.6c-0.8,0.9-2.2,1.9-2.2,2.8
						C70.1-584.3,71-576.4,71.7-568.5z M76-567.3c-3,0.1-4.5,1.2-4.5,4.6c0,3.8-0.6,7.7-1,11.5C76.7-554.3,78.4-559.2,76-567.3z"/>
					<path class="st1" d="M70.4-595.4c-0.3-0.2-0.6-0.4-0.9-0.6c-1.5-7.9-1-10.7,1.9-10.7c0.3,2.8,0.7,5.6,0.7,8.4
						C72.1-597.3,71-596.3,70.4-595.4z"/>
					<path class="st1" d="M72.6-567.9c-0.3-0.2-0.6-0.5-0.9-0.7c-0.8-7.9-1.6-15.8-2.1-23.7c-0.1-0.9,1.4-1.8,2.2-2.8l0.8,0.6
						c1.1,7.7,2.4,15.4,3.3,23.2C75.9-570.2,73.7-569,72.6-567.9z"/>
					<path class="st1" d="M70.6-551.2c0.4-3.8,1-7.7,1-11.5c0-3.4,1.5-4.5,4.5-4.6C78.4-559.2,76.7-554.3,70.6-551.2z"/>
					<path class="st1" d="M70-567.1c-17.5-2.3-34.7-4.5-52.3-6.8c1-2.6,1.9-5.2,3.1-7.7c2.2-4.7,4.7-9.3,6.9-14
						c0.8-1.6,1.8-2.1,3.5-1.9c11.5,1.4,23.1,2.7,34.6,4.2c0.7,0.1,1.7,1.2,1.8,1.9C68.5-583.5,69.2-575.7,70-567.1z M45.9-588.5
						c0.1,1.2,0.9,1.9,2.1,2.1c0.4-0.1,0.8-0.2,1.2-0.4c1.4-0.7,2-1.8,1.9-3.4c-0.1-1.2-0.4-2.3-1.3-3.1c-0.7-0.6-1.5-0.6-2.1,0
						C46.5-591.9,45.8-590.3,45.9-588.5z M40.4-591c-0.1,1.3,0.2,2.2,1,3c1.1,1.1,2.8,0.9,3.6-0.4c0.4-0.7,0.5-1.6,0.5-2.4
						c-0.1-1-0.2-2-0.8-2.9c-0.5-0.7-1-0.9-1.8-0.5C41.3-593.6,40.7-592.3,40.4-591z M37-584c0.8,0.6,1.7,0.9,2.7,0.4
						c0.8-0.4,1.2-1,1.2-1.9c0.1-1.1-0.3-2.6-1.1-3.6c-0.3-0.4-0.7-0.8-1-1.1c-0.6-0.5-1.2-0.4-1.8,0.1c-0.7,0.6-1.1,1.4-1.3,2.3
						C35.6-586.4,35.7-585,37-584z M51.1-578.7c0-1.1-0.4-1.9-1.5-2.3c-0.2-0.1-0.5-0.2-0.6-0.4c-0.4-0.6-0.8-1.2-1.2-1.8
						c-0.3-0.6-0.5-1.3-0.9-1.9c-0.6-0.9-1.4-1.4-2.5-1.3c-0.9,0.1-1.6,0.6-2.1,1.3c-0.3,0.4-0.6,0.8-0.9,1.2
						c-0.7,0.7-1.5,1.3-2.6,1.5c-0.4,0.1-0.8,0.3-1.1,0.6c-0.9,0.9-1,2.1-1,3.2c0,1.1,0.6,1.8,1.7,1.9c0.5,0.1,1.1,0,1.6-0.1
						c1.2-0.2,2.3-0.3,3.5-0.1c1.7,0.2,3.3,1,4.8,1.7c0.3,0,0.6,0.1,0.9,0.1c1-0.2,1.5-0.8,1.7-1.7C51-577.4,51.1-578,51.1-578.7z
						 M54.5-585.9c-0.2-0.5-0.2-1-0.5-1.5c-0.5-0.9-1.2-1.2-2.1-0.7c-1.5,0.8-2.6,2-3.1,3.5c-0.4,1.3,0.1,2.3,1.4,2.8
						c1.1,0.4,2.7-0.1,3.4-1.2c0.3-0.5,0.5-1,0.7-1.5C54.4-584.9,54.5-585.4,54.5-585.9z"/>
				</g>
				<path class="st1" d="M88.1-540.8c0-0.1-1-0.2-2.9-0.5c-1.9-0.2-4.6-0.6-7.9-1.2c-3.3-0.6-7.3-1.3-11.6-2.3
					c-4.4-0.9-9.2-2-14.2-2.9c-5.1-1-9.9-1.7-14.4-2.2c-4.5-0.5-8.5-0.6-11.9-0.5c-3.4,0.1-6.1,0.4-8,0.6c-1.9,0.3-2.9,0.5-2.9,0.6
					c0,0.1,1.1,0,2.9-0.2c1.9-0.2,4.6-0.3,8-0.3c3.4,0,7.4,0.2,11.8,0.7c4.4,0.5,9.3,1.3,14.3,2.3c5.1,1,9.9,2,14.3,2.9
					c4.4,0.9,8.4,1.6,11.7,2c3.4,0.5,6.1,0.8,8,0.9C87.1-540.7,88.1-540.7,88.1-540.8z"/>
			</g>
		</g>
		<g>
			<g>
				<path class="st1" d="M740.7-712.2c-22.3,2.7-82.4,18.6-87.8,13.4c-1.4-0.6-2.3-2.1-2-3.3c-1.5-10.4-6.4-31.2-8.1-43.4
					c-4.7-27.9,0.3-15.3,31-24.5c-0.1-7.3,5.5-13.1,12.5-14.4c7.7-1.5,15.4,2,20.4,7.8c15.8-1.7,26-5.7,28.4,1.7
					c1.2,10.5,6.4,31.2,8,43.6C744.9-714.5,746.4-712.8,740.7-712.2z M677.6-770.9c9.1-1.9,17.3-3.6,24.6-5
					c-3.9-3.6-9.2-5.6-14.5-4.9C682.6-780.1,677.9-776.1,677.6-770.9z M674.2-703.1c-1.4-2.9-2.2-6.1-2.8-9.2
					c-1.6-8.6-2.2-17.3-3.1-26c-5.2-29.2-0.1-26.1-23.3-23c-1.2,10.5,8.3,49,9.4,59.1C655.1-701.6,658.6-700.6,674.2-703.1z
					 M723-736.2c-10.9-49.3-1.9-38.7-50-30.1c-14.1,1.1-5.4,5.5-4.7,15.2c1.9,9.2,2.3,18.5,3.3,27.8c0.9,6.7,1.4,13.7,4.4,19.9
					c11.3-1.9,24.9-4.8,36.9-7.3C735.9-714.7,725.1-712.7,723-736.2z M731.6-774.9c-0.7-0.4-3.7-1.2-16.1,0.5c2,4,2.3,8.6,3.4,12.9
					c3.1,12.9,6.2,25.9,8.3,39.1c0.5,12.2,8.9,6,13.7,6.7C742.1-726.3,732.6-764.8,731.6-774.9z"/>
			</g>
		</g>
		<g>
			<g>
				<path class="st1" d="M121.7-712.2c-22.3,2.7-82.4,18.6-87.8,13.4c-1.4-0.6-2.3-2.1-2-3.3c-1.5-10.4-6.4-31.2-8.1-43.4
					c-4.7-27.9,0.3-15.3,31-24.5c-0.1-7.3,5.5-13.1,12.5-14.4c7.7-1.5,15.4,2,20.4,7.8c15.8-1.7,26-5.7,28.4,1.7
					c1.2,10.5,6.4,31.2,8,43.6C125.9-714.5,127.4-712.8,121.7-712.2z M58.6-770.9c9.1-1.9,17.3-3.6,24.6-5
					c-3.9-3.6-9.2-5.6-14.5-4.9C63.6-780.1,58.9-776.1,58.6-770.9z M55.2-703.1c-1.4-2.9-2.2-6.1-2.8-9.2c-1.6-8.6-2.2-17.3-3.1-26
					c-5.2-29.2-0.1-26.1-23.3-23c-1.2,10.5,8.3,49,9.4,59.1C36.1-701.6,39.6-700.6,55.2-703.1z M104-736.2
					c-10.9-49.3-1.9-38.7-50-30.1c-14.1,1.1-5.4,5.5-4.7,15.2c1.9,9.2,2.3,18.5,3.3,27.8c0.9,6.7,1.4,13.7,4.4,19.9
					c11.3-1.9,24.9-4.8,36.9-7.3C116.9-714.7,106.1-712.7,104-736.2z M112.6-774.9c-0.7-0.4-3.7-1.2-16.1,0.5c2,4,2.3,8.6,3.4,12.9
					c3.1,12.9,6.2,25.9,8.3,39.1c0.5,12.2,8.9,6,13.7,6.7C123.1-726.3,113.6-764.8,112.6-774.9z"/>
			</g>
		</g>
	</g>
</pattern>
<g id="Layer_1">
</g>
<g id="Layer_2">
	<rect x="-0.5" y="-0.5" class="st4" width="619" height="619"/>
</g>
</svg>
