<svg width="101" height="40" viewBox="0 0 101 40" fill="none" xmlns="http://www.w3.org/2000/svg">
<path d="M100.386 25.8645L100.276 25.7835L100.152 25.7305C99.977 25.6564 99.7938 25.619 99.6057 25.619C98.8058 25.619 98.3067 26.2632 98.0071 26.6482C97.9597 26.7092 97.9199 26.7666 97.88 26.8077C97.6987 27.0002 97.5461 27.1098 97.4427 27.1671C97.4159 27.0519 97.3916 26.8631 97.4115 26.574C97.5255 25.2465 97.6981 23.9108 97.9224 22.5919C98.293 22.5745 98.6712 22.5533 99.0712 22.5265L99.1297 22.5209C99.4748 22.4798 99.787 22.2916 99.9869 22.0007C100.173 21.7266 100.238 21.3877 100.168 21.065C99.9228 19.8228 99.3982 19.0403 98.5516 18.6783C98.5528 18.6696 98.5547 18.6628 98.5547 18.654C98.6662 17.7744 98.7385 16.7552 98.194 15.7983C97.6439 14.8358 96.677 14.3037 95.4753 14.3037C94.5701 14.3037 93.5434 14.6215 92.7261 15.1535C92.4426 15.3304 92.2439 15.6157 92.176 15.9409L92.1635 16.012C92.0738 16.6349 91.9897 17.2536 91.9056 17.9052C91.1599 18.056 90.5257 18.631 90.2235 19.4054C90.0553 19.3287 89.8803 19.2614 89.7002 19.2054C89.2224 19.0571 88.7221 18.983 88.2163 18.983C86.8856 18.983 85.5156 19.5063 84.3749 20.437C84.5301 18.9767 84.2142 17.3975 83.4666 16.0088C83.1414 15.4083 82.7521 14.8657 82.3727 14.3436C81.8593 13.6309 81.3703 12.955 81.1423 12.2404L83.1153 12.3432C83.2953 12.3532 83.4785 12.3619 83.6597 12.3619C84.1332 12.3619 84.5207 12.3008 84.8789 12.1737C85.6246 11.9084 86.1822 11.314 86.3679 10.6281C86.6171 10.4425 86.8457 10.2219 87.0469 9.97212C87.4151 9.51734 87.6655 8.99403 87.7827 8.45328C87.858 8.3779 87.9253 8.29255 87.9826 8.19848C88.2262 7.81036 88.2817 7.32194 88.1334 6.89084C87.9141 6.25228 87.3653 5.94141 87.1877 5.83986C86.6731 5.54768 86.1224 5.37386 85.6365 5.21999C85.0309 5.02873 84.5089 4.86364 84.2049 4.54592C84.0192 4.35093 83.8728 4.05688 83.7034 3.71486C83.5576 3.41957 83.39 3.08502 83.167 2.76543C82.4823 1.78485 81.3391 1.08461 80.0315 0.843517C79.6633 0.774988 79.2758 0.74073 78.8796 0.74073C78.2479 0.74073 77.5931 0.824832 76.8835 0.996153L76.0512 0.440447C75.8157 0.283455 75.4208 0.0186844 74.8794 0.00248677L74.8252 0C74.0807 0 73.5705 0.470348 73.3263 0.694622C72.2872 1.64841 71.3035 2.68195 70.402 3.76594C70.2263 3.97838 69.8974 4.37211 69.8201 4.92906C69.7672 5.31406 69.8457 5.65733 69.9684 5.94266C69.3298 7.1363 68.9604 8.47882 68.905 9.83257C68.8894 10.179 68.8962 10.5172 68.9006 10.8437C68.9106 11.3352 68.9181 11.7993 68.8539 12.2279C68.7953 12.6273 68.657 12.9768 68.472 13.2135C67.1961 13.3188 65.9171 13.459 64.6768 13.5973C63.5529 13.7225 62.3885 13.8514 61.2491 13.9505C59.3216 14.1187 57.3455 14.2016 55.3787 14.2016C54.7489 14.2016 54.1122 14.1941 53.4767 14.1773C53.4269 13.9617 53.3659 13.7592 53.2986 13.5674C52.9877 12.7002 52.2046 11.618 50.2385 11.3913C49.9943 11.3639 49.7276 11.347 49.4186 11.3427L49.3376 11.3402C49.2791 11.3402 49.0666 11.3471 49.0666 11.3471L48.7315 11.4143C48.486 11.4667 48.2979 11.514 48.1166 11.5682C47.9172 11.6293 47.706 11.6953 47.488 11.795C47.3696 11.8473 47.2569 11.9102 47.1447 11.9744C47.1073 11.9956 47.0693 12.0174 47.0307 12.0386C46.9254 12.0928 46.7298 12.1956 46.5504 12.3781L46.1 12.8329L46.2707 13.4478C46.2806 13.4851 46.295 13.5387 46.3105 13.6147C45.9287 13.5649 45.568 13.5163 45.2166 13.464C44.0286 13.2883 42.7757 13.0721 41.6662 12.5712C41.2569 12.3856 40.8762 12.1532 40.5311 11.8828C40.3772 11.7028 40.2813 11.5234 40.2234 11.3053C40.0882 10.8063 40.1791 10.6238 40.1766 10.6238C40.2919 10.5322 40.4863 10.4786 40.7099 10.4786C40.7753 10.4786 40.8414 10.483 40.9055 10.4911C41.1877 10.5278 41.336 10.6294 41.3715 10.6867C41.4531 10.8281 41.6749 11.2031 42.1671 11.3514C42.2842 11.3844 42.4063 11.4025 42.5278 11.4025C43.0486 11.4025 43.5183 11.0817 43.78 10.5428C44.1376 9.81264 44.5114 8.8414 44.2435 7.7979C43.9744 6.7544 43.1738 6.08967 42.5926 5.67913C42.1789 5.38695 41.5385 4.9789 40.7616 4.81069C40.5074 4.75649 40.2427 4.72907 39.9773 4.72907C38.8783 4.72907 37.737 5.19819 36.7589 6.05105C35.3635 7.27148 34.5249 8.99528 34.4576 10.7832C34.4564 10.8119 34.381 13.5368 36.4612 15.513C36.9776 16.1546 37.5831 16.6779 38.2603 17.066C39.8801 17.9974 41.7522 18.1513 43.5289 18.2298C44.4871 18.2728 45.462 18.3014 46.4819 18.3195C46.4495 18.7917 46.4065 19.3007 46.3535 19.8408C46.3324 20.0688 46.3049 20.3155 46.2738 20.5735C46.2364 20.5679 46.1997 20.5622 46.1623 20.5566C46.0072 20.0801 45.7106 19.6415 45.2994 19.3287C44.5805 18.783 43.6984 18.7201 43.0966 18.7201L42.9894 18.7226C41.1286 18.75 39.6346 19.5736 38.9917 20.9279C38.5226 21.9147 38.5812 23.0436 39.1369 24.1307C38.5737 24.2048 38.0392 24.4372 37.5782 24.7967C37.6835 24.2079 37.8118 23.5887 37.9806 22.8592C38.2198 21.8257 38.0616 20.8401 37.5358 20.0819C36.9869 19.292 36.131 18.8571 35.1217 18.8571C34.1125 18.8571 33.1942 19.2808 32.6778 19.5773C31.9333 18.9998 31.1739 18.8472 30.5802 18.8472C29.6675 18.8472 28.7255 19.2023 27.7842 19.905C26.3682 20.9603 25.4057 22.671 25.0094 24.5562C25.2007 21.9982 25.7452 19.4963 26.37 17.9862C27.9387 17.9289 29.5828 16.9284 29.6476 15.1205C29.6818 14.1723 29.0669 13.2297 28.1163 12.7749C27.6571 12.555 27.1506 12.4441 26.6105 12.4441C25.5365 12.4441 24.5659 12.8846 23.9441 13.254L23.8744 13.2939L23.8114 13.3456C20.7302 15.8406 18.1983 19.3593 16.2565 23.8279C15.7544 21.9789 15.3793 20.0969 15.1333 18.1999C16.1026 17.4716 16.6272 16.3652 16.4478 15.308C16.292 14.3841 15.517 13.3344 13.7745 13.1581C13.7079 13.1537 13.6431 13.1506 13.5777 13.1506C12.8251 13.1506 12.0576 13.4446 11.3573 13.9991C11.1474 14.1661 10.9456 14.3511 10.7474 14.5598C10.4733 14.4856 10.1911 14.3829 9.8952 14.2745C9.45599 14.1137 9.00122 13.9493 8.49348 13.8421C7.73469 13.6807 6.941 13.5998 6.13985 13.5998C6.00715 13.5998 5.87445 13.6023 5.74238 13.6066C4.29643 13.6552 3.14204 14.0259 2.20819 14.7398C1.76026 15.0831 1.42696 15.4488 1.18898 15.8575C0.135515 17.6697 0.445762 20.0763 1.92473 21.5808C2.67729 22.3452 3.54574 22.8474 4.43287 23.0336C4.66399 23.081 4.90509 23.1065 5.15428 23.1065C5.94111 23.1065 6.69991 22.8629 7.23568 22.438C7.80135 21.992 8.58755 20.9641 7.52786 19.1001C7.45933 18.9805 7.31978 18.735 7.30545 18.588C7.3042 18.5836 7.3042 18.5805 7.3042 18.5755C7.41385 18.5083 7.73656 18.403 8.27918 18.403C8.45299 18.403 8.63303 18.4142 8.79501 18.4341C8.52526 19.5462 8.38321 20.7398 8.24429 21.9048C7.94027 24.4671 7.64996 26.8862 6.17972 28.2C5.68818 28.6405 5.00041 28.914 4.38427 28.914C4.03042 28.914 3.71955 28.8268 3.46163 28.6573C3.16509 28.4623 2.83117 28.3577 2.49476 28.3577C1.78456 28.3577 1.13852 28.8081 0.769714 29.5569C-0.442615 31.9978 0.437663 35.0049 2.78133 36.4091C3.61551 36.9013 4.63471 37.1617 5.73241 37.1617C7.83436 37.1617 9.97556 36.2191 11.1823 34.7607C12.2189 33.5085 12.7491 32.052 13.0556 30.5717C13.2655 31.2664 13.526 31.9479 13.83 32.6077L13.8474 32.6419C14.0611 33.0643 14.4249 33.6586 15.1139 33.9408C15.3538 34.0405 15.6017 34.0916 15.8509 34.0916C16.7705 34.0916 17.5803 33.4113 18.0183 32.2719C18.1977 31.8028 18.3435 31.3324 18.4843 30.8764C18.5117 30.7848 18.541 30.6951 18.5696 30.6054C18.45 32.0426 18.3871 33.6063 18.7603 35.1208C19.1229 36.6608 20.0281 38.0208 21.3014 38.949C22.2178 39.6262 23.4077 40 24.6537 40H24.655C27.3157 40 30.1846 38.3061 30.2568 35.1681L30.2593 35.1227L30.2562 35.0784C30.2406 34.8274 30.2033 34.1601 29.6675 33.6998C29.3411 33.4188 28.9318 33.2761 28.4483 33.2761C28.3212 33.2761 28.1904 33.2873 28.0621 33.2986C28.0004 33.3042 27.9406 33.3098 27.8752 33.311C27.0279 33.1939 26.375 32.6681 25.8804 31.7068C25.4424 30.8471 25.1745 29.7394 25.0406 28.5171C25.1135 28.828 25.1988 29.1376 25.3072 29.4379C26.0841 31.5891 27.7169 32.9241 29.5678 32.9241C30.4817 32.9241 31.3514 32.5821 32.0884 31.9535C32.6684 32.5609 33.4528 32.8905 34.3766 32.8905C35.5504 32.8905 36.7353 32.346 37.6486 31.6545C38.5936 32.5229 39.9044 33.0089 41.3404 33.0089C41.6425 33.0089 41.9453 32.9877 42.2368 32.9447C43.228 32.8076 44.1974 32.4986 45.0883 32.042C45.1555 33.0512 45.325 33.853 45.606 34.4903C45.9324 35.2335 46.4071 35.7936 47.012 36.1531C47.5509 36.4727 48.187 36.6776 48.9053 36.7592C49.1788 36.7916 49.4429 36.8066 49.6934 36.8066C50.0696 36.8066 50.4266 36.7698 50.758 36.6994C51.3056 36.5786 51.7779 36.396 52.1436 36.1661C52.5784 35.9082 52.9491 35.5974 53.2456 35.2423L53.4637 34.9787L53.4836 34.7794C53.516 34.6878 53.5365 34.5912 53.5465 34.4941C53.6194 33.7459 53.1802 33.1322 52.4831 32.9752C52.4002 32.7927 52.2974 32.4961 52.232 32.0513C52.1934 31.7972 52.1635 31.5349 52.1367 31.2701C52.546 31.6919 53.0176 32.0569 53.5615 32.3441C54.4081 32.7921 55.3469 33.0201 56.3562 33.0201C57.8918 33.0201 59.4618 32.4812 60.7806 31.5361C61.0273 31.8769 61.3307 32.1622 61.6889 32.3902C62.2752 32.7628 62.9062 32.9522 63.5666 32.9522C65.7178 32.9522 67.3924 31.0228 67.94 29.1096C68.0428 28.7676 67.9867 28.3907 67.7786 28.0804C67.5662 27.7708 67.2129 27.5758 66.8479 27.5615C66.8354 27.5615 66.7208 27.554 66.6984 27.526C66.6111 27.4163 66.433 26.9896 66.6984 25.3655C66.717 25.244 66.7451 25.1256 66.7825 25.0091C67.2541 25.7617 68.0428 26.2314 68.9654 26.2314C69.4675 26.2314 69.9734 26.0856 70.43 25.8109C70.5042 25.7667 70.5752 25.7137 70.645 25.6614C70.5092 26.5298 70.2868 27.9484 70.2276 28.3147C70.1379 28.8835 70.0724 29.3613 70.0295 29.7762C69.9155 30.844 69.8824 31.7579 69.9285 32.4856C69.9815 33.3054 70.1279 33.957 70.379 34.4791C70.6668 35.0822 71.0804 35.5338 71.6094 35.8223C72.0598 36.0677 72.5899 36.2247 73.1824 36.2883C73.4048 36.3113 73.6216 36.3238 73.8253 36.3238C74.1362 36.3238 74.4302 36.2964 74.7037 36.2422C75.1653 36.1481 75.5503 36.011 75.8575 35.8341C76.225 35.6329 76.5415 35.388 76.7957 35.1071L77.0449 34.8074L77.0636 34.6162C77.0891 34.5377 77.1078 34.4554 77.1165 34.3707C77.1876 33.7047 76.7982 33.1347 76.1858 32.9565C76.149 32.8357 76.106 32.6675 76.0587 32.4376C75.9316 31.8333 75.8949 30.9773 75.9478 29.8865C76.6038 29.7924 77.2741 29.6242 77.9526 29.3831C78.9724 29.0211 79.9343 28.5209 80.8171 27.8929C80.9622 27.7901 81.098 27.6761 81.2376 27.5646C81.2476 27.7939 81.265 28.0219 81.2974 28.2461C81.5765 30.1699 82.643 31.7137 84.3002 32.5921C85.1468 33.0388 86.0856 33.2668 87.0936 33.2668C88.6561 33.2668 90.2503 32.7123 91.5804 31.7398C92.2395 32.6625 93.2587 33.1814 94.5003 33.1814C95.5893 33.1814 96.7686 32.769 97.804 32.0981C98.8419 31.4265 99.7359 30.4951 100.257 29.456C100.614 28.7944 100.857 28.0842 100.982 27.3304C101.068 26.7672 100.839 26.2052 100.383 25.862L100.386 25.8645ZM73.0329 17.1202C72.8659 17.1533 72.6965 17.19 72.5326 17.2361C72.3688 17.2804 72.195 17.3321 72.0093 17.4087C71.9096 17.4498 71.8143 17.4984 71.7202 17.5495L71.6361 17.5925C71.5421 17.638 71.367 17.7208 71.1982 17.879L70.6948 18.3482L70.8942 19.0054C70.911 19.0621 70.9452 19.2066 70.9882 19.5256C70.412 19.0808 69.6993 18.8341 68.9579 18.8341C68.9093 18.8341 68.8614 18.8341 68.8209 18.8372C67.9755 18.8683 67.1812 19.178 66.4498 19.7642C65.9034 19.1767 65.0979 18.8391 64.1254 18.8391C63.153 18.8391 62.1992 19.1543 61.4833 19.6633C61.1501 19.8782 61.0174 20.1691 60.9656 20.3778C60.5034 19.7206 59.805 19.2172 58.9596 18.9574C58.4831 18.8092 57.984 18.735 57.4782 18.735C55.9525 18.735 54.3757 19.4209 53.1534 20.6189C53.1135 20.6563 53.0768 20.6974 53.0394 20.7373C53.1322 20.3149 53.192 20.067 53.1964 20.0501C53.2039 20.0128 53.3615 19.3088 53.506 18.231C56.2397 18.1102 58.9895 17.889 61.6914 17.5738L61.8627 17.5539C62.2334 17.5084 62.8109 17.4423 63.5791 17.3645C65.6436 17.1589 67.5911 16.9651 69.6413 16.9651C69.9622 16.9651 70.283 16.9695 70.607 16.9807C70.8412 16.9876 71.0748 16.9932 71.3084 16.9981C71.9669 17.0137 72.6086 17.0293 73.2304 17.0822L73.0335 17.119L73.0329 17.1202Z" fill="#00008B"/>
<path d="M70.6495 19.9773C70.2022 19.4596 69.5437 19.1749 68.8597 19.2054C67.7059 19.2471 66.8113 20.0346 66.1161 20.9927C65.961 18.7537 63.3812 18.9325 62.0947 19.8471C62.0704 19.8639 62.0411 19.8751 62.0355 19.9187C61.7521 21.9939 61.43 24.0647 61.1914 26.1467C61.1658 26.3635 61.1422 26.5903 61.1229 26.8239C61.068 26.8669 61.0163 26.9161 60.959 26.9578C60.2164 27.5092 59.348 27.9241 58.4421 27.9702C57.575 28.0138 56.4741 27.6655 56.1595 26.6744C57.8671 26.3454 59.3118 25.2141 60.0376 23.6342C60.3871 22.8511 60.6288 21.9241 60.4195 21.0594C60.1915 20.1268 59.4489 19.5281 58.6334 19.2764C56.9763 18.7649 55.1895 19.4347 53.9236 20.6738C51.2249 23.3152 50.3664 28.6667 54.0788 30.6328C56.3446 31.8327 59.3467 30.9586 61.1883 28.9788C61.3365 29.6946 61.6568 30.3251 62.2816 30.7238C64.1836 31.9336 66.2955 30.1251 66.8824 28.0611C66.8923 28.0319 66.888 28.0001 66.8699 27.9733C66.8531 27.9484 66.8238 27.9328 66.7933 27.9316C65.1361 27.8462 65.399 25.7386 65.6071 24.4702C65.7205 23.694 66.1092 22.9838 66.7011 22.468C67.0967 22.1378 67.3888 22.0942 67.4293 22.7377C67.5203 24.175 68.7762 24.7836 69.8608 24.1307C71.1155 23.3738 71.6569 21.1909 70.6495 19.9773ZM57.3289 22.5726C57.8167 22.2331 58.2054 22.7128 58.0783 23.2872C57.821 24.4379 56.8797 25.2228 56.0268 25.8533C56.0337 24.7444 56.4648 23.1751 57.3289 22.5726Z" fill="#C8F657"/>
<path d="M29.1525 34.4068C29.0727 37.8177 24.472 39.182 21.9576 37.3255C20.8923 36.548 20.1385 35.4154 19.8332 34.1302C19.4401 32.5248 19.5884 30.844 19.7354 29.2136C19.9049 27.1191 20.1995 25.0352 20.6176 22.9769C19.604 24.6689 18.7156 26.4338 17.9636 28.2573C17.5761 29.1955 17.35 30.1942 16.9862 31.1405C16.7613 31.7267 16.2504 32.4799 15.5334 32.1852C15.2007 32.0482 14.9895 31.7168 14.8325 31.4078C14.4594 30.6035 14.1616 29.7662 13.9417 28.9059C13.4887 27.344 12.9754 25.7959 12.6359 24.2029C12.1742 27.278 12.4203 30.7966 10.3315 33.3203C8.80576 35.1619 5.44974 35.9686 3.34343 34.7227C1.48382 33.6094 0.794174 31.2533 1.75918 29.3139C1.96352 28.8971 2.38029 28.5321 2.85376 28.8454C4.09288 29.6609 5.83101 29.2591 6.91625 28.2903C9.75519 25.7523 8.8961 20.3504 10.2025 16.8517C10.2218 16.8013 9.09358 16.6249 8.99702 16.6125C8.05008 16.481 6.06774 16.5284 6.20605 17.9606C6.23969 18.302 6.39917 18.6154 6.568 18.9113C6.91313 19.5181 7.224 20.3043 6.55118 20.837C6.05591 21.2288 5.26596 21.3434 4.66042 21.2176C3.91221 21.0612 3.24811 20.6164 2.71235 20.0707C1.59097 18.9294 1.33368 17.0723 2.14481 15.6768C2.32672 15.3622 2.59086 15.1036 2.88055 14.8825C3.7222 14.2377 4.74016 14.0115 5.78055 13.976C6.60164 13.948 7.45139 14.0165 8.26563 14.1872C9.10355 14.3648 9.86671 14.7647 10.6947 14.951C10.8093 14.9778 11.0149 15.0837 11.1295 15.0444C11.2286 15.0108 11.3114 14.8501 11.3768 14.7747C11.5799 14.5423 11.7992 14.323 12.0409 14.1311C12.5107 13.7592 13.0857 13.4839 13.6993 13.5256C15.9813 13.7561 15.805 16.0256 13.951 16.8916C14.3148 20.1454 15.0499 23.3463 16.1439 26.4326C17.8291 21.5677 20.4469 16.757 24.505 13.4695C25.4239 12.9257 26.6306 12.555 27.6386 13.0372C28.1308 13.272 28.5631 13.7767 28.5432 14.3473C28.494 15.7135 26.8779 16.3459 25.6949 16.0954C23.7244 19.7087 21.9987 32.9546 27.7701 33.6748C28.1563 33.7084 28.6242 33.524 28.9444 33.8006C29.112 33.9446 29.1387 34.1962 29.1512 34.4062L29.1525 34.4068Z" fill="#C8F657"/>
<path d="M99.7198 26.0115C99.3354 25.849 98.9367 26.5554 98.6819 26.8264C97.464 28.1216 96.1682 27.7833 96.3077 25.7412C96.4516 24.0791 96.6796 22.4257 96.9918 20.7853C97.5985 20.7673 98.2359 20.738 98.9953 20.6875C99.0264 20.685 99.0526 20.6682 99.0713 20.6427C99.0875 20.6177 99.0931 20.5872 99.085 20.5573C98.8021 19.1188 98.1941 18.8279 97.3145 18.8067C97.3662 18.4653 97.4123 18.1233 97.4571 17.7807C97.5493 17.0418 97.6066 16.2687 97.2322 15.6102C96.4223 14.1935 94.4338 14.6172 93.3149 15.3498C93.2844 15.3685 93.2619 15.3978 93.2551 15.4314C93.0888 16.5945 92.9405 17.7595 92.7935 18.9257C92.7374 18.9157 92.6832 18.902 92.6296 18.8821C92.3979 18.7974 92.2471 18.5719 92.2564 18.3245C92.2577 18.3009 92.2483 18.2784 92.2315 18.2629C92.2147 18.2473 92.191 18.2392 92.1686 18.2417C91.2304 18.3831 90.7002 19.9686 91.6135 20.576C91.8957 20.7523 92.2203 20.8514 92.553 20.8626C92.3486 22.5041 92.1574 24.1488 91.9755 25.7948C91.9194 26.2184 91.8833 26.6433 91.8621 27.07C91.8079 27.1149 91.7562 27.1635 91.6989 27.2058C90.9544 27.7565 90.0866 28.1721 89.1814 28.2182C88.3129 28.2612 87.2128 27.9129 86.8981 26.9217C88.6051 26.5947 90.0498 25.4621 90.7756 23.8816C91.1251 23.0985 91.3687 22.1715 91.1575 21.3074C90.9295 20.3742 90.1869 19.7761 89.3733 19.5244C87.7161 19.0123 85.9288 19.682 84.6635 20.9211C81.9629 23.5645 81.1044 28.9147 84.8174 30.8808C87.1019 32.0913 90.1327 31.1911 91.9711 29.1776C92.8371 33.0382 97.8153 31.1238 99.2837 28.1982C99.5815 27.6463 99.7871 27.0476 99.8905 26.4296C99.9142 26.2688 99.8481 26.1081 99.7198 26.0115ZM88.0669 22.82C88.5553 22.4805 88.9453 22.9602 88.8163 23.5346C88.559 24.6858 87.6183 25.4714 86.7667 26.1006C86.7723 24.9917 87.2028 23.423 88.0669 22.82Z" fill="#C8F657"/>
<path d="M80.1553 5.04994C80.1553 5.04994 80.1565 5.05057 80.1571 5.05119C80.1671 5.05804 80.1715 5.05991 80.1727 5.05991C80.1665 5.05181 80.126 5.02191 80.1553 5.04994ZM80.1764 5.06552C80.1764 5.06552 80.1802 5.0705 80.1852 5.07736C80.187 5.07923 80.1895 5.08109 80.1914 5.08296C80.2107 5.1004 80.1814 5.06801 80.1764 5.06552ZM80.2144 5.11286C80.2144 5.11286 80.2144 5.11411 80.2151 5.11473H80.2157L80.2144 5.11286ZM80.1764 5.06552C80.1764 5.06552 80.1802 5.0705 80.1852 5.07736C80.187 5.07923 80.1895 5.08109 80.1914 5.08296C80.2107 5.1004 80.1814 5.06801 80.1764 5.06552ZM80.1553 5.04994C80.1553 5.04994 80.1565 5.05057 80.1571 5.05119C80.1671 5.05804 80.1715 5.05991 80.1727 5.05991C80.1665 5.05181 80.126 5.02191 80.1553 5.04994ZM87.0885 6.5152C87.0187 6.30962 86.8299 6.17069 86.6412 6.06479C85.5989 5.47295 84.2346 5.43806 83.4066 4.57273C82.8902 4.03572 82.6877 3.27319 82.2597 2.66267C81.7046 1.86524 80.7845 1.36997 79.8294 1.19429C78.8744 1.01798 77.8857 1.13697 76.9456 1.3843C77.1026 1.57057 77.2602 1.75747 77.4172 1.94499C76.7569 1.50453 76.0971 1.06409 75.4368 0.623637C75.2567 0.502154 75.0624 0.377554 74.8443 0.370701C74.5465 0.360733 74.2917 0.571923 74.0724 0.773147C73.0669 1.69766 72.1244 2.68883 71.2503 3.73794C71.0995 3.91798 70.9457 4.11422 70.9133 4.34597C70.8659 4.69173 71.0977 5.00883 71.3257 5.27173C72.4221 6.53203 73.7715 7.57054 75.2704 8.3094C75.3701 8.358 75.4847 8.40534 75.5882 8.3636C75.7557 8.29507 75.752 8.05896 75.7196 7.87954C75.557 6.99179 75.3938 6.10216 75.2312 5.21441C75.1546 4.79514 75.0792 4.36154 75.1882 3.95037C75.2972 3.5392 75.648 3.15856 76.0735 3.16416C75.4299 3.73606 75.3782 4.73035 75.5558 5.57263C75.7333 6.41553 76.0915 7.23101 76.094 8.0926C76.0959 8.27015 76.0747 8.46141 75.9532 8.59037C75.7252 8.82773 75.3296 8.69628 75.0387 8.5424C73.5659 7.76678 72.1972 6.79493 70.9787 5.66047C70.3931 6.7264 70.0585 7.92876 70.0068 9.14233C69.9719 9.98025 70.0698 10.825 69.947 11.6542C69.8392 12.3781 69.5221 13.1195 68.9459 13.5487C66.4078 13.7406 63.881 14.0969 61.3442 14.3168C58.4143 14.5698 55.4707 14.6315 52.5327 14.515C52.4854 14.0328 52.3969 13.5923 52.2586 13.2048C51.9583 12.3688 51.2438 11.8847 50.1124 11.7545C49.8994 11.7296 49.6632 11.7153 49.4016 11.7115C49.3331 11.7103 49.2633 11.7115 49.1935 11.7128C49.115 11.7283 49.0372 11.7433 48.9587 11.7601C48.7836 11.7981 48.6092 11.8386 48.4372 11.8903C48.269 11.942 48.1014 11.995 47.9388 12.0679C47.8018 12.1295 47.6759 12.2105 47.5432 12.2803C47.4722 12.3183 47.395 12.3588 47.3352 12.4192C47.4261 12.7463 47.5096 13.3207 47.5868 14.1449C46.7408 14.0508 45.8973 13.9462 45.0557 13.8216C43.7424 13.6272 42.4179 13.3911 41.21 12.841C40.6966 12.6092 40.2057 12.3083 39.7671 11.952C39.4899 11.6498 39.2719 11.3016 39.1616 10.8805C39.1211 10.7241 38.7809 9.59026 39.4874 9.02521C39.9166 8.68382 40.5023 8.59161 41.0461 8.66138C41.5426 8.72431 42.0547 8.9411 42.3108 9.37034C42.3538 9.44572 42.3986 9.53294 42.4815 9.55786C42.6154 9.59711 42.7257 9.45008 42.7874 9.32424C43.0895 8.70499 43.3456 8.00538 43.1736 7.33879C43.011 6.70397 42.4908 6.22552 41.9551 5.84674C41.5202 5.54023 41.0492 5.26923 40.529 5.15709C39.4469 4.92347 38.3193 5.42124 37.4864 6.15014C36.3538 7.13881 35.6181 8.58725 35.5607 10.0905C35.5564 10.2164 35.5607 12.4466 37.2752 14.0272C37.6988 14.5667 38.2159 15.0327 38.8102 15.3753C40.2325 16.192 41.937 16.3204 43.5773 16.3933C44.9323 16.4518 46.2892 16.4842 47.6466 16.4954C47.6186 17.2754 47.5544 18.1818 47.4541 19.2135C47.3962 19.8022 47.3127 20.4726 47.2037 21.2233C47.0947 21.974 46.9857 22.739 46.8735 23.5152C46.7614 24.2927 46.6524 25.049 46.5452 25.7879C46.4705 26.2881 46.4119 26.7385 46.3645 27.1466C46.2624 27.2114 46.1546 27.2656 46.0387 27.3005C46.0736 26.9634 46.0543 26.6227 45.9814 26.2912C45.7858 25.4689 45.3466 24.7251 44.7242 24.1532C44.1648 23.6161 43.4477 22.9545 43.5848 22.1029C43.6894 21.4625 44.485 21.6064 44.8794 21.237C45.4276 20.7243 45.1622 19.8795 44.632 19.4752C44.186 19.1369 43.548 19.0852 43.0042 19.092C40.2593 19.1325 38.7529 21.2961 40.5864 23.6143C41.0798 24.2379 41.6504 24.8297 41.8728 25.6265C42.0367 26.2227 41.8629 27.2488 41.0785 26.9578C40.3527 26.6912 40.3808 25.5748 40.6636 24.9475C40.6885 24.9026 40.673 24.8478 40.63 24.8197C39.3933 24.0229 38.0215 24.7008 37.464 25.9654C37.2845 26.3747 37.2036 26.8127 37.1955 27.2531C37.155 27.2587 37.1145 27.2668 37.0721 27.2668C35.8261 27.2612 36.3158 24.887 36.461 24.0367C36.5843 23.3096 36.7369 22.5907 36.9033 21.8749C37.0553 21.2177 37.0123 20.5324 36.6292 19.9785C35.805 18.793 34.1958 19.2154 33.133 19.8571C33.0993 19.8739 33.0744 19.9056 33.0657 19.9424C33.0227 20.2346 32.9778 20.5299 32.9317 20.8221C31.768 18.8559 30.1084 18.8179 28.4425 20.057C26.0976 21.8051 25.3301 25.5206 26.3437 28.3272C27.465 31.4271 30.5781 32.1392 32.2645 29.2934C33.0856 32.1953 36.2959 30.991 37.7549 29.3227C37.8415 29.4653 37.9381 29.6024 38.0427 29.7307C39.0021 30.9138 40.6113 31.3293 42.0828 31.1156C43.2783 30.9493 44.4196 30.5089 45.4164 29.8261C45.6805 29.6473 45.9397 29.4442 46.1882 29.2274C46.1521 29.9519 46.149 30.5911 46.1826 31.1437C46.2362 32.0551 46.3801 32.7784 46.615 33.3098C46.8486 33.8412 47.1688 34.2268 47.5744 34.4673C47.9799 34.709 48.4646 34.8616 49.0309 34.9277C49.596 34.9918 50.0925 34.9775 50.518 34.8841C50.9441 34.7906 51.2967 34.6573 51.5764 34.4829C51.9048 34.2873 52.1776 34.0592 52.3944 33.8001L52.3969 33.7615C52.4 33.7359 52.4069 33.7178 52.4212 33.7054C52.4337 33.6942 52.4418 33.6761 52.4449 33.6506C52.4642 33.445 52.3788 33.3316 52.1913 33.311C52.144 33.3054 52.0966 33.3067 52.0474 33.3135C51.9988 33.321 51.9509 33.3222 51.9048 33.3166C51.8643 33.3123 51.3428 32.8507 51.136 31.4807C50.3417 26.1959 52.1147 19.0708 52.1147 19.0708C52.1147 19.0708 52.3608 17.9819 52.5159 16.4294C55.538 16.3216 58.5557 16.0924 61.5598 15.7416C61.9161 15.6999 62.5634 15.6201 63.4431 15.5329C65.8397 15.2943 68.1528 15.0619 70.6392 15.1404C72.2166 15.1909 73.822 15.161 75.3533 15.5977C77.3992 16.1789 78.9485 17.6716 79.7092 19.6459C79.9989 20.3984 80.0057 21.1504 79.9858 21.3267C79.9746 21.4401 79.9578 21.5478 79.9372 21.65C79.9173 21.7516 79.8911 21.8581 79.8618 21.9684C79.7092 22.5041 79.4675 22.957 79.1329 23.3289C78.799 23.7027 78.4215 24.0049 77.9972 24.2341C77.5755 24.4647 77.1288 24.641 76.6609 24.7612C76.1925 24.8827 75.7458 24.968 75.324 25.0185C75.4592 24.2746 75.6037 23.5445 75.7557 22.8287C75.9071 22.1154 76.0143 21.4569 76.0791 20.8557C76.1781 19.9169 76.1083 19.1412 75.8691 18.527C75.6299 17.9146 75.0611 17.5595 74.1603 17.4642C73.9914 17.4461 73.8021 17.4361 73.594 17.4324C73.5392 17.4324 73.485 17.4324 73.4289 17.4336C73.366 17.4449 73.303 17.4561 73.2414 17.4685C73.1018 17.4953 72.9635 17.5258 72.8265 17.5638C72.6919 17.6012 72.558 17.6405 72.429 17.6934C72.32 17.7383 72.219 17.7987 72.1144 17.8504C72.0571 17.8766 71.9954 17.9077 71.9481 17.9507C72.0322 18.2292 72.1075 18.7506 72.1773 19.5169C72.2458 20.2931 72.201 21.4332 72.0434 22.9334C71.9973 23.3657 71.93 23.8579 71.8434 24.4073C71.7568 24.958 71.6696 25.5194 71.5805 26.0882C71.4908 26.6576 71.4042 27.2139 71.3188 27.7553C71.2322 28.296 71.1693 28.7632 71.127 29.1576C71.0198 30.1718 70.9874 31.0135 71.0304 31.6819C71.0728 32.3516 71.1874 32.8799 71.3749 33.2705C71.5606 33.6605 71.8153 33.9427 72.1381 34.119C72.4614 34.2966 72.8489 34.4087 73.2987 34.4561C73.7491 34.5041 74.1434 34.4941 74.4836 34.4256C74.8231 34.357 75.1041 34.2592 75.3265 34.1303C75.5882 33.9876 75.8049 33.82 75.9769 33.63L75.9794 33.602C75.9825 33.5833 75.9881 33.5696 75.9993 33.5615C76.0087 33.5528 76.0161 33.539 76.0174 33.5204C76.033 33.3696 75.9657 33.2874 75.8162 33.2705C75.7782 33.2674 75.7408 33.2674 75.7015 33.273C75.6635 33.2786 75.6262 33.2786 75.5882 33.2762C75.3633 33.2506 75.1589 32.8033 74.9758 31.9293C74.7926 31.0552 74.7702 29.7912 74.9085 28.1353C75.7645 28.1116 76.6566 27.9353 77.5836 27.607C78.5106 27.2781 79.3747 26.8295 80.1746 26.2588C80.9763 25.6882 81.6529 24.9917 82.2055 24.1681C82.7575 23.3433 83.0877 22.4244 83.1954 21.4108C83.3954 19.5213 83.4191 17.5159 82.4921 15.7958C81.6909 14.3069 80.3216 13.0821 79.979 11.4262C79.9173 11.1253 79.9079 10.7702 80.1303 10.559C80.3316 10.369 80.6418 10.3715 80.9184 10.3858C81.6697 10.4251 82.4204 10.4643 83.1718 10.5029C83.6203 10.5272 84.0832 10.5478 84.5056 10.397C84.9292 10.2456 85.308 9.87683 85.3279 9.42766C84.0776 9.96467 82.8023 9.51114 81.6716 8.91868C81.4498 8.80218 81.2312 8.68257 81.01 8.56545C80.9863 8.55299 80.9602 8.54052 80.9334 8.53741C80.9197 8.53554 80.9072 8.53866 80.8941 8.54053C80.8873 8.63584 80.9084 8.73303 80.9626 8.81962C80.9863 8.857 80.9626 8.89501 80.9215 8.89999C80.8736 8.90497 80.8231 8.87632 80.7982 8.83645C80.7066 8.69004 80.6829 8.50938 80.7371 8.34491C80.787 8.19539 80.906 8.07516 81.0492 8.01224C81.1221 7.97984 81.266 8.10444 81.1701 8.1468C81.0829 8.18543 81.0144 8.24773 80.9664 8.32248C80.977 8.32124 80.9882 8.32124 81.0013 8.32124C81.0281 8.32124 81.0548 8.32249 81.0816 8.3256C81.1171 8.32872 81.152 8.33494 81.1857 8.34242C81.5669 8.42901 81.9108 8.62837 82.2622 8.79844C82.8465 9.08066 83.4901 9.25322 84.1405 9.26444C84.7915 9.27565 85.7129 9.16538 86.144 8.61217C86.458 8.2091 86.691 7.74248 86.7433 7.22852C86.762 7.05034 86.7583 6.86968 86.7321 6.69275C86.8449 6.75131 86.8941 6.90768 86.8337 7.02107C87.0492 6.9949 87.1595 6.71892 87.0885 6.5152ZM31.4229 26.817C30.7432 27.2668 30.3881 26.1399 30.3457 25.5623C30.2716 24.5569 30.5164 22.3627 31.669 22.3459C32.9579 22.3278 32.1792 26.3149 31.4229 26.817ZM80.7222 5.56577C80.6885 5.60253 80.6331 5.60129 80.5889 5.59132C80.4705 5.56515 80.3284 5.44866 80.3004 5.32717C80.2911 5.28855 80.2805 5.24992 80.2668 5.21254C80.2655 5.20942 80.2593 5.1951 80.2556 5.18576C80.2568 5.18762 80.2574 5.18949 80.2587 5.19074C80.2587 5.18949 80.2574 5.18825 80.2568 5.18638C80.2556 5.18451 80.2549 5.18326 80.2543 5.18201C80.2531 5.17828 80.2518 5.17703 80.2518 5.17766C80.2481 5.1708 80.2443 5.16395 80.2437 5.16208C80.2425 5.16021 80.2269 5.13529 80.2194 5.12159C80.2269 5.1328 80.2394 5.14526 80.2207 5.12159C80.2194 5.11972 80.2182 5.11847 80.2163 5.1166C80.2163 5.11598 80.2157 5.11536 80.2157 5.11473C80.2151 5.11411 80.2144 5.11286 80.2144 5.11286C80.2144 5.11349 80.2144 5.11411 80.2151 5.11473C80.2051 5.10227 80.1951 5.08919 80.1852 5.07736C80.1752 5.06926 80.1665 5.06053 80.1571 5.05181L80.1553 5.04994C80.1447 5.04309 80.1328 5.03561 80.1216 5.02814C80.1285 5.03125 80.1328 5.03312 80.1347 5.03312C80.131 5.02938 80.1004 5.01318 80.1185 5.02627C80.1029 5.01941 80.088 5.01194 80.0718 5.00571C80.0705 5.00509 80.0699 5.00509 80.0693 5.00446C80.0718 5.00509 80.073 5.00509 80.0743 5.00509C80.0699 5.00135 80.0437 4.99325 80.068 5.00446C80.0369 4.99761 80.007 4.98889 79.9758 4.98391C79.9746 4.98391 79.974 4.98391 79.9733 4.98328C79.9833 4.98328 79.9746 4.98328 79.9709 4.98328C79.9715 4.98328 79.9721 4.98328 79.9727 4.98328C79.9702 4.98391 79.9671 4.98391 79.9628 4.98391C79.9441 4.98329 79.9254 4.98266 79.9061 4.98328C79.8905 4.98391 79.8749 4.98515 79.8593 4.9864C79.8544 4.9864 79.84 4.98889 79.8344 4.98951C79.7684 5.00135 79.703 5.02627 79.6438 5.05742C79.5335 5.11535 79.4357 5.2194 79.3659 5.3334C79.3024 5.43619 79.1093 5.30536 79.0576 5.25989C78.9772 5.19011 78.8943 5.0624 78.9579 4.95961C79.1529 4.64376 79.5292 4.48427 79.8911 4.56962C80.2985 4.66556 80.6424 5.02564 80.7365 5.43058C80.7465 5.47482 80.7564 5.52777 80.7222 5.56577ZM80.1764 5.06552C80.1764 5.06552 80.1802 5.0705 80.1852 5.07736C80.187 5.07923 80.1895 5.08109 80.1914 5.08296C80.2107 5.1004 80.1814 5.06801 80.1764 5.06552ZM80.1727 5.05991C80.1665 5.05181 80.126 5.02191 80.1553 5.04994C80.1559 5.05056 80.1565 5.05057 80.1571 5.05119C80.1671 5.05804 80.1715 5.05991 80.1727 5.05991Z" fill="#C8F657"/>
<path d="M80.0753 5.005C80.0753 5.005 80.0728 5.005 80.0703 5.00436H80.069C80.0442 4.99293 80.0709 5.00119 80.0753 5.005Z" fill="#00008B"/>
<path d="M80.1352 5.03287C80.1352 5.03287 80.1289 5.031 80.1221 5.02789H80.1214C80.1214 5.02789 80.1196 5.02664 80.119 5.02602C80.1009 5.01293 80.1314 5.02913 80.1352 5.03287Z" fill="#00008B"/>
<path d="M80.1568 5.05088C80.1568 5.05088 80.1556 5.05026 80.155 5.04964C80.1145 5.01039 80.2085 5.08453 80.1568 5.05088Z" fill="#00008B"/>
<path d="M80.1946 5.08263C80.1946 5.08263 80.1903 5.0789 80.1884 5.07703C80.1834 5.07017 80.1803 5.06705 80.1797 5.06519C80.1847 5.06768 80.214 5.10007 80.1946 5.08263Z" fill="#00008B"/>
<path d="M80.2606 5.19084C80.2606 5.19084 80.2587 5.18767 80.2574 5.18576C80.2574 5.18576 80.2574 5.18576 80.2568 5.18449C80.2562 5.18258 80.2555 5.18067 80.2549 5.18004C80.253 5.17559 80.2536 5.1756 80.2587 5.1864C80.2587 5.1883 80.26 5.18957 80.2606 5.19084Z" fill="#00008B"/>
</svg>
