<?xml version="1.0" encoding="utf-8"?>
<!-- Generator: Adobe Illustrator 24.3.0, SVG Export Plug-In . SVG Version: 6.00 Build 0)  -->
<svg version="1.1" id="Layer_1" xmlns="http://www.w3.org/2000/svg" xmlns:xlink="http://www.w3.org/1999/xlink" x="0px" y="0px"
	 viewBox="0 0 1118.1 1155.7" style="enable-background:new 0 0 1118.1 1155.7;" xml:space="preserve">
<style type="text/css">
	.st0{fill:#FCD5FF;}
	.st1{fill:#00008B;}
	.st2{fill:#ECAAEE;}
	.st3{fill:#FFB4E7;}
	.st4{fill:#EAD5B9;}
	.st5{fill:#C8F657;}
	.st6{fill:#C2ACD2;}
	.st7{fill:#0B4884;}
	.st8{fill:#D8F476;}
	.st9{fill:#E179E6;}
	.st10{fill:#EEFFB1;}
	.st11{fill:#DCA87F;}
	.st12{fill:#BC85F2;}
	.st13{opacity:0.17;}
	.st14{fill:#6D5B32;}
	.st15{fill:#D1C09A;}
	.st16{fill:#F5F2C3;}
	.st17{fill:#FFF6BD;}
	.st18{fill:#FF81CB;}
	.st19{fill:none;stroke:#00008B;stroke-width:1.2974;stroke-miterlimit:10;}
	.st20{fill:#BBED0A;}
	.st21{fill:#9630EE;}
	.st22{fill:#BDE3F9;}
	.st23{fill:#93D6F7;}
	.st24{fill:#E1B0C5;}
	.st25{fill:#ECD2DF;}
	.st26{fill:#DF9EBD;}
	.st27{opacity:0.69;}
	.st28{fill:#FFDAF1;}
	.st29{fill:#F6A2FF;}
	.st30{fill:#FFEE76;}
	.st31{fill:none;}
	.st32{fill:#2A2E7E;}
	.st33{fill:#FFDA10;}
	.st34{fill:#A7EBF4;}
	.st35{fill:#FFE945;}
	.st36{fill:none;stroke:#0B4884;stroke-width:3.2169;stroke-miterlimit:10;}
	.st37{fill:#B275F0;}
	.st38{fill:#00008B;stroke:#00008B;stroke-width:1.4343;stroke-miterlimit:10;}
</style>
<g>
	<g>
		<g>
			<path class="st6" d="M615.8,481.4c-12.1,53.4-72.8,78.5-82.4,82.4c-61.5-27.5-96.8-72.4-89.9-108.7c3.1-16.3,16.8-42.3,41.2-44.9
				c18.3-2,37.6,10,48.7,30c10.7-20.5,30.2-32.4,48.6-30c14.8,2,24,12.5,26.2,15C624.1,444.3,618,471.1,615.8,481.4z"/>
		</g>
		<g>
			<path class="st7" d="M533.4,568.2l-1.6-0.7c-30.4-13.6-55.3-31.7-72.1-52.2c-16.6-20.3-23.8-42-20.2-60.9
				c3.4-17.8,18.2-45.3,44.8-48.2c18.1-2,36.8,8.2,49,26.2c11.9-18.1,31-28.5,49.2-26.2c14.4,1.9,24.2,11.1,28.8,16.4
				c16.8,20.3,10.8,48.5,8.5,59.2l-0.1,0.5c-11.8,52.2-67.9,78.4-84.8,85.2L533.4,568.2z M488.7,414.1c-1.2,0-2.3,0.1-3.5,0.2
				c-22.1,2.4-34.8,26.8-37.7,41.6c-6.6,34.9,28.7,77.3,86,103.5c17.6-7.3,67.7-32,78.3-78.8l0.1-0.5c2.2-10.5,7.4-35-6.8-52.2
				c-3.7-4.4-11.9-12-23.6-13.6c-16.8-2.1-34.7,9.1-44.5,27.9l-3.5,6.7l-3.7-6.6C520.4,425,504.2,414.1,488.7,414.1z"/>
		</g>
	</g>
	<g>
		<g>
			<path class="st6" d="M891.1,578.3c-13.3,7.4-30-21.3-42-27.4c-52.4-45-104.5-90.2-156.9-135.1c-57.4-36.9-124.5-154-197.9-87.4
				C418.9,393.7,343,458.5,267.5,523.7c-16.2,9.1-60.1,63-73.5,54.6c-5.2-14.7,37.4-35.9,46.6-48.6c32.4-27.9,64.9-55.9,97.5-83.9
				c31.1-26.8,62.2-53.5,93.3-80.3c33.8-24.7,63.9-70.2,108.9-70.5c67.4,5.1,105,73.3,157.6,108.6c46.5,40.3,93.3,80.3,140,120.4
				C848.5,537.8,895.5,563.4,891.1,578.3z"/>
		</g>
		<g>
			<path class="st7" d="M886.5,583.6c-9.1,0-18.1-9.2-26.2-17.6c-4.6-4.8-9.4-9.7-13.1-11.6l-0.4-0.2l-0.4-0.3
				c-23.9-20.5-48.1-41.4-71.5-61.6c-27.9-24.1-56.8-49-85.2-73.3c-15.8-10.2-32-26.1-49.2-42.8c-45.7-44.6-92.9-90.8-143.6-44.8
				c-40.9,35.5-82.6,71.3-122.9,106c-34.1,29.3-69.3,59.6-103.8,89.4l-0.3,0.3l-0.4,0.2c-5.3,3-14.5,11.9-24.3,21.3
				c-25.4,24.4-42.8,39.9-53.3,33.2l-1.2-0.8l-0.5-1.3c-4.3-12.2,12.6-24.8,28.9-36.9c7.9-5.8,15.3-11.4,18.2-15.4l0.3-0.4l0.4-0.3
				c12.9-11.1,25.8-22.2,38.7-33.3c19.6-16.9,39.2-33.8,58.8-50.7c15.6-13.5,31.2-26.9,46.9-40.3c15.5-13.3,31-26.6,46.5-40l0.3-0.2
				c9.6-7,18.8-15.7,28.6-24.9c24.2-22.7,49.1-46.2,82.6-46.4l0.2,0l0.2,0c45.9,3.5,78.5,35.3,109.9,66.1
				c15.8,15.4,32.1,31.4,49.6,43.2l0.4,0.3c32.1,27.9,65,56,96.7,83.2c14.4,12.4,28.8,24.7,43.2,37.1l0.3,0.3l0.3,0.3
				c3.5,4.6,11.9,11,20.7,17.7c18.9,14.4,36.8,28.1,33.1,40.3l-0.5,1.6l-1.4,0.8C890.9,583.1,888.7,583.6,886.5,583.6z M851.3,547.5
				c4.7,2.6,9.6,7.6,14.7,12.9c7.3,7.5,15.4,15.8,21.2,15c-1.1-7.4-18.5-20.7-30.4-29.7c-9.1-7-17.7-13.5-22-18.9
				c-14.3-12.3-28.6-24.6-42.9-36.8c-31.7-27.2-64.5-55.3-96.5-83.1c-18.1-12.2-34.6-28.3-50.6-44c-30.4-29.7-61.8-60.5-104.7-63.8
				c-30.2,0.3-54,22.6-77,44.2c-9.5,8.9-19.3,18.1-29.3,25.4c-15.5,13.3-30.9,26.6-46.4,39.9c-15.6,13.4-31.2,26.8-46.8,40.3
				c-19.7,16.9-39.3,33.8-58.8,50.7c-12.8,11-25.6,22-38.3,33c-3.8,5-11.2,10.4-19.7,16.8c-10.3,7.7-25.5,19-26.3,25.9
				c2-0.1,6.1-1.4,14.4-7.7c8.5-6.5,18.2-15.8,27.5-24.7c10.4-10,19.4-18.7,25.6-22.3c34.5-29.8,69.6-60,103.6-89.2
				c40.3-34.7,82-70.5,122.8-105.9c25.2-22.9,52-27.1,81.9-13c25.5,12,49.5,35.5,72.7,58.1c16.9,16.6,32.9,32.2,48.1,42l0.4,0.3
				c28.5,24.4,57.5,49.4,85.4,73.5C803.5,506.3,827.6,527.1,851.3,547.5z"/>
		</g>
	</g>
	<g>
		<g>
			<path class="st8" d="M1110.5,526c-7.2,29.6-22,58.2-45.9,77.2c-23.7,18.8-56.9,24.9-79.2,44.3c-25.2,21.8-38.3,61.7-44.6,93.2
				c-7.4,36.8-7.3,74.6-7.2,112.2c0.2,50,0.4,100.1,0.6,150.1c0.1,23.5,13.9,128.3-12.9,132c-117.4,16.7-236.7,19.9-355.1,18.3
				c-68.5-0.7-136.9-4.9-205-11.7c-34.1-3.4-68-7.5-101.9-12.2c-26.1-3.6-63.7,6.9-83.2-17.5c-23.2-28.8-3.3-77.3-3.3-110.1V738.7
				c0-32.3-2.4-70.9-21.4-98.4c-17.4-25.1-39.6-21.8-66.4-22c-31.1-0.2-55.1-15.1-68-44.5C-3.5,527.5-1.7,482,14.6,441.1
				c13.6-34.3,37.4-65.4,66.8-91C185.6,258.9,290,167.9,394.5,77c65.4-56.9,130.3-98,218.1-60.8c50.7,21.5,91.9,60,133,96.8
				c86.5,77.2,177.4,149.5,272.1,216.3C1088.8,379.4,1132.3,436.1,1110.5,526z"/>
		</g>
		<g>
			<path class="st1" d="M616.8,1155.7c-16.5,0-33.3-0.1-50.8-0.3c-65.4-0.7-134.4-4.6-205.2-11.7c-32.8-3.3-67.1-7.4-102-12.2
				c-7.3-1-15.5-0.9-24.2-0.7c-21.4,0.3-45.7,0.7-60.2-17.5c-16.7-20.8-11.8-51.4-7.4-78.4c1.9-11.9,3.7-23.1,3.7-32.9V738.7
				c0-33-2.5-70.4-21.1-97.3c-14.9-21.5-33-21.4-56-21.2c-2.9,0-5.8,0-8.8,0c-32.6-0.2-56.8-16-69.8-45.6
				c-19.1-43.5-19.9-89.9-2.3-134.2c13.1-33.1,36.4-64.8,67.3-91.8c102.1-89.3,207.5-181.2,313.2-273.1c28.7-25,63.1-52.3,101.3-66
				c39-14,77.9-12.4,118.9,4.9c47.8,20.3,87.3,55.7,125.6,90c2.6,2.4,5.3,4.7,7.9,7.1c85.9,76.7,177.4,149.4,271.9,216.2
				c40.2,28.3,66.2,55,81.8,84.1c18.3,34.1,22.2,71.6,11.7,114.7v0c-8,32.9-24.5,60.7-46.6,78.3c-11.6,9.2-25.6,15.5-39.1,21.6
				c-14.1,6.3-28.7,12.9-40,22.7c-25.5,22-38,62.2-44,92.1c-7.4,36.6-7.3,74.8-7.2,111.8l0.2,37.4c0.2,36.9,0.3,75.2,0.4,112.7
				c0,4.5,0.5,12,1.2,21.4c1.4,19.6,3.2,46.4,2.1,68.9c-1.4,27.9-7.3,42.2-17.8,43.6C831.6,1149.8,736,1155.7,616.8,1155.7z
				 M243.2,1126.8c5.7,0,11.1,0.2,16.2,0.9c34.8,4.8,69.1,8.9,101.9,12.2c70.7,7.1,139.6,11,204.9,11.7
				c143.3,1.8,252.8-3.8,354.8-18.3c19.8-2.8,14.8-74.1,12.4-108.4c-0.7-9.5-1.2-17.1-1.2-21.7c-0.1-37.6-0.3-75.8-0.4-112.7
				l-0.2-37.4c-0.1-37.2-0.2-75.6,7.3-112.6c6.1-30.5,19-71.6,45.3-94.3c11.8-10.2,26.6-16.9,41-23.3c13.3-6,27-12.1,38.3-21.1
				c21.4-17.1,37.5-44.1,45.3-76.2v0c18.8-77.7-8.7-135.9-92-194.6C921.9,264,830.3,191.2,744.3,114.4c-2.6-2.4-5.3-4.7-7.9-7.1
				C698.4,73.2,659,38,611.9,18c-82.1-34.8-143.5-2.7-216.1,60.5c-105.7,91.9-211,183.8-313.2,273.1c-30.4,26.6-53.3,57.8-66.2,90.3
				C-0.9,485.1-0.1,530.5,18.6,573c12.4,28.1,35.3,43.1,66.3,43.3c3,0,5.9,0,8.8,0c23.1-0.2,43.1-0.3,59.2,22.9
				c19.2,27.8,21.8,65.9,21.8,99.5V1002c0,10.1-1.8,21.5-3.8,33.5c-4.4,27.5-9,55.9,6.6,75.4c13.4,16.6,35.6,16.3,57.1,16
				C237.5,1126.8,240.4,1126.8,243.2,1126.8z"/>
		</g>
	</g>
	<g>
		<g>
			<g>
				<path class="st1" d="M608.3,425.3c-2.2-2.5-11.4-13-26.2-15c-18.5-2.3-37.9,9.5-48.6,30c-11.1-20.1-30.4-32-48.7-30
					c-24.4,2.6-38.1,28.6-41.2,44.9c-6.9,36.3,28.4,81.1,89.9,108.7c9.6-3.8,70.3-29,82.4-82.4C618,471.1,624.1,444.3,608.3,425.3z
					 M531,474.7c0.2-1.2,0.4-2.4,0.5-3.7c0.2-1.2,0.4-2.4,0.6-3.5c0.1-0.5,0.3-1,0.4-1.5c0.7-2.4,1.9-4.6,4.1-6c0.6-0.4,1.2-0.7,2-1
					h0.6c1,0.5,2,1,3,1.5c1,0.5,1.9,1,2.7,1.6c5,3.9,6.6,13.8,3.1,18.8c-0.5,0.7-1,1.4-1.6,2c-1.8,2-4.1,3.4-7.3,3.2
					c-0.5-0.1-1-0.2-1.5-0.3c-0.5-0.2-1-0.3-1.5-0.5c-0.5-0.2-0.9-0.5-1.4-0.8c-0.4-0.3-0.7-0.6-1-0.9c-0.2-0.2-0.4-0.5-0.6-0.7
					c-0.3-0.5-0.6-1-0.9-1.6C531.2,479.2,530.7,477,531,474.7z M510.1,472.1c0-0.3,0.1-0.5,0.1-0.7c0-0.2,0.1-0.3,0.1-0.5
					c0.1-0.5,0.2-0.9,0.4-1.5c0.3-1.2,0.8-2.4,1.4-3.5c0.3-0.6,0.6-1.1,0.9-1.6c0.4-0.5,0.7-1,1.1-1.4c0.4-0.5,0.8-0.8,1.3-1.2
					c3.4-2.4,6.7-2.3,9,1.1c3.4,5.3,5.5,11,4.2,17.4c-1,4.4-3.4,6.4-8,6.6c-3.8,0.5-9-4.2-10.3-8.2
					C509.8,476.9,509.7,474.5,510.1,472.1z M496.6,494.3c-1.1-4.5-1.1-9.1,2-13.1c1.7-2.3,3.9-3,6.8-1.8
					c4.2,1.5,11.9,10.9,11.4,16.7c0.4,5.5-5.6,10.1-12.1,7.6C500.4,502,497.6,499,496.6,494.3z M559.9,520.2c-0.2,1.1-0.5,2.1-0.9,3
					c-0.4,0.9-0.9,1.6-1.6,2.2c-1.8,1.7-4.3,2.2-7.3,1.6c-1.7-0.3-3.4-0.6-5.1-1c-1.8-0.4-3.5-0.7-5.3-1c-1.6-0.3-3.3-0.4-4.8-0.4
					c-0.9,0-1.8,0.1-2.6,0.2c-0.6,0.1-1.3,0.1-1.9,0.2c-1.5,0.2-3,0.5-4.5,0.9c-1.2,0.3-2.3,0.6-3.5,1.1c-0.6,0.2-1.2,0.4-1.8,0.6
					c-0.5,0.2-0.9,0.4-1.4,0.5c-0.7,0.3-1.4,0.5-2.1,0.6c-0.7,0.2-1.4,0.3-2.1,0.4c-0.3,0.1-0.5,0.1-0.7,0.1c-1.2,0.2-2.3,0-3.3-0.4
					c-0.8-0.3-1.5-0.7-2.1-1.2c-1.2-1.1-2.1-2.7-2.4-4.6c-0.3-1.5-0.3-3-0.5-4.4c0-2.8,0.4-5.5,2-7.8c0.9-1.2,2.2-2.6,3.7-3.1
					c3.2-1.2,5.6-3.3,7.3-6c1.4-2.3,2.5-4.8,3.9-7.2c0.3-0.5,0.6-0.9,0.9-1.4c0.7-0.8,1.4-1.6,2.1-2.2c1-0.8,2.1-1.4,3.3-1.8
					c0.4-0.2,0.8-0.3,1.2-0.3c1.6-0.4,3.2-0.2,4.8,0.3c0.7,0.2,1.5,0.6,2.1,1c0.8,0.5,1.6,1.1,2.3,1.9c0.7,0.8,1.4,1.7,1.9,2.7
					c1.4,2.3,2.9,4.5,4.8,6.4c0.7,0.6,1.4,1.2,2.1,1.8c0.3,0.2,0.6,0.5,0.9,0.7c1,0.7,2.1,1.2,3.2,1.5c1.5,0.3,2.8,0.9,3.8,1.9
					c0.3,0.2,0.5,0.5,0.7,0.7c0.3,0.3,0.5,0.5,0.7,0.8c0.2,0.3,0.4,0.6,0.6,0.9c0.2,0.3,0.3,0.6,0.5,0.9c0.5,1.1,0.8,2.3,1.1,3.5
					c0,0.1,0,0.1,0,0.1c0.2,1.2,0.3,2.4,0.3,3.6C560,518.3,560,519.2,559.9,520.2z M561.7,498.9c-0.3,0.2-0.6,0.4-0.9,0.6
					c-0.6,0.4-1.2,0.7-1.8,1c-0.9,0.5-1.8,0.9-2.8,1.1c-1,0.2-2,0.3-3.1,0.2c-0.4,0-0.7-0.1-1.1-0.2c-4-1.1-6-3.9-5.9-10.4
					c0-0.4,0.1-0.8,0.2-1.1c0.2-0.8,0.4-1.7,0.8-2.5c0.2-0.4,0.4-0.9,0.7-1.3c0.2-0.4,0.4-0.8,0.7-1.2c0.8-1.4,1.9-2.9,3-4.2
					c1-1.4,2.2-2.5,3.6-3.6c2.7-2.1,5.4-1.6,7.7,0.7C567.9,482.9,567.1,494.9,561.7,498.9z"/>
			</g>
		</g>
		<g>
			<g>
				<path class="st1" d="M897,617.1c-20.9,17.1-48.2,7.1-72.2,13.2c-27,32.5-3.4,170.8-11,223.5c-1.7,6.5,0.3,22.9,0.7,38.3
					c0.3,4.4,0.4,8.7,0.2,12.6c-0.4,11.8-2.7,20.5-10.1,19.1c-1.4-5.6-2.3-11.2-2.9-16.9c-0.7-4.2-1-8.4-1.3-12.6
					c-2.4-36.8,3.1-77.6,0.5-114.2c7.8-39.1-22.2-158.3,26.7-164.1c15-1.5,30.4-0.1,45.2-2.1c24-2.5,40.8-33.3,21.9-50.6
					C853.1,526,810.2,490.1,768,453.4c-63.7-52.2-122.9-110.6-188.8-159.6c-54.5-28.8-99.5,18.2-137.1,52
					c-83.7,72.4-168.1,144-251.3,216.7c-24.2,23.9,5.9,54.8,32.7,52.6c19.3,0.8,44.1-4.8,56,14.8c12.4,77,0.8,159.6,4.7,238.3
					c-1.4,8.7,0,19,0.6,28.8c0.3,4.4,0.4,8.6,0,12.7c-0.5,5.2-1.7,10.2-4.4,14.2c-4.5,2.1-8.8-0.8-9.1-6.2v-22.3
					c-0.1-72,0-144.1,0-216c-2.2-17.5,8.4-49.1-17.6-50.9c-33.1,1.1-79.7-0.7-84.2-42.8c-2.3-36,40.3-51.8,61.3-75.1
					c37.2-32.1,74.5-64.2,111.8-96.1c52.5-37.1,132-135.5,190.2-141.6c64.4-7.2,103.8,56.8,150.7,90.5
					c72.6,62.9,145.8,125.1,218.2,188.1C924,571.9,918.3,601.8,897,617.1z"/>
			</g>
		</g>
		<g>
			<g>
				<path class="st1" d="M891.1,578.3c-13.3,7.4-30-21.3-42-27.4c-52.4-45-104.5-90.2-156.9-135.1c-57.4-36.9-124.5-154-197.9-87.4
					C418.9,393.7,343,458.5,267.5,523.7c-16.2,9.1-60.1,63-73.5,54.6c-5.2-14.7,37.4-35.9,46.6-48.6c32.4-27.9,64.9-55.9,97.5-83.9
					c31.1-26.8,62.2-53.5,93.3-80.3c33.8-24.7,63.9-70.2,108.9-70.5c67.4,5.1,105,73.3,157.6,108.6c46.5,40.3,93.3,80.3,140,120.4
					C848.5,537.8,895.5,563.4,891.1,578.3z"/>
			</g>
		</g>
		<g>
			<g>
				<g>
					<path class="st1" d="M453.5,913.4l-0.6,12.4c-1.4-0.1-4.9-0.4-10.1-0.6c-30.4-1.8-117.4-7.2-158.1-15.4
						c-5.4-1-9.9-2.2-13.5-3.3c-9.8-3.3-11.6-6.9,0-11c0.3,0,0.5-0.2,0.9-0.3c4.2,0.6,8.5,1.2,12.6,1.9
						c52.3,7.6,105.1,12.9,157.6,15.7C446.1,913.1,449.8,913.3,453.5,913.4z"/>
				</g>
			</g>
			<g>
				<g>
					<path class="st1" d="M840.5,900.3c-8.7,1.6-17.3,3.1-25.8,4.4c-4.3,0.8-8.6,1.4-13,2.1c-3.7,0.6-7.4,1.1-11.1,1.7
						c-16-0.7-94,16.6-130.7,14.9c-13.5-0.6-21.5-3.8-18.5-11.5c6.5-0.4,13-0.9,19.5-1.4c46.7-3.6,93.2-9,139.4-16.3
						c4.7-0.6,9.5-1.4,14.1-2.2c7.9-1.2,15.9-2.6,23.7-4.1L840.5,900.3z"/>
				</g>
			</g>
		</g>
		<g>
			<g>
				<path class="st9" d="M894.8,563.2C853.1,526,810.2,490.1,768,453.4c-63.7-52.2-122.9-110.6-188.8-159.6
					c-54.5-28.8-99.5,18.2-137.1,52c-83.7,72.4-168.1,144-251.3,216.7c-24.2,23.9,5.9,54.8,32.7,52.6c19.3,0.8,44.1-4.8,56,14.8
					c12.4,77,0.8,159.6,4.7,238.3c-1.4,8.7,0,19,0.6,28.8c52.3,7.6,105.1,12.9,157.6,15.7c-6.1-135.3-3.8-390.9,188.3-260.1
					c43.4,36.7,36.4,184,30.4,257.8c46.7-3.6,93.2-9,139.4-16.3c-2.4-36.8,3.1-77.6,0.5-114.2c7.8-39.1-22.2-158.3,26.7-164.1
					c15-1.5,30.4-0.1,45.2-2.1C896.9,611.3,913.7,580.5,894.8,563.2z M615.8,481.4c-12.1,53.4-72.8,78.5-82.4,82.4
					c-61.5-27.5-96.8-72.4-89.9-108.7c3.1-16.3,16.8-42.3,41.2-44.9c18.3-2,37.6,10,48.7,30c10.7-20.5,30.2-32.4,48.6-30
					c14.8,2,24,12.5,26.2,15C624.1,444.3,618,471.1,615.8,481.4z M891.1,578.3c-13.3,7.4-30-21.3-42-27.4
					c-52.4-45-104.5-90.2-156.9-135.1c-57.4-36.9-124.5-154-197.9-87.4C418.9,393.7,343,458.5,267.5,523.7
					c-16.2,9.1-60.1,63-73.5,54.6c-5.2-14.7,37.4-35.9,46.6-48.6c32.4-27.9,64.9-55.9,97.5-83.9c31.1-26.8,62.2-53.5,93.3-80.3
					c33.8-24.7,63.9-70.2,108.9-70.5c67.4,5.1,105,73.3,157.6,108.6c46.5,40.3,93.3,80.3,140,120.4
					C848.5,537.8,895.5,563.4,891.1,578.3z"/>
			</g>
		</g>
		<g>
			<g>
				<path class="st6" d="M528.7,480.3c-1,4.4-3.4,6.4-8,6.6c-3.8,0.5-9-4.2-10.3-8.2c-1.5-4.8,0.4-13.3,5.2-16.8
					c3.4-2.5,6.6-2.3,9,1.1C527.9,468.3,530,473.9,528.7,480.3z"/>
			</g>
		</g>
		<g>
			<g>
				<path class="st6" d="M561.7,498.9c-3,2.1-5.9,3.7-9.7,2.7c-3.9-1.1-6-3.9-5.9-10.4c0.1-3,2.5-6.9,5.3-10.5
					c1-1.4,2.2-2.5,3.6-3.6c2.7-2.1,5.4-1.6,7.7,0.7C567.9,482.9,567.1,495,561.7,498.9z"/>
			</g>
		</g>
		<g>
			<g>
				<path class="st6" d="M548,480.8c-2.1,3.1-4.7,5.5-8.9,5.2c-2.5-0.2-4.6-1.1-6-3.2c-1.6-2.5-2.5-5.2-2.1-8.1
					c0.4-2.5,0.6-4.9,1.1-7.3c0.9-3.8,2.6-7,6.5-8.5h0.6c2,1,4.1,1.8,5.7,3.1C549.9,465.9,551.5,475.8,548,480.8z"/>
			</g>
		</g>
		<g>
			<g>
				<path class="st6" d="M516.7,496.1c0.4,5.4-5.5,10.1-12,7.6c-4.3-1.7-7.1-4.7-8.1-9.3c-1.1-4.6-1.1-9.1,2-13.2
					c1.7-2.3,3.9-3,6.8-1.8C509.5,480.8,517.2,490.3,516.7,496.1z"/>
			</g>
		</g>
		<g>
			<g>
				<path class="st6" d="M559.9,520.2c-0.7,5.3-4.6,7.9-9.8,6.8c-3.4-0.6-6.9-1.5-10.4-2.1c-6.6-1-13,0.2-19.3,2.6
					c-1.8,0.7-3.7,1.4-5.5,1.6c-4.3,0.7-7.7-1.8-8.5-6.1c-0.2-1.5-0.2-3-0.5-4.4c0-2.8,0.4-5.5,2-7.9c0.9-1.2,2.2-2.6,3.7-3.1
					c3.2-1.2,5.5-3.3,7.3-6c1.4-2.3,2.6-4.8,3.9-7.1c4.7-7.9,14.1-7.7,18.7,0.2c1.8,3.1,3.9,6,6.9,8.2c1.2,0.9,2.7,1.8,4.2,2.1
					c3.1,0.6,5,2.6,6.3,5.3C560,513.4,560.3,516.8,559.9,520.2z"/>
			</g>
		</g>
		<g>
			<g>
				<path class="st1" d="M661.1,910.5c-0.4,4.5-0.7,8.9-1.1,12.9c-0.6,6.9-1.1,12.7-1.6,17.4c-71.6,4.9-143.1,5.4-214.5,1.6
					c-0.3-5.4-0.6-11.1-1-17.1c-0.1-3.9-0.4-8.1-0.5-12.4c-6.1-135.3-3.8-390.9,188.3-260.1C674.1,689.4,667.1,836.7,661.1,910.5z"
					/>
			</g>
		</g>
	</g>
	<g>
		<g>
			<g>
				<path class="st1" d="M226.9,455.2c-9.8-12.1-20-23.5-30.4-34.4c-11-11.1-21.7-18-32.3-20.6c-10.6-2.6-20.3-0.3-29,7
					c-5.7,4.7-9.2,10.7-10.6,17.8c-1.4,7.1-0.4,15,2.9,23.8c0.7,1.6,0.5,2.7-0.5,3.1c-1,0.5-2-0.1-3.2-1.6
					c-7.6-9.5-16.9-23.4-28-41.7c-0.7-1.2-1.8-2-3.2-2.2c-1.4-0.2-2.8,0.1-4.1,0.9c-4.8,3.5-9.9,7.6-15.5,12.3
					c-6.1,5.1-10.7,9.3-13.6,12.3c-0.9,1-1.4,2.1-1.5,3.3c-0.2,1.2,0.2,2.4,1,3.5c8.5,11.8,19.6,26.7,33.4,44.6
					c13.8,17.9,27.3,34.6,40.3,50.3c0.9,1.1,2.1,1.7,3.4,1.9c1.4,0.2,2.7-0.2,3.8-0.9c6.1-4.4,11.4-8.5,15.9-12.3
					c6.1-5.1,10.7-9.3,13.7-12.4c1-1.1,1.5-2.3,1.6-3.6c0.1-1.3-0.4-2.5-1.4-3.6c-10.4-10.7-18.3-19.2-23.7-25.6
					c-4-4.8-6.2-9.7-6.8-14.6c-0.5-4.9,1.1-8.8,4.6-11.7c3.6-3,7.7-3.8,12.4-2.5c4.6,1.3,9.1,4.4,13.3,9.1
					c3.6,4.4,10.4,13.7,20.5,28.1c0.9,1.2,2.1,1.9,3.4,2.1c1.5,0.2,2.8-0.1,3.9-0.9c4.7-3.3,9.9-7.3,15.5-12
					c5.3-4.5,9.9-8.6,13.7-12.4c0.9-1,1.4-2.1,1.6-3.4C228.2,457.6,227.8,456.4,226.9,455.2z"/>
			</g>
		</g>
		<g>
			<g>
				<path class="st1" d="M301,367.8c-2-6.6-5.7-13.2-11.2-19.7c-10.5-12.6-22.9-19.3-37.2-20.1c-14.3-0.8-27.8,4.2-40.6,14.9
					C199,353.5,191.8,366,190,380.2c-1.7,14.2,2.7,27.6,13.2,40.2c4.4,5.3,9.1,9.5,14,12.4c4.8,3,9.7,4.9,14.7,5.6
					c4.9,0.8,9.9,0.6,15.1-0.6c5.2-1.1,10.3-3.1,15.3-5.9c5-2.8,10.1-6.3,15.3-10.7c6.5-5.4,11.7-11,15.7-16.6
					c4-5.7,6.7-11.6,8.3-17.8C303.1,380.8,302.9,374.4,301,367.8z M257.1,396.8c-3.5,2.9-7.4,3.9-11.8,3.2
					c-4.4-0.8-8.5-3.5-12.2-7.9c-3.6-4.4-5.6-8.9-5.7-13.5c-0.2-4.7,1.5-8.4,4.9-11.3c3.5-2.9,7.5-3.9,12.1-2.9
					c4.5,1,8.6,3.6,12.3,8.1c3.7,4.4,5.6,8.9,5.6,13.4C262.3,390.2,260.6,393.9,257.1,396.8z"/>
			</g>
		</g>
		<g>
			<g>
				<path class="st1" d="M453.6,264.4c-0.6-0.7-2.4-2.6-5.4-5.8c-2.9-3.2-4.7-5.1-5.4-5.8c-0.6-0.7-2.2-2.4-4.6-4.9
					c-2.4-2.5-4-4.3-4.9-5.1c-0.9-0.9-2.3-2.3-4.3-4.4c-2-2-3.6-3.6-4.8-4.8c-1.2-1.1-2.7-2.5-4.4-4.2c-1.7-1.6-3.4-3.1-5-4.6
					c-10.3-9.3-19.6-14.5-28-15.5c-8.4-1-15.8,1.1-22.2,6.5c-5.3,4.4-8.3,10.3-8.8,17.6c-0.6,7.2,1,14.7,4.8,22.3
					c1,2.2,1.1,3.7,0.3,4.5c-0.9,0.8-2.3,0.4-4.3-1.1c-8.4-6.2-15.7-9.5-21.9-9.8c-6.2-0.4-12,1.7-17.3,6.2
					c-4.8,4.1-7.5,9.7-7.9,16.8c-0.4,7.1,1.2,14.8,4.9,22.9c0.6,1.4,0.8,2.4,0.6,3.2c-0.2,0.7-0.6,1-1.4,0.8
					c-0.8-0.2-1.6-0.8-2.4-1.9c-2.5-3.3-6.3-9.5-11.4-18.5c-0.7-1.4-1.8-2.1-3.1-2.3c-1.4-0.2-2.9,0.1-4.3,0.9
					c-3.6,2.4-8.8,6.4-15.5,12c-5.6,4.7-9.4,8.2-11.4,10.6c-1.9,2.3-2.1,4.6-0.6,6.9c14.3,20.9,32.4,44.5,54.4,70.7
					c0.9,1.1,2.1,1.8,3.4,2c1.4,0.2,2.6-0.1,3.7-0.8c3.6-2.4,8.4-6,14.1-10.9c6.6-5.5,11.5-9.9,14.9-13.4c1-1.1,1.6-2.3,1.6-3.7
					c0.1-1.5-0.4-2.7-1.5-3.7c-10.9-11.2-18-18.8-21.4-23c-3.6-4.5-6-8.7-7.2-12.6c-1.2-3.8-0.8-6.7,1.2-8.3c2.3-2,5.4-2.2,9-0.6
					c3.7,1.6,7.6,4.7,11.6,9.3c3.8,4.4,10.2,12.6,19.2,24.5c0.9,1.2,2.2,2,3.6,2.2c1.4,0.2,2.8-0.2,4.1-1c4.1-2.8,9.2-6.8,15.7-12.3
					c6.6-5.5,11-9.5,13.3-12.1c1-1.2,1.6-2.6,1.7-4.1c0.1-1.4-0.5-2.7-1.6-3.7c-11.5-11.7-18.8-19.4-21.8-23c-3.6-4.4-6-8.5-7-12.4
					c-1-3.8-0.5-6.6,1.5-8.3c2.3-1.9,5.3-2.1,8.9-0.5c3.6,1.6,7.6,4.8,11.9,9.6c4.3,4.9,10.6,12.9,19,24.2c0.9,1.3,2,2.1,3.4,2.2
					c1.4,0.2,2.8-0.2,4.2-0.9c3-1.9,8.2-5.9,15.6-12.2c6.6-5.5,11-9.5,13.3-12.1c1-1.2,1.5-2.5,1.6-3.9
					C455.2,266.9,454.7,265.6,453.6,264.4z"/>
			</g>
		</g>
		<g>
			<g>
				<path class="st1" d="M532.8,189.2c-4.9-5.2-10.4-10.7-16.3-16.4c-1.8-1.8-3.6-2.5-5.3-1.9c-1.7,0.5-2.5,1.9-2.4,4.1
					c-0.9,6-2.8,11.3-5.4,15.9c-2.8,4.6-6.5,9-11.5,13.1c-4.5,3.8-9.7,6.4-15.5,7.7c-5.8,1.4-10.8,1.1-15-0.8
					c-1.8-0.6-2.7-1.5-2.5-2.7c0.1-1.1,1.1-1.7,3-1.8c8.5-1.1,16.3-4.5,23.2-10.4c7.6-6.3,12.5-13.9,14.8-22.8
					c2.3-8.8,0.9-16.4-4.3-22.5c-7.3-8.7-16-12.7-26.1-12c-10.1,0.8-20.8,5.9-32.1,15.4c-12.5,10.5-19.8,22.3-21.6,35.4
					c-1.9,13.1,2.1,25.7,12.2,37.7c10.8,12.8,23,19.4,36.9,19.6c13.9,0.3,27.9-5.5,41.9-17.3c6.4-5.4,12.2-11,17.3-17
					c5.1-6,8.7-11.5,10.5-16.7C535.2,193.3,534.7,191.1,532.8,189.2z M450.8,194.8c-2.2-2.6-3-5.7-2.3-9.1c0.7-3.5,2.4-6.4,5.2-8.8
					c5.9-4.9,11.1-4.7,15.7,0.8c2,2.3,2.8,4.8,2.4,7.3c-0.4,2.5-1.8,4.7-4.2,6.8c-2.7,2.2-5.8,3.8-9.3,4.8
					C454.9,197.3,452.4,196.8,450.8,194.8z"/>
			</g>
		</g>
	</g>
	<g>
		<g>
			<g>
				<path class="st1" d="M737.8,203.9c-1-5-3.6-10.3-7.7-15.7c-4.1-5.5-9.7-11-16.8-16.6c-13.9-10.9-25.9-18.1-36-21.6
					c-2.2-0.7-4.3,0.2-6.3,2.4c-7.6,8.4-13,14.8-16.4,19.3c-1.5,1.9-1.9,3.7-1.2,5.3c0.7,1.6,2.2,2.2,4.4,1.9
					c6.1,0.4,12.3,1.8,18.9,4.3c6.4,2.5,11.7,5.3,15.6,8.4c3.8,3,6.2,5.7,7.2,8.2c1,2.4,0.9,4.4-0.3,5.9c-1.5,1.8-3.5,2.3-6.3,1.5
					c-2.7-0.9-6.8-3-12.3-6.3c-5.5-3.3-10.8-6-16-8c-5.1-2-10.2-3.3-15-3.9c-4.8-0.6-9.4-0.2-13.5,1.3c-4.2,1.5-7.7,4.1-10.5,7.6
					c-11.4,14.4-9.5,27.6,5.6,39.6c5.4,4.3,11.4,6.6,18.1,7c6.6,0.4,13.5-1.6,20.6-5.9c1.6-0.9,2.8-0.9,3.3-0.2
					c0.6,0.8,0.3,1.9-0.9,3.3c-3.3,3.5-6.5,6.7-9.5,9.5c-1.5,1.4-2.2,2.9-2,4.7c0.2,1.8,1.1,3.6,2.8,5.2c3.3,3.2,7.7,7,13.4,11.4
					c6,4.7,10.8,8.2,14.2,10.3c2.9,1.5,5.3,1,7.2-1.5c11.5-15.5,22.7-31.9,33.5-49.2c2.9-4.6,4.9-9.3,5.9-13.7
					C738.8,213.7,738.8,208.9,737.8,203.9z M685.7,223.4c-2.4,3.1-5.4,4.7-9,5c-3.6,0.4-6.4-0.3-8.5-1.9c-2.3-1.8-3.6-3.6-3.8-5.4
					c-0.3-1.8,0.4-3.8,2.1-6c2.2-2.8,5.1-4.3,8.8-4.5c3.7-0.2,6.9,0.8,9.7,3c1.7,1.3,2.5,2.9,2.6,4.6
					C687.6,220.1,687,221.8,685.7,223.4z"/>
			</g>
		</g>
		<g>
			<g>
				<path class="st1" d="M871.2,297.7c-2.1-2.3-6.5-6-13.2-11.4c-6.5-5-11.4-8.6-14.7-10.6c-1.2-0.7-2.4-1-3.8-0.8
					c-1.2,0.3-2.4,0.9-3.3,2.1c-6.7,8.9-14,17.4-21.8,25.5c-6.9,7.2-11.2,10-12.9,8.7c-1.9-1.5-0.9-6,2.7-13.7c1-2.1,3-6.1,6.1-12.1
					c3.1-5.9,5.1-9.8,6-11.7c4.6-8.8,4.3-15.2-0.7-19.2c-5-3.7-11.2-2.4-18.7,3.9c-1.9,1.6-5.4,4.5-10.4,8.8
					c-4.9,4.4-8.3,7.2-10.1,8.7c-6.6,5.6-10.8,7.7-12.7,6.3c-1.8-1.5,0.2-6.5,5.9-15.2c6.2-9.9,12.7-19,19.4-27.1
					c0.9-1.1,1.4-2.4,1.2-3.7c-0.1-1.3-0.6-2.4-1.6-3.4c-2.7-2.8-7.3-6.7-13.8-11.8c-6-4.7-10.8-8.2-14.2-10.3
					c-1.2-0.8-2.5-1-3.7-0.8c-1.1,0.3-2.1,0.9-2.9,2.1c-8.8,12.5-17.1,26-24.6,40.6c-7.6,14.6-13.7,27.9-18.4,39.9
					c-0.5,1.1-0.6,2.3-0.4,3.5c0.2,1.2,0.7,2.3,1.7,3.3c5.4,4.9,10,8.8,13.7,11.7c4.2,3.3,8.9,6.7,14.2,10.2
					c3.5,2.2,6.5,2.3,9.1,0.3c0.6-0.5,4.1-3.6,10.4-9.4c6.3-5.8,11.7-10.4,16.3-13.9c4.6-3.5,7.5-4.8,8.6-3.9
					c1.1,0.9,0.5,3.9-1.8,9.3c-2.3,5.2-5.5,11.5-9.5,18.8c-4,7.2-6.3,11.4-6.9,12.6c-1.5,3-0.7,5.9,2.3,8.7c5,4.6,9.6,8.5,13.6,11.6
					c4.3,3.3,9,6.8,14.2,10.3c2.4,1.5,4.8,1.4,7-0.3c10.5-7.5,22.1-16.7,34.5-27.5c12.5-10.8,23.7-21.8,33.7-33.2
					C873.6,302.4,873.4,300.2,871.2,297.7z"/>
			</g>
		</g>
		<g>
			<g>
				<path class="st1" d="M941.9,364.5c-1-5-3.5-10.3-7.6-15.7c-4.1-5.5-9.7-11-16.8-16.6c-13.9-10.9-25.9-18.1-36-21.6
					c-2.2-0.7-4.3,0.2-6.3,2.4c-7.6,8.4-13.1,14.8-16.4,19.3c-1.5,1.9-1.9,3.7-1.2,5.3c0.7,1.6,2.1,2.2,4.4,1.9
					c6,0.4,12.3,1.8,18.8,4.3c6.5,2.5,11.7,5.3,15.6,8.4c3.8,3,6.2,5.8,7.2,8.2c1,2.4,0.9,4.4-0.3,5.9c-1.5,1.8-3.5,2.3-6.3,1.5
					c-2.7-0.9-6.9-3-12.3-6.3c-5.5-3.3-10.8-6-16-8c-5.2-2-10.2-3.4-15-4c-4.8-0.6-9.4-0.2-13.5,1.3c-4.2,1.5-7.7,4.1-10.6,7.6
					c-11.3,14.5-9.5,27.6,5.7,39.6c5.4,4.3,11.4,6.6,18,7c6.7,0.4,13.5-1.6,20.6-5.9c1.6-0.9,2.8-0.9,3.3-0.1
					c0.6,0.8,0.3,1.9-0.9,3.3c-3.3,3.5-6.5,6.7-9.5,9.5c-1.5,1.4-2.2,2.9-2,4.7c0.2,1.8,1.1,3.6,2.8,5.2c3.3,3.2,7.7,7,13.3,11.4
					c6,4.7,10.8,8.2,14.3,10.3c2.9,1.5,5.2,0.9,7.2-1.5c11.5-15.5,22.7-31.9,33.5-49.1c3-4.7,4.9-9.3,5.9-13.8
					C942.9,374.3,942.9,369.5,941.9,364.5z M889.8,384c-2.4,3.1-5.4,4.7-9,5c-3.6,0.4-6.5-0.3-8.5-1.9c-2.3-1.8-3.6-3.6-3.8-5.4
					c-0.3-1.8,0.4-3.8,2.1-6c2.2-2.8,5.2-4.3,8.9-4.5c3.7-0.2,6.9,0.8,9.7,3c1.7,1.3,2.5,2.9,2.6,4.6
					C891.7,380.7,891.1,382.4,889.8,384z"/>
			</g>
		</g>
		<g>
			<g>
				<path class="st1" d="M1050.8,439c-3.1-3.1-7.2-6.7-12.4-10.7c-6.5-5.1-11.6-8.9-15.5-11.3c-1.4-0.7-2.7-1-3.9-0.7
					c-1.3,0.3-2.3,1-3.1,2.3c-8,12.6-14.4,22.1-19.4,28.5c-4.1,5.2-8.4,8.9-13,11.3c-4.6,2.3-8.5,2.3-11.6-0.1
					c-2.3-1.8-3.6-4.3-3.9-7.2c-0.2-2.9,0.3-6,1.7-9.1c1.4-3.2,3.3-6.3,5.9-9.6c5.5-7,14.1-15.4,25.7-25.3c1.2-1,1.8-2.2,1.7-3.6
					c-0.1-1.4-0.7-2.7-1.9-3.8c-3.3-3.2-8.1-7.3-14.6-12.3c-5.8-4.6-10.5-8-14.2-10.3c-2.3-1.4-4.6-1-6.9,1.1
					c-5.4,4.9-11.3,11-18.1,18.1c-6.7,7.1-12.3,13.4-16.7,18.8c-8.6,11.1-12.7,21.5-12.2,31.2c0.5,9.7,5.5,18.3,15,25.8
					c6,4.7,12.4,7.1,19.3,7.3c6.8,0.2,13.7-2.2,20.5-7.1c1.6-1.1,2.8-1.3,3.6-0.5c0.8,0.8,0.7,1.9-0.5,3.4l-3.6,4.6
					c-3,3.8-7.1,6.4-12.4,7.9c-5.3,1.5-10.8,1.7-16.6,0.5c-5.8-1.1-10.9-3.5-15.3-7c-4.5-3.6-8.6-7.7-12.2-12.6
					c-3.6-4.8-6.4-9.6-8.3-14.2c-0.5-2-1.5-3-3.2-3.2c-1.7-0.2-3.2,0.4-4.5,1.9c-0.8,1-3.7,4.3-8.6,10c-4.9,5.7-8.3,9.6-10,11.7
					c-0.8,0.9-1.2,1.9-1.4,3.2c-0.1,1.2,0.2,2.4,0.9,3.3c3.4,4.5,8.8,10.2,16.2,17.2c7.4,6.9,14.1,12.7,20.2,17.5
					c5.6,4.4,11.4,8.2,17.4,11.1c5.9,3,12,5.1,18,6.4c6.1,1.2,12,1.6,17.7,0.9c5.7-0.6,11.2-2.4,16.4-5.4c5.3-3,10-7,14.1-12.2
					c18.2-23.2,35.1-46.8,50.6-70.6c0.8-1.2,1.1-2.4,1-3.7C1052.4,441.2,1051.8,440,1050.8,439z"/>
			</g>
		</g>
	</g>
	<g>
		<g>
			<g>
				<path class="st1" d="M418.6,1041.7c-1.2-15.6-5.1-27.8-11.5-36.6c-6.4-8.8-15.3-13.2-26.7-13.2c-7.4,0-13.9,2.3-19.5,6.9
					c-5.7,4.5-10,11.2-13.1,20.1c-0.5,1.7-1.4,2.3-2.3,2.1c-1.1-0.3-1.6-1.4-1.5-3.3c0.3-12.2,2.1-28.8,5.4-49.9
					c0.3-1.4-0.1-2.7-1-3.7c-1-1.1-2.2-1.7-3.8-1.9c-5.9-0.4-12.5-0.5-19.7-0.5c-8,0-14,0.2-18.3,0.7c-1.3,0.2-2.4,0.7-3.3,1.6
					c-0.9,0.9-1.4,2-1.4,3.4c-1.1,14.6-2.1,33.1-3,55.7c-0.8,22.6-1.3,44-1.4,64.4c0,1.5,0.5,2.7,1.4,3.7c0.9,1,2.1,1.6,3.5,1.8
					c7.5,0.5,14.2,0.7,20.1,0.7c8,0,14.1-0.3,18.5-0.7c1.4-0.2,2.6-0.7,3.5-1.7c0.9-1,1.4-2.2,1.3-3.7c-1.1-14.8-1.7-26.4-1.7-34.8
					c0-6.2,1.4-11.4,4.2-15.5c2.8-4,6.4-6,11-6c4.7,0,8.4,2,11.1,6c2.7,4,4.2,9.1,4.3,15.5c0,5.7-0.8,17.2-2.3,34.7
					c-0.1,1.5,0.4,2.8,1.4,3.8c0.9,1,2.1,1.7,3.6,1.8c5.7,0.5,12.2,0.7,19.5,0.7c6.9,0,13.1-0.3,18.5-0.7c1.3-0.2,2.4-0.7,3.3-1.6
					c0.9-0.9,1.4-2,1.4-3.5C420.1,1072,419.7,1056.7,418.6,1041.7z"/>
			</g>
		</g>
		<g>
			<g>
				<path class="st1" d="M521.3,1006.4c-10.4-9.8-24-14.7-40.8-14.7c-16.7,0-30.3,4.9-40.7,14.7c-10.4,9.8-15.7,22.9-15.7,39.3
					c0,6.9,0.9,13.1,2.8,18.5c1.8,5.4,4.3,10,7.6,13.7c3.3,3.7,7.3,6.8,12.1,9.3c4.7,2.4,9.9,4.2,15.5,5.3
					c5.6,1.1,11.8,1.7,18.5,1.7c8.5,0,16.1-0.9,22.8-2.7c6.7-1.8,12.6-4.6,17.7-8.3c5.1-3.7,9.1-8.8,11.8-15.1
					c2.8-6.3,4.1-13.8,4.1-22.3C536.9,1029.4,531.7,1016.3,521.3,1006.4z M491.6,1057c-2.9,3.4-6.5,5.1-11.1,5.1
					c-4.5,0-8.2-1.7-11-5.1c-2.9-3.5-4.3-8.1-4.3-13.9c0-5.7,1.4-10.4,4.3-14.1c2.8-3.6,6.5-5.5,11-5.5c4.6,0,8.3,1.8,11.1,5.5
					c2.9,3.7,4.3,8.4,4.3,14.1C495.9,1048.9,494.5,1053.5,491.6,1057z"/>
			</g>
		</g>
		<g>
			<g>
				<path class="st1" d="M715.8,1078.9c-0.2-4.3-0.3-6.9-0.4-7.9c-0.1-1-0.2-3.2-0.4-6.7c-0.2-3.5-0.4-5.8-0.4-7.1
					c-0.1-1.2-0.3-3.3-0.5-6.1c-0.2-2.8-0.4-5.1-0.6-6.8c-0.2-1.7-0.4-3.7-0.7-6c-0.3-2.3-0.6-4.5-0.9-6.7
					c-1.9-13.7-5.8-23.7-11.5-29.9c-5.8-6.1-12.8-9.3-21.3-9.3c-6.9,0-12.9,2.6-18,7.8c-5.1,5.2-8.7,11.9-10.7,20.2
					c-0.6,2.4-1.6,3.6-2.7,3.6c-1.1,0.1-1.9-1.2-2.5-3.6c-2.4-10.2-5.9-17.4-10.5-21.6c-4.5-4.2-10.3-6.3-17.3-6.3
					c-6.3,0-11.9,2.7-16.8,7.8c-4.9,5.2-8.5,12.1-11,20.7c-0.4,1.4-0.9,2.3-1.6,2.8c-0.6,0.5-1.1,0.4-1.6-0.3
					c-0.5-0.7-0.7-1.7-0.7-3.1c0.2-4.1,1.2-11.2,3.1-21.4c0.4-1.5,0.1-2.8-0.9-3.8c-0.9-1-2.2-1.7-4-2c-4.3-0.5-10.9-0.7-19.5-0.7
					c-7.3,0-12.5,0.3-15.5,0.7c-2.9,0.6-4.6,2.2-4.9,4.9c-2.4,25.2-3.6,54.9-3.6,89.1c0,1.5,0.5,2.8,1.4,3.7c0.9,1,2,1.6,3.4,1.7
					c4.4,0.5,10.3,0.7,17.8,0.7c8.6,0,15.2-0.3,19.9-0.7c1.5-0.2,2.8-0.8,3.7-1.8c1-1,1.4-2.3,1.2-3.8c-1.2-15.5-1.7-26-1.6-31.3
					c0.1-5.8,1-10.5,2.5-14.3c1.6-3.7,3.6-5.6,6.2-5.6c3.1,0,5.5,1.8,7.3,5.4c1.8,3.6,2.8,8.5,3,14.6c0.2,5.8-0.2,16.2-1.1,31.1
					c-0.1,1.6,0.4,2.9,1.4,4c1,1.1,2.2,1.7,3.8,1.9c4.8,0.5,11.4,0.7,19.9,0.7c8.6,0,14.6-0.3,17.9-0.7c1.6-0.3,2.9-0.9,3.9-2
					c1-1,1.4-2.3,1.2-3.9c-1.3-16.4-1.9-26.9-1.9-31.7c0-5.7,0.8-10.3,2.5-14c1.7-3.6,3.8-5.4,6.4-5.4c3,0,5.4,1.8,7.2,5.3
					c1.8,3.6,2.7,8.6,2.9,15c0.2,6.5-0.2,16.7-1,30.8c-0.2,1.6,0.2,2.9,1.1,3.9c1,1,2.2,1.7,3.8,2c3.5,0.5,10.1,0.7,19.7,0.7
					c8.6,0,14.6-0.3,18-0.7c1.5-0.3,2.8-0.9,3.7-2c0.9-1,1.4-2.3,1.4-3.9C716.2,1085.9,716,1083.3,715.8,1078.9z"/>
			</g>
		</g>
		<g>
			<g>
				<path class="st1" d="M823.3,1056.9c-0.2-2.5-1.1-4.2-2.8-4.9c-1.6-0.7-3.2-0.2-4.5,1.6c-4.5,4-9.3,6.9-14.3,8.7
					c-5,1.8-10.8,2.7-17.2,2.7c-5.9,0-11.5-1.4-16.8-4c-5.3-2.7-8.9-6.1-10.9-10.3c-1-1.7-1.1-2.9-0.3-3.7c0.8-0.8,1.9-0.6,3.4,0.5
					c7.2,4.7,15.3,7,24.5,7c9.9,0,18.6-2.7,26-8c7.4-5.4,11.2-12,11.2-20c0-11.4-4.1-20-12.3-25.9c-8.2-5.9-19.8-8.8-34.5-8.8
					c-16.3,0-29.4,4.4-39.3,13.3c-9.9,8.8-14.9,21-14.9,36.7c0,16.7,5.2,29.6,15.7,38.8c10.4,9.1,24.8,13.7,43.2,13.7
					c8.4,0,16.4-0.7,24.2-1.9c7.8-1.3,14.1-3.3,18.8-6.1c2.1-1.5,3.1-3.5,3-6.2C824.8,1072.8,824.1,1065.1,823.3,1056.9z
					 M762.8,1023.1c2.8-2.3,6-3.4,9.7-3.4c7.7,0,11.5,3.5,11.5,10.6c0,3.1-0.9,5.5-2.9,7.2c-1.9,1.7-4.4,2.5-7.5,2.5
					c-3.5,0-6.9-0.8-10.1-2.3c-3.3-1.5-4.9-3.5-4.9-6.1C758.7,1028.2,760.1,1025.4,762.8,1023.1z"/>
			</g>
		</g>
	</g>
	<g>
		<g>
			<g>
				<path class="st6" d="M517,846.1c-0.1-0.7-0.5-1.2-1.1-1.6c-2.4-0.7-5-1-7.8-1c-4.1,0-7.1,0.7-8.8,2.3c-1.8,1.5-2.4,4-1.8,7.5
					c0.1,0.2,0,0.3-0.2,0.5c-0.2,0.1-0.3,0.2-0.6,0.2h-2.6c-0.4,0-0.8,0.2-1.1,0.5c-0.3,0.3-0.5,0.7-0.5,1.1v5.5
					c0,0.4,0.2,0.8,0.4,1c0.3,0.3,0.7,0.5,1.1,0.5h2c0.2,0,0.4,0.1,0.5,0.2c0.2,0.2,0.2,0.4,0.2,0.6c-0.2,5.4-0.4,11.4-0.4,18.1
					c0,0.4,0.2,0.8,0.4,1c0.3,0.3,0.6,0.5,1,0.5c1.5,0.2,3.5,0.2,6,0.2c2.4,0,4.2-0.1,5.5-0.2c0.4-0.1,0.7-0.2,1-0.5
					c0.3-0.3,0.4-0.6,0.3-1c0-0.7-0.1-2.2-0.3-4.7c-0.2-2.4-0.3-4.9-0.4-7.3c-0.1-2.4-0.2-4.4-0.2-5.9c0-0.4,0.1-0.6,0.3-0.9
					c0.2-0.2,0.5-0.4,0.8-0.4c0.4,0,1.2,0.1,2.4,0.2c1.1,0.1,1.8,0.2,2.1,0.2c0.4,0,0.8-0.1,1.1-0.4c0.3-0.3,0.4-0.7,0.4-1.1v-5.8
					c0-0.4-0.1-0.8-0.4-1c-0.3-0.3-0.6-0.4-1.1-0.4c-0.3,0.1-0.9,0.1-1.7,0.2c-0.8,0.1-1.4,0.1-1.8,0.1c-0.8,0-1.5-0.2-2.1-0.5
					c-0.5-0.3-0.8-0.7-0.8-1.2c0-0.6,0.2-1,0.6-1.4c0.5-0.4,1.1-0.5,2-0.5c1.5,0,2.7,0.4,3.6,1.4c0.4,0.5,0.8,0.6,1.2,0.5
					c0.5-0.1,0.7-0.5,0.7-1.1C517.2,849.7,517.1,848,517,846.1z"/>
			</g>
		</g>
		<g>
			<g>
				<path class="st6" d="M545.9,855.4c-1.4-1.2-3.1-1.8-5.2-1.8c-4.1,0-6.7,3-8.1,9.1c-0.1,0.3-0.3,0.6-0.4,0.7
					c-0.2,0.1-0.3,0.1-0.5-0.1s-0.2-0.4-0.2-0.8c0-2.1,0.3-4.3,0.7-6.8c0.1-0.4,0-0.8-0.3-1.1c-0.3-0.4-0.7-0.6-1.1-0.6
					c-1.1-0.1-2.9-0.2-5.5-0.2c-2.4,0-4,0.1-4.9,0.2c-0.4,0.1-0.7,0.2-0.9,0.5c-0.3,0.3-0.4,0.6-0.4,0.9c-0.7,7.3-1.1,16.1-1.1,26.1
					c0,0.4,0.2,0.7,0.4,1c0.3,0.3,0.6,0.4,1,0.5c2.2,0.2,4.1,0.2,5.8,0.2c3,0,4.9-0.1,5.9-0.2c0.4-0.1,0.8-0.2,1.1-0.6
					c0.3-0.4,0.4-0.7,0.4-1.2c-0.6-3.4-0.8-6.4-0.8-9.1c0-2,0.6-3.6,1.9-4.8c1.2-1.2,2.7-1.9,4.3-1.9c2.1,0,4.1,0.8,5.9,2.4
					c0.4,0.5,0.8,0.7,1.4,0.5c0.5-0.2,0.8-0.6,0.8-1.2c0.5-5.4,0.7-8.6,0.8-9.8C546.7,856.5,546.5,855.9,545.9,855.4z"/>
			</g>
		</g>
		<g>
			<g>
				<path class="st6" d="M575.9,857.9c-3.1-2.9-7-4.3-11.9-4.3c-4.9,0-8.8,1.5-11.9,4.3c-3.1,2.9-4.6,6.7-4.6,11.4
					c0,2,0.3,3.8,0.8,5.4c0.5,1.6,1.3,2.9,2.2,4c0.9,1.1,2.1,2,3.5,2.7c1.4,0.7,2.9,1.2,4.6,1.6c1.6,0.3,3.4,0.5,5.4,0.5
					c2.4,0,4.7-0.3,6.7-0.8c1.9-0.5,3.6-1.3,5.1-2.4c1.5-1.1,2.7-2.6,3.4-4.4c0.8-1.9,1.2-4,1.2-6.5
					C580.4,864.5,578.9,860.7,575.9,857.9z M567.2,872.6c-0.8,1-1.9,1.5-3.2,1.5c-1.4,0-2.4-0.5-3.2-1.5c-0.9-1-1.2-2.4-1.2-4.1
					c0-1.7,0.4-3.1,1.2-4.1c0.8-1.1,1.9-1.6,3.2-1.6c1.3,0,2.4,0.5,3.2,1.6c0.8,1,1.2,2.4,1.2,4.1
					C568.4,870.2,568,871.6,567.2,872.6z"/>
			</g>
		</g>
		<g>
			<g>
				<path class="st6" d="M632.6,879c-0.1-1.2-0.1-2-0.1-2.3c0-0.3-0.1-0.9-0.1-2c-0.1-1-0.1-1.7-0.1-2.1c-0.1-0.4-0.1-0.9-0.2-1.8
					c-0.1-0.8-0.1-1.5-0.2-2c-0.1-0.5-0.1-1.1-0.2-1.8c-0.1-0.7-0.2-1.4-0.3-2c-0.6-4-1.7-6.9-3.4-8.7c-1.7-1.8-3.7-2.7-6.2-2.7
					c-2,0-3.8,0.8-5.3,2.3c-1.5,1.5-2.5,3.5-3.1,5.9c-0.2,0.7-0.5,1.1-0.8,1.1c-0.3,0-0.6-0.4-0.7-1.1c-0.7-3-1.7-5-3.1-6.3
					c-1.3-1.2-3-1.9-5-1.9c-1.8,0-3.5,0.8-4.9,2.3c-1.4,1.5-2.5,3.5-3.2,6c-0.1,0.4-0.3,0.7-0.4,0.8c-0.2,0.2-0.4,0.1-0.5-0.1
					c-0.2-0.2-0.2-0.5-0.2-0.9c0.1-1.2,0.4-3.3,0.9-6.2c0.1-0.4,0.1-0.8-0.3-1.1c-0.3-0.3-0.6-0.5-1.1-0.6c-1.2-0.1-3.2-0.2-5.7-0.2
					c-2.1,0-3.6,0.1-4.5,0.2c-0.8,0.2-1.4,0.7-1.5,1.5c-0.7,7.3-1,16-1,26c0,0.4,0.1,0.8,0.4,1c0.3,0.3,0.6,0.5,1,0.5
					c1.3,0.2,3,0.2,5.2,0.2c2.5,0,4.5-0.1,5.8-0.2c0.5-0.1,0.8-0.2,1.1-0.5s0.4-0.7,0.4-1.1c-0.4-4.6-0.5-7.6-0.5-9.1
					c0-1.7,0.3-3.1,0.7-4.2c0.5-1.1,1.1-1.6,1.8-1.6c0.9,0,1.6,0.5,2.1,1.6c0.5,1,0.8,2.4,0.9,4.3c0,1.7-0.1,4.7-0.3,9
					c-0.1,0.5,0.1,0.9,0.4,1.2c0.3,0.3,0.6,0.5,1.1,0.5c1.4,0.2,3.4,0.2,5.8,0.2c2.5,0,4.3-0.1,5.2-0.2c0.5-0.1,0.8-0.3,1.1-0.6
					c0.3-0.3,0.4-0.7,0.4-1.1c-0.4-4.8-0.6-7.8-0.6-9.2c0-1.7,0.2-3.1,0.7-4.1c0.5-1,1.1-1.6,1.9-1.6c0.9,0,1.6,0.5,2.1,1.5
					c0.5,1,0.8,2.5,0.9,4.4c0,1.9-0.1,4.9-0.3,8.9c-0.1,0.5,0.1,0.9,0.3,1.1c0.3,0.3,0.7,0.5,1.1,0.6c1,0.2,3,0.2,5.8,0.2
					c2.5,0,4.3-0.1,5.3-0.2c0.5-0.1,0.8-0.3,1.1-0.6c0.3-0.3,0.4-0.7,0.4-1.1C632.7,881,632.7,880.3,632.6,879z"/>
			</g>
		</g>
	</g>
</g>
</svg>
