<?xml version="1.0" encoding="utf-8"?>
<!-- Generator: Adobe Illustrator 24.3.0, SVG Export Plug-In . SVG Version: 6.00 Build 0)  -->
<svg version="1.1" id="Layer_1" xmlns="http://www.w3.org/2000/svg" xmlns:xlink="http://www.w3.org/1999/xlink" x="0px" y="0px"
	 viewBox="0 0 1080 1080" style="enable-background:new 0 0 1080 1080;" xml:space="preserve">
<style type="text/css">
	.st0{fill:#00008B;}
	.st1{fill:#00008B;stroke:#00008B;stroke-width:21.1213;stroke-miterlimit:10;}
</style>
<g>
	<g>
		<path class="st0" d="M459.5,495.9c-33.6,12.4-69.1,19.9-104.9,21.7c126.4-43.8,108.9-52.6-4.1-5.6
			C301.5,541.2,482.2,510.9,459.5,495.9z"/>
		<path class="st0" d="M533.3,476.4c16.7,2.2,81.5-16.7,57.9-38.8C574.8,441.2,510.4,452.3,533.3,476.4z M577.1,450.8
			c3.2-0.8,6.3-2.3,9.5-2.7c-4.5,4.1-13.6,12.4-19.1,5.7C570.7,452.8,573.9,451.8,577.1,450.8z M561,455.8c1,2.7,3.2,5.2,6.1,6.1
			c-9.6,3.1-19.3,8.2-29.4,8.7C524.8,462.2,555.3,458.8,561,455.8z"/>
		<path class="st0" d="M728.4,438.3c-0.6,0.4-1.1,0.8-1.7,1.2l-8.7-32.8c25.7-103.4-458.9,80.4-475.6,131.6
			c-2.5,14.9,17.6,56.4,18.5,73.5c-0.5,0.1-1,0.2-1.5,0.2l53.9,203c81.5-5.6,163.1-21.9,243.1-48.6
			c80.4-26.8,156.9-63.5,228.1-109.2C772.4,609.4,742.5,488.1,728.4,438.3z M686.5,402.8c-54.2,41.7-115.7,72.7-180.4,96.3
			c-74.3,26.6-152.8,40.1-228.4,39.9C296.2,509.1,658,388.6,686.5,402.8z M270.7,560.9c148.1,2.4,306.3-49.3,429.8-141.6l8.7,32.6
			c-128.2,90.5-277,144.8-428.3,157C281.4,607.4,267.1,561.3,270.7,560.9z M512,619.9c-0.4,5.4-4.9,8.7-9.5,6.9
			c-3.4-1.3-5.4-3.4-6.9-7.7c-0.9-4.3-1.1-9.4,2.5-13.8c1.8-2.2,3.5-2.6,5.9-1.2c2.9,1.8,4.6,4.7,6.1,7.7
			C511.3,614.4,512.2,616.9,512,619.9z M513,601.3c0.8-2.9,3.1-4.1,5.9-3.4c3.8,1,6.1,3.8,7.9,7.3c2.4,4.6,2,9-0.8,13.3
			c-0.8,1.1-1.9,1.9-2.8,2.9c-3.7,1.2-6.7,0.2-8.6-3.2C511.5,612.9,511.4,607.1,513,601.3z M496.6,625.9c3.5,2,6.8,5.9,8,9.2
			c1,2.5,0.9,5.2-0.9,7.5c-2.2,2.9-5,3.4-8.1,2.8c-5-0.9-7.4-4.8-8.8-9.6c-0.9-3-0.9-6,0.4-8.9c1-2.3,2.7-3.4,4.9-2.9
			C493.7,624.5,495.2,625.1,496.6,625.9z M500.1,651.4c0.4-1.4,1.3-2.9,2.3-3.7c2.8-2.1,4.2-5.1,5.2-8.5c0.5-1.6,0.7-3.4,1-5.1
			c0.6-2.9,1.9-5.4,4.2-7.1c2.9-2.2,6-1.8,8.8-0.1c1.9,1.2,3.4,3.1,5.2,4.5c1.8,1.4,3.7,2.5,5.7,3.7c0.7,0.4,1.5,0.5,2.3,0.4
			c3.6-0.4,6,1.6,7.5,4.8c0.9,1.9,1.5,4.1,2,6.2c0.8,3.1,0,5.8-2.5,7.9c-0.9,0.4-1.8,0.8-2.7,1.2c-5.4,0.2-10.8,0.2-16,2.2
			c-3.5,1.4-6.7,3.5-9.7,5.8c-1.4,1.1-2.9,2.1-4.5,2.7c-3.3,1.2-5.7,0.1-7.3-3.3C500.1,659.3,499,655.4,500.1,651.4z M531.9,610.3
			c1.9-2.8,4.3-3.2,6.9-1.1c1.3,1,2.3,2.5,3.4,3.8c0.5,1.5,1,3,1.6,4.6c0,1.9,0.3,3.9,0,5.8c-0.6,4.4-4.4,8.6-7.9,9
			c-4.2,0.5-7.3-1.9-7.8-6.4C527.4,620.2,528.8,614.9,531.9,610.3z M316.1,748.4c150.4-17.6,300.2-65.4,431.2-152.9L761,647
			C702,687.7,314.6,868.6,316.1,748.4z"/>
	</g>
</g>
</svg>
