<svg xmlns="http://www.w3.org/2000/svg" viewBox="0 0 1080 1080"><path d="M671.48,307.565c2.61,10.76,5.18,21.519,7.791,32.277,8.8-16.188,20.688-28.846,31.339-42.279,12.158-15.328,13.736-32.554,2.34-46.746A45.446,45.446,0,0,0,696.621,238.8,184.251,184.251,0,0,1,656.8,214.535c-5.448-4.386-12.007-7.347-17.971-11.127-5.964-3.721-12.126-7.229-17.613-11.517-5.814-4.516-11.254-6.892-18.281-2.818-5.305,3.085-10.694,1.519-16.149-.433-6.286-2.231-12.665-5.33-19.1-6.458a47.685,47.685,0,0,0-5.866-1.039c-.91-.1-1.859-.185-2.869-.23-2.625-.137-4.58.026-5.145.013-30.877-.211-47.888-6.136-62.873-11.375-12.773-4.457-23.763-8.3-40.807-7.78-9.2.282-14.485,1.669-22.528,3.749-3.378.858-7.219,1.839-11.946,2.888-7.384,1.628-13.562,2.833-39.161,6.3-2.518.324-4.955.667-7.311.969l-2.4.342c-.02-.018-.06,0-.1,0q-6.8.558-13.637,1.81c-1.368.232-2.717.5-4.085.79a56.978,56.978,0,0,0-19.174,8.453c-8.438,5.581-17.021,8.018-26.916,6.01-4.9-.994-9.772-.444-12.681,3.728-10.389,14.859-25.8,23.82-39.8,34.46-9.026,6.844-18.236,13.538-26.831,20.86-15.3,13.071-17.038,33.121-5.132,49.237,4.38,5.944,7.78,12.579,12.1,18.563,5.143,7.133,10.807,13.929,16.887,21.724,3.177-14,6.01-26.519,8.824-39.033l1.615.016c-.008,3.824.9,7.925-.145,11.434-4.453,15.067-5.735,30.416-6.246,46.008-.129,3.787-2.054,7.54-2.244,11.367-.109,2.338,1.057,6.4,2.475,6.8,2.248.644,6.553-.323,7.579-2.036,2.94-4.831,5.711-10.2,6.624-15.695,3.581-21.291,7.1-42.659,9.325-64.124,2.512-24.136,8.583-46.254,25.355-64.946,6.639-7.373,11.07-16.722,16.759-25.568-.333,2.187-.156,4.753-1.159,6.679-3.3,6.378-6.316,13.1-10.718,18.686a125.637,125.637,0,0,0-19.2,34.04c-.253.7-.506,1.378-.738,2.075v.021a139.083,139.083,0,0,0-7.371,34.726c-.121,1.469-.242,2.958-.322,4.464A530.174,530.174,0,0,1,271.269,361c-1.1,6.58-5.149,12.912-8.76,18.832a9.844,9.844,0,0,1-3.468,3.1,22.065,22.065,0,0,1-4.634,1.977,3.6,3.6,0,0,1-.013.464c-.549,4.158-1.177,8.319-1.785,12.48-2.472,16.911-5.055,34.4-4.272,51.639a96.233,96.233,0,0,0,1.648,14.093c.067.444.153.886.239,1.309a98.622,98.622,0,0,0,10.937,29.2c.352.651.724,1.284,1.116,1.934q1.86,3.135,3.96,6.2c.329.459.658.919.968,1.378.432.611.864,1.2,1.336,1.8.576.8,1.192,1.587,1.809,2.389.328.42.678.86,1.027,1.279,1.436,1.8,2.954,3.552,4.552,5.288.226.266.471.514.717.78.86.916,1.761,1.869,2.7,2.8.717.742,1.473,1.484,2.25,2.209.083.1.2.208.307.3.818.781,1.656,1.561,2.494,2.323.041.037.082.056.1.076.572.531,1.185,1.083,1.778,1.578.469.418.96.836,1.449,1.253.143.134.307.249.45.4.509.379,1,.8,1.509,1.216q4.532,3.7,9.4,6.957c.509.359,1.018.7,1.547,1.022q1.986,1.332,4.03,2.55c.428.285.876.529,1.323.814,1.526.886,3.071,1.771,4.637,2.619.59.32,1.179.64,1.789.96.122.075.264.132.407.207.61.339,1.239.639,1.89.959,1.361.677,2.742,1.352,4.143,2.009.691.3,1.4.637,2.092.918,1.726.806,3.451,1.516,5.216,2.206.771.3,1.5.6,2.292.857.569.243,1.135.448,1.744.672,1.2.445,2.434.873,3.65,1.262.73.259,1.46.481,2.19.722s1.479.462,2.208.684c.73.2,1.479.425,2.208.626.649.2,1.3.369,1.945.533.2.056.425.13.648.185.567.147,1.154.292,1.741.42,1.518.384,3.037.731,4.575,1.057.466.108.932.2,1.417.308,2.165.434,4.33.81,6.493,1.146.809.124,1.618.249,2.406.334.363.054.708.106,1.072.14.627.107,1.213.176,1.839.226.525.07,1.03.121,1.536.171.848.1,1.678.19,2.525.236a1.08,1.08,0,0,0,.243.035c1.03.063,2.02.145,3.05.209l.262,0c.869.086,1.738.131,2.625.158l.361.008A11.776,11.776,0,0,0,375,563.793l1.445,1.871a17.365,17.365,0,0,0-.792,3.967c-1.8,23.717,25.9,22.167,40.757,28.844,8.665,3.895,15.861,9.581,23.38,14.33a26.893,26.893,0,0,0,21.071,9.515,25.63,25.63,0,0,0,5.713-.884c.312-.008.605.015.921,0,18.718-.875,34.186-9.875,48.739-20.943,4.165-3.167,8.3-6.183,11.231-10.619,1.531-2.312,2.449-4.809,4.294-6.867,4.037-4.5,8.735-7.289,12.357-11.685a14.866,14.866,0,0,0,9.462-2.02c3.1-2,6.493-5.295,7.19-9.1a188.578,188.578,0,0,0,19.834-3.493,131.722,131.722,0,0,0,28.039-10.853,123.851,123.851,0,0,0,14.107-8.653c2.8-1.951,5.533-4.054,8.147-6.272a118.519,118.519,0,0,0,9.979-9.387c.319-.314.617-.628.916-.96,1.431-1.526,2.822-3.09,4.131-4.692.318-.371.636-.724.934-1.075,2.7-3.32,5.274-6.794,7.665-10.417,24.408-37.145,20.348-82.74,16.786-122.974-.191-2.158-.382-4.339-.574-6.519a27.529,27.529,0,0,1-.208-6.311c.053-.483-.037-1.236.055-1.816-13.444-7.713-22.028-20.011-27.526-33.839q-1.695-4.271-3.286-8.59c1.67-9.942-1.519-19.978-8.885-26.379-.326-1.061-.669-2.118-.988-3.181q-1.587-5.338-3.093-10.676c-.466-1.6-.912-3.212-1.358-4.828a174.766,174.766,0,0,0-5.438-16.745,124.611,124.611,0,0,0-5.663-12.687c-.1-.172-.207-.382-.291-.556-.538-1-1.076-1.992-1.655-2.97a88.555,88.555,0,0,0-15.511-20.081c-4.93-4.779-7.732-11.9-10.867-18.292-1.017-2.09-.072-5.173,1.26-8.088.492.572,1.327,1.1,1.477,1.793,1.934,8.451,7.068,14.946,12.783,21.124,13.991,15.139,21.429,33.576,27.445,52.8l.128.462c1.6,5.172,3.169,10.364,4.735,15.6,3.7,12.308,7.4,24.655,11.787,36.722,4.447,12.278,11.962,23.065,22.964,30.754,3.952,2.746,8.657,4.458,13.635,6.937,1.857-7.324-.956-12.289-3.383-17.12-4.838-9.821-10.016-19.482-10.292-30.737-.089-3.493.569-7,.9-10.517C670.109,307.642,670.794,307.6,671.48,307.565Z" fill="#dca87f"/><path d="M397.53,348.511a.517.517,0,0,1-.1.116,1.01,1.01,0,0,1-.925.2,6.194,6.194,0,0,1-2.337-1.184c-5.765-3.937-17.781-16.38-34.645-15.955-21.6.512-34.368,21.639-37.225,19.305-2.939-2.432,6.969-27.209,28.219-32.988a36.994,36.994,0,0,1,20.305.474c16.881,5.232,26.431,21.725,27.063,27.974A2.917,2.917,0,0,1,397.53,348.511Z" fill="#00008b"/><path d="M610.8,347.613c-2.971,2.628-16.545-17.461-37.907-16.934-17.509.415-29.2,14.366-34.534,18.379a6.864,6.864,0,0,1-1.481.927,1.084,1.084,0,0,1-1.211,0,1.356,1.356,0,0,1-.35-.536,3.735,3.735,0,0,1-.141-1.409c.274-6.472,10.154-26,28.689-31.043a37.081,37.081,0,0,1,20.327.474C603.915,323.569,613.6,345.064,610.8,347.613Z" fill="#00008b"/><path d="M634.647,393.35c-.135.389-.332.759-.508,1.167A4.144,4.144,0,0,1,632.848,396a4.918,4.918,0,0,1-1.763.913,5.067,5.067,0,0,1-2.136.184,2.214,2.214,0,0,1-.506-.07,114.871,114.871,0,0,1-19.492,38.021,104.493,104.493,0,0,1-12.486,13.477c0,.021,0,.021-.02.021a131.069,131.069,0,0,1-51.519,55.342A143.227,143.227,0,0,1,518.278,516.1l-.02.1c-1.046.207-2.092.4-3.139.585-.214-2.334-.53-4.764-.909-7.328-.223-1.579-.468-3.237-.733-4.932-.067-.442-.134-.887-.2-1.31q-.267-1.736-.529-3.238c-.022-.1-.023-.173-.044-.269-.2-1.253-.417-2.446-.635-3.584a42.157,42.157,0,0,0-1.554-5.849,21.081,21.081,0,0,0-2.716-5.292,17.734,17.734,0,0,0-1.129-1.393c-.021-.021-.041-.058-.062-.077-.43-.476-.9-.934-1.391-1.391a19.162,19.162,0,0,0-1.51-1.254v-.019a.068.068,0,0,0-.04-.018c-.286-.228-.551-.438-.857-.645a23.993,23.993,0,0,0-2.279-1.379h-.02a.019.019,0,0,0-.02-.019,34.538,34.538,0,0,0-3.63-4.159,33.023,33.023,0,0,0-6.546-5.047,41.506,41.506,0,0,0-15.672-5.307l-1.172-.157-.244-3.048c.528.262,1.056.545,1.605.807,1.2.6,2.4,1.165,3.635,1.689,29.308,12.283,63.39,12.295,91.676-2.578,27.006-14.123,45.332-38.65,53.292-65.777-.1-.017-.142-.075-.2-.093a5.2,5.2,0,0,1-2.021-1.652c-.187-.384-.393-.747-.58-1.131a4.364,4.364,0,0,1-.157-2.586c.176-.389.332-.815.468-1.164a3.828,3.828,0,0,1,1.352-1.467,4.084,4.084,0,0,1,1.722-.933,4.814,4.814,0,0,1,2.137-.2,4.685,4.685,0,0,1,1.984.475c1.258.523,2.515.989,3.734,1.532a4.864,4.864,0,0,1,2.041,1.671,9.612,9.612,0,0,0,.6,1.093A4.586,4.586,0,0,1,634.647,393.35Z" fill="#00008b"/><path d="M496.86,474.622c-.364-.093-.728-.165-1.093-.257-.809-.181-1.6-.4-2.409-.6a.663.663,0,0,1-.284-.073c-.708-.145-1.356-.328-2.045-.511-.182-.056-.365-.112-.547-.166-.871-.26-1.722-.518-2.574-.8a2.351,2.351,0,0,1-.628-.184c-.831-.239-1.641-.519-2.452-.8a5.347,5.347,0,0,1-.547-.166c-.791-.259-1.582-.538-2.333-.816-2.412-.855-4.745-1.77-7.04-2.781-.081-.036-.182-.075-.263-.111-1.178-.506-2.356-1.05-3.513-1.594-1.26-.62-2.5-1.22-3.759-1.861v.021c-.361,1.627-.7,3.235-.982,4.86q-.227,1.219-.39,2.438a8.691,8.691,0,0,0-.128,1.007,9.116,9.116,0,0,0-.146,1.045c-.129.947-.237,1.876-.3,2.843-.036.387-.071.772-.085,1.159-.017.232-.014.464-.011.7-.052.657-.1,1.314-.134,1.97-.064,1.238-.087,2.493-.09,3.749-.013.483-.006,1,.021,1.525a4.518,4.518,0,0,0,.028.52v.117c.008.579.017,1.177.065,1.776.052.848.1,1.716.2,2.6.053.908.166,1.833.26,2.759.067.461.113.906.18,1.348.067.463.134.907.2,1.368.068.5.155,1,.243,1.523.046.367.112.752.177,1.117a2.408,2.408,0,0,0,.086.367c.087.5.195,1,.283,1.482.065.327.15.656.215.983.128.481.215.963.343,1.444.042.133.064.25.106.383a2.089,2.089,0,0,1,.067.482,1.387,1.387,0,0,1-.073.505,1.75,1.75,0,0,1-.176.445c-.826,1.577-3.665,1.982-4.179-.116-.384-1.558-.729-3.137-1.033-4.717-.152-.75-.283-1.482-.395-2.254-.02-.018,0-.019,0-.019a81.205,81.205,0,0,1-.986-8.561,86.684,86.684,0,0,1-.04-10.234c.064-1.2.168-2.416.293-3.634v-.038a87.489,87.489,0,0,1,1.784-11.128c.038-.136.056-.291.1-.428q-.753.3-1.5.6c-.482.161-.964.343-1.446.524-.281.118-.562.219-.843.32-.984.361-1.988.7-2.972,1.045q-4.67,1.569-9.426,2.757c-.06.02-.1.02-.161.04-1,.264-1.97.51-3,.737-1.529.368-3.078.68-4.627.99-.3.062-.6.125-.927.167h-.019c-1.208.229-2.416.457-3.623.668-1.229.209-2.457.4-3.665.571-.584.086-1.189.152-1.772.238-.6.067-1.189.152-1.773.217-2.378.264-4.776.492-7.155.64-1.189.093-2.4.169-3.549.2a95.433,95.433,0,0,0-.17,11.01c.084,1.736.189,3.473.354,5.21.1,1.02.19,2.043.305,3.066.2,1.56.366,3.123.589,4.683.2,1.563.406,3.123.67,4.683l.264,1.562c.088.519.176,1.04.284,1.559.258,1.175.6,2.329.915,3.484.127.385.273.788.4,1.171.211.635.4,1.309.572,1.944a16.927,16.927,0,0,1,.6,2.694l.021.039h.02c.1.287.209.557.314.844.063.173.126.366.209.539-1.271,0-2.542,0-3.813.052-.706.01-1.412.058-2.117.107-.345-.11-.689-.241-1.034-.372a145.167,145.167,0,0,1-21.866-9.663,137.534,137.534,0,0,1-54.44-53.957,115.4,115.4,0,0,1-15.711-12.565c-13.332-12.7-23.943-28.6-29.787-45.55a4,4,0,0,1-1.482.774,11.244,11.244,0,0,0-1.43.271,5.989,5.989,0,0,1-3.871-1.28,4.347,4.347,0,0,1-1.212-1.528,3.769,3.769,0,0,1-.489-1.828,3.327,3.327,0,0,1,.337-1.917,2.969,2.969,0,0,1,1.087-1.6,14.532,14.532,0,0,1,3.4-2.423,18.587,18.587,0,0,1,4.076-1.5,6.513,6.513,0,0,1,2.8-.134c.405.167.871.3,1.3.446a6.1,6.1,0,0,1,2.042,1.689,7.927,7.927,0,0,0,.579,1.075,3.68,3.68,0,0,1,.209,1.966,4.606,4.606,0,0,1-.559,1.88,3.837,3.837,0,0,1-1.293,1.351,1.784,1.784,0,0,1-.619.452,111.176,111.176,0,0,0,29.294,44.957c25.167,23.677,61.282,35.034,97.169,31.373a138.355,138.355,0,0,0,22.281-4.112q4.765-1.254,9.383-2.911c.945-.3,1.888-.644,2.832-1a.125.125,0,0,0,.08-.019c.321-.122.623-.241.923-.362a22.47,22.47,0,0,1,4.075-1.542,4.836,4.836,0,0,1,2.444.139,3.561,3.561,0,0,1,.668.223c2.092.937,4.145,2.01,6.218,3.062l.244,3.048,1.172.157a41.506,41.506,0,0,1,15.672,5.307A33.023,33.023,0,0,1,496.86,474.622Z" fill="#00008b"/><path d="M515.119,516.777c-1.006.187-2.013.355-3,.543-.041,0-.061.019-.1.02.019-.078.059-.137.078-.212.233-.6.447-1.2.661-1.826a7.579,7.579,0,0,0,.367-1.144,1.53,1.53,0,0,0,.135-.447l.057-.251a18.634,18.634,0,0,0,.631-2.538c.1-.484.188-.989.262-1.473C514.589,512.013,514.905,514.443,515.119,516.777Z" fill="#00008b"/><path d="M419.621,508.285a31.146,31.146,0,0,1-.939-3.484c-.184-1.04-.368-2.08-.531-3.121q.245,1.561.552,3.121C418.953,505.976,419.308,507.129,419.621,508.285Z" fill="#00008b"/><path d="M437.943,470.491c-2.395.478-4.851.9-7.288,1.239-.584.086-1.189.152-1.772.238.583-.086,1.188-.171,1.772-.257C433.112,471.368,435.548,470.969,437.943,470.491Z" fill="#00008b"/><path d="M467.379,463.925c-.36,1.627-.7,3.234-.994,4.86.275-1.646.592-3.251.972-4.86Z" fill="#00008b"/><path d="M466.29,497.231c-.092-.519-.162-1.02-.233-1.523-.14-.924-.259-1.81-.377-2.716C465.826,494.4,466.037,495.807,466.29,497.231Z" fill="#00008b"/><path d="M467.508,503.994a2.59,2.59,0,0,0-.014-.987l-.09-.383c.044.133.067.25.111.383a2.052,2.052,0,0,1,.071.482A1.348,1.348,0,0,1,467.508,503.994Z" fill="#00008b"/><path d="M493.078,473.688c-.7-.145-1.363-.328-2.044-.511-.191-.056-.362-.112-.554-.166C491.332,473.25,492.205,473.47,493.078,473.688Z" fill="#00008b"/><path d="M505.125,486.3a60.362,60.362,0,0,0-4.593-7.48l-.021-.006.006-.021-.021,0,0-.021-.021-.006-.021-.006c-.239-.108-.459-.212-.7-.321-.042-.011-.078-.043-.12-.054-.631-.326-1.294-.614-1.941-.877-.491-.176-.976-.373-1.494-.533a38.435,38.435,0,0,0-6.333-1.467c-.325-.042-.65-.084-.954-.12-.462-.033-.892-.1-1.38-.122a1.722,1.722,0,0,0-.331-.021.763.763,0,0,0-.22-.014c-.152-.018-.373-.032-.551-.035a4.125,4.125,0,0,0-.725-.058,2.494,2.494,0,0,0-.4-.018.575.575,0,0,0-.268,0c-.158,0-.331-.021-.489-.018-.556-.014-1.113-.029-1.654-.016-.4-.017-.8-.013-1.209-.009s-.808.008-1.2.039l-.411.025a1.051,1.051,0,0,0-.252.023c-.453.013-.905.027-1.341.067-1.347.089-2.635.216-3.894.395-.415.046-.832.092-1.232.164l-.632.1c-.484.05-.953.126-1.421.2-.449.083-.912.138-1.344.247a3.523,3.523,0,0,0-.537.08.816.816,0,0,1-.258.044,2.385,2.385,0,0,0-.258.043c-.264.064-.5.112-.739.162s-.474.1-.685.13c-.48.119-.906.207-1.354.289l-.006.021-.021-.006-.011.042c-.071.183-.127.392-.23.611-.139.433-.282.889-.432,1.364-.093.267-.171.56-.244.832-.23.611-.4,1.239-.566,1.866l-.419,1.569c-.234.88-.459,1.806-.652,2.7-.242.988-.457,1.963-.641,2.989a2.389,2.389,0,0,1,.361.074,1.212,1.212,0,0,1,.373.033c.026-.016.041.011.089,0a8.076,8.076,0,0,1,.381-1.176c.067-.251.182-.512.269-.757a4.862,4.862,0,0,1,.374-.73,3.876,3.876,0,0,1,.218-.48,1.823,1.823,0,0,0,.168-.291c.156-.25.3-.547.48-.791a8.533,8.533,0,0,1,.922-1.189A12.809,12.809,0,0,1,470,480.684a1.463,1.463,0,0,1,.318-.184,14.709,14.709,0,0,1,3.662-1.623c.284-.058.554-.143.88-.191a8.651,8.651,0,0,1,1.833-.317c.669-.068,1.357-.131,2.047-.193q2.059-.156,4.21-.154c1.03.006,2.033.027,3.046.1,1.018.049,2.041.165,3.058.3.173.024.351.027.525.051.769.138,1.524.25,2.283.43.549.125,1.078.243,1.623.389a23.553,23.553,0,0,1,6.436,2.592.079.079,0,0,1,.057.038,17.729,17.729,0,0,1,1.58,1.049c.525.387,1.044.794,1.551,1.244.476.486.936.945,1.355,1.393l.009.047a10.487,10.487,0,0,1,1.106,1.483A5.024,5.024,0,0,0,505.125,486.3Zm10,30.488c-.2-2.341-.544-4.763-.913-7.328-.227-1.585-.479-3.244-.726-4.923-.048-.237-.082-.448-.11-.679-.033-.211-.061-.443-.115-.659-.091-.585-.171-1.122-.252-1.659s-.162-1.074-.254-1.57a2.188,2.188,0,0,1-.043-.258c-.206-1.243-.424-2.444-.637-3.577-.224-1.091-.465-2.119-.7-3.1-.105-.365-.215-.708-.3-1.045-.1-.3-.185-.565-.286-.861-.079-.291-.179-.586-.264-.855a.022.022,0,0,1-.016-.027,20.853,20.853,0,0,0-2.695-5.27c-.283-.367-.566-.734-.876-1.086-.082-.111-.17-.2-.273-.319-.021,0-.031-.053-.052-.059-.428-.5-.915-.939-1.4-1.4-.472-.417-.985-.846-1.488-1.226l-.037-.033-.02,0a5.3,5.3,0,0,0-.42-.359c-.151-.107-.281-.209-.432-.316-.363-.232-.743-.491-1.112-.7a.741.741,0,0,0-.256-.135,8.487,8.487,0,0,0-.916-.514l-.021-.006.006-.021-.021,0,0-.021-.021-.006-.021-.006c-.239-.108-.459-.212-.7-.321-.042-.011-.078-.043-.12-.054-.631-.326-1.294-.614-1.941-.877-.491-.176-.976-.373-1.494-.533a38.435,38.435,0,0,0-6.333-1.467c-.325-.042-.65-.084-.954-.12-.462-.033-.892-.1-1.38-.122a1.722,1.722,0,0,0-.331-.021.763.763,0,0,0-.22-.014c-.152-.018-.373-.032-.551-.035a4.125,4.125,0,0,0-.725-.058,2.494,2.494,0,0,0-.4-.018.575.575,0,0,0-.268,0c-.158,0-.331-.021-.489-.018-.556-.014-1.113-.029-1.654-.016-.4-.017-.8-.013-1.209-.009s-.808.008-1.2.039l-.411.025a1.051,1.051,0,0,0-.252.023c-.453.013-.905.027-1.341.067-1.347.089-2.635.216-3.894.395-.415.046-.832.092-1.232.164l-.632.1c-.484.05-.953.126-1.421.2-.449.083-.912.138-1.344.247a3.523,3.523,0,0,0-.537.08.816.816,0,0,1-.258.044,2.385,2.385,0,0,0-.258.043c-.264.064-.5.112-.739.162s-.474.1-.685.13c-.48.119-.906.207-1.354.289l-.006.021-.021-.006c-.121.035-.263.065-.406.093a2.366,2.366,0,0,1-.358.084c-.291.08-.575.138-.844.223-.96.237-1.778.444-2.411.634-.291.079-.533.149-.729.209-.269.085-.491.161-.66.205l-1.008.336-.1.019-.006.021,0,.069.03.142-.006.021-.017.063.056.8,0,.089-.011.042a1.3,1.3,0,0,1-.664,1.146,1.49,1.49,0,0,1-1.893-.214c-.358-.342-.756-.7-1.176-1.054-.13-.1-.265-.183-.395-.285-.208-.145-.394-.285-.582-.424a.3.3,0,0,0-.114-.076c-.036-.031-.052-.058-.072-.064-.25-.156-.484-.286-.719-.416a.65.65,0,0,0-.177-.092l-.469-.26c-.276-.141-.531-.276-.792-.39-.2-.1-.4-.195-.6-.272a4.366,4.366,0,0,0-.533-.187c-.1-.049-.182-.072-.281-.121-.288-.1-.554-.192-.847-.27a10.317,10.317,0,0,0-1.1-.318c-.376-.1-.738-.174-1.1-.248a9.422,9.422,0,0,0-1.084-.222,8.821,8.821,0,0,0-1.074-.175,1.654,1.654,0,0,0-.346-.047,4.155,4.155,0,0,0-.514-.093,3.451,3.451,0,0,0-.5-.045c-.236-.04-.472-.081-.687-.116-.262-.025-.5-.065-.76-.09q-.849-.093-1.716-.122c-.283-.031-.572-.041-.881-.056-.316,0-.646-.016-1.009,0-.42-.022-.824-.018-1.229-.014a11.393,11.393,0,0,0-1.272.064c-.452.014-.931.043-1.368.083l-.021-.006c-.231.028-.484.051-.689.063a.523.523,0,0,0-.163.024,5.471,5.471,0,0,0-.668.068c-.211.033-.442.061-.648.074a2.176,2.176,0,0,1-.352.063c-.137.008-.253.022-.369.036-.095.019-.169.044-.263.064a.108.108,0,0,0-.074.025.961.961,0,0,0-.238.049c-.047.009-.089,0-.137.008a6.733,6.733,0,0,0-.758.156,28.27,28.27,0,0,0-2.8.644c-.021-.006-.047.01-.074.025-.85.244-1.7.508-2.524.805s-1.6.626-2.4,1c-.773.377-1.546.753-2.267,1.188a.047.047,0,0,0-.053.031l-.021-.006c-.212.123-.43.267-.648.41s-.435.287-.626.416a18.688,18.688,0,0,0-3.659,3.125l-.006.021c-.085.067-.122.124-.181.176-.16.181-.321.362-.455.529a10.3,10.3,0,0,0-1.672,2.736,2.464,2.464,0,0,0-.137.345,14.118,14.118,0,0,0-.782,2.929,16.766,16.766,0,0,0-.358,2.348c-.063.656-.116,1.359-.165,2.131a69.59,69.59,0,0,0,1.221,14.067c.4,2.034.734,4.051,1.065,6,2.93,15.981,6.17,27.942,18.165,37.421a52.767,52.767,0,0,0,32.636,11.515c.966-.011,1.975-.01,2.953-.063,17.545-.9,34.68-10.334,42.357-23.639C515.365,532.833,515.95,525.435,515.121,516.785Zm-5.052,18.669a35.888,35.888,0,0,1-1.834,3.68c-7.611,13.144-25.156,22.268-42.638,22.174a49.137,49.137,0,0,1-24.2-6.485,44.954,44.954,0,0,1-4.363-2.8c-.723-.484-1.407-1.026-2.1-1.546-.311-.263-.628-.5-.918-.761-.124-.123-.274-.23-.419-.359-.306-.282-.6-.539-.907-.8-.357-.342-.7-.657-1.035-.993a6.19,6.19,0,0,1-.544-.482c-.16-.155-.294-.325-.449-.5a39.834,39.834,0,0,1-4.869-6.366c-.189-.3-.373-.615-.557-.933a5.691,5.691,0,0,1-.4-.779c-.311-.6-.591-1.144-.891-1.785-.438-.879-.853-1.841-1.226-2.793-.238-.623-.48-1.227-.7-1.845-.191-.543-.4-1.114-.577-1.7-.265-.855-.545-1.737-.8-2.635-.393-1.382-.754-2.8-1.077-4.277-.183-.744-.338-1.5-.5-2.262-.353-1.529-.654-3.089-.96-4.717-.052-.3-.1-.611-.179-.922-.391-2.144-.776-4.4-1.2-6.755-.139-.821-.278-1.643-.382-2.432-.09-.585-.186-1.149-.24-1.7-.04-.189-.036-.368-.06-.531-.105-.7-.161-1.41-.23-2.079-.13-1.021-.177-2.019-.236-2.977-.007-.562-.04-1.109-.032-1.645a33.082,33.082,0,0,1,.277-5.149c.068-.34.125-.639.188-.958a2.617,2.617,0,0,1,.164-.7,5.5,5.5,0,0,1,.218-.817c.039-.146.093-.266.132-.412.017-.063.049-.1.066-.162l.067-.251a3.885,3.885,0,0,1,.195-.4,7.35,7.35,0,0,1,1.193-2.036,14.223,14.223,0,0,1,1.529-1.609,16.768,16.768,0,0,1,1.963-1.561,10.5,10.5,0,0,1,1.163-.743c.4-.23.768-.445,1.187-.669a25.9,25.9,0,0,1,3.089-1.327l.053-.031c.006-.021.006-.021.032-.036a2.2,2.2,0,0,1,.418-.136l.443-.15.364-.1a1.184,1.184,0,0,1,.349-.13c.027-.016.048-.011.09,0a1.892,1.892,0,0,1,.775-.218,28.516,28.516,0,0,1,3.975-.867c.237-.049.463-.055.721-.1.19-.038.369-.035.559-.075.415-.046.8-.076,1.214-.1.327-.047.69-.063,1.032-.084.588-.022,1.162-.07,1.766-.066.452-.014.919,0,1.366.006.336,0,.646.015.976.036a2.709,2.709,0,0,1,.373.033,3.439,3.439,0,0,1,.661.042,1.123,1.123,0,0,0,.283.031l.394.037c.456.055.891.1,1.3.168,3.209.408,6.788.938,9.812,3.382a8.415,8.415,0,0,1,1.2,1.127,7.808,7.808,0,0,1,.989,1.251,12.519,12.519,0,0,1,.659,1.14,9.9,9.9,0,0,1,.73,1.719c.084.269.164.559.249.829.975.125,1.945.272,2.961.409l.021,0c.734.107,1.426.2,2.166.287a2.389,2.389,0,0,1,.361.074,1.212,1.212,0,0,1,.373.033c.026-.016.041.011.089,0a8.076,8.076,0,0,1,.381-1.176c.067-.251.182-.512.269-.757a4.862,4.862,0,0,1,.374-.73,3.876,3.876,0,0,1,.218-.48,1.823,1.823,0,0,0,.168-.291c.156-.25.3-.547.48-.791a8.533,8.533,0,0,1,.922-1.189A12.809,12.809,0,0,1,470,480.684a1.463,1.463,0,0,1,.318-.184,14.709,14.709,0,0,1,3.662-1.623c.284-.058.554-.143.88-.191a8.651,8.651,0,0,1,1.833-.317c.669-.068,1.357-.131,2.047-.193q2.059-.156,4.21-.154c1.03.006,2.033.027,3.046.1,1.018.049,2.041.165,3.058.3.173.024.351.027.525.051.769.138,1.524.25,2.283.43.549.125,1.078.243,1.623.389a23.553,23.553,0,0,1,6.436,2.592.079.079,0,0,1,.057.038,17.729,17.729,0,0,1,1.58,1.049c.525.387,1.044.794,1.551,1.244.476.486.936.945,1.355,1.393l.009.047a10.487,10.487,0,0,1,1.106,1.483.112.112,0,0,1,.083.112l0,.068a1.586,1.586,0,0,1,.225.33c.016.026.037.032.031.053a12.276,12.276,0,0,1,1.421,2.822c.116.323.247.671.357,1.015a4.829,4.829,0,0,1,.16.491,40.206,40.206,0,0,1,1.252,4.885c.451,2.339.887,4.989,1.348,8.048.3,2.054.587,4.013.873,5.882.261,1.707.477,3.333.621,4.9.055.463.09.921.146,1.384l.012.205c.069.668.137,1.336.169,1.973.034.457.058.957.066,1.43.036.705.036,1.377.057,2.055-.006.357,0,.672-.006,1.029-.022.331-.027.688-.054,1.04-.012.467-.051.95-.075,1.459a37.245,37.245,0,0,1-.559,3.774c-.125.55-.239,1.147-.39,1.712A29.1,29.1,0,0,1,510.069,535.454Zm-5.984-50.466-.036-.032c-.016-.026-.031-.053-.052-.058-.541-1-1.089-1.883-1.658-2.774a38.7,38.7,0,0,0-2.328-3.289,2.7,2.7,0,0,0-.37-.458c-.631-.326-1.294-.614-1.941-.877-.491-.176-.976-.373-1.494-.533a38.435,38.435,0,0,0-6.333-1.467c-.325-.042-.65-.084-.954-.12-.462-.033-.892-.1-1.38-.122a1.722,1.722,0,0,0-.331-.021.763.763,0,0,0-.22-.014c-.152-.018-.373-.032-.551-.035a4.125,4.125,0,0,0-.725-.058,2.494,2.494,0,0,0-.4-.018.575.575,0,0,0-.268,0c-.158,0-.331-.021-.489-.018-.556-.014-1.113-.029-1.654-.016-.4-.017-.8-.013-1.209-.009s-.808.008-1.2.039l-.411.025a1.051,1.051,0,0,0-.252.023c-.453.013-.905.027-1.341.067-1.347.089-2.635.216-3.894.395-.415.046-.832.092-1.232.164l-.632.1c-.484.05-.953.126-1.421.2-.449.083-.912.138-1.344.247a3.523,3.523,0,0,0-.537.08.816.816,0,0,1-.258.044,2.385,2.385,0,0,0-.258.043c-.264.064-.5.112-.739.162s-.474.1-.685.13c-.48.119-.906.207-1.354.289l-.006.021-.021-.006-.011.042c-.071.183-.127.392-.23.611-.139.433-.282.889-.432,1.364-.093.267-.171.56-.244.832-.23.611-.4,1.239-.566,1.866l-.419,1.569c-.234.88-.459,1.806-.652,2.7-.242.988-.457,1.963-.641,2.989a2.389,2.389,0,0,1,.361.074,1.212,1.212,0,0,1,.373.033c.026-.016.041.011.089,0a8.076,8.076,0,0,1,.381-1.176c.067-.251.182-.512.269-.757a4.862,4.862,0,0,1,.374-.73,3.876,3.876,0,0,1,.218-.48,1.823,1.823,0,0,0,.168-.291c.156-.25.3-.547.48-.791a8.533,8.533,0,0,1,.922-1.189A12.809,12.809,0,0,1,470,480.684a1.463,1.463,0,0,1,.318-.184,14.709,14.709,0,0,1,3.662-1.623c.284-.058.554-.143.88-.191a8.651,8.651,0,0,1,1.833-.317c.669-.068,1.357-.131,2.047-.193q2.059-.156,4.21-.154c1.03.006,2.033.027,3.046.1,1.018.049,2.041.165,3.058.3.173.024.351.027.525.051.769.138,1.524.25,2.283.43.549.125,1.078.243,1.623.389a23.553,23.553,0,0,1,6.436,2.592.079.079,0,0,1,.057.038,17.729,17.729,0,0,1,1.58,1.049c.525.387,1.044.794,1.551,1.244.476.486.936.945,1.355,1.393C504.336,485.391,504.2,485.221,504.085,484.988Zm1.04,1.309a60.362,60.362,0,0,0-4.593-7.48l-.021-.006.006-.021-.021,0,0-.021-.021-.006-.021-.006c-.239-.108-.459-.212-.7-.321-.042-.011-.078-.043-.12-.054-.631-.326-1.294-.614-1.941-.877-.491-.176-.976-.373-1.494-.533a38.435,38.435,0,0,0-6.333-1.467c-.325-.042-.65-.084-.954-.12-.462-.033-.892-.1-1.38-.122a1.722,1.722,0,0,0-.331-.021.763.763,0,0,0-.22-.014c-.152-.018-.373-.032-.551-.035a4.125,4.125,0,0,0-.725-.058,2.494,2.494,0,0,0-.4-.018.575.575,0,0,0-.268,0c-.158,0-.331-.021-.489-.018-.556-.014-1.113-.029-1.654-.016-.4-.017-.8-.013-1.209-.009s-.808.008-1.2.039l-.411.025a1.051,1.051,0,0,0-.252.023c-.453.013-.905.027-1.341.067-1.347.089-2.635.216-3.894.395-.415.046-.832.092-1.232.164l-.632.1c-.484.05-.953.126-1.421.2-.449.083-.912.138-1.344.247a3.523,3.523,0,0,0-.537.08.816.816,0,0,1-.258.044,2.385,2.385,0,0,0-.258.043c-.264.064-.5.112-.739.162s-.474.1-.685.13c-.48.119-.906.207-1.354.289l-.006.021-.021-.006-.011.042c-.071.183-.127.392-.23.611-.139.433-.282.889-.432,1.364-.093.267-.171.56-.244.832-.23.611-.4,1.239-.566,1.866l-.419,1.569c-.234.88-.459,1.806-.652,2.7-.242.988-.457,1.963-.641,2.989a2.389,2.389,0,0,1,.361.074,1.212,1.212,0,0,1,.373.033c.026-.016.041.011.089,0a8.076,8.076,0,0,1,.381-1.176c.067-.251.182-.512.269-.757a4.862,4.862,0,0,1,.374-.73,3.876,3.876,0,0,1,.218-.48,1.823,1.823,0,0,0,.168-.291c.156-.25.3-.547.48-.791a8.533,8.533,0,0,1,.922-1.189A12.809,12.809,0,0,1,470,480.684a1.463,1.463,0,0,1,.318-.184,14.709,14.709,0,0,1,3.662-1.623c.284-.058.554-.143.88-.191a8.651,8.651,0,0,1,1.833-.317c.669-.068,1.357-.131,2.047-.193q2.059-.156,4.21-.154c1.03.006,2.033.027,3.046.1,1.018.049,2.041.165,3.058.3.173.024.351.027.525.051.769.138,1.524.25,2.283.43.549.125,1.078.243,1.623.389a23.553,23.553,0,0,1,6.436,2.592.079.079,0,0,1,.057.038,17.729,17.729,0,0,1,1.58,1.049c.525.387,1.044.794,1.551,1.244.476.486.936.945,1.355,1.393l.009.047a10.487,10.487,0,0,1,1.106,1.483A5.024,5.024,0,0,0,505.125,486.3Z" fill="#00008b"/><path d="M511.31,531.785a27.466,27.466,0,0,1-1.25,3.665,32.777,32.777,0,0,1-1.819,3.676C500.623,552.28,483.08,561.405,465.6,561.3a49.141,49.141,0,0,1-24.21-6.49q-2.211-1.281-4.362-2.786c-.7-.512-1.4-1.049-2.091-1.586-.313-.245-.626-.491-.913-.73-.131-.117-.287-.239-.419-.354l-.918-.813c-.343-.335-.692-.645-1.035-.979s-.661-.664-.979-.991a38.215,38.215,0,0,1-4.87-6.354c-.339-.55-.673-1.125-.973-1.719s-.583-1.156-.878-1.775c-.435-.9-.857-1.85-1.221-2.812-.244-.606-.489-1.211-.7-1.834-.208-.543-.408-1.109-.576-1.7-.284-.86-.561-1.744-.807-2.647-1.551-5.522-2.636-11.784-3.916-18.935-.132-.82-.264-1.639-.379-2.425-.085-.59-.178-1.156-.246-1.714a4.2,4.2,0,0,1-.048-.526c-.109-.7-.167-1.4-.233-2.063-.129-1.034-.189-2.023-.231-2.98-.01-.57-.051-1.122-.044-1.66a30.552,30.552,0,0,1,.292-5.138c.062-.334.117-.644.174-.954a3.469,3.469,0,0,1,.162-.712c.056-.31.149-.556.216-.807.04-.152.1-.272.14-.422.014-.052.052-.094.065-.145l.067-.252c.56-.581,1.1-1.167,1.631-1.754l.257-.256c1.373-1.5,2.733-2.945,4.16-4.348.384-.222.768-.443,1.176-.659a26.564,26.564,0,0,1,3.087-1.338c.153-.066.331-.127.51-.187a3.4,3.4,0,0,1,.445-.152c.122-.049.236-.072.357-.121l.439-.126a6.283,6.283,0,0,1,.789-.222,31.171,31.171,0,0,1,3.959-.861c.255-.041.475-.062.73-.1.2-.03.362-.04.558-.068.418-.05.805-.082,1.218-.108.336-.044.691-.058,1.021-.078.6-.028,1.179-.064,1.773-.066.464-.012.92,0,1.375.015.912.027,1.816.079,2.682.176.449.038.892.1,1.309.159,3.186.418,6.774.945,9.8,3.374a12.864,12.864,0,0,1,1.211,1.134,8.984,8.984,0,0,1,.987,1.263,10.241,10.241,0,0,1,.648,1.119,9.557,9.557,0,0,1,.726,1.734,93.645,93.645,0,0,0-.357,34.738,2.794,2.794,0,0,0,2.675,2.228,3.081,3.081,0,0,0,.552-.043,2.683,2.683,0,0,0,2.31-3.086,87.481,87.481,0,0,1-1.366-18.064,88.949,88.949,0,0,1,1.582-14.224,1.551,1.551,0,0,1,.367.044,1.926,1.926,0,0,1,.366.043c.032-.017.05.014.107,0a9.712,9.712,0,0,1,.367-1.173c.068-.253.192-.516.286-.762a4.01,4.01,0,0,1,.359-.742,3.9,3.9,0,0,1,.235-.477c.053-.094.105-.188.157-.282.15-.258.307-.54.482-.79a9.15,9.15,0,0,1,.911-1.19,13.375,13.375,0,0,1,3.444-3.08l.32-.185a14.669,14.669,0,0,1,3.673-1.613c.286-.058.553-.149.865-.2a11.309,11.309,0,0,1,1.842-.319c.665-.065,1.356-.123,2.047-.183,1.376-.091,2.771-.152,4.2-.149q1.539.007,3.057.088c1.013.054,2.037.165,3.055.3.183.023.341.039.524.06.778.127,1.53.246,2.292.423a26.889,26.889,0,0,1,7.632,2.794c.145.066.288.131.409.189a.1.1,0,0,1,.068.046,16.293,16.293,0,0,1,1.587,1.045,18.136,18.136,0,0,1,1.531,1.247c.493.482.942.927,1.358,1.389l.019.033a15.627,15.627,0,0,1,1.116,1.487c.025.006.069.044.074.128l.012.057a2.606,2.606,0,0,1,.21.325c.019.033.043.039.036.065a12.473,12.473,0,0,1,.962,2.472,25.963,25.963,0,0,1,1.719,5.81c.166.287.326.6.511.92.457,2.337.883,4.991,1.335,8.057.315,2.058.607,4,.887,5.886.253,1.689.467,3.313.613,4.892.133,1.225.253,2.392.324,3.545.037.469.067.964.071,1.452.034.685.042,1.362.051,2.04.012.355.008.678,0,1.026s-.023.7-.035,1.045c-.02.48-.066.955-.093,1.461a36.23,36.23,0,0,1-.548,3.772C511.588,530.642,511.458,531.229,511.31,531.785Z" fill="#ff81cb"/><path d="M416.664,489.006l-.067.252c-.013.051-.051.093-.065.145C416.566,489.276,416.624,489.157,416.664,489.006Z" fill="#ffb4e7"/><path d="M463.748,489.173c-.057.011-.075-.02-.107,0a1.926,1.926,0,0,0-.366-.043c.132.007.265.016.372.019Z" fill="#ffb4e7"/><path d="M505.586,487.128a15.627,15.627,0,0,0-1.116-1.487l-.019-.033c-.416-.462-.865-.907-1.358-1.389a18.136,18.136,0,0,0-1.531-1.247,16.293,16.293,0,0,0-1.587-1.045,11.569,11.569,0,0,1,4.019,2.965c.025.007.044.038.062.071l.019.031a12.291,12.291,0,0,1,1.056,1.309A8.106,8.106,0,0,1,505.586,487.128Z" fill="#ffb4e7"/><path d="M437.943,470.491c-1,.477-1.985.955-2.947,1.47a56.994,56.994,0,0,0-9.079,5.9,30.215,30.215,0,0,0-4.672,2.188c-.02,0-.06.02-.06.041-.44.257-.86.532-1.28.808a19.327,19.327,0,0,0-3.669,3.141,95.433,95.433,0,0,1,.17-11.01c1.15-.034,2.36-.11,3.549-.2,2.379-.148,4.777-.376,7.155-.64.584-.065,1.168-.15,1.773-.217.583-.086,1.188-.152,1.772-.238C433.092,471.389,435.548,470.969,437.943,470.491Z" fill="#00008b"/><path d="M517.37,399.218c-6.234,26.426-38.345,37.588-44.714,39.549l-1.146.344,1.716,21.952.244,3.048,1.172.157a41.506,41.506,0,0,1,15.672,5.307,33.023,33.023,0,0,1,6.546,5.047,34.538,34.538,0,0,1,3.63,4.159c-.285-.151-.569-.283-.854-.413-.63-.319-1.279-.6-1.929-.861-.487-.188-.994-.373-1.5-.54a36.393,36.393,0,0,0-6.336-1.458c-.324-.053-.647-.088-.97-.121-.445-.052-.89-.1-1.355-.136-.606-.069-1.232-.1-1.837-.129-.223-.016-.445-.034-.667-.031-.726-.027-1.433-.036-2.139-.027-.807-.007-1.594,0-2.4.052-.665.01-1.351.057-2.016.106-1.331.076-2.621.209-3.889.381-.625.067-1.249.153-1.853.258-.987.129-1.893.277-2.778.463a4.252,4.252,0,0,0-.524.084c-.181.042-.362.064-.523.1-.5.085-.966.189-1.429.292s-.905.186-1.348.288h-.04v.018c-.262.044-.523.106-.764.166-2.353.573-4,1.06-4.644,1.261l-1,.342-.1.041,0,.289.052.791v.117c.064,1.717.168,3.377.21,5.017a12.814,12.814,0,0,0-1.282-2.281,12.531,12.531,0,0,0-1.477-1.775,15.409,15.409,0,0,0-1.185-1.045c-.326-.265-.652-.493-.979-.72a1.175,1.175,0,0,0-.2-.133,12.756,12.756,0,0,0-2.135-1.168,8.159,8.159,0,0,0-1.116-.468,8.975,8.975,0,0,0-1.136-.389,7.868,7.868,0,0,0-1.114-.313c-.365-.11-.729-.183-1.093-.255q-.548-.137-1.092-.217c-.486-.089-.951-.181-1.416-.231-.364-.053-.708-.107-1.032-.159-.465-.071-.95-.123-1.435-.175-.565-.05-1.131-.1-1.717-.131l-.868-.044c-.323,0-.666-.012-1.009-.007-.828-.026-1.655-.015-2.5.035-.464.027-.927.052-1.391.1-.241.022-.483.046-.7.068a.431.431,0,0,0-.161.021c-.443.046-.866.09-1.31.154-.241.041-.483.065-.7.106a5.481,5.481,0,0,0-.584.1c-.3.044-.6.1-.906.167-.945.187-1.871.394-2.8.658a.077.077,0,0,0-.06.019c-.864.244-1.708.507-2.531.808a56.994,56.994,0,0,1,9.079-5.9c.962-.515,1.944-.993,2.947-1.47h.019a77.882,77.882,0,0,1,23.4-6.58c.463-.063.946-.109,1.41-.172h.06l1.411-.118-.345-5.98-.949-16.111-.711-.358c-10.718-6.07-29.568-19.482-35.3-41.224-1.469-5.522-3.917-14.778.924-22.2,5.613-8.556,17.823-9.843,29.631-11.049,32.4-3.4,52.218,1.152,58.826,13.516C520.173,387.38,518.362,395.092,517.37,399.218Z" fill="#00008b"/><path d="M460.382,524.457a3.081,3.081,0,0,1-.552.043,2.794,2.794,0,0,1-2.675-2.228,93.645,93.645,0,0,1,.357-34.738c.309-1.565.67-3.117,1.061-4.688l.418-1.565c.182-.681.4-1.406.609-2.08l.014-.051.007-.024a.884.884,0,0,1,.067-.253c.542-1.828,1.128-3.617,1.8-5.436a2.862,2.862,0,0,1,3.573-1.641,2.66,2.66,0,0,1,1.707,3.429c-.219.617-.444,1.259-.663,1.876l-.007.025c-.08.2-.134.4-.219.617-.147.447-.293.895-.421,1.374-.1.271-.2.541-.273.819-.218.618-.387,1.248-.555,1.879l-.417,1.563c-.236.883-.454,1.8-.664,2.687-.237.991-.443,1.963-.637,2.993l-.006.025a88.949,88.949,0,0,0-1.582,14.224,87.481,87.481,0,0,0,1.366,18.064A2.683,2.683,0,0,1,460.382,524.457Z" fill="#00008b"/><path d="M375.722,561.341c-.5,1.273-3.295.622-4.6.59q-6.472-.161-12.91-.94a142.831,142.831,0,0,1-25.448-5.467c-3.635-1.134-7.978-2.139-11.29-4.045-3.5-2.014-6.976-4.105-10.455-6.193-16.041-9.688-31.2-21.235-42.54-36.32-17.048-22.484-22.752-52.3-22.772-81.287a.957.957,0,0,1,.045-.454c.794-8.212,1.95-16.324,3.161-24.35.516-3.961,1.082-7.829,1.667-11.767l.059-.219a5.667,5.667,0,0,1-1.682-1.84,8.927,8.927,0,0,1,3.749-5.029,1.916,1.916,0,0,0,1.09,1.143c2.1.562,6.226-.349,7.195-1.943.749-1.23,1.239-1.282,1.512-1.229,1.866.371-.888,19.7-1.826,32.051-.487,6.4-2.208,29.07,3.032,49.756,1.551,6.126,8.1,29.4,27.91,48.239a67.61,67.61,0,0,0,7.51,5.916,177.228,177.228,0,0,0,23.915,14.082q9.165,4.553,18.692,8.32,5.52,2.2,11.131,4.168c4.074,1.432,8.354,2.483,12.367,4.058a20.176,20.176,0,0,1,5.531,3.4,13.68,13.68,0,0,1,2.869,3.578c.825,1.5,2.265,3.625,2.16,5.421A1.161,1.161,0,0,1,375.722,561.341Z" fill="#a86442"/><path d="M644.7,284.842c-6.184-18.319-10.407-39.193-23.222-54.267-1.986-2.336-29.1-29.911-31.707-26.645a7.278,7.278,0,0,0-.895,7.953c6.508,13.537,19.81,21.882,26.707,35.116,7.781,14.927,11.852,32.492,17.224,48.407,7.281,21.57,14.225,44.693,26.95,63.8a2.6,2.6,0,0,1,1.625.578c.734.586,1.446,1.2,2.162,1.805a40.346,40.346,0,0,0,4.139,2.373,32.741,32.741,0,0,0,7.085,2.986,25.9,25.9,0,0,0,6.862.772,13.013,13.013,0,0,0,3.82-.406c.107-.066.216-.125.323-.191C662.366,346.209,654.408,313.592,644.7,284.842Z" fill="#a86442"/><path d="M725.34,273.468c-.975-19.269-9.928-32.756-27.941-40.435a143.518,143.518,0,0,1-22.391-11.178c-18.361-11.918-36.409-24.335-54.5-36.675-4.807-3.323-9.9-4.749-15.137-1.912-7.821,4.189-14.73,1.941-22.355-.9-1.566-.6-3.118-1.168-4.706-1.682l-2.5-.733c-1.147-.239-2.4-.485-3.8-.7-2.032-.364-3.808-.681-5.711-.943-1.253-.177-2.5-.355-3.994-.573,0,0-4.639-.678-8.509-1.128-18.185-2.165-22.808-.8-36.384-3.684a189.59,189.59,0,0,1-25.008-7.506c-12.63-4.335-24.562-8.507-42.416-7.962-9.686.261-15.48,1.808-23.445,3.851-3.4.8-7.106,1.846-11.8,2.88a377.748,377.748,0,0,1-38.76,6.219c-2.357.266-5.114.517-8.055.786-4.171.343-9,.691-14.195.94l-.083-.023c-11.622,1.717-22.954,5.372-33.466,12.922-3.158,2.34-8.964,2.427-13.187,1.7-12.779-2.178-19.361-.192-26.029,10.76A66.729,66.729,0,0,1,262.549,217.3c-13.541,9.746-26.981,19.786-40.887,29.053-16.915,11.467-23.75,39.5-7.605,56.611,3.869,4.149,7.7,8.759,10.082,13.877a91.8,91.8,0,0,0,17.9,25.9c5.933,6.158,7.381,13.246,5.252,21.555a53.434,53.434,0,0,0-1.479,14.692,6.468,6.468,0,0,0,.8,3.395,5.988,5.988,0,0,0,1.766,1.951l-.061.23c-.619,4.162-1.214,8.24-1.769,12.418-1.274,8.469-2.509,17.039-3.34,25.694a.93.93,0,0,0-.04.483,184.637,184.637,0,0,0-1,26.567,105.342,105.342,0,0,0,4.223,25.158c.722,2.5,1.559,4.989,2.5,7.436a113.711,113.711,0,0,0,24.77,38.624c.775.79,1.619,1.576,2.378,2.428.731.621,1.428,1.368,2.164,1.968a23.314,23.314,0,0,0,2.082,1.946,9.057,9.057,0,0,0,.988.914,140.878,140.878,0,0,0,29.683,20.14c2.188,1.123,4.393,2.183,6.621,3.158,1.319.6,2.645,1.177,3.982,1.713.38.169.741.333,1.126.481a148.416,148.416,0,0,0,55.086,10.976,30.818,30.818,0,0,0-1.138-3.029c-.482-1.074-1.1-2.034-1.65-3.044-.716-.028-1.44-.059-2.119-.07l-.662-.042c-.447-.007-.887-.035-1.323-.084l-.083-.023a5.023,5.023,0,0,1-.566-.061l-.253.022c-.531-.029-1.04-.053-1.549-.077-.33-.021-.655-.063-.965-.078a.075.075,0,0,0-.068,0,3.466,3.466,0,0,0-.468-.013l-.314-.084c-.509-.024-1.033-.074-1.584-.109a.129.129,0,0,0-.089,0c-.263-.025-.525-.05-.814-.06-.388-.058-.74-.085-1.1-.159l-.022-.006a2.937,2.937,0,0,1-.444-.1c-.268,0-.536-.009-.82-.039-.02-.006-.068,0-.089,0l-.913-.109a4.189,4.189,0,0,0-.512-.092,5.554,5.554,0,0,0-.593-.046,4.679,4.679,0,0,1-.556-.1c-.277-.051-.582-.088-.886-.124-.3-.058-.6-.115-.9-.151-.56-.083-1.1-.159-1.635-.257-1.074-.175-2.149-.35-3.232-.571-.534-.1-1.063-.217-1.592-.336a9.463,9.463,0,0,1-1.487-.307c-1.529-.319-3.01-.647-4.517-1.049a6.831,6.831,0,0,1-.916-.178c-.3-.057-.592-.135-.864-.208l-2.6-.693c-.377-.1-.679-.226-1.035-.321a.365.365,0,0,0-.141-.06l-.293-.078c-.245-.088-.475-.149-.706-.211-.4-.106-.774-.207-1.145-.328-.377-.1-.748-.222-1.119-.344a4.232,4.232,0,0,0-.511-.181c-.183-.071-.371-.122-.554-.193-.372-.121-.743-.243-1.108-.385l-.439-.118c-.769-.227-1.542-.523-2.32-.8l-.9-.309c-.281-.12-.589-.225-.871-.345s-.563-.24-.825-.354a5.9,5.9,0,0,1-.6-.183c-.6-.2-1.133-.46-1.7-.679-.287-.1-.595-.2-.877-.323-.59-.225-1.18-.45-1.765-.7-.324-.131-.647-.263-.965-.414l.006-.022c-.225-.082-.444-.185-.663-.288-.042-.011-.078-.043-.12-.055a.189.189,0,0,1-.1-.049,1.207,1.207,0,0,1-.359-.163c-.136-.081-.261-.115-.355-.184-.261-.115-.549-.214-.809-.329-.063-.016-.1-.048-.162-.065a.285.285,0,0,0-.12-.055c-.36-.163-.7-.3-1.05-.436-.333-.179-.686-.363-1.046-.527-.339-.158-.672-.336-1.033-.5-.261-.115-.5-.245-.735-.353-.438-.207-.855-.408-1.287-.636l-.022-.006c-.651-.33-1.281-.655-1.912-.981l-.1-.028a.469.469,0,0,1-.235-.129c-.02-.006-.015-.027-.036-.033l-.021,0c-.312-.173-.609-.32-.9-.487-.27-.162-.568-.309-.859-.476-.276-.141-.553-.282-.823-.444a.761.761,0,0,1-.2-.1c-.334-.178-.661-.378-1.01-.583a2.143,2.143,0,0,1-.313-.173c-.781-.433-1.556-.887-2.332-1.34-.207-.145-.448-.254-.661-.379a7.137,7.137,0,0,1-.681-.384c-.573-.376-1.172-.738-1.743-1.115-.1-.048-.172-.112-.249-.156-.672-.426-1.316-.867-1.955-1.329-.276-.141-.547-.3-.818-.464s-.535-.345-.8-.528c-1.617-1.082-3.2-2.2-4.77-3.38-.954-.7-1.9-1.428-2.828-2.168-.072-.064-.13-.1-.2-.166-.26-.2-.54-.413-.794-.638-.275-.23-.534-.434-.788-.659-.2-.166-.41-.311-.633-.482-.2-.166-.4-.333-.612-.478l-.021,0c-.079-.044-.151-.108-.229-.151a.387.387,0,0,0-.082-.112c.006-.02-.016-.026-.016-.026-.014-.027-.036-.033-.051-.059-.109-.1-.223-.171-.312-.262-.316-.242-.642-.531-.968-.819-.021-.006-.016-.027-.037-.032a.021.021,0,0,1-.015-.027c-.145-.128-.29-.257-.429-.406-.291-.257-.587-.493-.9-.734-.291-.257-.6-.519-.886-.8a.072.072,0,0,1-.036-.032c-.021,0-.036-.032-.025-.074-.441-.364-.855-.744-1.29-1.129-.415-.379-.844-.786-1.273-1.192a.354.354,0,0,0-.1-.117c.006-.021.006-.021-.015-.026-.031-.054-.082-.112-.113-.165-.327-.289-.632-.572-.938-.856-.3-.3-.6-.587-.889-.865-.021-.006-.016-.027-.036-.032-.14-.149-.286-.278-.431-.406-.733-.779-1.462-1.489-2.118-2.224l-.02-.006a1.689,1.689,0,0,1-.258-.293,3,3,0,0,1-.259-.293c-.145-.128-.263-.272-.388-.395a3.349,3.349,0,0,0-.387-.395c-1.58-1.722-3.055-3.506-4.55-5.294a7.638,7.638,0,0,1-.525-.634c-.171-.2-.34-.405-.531-.613-.571-.8-1.162-1.61-1.754-2.418-.02,0-.02,0-.036-.032-.422-.516-.906-1.138-1.327-1.744a3.5,3.5,0,0,0-.3-.462c-.205-.324-.421-.606-.626-.929l-.021-.006c-1-1.524-1.975-3.015-2.912-4.544-.021,0-.035-.031-.052-.058-.333-.515-.661-1.051-.988-1.586-.2-.345-.4-.669-.588-.987a8.7,8.7,0,0,1-.532-.949l.006-.021q-.874-1.511-1.67-3.068c-.046-.079-.071-.154-.116-.233-.133-.26-.271-.5-.382-.752-.016-.027-.031-.053-.025-.074-.409-.737-.76-1.436-1.08-2.171-.015-.026-.024-.074-.04-.1l-.015-.026c-.26-.54-.5-1.075-.736-1.609l-.022-.006a3.732,3.732,0,0,1-.253-.56c-.087-.181-.168-.381-.233-.556-.178-.339-.31-.688-.462-1.042-.158-.334-.293-.662-.425-1.01-.425-1.01-.808-2.01-1.192-3.008-.237-.624-.489-1.274-.678-1.908-.223-.6-.429-1.168-.629-1.759-.823-2.461-1.545-4.963-2.151-7.479l0-.021c-.336-1.255-.606-2.515-.875-3.775-.036-.368-.14-.732-.165-1.143a.655.655,0,0,1-.028-.231,91.708,91.708,0,0,1-1.652-14.048c-.028-.568-.055-1.136-.062-1.7-.018-.184-.01-.384-.028-.568-.03-1.4-.055-2.817-.059-4.23.017-1.071.014-2.148.036-3.241.061-2.158.149-4.332.256-6.5q.248-4.071.617-8.107c.132-1.333.264-2.665.417-3.992.136-1.353.279-2.727.443-4.1.209-1.626.393-3.235.618-4.834q.378-3.06.822-6.1c.022-.084.018-.153.04-.236.154-1.08.319-2.2.472-3.281.226-1.6.466-3.171.691-4.77.6-4.167,1.236-8.323,1.785-12.48l.006-.021a.084.084,0,0,0,0-.069c.034-.125,0-.267.038-.393a21.837,21.837,0,0,0,4.6-1.954,13.946,13.946,0,0,0,1.993-1.418,7.36,7.36,0,0,0,1.435-1.68c.615-1.046,1.3-2.1,1.914-3.142.707-1.135,1.3-2.186,1.939-3.317.362-.6.7-1.2,1.043-1.806.173-.312.326-.63.478-.948a4.77,4.77,0,0,0,.238-.474c.066-.162.152-.318.224-.5a20.7,20.7,0,0,0,1.271-3,22.417,22.417,0,0,0,1.124-3.286,1.879,1.879,0,0,0,.131-.324l.012-.042.044-.167A4.348,4.348,0,0,0,271,362.3l.062-.23c.073-.361.147-.723.195-1.069l0-.021q1.211-7.175,2.262-14.348c.242-1.661.484-3.323.705-4.99s.441-3.334.663-5c.215-1.646.414-3.319.615-4.992.994-8.342,1.774-16.719,2.291-25.122.038-.73.1-1.475.161-2.2.024-.173.02-.33.039-.483a3.821,3.821,0,0,0,.04-.482c.012-.131.03-.283.043-.414.025-.263.05-.525.081-.808.085-1.076.2-2.167.3-3.237q.188-1.833.436-3.649c.02-.242.067-.5.107-.734.122-1.044.28-2.055.443-3.087.165-1.122.367-2.212.573-3.322.109-.576.213-1.132.322-1.707.184-1.027.41-2.043.637-3.058a128.28,128.28,0,0,1,4.488-15.973c.142-.366.28-.71.416-1.055s.253-.695.384-1.018c.171-.47.341-.94.527-1.384.3-.794.6-1.587.925-2.376,1-2.49,2.1-4.931,3.285-7.349.571-1.215,1.184-2.419,1.817-3.617.888-1.646,1.818-3.281,2.795-4.925.092-.178.211-.37.329-.563a1.479,1.479,0,0,1,.156-.25c.654-1.1,1.323-2.18,2.017-3.272,2.257-3.5,4.7-6.949,7.367-10.3a49.466,49.466,0,0,0,3.033-4.391c.474-.77.928-1.546,1.381-2.321,1.779-3.135,3.386-6.382,5.05-9.592.4-.813.808-1.6,1.225-2.407l.011-.042a6.1,6.1,0,0,0,.278-.62,10.844,10.844,0,0,0,.41-1.617c.041-.326.089-.671.136-1.018.1-1.117.131-2.251.284-3.331-.694,1.092-1.368,2.19-2.038,3.267-1.38,2.232-2.676,4.486-3.962,6.7a4.416,4.416,0,0,0-.275.442c-.572.968-1.14,1.915-1.705,2.862-.674,1.1-1.343,2.175-2.033,3.246-.507.807-1.028,1.586-1.572,2.361-.4.586-.8,1.153-1.225,1.735l-1.255,1.682c-.854,1.095-1.769,2.173-2.695,3.2a87.5,87.5,0,0,0-10.283,14l0,.021c-.951,1.629-1.854,3.249-2.721,4.9l0,.021c-.846,1.658-1.63,3.332-2.391,5.011-.049.1-.072.183-.121.282-.5,1.121-.96,2.254-1.4,3.392a2.371,2.371,0,0,0-.143.366l-.022.083q-.626,1.582-1.185,3.181a7.2,7.2,0,0,0-.314.925c-.336.919-.629,1.849-.928,2.8-.127.392-.254.784-.36,1.181-.327,1.056-.627,2.1-.918,3.185l-.061.231a165.59,165.59,0,0,0-4.465,25.371c-.284,2.659-.568,5.318-.894,7.966q-.948,8.085-2.1,16.163c-.759,5.357-1.553,10.682-2.393,16.017-.427,2.688-.848,5.355-1.289,8.017s-.862,5.329-1.326,7.985c-.42,2.667-.862,5.329-1.308,8.012-.066.409-.156.833-.247,1.257-.225.926-.47,1.847-.764,2.778-.181.512-.357,1-.56,1.508-.225.59-.487,1.238-.732,1.823-.138.344-.279.709-.437,1.049-.18.422-.355.824-.551,1.22-.042.078-.06.141-.1.2s-.061.141-.1.2c-.05.1-.125.214-.174.313-.216.39-.406.766-.644,1.151-.1.2-.209.391-.315.586-.371.675-.731,1.361-1.114,2.015-.044.076-.088.156-.133.232-.027.015-.038.057-.049.1l-.018.063a.082.082,0,0,0-.037.056.081.081,0,0,0-.037.058c-.185.354-.4.745-.627,1.088-.07.093-.14.187-.236.3a3.149,3.149,0,0,1-1.064.792,2.683,2.683,0,0,1-.445.24,8.713,8.713,0,0,1-1.552.527l-.365.105a9.578,9.578,0,0,1-1.38.214,7.2,7.2,0,0,1-2.525-.113.615.615,0,0,1-.292-.168.248.248,0,0,1-.15-.107c-.021-.006-.016-.027-.036-.033a.081.081,0,0,1-.058-.037,1.86,1.86,0,0,1-.376-.437,1.016,1.016,0,0,0-.113-.165c-.04-.1-.087-.18-.126-.28-.093-.159-.2-.345-.308-.531-.05-.147-.121-.3-.186-.475-.02-.1-.045-.169-.064-.264-.067-.174-.131-.349-.2-.523-.095-.317-.189-.634-.258-.965a6.926,6.926,0,0,1-.211-.976,8.354,8.354,0,0,1-.1-.879.075.075,0,0,1,0-.068,6.923,6.923,0,0,1-.018-.856c.012-.042,0-.069.007-.111.137-2.609,1.114-5.262,1.717-7.858.078-.293.13-.571.188-.869a16.458,16.458,0,0,0,.308-2.585c.02-.914.067-1.843.128-2.746.02-.913.055-1.8.117-2.7.041-.909.081-1.817.143-2.719.035-.888.1-1.79.158-2.693.077-1.212.154-2.425.252-3.632.012-.042.007-.109.018-.151.054-.7.1-1.386.176-2.084.058-.723.122-1.468.208-2.207.011-.042,0-.09.012-.132.158-1.684.353-3.335.574-5,.013-.131.025-.262.038-.393.2-1.6.429-3.2.7-4.811q.045-.291.088-.582c.129-.818.273-1.609.423-2.421.145-.88.311-1.755.5-2.645.165-.874.337-1.77.551-2.654.249-1.1.5-2.2.793-3.308.152-.654.3-1.309.5-1.952.243-1.078.549-2.14.86-3.222a11.011,11.011,0,0,0,.292-1.178c.052-.277.1-.555.134-.838.025-.262.056-.545.066-.835.006-.02.006-.02.011-.041,0-.268.014-.556.019-.825,0-.178,0-.357-.007-.562a4.042,4.042,0,0,0-.01-.72c-.045-1.424-.175-2.871-.262-4.306-.014-.452-.043-.931-.051-1.4-.007-.226.007-.446,0-.672l-.022-.006-1.612,0c-.7,3.11-1.4,6.24-2.119,9.365-.707,3.151-1.419,6.324-2.148,9.559C250.5,328,249,334.619,247.385,341.607l-.011.042c-1.4-1.809-2.769-3.564-4.129-5.272-.223-.261-.438-.543-.634-.819-.222-.261-.437-.543-.639-.8-.03-.053-.087-.09-.118-.143-1.118-1.352-2.168-2.709-3.24-4.071-1.411-1.767-2.8-3.527-4.144-5.3-1.365-1.777-2.692-3.521-3.982-5.322-.54-.75-1.058-1.493-1.545-2.274-.519-.743-1.026-1.528-1.513-2.309-1-1.544-1.968-3.126-2.936-4.706-.66-1.051-1.316-2.123-1.992-3.2l-1.138-1.783c-.447-.68-.9-1.338-1.345-2.018-.518-.744-1.052-1.514-1.613-2.269a43.634,43.634,0,0,1-2.442-3.7c-.742-1.252-1.388-2.523-1.987-3.8-.23-.487-.438-.968-.619-1.465a9.823,9.823,0,0,1-.423-1.1,1.2,1.2,0,0,1-.1-.228c-.3-.819-.568-1.654-.8-2.477-.119-.391-.233-.8-.327-1.208-.217-.864-.408-1.745-.557-2.615q-.132-.639-.2-1.264c0-.02-.016-.026-.011-.047-.075-.558-.128-1.111-.183-1.663-.049-.573-.1-1.146-.1-1.709a17.912,17.912,0,0,1,0-1.839c0-.178,0-.336,0-.514.022-.421.044-.84.067-1.26.024-.173.026-.352.05-.525,0-.068.018-.152.014-.22a12.44,12.44,0,0,1,.187-1.542,26.947,26.947,0,0,1,.737-3.681c.106-.4.213-.8.339-1.188a1.607,1.607,0,0,1,.138-.433,5.025,5.025,0,0,1,.353-1.072,9.077,9.077,0,0,1,.461-1.222,8.254,8.254,0,0,1,.388-.949c.038-.058.06-.141.1-.2.017-.062.06-.141.077-.2a10.5,10.5,0,0,1,.51-1.074,11.944,11.944,0,0,1,.559-1.083.5.5,0,0,1,.087-.156c.19-.376.4-.745.611-1.115q.326-.586.712-1.155c.475-.77,1.012-1.523,1.571-2.271.279-.374.552-.727.873-1.089.23-.275.466-.571.717-.84.262-.31.546-.616.829-.922.257-.289.54-.595.818-.88s.555-.569.854-.847.6-.559.9-.837.618-.553.937-.826c1.162-.99,2.344-1.975,3.526-2.96,1.006-.829,2.007-1.638,3.028-2.442,1.112-.891,2.218-1.761,3.346-2.626,1.271-.983,2.543-1.966,3.834-2.944.964-.751,1.92-1.482,2.925-2.222,1.128-.865,2.25-1.709,3.4-2.568,1.122-.844,2.271-1.7,3.392-2.547,1.148-.858,2.27-1.7,3.419-2.562,1.744-1.327,3.5-2.628,5.285-3.924,1.281-.935,2.583-1.866,3.884-2.8,1.116-.823,2.275-1.634,3.391-2.457,1.138-.817,2.274-1.634,3.4-2.478l.026-.015c.67-.494,1.319-.994,1.989-1.487.643-.478,1.313-.972,1.968-1.492,1.3-1,2.574-2,3.862-3.049.613-.531,1.245-1.057,1.885-1.6.431-.355.842-.716,1.257-1.1.351-.31.7-.62,1.061-.95s.709-.641,1.066-.971c.709-.64,1.381-1.313,2.075-1.979a73.758,73.758,0,0,0,8.663-10.2c.133-.166.247-.337.375-.483a2.535,2.535,0,0,1,.39-.456c.071-.093.135-.166.2-.239a10.1,10.1,0,0,1,.832-.763.022.022,0,0,0,.026-.015,10.32,10.32,0,0,1,1.412-.924,7.67,7.67,0,0,1,.747-.361c.328-.137.677-.268,1.02-.378s.722-.188,1.081-.271c.258-.044.5-.093.748-.115a18.614,18.614,0,0,1,3.069-.077c.461.034.9.082,1.374.142.451.076.9.151,1.373.233,1.236.24,2.462.433,3.664.552.482.039.985.084,1.474.1l.268,0,.866.03a1.215,1.215,0,0,0,.315-.006c.357.006.715.012,1.056-.009.405,0,.815-.029,1.226-.054.115-.014.2-.012.32-.027.458-.034.894-.074,1.337-.136a11.87,11.87,0,0,0,1.306-.189c.347-.042.68-.11,1.011-.178a1.013,1.013,0,0,0,.164-.024c.331-.068.664-.137,1-.226.549-.123,1.108-.287,1.662-.431q1.649-.5,3.265-1.145c1.058-.435,2.127-.912,3.191-1.457l.026-.016c.519-.264,1.044-.551,1.595-.852.5-.291,1.034-.6,1.543-.91l.053-.031c.51-.312,1-.63,1.487-.948l.053-.031c.732-.477,1.465-.953,2.219-1.425.747-.45,1.516-.9,2.279-1.319.737-.409,1.468-.8,2.22-1.178s1.5-.743,2.26-1.078c.768-.356,1.53-.69,2.307-1s1.548-.6,2.341-.877c.767-.266,1.553-.527,2.329-.746a.021.021,0,0,1,.026-.015l.022.006c.39-.12.781-.24,1.166-.339.048-.01.073-.025.121-.035.65-.163,1.3-.326,1.941-.468l.569-.117c.047-.01.116-.014.163-.024.163-.024.312-.074.455-.1.969-.19,1.9-.411,2.86-.559l.022.006c1.132-.213,2.26-.406,3.4-.571,1.1-.177,2.223-.348,3.312-.483,1.185-.155,2.343-.294,3.521-.428,1.132-.123,2.243-.253,3.369-.356l.1.028.042.012,2.374-.331q.909-.126,1.817-.255c.905-.116,1.8-.26,2.722-.371.911-.138,1.817-.255,2.743-.366.816-.119,1.626-.216,2.39-.3,1.517-.223,2.959-.42,4.333-.614,1.048-.146,2.027-.288,3-.409q1.437-.222,2.8-.4c1.769-.245,3.443-.47,4.966-.714,1.021-.131,1.98-.278,2.9-.437.443-.061.906-.117,1.353-.2,1.1-.155,2.107-.334,3.065-.481s1.828-.3,2.676-.451l.021,0c.327-.047.659-.116.964-.169.654-.094,1.264-.2,1.86-.332.279-.038.564-.1.848-.155a7.96,7.96,0,0,0,.822-.139l.021,0c.543-.1,1.059-.188,1.561-.3,2.028-.377,3.789-.759,5.623-1.166.264-.064.5-.112.744-.182.142-.029.264-.064.385-.1.785-.171,1.55-.348,2.267-.515,1.271-.311,2.469-.6,3.6-.878a.164.164,0,0,1,.094-.02c.792-.192,1.515-.38,2.237-.568.913-.227,1.8-.439,2.643-.662,1.013-.268,1.951-.511,2.891-.753,1.877-.485,3.6-.9,5.337-1.265q.648-.163,1.28-.263c1.3-.258,2.619-.489,3.973-.689a78.665,78.665,0,0,1,9.047-.723c2.875-.106,5.559-.084,8.126.041.861.05,1.695.116,2.53.182,1.028.095,2.035.184,3.031.316a2.942,2.942,0,0,1,.43.07c.871.1,1.714.211,2.548.366a3.3,3.3,0,0,1,.644.1c.45.075.922.156,1.372.232s.9.151,1.347.247l.062.017c.875.167,1.7.342,2.545.545l.209.055c1.016.227,2.041.5,3.045.769,1.088.29,2.15.6,3.206.923.314.084.649.173.957.278,1.077.332,2.154.664,3.226,1.018,1.483.486,2.983,1,4.483,1.511.224.082.454.143.7.231.763.249,1.521.519,2.3.793,1.41.511,2.847,1.007,4.326,1.514,1.535.545,3.1,1.074,4.708,1.593.68.227,1.364.432,2.049.637,3.612,1.166,7.466,2.263,11.69,3.233,3.01.736,6.192,1.407,9.609,1.96l.084.023c1.671.289,3.4.548,5.194.781l.084.022c1.8.233,3.664.463,5.589.641.982.1,1.989.194,3,.284s2.041.164,3.075.238c1.059.059,2.114.138,3.2.182l.021,0q3.252.164,6.725.249c1.161.019,2.322.037,3.53.046.069,0,.18,0,.295-.011.136-.008.316,0,.521-.018a3.666,3.666,0,0,1,.651,0,1.4,1.4,0,0,1,.341-.021,4.7,4.7,0,0,1,.542-.012c.294-.012.63-.012.967-.012.556.015,1.181.025,1.822.061l.02.006c.536.008,1,.042,1.481.081.488.018.944.073,1.385.1q.912.11,1.745.264c.561.083,1.074.175,1.588.267.493.087.943.162,1.362.274.214.035.424.091.612.141a6,6,0,0,1,.591.135,46.234,46.234,0,0,1,6.038,1.567c.7.232,1.395.485,2.09.738,1.677.6,3.363,1.257,5.029,1.9.668.268,1.315.531,1.988.777,1.316.531,2.616,1.035,3.927,1.5.716.259,1.411.511,2.117.722l.063.017q1.019.339,2.054.616c.544.145,1.067.285,1.6.383.466.1.937.182,1.393.237a14.468,14.468,0,0,0,5.958-.315l.021.006c.491-.161.96-.327,1.463-.529.233-.117.487-.228.741-.34.238-.138.5-.271.736-.408,4.508-2.608,8.348-2.547,12.078-.99.042.011.1.048.141.06.381.169.783.343,1.153.554.213.124.432.228.645.351s.453.234.662.379a10.042,10.042,0,0,1,1.149.733c.364.231.723.484,1.1.742.114.075.244.178.358.253.339.247.675.494,1.028.767,5.48,4.243,11.624,7.766,17.586,11.465,3.733,2.387,7.694,4.43,11.455,6.712l.021.006c.755.448,1.489.891,2.206,1.4a26.131,26.131,0,0,1,2.182,1.479c.723.484,1.408,1.026,2.093,1.567l.02.006c1.536,1.217,3.072,2.434,4.624,3.588,1.569,1.181,3.148,2.32,4.732,3.438.81.575,1.621,1.15,2.463,1.689.587.4,1.18.785,1.772,1.168.853.586,1.716,1.13,2.58,1.675.785.5,1.555.975,2.325,1.45,1.02.631,2.06,1.267,3.106,1.883,1.672.962,3.363,1.929,5.067,2.854.156.087.312.173.489.265,1.547.839,3.1,1.657,4.7,2.466q2.61,1.3,5.239,2.541c.9.419,1.773.833,2.676,1.231l.042.011c.536.255,1.094.516,1.647.8.3.147.615.3.927.472a.365.365,0,0,1,.141.06q.711.358,1.406.779c.256.135.5.291.761.427.639.372,1.253.761,1.867,1.149.65.42,1.28.834,1.9,1.291.171.113.337.247.509.36.035.032.077.043.113.075.546.392,1.065.8,1.578,1.228l.172.113c.642.531,1.26,1.077,1.87,1.643l.021.006a34.913,34.913,0,0,1,3.426,3.626,36.761,36.761,0,0,1,4.484,7.049c.219.439.432.9.625,1.354s.384.91.55,1.38c.172.449.338.92.483,1.384q.249.705.434,1.394c.169.628.317,1.25.459,1.894.248,1.253.428,2.512.56,3.78l-.006.021c.039.526.078,1.052.09,1.593.019.521.015,1.036.007,1.571,0,.4-.054.793-.072,1.192a.628.628,0,0,1-.008.2c-.028.777-.1,1.543-.189,2.3-.06.477-.136.927-.216,1.4-.116.686-.248,1.346-.406,2.021-.1.446-.208.864-.32,1.282-.117.44-.234.879-.373,1.313-.194.643-.388,1.286-.63,1.939-.181.512-.389,1.039-.6,1.566-.012.042-.05.1-.067.162a.271.271,0,0,1-.054.12q-.237.644-.54,1.268c-.12.282-.262.558-.408.855-.206.438-.434.871-.667,1.324-.314.589-.634,1.2-1,1.8-.157.25-.292.5-.449.754a6.28,6.28,0,0,1-.468.749c-.087.157-.194.307-.281.463-.113.172-.22.322-.307.479-.937,1.409-1.936,2.8-3.019,4.171-1.657,2.09-3.354,4.17-5.054,6.25s-3.417,4.153-5.137,6.227c-.862,1.048-1.725,2.095-2.566,3.148-1.275,1.588-2.551,3.175-3.833,4.783-.616.8-1.259,1.613-1.882,2.434q-.965,1.221-1.867,2.461c-.661.877-1.305,1.781-1.95,2.684s-1.29,1.808-1.914,2.717c-1.274,1.835-2.511,3.7-3.677,5.631q-1.8,2.849-3.451,5.871l0,.021-.011.042q-1.863-7.76-3.725-15.52-1.872-7.728-3.725-15.52c-.114-.412-.223-.845-.316-1.25,0-.021-.015-.027-.01-.048-.326.048-.668.068-1.01.09-.158,0-.321.025-.479.028a1.94,1.94,0,0,1-.493,0l-.012.042-.02.33c-.013.132-.031.284-.044.415l-.234,1.887c-.1.871-.224,1.757-.321,2.627-.147,1.306-.252,2.623-.289,3.936-.028.441-.009.872-.01,1.3.015.7.073,1.409.129,2.119.039.526.114,1.084.174,1.616.056.463.123.884.163,1.321l.015.027c.02.1.018.184.038.279.082.448.143.89.247,1.343.091.5.183.991.3,1.492,1.848,7.936,5.641,15.225,9.249,22.532.306.62.617,1.218.922,1.838.565,1.159,1.108,2.313,1.594,3.519.146.375.287.771.407,1.162a2.65,2.65,0,0,1,.155.512,4.491,4.491,0,0,1,.255.808c.079.29.158.58.217.865a15.783,15.783,0,0,1,.354,2.2,16.131,16.131,0,0,1,.067,2.35,10.266,10.266,0,0,1-.11,1.249,17.373,17.373,0,0,1-.455,2.635l-.022-.006c-1.246-.624-2.487-1.179-3.687-1.724-.594-.293-1.2-.544-1.8-.816-1.095-.517-2.174-1.007-3.223-1.533a1.045,1.045,0,0,0-.239-.109c-.97-.484-1.892-.976-2.782-1.5a3.445,3.445,0,0,1-.405-.243c-.527-.3-1.02-.631-1.494-.959l-.014-.027c-.681-.472-1.362-.945-2.026-1.481a55.89,55.89,0,0,1-7.261-6.557c-.578-.6-1.11-1.215-1.641-1.828-1.063-1.225-2.052-2.476-3-3.783-.956-1.286-1.855-2.625-2.7-3.994-.425-.674-.844-1.368-1.238-2.079-.813-1.4-1.557-2.814-2.265-4.28a.021.021,0,0,0-.014-.027c-.52-1.08-1.006-2.2-1.472-3.307-.46-1.131-.9-2.257-1.312-3.4-1.655-4.544-3.2-9.1-4.7-13.7l.006-.021c-2.463-7.651-4.778-15.353-7.114-23.061-.763-2.6-1.551-5.188-2.362-7.781-.789-2.586-1.578-5.173-2.372-7.739l-.009-.047-.1-.474c-.375-1.2-.771-2.4-1.172-3.586s-.776-2.382-1.2-3.571c-.4-1.183-.8-2.366-1.23-3.534-.463-1.289-.926-2.579-1.415-3.852s-.979-2.548-1.5-3.806c-.3-.73-.575-1.454-.9-2.169-1.016-2.49-2.148-4.967-3.339-7.392-1.089-2.219-2.231-4.407-3.468-6.575-1.216-2.163-2.511-4.28-3.906-6.356-1.371-2.092-2.841-4.143-4.4-6.106q-2.292-3-4.9-5.815c-.734-.779-1.447-1.552-2.133-2.34l-.021-.006c-1.372-1.577-2.691-3.184-3.931-4.838q-.672-.885-1.264-1.816c-.031-.053-.082-.112-.112-.165-.421-.606-.838-1.233-1.205-1.868-.527-.881-1.023-1.8-1.476-2.7-.351-.7-.677-1.413-.98-2.122-.153-.354-.3-.708-.43-1.078-.146-.376-.271-.745-.4-1.115-.16-.491-.315-1-.469-1.515-.134-.506-.262-1.034-.39-1.562a.8.8,0,0,0-.091-.248.021.021,0,0,0-.015-.026l-.139-.239a5.209,5.209,0,0,0-.987-1c-.083-.112-.175-.182-.242-.267-.267.579-.533,1.158-.758,1.748a16.2,16.2,0,0,0-.727,2.384,4.368,4.368,0,0,0-.092.513,6.044,6.044,0,0,0-.1.892.412.412,0,0,0-.023.173c0,.267.012.541.029.815a.761.761,0,0,0,.022.252l.015.027a2.432,2.432,0,0,0,.121.637,5.2,5.2,0,0,0,.259.63c.391.8.783,1.6,1.148,2.413.2.413.408.826.591,1.234.589,1.234,1.158,2.462,1.774,3.679q.611,1.239,1.238,2.416c.377.683.741,1.341,1.124,2a1.772,1.772,0,0,1,.2.345c.328.535.661,1.051,1.009,1.592.15.2.293.414.436.632.354.52.715,1.02,1.1,1.5.32.4.639.8.99,1.16a4.815,4.815,0,0,0,.48.554.021.021,0,0,0,.015.027c.243.266.491.512.74.758,1.288,1.218,2.5,2.482,3.68,3.762.279.3.578.6.852.922q2.153,2.391,4.067,4.919l.02.006a85.807,85.807,0,0,1,6.922,10.433c.184.319.362.657.541,1,.23.4.455.817.685,1.215.132.259.286.524.424.762a.617.617,0,0,0,.065.175,1.847,1.847,0,0,0,.188.387c1.092,2.039,2.083,4.12,3.021,6.231.933,2.132,1.813,4.3,2.645,6.467.424,1.1.827,2.193,1.224,3.308.256.719.513,1.437.748,2.15.207.571.408,1.163.593,1.728s.386,1.156.566,1.742c.365,1.151.73,2.3,1.063,3.49.215.707.43,1.415.618,2.137.194.7.4,1.431.6,2.132-.006.021.016.026.031.054.207.817.442,1.619.682,2.4.113.412.228.824.349,1.214s.238.782.352,1.193c.5,1.816,1,3.583,1.507,5.357.254.9.508,1.794.788,2.675.26.877.518,1.753.793,2.656.191.544.335,1.1.5,1.636.148.534.282,1.04.464,1.537.01.047.024.074.035.121,2.7,8.79,5.557,17.556,8.867,26.151a.02.02,0,0,1,.014.026l0,.021c.015.027.009.048.025.074,1.021,2.895,2.127,5.724,3.252,8.557l0,.021c.273.656.526,1.306.805,1.941s.551,1.291.836,1.9c.3.64.579,1.275.884,1.9l.916,1.858c.3.62.637,1.224.969,1.828s.664,1.208,1.016,1.818c.338.584.7,1.172,1.054,1.761.718,1.178,1.487,2.325,2.262,3.451.391.552.8,1.111,1.214,1.669.828,1.095,1.683,2.176,2.57,3.219.6.7,1.2,1.375,1.833,2.036.625.682,1.281,1.328,1.938,1.975s1.341,1.277,2.029,1.886c.581.514,1.146,1,1.758,1.479.42.358.845.7,1.3,1.018.259.2.52.408.8.6a16.544,16.544,0,0,0,1.413,1c.151.107.281.209.415.29.287.189.567.4.859.566.228.151.436.3.665.446.078.044.135.081.213.125l.021,0c.021.006.021.006.036.032l.641.373c.343.226.712.437,1.061.642l0,.021c-.018.152-.016.309-.034.462,0,.178,0,.336,0,.515-.016.309-.012.624-.03.866a4.2,4.2,0,0,0-.071.766,14.83,14.83,0,0,0,.076,3.159,3.6,3.6,0,0,0,.035.457c.074.648.153,1.274.233,1.9.164,2.151.37,4.4.553,6.492q.248,2.722.479,5.508c.321,3.672.624,7.407.921,11.162.148,1.878.276,3.75.4,5.644s.244,3.786.345,5.674.2,3.8.272,5.7c.037.951.069,1.924.1,2.9.076,1.9.108,3.8.141,5.687,0,1.928.023,3.861,0,5.784-.04,3.845-.164,7.667-.377,11.488-.234,3.816-.563,7.651-1.032,11.426-.121.954-.241,1.908-.377,2.836q-.18,1.431-.424,2.846-.514,3.192-1.156,6.349c-.132.66-.263,1.32-.415,1.974-.16.765-.345,1.544-.525,2.3-.219.906-.439,1.811-.68,2.711l-.116.439c-.207.774-.414,1.549-.642,2.317-.39,1.376-.794,2.725-1.246,4.083-.218.727-.481,1.464-.718,2.185-.221.658-.468,1.332-.731,1.979-.232.7-.478,1.374-.773,2.058-.252.695-.521,1.363-.815,2.046-.248.674-.542,1.357-.858,2.035a104.8,104.8,0,0,1-8.547,15.9c-.044.078-.1.13-.146.208-.554.816-1.135,1.647-1.71,2.458a2.421,2.421,0,0,1-.177.244l-.011.042c-.569.789-1.139,1.578-1.7,2.347-1.293,1.74-2.6,3.452-3.948,5.133a2.917,2.917,0,0,0-.386.435c-.186.2-.352.4-.545.617-.664.808-1.344,1.591-2.023,2.374-.675.761-1.375,1.538-2.081,2.336-.182.175-.39.367-.571.542-.027.016-.032.036-.058.052-.123.124-.241.227-.364.351-.56.59-1.121,1.18-1.7,1.765-.587.605-1.2,1.205-1.8,1.783-.033.037-.064.073-.1.109a.482.482,0,0,1-.149.14c-.576.563-1.147,1.106-1.739,1.643-.064.072-.149.139-.213.212-1.392,1.265-2.8,2.5-4.214,3.694-1.971,1.671-4.019,3.3-6.108,4.825-.691.489-1.408.992-2.1,1.48q-1.667,1.2-3.378,2.326-1.721,1.155-3.488,2.23c-1.156.722-2.354,1.434-3.563,2.1q-1.789,1.035-3.625,1.991l-.021,0c-2.2,1.184-4.439,2.267-6.709,3.3q-1.722.785-3.427,1.506c-1.058.435-2.116.87-3.189,1.279-.127.055-.248.09-.375.146-.048.009-.1.04-.148.05-.127.056-.249.091-.376.146-.978.389-1.944.736-2.932,1.078q-1.681.627-3.407,1.175a4.051,4.051,0,0,1-.438.13c-1.131.37-2.256.72-3.369,1.028q-1.829.554-3.642,1.045c-4.79,1.136-9.455,1.993-13.735,2.655a9.272,9.272,0,0,1-2.914,3.38c-1.921,1.377-3.841,2.752-5.774,4.106,27.723-2.463,53.329-12.524,73.855-28.891a92.184,92.184,0,0,0,7.3-6.277,109.215,109.215,0,0,0,9.208-9.468,6.634,6.634,0,0,0,.807-.838c1.386-1.581,2.629-3.131,3.952-4.729l.769-1.117c1.195-1.452,2.35-3,3.42-4.579.715-1,1.4-2.047,2.056-3.082.533-.822,1.06-1.623,1.573-2.45C685.071,466.954,681,421.258,677.4,380.911c-.274-3.256-.566-6.36-.862-9.533a5.188,5.188,0,0,0-.405-1.588c3.685,1.814,7.662,3.122,10.252.137s.678-9.928.75-15.065c.043-5.033-1.059-10.393.328-15,1.525-5.377,4.892-10.35,8.181-15.031,7.321-10.039,15.208-19.68,22.5-29.635C722.884,288.8,725.755,281.738,725.34,273.468Z" fill="#00008b"/><path d="M320.981,546.3c-.261-.115-.548-.214-.809-.329.234.13.522.23.782.344a1.372,1.372,0,0,0,.381.169C321.2,546.407,321.074,546.373,320.981,546.3Z" fill="#00008b"/><path d="M312.805,542.417l-.062-.016a.126.126,0,0,1,.078.043c.609.32,1.245.624,1.9.955C314.066,543.068,313.435,542.743,312.805,542.417Z" fill="#00008b"/><path d="M310.649,541.259c-.276-.141-.553-.282-.823-.444.27.162.52.318.8.459.3.147.589.314.886.461C311.237,541.573,310.94,541.426,310.649,541.259Z" fill="#00008b"/><path d="M320.981,546.3c-.261-.115-.548-.214-.809-.329.234.13.522.23.782.344a1.372,1.372,0,0,0,.381.169C321.2,546.407,321.074,546.373,320.981,546.3Z" fill="#00008b"/><path d="M312.743,542.4a.126.126,0,0,1,.078.043c.609.32,1.245.624,1.9.955-.652-.331-1.283-.656-1.913-.982Z" fill="#00008b"/><path d="M309.826,540.815c.27.162.52.318.8.459.3.147.589.314.886.461-.271-.162-.568-.309-.859-.476C310.373,541.118,310.1,540.977,309.826,540.815Z" fill="#00008b"/><path d="M310.649,541.259c-.276-.141-.553-.282-.823-.444.27.162.52.318.8.459.3.147.589.314.886.461C311.237,541.573,310.94,541.426,310.649,541.259Z" fill="#00008b"/><path d="M312.805,542.417l-.062-.016a.126.126,0,0,1,.078.043c.609.32,1.245.624,1.9.955C314.066,543.068,313.435,542.743,312.805,542.417Z" fill="#00008b"/><path d="M320.981,546.3c-.261-.115-.548-.214-.809-.329.234.13.522.23.782.344a1.372,1.372,0,0,0,.381.169C321.2,546.407,321.074,546.373,320.981,546.3Z" fill="#00008b"/><path d="M310.649,541.259c-.276-.141-.553-.282-.823-.444.27.162.52.318.8.459.3.147.589.314.886.461C311.237,541.573,310.94,541.426,310.649,541.259Z" fill="#00008b"/><path d="M312.805,542.417l-.062-.016a.126.126,0,0,1,.078.043c.609.32,1.245.624,1.9.955C314.066,543.068,313.435,542.743,312.805,542.417Z" fill="#00008b"/><path d="M320.981,546.3c-.261-.115-.548-.214-.809-.329.234.13.522.23.782.344a1.372,1.372,0,0,0,.381.169C321.2,546.407,321.074,546.373,320.981,546.3Z" fill="#00008b"/><path d="M708.22,733.638c-.154,2.6-.394,5.185-.7,7.767-5.4,45.616-32.971,89.176-63.819,121.6-37.674,39.578-84.843,67.67-131.729,94.842-26.166,15.162-42.487,22.863-63.447,21.879-23.759-1.116-40.584-12.755-72.2-37.193-56.009-43.276-83.925-65-96.264-78.762-24.417-27.217-50.8-56.621-65.438-91.451-8.161-19.428-12.668-40.541-11.136-63.885,3.063-46.469,30.3-105.781,89.7-131.269,76.333-32.752,151.354,21.069,164.086,30.63,3.173,2.384,5.973,4.66,8.358,6.672a1.312,1.312,0,0,0,.175.175c.328.263.634.547.941.81,30.345-32.1,69.179-50.32,107.575-48.132C651.074,571.7,712.9,658.29,708.22,733.638Z" fill="#ffb4e7"/><path d="M707.52,741.405c-5.4,45.616-32.971,89.176-63.819,121.6-37.674,39.578-84.843,67.67-131.729,94.842-26.166,15.162-42.487,22.863-63.447,21.879-23.759-1.116-40.584-12.755-72.2-37.193-56.009-43.276-83.925-65-96.264-78.762-24.417-27.217-50.8-56.621-65.438-91.451,39.578,45.31,116.939,149.341,222.961,154.9C541.9,932.686,635.453,840.82,707.52,741.405Z" fill="#ff81cb"/><path d="M665.926,613.34c-25.916-29.2-58.4-46.319-91.477-48.205-37.483-2.144-76.685,15.081-107.837,47.3-2.726-2.289-5.354-4.381-8.022-6.386-20.323-15.261-92.378-62.594-166.263-30.891-62.473,26.808-88.077,88.474-91.022,133.137-1.449,22.1,2.248,43.318,11.3,64.875,14.775,35.159,41.886,65.379,65.826,92.064,12.376,13.8,40.074,35.392,96.556,79.032,32.751,25.317,49.594,36.529,73.433,37.648,1.274.06,2.528.09,3.771.09,19.1,0,34.746-7.121,60.875-22.261,50.731-29.4,95.7-56.861,132.217-95.227,21.266-22.352,57.913-68.035,64.406-122.849.329-2.77.562-5.352.712-7.9C712.958,692.616,696.331,647.6,665.926,613.34ZM706.037,733.5v.006c-.146,2.456-.371,4.955-.69,7.638C699,794.7,663.008,839.537,642.116,861.5,606,899.441,561.309,926.724,510.875,955.953c-27.056,15.678-42.466,22.516-62.247,21.586-22.694-1.065-38.267-11.465-70.964-36.739-56.268-43.476-83.853-64.975-95.995-78.516-24.845-27.694-50.537-56.332-65.028-90.812-8.785-20.918-12.373-41.491-10.969-62.893,2.862-43.429,27.726-103.377,88.381-129.4a127.741,127.741,0,0,1,50.821-10.347c51.808,0,96.014,29.4,111.088,40.715,2.564,1.927,5.1,3.953,7.722,6.151a204.573,204.573,0,0,0-31.568,50.078l26.429-38.4c3.141-3.594,6.4-7.078,9.792-10.417l0,0C498.833,584.7,537.418,567.4,574.2,569.5c31.9,1.819,63.315,18.418,88.453,46.741C692.305,649.652,708.523,693.487,706.037,733.5Z" fill="#00008b"/><path d="M383.419,632.768c-.158.844-.334,1.688-.527,2.514-3.043,13.575-9.39,27.414-21.418,34.43-10.515,6.137-23.721,5.943-35.485,2.726-11.746-3.218-22.525-9.179-33.6-14.226-13.593-6.19-28.1-11.148-43.029-11.254-11.166-.07-22.666,2.866-31.775,9.161,2.568-40.25,23.124-79.181,55.285-103.623,10.445-7.931,22.3-14.507,35.239-16.635,24.143-3.974,49.359,8.827,63.18,29.014,13.047,19.114,16.564,43.679,12.4,66.486-.088.475-.176.949-.264,1.407" fill="#dca87f"/><path d="M381.3,632.183c-2.083,10.9-6.156,22.234-14.091,30.277a32.516,32.516,0,0,1-14.251,8.489,45.013,45.013,0,0,1-18.357,1.033c-13.168-1.783-25.112-8.131-36.963-13.74-12.521-5.926-25.509-11.076-39.333-12.859-14.391-1.857-29.692.532-41.832,8.838l3.307,1.9A141.458,141.458,0,0,1,270.437,557.2c15.228-12.521,34.028-22.216,54.273-19.342,18.174,2.579,35,13.588,45.143,28.815,11.311,16.98,14.941,38.028,12.616,58.091-.288,2.489-.7,4.958-1.169,7.419a2.256,2.256,0,0,0,1.535,2.7,2.218,2.218,0,0,0,2.7-1.535c3.973-20.9,2.094-43.105-7.881-62.132a72.264,72.264,0,0,0-44.445-36.08,60.34,60.34,0,0,0-29.043-.745c-10.631,2.4-20.482,7.63-29.307,13.917a141.651,141.651,0,0,0-39.975,44.179,146.561,146.561,0,0,0-18.83,56.245q-.438,3.683-.674,7.383a2.211,2.211,0,0,0,3.308,1.9c10.837-7.414,24.186-9.771,37.1-8.523,13.742,1.329,26.829,6.5,39.212,12.349,12.265,5.788,24.588,12.375,38.179,14.342,12.4,1.794,25.268-.2,34.979-8.6,9.867-8.526,14.984-21.718,17.376-34.236a2.257,2.257,0,0,0-1.536-2.7,2.217,2.217,0,0,0-2.7,1.535Z" fill="#00008b"/><path d="M355.277,668.214c1.158-8.518.808-17.393-2.291-25.411s-9.169-15.1-17.163-18.258" fill="#dca87f"/><path d="M357.287,668.725c1.889-14.235-.559-29.774-11.423-40.029a29.937,29.937,0,0,0-9.281-6.012,1.886,1.886,0,0,0-2.639.845,2.362,2.362,0,0,0,1.119,2.877,29.022,29.022,0,0,1,15.316,15.217c3.665,8.164,4.051,17.321,2.889,26.08-.33,2.488,3.65,3.8,4.019,1.022Z" fill="#00008b"/><path d="M382.153,635.5a58.3,58.3,0,0,0-19.765-39.063" fill="#dca87f"/><path d="M384.039,634.508a58.883,58.883,0,0,0-19.831-39.3c-1.062-.925-4.39,1.812-3.64,2.464a58.223,58.223,0,0,1,19.7,38.827c.1,1.245,3.876-.718,3.771-1.991Z" fill="#00008b"/><path d="M702.028,677.168a28.219,28.219,0,0,0-14.894-8.388c-6.858-1.583-14.032-1.09-20.979.053-27.747,4.607-54.457,19.677-82.311,15.7-24.513-3.5-45.737-22.877-52.4-46.721s1.108-50.906,18.727-68.3,44.207-24.829,68.508-20.1a80.789,80.789,0,0,1,30.65,13.013c23.527,16.459,36.47,44.118,45.561,71.356C699.565,647.8,703.54,662.5,702.028,677.168Z" fill="#dca87f"/><path d="M703.582,675.613c-12.812-14.214-34.44-10.373-50.8-6.125-17.255,4.48-34.121,11.48-52,13.153a65.3,65.3,0,0,1-24.253-1.925,61.663,61.663,0,0,1-19.156-9.506,63.924,63.924,0,0,1-24.06-34.9,67.625,67.625,0,0,1,4.213-44.732,69.267,69.267,0,0,1,31.281-32.833,76.915,76.915,0,0,1,45.361-7.859A79.181,79.181,0,0,1,658.594,573c11.349,11.139,19.5,25.088,25.875,39.55,3.268,7.413,6.058,15.034,8.6,22.724,3,9.083,5.723,18.4,6.695,27.947a69.717,69.717,0,0,1,.065,13.944,2.213,2.213,0,0,0,2.2,2.2,2.247,2.247,0,0,0,2.2-2.2c.975-9.838-.432-19.743-2.835-29.284a236.7,236.7,0,0,0-8.443-26.106c-5.855-15.421-13.172-30.429-23.543-43.348a86.928,86.928,0,0,0-41.7-29,80.925,80.925,0,0,0-48.785.361A75.37,75.37,0,0,0,540.268,577.9a74.355,74.355,0,0,0-13.337,45.056A67.209,67.209,0,0,0,544.057,665c9.925,11.141,23.668,19.245,38.489,21.549,18.341,2.85,36.391-2.4,53.782-7.7a276.662,276.662,0,0,1,26.713-7.219c9.049-1.792,18.756-2.792,27.595.486a24.842,24.842,0,0,1,9.838,6.609C702.372,680.828,705.473,677.711,703.582,675.613Z" fill="#00008b"/><path d="M536.029,642.951a44.978,44.978,0,0,1,25.312-41.268" fill="#dca87f"/><path d="M538.2,642.628a44.155,44.155,0,0,1,15.256-34.186,40.719,40.719,0,0,1,9.126-5.937c.691-.326,1.314-1.075.548-1.677s-2.24-.343-3.036.033a46.62,46.62,0,0,0-25.067,30.973,43.784,43.784,0,0,0-1.175,11.44c.044,1.511,4.4,1.016,4.348-.646Z" fill="#00008b"/><path d="M569.732,678.34a36.266,36.266,0,0,1,13.5-43.868" fill="#dca87f"/><path d="M571.68,678.662a35.66,35.66,0,0,1,13.348-43.021c1.276-.86-2.355-3.164-3.583-2.337a36.875,36.875,0,0,0-13.661,44.714,3.418,3.418,0,0,0,2.551,1.639c.688.1,1.718-.063,1.345-1Z" fill="#00008b"/><path d="M812.824,177.086c-1.839-.037.205,19.028-9.389,32.859-9.073,13.081-25.614,17.244-37.553,18.778,9.25.808,23.272,3.532,32.859,14.082,14.61,16.078,11.609,42.284,14.083,42.248,2.748-.04-2.723-32.237,14.083-46.942,13.9-12.166,37.6-7.587,37.554-9.388-.03-1.137-9.421-1.03-23.471-4.7-7.6-1.982-11.406-2.975-14.083-4.694C811.091,209.177,815.215,177.134,812.824,177.086Z" fill="#ff81cb"/><path d="M882.646,138.512c-2.485.009-.776,13.24-9.1,22.741-8.291,9.467-21.555,9.54-21.226,12.129.31,2.435,11.684-.448,19.71,6.064,9.37,7.6,7.664,22.725,10.612,22.742,2.571.014,1.385-11.5,9.1-19.71,8-8.511,19.994-7.521,19.967-10.654-.026-2.987-10.918-1.91-18.776-9.388C883.454,153.414,885.283,138.5,882.646,138.512Z" fill="#ff81cb"/></svg>