<?xml version="1.0" encoding="utf-8"?>
<!-- Generator: Adobe Illustrator 24.3.0, SVG Export Plug-In . SVG Version: 6.00 Build 0)  -->
<svg version="1.1" id="Layer_1" xmlns="http://www.w3.org/2000/svg" xmlns:xlink="http://www.w3.org/1999/xlink" x="0px" y="0px"
	 viewBox="0 0 1080 1080" style="enable-background:new 0 0 1080 1080;" xml:space="preserve">
<style type="text/css">
	.st0{fill:#00008B;}
	.st1{fill:#00008B;stroke:#00008B;stroke-width:21.1213;stroke-miterlimit:10;}
</style>
<g>
	<g>
		<path class="st0" d="M752.1,374.6l22.1-22.7l-6.1-5.9l-22.7,23.3c-15.2-21.4-52.2-12-41.8,16.3c-48.7-46.3-88.3,8.2-110.5,45.5
			c0,0-137.6,188-137.6,188L439,606.9c-9.4-7.1-20.7,8.3-11.1,15.2c0,0,63.8,46.7,63.8,46.7l-56.4,77.1c-7-2.1-34.1-33.2-41.7-20.8
			c-3.7,3.8-5,10-0.2,13.5c5.6-0.2,116,95.5,119.7,77.9c14.5-12.4-22.3-26.9-27.5-33.7l56.4-77.1c8.4,2.4,44.9,43,53.9,28.3
			c7.8-9-5.6-16.2-11.7-20.7c13.6-41.7,228.7-248.8,163.7-294.4C775.5,418.6,774.2,384.1,752.1,374.6z M755.8,447.1
			c18.3,15.5-169.2,244.2-175.3,259.9l-117.9-86.3l29.8-40.7c79,74.6,100,45.4,5.3-7.2l26.5-36.2c82.8,68.3,97.3,47.7,7.5-10.3
			l20.3-27.8c49.2,46.2,65.6,23.4,6.8-9.3l18.8-25.7c79,74.6,100,45.4,5.3-7.2l14.9-20.4c45,40,59.1,20.3,7.5-10.3
			c17.4-26.6,46.8-70.2,82.7-43C704.1,397.3,755,421.5,755.8,447.1z"/>
		<g>
			<path class="st0" d="M780.8,312.7C780.8,312.7,780.8,312.7,780.8,312.7c0.4,0.2,0.9,0.4,1.4,0.2c12.6-4,24-11.3,33-21
				c4.3-4.8,8.1-11.2,6.8-17.9c-1.3-6.5-7.6-11.7-14.2-12c-13-0.6-16.5,15.4-18.6,25.1c-0.8,3.6-1.6,7.2-3.1,10.7
				c-1.8,4.3-4.1,8.3-6.2,12.4c-0.2,0.5-0.2,0.9-0.1,1.4c-0.3,0.1-0.7,0.2-1,0.3L780.8,312.7z"/>
			<path class="st0" d="M854.5,296.5c-5.7-2.5-11.6-2.2-17.5-0.7c-7.9,1.9-15.4,5.5-22.1,10.2c-1.3,0.8-2.7,1.5-4,2.3
				c-1.2,0.8-2.2,1.7-3.3,2.6c-1.1,0.9-2.4,1.5-3.5,2.4c-1.3,1-2.7,1.9-4.1,2.8c-1.3,0.8-2.6,1.7-3.7,2.8c-0.7,0.6-1.4,1.4-2.1,2
				c-0.3,0.2-0.7,0.4-1,0.6c-0.5,0.3-0.9,0.7-1.2,1.1c0,0-0.1,0.1-0.1,0.1c-0.1,0.1-0.3,0.2-0.4,0.3c-0.1,0.1-0.1,0.2-0.2,0.3
				c0,0,0,0,0,0c-0.6,0.3-0.9,1.1-0.8,1.8c-0.1,0.3-0.1,0.6,0,0.9c0.3,0.9,1.2,1.4,2.2,1.3c0.3,0.1,0.6,0.1,0.9,0
				c0.4-0.1,0.7-0.3,1-0.5c0.1,0,0.1,0,0.1-0.1c0.5-0.1,1-0.3,1.4-0.4c0.2-0.1,0.3-0.1,0.4-0.2c1-0.3,2-0.6,3-1
				c0.5-0.2,1-0.3,1.4-0.5c15.5-3.1,31.3,0.8,46.2,5.6c3.6,1.2,7.4,2.4,11.2,2.2c8.6-0.4,12-7.9,11-15.6
				C868.3,308.2,862.5,300,854.5,296.5z"/>
			<path class="st0" d="M819.6,334.6c-5-1.7-10.3-1.7-15.6-1.5c-4.5,0.1-9.9-0.7-14.2,0.9c-0.3,0-0.6,0.1-0.8,0.3c0,0-0.1,0-0.1,0.1
				c-0.1,0-0.1,0.1-0.1,0.1c-0.2,0.1-0.4,0.1-0.6,0.2c-0.3,0.1-0.5,0.2-0.8,0.4c0,0,0,0,0,0c-0.1,0-0.2,0.1-0.4,0.1
				c-0.8,0.2-1.4,1.1-1.3,1.9c0.1,0.8,0.6,1.7,1.5,1.8c0.4,0.1,0.8,0.1,1.2,0.3c0.2,0.1,0.4,0.1,0.6,0.2c0,0,0,0,0,0
				c0.1,0,0.2,0.1,0.3,0.1c0.7,0.3,1.5,0.5,2.2,0.8c5.8,3.4,10.1,9,15.8,12.7c4.3,2.7,9.2,4.6,14.3,4.5
				C838.3,357,829.9,338,819.6,334.6z"/>
		</g>
	</g>
</g>
</svg>
