<?xml version="1.0" encoding="utf-8"?>
<!-- Generator: Adobe Illustrator 24.3.0, SVG Export Plug-In . SVG Version: 6.00 Build 0)  -->
<svg version="1.1" id="Layer_1" xmlns="http://www.w3.org/2000/svg" xmlns:xlink="http://www.w3.org/1999/xlink" x="0px" y="0px"
	 viewBox="0 0 1080 1080" style="enable-background:new 0 0 1080 1080;" xml:space="preserve">
<style type="text/css">
	.st0{fill:#00008B;}
	.st1{fill:#00008B;stroke:#00008B;stroke-width:21.1213;stroke-miterlimit:10;}
</style>
<g>
	<g>
		<path class="st0" d="M640.8,868.5c-53.5-19-106.6-39.4-164.4-41.3c-39.3-1.3-77.3,5.6-115.2,15.1c-17.3,4.3-35.6,8.1-53.1,7
			c-36.6-2.4-56.7-21.6-60.8-58.4c-4.3-38.7-2.2-77.7,23-110c8.5-10.9,22.2-21.3,35.3-24.5c34.9-8.5,58.8-30.4,79.6-56.9
			c10.2-13.1,18.2-27.8,27.4-41.8c15.8-24.1,36.9-41.6,65.4-48.2c36.2-8.5,65.3,6.5,87,33.5c14.6,18.1,22.9,41.2,36,60.6
			c13.1,19.4,28.2,37.5,43.7,55.1c5.2,5.9,13.6,10.2,21.3,12.3c37.2,9.9,53.3,37.2,57.4,72c2.5,20.9,0.9,42.5-1,63.7
			c-2.8,31.6-19.4,53.1-50.8,61.8C661.2,868.5,651,868.5,640.8,868.5z"/>
		<path class="st0" d="M813.5,542.7c-6.3,17.6-10.4,36.5-19.3,52.7c-20.8,38-71.8,60.8-108.3,50.8c-43.3-11.9-65.2-44.8-55-88.5
			c12.7-54.1,44.4-96.4,90.8-126.4c28.2-18.2,53.3-12.1,71.3,16.3c9.1,14.4,13.8,31.8,20.4,47.8
			C813.5,511.2,813.5,526.9,813.5,542.7z"/>
		<path class="st0" d="M597.8,497.8c-40.2-3.3-66.4-23.7-74.2-61.9c-12.1-59.8,6.6-112.4,42.1-159.4c17.7-23.4,44.7-24.8,69.1-7.8
			c33.6,23.5,47,58,53.5,96.6c8.5,51-10.4,89.8-53.1,117.2C624.2,489.7,610.4,492.8,597.8,497.8z"/>
		<path class="st0" d="M334.4,371c5.7-42.5,20.5-89.3,71.3-115.5c24.9-12.8,43.5-9.6,61.5,12.1c22.4,27,29.3,60.1,34.2,93.7
			c4,27.4,3.8,54-8.1,80c-21.7,47.3-77.3,59.9-116.7,25.7C347.7,442,334.6,415.1,334.4,371z"/>
		<path class="st0" d="M368.5,551.4c1.1,26.9-8.1,50.3-33.9,65c-30.9,17.5-60.6,11.4-89.4-5.7c-46.3-27.5-56.4-71.5-54.4-120.8
			c1.3-30.8,11.6-57.7,34.3-79.4c17.7-16.8,37.7-20.9,58.1-7.5c14.1,9.2,26.8,21.2,38,33.9C349.2,468.3,368.6,516.5,368.5,551.4z"/>
	</g>
</g>
</svg>
