<?xml version="1.0" encoding="utf-8"?>
<!-- Generator: Adobe Illustrator 24.3.0, SVG Export Plug-In . SVG Version: 6.00 Build 0)  -->
<svg version="1.1" id="Layer_1" xmlns="http://www.w3.org/2000/svg" xmlns:xlink="http://www.w3.org/1999/xlink" x="0px" y="0px"
	 viewBox="0 0 1080 1080" style="enable-background:new 0 0 1080 1080;" xml:space="preserve">
<style type="text/css">
	.st0{fill:#00008B;}
	.st1{fill:#00008B;stroke:#00008B;stroke-width:21.1213;stroke-miterlimit:10;}
</style>
<g>
	<g>
		<g>
			<path class="st0" d="M492.7,411.6L481,391.9c18.9-23.6-0.5-54-14.4-75.1c-30.7-54.4-99.1,11-132.9,27.2
				c-48.3,27.6-3.6,114,43.7,109.6l11.7,19.7c-101.1,87.1,32,231.5,74.3,313.4c54.8,97.7,182.9-28.6,242.8-55.2
				c102.9-57.1-42.7-201.4-67.5-263.6C608.3,416.9,547.3,395,492.7,411.6z M396.7,453.5l-1-1.7l75.1-44.7l1,1.7L396.7,453.5z
				 M342.3,427.4c-58.1-68.8,21.6-86.9,67.9-118.2c38.6-23.7,83.1,45,63.6,76.7C449.5,392.4,363,477.4,342.3,427.4z M421.8,468.7
				c82.3-65.3,177.5-63.6,222.6,41.4l-241,143.6C357.5,596.8,352.2,509.1,421.8,468.7z M697.7,717.3
				C627.5,748.4,510,878,460.5,749.4l241-143.6C727.8,639.1,741.9,691.7,697.7,717.3z"/>
			
				<rect x="373.8" y="358" transform="matrix(0.8591 -0.5118 0.5118 0.8591 -143.769 249.4886)" class="st0" width="14.9" height="55.7"/>
			
				<rect x="399.4" y="342.8" transform="matrix(0.8591 -0.5118 0.5118 0.8591 -132.392 260.4091)" class="st0" width="14.9" height="55.7"/>
			
				<rect x="424.9" y="327.6" transform="matrix(0.8591 -0.5118 0.5118 0.8591 -121.0132 271.3313)" class="st0" width="14.9" height="55.7"/>
		</g>
		<path class="st0" d="M730.1,755.8c0.3,0.7,11.3-4.1,23.2-18.8c5.8-7.3,11.5-17.1,15.7-28.7c4.1-11.7,6.7-25.2,6.8-39.5
			c0-14.3-2.4-27.7-5.6-39.5c-1.6-5.9-3.5-11.4-5.4-16.5c-2-5.2-4.5-9.8-7-13.7c-5.1-7.8-9.5-13.5-12.2-17.8
			c-2.7-4.2-4.1-6.7-4.6-6.5c-0.4,0.2,0.1,3,2.1,7.8c2,4.8,5.9,11.2,10.2,19c2.1,3.9,4.2,8.3,5.7,13.1c1.6,5,3.2,10.4,4.6,16.2
			c2.8,11.4,4.9,24.3,4.8,37.8c0,13.5-2.3,26.3-5.8,37.4c-3.6,11.1-8.5,20.5-13.5,27.8C739.1,748.6,729.3,754.8,730.1,755.8z"/>
		<path class="st0" d="M350.5,612.3c0.9-0.6-2.6-7-6.9-17.7c-4.4-10.7-9.4-26-11.4-43.3c-0.9-8.7-0.9-16.9-0.1-24.4
			c0.8-3.6,1-7.2,2.1-10.3c0.5-1.6,0.9-3.1,1.3-4.6c0.6-1.4,1.2-2.8,1.7-4c4.6-10.3,10-15.4,9.1-16.3c-0.4-0.6-7.3,3.2-13.7,14
			c-0.7,1.4-1.5,2.8-2.3,4.3c-0.6,1.6-1.2,3.2-1.9,4.9c-1.5,3.4-2,7.2-3,11.1c-1.3,8-1.5,17-0.5,26.2c2.2,18.4,8.3,34.2,14,44.7
			C344.6,607.3,349.8,612.8,350.5,612.3z"/>
		<path class="st0" d="M317.5,595.8c0.9-0.5,0.1-3.6-1.7-8.3c-1.8-4.7-4.6-10.8-6.8-17.7c-2.2-6.8-3-13.1-3-17.9
			c-0.1-4.7,0.2-7.9-0.9-8.2c-0.9-0.3-2.9,2.4-4.2,7.6c-1.3,5.2-1.3,13,1.2,20.7c2.5,7.7,6.3,13.8,9.2,17.9
			C314.3,594,316.6,596.2,317.5,595.8z"/>
	</g>
</g>
</svg>
