<?xml version="1.0" encoding="utf-8"?>
<!-- Generator: Adobe Illustrator 24.3.0, SVG Export Plug-In . SVG Version: 6.00 Build 0)  -->
<svg version="1.1" id="Layer_1" xmlns="http://www.w3.org/2000/svg" xmlns:xlink="http://www.w3.org/1999/xlink" x="0px" y="0px"
	 viewBox="0 0 1080 1080" style="enable-background:new 0 0 1080 1080;" xml:space="preserve">
<style type="text/css">
	.st0{fill:#00008B;}
	.st1{fill:#00008B;stroke:#00008B;stroke-width:21.1213;stroke-miterlimit:10;}
</style>
<g>
	<g>
		<path class="st0" d="M749.2,829.2c45.2-34.1-48.2-100.3-64.4-135.8c82.3-11.2-60.6-226.8-71.3-276.7
			c-4.2-16.2-10.9-31.6-19.5-46.1c-3-5.1-9.6-6.9-14.8-4c-7.8,4.4-17.6,7.2-24.9,6.3c-4.5-0.5-12.8-5.5-20.8-12.3
			c-8-6.8-20.2-4.8-25.4,4.4c-1.6,2.8-3.2,5.4-4.7,7.5c-12.4,18.4-40.8,35.8-62.8,26c-27.9-12.5-42.6-39.9-28.6-68.4
			c7.9-16,17.8-30,30-41.2c7.2-6.6,2.8-18.4-6.9-18.7c-49.1-1.3-94.6,24.4-116.1,90.4C277.8,522.4,488.5,713.9,633,726.1
			C661.3,772.2,688.8,932.4,749.2,829.2z M748.7,815.1c-19.3,4.3-20,20.8-30.2,34.1c-35.3,1.4-38-65.1-57.1-89.6
			c-20-29.6-12.1-44,2.5-72.1c26.6,36.7,57.9,70.3,81.1,109.2C747.3,801.3,752.9,810.6,748.7,815.1z"/>
		<path class="st0" d="M294.5,418.2c0.6,10.6,1.8,20.2,2.7,28.3c1.9,16.3,2.6,26.7,0.6,27.1c-1.9,0.4-6.1-9-10.7-25.2
			c-2.2-8.1-4.5-17.9-5.9-29.1c-0.7-5.6-1.2-11.5-1.3-17.7c-0.1-6.2,0.2-12.7,1.1-19.3c1.8-13,5.1-25.1,9.1-35.7
			c4.1-10.6,8.9-19.7,13.6-26.8c4.7-7.1,9.2-12.4,12.7-15.7c3.5-3.3,5.9-4.7,6.6-4.1c1.7,1.3-3.7,10.1-10.4,24.7
			c-3.3,7.3-6.8,16.1-10,26.2c-3.1,10-5.7,21.4-7.4,33.3c-0.8,5.9-1.2,11.7-1.3,17.4C294,407.4,294.2,412.9,294.5,418.2z"/>
		<path class="st0" d="M270.3,382.3c1.1,0.5-0.7,6-2.5,14.9c-1.8,8.9-3.1,21.3-1.8,35c1.4,13.4,6,25.3,9.1,34
			c3.2,8.7,4.9,14.3,3.9,14.8c-1,0.5-4.5-4.2-9.2-12.4c-2.3-4.1-4.8-9.2-7.1-15.2c-2.2-6-4.2-12.8-4.9-20.4
			c-1.5-14.8,1-28.3,4.4-37.3C265.6,386.6,269.4,381.9,270.3,382.3z"/>
		<path class="st0" d="M723,878.8c-1.7,1.4-4.8,2.8-8.7,3.3c-3.9,0.5-8.6,0.3-13.5-1.2c-2.5-0.7-5.1-1.7-7.6-3.3
			c-0.6-0.4-1.3-0.8-1.9-1.3c-0.6-0.5-1.3-1.1-1.8-1.5c-1-0.9-2-1.8-3-2.7c-2-1.9-4-3.9-5.8-6.1c-0.9-1.1-1.7-2.2-2.4-3.4
			c-0.4-0.6-0.7-1.2-1-1.8c-0.3-0.5-0.6-1.1-0.8-1.6c-2.1-4.2-3.9-8-5.4-11.2c-2.9-6.4-4.5-10.5-3.5-11.2c0.9-0.6,4.3,2.4,8.5,8.3
			c2.1,2.9,4.5,6.5,6.9,10.4c0.3,0.5,0.6,1,0.9,1.5c0.3,0.4,0.6,0.9,0.9,1.3c0.6,0.9,1.3,1.7,2.1,2.6c1.5,1.7,3.3,3.4,5.2,5.2
			c1,0.9,2,1.8,2.9,2.7c0.5,0.5,0.8,0.7,1.2,1.1c0.3,0.3,0.8,0.6,1.2,0.9c1.7,1.2,3.7,2.1,5.7,2.9c3.9,1.5,7.7,2.3,10.9,2.5
			c6.4,0.6,10.1-1.4,10.9-0.5c0.2,0.2,0.1,0.6-0.2,1.1C724.4,877.5,723.9,878.2,723,878.8z"/>
	</g>
</g>
</svg>
