<?xml version="1.0" encoding="utf-8"?>
<!-- Generator: Adobe Illustrator 24.3.0, SVG Export Plug-In . SVG Version: 6.00 Build 0)  -->
<svg version="1.1" id="Layer_1" xmlns="http://www.w3.org/2000/svg" xmlns:xlink="http://www.w3.org/1999/xlink" x="0px" y="0px"
	 viewBox="0 0 1520.1 435" style="enable-background:new 0 0 1520.1 435;" xml:space="preserve">
<style type="text/css">
	.st0{fill:#FCD5FF;}
	.st1{fill:#00008B;}
	.st2{fill:#ECAAEE;}
	.st3{fill:#FFB4E7;}
	.st4{fill:#EAD5B9;}
	.st5{fill:#C8F657;}
	.st6{fill:#C2ACD2;}
	.st7{fill:#0B4884;}
	.st8{fill:#D8F476;}
	.st9{fill:#E179E6;}
	.st10{fill:#EEFFB1;}
	.st11{fill:#DCA87F;}
	.st12{fill:#BC85F2;}
	.st13{opacity:0.17;}
	.st14{fill:#6D5B32;}
	.st15{fill:#D1C09A;}
	.st16{fill:#F5F2C3;}
	.st17{fill:#FFF6BD;}
	.st18{fill:#FF81CB;}
	.st19{fill:none;stroke:#00008B;stroke-width:1.2974;stroke-miterlimit:10;}
	.st20{fill:#BBED0A;}
	.st21{fill:#9630EE;}
	.st22{fill:#BDE3F9;}
	.st23{fill:#93D6F7;}
	.st24{fill:#E1B0C5;}
	.st25{fill:#ECD2DF;}
	.st26{fill:#DF9EBD;}
	.st27{opacity:0.69;}
	.st28{fill:#FFDAF1;}
	.st29{fill:#F6A2FF;}
	.st30{fill:#FFEE76;}
	.st31{fill:none;}
	.st32{fill:#2A2E7E;}
	.st33{fill:#FFDA10;}
	.st34{fill:#A7EBF4;}
	.st35{fill:#FFE945;}
	.st36{fill:none;stroke:#0B4884;stroke-width:3.2169;stroke-miterlimit:10;}
	.st37{fill:#B275F0;}
	.st38{fill:#00008B;stroke:#00008B;stroke-width:1.4343;stroke-miterlimit:10;}
</style>
<g>
	<g>
		<path class="st4" d="M23.6,209.2c0.6-10.7-3.9-20-5.2-31.3c-1.5-14-0.7-28.2,2.5-41.9c6.7-28.3,23.8-53.6,48.5-69.3
			c18.9-12,41.7-18.1,64.1-17.3c8,0.3,21.4,6.2,28.8,2.4c8.6-4.4,9.7-15.7,17.5-21.2c8.3-5.9,19.7-6.4,29.5-6.7
			c135.1-3.1,270.6-8.7,405.7-8.8c24.2,0,52.8,2.6,71.5,19.9c14.2,13.2,18,35.1,40.2,23.5c33.1-17.2,69-23.9,106.1-23
			C849,36,860,36.9,868.3,38c71.8,9.4,277.6,3.6,513.9,1.2c38.6-0.4,80.4,0.6,108.8,28.7c10.5,10.4,27.2,33.1,25.7,115.6
			c-0.9,50.3,6.5,110.5-25.7,154.2c-47.1,63.8-157.9,55.3-218.4,51.4c-90.6-5.8-181.4-3.8-272-1.3c-41.9,1.1-82.4,3.6-124.6,2.8
			c-45.5-0.9-90.9-1.8-136.4-2.4c-179.1-2.7-358.2-3-537.2,5.2c-37.6,1.7-75.8,3.8-112.2-5.4c-28-7-55.3-21.6-73.5-44.4
			c-19.2-24.1-14.3-61-6.7-89.2c3.6-13.4,9.9-26.4,13-39.8C23.3,212.7,23.5,211,23.6,209.2z"/>
		<path class="st1" d="M155.5,398.1c-22.2,0-44.5-1.5-66.1-7c-31.4-7.9-58.1-24-75.3-45.5c-15.9-19.9-18.4-50.9-7.3-92
			c1.7-6.2,3.9-12.4,6.1-18.4c2.5-7,5.2-14.2,6.8-21.3c0.4-1.6,0.6-3.2,0.7-4.8v0c0.4-5.9-1-11.4-2.5-17.3
			c-1.1-4.2-2.1-8.6-2.7-13.5c-1.6-14.5-0.7-29,2.6-43c7-29.5,25.2-55.5,49.9-71.2c19.3-12.3,42.7-18.6,65.9-17.8
			c3.1,0.1,6.6,0.9,10.4,1.8c6.1,1.4,13.1,2.9,16.8,1c3.7-1.9,5.9-5.7,8.2-9.7c2.3-4,4.7-8.2,8.9-11.2c9.4-6.8,22.6-7.1,31.3-7.3
			c41.9-1,84.6-2.2,125.8-3.4c91.8-2.6,186.7-5.3,280-5.4c0.1,0,0.3,0,0.4,0c23.8,0,53.5,2.4,73.3,20.8c4.2,3.9,7.6,8.6,10.6,12.8
			c7.8,10.8,12.5,17.3,26,10.3c31.6-16.4,67.8-24.3,107.7-23.4c14.4,0.3,26.1,1.1,35.8,2.4c55.7,7.3,191.2,5.4,362.7,3.1
			c48.5-0.7,98.7-1.4,150.8-1.9c42.4-0.4,82.7,1.5,111.1,29.7c12.1,12.1,28.1,37.4,26.6,118c-0.2,8.6-0.1,17.4,0,26.7
			c0.4,43.3,0.9,92.3-26.4,129.4c-20.5,27.8-55.4,45.3-103.8,52c-40.6,5.6-82.8,2.9-113.6,0.9l-3.8-0.2c-88.6-5.7-175.5-4-271.7-1.3
			c-12.1,0.3-24.2,0.8-36,1.2c-28.9,1.1-58.7,2.1-88.8,1.6c-54.7-1.1-96.7-1.8-136.4-2.4c-157.5-2.4-344.5-3.6-537,5.2l-2.8,0.1
			C185.1,397.4,170.3,398.1,155.5,398.1z M26.8,209.4c-0.1,2-0.4,3.9-0.8,5.9c-1.7,7.5-4.4,14.9-7,22.1c-2.1,5.8-4.4,11.9-6,17.9
			c-10.5,39.1-8.4,68.1,6.1,86.4C35.4,362,60.9,377.3,91,384.9c35.1,8.8,72.4,7.1,108.5,5.4l2.8-0.1c192.6-8.8,379.7-7.6,537.4-5.2
			c39.6,0.6,81.7,1.4,136.4,2.4c29.9,0.6,59.7-0.5,88.4-1.5c11.8-0.4,23.9-0.9,36-1.2c96.4-2.6,183.4-4.3,272.3,1.4l3.8,0.2
			c30.6,2,72.4,4.7,112.3-0.9c46.6-6.5,80-23.1,99.5-49.5c26-35.3,25.6-81.1,25.1-125.5c-0.1-9.3-0.2-18.1,0-26.9
			c1.4-78.1-13.5-102.1-24.8-113.3c-26.6-26.4-65.5-28.2-106.5-27.8c-52.1,0.5-102.3,1.2-150.8,1.9c-171.8,2.4-307.4,4.2-363.6-3.1
			c-9.5-1.2-21-2-35.1-2.3c-38.7-0.9-73.9,6.7-104.5,22.7c-18.4,9.6-26.4-1.5-34.2-12.2c-2.9-4.1-6-8.3-9.8-11.8
			c-18.2-16.9-46.3-19.1-68.9-19.1c-0.1,0-0.3,0-0.4,0c-93.2,0.1-188.1,2.8-279.8,5.4c-41.3,1.2-83.9,2.4-125.9,3.4
			c-10.5,0.2-20.5,0.9-27.7,6.1c-3,2.2-5,5.6-7,9.2c-2.7,4.7-5.4,9.5-10.9,12.3c-5.8,3-14,1.1-21.2-0.5c-3.5-0.8-6.7-1.5-9.2-1.6
			c-21.9-0.8-44,5.2-62.2,16.8c-23.3,14.8-40.5,39.4-47.1,67.3c-3.2,13.3-4,27.1-2.5,40.8c0.5,4.4,1.5,8.6,2.5,12.6
			C25.7,196.3,27.3,202.6,26.8,209.4L26.8,209.4z"/>
	</g>
	<g>
		<path class="st1" d="M210.9,189.9c-8.3,0-14.6-0.2-18.7-0.7c-1.4-0.2-2.6-0.7-3.6-1.6c-1-0.9-1.4-2-1.4-3.4
			c0-17.8,0.5-38.1,1.5-61c1-22.9,2-41.3,3.2-55.4c0.1-1.3,0.6-2.4,1.5-3.2c1-0.9,2.1-1.4,3.4-1.5c8.8-0.5,27.8-0.7,57.2-0.7
			c16.6,0,29.3,2.4,38,7.2c8.7,4.8,13,11.9,13,21.5c0,8.8-3.5,16.4-10.5,22.8c-7,6.4-16.5,10.6-28.3,12.6c-1.8,0.2-2.7,0.9-2.7,2.1
			c0,1.1,1,1.8,2.9,2.1c12.9,1.8,23.3,7.1,31.4,16c8,8.8,12.6,21.1,13.8,36.9c0.1,1.5-0.4,2.8-1.4,3.9c-1,1.1-2.2,1.7-3.8,1.9
			c-5.2,0.5-12.2,0.7-21.1,0.7c-9.7,0-16.8-0.2-21.4-0.7c-1.5-0.2-2.8-0.7-3.7-1.6c-1-0.9-1.4-2.1-1.4-3.6
			c-0.1-7.2-0.9-14.1-2.6-20.6c-1.7-6.5-4-12-6.9-16.5c-2.9-4.5-6.2-7.3-9.8-8.5c-1.5-0.5-2.8,0-3.9,1.5c-1.1,1.5-1.6,3.5-1.6,6.1
			c-0.2,8.3,0.9,20.7,3.4,37.4c0.4,1.5,0,2.8-1,3.9c-1,1.1-2.4,1.8-4,1.9C227,189.7,219.8,189.9,210.9,189.9z M240,121.6
			c6.4-1.3,11.3-3.2,14.8-5.7c3.5-2.5,5.2-5.4,5.2-8.7c0-6.3-5.3-9.5-15.8-9.5c-2.4,0-4.1,0.1-5.2,0.2c-1.4,0.1-2.5,0.5-3.3,1.4
			c-0.8,0.9-1.2,2.1-1.2,3.6c-0.2,6.6-0.3,11.7-0.2,15.3C234.5,121.4,236.4,122.6,240,121.6z"/>
		<path class="st1" d="M378,190.6c-20.6,0-36.2-4.3-46.8-12.9c-10.7-8.6-16-22.1-16-40.7c0-10.2,0.5-21.7,1.6-34.6
			c1.1-12.9,2.4-24.4,3.9-34.6c0.2-1.2,0.7-2.3,1.6-3.1c0.9-0.8,2-1.3,3.3-1.5c4.3-0.5,10.4-0.7,18.3-0.7c8.6,0,15,0.2,19.3,0.7
			c1.5,0.2,2.8,0.8,3.8,1.9c1,1.1,1.4,2.4,1,3.9c-3.9,22.3-5.8,42.6-5.6,61c0.1,6.8,1.4,12.2,4,16.3c2.5,4.1,6.4,6.1,11.5,6.1
			c5.2,0,9-2.1,11.5-6.2c2.5-4.1,3.8-9.6,4-16.3c0.2-16.3-1.8-36.7-5.8-61c-0.2-1.5,0.1-2.8,1.1-3.9c1-1.1,2.2-1.8,3.7-1.9
			c4.4-0.5,11.1-0.7,19.9-0.7c7.6,0,13.6,0.2,18,0.7c1.2,0.2,2.3,0.7,3.2,1.5c0.9,0.8,1.4,1.8,1.7,3.1c3.7,27.3,5.5,50.4,5.4,69.2
			c0,18.6-5.3,32.1-15.9,40.7C413.9,186.3,398.4,190.6,378,190.6z"/>
		<path class="st1" d="M476,189.9c-7.7,0-14.2-0.2-19.7-0.7c-1.5-0.2-2.8-0.7-3.7-1.7c-1-0.9-1.4-2.1-1.4-3.5
			c0.1-21,0.6-42.2,1.4-63.6c0.8-21.3,1.9-38.9,3.2-52.7c0.2-1.3,0.7-2.4,1.7-3.2c1-0.8,2.2-1.2,3.6-1.4c13.7-0.5,29.2-0.7,46.6-0.7
			c22.4,0,37.7,0.2,45.7,0.7c3.2,0.2,4.9,1.9,5.3,5.1c0.8,15.3,1.2,28.2,1.4,38.6c0.1,1.3-0.3,2.4-1.1,3.3c-0.8,0.8-1.8,1.2-3,1.2
			c-1.2-0.1-2.3-0.6-3.2-1.8c-4.5-5.3-9.7-9-15.6-11.2c-6-2.2-13.2-3.2-21.6-3.2c-5.7,0-10.2,0.9-13.3,2.8c-3.1,1.9-4.7,4.4-4.7,7.5
			v1.2c0,3.1,1.5,5.6,4.5,7.4c3,1.8,7.5,2.7,13.5,2.7c6.2,0,14.4-0.6,24.7-1.8c1.5-0.2,2.7,0.2,3.7,1.2c1,1,1.6,2.2,1.7,3.7
			c0,0.2,0.4,7.3,1.2,21.3c0.1,2.1-0.6,3.4-2,4c-1.4,0.6-2.8,0.3-4-0.9c-8.6-4.5-17.5-6.7-27-6.5c-5.8,0.1-10,1.3-12.5,3.8
			c-2.5,2.5-3.8,6.1-3.8,11c0,3.1,0.3,6.5,0.9,10.1c0.6,3.6,1.4,7.6,2.4,11.9c1,4.3,1.6,7.3,1.9,9c0.2,1.4-0.2,2.6-1.2,3.7
			c-1,1.1-2.2,1.7-3.7,1.8C494,189.7,486.8,189.9,476,189.9z"/>
		<path class="st1" d="M594.7,189.9c-7.7,0-14.2-0.2-19.7-0.7c-1.5-0.2-2.8-0.7-3.7-1.7c-1-0.9-1.4-2.1-1.4-3.5
			c0.1-21,0.6-42.2,1.4-63.6c0.8-21.3,1.9-38.9,3.2-52.7c0.2-1.3,0.7-2.4,1.7-3.2c1-0.8,2.2-1.2,3.6-1.4c13.7-0.5,29.2-0.7,46.6-0.7
			c22.4,0,37.7,0.2,45.7,0.7c3.2,0.2,4.9,1.9,5.3,5.1c0.8,15.3,1.2,28.2,1.4,38.6c0.1,1.3-0.3,2.4-1.1,3.3c-0.8,0.8-1.8,1.2-3,1.2
			c-1.2-0.1-2.3-0.6-3.2-1.8c-4.5-5.3-9.7-9-15.6-11.2c-6-2.2-13.2-3.2-21.6-3.2c-5.7,0-10.2,0.9-13.3,2.8c-3.1,1.9-4.7,4.4-4.7,7.5
			v1.2c0,3.1,1.5,5.6,4.5,7.4c3,1.8,7.5,2.7,13.5,2.7c6.2,0,14.4-0.6,24.7-1.8c1.5-0.2,2.7,0.2,3.7,1.2c1,1,1.6,2.2,1.7,3.7
			c0,0.2,0.4,7.3,1.2,21.3c0.1,2.1-0.6,3.4-2,4c-1.4,0.6-2.8,0.3-4-0.9c-8.6-4.5-17.5-6.7-27-6.5c-5.8,0.1-10,1.3-12.5,3.8
			c-2.5,2.5-3.8,6.1-3.8,11c0,3.1,0.3,6.5,0.9,10.1c0.6,3.6,1.4,7.6,2.4,11.9c1,4.3,1.6,7.3,1.9,9c0.2,1.4-0.2,2.6-1.2,3.7
			c-1,1.1-2.2,1.7-3.7,1.8C612.7,189.7,605.4,189.9,594.7,189.9z"/>
		<path class="st1" d="M83.3,344.6c-7.7,0-14.6-1.1-20.7-3.4s-11.5-5.7-16.1-10.4c-4.6-4.6-8.1-10.7-10.6-18.3
			c-2.5-7.6-3.7-16.3-3.7-26.4c0-10.4,1.7-20,5.2-28.7c3.5-8.7,8.3-16.1,14.6-22.2c6.2-6.1,13.8-10.8,22.6-14.1
			c8.8-3.4,18.4-5.1,28.9-5.1c15.7,0,29.9,2.5,42.6,7.4c2.5,1.3,3.5,3.6,3.1,6.7c-0.8,8.8-2,18.9-3.6,30.4c-0.2,1.9-1.1,3.1-2.5,3.5
			c-1.5,0.4-2.8,0-4.1-1.2c-8.9-6.7-19.4-10-31.6-10c-8.4,0-15.1,2.8-20.1,8.4c-5,5.6-7.5,13.7-7.5,24.4c0,7.9,1.6,13.7,4.8,17.4
			c3.2,3.7,7.7,5.5,13.4,5.4c4.5,0,8.2-1.7,11.3-5c3.1-3.3,4.7-7.7,4.7-13c0-5.1-0.9-9-2.8-11.7c-0.8-1.5-0.8-2.9-0.3-4.2
			c0.6-1.3,1.7-1.9,3.4-2c11.9-0.7,25.1-1.3,39.4-1.9c1.5-0.1,2.8,0.4,3.7,1.3c1,0.9,1.5,2.1,1.6,3.6c1.7,20.1,2.5,41,2.5,62.6
			c0,1.5-0.5,2.8-1.4,3.8c-0.9,1-2.1,1.5-3.6,1.6c-2.5,0.2-7.8,0.4-15.8,0.4s-13.5-0.1-16.5-0.4c-1.6-0.2-2.9-0.7-3.9-1.6
			c-0.9-0.9-1.3-2-1.1-3.4c0.7-5.5,1.1-10,1.1-13.5c0.1-1.7-0.2-2.9-0.7-3.6c-0.5-0.7-1.1-0.8-1.9-0.3c-0.8,0.5-1.5,1.5-2.2,3.1
			C109.1,337.8,98.4,344.6,83.3,344.6z"/>
		<path class="st1" d="M195.9,344.1c-8.3,0-14.6-0.2-18.7-0.7c-1.4-0.2-2.6-0.7-3.6-1.6c-1-0.9-1.4-2-1.4-3.4
			c0-17.8,0.5-38.1,1.5-61c1-22.9,2-41.3,3.2-55.4c0.1-1.3,0.6-2.4,1.5-3.2c1-0.9,2.1-1.4,3.4-1.5c8.8-0.5,27.8-0.7,57.2-0.7
			c16.6,0,29.3,2.4,38,7.2c8.7,4.8,13,11.9,13,21.5c0,8.8-3.5,16.4-10.5,22.8c-7,6.4-16.5,10.6-28.3,12.6c-1.8,0.2-2.7,0.9-2.7,2.1
			c0,1.1,1,1.8,2.9,2.1c12.9,1.8,23.3,7.1,31.4,16c8,8.8,12.6,21.1,13.8,36.9c0.1,1.5-0.4,2.8-1.4,3.9c-1,1.1-2.2,1.7-3.8,1.9
			c-5.2,0.5-12.2,0.7-21.1,0.7c-9.7,0-16.8-0.2-21.4-0.7c-1.5-0.2-2.8-0.7-3.7-1.6c-1-0.9-1.4-2.1-1.4-3.6
			c-0.1-7.2-0.9-14.1-2.6-20.6c-1.7-6.5-4-12-6.9-16.5c-2.9-4.5-6.2-7.3-9.8-8.5c-1.5-0.5-2.8,0-3.9,1.5c-1.1,1.5-1.6,3.5-1.6,6.1
			c-0.2,8.3,0.9,20.7,3.4,37.4c0.4,1.5,0,2.8-1,3.9c-1,1.1-2.4,1.8-4,1.9C212,343.9,204.8,344.1,195.9,344.1z M225,275.8
			c6.4-1.3,11.3-3.2,14.8-5.7c3.5-2.5,5.2-5.4,5.2-8.7c0-6.3-5.3-9.5-15.8-9.5c-2.4,0-4.1,0.1-5.2,0.2c-1.4,0.1-2.5,0.5-3.3,1.4
			c-0.8,0.9-1.2,2.1-1.2,3.6c-0.2,6.6-0.3,11.7-0.2,15.3C219.5,275.6,221.4,276.8,225,275.8z"/>
		<path class="st1" d="M361.7,344.1c-26.9,0-43.6-0.2-50.1-0.7c-1.5-0.1-2.7-0.7-3.7-1.6c-1-1-1.5-2.2-1.5-3.6
			c0.4-48.1,2-86.8,4.7-116.2c0.2-1.3,0.7-2.4,1.7-3.2c1-0.8,2.2-1.2,3.6-1.4c7.5-0.5,22.8-0.7,45.9-0.7c21.9,0,37.4,0.2,46.6,0.7
			c1.5,0.1,2.6,0.5,3.5,1.4c0.9,0.9,1.4,2.1,1.6,3.5c0.5,9.4,0.9,21.2,1.2,35.4c0,2.3-0.8,3.8-2.5,4.4c-1.7,0.6-3.4,0-5.2-1.7
			c-10-7.8-22.3-11.7-36.7-11.7c-5.8,0-10.2,0.9-13.4,2.7c-3.1,1.8-4.7,4.2-4.7,7.3v1c0,5.5,6,8.3,18,8.3c2.5,0,5.1-0.1,7.8-0.2
			c2.8-0.1,5.8-0.3,9.2-0.5c3.4-0.2,6.1-0.3,8.2-0.4c1.5-0.2,2.8,0.2,3.9,1.1c1.1,0.9,1.6,2.1,1.6,3.6l-0.2,14.6
			c0,1.8-0.6,3-1.8,3.6c-1.2,0.6-2.5,0.4-3.9-0.6c-8-3.9-16.2-5.8-24.5-5.6c-6.1,0.1-10.7,1.1-13.7,2.8c-3.1,1.8-4.6,4.6-4.6,8.5
			v2.9c0,4.6,2.1,8,6.4,10.4c4.2,2.3,10.1,3.5,17.6,3.5c9.4,0,16.8-1.4,22.3-4.2c5.5-2.8,10.6-7.7,15.3-14.7c0.8-1.2,1.8-2,3.1-2.3
			c1.3-0.3,2.5-0.1,3.5,0.7c1.1,0.8,1.7,2,1.8,3.6c1.4,11.7,2.4,26.2,2.9,43.6c0,1.4-0.4,2.6-1.3,3.5c-0.9,0.9-2,1.4-3.4,1.5
			C412.8,343.9,393.1,344.1,361.7,344.1z"/>
		<path class="st1" d="M457.5,344.1c-6.1,0-12.4-0.2-18.9-0.7c-1.6-0.2-2.9-0.8-3.8-1.9c-0.9-1.1-1.1-2.4-0.8-3.9
			c3.5-20.3,8.6-41.3,15.5-62.8c6.9-21.6,13.8-39.7,20.7-54.2c0.6-1.6,2.1-2.7,4.3-3.1c4.4-0.5,13.1-0.7,25.9-0.7
			c12.9,0,21.8,0.2,26.4,0.7c2.2,0.4,3.7,1.4,4.3,3.1c6.9,14.5,13.7,32.5,20.6,54.2c6.9,21.7,12,42.7,15.5,63.2
			c0.4,1.5,0.1,2.8-0.7,3.8c-0.8,1-2,1.6-3.6,1.7c-4.6,0.5-11.5,0.7-20.7,0.7c-8.7,0-15.3-0.2-19.9-0.7c-1.3-0.2-2.5-0.7-3.4-1.7
			c-0.9-1-1.3-2.2-1.1-3.6c0.4-6.1,0.2-12.2-0.4-18.2c-0.9-5.9-5.4-9-13.4-9.2h-6.9c-3.4,0.1-6.3,0.9-8.7,2.5
			c-2.4,1.5-3.9,3.8-4.4,6.8c-0.8,5.7-0.9,11.8-0.4,18.4c0.1,1.4-0.4,2.6-1.3,3.5c-0.9,0.9-2.1,1.5-3.4,1.7
			C474.3,343.9,467.1,344.1,457.5,344.1z M499.1,293.3h3.4c2.8-0.1,4.8-0.8,6.1-2.1c1.2-1.3,1.6-3,1-5.3c-0.9-7.8-2.9-17.5-6-29
			c-0.5-1.9-1.1-3.2-1.8-3.9c-0.7-0.7-1.4-0.7-2.2,0c-0.7,0.7-1.4,2-2,3.9c-2.6,10.5-4.5,20.1-5.7,29c-0.6,2.2-0.2,4,1.1,5.3
			C494.2,292.4,496.3,293.1,499.1,293.3z"/>
		<path class="st1" d="M621.9,343.9c-10.2,0-17.7-0.2-22.7-0.7c-1.6-0.2-2.9-0.8-3.8-2c-1-1.2-1.4-2.5-1.2-4
			c1.6-13,4.3-38.2,7.9-75.5c0.5-3.5,0.1-6.1-1.2-7.9c-1.3-1.8-3.2-2.7-5.7-2.7c-6.3,0-15.1,4.5-26.3,13.4c-1.3,1.5-2.8,1.9-4.5,1.2
			c-1.7-0.7-2.5-2.3-2.5-4.8c0.5-15.5,1-28.4,1.7-38.6c0.4-3,2.1-4.6,5.2-4.7c8.9-0.5,26.5-0.7,52.7-0.7c26.1,0,43.6,0.2,52.5,0.7
			c3.2,0.2,4.9,1.8,5.3,4.7c0.4,3.7,0.7,10.4,1.1,19.9s0.5,15.9,0.5,19.1c0,2.4-0.8,3.9-2.5,4.6c-1.7,0.6-3.2,0.2-4.5-1.3
			c-11.2-8.9-19.8-13.4-25.9-13.4c-2.5,0-4.3,0.9-5.7,2.7c-1.3,1.8-1.7,4.5-1.1,7.9c3.9,39.1,6.5,64.2,7.9,75.5
			c0.2,1.5-0.2,2.8-1.2,4c-1,1.2-2.3,1.8-3.9,2C640.3,343.7,633,343.9,621.9,343.9z"/>
	</g>
	<g>
		<path class="st1" d="M783.4,340.8c-35.5,0-63.3-0.9-83.2-2.7c-2.1-0.2-3.8-1.3-5.3-3.4c-1.4-2-2.2-4.5-2.2-7.5
			c0-76.8,2.4-152.2,7.2-226.3c0.2-2.5,1-4.7,2.4-6.4c1.4-1.8,3.2-2.7,5.4-2.8c13.2-0.9,35.4-1.4,66.5-1.4
			c22.1,0,41.6,5.3,58.3,15.9c16.7,10.6,29.9,26.4,39.4,47.3c9.5,21,14.3,45.9,14.3,74.7c0,39.5-8.6,68.2-25.9,85.9
			C843,331.9,817.4,340.8,783.4,340.8z M774.5,263.8c1.8,0.2,4.8,0.3,8.9,0.3c9.7,0,17.6-3.4,23.5-10.1c6-6.7,9-16.8,9-30.2
			c0-19.6-3.2-35-9.5-46.1s-15-16.8-25.8-16.8h-7.2c-2.6,0.1-4.7,1.3-6.3,3.7c-1.6,2.3-2.5,5.5-2.6,9.4c-0.4,16.6-0.4,41.5,0,74.6
			c0.1,4.9,1,8.7,2.8,11.3S771.4,263.8,774.5,263.8z"/>
		<path class="st1" d="M925,339.4c-9.4,0-19.1-0.5-29-1.4c-2.5-0.3-4.5-1.6-5.8-3.7c-1.3-2.1-1.8-4.7-1.2-7.6
			c5.3-39.8,13.2-80.7,23.8-122.9c10.6-42.2,21.2-77.6,31.8-106.1c1-3.2,3.2-5.2,6.6-6c6.8-0.9,20.1-1.4,39.8-1.4
			c19.9,0,33.4,0.5,40.6,1.4c3.4,0.8,5.6,2.8,6.6,6c10.5,28.3,21,63.6,31.6,106c10.5,42.4,18.4,83.6,23.7,123.6
			c0.5,3,0.2,5.5-1.1,7.5c-1.3,2-3.1,3.1-5.5,3.4c-7.1,0.9-17.7,1.4-31.8,1.4c-13.3,0-23.5-0.5-30.6-1.4c-2.1-0.3-3.8-1.5-5.2-3.4
			c-1.4-1.9-2-4.3-1.7-7.1c0.5-12,0.4-23.9-0.5-35.6c-1.4-11.6-8.3-17.6-20.5-18H986c-5.2,0.2-9.7,1.8-13.4,4.8
			c-3.7,3-5.9,7.4-6.7,13.2c-1.3,11.1-1.4,23.1-0.5,35.9c0.1,2.7-0.6,5-2,6.9c-1.4,1.8-3.2,2.9-5.3,3.3
			C950.8,339,939.8,339.4,925,339.4z M988.8,239.9h5.3c4.3-0.2,7.4-1.6,9.3-4.1c1.9-2.5,2.4-6,1.5-10.3c-1.4-15.4-4.5-34.3-9.2-56.7
			c-0.8-3.7-1.8-6.2-2.8-7.6s-2.2-1.4-3.3,0c-1.1,1.4-2.1,3.9-3,7.6c-4,20.5-6.9,39.4-8.8,56.7c-0.9,4.4-0.4,7.8,1.6,10.3
			C981.4,238.3,984.5,239.7,988.8,239.9z"/>
		<path class="st1" d="M1167.7,339.4c-15.1,0-26.4-0.5-34-1.4c-2.2-0.3-4-1.4-5.4-3.3c-1.4-1.8-2.1-4-2-6.5
			c2.2-22,6.1-52.1,11.9-90.2c0.7-4.4-0.3-6.9-3.1-7.7c-10.8-3.4-20.9-11.6-30.3-24.6c-9.4-12.9-17-28.4-22.7-46.4
			c-5.7-18-9.2-36.4-10.3-55.3c-0.2-3.2,0.5-6,2-8.2c1.5-2.3,3.5-3.7,6.1-4.1c6.8-0.9,15.8-1.4,27-1.4c14,0,25,0.5,32.9,1.4
			c2.4,0.3,4.4,1.5,5.8,3.5c1.4,2,2.1,4.5,2,7.5c0.3,19.7,2.3,39.7,6.1,60c3.8,20.3,8.2,30.4,13.2,30.4c3.4-0.1,6.6-5.4,9.6-15.8
			c3-10.4,5.3-22.5,6.9-36.2c1.6-13.7,2.5-26.5,2.6-38.4c0-2.9,0.7-5.3,2.2-7.2c1.4-1.9,3.3-3.2,5.7-3.8c7.3-0.9,18.1-1.4,32.5-1.4
			c13,0,22.2,0.5,27.7,1.4c2.6,0.5,4.6,1.8,6,4.1c1.4,2.3,2,5,1.7,8.2c-1.4,18.9-5,37.3-10.6,55.2c-5.6,17.9-13,33.4-22.3,46.5
			c-9.2,13.1-19.2,21.3-29.9,24.6c-2.7,0.8-3.6,3.5-2.7,8.1c5.8,40.7,9.6,70.6,11.3,89.9c0.3,2.5-0.3,4.7-1.8,6.5
			c-1.5,1.8-3.4,2.9-5.6,3.3C1193.3,339,1182.5,339.4,1167.7,339.4z"/>
		<path class="st1" d="M1357.3,340.8c-11.8,0-25.9-1.4-42.3-4.3c-16.4-2.9-30.4-6.5-42-10.8c-3.5-1.6-5.3-5.1-5.3-10.5
			c-0.7-26-1.2-47.9-1.3-65.8c0-5.2,1.5-8.4,4.5-9.6c3-1.3,5.7-0.2,8.2,3.3c8.5,9.5,18.3,16.6,29.3,21.4c11,4.8,22.4,7.1,34.2,7.1
			c9.1,0,15.9-1.8,20.5-5.5c4.6-3.7,6.9-8.6,6.9-15c0-4-1.4-7.6-4.1-10.7c-2.7-3.1-6.4-5.8-10.9-8c-4.5-2.2-9.7-4.5-15.4-6.9
			c-5.8-2.4-11.7-4.8-17.7-7.1c-6.1-2.3-12-5.4-17.8-9.1c-5.8-3.7-11-7.8-15.5-12.3c-4.5-4.5-8.2-10.2-11-17.3
			c-2.8-7-4.2-14.9-4.2-23.6c0-22.7,7.3-39.5,21.9-50.6c14.6-11.1,35.4-16.6,62.5-16.6c11.5,0,23.8,1,36.8,3c13,2,24.4,4.8,34.2,8.3
			c3.6,1.8,5.5,5,5.8,9.5c0.2,3.9,0.7,12.7,1.6,26.3c0.9,13.6,1.4,23.7,1.6,30.1c0.3,5.4-1,8.8-3.7,10.3c-2.7,1.5-5.3,0.6-7.6-2.6
			c-7.1-6.1-15.1-10.9-24-14.4c-8.9-3.5-17.5-5.4-25.8-5.7c-9.7-0.2-17.6,1.2-23.7,4.3c-6.1,3.1-9.2,7.5-9.2,13.2
			c0,3.8,1.5,7.2,4.5,10.2c3,3,7,5.5,12,7.5c5,1.9,10.7,4.1,17,6.5c6.3,2.4,12.8,4.7,19.4,7c6.6,2.2,13.1,5.3,19.4,9.2
			c6.3,3.9,12,8.2,16.9,13c4.9,4.8,8.9,10.9,11.9,18.4c3,7.5,4.5,16,4.5,25.3c-0.1,23.3-8.1,41.2-24.1,53.7
			C1409,334.5,1386.4,340.8,1357.3,340.8z"/>
	</g>
	<g>
		<g>
			<path class="st1" d="M68.2,171.5c-0.7,1.8-1.7,3.1-3,3.7c-1.3,0.6-2.6,0.7-4,0.1c-1.4-0.6-2.3-1.5-2.8-2.8
				c-0.5-1.3-0.3-2.9,0.4-4.7c0.7-1.8,1.7-3.1,3-3.7c1.3-0.7,2.6-0.7,4-0.1c1.4,0.6,2.3,1.5,2.8,2.9C69.1,168.1,69,169.6,68.2,171.5
				z M96,182.5c-0.9,2.1-1.6,3.8-2.2,5c-0.2,0.4-0.5,0.6-0.8,0.7c-0.4,0.1-0.7,0.1-1.1,0c-7.3-3-15-6.4-22.9-10.4
				c-0.3-0.1-0.5-0.4-0.7-0.7c-0.1-0.3-0.2-0.7-0.1-1c0.3-1.1,0.8-2.5,1.5-4.2c0.7-1.7,1.3-3,1.8-3.8c0.2-0.3,0.4-0.6,0.7-0.7
				c0.3-0.1,0.6-0.1,1,0c8.5,2.7,16.4,5.5,23.7,8.5c0.4,0.1,0.6,0.4,0.8,0.7c0.2,0.3,0.2,0.7,0.1,1.1
				C97.3,178.9,96.8,180.6,96,182.5z"/>
		</g>
		<g>
			<path class="st1" d="M102,168.9c-1.4,1.9-2.6,3.4-3.5,4.4c-0.3,0.3-0.6,0.5-1,0.5c-0.4,0-0.7-0.1-1-0.3
				c-8.4-6.3-14.9-11.5-19.3-15.8c-0.6-0.7-0.8-1.4-0.4-2c0.6-1,1.5-2.4,2.9-4.2c1.2-1.6,2.3-3,3.2-4c0.3-0.3,0.6-0.5,1.1-0.5
				c0.5,0,0.8,0.2,1.1,0.5c1.4,1.9,2.6,3.2,3.6,3.9c0.4,0.3,0.7,0.4,1,0.2c0.2-0.2,0.2-0.5-0.1-0.9c-1.5-2.2-2.3-4.3-2.3-6.3
				c-0.1-2,0.5-3.9,1.8-5.5c1.9-2.6,4.4-3.8,7.4-3.8c3.1,0,6.5,1.2,10.1,3.5c3,1.8,6.5,4.3,10.6,7.4c0.6,0.5,0.7,1.2,0.3,1.9
				c-0.8,1.3-1.8,2.7-2.9,4.3c-1.2,1.6-2.3,3-3.4,4.3c-0.3,0.3-0.6,0.5-1,0.5c-0.4,0-0.8-0.1-1.1-0.3c-3.4-3-5.8-5.1-7.2-6.1
				c-1.4-1-2.9-1.6-4.3-1.7c-1.4-0.1-2.5,0.3-3.3,1.4c-0.8,1-0.9,2.2-0.4,3.6c0.5,1.4,1.5,2.6,2.9,3.7c2.3,1.6,4.9,3.4,7.9,5.3
				c0.4,0.2,0.6,0.5,0.6,0.9c0.1,0.4,0,0.8-0.2,1.1C104.4,165.7,103.4,167.2,102,168.9z"/>
		</g>
		<g>
			<path class="st1" d="M131.6,138.9c-1.5,1-2.9,1.8-4.4,2.3c-1.4,0.5-2.9,0.7-4.3,0.7c-1.4,0-2.8-0.4-4-1.2
				c-1.3-0.8-2.5-1.9-3.5-3.3c-2.1-3-3.6-5.4-4.6-7.3c-0.1-0.2-0.2-0.3-0.4-0.3c-0.2,0-0.4,0-0.5,0.2c-0.8,0.5-1.3,0.9-1.7,1.3
				c-0.3,0.2-0.7,0.3-1,0.2c-0.4-0.1-0.7-0.3-0.9-0.6c-0.3-0.5-0.7-0.9-1.1-1.5c-0.4-0.5-0.8-1.1-1.2-1.7c-0.5-0.6-0.8-1.1-1-1.5
				c-0.2-0.3-0.3-0.7-0.2-1.1c0.1-0.4,0.2-0.7,0.6-0.9l2.1-1.4c0.2-0.1,0.3-0.3,0.3-0.4c0-0.2,0-0.4-0.1-0.5c-1-1.6-1.8-2.9-2.4-3.9
				c-0.2-0.3-0.2-0.7-0.2-1c0.1-0.4,0.2-0.7,0.5-0.9c0.1-0.1,1.3-1,3.5-2.7c2-1.4,3.5-2.4,4.6-3c0.4-0.2,0.8-0.2,1.2-0.2
				c0.4,0.1,0.7,0.3,0.9,0.7c0.9,1.8,1.5,3,1.9,3.6c0.2,0.2,0.4,0.4,0.6,0.5c0.2,0.1,0.4,0.1,0.6-0.1c0.6-0.4,1.4-1,2.6-1.9
				s2-1.5,2.6-1.9c0.3-0.2,0.7-0.3,1.1-0.2c0.4,0.1,0.7,0.3,1,0.6l3.3,4.7c0.2,0.3,0.3,0.7,0.3,1.1c-0.1,0.4-0.2,0.7-0.6,0.9
				c-1.8,1.1-3.4,2.1-4.7,3.1c-0.9,0.6-1.1,1.3-0.6,2.2c0.9,1.5,1.9,2.9,3,4.3c0.6,0.8,1.4,1.2,2.3,1.2c0.9,0,1.8-0.3,2.7-0.9
				c0.4-0.3,0.9-0.7,1.4-1.3c0.5-0.6,0.8-1.1,1.1-1.5c0.1-0.5,0.4-0.7,0.9-0.8c0.5-0.1,0.9,0.2,1.2,0.6c1.1,1.5,2.4,3.4,4,5.7
				c0.5,0.7,0.6,1.5,0.1,2.1C136.2,135.2,134.1,137.2,131.6,138.9z"/>
		</g>
		<g>
			<path class="st1" d="M154.8,127.9c-1.8,0.6-3.5,1-5.1,1.2c-1.6,0.2-3.1,0.2-4.6-0.1c-1.5-0.2-2.8-0.7-4-1.4
				c-1.2-0.7-2.3-1.7-3.2-3c-1-1.3-1.7-2.9-2.3-4.7c-1.4-4.4-1.2-8.3,0.8-11.9c1.9-3.5,5.1-6,9.6-7.5c4.5-1.5,8.5-1.3,12.2,0.4
				c3.6,1.7,6.2,4.7,7.6,9.1c0.7,2.3,1,4.4,0.9,6.3c-0.2,1.9-0.8,3.6-1.8,5.1c-1,1.4-2.4,2.7-4,3.8
				C159,126.3,157.1,127.2,154.8,127.9z M148.6,118.9c1.1,0.7,2.2,0.8,3.4,0.4c1.2-0.4,2-1.2,2.5-2.3c0.5-1.2,0.4-2.5-0.1-4.1
				c-0.5-1.5-1.3-2.7-2.4-3.4c-1.1-0.7-2.2-0.9-3.4-0.5c-1.2,0.4-2,1.2-2.5,2.4c-0.4,1.2-0.4,2.6,0.1,4.1
				C146.8,117.2,147.5,118.3,148.6,118.9z"/>
		</g>
	</g>
</g>
</svg>
