<?xml version="1.0" encoding="utf-8"?>
<!-- Generator: Adobe Illustrator 24.3.0, SVG Export Plug-In . SVG Version: 6.00 Build 0)  -->
<svg version="1.1" id="Layer_1" xmlns="http://www.w3.org/2000/svg" xmlns:xlink="http://www.w3.org/1999/xlink" x="0px" y="0px"
	 viewBox="0 0 1080 1080" style="enable-background:new 0 0 1080 1080;" xml:space="preserve">
<style type="text/css">
	.st0{fill:#00008B;}
	.st1{fill:#00008B;stroke:#00008B;stroke-width:21.1213;stroke-miterlimit:10;}
</style>
<g>
	<g>
		<path class="st0" d="M313.3,380.8c9.7-11.5,23.6-26.8,41.7-39.9c18-13.2,36.8-20.6,51-23.6c14.2-3.1,23.7-2.6,24.3-5.1
			c0.2-1.1-1.9-2.8-6.3-4.3c-4.4-1.5-11-2.8-19.3-2.6c-8.3,0.1-18.1,1.7-28.5,5.3c-10.3,3.6-21.1,9.1-31.2,16.5
			c-20.3,14.7-33.9,33-41.6,47c-7.7,14.1-9.8,24-7.7,25C297.8,400,303.6,392.3,313.3,380.8z"/>
		<path class="st0" d="M343.9,296.2c4.1-2.1,9.1-4.4,14.7-6.6c5.6-2.1,11.9-4.2,18.6-5.8c6.7-1.5,13.3-2.4,19.3-3
			c6-0.4,11.5-0.6,16.1-0.5c9.3,0.1,15.4,0.5,16.1-1.5c0.6-1.8-4.6-5.8-14.6-8.7c-5-1.5-11.1-2.4-18-2.7c-6.9-0.2-14.5,0.5-22.2,2.2
			c-7.7,1.8-14.8,4.6-21,7.8c-6.1,3.3-11.2,6.8-15,10.3c-7.7,7-10.6,12.9-9.3,14.2C330.2,303.4,335.6,300.4,343.9,296.2z"/>
		<path class="st0" d="M708.2,788c-6.2,6.7-13.9,14.3-22.6,22.4c-8.9,8-18.9,16.4-30,24.6c-11.1,8.1-22.2,15.1-32.5,21.2
			c-10.4,5.9-20,10.9-28.2,14.8c-16.4,7.9-27,12.3-26.5,14.4c0.5,1.8,12.2,0.9,30.3-4.8c9-2.8,19.5-7,30.7-12.6
			c11.2-5.7,23.1-12.7,34.8-21.2c11.7-8.6,22-17.8,30.7-26.8c8.7-9.1,15.9-17.8,21.3-25.5c10.9-15.5,15.3-26.4,13.7-27.4
			C728.1,765.9,720.7,774.7,708.2,788z"/>
		<path class="st0" d="M592.7,904.2c-33.7,16.4-64.7,20.8-64.3,25.1c0.1,1.9,8.3,3.3,21.4,2.2c6.6-0.6,14.3-1.9,22.7-4.2
			c8.4-2.3,17.5-5.6,26.6-9.9c9.1-4.4,17.3-9.4,24.4-14.5c7-5.2,13-10.3,17.5-15.1c9.1-9.5,13.1-16.7,11.7-18
			C649.4,866.9,626.6,888.2,592.7,904.2z"/>
		<path class="st0" d="M324.7,399C34.9,699.9,576.4,1054.7,736.4,667.7C826.5,424.5,509.7,219.3,324.7,399z M576.5,376.7
			c62,23.7,107.3,72.2,128.9,129.9C558.6,567.7,497.7,469.9,397.2,386C451.1,358.8,515.8,353.5,576.5,376.7z M418.1,791.8
			c-87.8-33.5-142.1-116.9-143-205.6c82.5,55.2,154.6,180.9,271.4,142.8c46.3-13,91.6-25.1,137.8-24.8
			C628.7,790.9,518,830,418.1,791.8z M704.8,663.5c-88.5-7.6-185.6,64.4-269,3.8c-57.6-36.7-96.3-97.6-156-128.8
			c9.3-38.2,47.6-134.2,89.5-119.1C500.5,523,528.4,610.6,715.5,543.1C723,582.2,720,623.7,704.8,663.5z"/>
	</g>
</g>
</svg>
