<?xml version="1.0" encoding="utf-8"?>
<!-- Generator: Adobe Illustrator 24.3.0, SVG Export Plug-In . SVG Version: 6.00 Build 0)  -->
<svg version="1.1" id="Layer_1" xmlns="http://www.w3.org/2000/svg" xmlns:xlink="http://www.w3.org/1999/xlink" x="0px" y="0px"
	 viewBox="0 0 1080 1080" style="enable-background:new 0 0 1080 1080;" xml:space="preserve">
<style type="text/css">
	.st0{fill:#00008B;}
	.st1{fill:#00008B;stroke:#00008B;stroke-width:21.1213;stroke-miterlimit:10;}
</style>
<g>
	<path class="st0" d="M434.2,793.6c-15.3-141.5-202.8-143.7-220.7-0.9c-109,38.8-43.5-285.4-60.3-352.5
		c-25.8-93.9,430.8-28.9,508.2-47c45.6-5.1,1.9,58.9,49.4,48.6c24.9,2.9,57.4-9.5,73.1,16.2c43.5,58.3,78.7,131.5,149.3,160.3
		c38.5,37.3,8.6,110,17.4,160c1.2,27-36,12.5-52.6,15.9c-15.9-144.2-206.7-139.5-220.4-0.5C596.5,793.6,515.3,793.6,434.2,793.6z
		 M699.9,550c42.7,0,84.8,0,129,0c-26-30.1-39.7-73.7-72.8-92.3C677.7,441.2,703.5,493.7,699.9,550z"/>
	<g>
		<path class="st0" d="M577.5,516.9l-29.2,0.2c0,0-0.1,0-0.1-0.1l0-0.1c0,0,0-0.1-0.1-0.1l-5.3,0.3c0,0,0,0,0,0l-3.6,0
			c0,0-0.1,0-0.1,0.1l0,0.1c0,0,0,0.1-0.1,0.1l-27.7,1.6c0,0-0.1,0-0.1,0.1l-0.3,3.1c0,0.1-0.1,0.1-0.1,0.1
			c-2.7-1.7-6.2-2.6-10.3-2.6l-0.2,0c-2.1,0-4.2,0.1-6.1,0.3c-1.8,0.1-3.4,0.3-4.9,0.5c-1.7,0.2-3.3,0.5-4.7,0.7l-3.8,0.7
			c0,0-0.1,0-0.1,0.1l-0.2,1.7c0,0.1-0.1,0.1-0.1,0.1c-2-1.2-4.4-1.9-7-1.9c-0.1,0-0.3,0-0.4,0c-1.6,0-3.4,0.1-5.4,0.3
			c-1.9,0.1-3.8,0.3-5.5,0.5c-0.6,0.1-1.2,0.1-1.8,0.2c-0.1,0-0.1,0-0.1-0.1l0.1-0.3c0,0,0-0.1-0.1-0.1l-36.7,2.2c0,0-0.1,0-0.1,0.1
			l-0.2,1.5c0,0,0,0.1-0.1,0.1l-29.1,0.2c0,0-0.1,0-0.1,0.1l-0.3,2.7c0,0-0.1,0.1-0.1,0.1c-1-0.4-2.1-0.8-3.4-1.2
			c-1.6-0.4-3.4-0.6-5.4-0.6c-1.1,0-2.3,0.1-3.6,0.2c-3.3,0.3-6.1,1-8.5,2.1c-2.4,1.1-4.4,2.6-6,4.3c-0.2,0.3-0.4,0.5-0.6,0.8
			c0,0.1-0.1,0-0.1,0l-0.1-6.8c0,0,0-0.1-0.1-0.1l-27,3.3c0,0-0.1,0-0.1,0.1l-0.2,0.7c0,0,0,0.1-0.1,0.1l-14-1.1c0,0-0.1,0-0.1,0
			l-4.3,8c0,0.1-0.1,0-0.1,0l-1.8-8.5c0,0,0-0.1-0.1-0.1l-21.3,4c0,0-0.1,0-0.1,0.1l-5.2,37.8c0,0,0,0.1,0,0.1
			c1.4,0.8,2.8,1.9,4.1,2.8c1.7,1.1,3.4,2.3,5.2,3.4c0,0,0,0,0.1,0l3.7-0.8c0,0,0.1,0,0.1,0.1l0,0c0,0,0,0.1,0.1,0.1l10.3-0.2
			c0,0,0.1,0,0.1,0.1l-0.2,1.2c0,0,0,0.1,0.1,0.1l18.5-0.7c0,0,0.1,0,0.1-0.1l0.3-1.3c0,0,0-0.1,0.1-0.1l7.4,0c0,0,0.1,0,0.1,0
			l2.3-6.1c0,0,0,0,0.1,0l1.9,0c0,0,0.1,0,0.1,0.1l0.9,6.5c0,0,0,0.1,0.1,0.1l20.2-2.5c0,0,0.1,0,0.1-0.1l0-1.5
			c0-0.1,0.1-0.1,0.1-0.1c0.7,0.4,1.5,0.7,2.4,1c1.6,0.5,3.4,0.8,5.5,0.8c1.1,0,2.3-0.1,3.5-0.2c2.7-0.3,5.1-0.8,7.1-1.5
			c2.1-0.7,3.9-1.7,5.5-2.7c1.6-1.1,2.9-2.3,4-3.7c0.2-0.2,0.4-0.5,0.5-0.7c0-0.1,0.1,0,0.1,0.1l-1.5,8.3c0,0.1,0,0.1,0.1,0.1
			l23.1-3.7c0,0,0,0,0.1,0v0l1.2,2.2c0,0,0,0,0,0l0,0.1l0-0.1c0,0,0,0,0,0l25-3.9c0.1,0,0.1,0,0.1,0.1l-0.3,1.4c0,0,0,0.1,0.1,0.1
			l20-2.5c0,0,0.1,0,0.1,0.1l-0.2,1.2c0,0,0,0.1,0.1,0.1l13.2-1.4c0,0,0.1,0,0.1,0.1l-0.1,1.5c0,0,0,0.1,0.1,0.1l19.1-3.7
			c0,0,0.1,0,0.1-0.1l1.5-7.6c0,0,0-0.1,0.1-0.1c0.1,0,0.1,0,0.2,0c1.1,0,2.3-0.2,3.5-0.5c1.6-0.4,3.2-1,4.8-1.8
			c0.6-0.3,1.2-0.7,1.8-1.1c0.1,0,0.1,0,0.1,0.1l-1.3,12.2c0,0,0,0.1,0.1,0.1l32.3-5.1c0,0,0,0,0,0l0,0l7.1,2.8l16.6-3.5
			c0,0,0,0,0,0c0,0,0,0,0-0.1l3.1-26.7c0,0,0-0.1,0.1-0.1l8-1.4c0,0,0.1,0,0.1-0.1L577.5,516.9C577.5,516.9,577.5,516.9,577.5,516.9
			z"/>
		<g>
			<path class="st0" d="M293.9,571.2l4.9-35.3l12.7-2.4l3.8,17.4l9.5-17.5l8.9,0.7l-7.2,36.2l-8,0.3l3.3-17.4l-8.3,16.2l-7.1,0.1
				l-3-18.1l-3.4,18.4L293.9,571.2z"/>
			<path class="st0" d="M335,568.9l-5.6,0l10.8-35.7l18-2.2l0.6,36.4l-10.5,1.3l-0.8-6.2l-10.2,0.2L335,568.9z M346.7,556l-1.9-13.8
				l-5.5,14.9L346.7,556z"/>
			<path class="st0" d="M361.1,559.1l9.3-4.2c0.4,0.9,0.8,1.6,1.4,2.3c0.5,0.6,1.1,1.1,1.9,1.6c0.8,0.5,1.7,0.7,2.8,0.7
				c1,0,1.9-0.2,2.6-0.8c0.7-0.6,1.2-1.3,1.3-2.1c0.2-0.8,0-1.5-0.5-2.3c-0.5-0.7-1.4-1.2-2.9-1.5c-0.6-0.1-1.3-0.2-2.1-0.4
				c-0.9-0.1-1.8-0.3-2.7-0.6c-1-0.2-1.9-0.6-2.8-1c-0.9-0.4-1.8-1-2.5-1.7c-0.7-0.7-1.3-1.5-1.7-2.5c-0.4-1-0.5-2.2-0.4-3.6
				c0.1-1.5,0.5-2.9,1-4.4c0.5-1.5,1.3-2.8,2.4-4c1.1-1.2,2.5-2.2,4.3-3.1c1.8-0.8,4-1.4,6.7-1.6c3-0.3,5.3-0.2,7.2,0.3
				c1.8,0.5,3.2,1.1,4.2,1.7c1.2,0.8,2,1.8,2.5,2.9l-6,6.9c-0.7-1-1.5-1.9-2.4-2.7c-0.8-0.7-1.7-1.2-2.7-1.7c-1-0.5-2.2-0.6-3.4-0.4
				c-0.7,0.1-1.3,0.4-1.8,0.8c-0.5,0.4-0.8,0.8-0.9,1.3c-0.1,0.5,0.1,1,0.5,1.4c0.4,0.5,1.1,0.9,2.1,1.2c0.5,0.1,1.1,0.3,2,0.5
				c0.8,0.2,1.7,0.4,2.6,0.7c0.9,0.3,1.9,0.7,2.9,1.2c1,0.5,1.8,1.1,2.6,1.9c0.8,0.8,1.4,1.7,1.9,2.8c0.5,1.1,0.7,2.4,0.7,4
				c0,0.6-0.1,1.4-0.3,2.3c-0.2,0.9-0.5,1.8-0.9,2.7c-0.4,0.9-1,1.9-1.8,2.8c-0.8,0.9-1.7,1.8-2.9,2.6c-1.2,0.8-2.6,1.5-4.3,2.1
				c-1.7,0.6-3.6,1-5.9,1.3c-2.9,0.3-5.1,0.2-6.8-0.3c-1.7-0.5-3-1.2-4-2.1c-0.9-0.9-1.6-1.8-2.1-2.8
				C361.8,560.4,361.4,559.7,361.1,559.1z"/>
			<path class="st0" d="M395,539.6l1.1-10.8l27-0.2l-1.6,6.5l-8.6,1.5l-3.1,26.8l-12.1,1.9l5-27.1L395,539.6z"/>
			<path class="st0" d="M425.6,526.8l25.6-1.5l-2.3,10.4l-13.9,0l-1.3,5.8l7.6-2.8l-1.3,7.6c-0.9,0-1.8-0.1-2.7-0.1
				c-0.8-0.1-1.6-0.1-2.4-0.2c-0.8-0.1-1.5-0.1-2.1-0.1c-0.1,0.4-0.1,0.8-0.2,1.3c-0.1,0.5-0.2,1-0.3,1.6c-0.1,0.6-0.2,1.1-0.3,1.6
				c-0.1,0.5-0.2,1-0.3,1.5l14.3-4.1l-2.3,12.8l-22,3.5L425.6,526.8z"/>
			<path class="st0" d="M447.1,561.8l7.1-36c2-0.2,4-0.4,5.9-0.6c1.7-0.2,3.5-0.3,5.3-0.5c1.9-0.1,3.6-0.2,5.1-0.2
				c1.9,0,3.5,0.3,4.8,1.2c1.3,0.8,2.3,1.9,3,3.3c0.7,1.4,1.1,2.9,1.2,4.6c0.1,1.7-0.2,3.5-0.8,5.3c-0.5,1.6-1.2,3-2,4
				c-0.8,1.1-1.6,2-2.4,2.7c0.5,0.3,1,0.6,1.5,1c0.5,0.4,0.9,0.8,1.1,1.2c0.2,0.3,0.4,0.8,0.5,1.3c0.1,0.5,0.1,1.1,0.2,1.7
				c0,0.6,0,1.3,0,2c0,0.7-0.1,1.4-0.2,2c-0.2,1.6-0.4,3.2-0.8,5l-9.8,1c0.2-1.3,0.3-2.6,0.4-3.9c0-1.1-0.1-2.1-0.2-3.2
				c-0.1-1.1-0.5-2.1-1.1-2.8c-0.3-0.3-0.6-0.6-1-0.8c-0.4-0.2-0.9-0.3-1.4-0.4c-0.5-0.1-1-0.1-1.6-0.1c-0.5,0-1.1,0-1.5,0.1
				l-0.9,10.6L447.1,561.8z M461,541.5c0.7-0.1,1.5-0.2,2.3-0.4c0.8-0.2,1.5-0.5,2.2-1c0.7-0.4,1.2-1,1.6-1.7
				c0.4-0.7,0.6-1.5,0.6-2.6c0-0.8-0.2-1.4-0.6-1.8c-0.4-0.4-0.9-0.7-1.5-0.9c-0.6-0.2-1.2-0.3-1.9-0.3c-0.7,0-1.4,0-2,0.1
				L461,541.5z"/>
			<path class="st0" d="M483,523.6c1.4-0.3,2.8-0.5,4.4-0.7c1.3-0.2,2.9-0.3,4.7-0.5c1.8-0.1,3.7-0.2,5.7-0.3c4.3,0,7.5,1,9.4,3.2
				c2,2.2,2.6,5.4,1.8,9.6c-0.5,2.7-1.1,4.9-2,6.6c-0.9,1.8-1.8,3.2-2.9,4.4c-1.1,1.2-2.2,2-3.5,2.6c-1.2,0.6-2.5,1.1-3.8,1.4
				c-1.3,0.3-2.5,0.4-3.6,0.1c-1.1-0.2-2.1-0.5-2.9-0.9l-1.8,9.5l-9,1.7L483,523.6z M500,535.6c0.4-1.5,0.5-2.6,0.2-3.5
				c-0.2-0.8-0.7-1.5-1.2-1.9c-0.6-0.4-1.3-0.7-2.1-0.8c-0.8-0.1-1.7-0.1-2.5,0l-2.2,11.4c0.6,0,1.3,0,2.1-0.1
				c0.8-0.1,1.5-0.3,2.3-0.7c0.7-0.4,1.4-0.9,2-1.6C499.2,537.7,499.6,536.8,500,535.6z"/>
			<path class="st0" d="M513.5,521.3l25.6-1.5l-2.3,10.4l-13.9,0l-1.3,5.8l7.6-2.8l-1.3,7.6c-0.9,0-1.8-0.1-2.7-0.1
				c-0.8-0.1-1.6-0.1-2.4-0.2c-0.8-0.1-1.5-0.1-2.1-0.1c-0.1,0.4-0.1,0.8-0.2,1.3c-0.1,0.5-0.2,1-0.3,1.6c-0.1,0.6-0.2,1.1-0.3,1.6
				c-0.1,0.5-0.2,1-0.3,1.5l14.3-4.1l-2.3,12.8l-22,3.5L513.5,521.3z"/>
			<path class="st0" d="M540.1,530.5l1.1-10.8l27-0.2l-1.6,6.5l-8.6,1.5l-3.1,26.8l-12.1,1.9l5-27.1L540.1,530.5z"/>
		</g>
	</g>
	<path class="st0" d="M403,791c1.8,105.5-165.3,105.6-163.4-0.2C237.9,684.3,405.1,684.5,403,791z M320.3,844.1
		c70.3,1.6,70.3-107.5,1.1-107.2C251.9,735.3,250.5,844.8,320.3,844.1z"/>
	<path class="st0" d="M787.8,872.2c-105.9,1.2-105.1-165.2,0.7-163.3C894.7,707.6,894.9,874.5,787.8,872.2z M787.4,844.2
		c70.1,1.3,70.7-107.1,1-107.2C718.6,735.6,717.3,844.4,787.4,844.2z"/>
	<g>
		<path class="st0" d="M557,819c-143.4-0.2-143.4,9.6,0,9.4C700.4,828.6,700.4,818.8,557,819z"/>
		<path class="st0" d="M204.9,817.5c-7.8,1.1-79.8-4.4-49.2,7C163.3,830.4,237.8,824,204.9,817.5z"/>
		<path class="st0" d="M281.6,874.2c-14,5.4-49.9-49.2-37.4-21.4C252.7,887.3,309.7,879.8,281.6,874.2z"/>
		<path class="st0" d="M251.9,875.8c-12.5-12.7-17.8-5.4-4.9,5.5C259.6,892.3,266.7,886.6,251.9,875.8z"/>
		<path class="st0" d="M844.3,869.5c-23.3,18.5-72.1,22.1-98.2,12.8C765.9,906.5,831.9,900.2,844.3,869.5z"/>
	</g>
</g>
</svg>
