<svg xmlns="http://www.w3.org/2000/svg" viewBox="0 0 1080 1080"><path d="M438.277,688.187a44.171,44.171,0,0,0-2.947-3.472l-.014-.015a53,53,0,0,0-50.45-15.26h-.015a49.267,49.267,0,0,0-12.838,5.018c-9.979,5.6-19.448,12.081-29.179,18.106h-.014l-1.751,1.094a.862.862,0,0,0-.1.058c-3.4,2.072-6.857,4.085-10.373,6-1.518.832-3.035,1.635-4.581,2.393q-1.729.81-2.5,1.182c-1.984.511-3.866.89-4.333,1.021-.715.19-1.328.35-1.9.5,1.124-.189,2.086-.277,2.159,0a11.052,11.052,0,0,1-2.319.044c-.686.175-1.255.321-1.722.438-1.065.262-1.59.394-1.765.408a13.391,13.391,0,0,1,1.736-.481c.525-.131,1.123-.263,1.692-.365-.583-.015-1.225-.044-1.925-.073-1.036-.029-2.174-.087-3.268-.131h-.132c-1.371-.073-2.7-.146-3.706-.205-.962-.058-1.663-.1-1.867-.131a30,30,0,0,0-10.665.832,70.889,70.889,0,0,0-12.62-.774c-.174,0-.335.015-.5.03-.774.015-1.532.058-2.291.116a.389.389,0,0,0-.131.015,52.5,52.5,0,0,0-29.733,11.38,56.389,56.389,0,0,0-19.915,36.415,54.072,54.072,0,0,0-.277,9.337v.015c.058,1.035.146,2.057.277,3.092.029.365.073.715.131,1.08A59.89,59.89,0,0,0,253.5,804.989c16.821,12.985,36.692,12.46,56.84,12.605,14.56.1,28.988.19,43.344-3.049,13.671-3.078,26.757-9.8,38.794-16.88,12.342-7.251,23.678-15.625,32.826-25.5a94.575,94.575,0,0,0,6.7-8.038l.015-.015a78.466,78.466,0,0,0,15.45-38.764c.073-.715.146-1.43.2-2.159.146-1.692.234-3.414.277-5.165A46.559,46.559,0,0,0,438.277,688.187ZM324.189,703.112c.977-.409,2.509-1.065,4.61-1.984C328.58,701.784,326.421,702.513,324.189,703.112Z" fill="#ffb4e7"/><path d="M317.29,704.805l-.227.041.066,0Z" fill="#ffb4e7"/><path d="M415.509,545.175c3.569,6.55,7.111,13.105,10.679,19.654,2.912-12.065,8.453-22.369,13.05-32.962,5.25-12.089,3.283-23.574-6.6-30.831a30.621,30.621,0,0,0-12.715-4.984,124.128,124.128,0,0,1-30.135-8.872c-4.308-1.908-9.091-2.7-13.63-4.119a135.5,135.5,0,0,1-13.464-4.435c-4.568-1.929-8.522-2.53-12.387,1.342-2.917,2.93-6.7,2.847-10.585,2.524-4.479-.36-9.169-1.268-13.552-.884a31.845,31.845,0,0,0-4,.343c-.61.091-1.242.2-1.907.348-1.732.367-2.976.813-3.347.9-20.131,5.228-32.232,4.328-42.895,3.522-9.088-.682-16.909-1.275-27.911,2.027-5.937,1.782-9.137,3.6-14.01,6.354-2.05,1.145-4.379,2.451-7.273,3.956-4.523,2.342-8.334,4.2-24.393,10.9-1.583.648-3.109,1.294-4.59,1.9l-1.5.64c-.017-.009-.04.011-.066.018q-4.331,1.545-8.56,3.547c-.85.389-1.681.8-2.522,1.225a38.379,38.379,0,0,0-11.01,8.833c-4.522,5.1-9.684,8.175-16.473,8.588-3.36.2-6.438,1.409-7.606,4.63-4.179,11.475-12.654,19.986-19.915,29.343-4.686,6.023-9.517,11.979-13.839,18.239-7.684,11.164-5.334,24.516,5.215,32.936,3.884,3.107,7.25,6.835,11.1,9.979,4.587,3.748,9.454,7.187,14.765,11.2-.366-9.667-.7-18.3-1.039-26.937l1.054-.27c.659,2.49,1.96,5,1.892,7.467-.28,10.579,1.553,20.792,3.929,31.028.574,2.487-.027,5.264.515,7.788.335,1.541,1.8,3.98,2.792,4,1.576.028,4.21-1.349,4.579-2.642,1.074-3.655,1.946-7.63,1.584-11.365-1.369-14.48-2.792-29-5.073-43.355-2.558-16.145-2.45-31.594,5.218-46.674,3.039-5.952,4.3-12.806,6.464-19.552.164,1.481.725,3.12.407,4.548-1.041,4.725-1.835,9.624-3.73,14.024a84.626,84.626,0,0,0-6.584,25.491c-.043.5-.089.985-.12,1.479l0,.013a93.7,93.7,0,0,0,1.237,23.881c.177.977.357,1.968.567,2.962a357.493,357.493,0,0,1,5.193,36.565c.427,4.473-1.108,9.3-2.429,13.779a6.65,6.65,0,0,1-1.719,2.619,14.872,14.872,0,0,1-2.673,2.092,2.239,2.239,0,0,1,.072.3c.366,2.8.68,5.619,1.007,8.433,1.33,11.435,2.688,23.269,6.192,34.35a64.931,64.931,0,0,0,3.521,8.886c.121.277.254.55.384.81a66.416,66.416,0,0,0,12.192,17.105c.342.363.694.71,1.063,1.065q1.753,1.718,3.654,3.349c.294.242.588.484.87.729.387.323.771.634,1.181.937.515.422,1.052.825,1.593,1.24.286.216.59.442.89.654,1.248.92,2.54,1.8,3.882,2.651.193.134.4.252.6.383.719.446,1.471.91,2.246,1.354.595.359,1.216.711,1.848,1.047a2.83,2.83,0,0,0,.252.144c.668.366,1.349.729,2.027,1.079.033.017.063.022.08.031.464.247.959.5,1.431.719.378.19.77.377,1.161.563.116.063.242.109.362.182.4.159.789.346,1.194.529,2.4,1.082,4.84,2.041,7.326,2.9.394.145.784.279,1.184.4q1.524.524,3.066.96c.329.111.662.192,1,.3,1.147.312,2.307.62,3.473.9.439.105.879.211,1.331.313.093.028.195.04.3.065.455.114.917.2,1.4.295,1,.2,2.02.4,3.046.588.5.075,1.023.171,1.521.234,1.263.225,2.509.387,3.778.529.554.061,1.081.129,1.641.16.412.059.817.094,1.252.134.856.082,1.735.145,2.594.187.521.042,1.034.06,1.551.09s1.043.043,1.556.061,1.036.02,1.546.024c.458.02.908.015,1.358.009.142,0,.3.011.454.008.395,0,.8-.011,1.206-.03,1.055-.013,2.1-.052,3.162-.107.322-.01.64-.031.975-.045,1.485-.094,2.959-.225,4.425-.383.548-.059,1.1-.119,1.624-.2.246-.029.479-.055.722-.1.426-.04.82-.1,1.236-.173.354-.046.692-.1,1.029-.156.571-.079,1.125-.167,1.685-.284a.736.736,0,0,0,.164-.02c.681-.138,1.34-.256,2.021-.394l.17-.048c.581-.1,1.154-.217,1.736-.354.675-.163,1.352-.313,2.023-.489l.1-.03c.727-.177,1.476-.375,2.2-.577l.5-.14a27.617,27.617,0,0,1-6.374-10.34,2.064,2.064,0,0,1,3.887-1.392c.114.3.222.586.336.892.079.18.158.361.241.554.2.469.406.939.628,1.376.1.189.184.354.284.556.214.412.443.82.694,1.21a7.718,7.718,0,0,0,.414.667.8.8,0,0,0,.142.2,4.649,4.649,0,0,0,.422.6,11.22,11.22,0,0,0,.833,1.1c.172.209.34.4.525.609a17.971,17.971,0,0,0,1.807,1.8c.207.184.411.356.628.525a12.163,12.163,0,0,0,1.061.809,5.519,5.519,0,0,0,.547.387,1.146,1.146,0,0,0,.153.092c.21.144.449.292.685.428.326.205.675.391,1.011.58.2.106.4.212.595.306s.391.187.587.281c.292.134.577.242.882.373a3.788,3.788,0,0,0,.507.2,4.259,4.259,0,0,0,.46.18,28.6,28.6,0,0,0,3.393,1.017c.284.056.571.123.855.178a8.558,8.558,0,0,0,.865.162c.33.069.64.117.976.158.3.063.607.1.914.134.3.051.6.074.9.1.238.041.468.057.715.082.086,0,.171.006.244.012,12.009.522,25.419-2.852,26.2-3.045,7.385-1.906,13.789-3.534,19.375-5.108l.039-.011c.612-.187,1.223-.372,1.831-.57.987-.306,1.957-.62,2.947-.967,1.062-.34,2.13-.708,3.182-1.085.542-.18,1.068-.368,1.594-.557s1.048-.391,1.58-.608c.529-.175,1.064-.381,1.57-.592.522-.2,1.041-.414,1.559-.628.474-.174.927-.369,1.394-.568.369-.145.74-.33,1.1-.487.343-.137.669-.283,1-.445.379-.161.767-.338,1.138-.524.365-.157.736-.342,1.1-.512.593-.3,1.163-.585,1.746-.87.446-.221.885-.466,1.311-.708l.186-.093c.332-.174.657-.374.985-.561.111-.058.2-.11.306-.167.023-.02.049-.027.059-.044.546-.317,1.079-.628,1.606-.966.516-.321,1.026-.668,1.552-1q1.636-1.11,3.115-2.325c.366-.3.722-.595,1.058-.9a31.637,31.637,0,0,0,2.672-2.645,5.5,5.5,0,0,0,.383-.446c.225-.252.434-.514.646-.763l-.024-.088a2.195,2.195,0,0,1,.622-1.648,2.009,2.009,0,0,1,.885-.52l.13-.037a20.863,20.863,0,0,0,3.2-10.761q2.088-.7,4.146-1.469a24.735,24.735,0,0,1-1.959,10.9q2.719-.724,5.371-1.635l.105-.03a133.5,133.5,0,0,0,16.562-7.37,88.7,88.7,0,0,0,16.363-11.936A83.424,83.424,0,0,0,423.7,703.1c1.482-1.756,2.9-3.6,4.212-5.5a79.543,79.543,0,0,0,4.864-7.844c.153-.259.292-.515.429-.783.667-1.242,1.3-2.5,1.874-3.772.143-.3.288-.581.421-.862,1.179-2.629,2.252-5.337,3.179-8.111,9.431-28.416-1.134-57.385-10.443-82.952-.5-1.371-1-2.757-1.506-4.143a18.521,18.521,0,0,1-1.232-4.071c-.05-.324-.24-.8-.28-1.192-10.09-2.683-17.814-9.2-23.795-17.24q-1.845-2.486-3.631-5.019a19.167,19.167,0,0,0-10.366-15.625c-.4-.634-.8-1.262-1.195-1.9q-1.961-3.2-3.869-6.411c-.58-.958-1.151-1.932-1.722-2.906a117.646,117.646,0,0,0-6.449-9.953,84.019,84.019,0,0,0-5.89-7.273c-.1-.094-.2-.212-.286-.311-.523-.555-1.046-1.11-1.593-1.646a59.638,59.638,0,0,0-13.585-10.374c-4.038-2.253-7.1-6.4-10.25-10.017-1.026-1.183-.946-3.354-.586-5.483.42.287,1.055.485,1.274.911,2.726,5.164,7.2,8.5,11.989,11.527,11.736,7.422,19.781,18.129,27.037,29.6l.164.279c1.943,3.087,3.863,6.194,5.791,9.327,4.548,7.367,9.1,14.759,14.052,21.851a42.376,42.376,0,0,0,20.289,16.026c3.05,1.1,6.409,1.4,10.08,2.145-.064-5.089-2.758-7.831-5.177-10.554-4.855-5.551-9.9-10.939-12.039-18.216a59.706,59.706,0,0,1-1.239-7C414.631,545.464,415.068,545.314,415.509,545.175Z" fill="#ffb4e7"/><path d="M244.329,619.424a.325.325,0,0,1-.044.093.681.681,0,0,1-.567.295,4.176,4.176,0,0,1-1.726-.365c-4.436-1.561-14.419-7.571-25.321-4.364-13.971,4.087-18.607,20.055-20.873,19.032-2.335-1.072-.191-18.919,12.634-26.373a24.937,24.937,0,0,1,13.3-3.22c11.9.472,20.977,9.548,22.474,13.5A1.957,1.957,0,0,1,244.329,619.424Z" fill="#00008b"/><path d="M382.979,581.782c-1.477,2.227-13.8-8.489-27.614-4.434-11.323,3.312-16.509,14.423-19.282,17.962a4.658,4.658,0,0,1-.8.861.733.733,0,0,1-.789.209.92.92,0,0,1-.321-.289,2.5,2.5,0,0,1-.336-.892c-.947-4.26,2.091-18.684,13.278-25.188a24.965,24.965,0,0,1,13.311-3.224C374.317,567.331,384.352,579.639,382.979,581.782Z" fill="#00008b"/><path d="M406.444,607.407c-.021.276-.085.552-.128.848a2.807,2.807,0,0,1-.583,1.19,3.312,3.312,0,0,1-.989.9,3.43,3.43,0,0,1-1.358.491,1.465,1.465,0,0,1-.341.042,77.372,77.372,0,0,1-6.08,28.132,70.379,70.379,0,0,1-5.784,10.941c0,.013,0,.013-.01.017a88.286,88.286,0,0,1-23.914,44.97,96.473,96.473,0,0,1-15.223,12.574l0,.066c-.645.316-1.294.622-1.942.926-.545-1.482-1.173-3.008-1.865-4.611-.419-.989-.867-2.025-1.334-3.083-.12-.276-.241-.553-.358-.817q-.474-1.085-.907-2.016c-.03-.059-.045-.109-.075-.167-.348-.782-.7-1.52-1.036-2.223a28.312,28.312,0,0,0-2.028-3.536,14.208,14.208,0,0,0-2.687-2.973c-.311-.25-.631-.484-.977-.71-.017-.01-.037-.031-.053-.039-.363-.236-.749-.452-1.148-.664a12.775,12.775,0,0,0-1.2-.554l0-.012a.047.047,0,0,0-.029,0c-.226-.1-.435-.189-.67-.27a15.923,15.923,0,0,0-1.723-.5l-.013,0a.013.013,0,0,0-.016-.009,23.3,23.3,0,0,0-3.085-2.076,22.236,22.236,0,0,0-5.138-2.147,27.938,27.938,0,0,0-11.121-.731l-.791.1-.688-1.941c.389.079.782.171,1.185.247.885.183,1.763.341,2.659.467,21.209,2.9,43.392-3.012,59.218-17.607a72.9,72.9,0,0,0,23.255-52.069c-.069.006-.106-.024-.149-.026a3.48,3.48,0,0,1-1.6-.724c-.188-.217-.386-.418-.574-.635a2.941,2.941,0,0,1-.552-1.655c.048-.284.075-.589.1-.84a2.573,2.573,0,0,1,.625-1.189,2.753,2.753,0,0,1,.959-.907,3.249,3.249,0,0,1,1.355-.5,3.167,3.167,0,0,1,1.373-.036c.911.122,1.81.207,2.7.349a3.263,3.263,0,0,1,1.619.733,6.7,6.7,0,0,0,.58.607A3.092,3.092,0,0,1,406.444,607.407Z" fill="#00008b"/><path d="M330.889,684.242c-.253,0-.5.019-.756.023-.558.023-1.111.016-1.673.025a.442.442,0,0,1-.2,0c-.485.029-.939.022-1.419.023-.129-.005-.257-.01-.385-.013-.612-.018-1.211-.038-1.813-.071a1.55,1.55,0,0,1-.441-.011c-.582-.011-1.159-.052-1.735-.093a3.563,3.563,0,0,1-.385-.013c-.559-.031-1.123-.075-1.66-.126-1.718-.137-3.4-.327-5.065-.586-.059-.01-.131-.017-.191-.027-.854-.125-1.715-.274-2.563-.427-.928-.185-1.838-.36-2.77-.558l0,.014c.048,1.121.105,2.227.2,3.334q.066.832.17,1.654a5.848,5.848,0,0,0,.092.678,6.341,6.341,0,0,0,.086.7c.081.639.172,1.262.3,1.9.045.258.089.515.146.769.03.154.072.3.115.455.08.436.161.873.255,1.306.173.817.376,1.637.593,2.455.075.317.17.654.278.989a3.1,3.1,0,0,0,.109.334l.021.075c.106.376.215.763.351,1.145.181.543.366,1.1.581,1.66.192.582.426,1.164.648,1.751.124.288.231.569.352.845s.244.568.368.856c.131.315.275.626.422.949.094.231.2.47.31.7a1.608,1.608,0,0,0,.119.224c.144.31.3.617.442.915.1.2.212.4.311.6.166.291.307.589.474.88.05.079.085.151.136.231a1.415,1.415,0,0,1,.127.3.935.935,0,0,1,.04.341,1.19,1.19,0,0,1-.037.321c-.264,1.169-2.041,1.926-2.74.65-.521-.947-1.02-1.915-1.492-2.89-.229-.462-.442-.916-.649-1.4-.016-.008,0-.012,0-.012a54.7,54.7,0,0,1-2.129-5.4,58.068,58.068,0,0,1-1.8-6.653c-.167-.791-.311-1.6-.441-2.416l-.007-.025a58.694,58.694,0,0,1-.773-7.552c0-.1-.014-.2-.013-.295q-.437.327-.875.652c-.286.189-.568.391-.85.592-.162.126-.328.24-.493.355-.577.406-1.171.8-1.753,1.2q-2.766,1.833-5.655,3.432c-.036.024-.062.031-.1.054-.608.347-1.194.675-1.822,1-.931.5-1.885.977-2.84,1.448-.185.093-.371.186-.573.27l-.013,0c-.746.36-1.493.718-2.242,1.065s-1.529.687-2.286,1.009c-.365.157-.747.3-1.112.462-.382.149-.747.306-1.116.449-1.5.586-3.023,1.15-4.545,1.66-.758.268-1.532.527-2.275.749a64.457,64.457,0,0,0,1.8,7.2c.357,1.115.727,2.228,1.136,3.329.239.648.479,1.3.731,1.943.4.98.781,1.969,1.2,2.946s.807,1.962,1.249,2.931q.222.486.443.97c.148.323.295.647.456.966.372.72.793,1.412,1.2,2.108.149.229.315.466.464.693.247.376.488.782.71,1.166a11.408,11.408,0,0,1,.86,1.649l.02.022.013,0c.118.169.233.326.351.5.071.1.146.216.23.314-.828.22-1.655.44-2.473.7-.457.129-.908.282-1.359.437-.243-.012-.49-.037-.738-.063a97.78,97.78,0,0,1-15.909-2.489,92.658,92.658,0,0,1-44.807-25.657,79.739,79.739,0,0,1-39.709-29.918,2.693,2.693,0,0,1-.83.761,7.654,7.654,0,0,0-.884.425,4.041,4.041,0,0,1-2.742-.16,2.947,2.947,0,0,1-1.054-.784,2.543,2.543,0,0,1-.636-1.1,2.244,2.244,0,0,1-.114-1.306,2.006,2.006,0,0,1,.43-1.228,9.769,9.769,0,0,1,1.791-2.168,12.492,12.492,0,0,1,2.391-1.687,4.385,4.385,0,0,1,1.8-.575c.294.039.619.042.922.065a4.113,4.113,0,0,1,1.622.745,5.541,5.541,0,0,0,.564.6,2.479,2.479,0,0,1,.478,1.243,3.111,3.111,0,0,1-.037,1.321,2.6,2.6,0,0,1-.607,1.1,1.194,1.194,0,0,1-.325.4,74.9,74.9,0,0,0,26.878,24.17c20.493,11.036,45.971,12.153,68.691,3.534a93.14,93.14,0,0,0,13.787-6.547q2.883-1.644,5.6-3.525c.562-.362,1.117-.748,1.668-1.146a.089.089,0,0,0,.049-.027c.188-.135.363-.265.538-.4a15.21,15.21,0,0,1,2.384-1.712,3.262,3.262,0,0,1,1.615-.333,2.39,2.39,0,0,1,.474.029c1.524.246,3.046.587,4.578.912l.688,1.941.791-.1a27.938,27.938,0,0,1,11.121.731A22.236,22.236,0,0,1,330.889,684.242Z" fill="#00008b"/><path d="M350.1,708.505c-.623.3-1.248.581-1.858.875-.026.007-.036.023-.062.03,0-.054.015-.1.014-.152.047-.432.082-.861.113-1.3a5.216,5.216,0,0,0,.041-.809,1.064,1.064,0,0,0,.01-.314l-.007-.174a12.6,12.6,0,0,0-.03-1.761c-.023-.331-.05-.676-.086-1C348.924,705.5,349.552,707.023,350.1,708.505Z" fill="#00008b"/><path d="M286.469,719.572a21.06,21.06,0,0,1-1.217-2.1c-.3-.645-.6-1.291-.888-1.939q.431.972.9,1.935C285.633,718.185,286.064,718.874,286.469,719.572Z" fill="#00008b"/><path d="M291.826,691.79c-1.476.728-3,1.428-4.528,2.074-.365.157-.747.3-1.112.462l1.109-.475C288.834,693.2,290.35,692.518,291.826,691.79Z" fill="#00008b"/><path d="M309.843,682.4c.049,1.121.108,2.226.2,3.336-.108-1.12-.18-2.219-.212-3.332Z" fill="#00008b"/><path d="M314.921,704.268c-.15-.322-.282-.635-.416-.95-.252-.577-.483-1.134-.717-1.7C314.128,702.506,314.509,703.385,314.921,704.268Z" fill="#00008b"/><path d="M316.889,708.458a1.721,1.721,0,0,0-.18-.639l-.126-.234c.052.079.088.151.14.23a1.371,1.371,0,0,1,.129.3A.894.894,0,0,1,316.889,708.458Z" fill="#00008b"/><path d="M328.265,684.291c-.482.028-.944.023-1.419.023-.134,0-.255-.01-.389-.012C327.053,684.31,327.659,684.3,328.265,684.291Z" fill="#00008b"/><path d="M338.3,690.405a40.508,40.508,0,0,0-4.29-4.071h-.014v-.014h-.015v-.015h-.029c-.175-.029-.335-.058-.51-.088-.03,0-.059-.014-.088-.014-.467-.1-.948-.175-1.415-.234-.35-.029-.7-.073-1.065-.087a25.787,25.787,0,0,0-4.377.146c-.219.029-.438.058-.642.087-.306.059-.6.088-.919.161a1.063,1.063,0,0,0-.219.044.5.5,0,0,0-.146.029c-.1.014-.248.044-.364.073a2.714,2.714,0,0,0-.482.087,1.94,1.94,0,0,0-.263.058.394.394,0,0,0-.175.044c-.1.029-.219.044-.321.073-.364.088-.729.175-1.079.277-.263.059-.525.132-.788.205s-.525.145-.773.233l-.263.088a.687.687,0,0,0-.16.058c-.292.088-.584.175-.861.277-.861.292-1.678.6-2.466.934-.262.1-.525.2-.773.321l-.394.175c-.306.117-.6.248-.89.379s-.569.248-.831.394a2.38,2.38,0,0,0-.336.146.553.553,0,0,1-.161.073c-.058.029-.116.044-.16.073-.16.088-.306.16-.452.234s-.292.145-.423.2c-.292.16-.555.291-.832.423v.014h-.015v.03c-.014.131-.014.277-.043.437-.015.306-.029.628-.044.963-.014.19-.014.394-.014.584a13.081,13.081,0,0,0-.044,1.313v1.094c0,.613.014,1.255.044,1.868.014.685.043,1.356.1,2.057a1.473,1.473,0,0,1,.249-.015.812.812,0,0,1,.248-.044c.014-.014.029,0,.058-.014a5.363,5.363,0,0,1,.044-.832c0-.175.029-.365.043-.54a3.234,3.234,0,0,1,.117-.54,2.607,2.607,0,0,1,.058-.35,1.186,1.186,0,0,0,.059-.219c.058-.189.1-.408.175-.6a5.739,5.739,0,0,1,.394-.934,8.607,8.607,0,0,1,1.707-2.6.907.907,0,0,1,.175-.175,9.908,9.908,0,0,1,2.1-1.693c.175-.088.335-.189.54-.277a5.769,5.769,0,0,1,1.138-.525c.423-.161.86-.321,1.3-.482q1.313-.459,2.714-.831c.671-.175,1.327-.336,2-.467s1.357-.248,2.043-.336c.117-.014.233-.044.35-.058.525-.044,1.036-.1,1.561-.117.379-.014.744-.029,1.124-.029a15.878,15.878,0,0,1,4.639.569.053.053,0,0,1,.044.015,11.782,11.782,0,0,1,1.21.408c.409.16.817.336,1.226.54.394.233.773.452,1.123.671l.015.029a7.062,7.062,0,0,1,.977.773A3.377,3.377,0,0,0,338.3,690.405Zm11.8,18.105c-.54-1.488-1.182-3-1.868-4.61-.423-.993-.875-2.028-1.327-3.079-.073-.145-.132-.277-.19-.423s-.117-.277-.19-.408c-.16-.365-.306-.7-.452-1.036s-.292-.671-.438-.978a1.481,1.481,0,0,1-.073-.16c-.35-.774-.7-1.517-1.036-2.217-.335-.672-.671-1.3-.992-1.9-.131-.219-.262-.423-.379-.627-.117-.176-.219-.336-.335-.511s-.219-.35-.321-.511a.015.015,0,0,1-.015-.015,14.024,14.024,0,0,0-2.67-2.961c-.248-.19-.5-.379-.759-.554a2.7,2.7,0,0,0-.233-.161c-.015,0-.029-.029-.044-.029-.364-.248-.758-.452-1.152-.671-.38-.19-.788-.38-1.182-.54l-.029-.015H336.4a3.638,3.638,0,0,0-.335-.16c-.117-.044-.219-.088-.336-.131-.277-.088-.569-.19-.846-.263a.507.507,0,0,0-.19-.044,5.9,5.9,0,0,0-.686-.175h-.014v-.014h-.015v-.015h-.029c-.175-.029-.335-.058-.51-.088-.03,0-.059-.014-.088-.014-.467-.1-.948-.175-1.415-.234-.35-.029-.7-.073-1.065-.087a25.787,25.787,0,0,0-4.377.146c-.219.029-.438.058-.642.087-.306.059-.6.088-.919.161a1.063,1.063,0,0,0-.219.044.5.5,0,0,0-.146.029c-.1.014-.248.044-.364.073a2.714,2.714,0,0,0-.482.087,1.94,1.94,0,0,0-.263.058.394.394,0,0,0-.175.044c-.1.029-.219.044-.321.073-.364.088-.729.175-1.079.277-.263.059-.525.132-.788.205s-.525.145-.773.233l-.263.088a.687.687,0,0,0-.16.058c-.292.088-.584.175-.861.277-.861.292-1.678.6-2.466.934-.262.1-.525.2-.773.321l-.394.175c-.306.117-.6.248-.89.379s-.569.248-.831.394a2.38,2.38,0,0,0-.336.146.553.553,0,0,1-.161.073c-.058.029-.116.044-.16.073-.16.088-.306.16-.452.234s-.292.145-.423.2c-.292.16-.555.291-.832.423v.014h-.015c-.072.044-.16.088-.248.132a1.711,1.711,0,0,1-.218.116c-.175.1-.351.19-.511.292-.583.321-1.08.6-1.459.832q-.263.153-.438.262c-.16.1-.291.19-.394.249l-.6.394-.058.028v.015l.015.044.043.087v.059l.176.51.014.059v.029a.875.875,0,0,1-.233.861,1,1,0,0,1-1.27.189c-.292-.16-.613-.321-.948-.481-.1-.044-.2-.073-.306-.117-.161-.058-.307-.117-.453-.175a.213.213,0,0,0-.087-.029c-.029-.014-.044-.029-.058-.029-.19-.059-.365-.1-.54-.146a.418.418,0,0,0-.131-.029l-.351-.088c-.2-.044-.394-.087-.583-.116a4.167,4.167,0,0,0-.438-.073,3,3,0,0,0-.379-.03c-.073-.014-.132-.014-.2-.029-.2-.014-.393-.029-.6-.029a6.941,6.941,0,0,0-.773-.015c-.263,0-.511.015-.759.03a6.4,6.4,0,0,0-.744.043,6.1,6.1,0,0,0-.729.073,1.107,1.107,0,0,0-.234.03,2.768,2.768,0,0,0-.35.029,2.246,2.246,0,0,0-.335.058c-.161.014-.321.029-.467.044-.175.029-.336.043-.511.073q-.569.087-1.138.219c-.189.029-.379.072-.583.116-.205.059-.423.1-.657.175-.277.058-.54.132-.8.2a7.556,7.556,0,0,0-.817.262c-.292.088-.6.19-.876.292h-.014c-.146.058-.307.117-.438.16a.378.378,0,0,0-.1.044,3.708,3.708,0,0,0-.423.16c-.132.059-.277.117-.409.161a1.423,1.423,0,0,1-.218.1c-.088.03-.161.059-.234.088s-.1.058-.16.087c-.015,0-.029.015-.044.029a.711.711,0,0,0-.146.073c-.029.015-.059.015-.088.03a4.708,4.708,0,0,0-.466.233,18.814,18.814,0,0,0-1.707.9c-.015,0-.029.014-.044.029-.511.306-1.022.627-1.5.963s-.934.685-1.386,1.065c-.437.379-.875.758-1.269,1.167a.03.03,0,0,0-.029.029h-.015c-.117.117-.233.248-.35.379s-.233.263-.336.38a12.656,12.656,0,0,0-1.838,2.669v.015a1.672,1.672,0,0,0-.087.146c-.073.146-.146.292-.2.423a6.972,6.972,0,0,0-.613,2.072,1.691,1.691,0,0,0-.029.248,9.617,9.617,0,0,0,0,2.042,11.292,11.292,0,0,0,.175,1.59c.073.438.161.9.263,1.416a46.872,46.872,0,0,0,3.239,8.943c.613,1.255,1.182,2.509,1.736,3.72,4.683,9.892,8.87,17.114,18.324,21.2A35.552,35.552,0,0,0,326.1,748c.627-.175,1.284-.35,1.911-.554,11.263-3.633,20.775-12.751,23.46-22.745C353.047,718.912,352.142,714,350.1,708.51Zm-.044,13.028a24.4,24.4,0,0,1-.554,2.714c-2.67,9.877-12.5,18.864-23.9,21.84a33.1,33.1,0,0,1-16.88-.015,30.027,30.027,0,0,1-3.326-1.065c-.555-.189-1.094-.423-1.634-.641-.248-.117-.5-.219-.73-.336-.1-.058-.218-.1-.335-.161-.248-.131-.482-.248-.73-.364-.291-.161-.569-.307-.846-.467a3.96,3.96,0,0,1-.437-.219c-.132-.073-.249-.161-.38-.248a26.886,26.886,0,0,1-4.275-3.3c-.174-.161-.35-.336-.525-.511a3.875,3.875,0,0,1-.394-.437c-.306-.336-.583-.642-.89-1.007-.437-.5-.875-1.051-1.283-1.6-.263-.365-.526-.715-.774-1.08-.219-.32-.452-.656-.671-1.006-.321-.511-.656-1.036-.977-1.576-.5-.831-.978-1.692-1.445-2.6-.248-.452-.481-.919-.715-1.386-.5-.934-.962-1.9-1.444-2.9-.087-.19-.175-.38-.277-.569-.627-1.328-1.269-2.728-1.955-4.187-.233-.511-.467-1.022-.671-1.517-.16-.365-.321-.715-.453-1.066-.058-.116-.087-.233-.131-.335-.189-.438-.35-.89-.51-1.313-.263-.642-.467-1.284-.671-1.9-.1-.365-.219-.715-.307-1.065a22.29,22.29,0,0,1-.715-3.4c-.014-.234-.029-.438-.043-.657a1.781,1.781,0,0,1-.015-.481,3.714,3.714,0,0,1,0-.569c0-.1.015-.19.015-.292,0-.044.014-.073.014-.117v-.175a2.5,2.5,0,0,1,.059-.291,4.952,4.952,0,0,1,.422-1.532,9.518,9.518,0,0,1,.716-1.313,11.121,11.121,0,0,1,1.006-1.357,7.152,7.152,0,0,1,.627-.686c.219-.219.424-.423.657-.642a17.52,17.52,0,0,1,1.78-1.4l.029-.029c0-.015,0-.015.015-.03a1.4,1.4,0,0,1,.248-.16l.262-.175.219-.132a.834.834,0,0,1,.2-.145c.015-.015.03-.015.059-.015a1.285,1.285,0,0,1,.466-.277,19.207,19.207,0,0,1,2.437-1.255c.146-.073.292-.117.452-.19.117-.058.234-.087.351-.145.262-.1.51-.19.773-.277.2-.088.437-.161.656-.234.379-.117.744-.248,1.138-.35.292-.088.6-.161.89-.234.219-.058.423-.1.642-.146a1.877,1.877,0,0,1,.248-.043,2.345,2.345,0,0,1,.438-.088.758.758,0,0,0,.189-.029l.263-.044c.306-.043.6-.087.875-.116,2.16-.292,4.581-.569,6.974.5a5.692,5.692,0,0,1,.978.525,5.23,5.23,0,0,1,.86.642,8.445,8.445,0,0,1,.628.627,6.7,6.7,0,0,1,.773.992c.1.161.2.336.306.5.657-.087,1.313-.16,2-.248h.014c.5-.058.964-.116,1.459-.189a1.473,1.473,0,0,1,.249-.015.812.812,0,0,1,.248-.044c.014-.014.029,0,.058-.014a5.363,5.363,0,0,1,.044-.832c0-.175.029-.365.043-.54a3.234,3.234,0,0,1,.117-.54,2.607,2.607,0,0,1,.058-.35,1.186,1.186,0,0,0,.059-.219c.058-.189.1-.408.175-.6a5.739,5.739,0,0,1,.394-.934,8.607,8.607,0,0,1,1.707-2.6.907.907,0,0,1,.175-.175,9.908,9.908,0,0,1,2.1-1.693c.175-.088.335-.189.54-.277a5.769,5.769,0,0,1,1.138-.525c.423-.161.86-.321,1.3-.482q1.313-.459,2.714-.831c.671-.175,1.327-.336,2-.467s1.357-.248,2.043-.336c.117-.014.233-.044.35-.058.525-.044,1.036-.1,1.561-.117.379-.014.744-.029,1.124-.029a15.878,15.878,0,0,1,4.639.569.053.053,0,0,1,.044.015,11.782,11.782,0,0,1,1.21.408c.409.16.817.336,1.226.54.394.233.773.452,1.123.671l.015.029a7.062,7.062,0,0,1,.977.773.074.074,0,0,1,.073.059l.015.043a1.1,1.1,0,0,1,.2.176c.015.014.029.014.029.029a8.236,8.236,0,0,1,1.415,1.59c.132.19.278.394.409.6.073.1.131.19.19.292a27.08,27.08,0,0,1,1.663,2.962c.7,1.444,1.444,3.092,2.276,5,.554,1.283,1.08,2.509,1.59,3.676.467,1.065.89,2.086,1.255,3.078.117.292.219.584.335.876l.044.131c.161.423.321.846.452,1.255.1.292.2.613.292.919.146.453.263.89.394,1.328.059.233.117.437.175.671s.1.452.146.685c.073.307.131.628.2.963a24.761,24.761,0,0,1,.292,2.554c.015.379.044.787.044,1.181A19.524,19.524,0,0,1,350.056,721.538Zm-12.664-31.8-.029-.015c-.014-.015-.029-.029-.044-.029-.525-.555-1.035-1.036-1.561-1.518a26.356,26.356,0,0,0-2.086-1.736,1.853,1.853,0,0,0-.321-.233c-.467-.1-.948-.175-1.415-.234-.35-.029-.7-.073-1.065-.087a25.787,25.787,0,0,0-4.377.146c-.219.029-.438.058-.642.087-.306.059-.6.088-.919.161a1.063,1.063,0,0,0-.219.044.5.5,0,0,0-.146.029c-.1.014-.248.044-.364.073a2.714,2.714,0,0,0-.482.087,1.94,1.94,0,0,0-.263.058.394.394,0,0,0-.175.044c-.1.029-.219.044-.321.073-.364.088-.729.175-1.079.277-.263.059-.525.132-.788.205s-.525.145-.773.233l-.263.088a.687.687,0,0,0-.16.058c-.292.088-.584.175-.861.277-.861.292-1.678.6-2.466.934-.262.1-.525.2-.773.321l-.394.175c-.306.117-.6.248-.89.379s-.569.248-.831.394a2.38,2.38,0,0,0-.336.146.553.553,0,0,1-.161.073c-.058.029-.116.044-.16.073-.16.088-.306.16-.452.234s-.292.145-.423.2c-.292.16-.555.291-.832.423v.014h-.015v.03c-.014.131-.014.277-.043.437-.015.306-.029.628-.044.963-.014.19-.014.394-.014.584a13.081,13.081,0,0,0-.044,1.313v1.094c0,.613.014,1.255.044,1.868.014.685.043,1.356.1,2.057a1.473,1.473,0,0,1,.249-.015.812.812,0,0,1,.248-.044c.014-.014.029,0,.058-.014a5.363,5.363,0,0,1,.044-.832c0-.175.029-.365.043-.54a3.234,3.234,0,0,1,.117-.54,2.607,2.607,0,0,1,.058-.35,1.186,1.186,0,0,0,.059-.219c.058-.189.1-.408.175-.6a5.739,5.739,0,0,1,.394-.934,8.607,8.607,0,0,1,1.707-2.6.907.907,0,0,1,.175-.175,9.908,9.908,0,0,1,2.1-1.693c.175-.088.335-.189.54-.277a5.769,5.769,0,0,1,1.138-.525c.423-.161.86-.321,1.3-.482q1.313-.459,2.714-.831c.671-.175,1.327-.336,2-.467s1.357-.248,2.043-.336c.117-.014.233-.044.35-.058.525-.044,1.036-.1,1.561-.117.379-.014.744-.029,1.124-.029a15.878,15.878,0,0,1,4.639.569.053.053,0,0,1,.044.015,11.782,11.782,0,0,1,1.21.408c.409.16.817.336,1.226.54.394.233.773.452,1.123.671C337.626,689.952,337.509,689.865,337.392,689.734Zm.905.671a40.508,40.508,0,0,0-4.29-4.071h-.014v-.014h-.015v-.015h-.029c-.175-.029-.335-.058-.51-.088-.03,0-.059-.014-.088-.014-.467-.1-.948-.175-1.415-.234-.35-.029-.7-.073-1.065-.087a25.787,25.787,0,0,0-4.377.146c-.219.029-.438.058-.642.087-.306.059-.6.088-.919.161a1.063,1.063,0,0,0-.219.044.5.5,0,0,0-.146.029c-.1.014-.248.044-.364.073a2.714,2.714,0,0,0-.482.087,1.94,1.94,0,0,0-.263.058.394.394,0,0,0-.175.044c-.1.029-.219.044-.321.073-.364.088-.729.175-1.079.277-.263.059-.525.132-.788.205s-.525.145-.773.233l-.263.088a.687.687,0,0,0-.16.058c-.292.088-.584.175-.861.277-.861.292-1.678.6-2.466.934-.262.1-.525.2-.773.321l-.394.175c-.306.117-.6.248-.89.379s-.569.248-.831.394a2.38,2.38,0,0,0-.336.146.553.553,0,0,1-.161.073c-.058.029-.116.044-.16.073-.16.088-.306.16-.452.234s-.292.145-.423.2c-.292.16-.555.291-.832.423v.014h-.015v.03c-.014.131-.014.277-.043.437-.015.306-.029.628-.044.963-.014.19-.014.394-.014.584a13.081,13.081,0,0,0-.044,1.313v1.094c0,.613.014,1.255.044,1.868.014.685.043,1.356.1,2.057a1.473,1.473,0,0,1,.249-.015.812.812,0,0,1,.248-.044c.014-.014.029,0,.058-.014a5.363,5.363,0,0,1,.044-.832c0-.175.029-.365.043-.54a3.234,3.234,0,0,1,.117-.54,2.607,2.607,0,0,1,.058-.35,1.186,1.186,0,0,0,.059-.219c.058-.189.1-.408.175-.6a5.739,5.739,0,0,1,.394-.934,8.607,8.607,0,0,1,1.707-2.6.907.907,0,0,1,.175-.175,9.908,9.908,0,0,1,2.1-1.693c.175-.088.335-.189.54-.277a5.769,5.769,0,0,1,1.138-.525c.423-.161.86-.321,1.3-.482q1.313-.459,2.714-.831c.671-.175,1.327-.336,2-.467s1.357-.248,2.043-.336c.117-.014.233-.044.35-.058.525-.044,1.036-.1,1.561-.117.379-.014.744-.029,1.124-.029a15.878,15.878,0,0,1,4.639.569.053.053,0,0,1,.044.015,11.782,11.782,0,0,1,1.21.408c.409.16.817.336,1.226.54.394.233.773.452,1.123.671l.015.029a7.062,7.062,0,0,1,.977.773A3.377,3.377,0,0,0,338.3,690.405Z" fill="#00008b"/><path d="M350.225,718.935a18.529,18.529,0,0,1-.176,2.6,22.026,22.026,0,0,1-.545,2.709c-2.672,9.884-12.5,18.871-23.9,21.844a33.111,33.111,0,0,1-16.884-.018q-1.662-.448-3.324-1.055c-.545-.211-1.09-.44-1.636-.669-.246-.1-.493-.21-.721-.316-.106-.053-.228-.106-.334-.158q-.369-.186-.739-.369c-.281-.159-.562-.3-.844-.458s-.545-.317-.809-.475a25.8,25.8,0,0,1-4.274-3.289c-.316-.3-.633-.615-.932-.95s-.58-.651-.879-1c-.44-.51-.879-1.055-1.284-1.618-.263-.352-.528-.7-.773-1.073-.23-.316-.458-.65-.669-1-.335-.51-.669-1.037-.985-1.582-1.97-3.325-3.764-7.211-5.839-11.643-.229-.511-.457-1.021-.668-1.513-.158-.369-.317-.721-.458-1.072a2.769,2.769,0,0,1-.123-.334c-.193-.44-.351-.88-.51-1.3-.264-.651-.475-1.284-.668-1.9-.106-.369-.229-.721-.317-1.072a20.569,20.569,0,0,1-.7-3.4c-.017-.229-.035-.44-.053-.651a2.356,2.356,0,0,1-.018-.492c-.017-.211,0-.387,0-.563,0-.105.018-.194.018-.3,0-.037.018-.071.018-.106v-.176c.263-.475.51-.95.756-1.425l.123-.211c.633-1.214,1.267-2.392,1.952-3.553.211-.211.422-.421.651-.633a17.706,17.706,0,0,1,1.777-1.407c.087-.07.193-.14.3-.211a2.522,2.522,0,0,1,.264-.176c.07-.053.141-.087.211-.141l.264-.158a4.209,4.209,0,0,1,.475-.281,21.06,21.06,0,0,1,2.427-1.249c.159-.07.3-.123.457-.193.123-.053.229-.089.352-.141.263-.106.51-.193.773-.282.212-.087.44-.158.651-.228.388-.123.757-.246,1.143-.351.3-.089.6-.159.9-.23.6-.14,1.2-.263,1.776-.351.3-.053.6-.088.879-.123,2.146-.282,4.573-.563,6.965.492a8.871,8.871,0,0,1,.985.528,6.072,6.072,0,0,1,.862.651,6.877,6.877,0,0,1,.616.615,6.4,6.4,0,0,1,.773,1,63.1,63.1,0,0,0,5.8,22.67,1.883,1.883,0,0,0,2.128.985,2.054,2.054,0,0,0,.352-.123,1.808,1.808,0,0,0,.967-2.41,58.962,58.962,0,0,1-4.028-11.52,59.95,59.95,0,0,1-1.441-9.532,1.064,1.064,0,0,1,.246-.035,1.332,1.332,0,0,1,.246-.035c.018-.018.035,0,.07-.018a6.546,6.546,0,0,1,.035-.827c0-.176.035-.369.053-.545a2.812,2.812,0,0,1,.105-.545,2.538,2.538,0,0,1,.071-.351l.053-.212c.052-.194.106-.4.176-.6a6.2,6.2,0,0,1,.386-.933,9,9,0,0,1,1.707-2.6l.176-.176a9.884,9.884,0,0,1,2.11-1.688c.176-.088.334-.193.528-.282a7.573,7.573,0,0,1,1.143-.527c.422-.158.861-.316,1.3-.475.879-.3,1.777-.581,2.708-.827q1-.262,2.006-.474c.668-.141,1.354-.247,2.04-.335.123-.017.229-.034.351-.052.529-.053,1.039-.106,1.566-.123a18.105,18.105,0,0,1,5.452.492c.106.018.211.035.3.052a.062.062,0,0,1,.052.018,11.163,11.163,0,0,1,1.215.4,12.3,12.3,0,0,1,1.213.545c.4.228.774.44,1.125.668l.018.018a10.617,10.617,0,0,1,.985.774c.017,0,.053.017.071.07l.017.036a1.608,1.608,0,0,1,.193.175c.018.018.035.018.035.036a8.416,8.416,0,0,1,1.056,1.442,17.56,17.56,0,0,1,2.128,3.482c.158.158.317.334.493.51.7,1.442,1.441,3.1,2.268,5.012.563,1.285,1.09,2.5,1.6,3.676.458,1.056.88,2.076,1.249,3.078.3.774.58,1.512.827,2.251.106.3.211.616.3.932.141.44.263.88.387,1.32.07.228.123.439.175.668s.106.456.159.686c.071.316.123.633.193.967a24.3,24.3,0,0,1,.3,2.55C350.208,718.143,350.225,718.547,350.225,718.935Z" fill="#ff81cb"/><path d="M281.2,707.538v.176c0,.035-.018.069-.018.106C281.177,707.731,281.2,707.643,281.2,707.538Z" fill="#ffb4e7"/><path d="M311.867,699.465c-.035.018-.052,0-.07.018a1.332,1.332,0,0,0-.246.035c.088-.018.175-.035.246-.053Z" fill="#ffb4e7"/><path d="M338.741,690.865a10.617,10.617,0,0,0-.985-.774l-.018-.018c-.351-.228-.72-.44-1.125-.668a12.3,12.3,0,0,0-1.213-.545,11.163,11.163,0,0,0-1.215-.4,7.78,7.78,0,0,1,3.131,1.232c.018,0,.036.017.053.035l.018.017a8.222,8.222,0,0,1,.914.668A5.714,5.714,0,0,1,338.741,690.865Z" fill="#ffb4e7"/><path d="M291.826,691.79c-.569.486-1.126.967-1.662,1.469a38.325,38.325,0,0,0-4.884,5.418,20.259,20.259,0,0,0-2.66,2.235c-.013,0-.036.024-.032.037-.242.244-.468.5-.693.748a13.051,13.051,0,0,0-1.843,2.682,64.457,64.457,0,0,1-1.8-7.2c.743-.222,1.517-.481,2.275-.749,1.522-.51,3.044-1.074,4.545-1.66.369-.143.734-.3,1.116-.449.365-.157.747-.305,1.112-.462C288.825,693.218,290.35,692.518,291.826,691.79Z" fill="#00008b"/><path d="M331.136,631.6c.534,18.282-18.425,31.126-22.23,33.509l-.686.423,4.931,13.989.688,1.941.791-.1a27.938,27.938,0,0,1,11.121.731,22.236,22.236,0,0,1,5.138,2.147,23.3,23.3,0,0,1,3.085,2.076c-.212-.048-.42-.085-.627-.12-.466-.1-.937-.169-1.4-.226-.35-.037-.712-.07-1.071-.09a24.362,24.362,0,0,0-4.377.152c-.22.022-.436.055-.652.09-.3.043-.6.086-.9.146-.407.061-.819.15-1.219.236-.147.028-.3.055-.439.1-.477.108-.939.225-1.4.354-.527.135-1.037.279-1.553.451-.432.121-.87.271-1.294.419-.853.281-1.669.591-2.465.924-.395.152-.786.316-1.161.489-.62.256-1.184.509-1.728.784a3.074,3.074,0,0,0-.326.146c-.11.059-.225.1-.323.158-.312.143-.595.291-.879.438s-.557.279-.827.422l-.026.007,0,.013c-.163.073-.322.159-.469.24-1.431.782-2.419,1.385-2.8,1.628l-.595.4-.058.044.053.187.171.506.021.076c.34,1.107.7,2.169,1.009,3.229a8.736,8.736,0,0,0-1.231-1.262,8.37,8.37,0,0,0-1.27-.9,10.446,10.446,0,0,0-.953-.475c-.258-.116-.51-.207-.762-.3a.865.865,0,0,0-.156-.052,8.651,8.651,0,0,0-1.592-.389,5.543,5.543,0,0,0-.808-.11,5.853,5.853,0,0,0-.806-.056,5.227,5.227,0,0,0-.78-.01c-.256-.009-.506.008-.756.024a7.377,7.377,0,0,0-.748.049c-.332.026-.65.047-.962.095q-.369.042-.7.076c-.315.034-.639.085-.964.135-.377.066-.754.132-1.14.213l-.573.122c-.209.059-.435.109-.658.171-.543.127-1.079.278-1.622.457-.3.1-.6.2-.889.3-.153.056-.306.114-.447.167a.277.277,0,0,0-.1.042c-.281.106-.548.208-.826.327-.15.069-.3.127-.44.192a3.566,3.566,0,0,0-.362.169c-.189.081-.375.173-.56.266-.583.286-1.15.581-1.706.914a.049.049,0,0,0-.035.023c-.52.309-1.024.626-1.507.966a38.325,38.325,0,0,1,4.884-5.418c.536-.5,1.093-.983,1.662-1.469l.013,0a52.424,52.424,0,0,1,14.084-8.348c.29-.122.6-.236.888-.357l.039-.011.9-.322-1.264-3.833-3.417-10.32-.525-.109c-8.03-2.088-22.629-7.542-30.135-20.7-1.915-3.339-5.116-8.937-3.256-14.61,2.167-6.544,9.89-9.5,17.365-12.34,20.5-7.844,34.186-8.323,40.634-1.424C330.9,623.412,331.064,628.745,331.136,631.6Z" fill="#00008b"/><path d="M315.807,723.015a2.054,2.054,0,0,1-.352.123,1.883,1.883,0,0,1-2.128-.985,63.1,63.1,0,0,1-5.8-22.67c-.07-1.073-.105-2.146-.123-3.236v-1.091c0-.475.018-.985.035-1.46v-.052a.611.611,0,0,1,0-.176c.035-1.284.106-2.551.228-3.852a1.928,1.928,0,0,1,2.041-1.688,1.792,1.792,0,0,1,1.706,1.935c-.035.439-.07.9-.105,1.336v.017c-.019.141-.019.282-.036.44-.018.317-.035.634-.035.968-.017.193-.035.386-.035.58-.035.44-.035.88-.035,1.319v1.09c0,.616.017,1.249.035,1.864.018.687.052,1.355.106,2.059v.017a59.95,59.95,0,0,0,1.441,9.532,58.962,58.962,0,0,0,4.028,11.52A1.808,1.808,0,0,1,315.807,723.015Z" fill="#00008b"/><path d="M272.835,762.676a19.259,19.259,0,0,1-2.627-1.46c-.959.3-1.969.6-2.928.9a95.34,95.34,0,0,1-37.18,2.616c-2.628-.7-5.254-1.46-7.881-2.214-12.124-3.518-24-8.4-34-16.247-15-11.671-23.894-30.082-28.945-48.947a.646.646,0,0,1-.05-.3c-.91-5.483-1.567-10.964-2.173-16.4-.353-2.668-.656-5.284-.959-7.948v-.153a3.831,3.831,0,0,1-1.415-.9,6.013,6.013,0,0,1,1.566-3.925,1.292,1.292,0,0,0,.909.555c1.466,0,3.991-1.309,4.345-2.515.273-.931.583-1.05.77-1.063,1.279-.083,2.845,12.975,4.381,21.177.8,4.252,3.614,19.3,10.618,31.856,2.074,3.717,10.38,17.724,26.546,26.546,0,0,19.727,10.764,60.333,11.127.123,0,.674.059,1.413.1A7.51,7.51,0,0,1,272.835,762.676Z" fill="#e179e6"/><path d="M394.134,535.039c-7.208-10.848-13.583-23.7-24.543-31.283-1.7-1.175-24.138-14.41-25.265-11.833a4.9,4.9,0,0,0,.8,5.332c6.588,7.68,16.695,10.8,23.483,18.214,7.658,8.363,13.36,19.088,19.622,28.512,8.486,12.773,17.023,26.616,28.625,36.842a1.741,1.741,0,0,1,1.158.093c.58.254,1.149.528,1.721.8a26.871,26.871,0,0,0,3.106.825,22.015,22.015,0,0,0,5.13.713,17.458,17.458,0,0,0,4.6-.69,8.763,8.763,0,0,0,2.416-.928c.058-.061.119-.119.177-.18C416.292,571.91,405.446,552.065,394.134,535.039Z" fill="#e179e6"/><path d="M228.877,761.455c-.19-.03-.394-.044-.584-.073.175.043.38.058.569.087a.927.927,0,0,0,.278.044C229.037,761.484,228.95,761.484,228.877,761.455Zm-6-1.109h-.044a.09.09,0,0,1,.058.014c.452.1.919.19,1.4.292C223.814,760.55,223.347,760.448,222.881,760.346Zm-1.6-.38c-.2-.043-.409-.087-.613-.145.2.058.394.116.6.16s.438.1.656.146C221.713,760.069,221.494,760.025,221.276,759.966Zm7.6,1.489c-.19-.03-.394-.044-.584-.073.175.043.38.058.569.087a.927.927,0,0,0,.278.044C229.037,761.484,228.95,761.484,228.877,761.455Zm-6.04-1.109a.09.09,0,0,1,.058.014c.452.1.919.19,1.4.292-.482-.1-.949-.2-1.415-.306Zm-2.174-.525c.2.058.394.116.6.16s.438.1.656.146c-.2-.058-.423-.1-.641-.161C221.072,759.923,220.867,759.879,220.663,759.821ZM432.106,591.883c-.744-2.072-1.473-4.042-2.217-6.055a3.485,3.485,0,0,0-.54-.963c2.713.54,5.529.7,6.7-1.692s-1.283-6.58-2.13-9.935c-.846-3.283-2.494-6.58-2.392-9.819.058-3.764,1.386-7.586,2.713-11.2,3.02-7.805,6.478-15.45,9.5-23.2,1.97-4.989,2.611-10.081.905-15.391-3.983-12.372-12.153-19.594-25.211-21.461a96.819,96.819,0,0,1-16.515-3.385c-14.02-4.567-27.924-9.512-41.842-14.4-3.706-1.327-7.266-1.371-10.184,1.386-4.362,4.085-9.249,3.823-14.706,3.3-1.123-.116-2.232-.218-3.355-.277l-1.751-.044c-.788.044-1.648.1-2.6.2-1.386.116-2.6.219-3.881.379-.846.1-1.692.2-2.7.321,0,0-3.136.365-5.733.744-12.212,1.751-14.984,3.443-24.321,3.925a127.773,127.773,0,0,1-17.58-.54c-8.972-.628-17.463-1.269-28.989,2.188-6.258,1.853-9.76,3.866-14.589,6.58-2.072,1.109-4.3,2.436-7.178,3.924a254.378,254.378,0,0,1-24.146,10.782c-1.488.583-3.238,1.225-5.106,1.911-2.655.948-5.733,2.013-9.074,3.078h-.059a50.2,50.2,0,0,0-19.535,14.225c-1.649,2.072-5.412,3.137-8.287,3.4-8.695.8-12.634,3.239-15.07,11.526a44.953,44.953,0,0,1-8.55,16.092c-7.119,8.7-14.122,17.566-21.563,26.013-9.016,10.4-8.593,29.835,4.888,38.165a37.444,37.444,0,0,1,8.972,7.281,61.869,61.869,0,0,0,16.15,13.743c4.932,2.976,7.106,7.338,7.164,13.116a36,36,0,0,0,1.59,9.818,4.369,4.369,0,0,0,1.109,2.072,4.036,4.036,0,0,0,1.488.963v.16c.321,2.816.642,5.574,1.007,8.389.642,5.734,1.327,11.526,2.29,17.3a.622.622,0,0,0,.059.321,124.276,124.276,0,0,0,3.968,17.464,70.91,70.91,0,0,0,7.12,15.639c.9,1.5,1.881,2.977,2.918,4.406a76.6,76.6,0,0,0,22.832,20.834c.642.379,1.327.744,1.969,1.167.584.277,1.167.642,1.751.9a15.82,15.82,0,0,0,1.692.9,6.014,6.014,0,0,0,.8.423,94.862,94.862,0,0,0,22.817,7.951c1.62.351,3.239.657,4.859.9.963.161,1.926.306,2.888.423.278.044.54.088.817.117a99.8,99.8,0,0,0,39.071-2.758c.715-.233,1.459-.452,2.188-.671.087-.029.19-.058.277-.087.2-.059.409-.131.613-.19a20.5,20.5,0,0,0,2.758,1.532c5.047,2.451,10.883,3.4,17.157,3.4,10.139,0,21.125-2.5,30.8-4.989a1.611,1.611,0,0,0,.73-.059h.058c1.065-.306,2.13-.627,3.239-.948l1.853-.584c1.123-.262,2.232-.583,3.239-.846h.058a2.3,2.3,0,0,0,.686-.321c14.823-4.522,32.33-10.781,40.675-22.19,1.692-.379,3.3-.8,4.887-1.284.686-.161,1.372-.365,2.014-.583l1.065-.322c.525-.145,1.05-.306,1.59-.466a1.964,1.964,0,0,1,.423-.161,12.186,12.186,0,0,0,1.488-.539,3.309,3.309,0,0,0,.686-.263,92.651,92.651,0,0,0,43.068-31.645,62.181,62.181,0,0,0,3.662-5.354,73.593,73.593,0,0,0,4.347-7.761,4.4,4.4,0,0,0,.379-.686c.628-1.269,1.168-2.5,1.751-3.764l.306-.861c.526-1.152,1.007-2.363,1.43-3.574.292-.773.555-1.576.8-2.364.2-.627.408-1.24.6-1.867C452.05,646.549,441.458,617.516,432.106,591.883Zm2.976,93.328c-.291.642-.6,1.269-.9,1.9s-.627,1.24-.948,1.882c-.088.146-.19.307-.278.452-.014.015-.014.03-.029.044-.058.1-.117.19-.175.292-.262.482-.525.963-.8,1.445s-.569.992-.861,1.473l-.044.088a.314.314,0,0,1-.073.116c-.277.467-.554.919-.846,1.372-.029.058-.073.116-.1.175-.686,1.065-1.386,2.115-2.1,3.136-.992,1.43-2.042,2.845-3.137,4.2-.364.438-.744.89-1.108,1.328q-.876,1.073-1.795,2.1-.919,1.05-1.882,2.057c-.627.671-1.284,1.342-1.955,1.984s-1.328,1.3-2.013,1.926h-.015c-1.225,1.152-2.5,2.247-3.793,3.312q-.984.808-1.97,1.575c-.612.467-1.225.934-1.852,1.386-.074.059-.146.1-.219.161-.029.014-.059.043-.088.058-.073.058-.146.1-.219.16-.569.423-1.138.817-1.721,1.211q-.985.7-2.013,1.357a2.584,2.584,0,0,1-.263.161c-.671.437-1.342.861-2.013,1.254q-1.1.678-2.189,1.313a132.905,132.905,0,0,1-16.559,7.383H383l-.015.014-.525.175c-.7.248-1.4.467-2.116.686h-.029c-.7.219-1.415.423-2.115.613a.418.418,0,0,0-.132.029c-.145.044-.277.073-.423.117.161-.365.292-.73.423-1.1a.048.048,0,0,0,.015-.029c.146-.365.277-.729.408-1.108a22.99,22.99,0,0,0,1.08-6.216c.015-.306.015-.627.015-.948,0-.452,0-.9-.03-1.371a.147.147,0,0,0,.015-.059.086.086,0,0,0-.015-.058v-.015a30.4,30.4,0,0,0-.583-5.077,2.064,2.064,0,0,0-4.041.847,24.482,24.482,0,0,1,.539,5.689,20.585,20.585,0,0,1-.86,5.515c-.044.161-.1.365-.161.525-.116.351-.233.686-.365,1.022a8.637,8.637,0,0,1-.481,1.152c-.015.044-.044.073-.058.117a1.909,1.909,0,0,1-.117.248c0,.015-.015.015-.015.029a4.619,4.619,0,0,1-.233.467l-.044.087a11.427,11.427,0,0,1-.554,1.007c-.131.2-.248.394-.365.6l-.044.03-.058.029a1.316,1.316,0,0,1-.175.058h-.015c-.014,0-.029.014-.044.014-.014.015-.029.015-.058.03h-.014a1.605,1.605,0,0,0-.394.248.615.615,0,0,0-.1.087.672.672,0,0,1-.1.088,2.119,2.119,0,0,0-.612,1.532.312.312,0,0,0-.015.116l.029.029.015.03-.015.015c-.1.131-.2.247-.306.379l-.307.394c-.043.043-.087.073-.116.1a.41.41,0,0,1-.1.117,2.622,2.622,0,0,0-.2.2c-.569.642-1.181,1.269-1.824,1.882-.277.262-.554.525-.831.773-.321.321-.7.6-1.065.9a36.437,36.437,0,0,1-2.932,2.2c-.073.044-.132.088-.2.132-.029.029-.073.044-.1.073-.452.306-.934.656-1.43.948-.248.146-.51.292-.758.452-.278.161-.555.321-.846.5a.029.029,0,0,0-.03.029c-.014.014-.014.014-.014.029a.49.49,0,0,0-.16.073,1.562,1.562,0,0,0-.161.087c-.073.044-.161.088-.233.131-.249.132-.482.278-.73.394l-.014.015-.19.087c-.219.132-.423.249-.642.365s-.453.233-.686.336c-.292.16-.569.306-.861.452s-.569.292-.889.438c-.161.087-.336.175-.526.262a3.815,3.815,0,0,1-.539.278c-.19.072-.38.16-.584.248-.2.072-.394.145-.584.233-.321.161-.627.306-.992.467h-.015c-.321.16-.7.321-1.065.482-.481.218-.962.364-1.429.583a10.729,10.729,0,0,1-1.036.408h-.015a1.691,1.691,0,0,1-.248.1,1.516,1.516,0,0,1-.248.072c-.393.176-.8.322-1.2.482-.015,0-.015.015-.029.015-.117.043-.248.1-.365.145-.525.2-1.006.423-1.532.584-.539.2-1.065.365-1.6.583-1.051.365-2.116.745-3.181,1.066h-.015c-.5.189-.992.335-1.473.5-.5.146-.978.291-1.488.452-.248.1-.525.175-.788.262s-.54.161-.817.249c-.073.029-.132.043-.2.072h-.043c-5.573,1.591-12.007,3.181-19.375,5.107-.043.014-.131.029-.263.073a1.59,1.59,0,0,0-.218.058c-.175.029-.38.087-.613.146-.131.029-.248.058-.394.087-1.109.248-2.757.613-4.785.993-.511.087-1.036.189-1.576.277-.277.058-.569.1-.861.146-.554.1-1.137.189-1.736.277-.627.087-1.254.189-1.9.262a80.735,80.735,0,0,1-13.831.759.47.47,0,0,1-.146-.014.045.045,0,0,1-.029-.015.385.385,0,0,1-.1-.029,2.851,2.851,0,0,1-.365-.015,1.267,1.267,0,0,1-.321-.044h-.088a3.408,3.408,0,0,1-.568-.058h-.03c-.014,0-.014,0-.029-.015a.842.842,0,0,1-.19-.029,4.761,4.761,0,0,0-.627-.073H286.9a2.277,2.277,0,0,1-.306-.029l-.481-.087c-.161-.015-.321-.044-.482-.073-.262-.059-.583-.1-.846-.161a3.977,3.977,0,0,1-.452-.117c-.131-.029-.263-.073-.394-.1-.292-.073-.584-.131-.875-.2s-.584-.16-.876-.233c-.569-.175-1.123-.365-1.648-.569-.073-.03-.146-.044-.219-.073H280.3c-.015,0-.029-.015-.043-.015-.073-.029-.132-.044-.205-.073a1.2,1.2,0,0,1-.262-.1,1.226,1.226,0,0,0-.263-.1c-.277-.117-.584-.263-.861-.379-.1-.044-.19-.088-.291-.132a3.133,3.133,0,0,0-.293-.131,3.113,3.113,0,0,1-.306-.161,1.71,1.71,0,0,1-.277-.16c-.175-.1-.35-.19-.525-.292s-.321-.189-.482-.292c-.1-.058-.2-.116-.292-.175-.072-.043-.131-.073-.2-.116a2.061,2.061,0,0,1-.189-.132c-.029,0-.044,0-.059-.014s-.029-.015-.043-.029a.015.015,0,0,1-.015-.015l-.044-.044a.244.244,0,0,1-.087-.043l-.088-.044a.014.014,0,0,0-.014-.015.435.435,0,0,1-.1-.073,1.578,1.578,0,0,1-.291-.2c-.088-.073-.19-.146-.292-.219l-.044-.044c-.087-.073-.2-.145-.306-.219-.132-.1-.278-.2-.423-.306a2.486,2.486,0,0,1-.292-.277l-.044-.044c-.087-.073-.16-.131-.248-.219l-.481-.438c-.161-.145-.307-.291-.467-.437-.307-.306-.6-.613-.861-.919-.1-.1-.19-.219-.277-.321s-.161-.219-.248-.321a4.856,4.856,0,0,1-.438-.511c-.146-.175-.277-.365-.408-.554-.015-.029-.03-.044-.044-.073a4.925,4.925,0,0,1-.38-.54v-.014l-.087-.088-.073-.073a1.016,1.016,0,0,0-.117-.219,1.341,1.341,0,0,0-.087-.146c-.059-.117-.117-.219-.176-.335a3.483,3.483,0,0,1-.189-.307l-.088-.131-.218-.394c-.059-.131-.132-.248-.19-.379a3.379,3.379,0,0,0-.234-.409.014.014,0,0,0-.014-.014.535.535,0,0,0-.073-.117c-.2-.481-.423-.9-.642-1.371a.534.534,0,0,0-.044-.161.5.5,0,0,0-.058-.131.114.114,0,0,0-.029-.073c0-.015-.015-.015-.015-.029s-.014-.029-.014-.044c-.015-.044-.029-.1-.044-.146a1.888,1.888,0,0,0-.19-.438,1.05,1.05,0,0,0-.073-.189,1.814,1.814,0,0,0-.116-.234,1.965,1.965,0,0,0-.511-.817.2.2,0,0,0-.1-.087,1,1,0,0,0-.307-.2.014.014,0,0,0-.014-.015,1.067,1.067,0,0,0-.292-.131.288.288,0,0,0-.161-.044.816.816,0,0,0-.2-.044,1.834,1.834,0,0,0-1.006.073,2.529,2.529,0,0,0-.584.336c-.087.073-.16.145-.233.219a3.091,3.091,0,0,0-.19.248,2.578,2.578,0,0,0-.219.393,2.512,2.512,0,0,0-.131.438,1.8,1.8,0,0,0,0,.686c.029.116.058.219.087.335.088.234.175.453.278.671.029.088.072.161.1.234.146.379.292.729.452,1.094s.321.715.5,1.08c.015.043.044.087.058.131s.044.087.059.131c.014.015.014.044.029.058a6.061,6.061,0,0,0,.35.686c.044.073.087.146.131.234.219.394.467.788.7,1.152a15.536,15.536,0,0,0,.846,1.328v.014c.1.161.2.307.321.467a1.917,1.917,0,0,1,.262.365c.38.481.744.948,1.124,1.4.131.145.248.291.394.437a.979.979,0,0,0,.116.132l.03.029c.014.014.029.029.029.044.175.219.379.452.569.656l.014.015-.467.1c-.744.2-1.488.423-2.188.583h-.015l-.087.059c-.686.146-1.372.306-2.013.467l-.438.087q-.438.109-.875.175H263.4a3.548,3.548,0,0,1-.379.059l-.161.058c-.35.073-.685.146-1.021.219-.219.043-.438.073-.642.116a.054.054,0,0,0-.044.015,2.425,2.425,0,0,0-.306.073h-.219c-.335.073-.686.131-1.05.2a.088.088,0,0,0-.059.015c-.175.029-.35.058-.539.1-.263.029-.5.073-.744.087h-.015a2,2,0,0,1-.306.015c-.176.044-.35.088-.54.117-.015,0-.044.014-.059.014l-.612.088a2.966,2.966,0,0,0-.351.029,3.872,3.872,0,0,0-.393.073,3.008,3.008,0,0,1-.38.029c-.189.015-.394.044-.6.073s-.408.029-.612.058c-.38.044-.745.088-1.11.117-.729.073-1.459.146-2.2.19-.365.029-.73.044-1.094.058a6.291,6.291,0,0,1-1.022.059c-1.05.058-2.072.1-3.122.1a4.558,4.558,0,0,1-.627.044c-.2.014-.409.014-.6.014H242.78c-.262,0-.481-.029-.729-.029a.241.241,0,0,0-.1-.015h-.2c-.175-.014-.336-.014-.5-.014-.277,0-.539,0-.8-.015s-.525-.014-.788-.029a2.754,2.754,0,0,0-.364-.029c-.132-.015-.263-.015-.394-.029-.263-.015-.526-.03-.788-.059h-.307c-.539-.014-1.094-.073-1.648-.116-.219-.015-.438-.029-.642-.044s-.423-.044-.627-.073-.409-.059-.6-.088a4.141,4.141,0,0,1-.423-.014c-.423-.03-.817-.1-1.225-.146-.2-.015-.423-.029-.627-.058-.424-.044-.847-.088-1.27-.146-.233-.03-.467-.059-.7-.1v-.015c-.161-.015-.321-.044-.481-.073-.03,0-.059-.015-.088-.015a.136.136,0,0,1-.073-.014.823.823,0,0,1-.262-.044c-.1-.029-.19-.029-.263-.058-.19-.03-.394-.044-.584-.073-.044,0-.073-.015-.117-.015a.178.178,0,0,0-.087-.015c-.263-.043-.511-.072-.759-.1-.248-.059-.51-.117-.773-.161-.248-.044-.5-.1-.759-.146-.189-.029-.364-.073-.539-.1-.321-.058-.628-.117-.949-.19H224.3c-.482-.1-.949-.2-1.415-.306h-.073a.31.31,0,0,1-.175-.044c-.015,0-.015-.015-.029-.015h-.015c-.234-.058-.452-.1-.672-.16-.2-.058-.423-.1-.641-.161-.2-.043-.409-.087-.613-.145a.54.54,0,0,1-.146-.029c-.248-.059-.5-.132-.759-.205a1.345,1.345,0,0,1-.233-.058c-.584-.146-1.167-.307-1.751-.467-.16-.058-.335-.088-.5-.131a5.063,5.063,0,0,1-.51-.132c-.438-.145-.89-.277-1.328-.423-.073-.014-.131-.043-.19-.058-.51-.161-1.006-.336-1.5-.525-.2-.044-.409-.1-.613-.161s-.409-.131-.613-.2c-1.24-.423-2.465-.876-3.691-1.371-.744-.292-1.488-.6-2.218-.92-.058-.029-.1-.043-.16-.073-.2-.087-.423-.175-.627-.277s-.423-.189-.628-.292c-.16-.073-.321-.131-.5-.2-.16-.073-.321-.146-.481-.2h-.015c-.058-.015-.117-.044-.175-.058a.253.253,0,0,0-.073-.059.014.014,0,0,0-.014-.014c-.015-.015-.03-.015-.044-.029-.088-.044-.175-.073-.248-.117-.248-.1-.511-.234-.773-.365-.015,0-.015-.015-.03-.015a.014.014,0,0,1-.014-.014c-.117-.059-.234-.117-.35-.19-.234-.116-.467-.219-.715-.321s-.482-.233-.715-.365a.045.045,0,0,1-.029-.014c-.015,0-.029-.015-.029-.044-.351-.16-.686-.336-1.036-.51s-.686-.365-1.036-.555a.24.24,0,0,0-.088-.058c0-.015,0-.015-.014-.015-.029-.029-.073-.058-.1-.087-.263-.132-.511-.263-.759-.394-.248-.146-.5-.277-.73-.409-.014,0-.014-.014-.029-.014-.117-.073-.233-.131-.35-.19-.613-.379-1.211-.715-1.765-1.079h-.015a1.11,1.11,0,0,1-.218-.147,1.84,1.84,0,0,1-.219-.145c-.117-.059-.219-.132-.321-.19a2.488,2.488,0,0,0-.321-.19c-1.328-.846-2.6-1.751-3.881-2.655a4.9,4.9,0,0,1-.452-.321c-.146-.1-.292-.2-.453-.307-.51-.422-1.035-.845-1.561-1.269-.014,0-.014,0-.029-.014-.364-.263-.788-.584-1.167-.9a2.335,2.335,0,0,0-.277-.248c-.19-.175-.379-.321-.569-.5h-.015c-.919-.817-1.809-1.619-2.684-2.451-.015,0-.029-.014-.044-.029-.307-.277-.613-.569-.919-.861-.19-.189-.379-.364-.554-.54a5.484,5.484,0,0,1-.511-.525v-.014q-.831-.833-1.62-1.707c-.044-.044-.073-.088-.116-.132-.132-.146-.263-.277-.38-.423-.014-.014-.029-.029-.029-.043-.394-.409-.744-.8-1.079-1.226-.015-.014-.03-.044-.044-.059l-.015-.014c-.262-.306-.511-.613-.758-.919h-.015a2.56,2.56,0,0,1-.263-.321c-.087-.1-.175-.219-.247-.321-.176-.19-.322-.394-.482-.6s-.306-.38-.452-.584c-.453-.583-.876-1.167-1.3-1.75-.263-.365-.54-.744-.773-1.124-.248-.35-.481-.685-.715-1.036-.963-1.459-1.867-2.961-2.7-4.493V723.1c-.438-.758-.832-1.532-1.226-2.305-.087-.233-.218-.452-.306-.715a.417.417,0,0,1-.058-.146,61.814,61.814,0,0,1-3.516-8.855c-.117-.365-.234-.73-.336-1.1-.044-.116-.073-.248-.117-.364-.262-.9-.525-1.824-.773-2.743-.175-.7-.365-1.4-.539-2.116-.336-1.415-.657-2.845-.963-4.274q-.547-2.692-1.007-5.384c-.146-.89-.292-1.78-.423-2.67s-.292-1.823-.423-2.742c-.146-1.094-.306-2.174-.438-3.254q-.285-2.057-.525-4.114c0-.058-.015-.1-.015-.16-.087-.73-.175-1.488-.262-2.218-.132-1.08-.248-2.145-.38-3.224-.335-2.816-.642-5.632-1.006-8.433v-.014a.052.052,0,0,0-.015-.044c0-.088-.044-.175-.044-.263a14.69,14.69,0,0,0,2.656-2.072,9.27,9.27,0,0,0,1.05-1.269,4.916,4.916,0,0,0,.642-1.342c.219-.788.481-1.59.7-2.378.263-.861.467-1.649.686-2.5.131-.452.248-.9.365-1.357.058-.233.1-.467.146-.7a3.112,3.112,0,0,0,.073-.35c.014-.117.043-.233.058-.365a13.889,13.889,0,0,0,.306-2.174,15.133,15.133,0,0,0,.161-2.334,1.325,1.325,0,0,0,.029-.233v-.146a2.971,2.971,0,0,0-.015-.365v-.16c-.014-.248-.029-.5-.058-.73v-.015q-.459-4.88-1.021-9.731c-.132-1.123-.263-2.246-.409-3.37s-.292-2.247-.437-3.37-.307-2.232-.467-3.356q-1.2-8.4-2.874-16.748c-.1-.482-.19-.977-.278-1.459-.014-.117-.044-.219-.058-.321a2.577,2.577,0,0,0-.058-.321c-.015-.088-.029-.189-.044-.277-.029-.175-.058-.35-.088-.54-.131-.715-.248-1.444-.364-2.159q-.2-1.226-.351-2.451c-.029-.161-.043-.336-.058-.5-.1-.7-.175-1.386-.248-2.086-.087-.759-.146-1.5-.2-2.262-.03-.394-.059-.773-.088-1.167-.058-.7-.087-1.4-.116-2.1a86.587,86.587,0,0,1,.145-11.175c.029-.263.059-.511.088-.759s.044-.5.073-.729c.029-.336.058-.671.1-.993.059-.568.117-1.137.19-1.706.219-1.795.51-3.575.861-5.355.16-.889.35-1.779.554-2.67.292-1.225.613-2.451.963-3.69.029-.132.073-.278.116-.424a.98.98,0,0,1,.059-.189c.233-.832.481-1.649.744-2.481.861-2.669,1.853-5.339,3.005-7.98a33.155,33.155,0,0,0,1.211-3.385c.175-.583.336-1.167.5-1.75.613-2.349,1.094-4.742,1.62-7.12.117-.6.248-1.182.379-1.78v-.029a4.354,4.354,0,0,0,.073-.452,7.215,7.215,0,0,0-.015-1.124c-.029-.219-.058-.452-.087-.686-.132-.743-.306-1.488-.394-2.217-.263.832-.51,1.663-.759,2.48-.51,1.693-.963,3.385-1.415,5.048a2.866,2.866,0,0,0-.1.336c-.2.729-.409,1.444-.613,2.159-.248.832-.5,1.648-.758,2.465-.19.613-.394,1.211-.613,1.81-.161.452-.321.89-.5,1.342l-.525,1.313c-.365.861-.774,1.722-1.2,2.553a58.94,58.94,0,0,0-4.26,10.9v.015c-.336,1.225-.642,2.436-.919,3.662v.014c-.262,1.226-.482,2.452-.686,3.677-.014.073-.014.131-.029.2-.131.817-.233,1.634-.321,2.451a1.667,1.667,0,0,0-.029.263v.058q-.132,1.138-.219,2.276a5,5,0,0,0-.043.657c-.059.656-.088,1.312-.117,1.984-.015.277-.029.554-.029.831-.03.744-.044,1.474-.044,2.232v.161a111.635,111.635,0,0,0,1.5,17.288c.278,1.78.555,3.56.8,5.34q.787,5.427,1.444,10.884c.438,3.618.846,7.221,1.226,10.84.189,1.823.379,3.632.554,5.441s.365,3.618.525,5.427c.19,1.81.365,3.619.54,5.442.029.278.044.569.059.861.014.642.014,1.284-.015,1.941-.029.364-.058.714-.1,1.079-.044.423-.1.89-.161,1.313-.029.248-.058.511-.1.759-.044.306-.087.6-.146.89-.014.058-.014.1-.029.146s-.015.1-.029.146c-.015.073-.044.16-.058.233-.073.292-.132.569-.219.861-.031.145-.069.291-.1.436-.124.5-.239,1.013-.375,1.5-.015.057-.03.117-.046.174a.108.108,0,0,0-.015.073v.044a.052.052,0,0,0-.015.044.054.054,0,0,0-.014.043c-.059.263-.132.555-.219.817-.029.073-.058.146-.1.234a2.118,2.118,0,0,1-.555.7,1.774,1.774,0,0,1-.248.234,5.944,5.944,0,0,1-.919.612l-.219.132a6.449,6.449,0,0,1-.861.379,4.852,4.852,0,0,1-1.663.365.411.411,0,0,1-.219-.059.165.165,0,0,1-.116-.043c-.015,0-.015-.015-.029-.015a.053.053,0,0,1-.044-.015,1.241,1.241,0,0,1-.321-.218.573.573,0,0,0-.1-.088c-.044-.058-.088-.1-.131-.161l-.292-.291c-.059-.088-.131-.175-.2-.277-.03-.059-.059-.1-.088-.161l-.219-.306c-.117-.19-.233-.38-.335-.584a4.619,4.619,0,0,1-.307-.6,5.762,5.762,0,0,1-.219-.554.057.057,0,0,1-.014-.044,4.745,4.745,0,0,1-.161-.554c0-.03-.014-.044-.014-.073a31.631,31.631,0,0,1-.248-5.413c0-.205-.015-.394-.029-.6a11,11,0,0,0-.249-1.736c-.145-.6-.277-1.212-.394-1.81-.145-.6-.277-1.181-.393-1.779-.132-.6-.263-1.2-.38-1.8-.131-.583-.248-1.182-.365-1.78-.16-.8-.32-1.605-.466-2.407,0-.029-.015-.073-.015-.1-.087-.467-.175-.919-.248-1.386s-.175-.978-.248-1.474c0-.029-.014-.058-.014-.087-.19-1.124-.351-2.232-.5-3.356-.014-.087-.029-.175-.043-.262-.146-1.08-.278-2.159-.38-3.254-.014-.131-.029-.263-.043-.394-.059-.554-.1-1.094-.146-1.648-.059-.6-.1-1.2-.131-1.809-.045-.6-.088-1.211-.1-1.824-.029-.759-.058-1.517-.058-2.29-.015-.453-.029-.9-.015-1.357-.029-.745-.014-1.489,0-2.247a7.681,7.681,0,0,0-.014-.817c-.015-.19-.029-.379-.059-.569-.029-.175-.058-.365-.1-.555v-.029c-.043-.175-.087-.364-.131-.54-.029-.116-.058-.233-.1-.364a2.7,2.7,0,0,0-.132-.467c-.277-.919-.612-1.838-.919-2.757-.087-.292-.189-.6-.277-.9-.043-.146-.073-.292-.116-.438h-.015l-1.05.278c.087,2.144.175,4.3.247,6.462.088,2.174.176,4.363.263,6.595.161,4.435.336,9,.5,13.831v.029c-1.225-.934-2.422-1.839-3.6-2.714-.19-.131-.38-.277-.555-.423s-.379-.277-.554-.408c-.029-.03-.073-.044-.1-.073-.963-.686-1.882-1.386-2.816-2.087-1.225-.9-2.436-1.809-3.618-2.728-1.2-.919-2.364-1.824-3.516-2.772-.482-.394-.949-.788-1.4-1.211-.467-.394-.934-.817-1.386-1.24-.919-.831-1.824-1.692-2.728-2.553-.613-.569-1.226-1.152-1.853-1.736l-1.05-.963c-.409-.365-.817-.715-1.226-1.08-.467-.393-.948-.8-1.444-1.2a29,29,0,0,1-2.232-1.984c-.7-.686-1.342-1.4-1.955-2.13-.234-.277-.452-.554-.657-.846a6.636,6.636,0,0,1-.467-.642.881.881,0,0,1-.1-.131c-.335-.482-.656-.978-.948-1.474-.146-.234-.292-.482-.423-.729-.292-.526-.569-1.065-.817-1.605-.132-.263-.248-.525-.35-.788,0-.015-.015-.015-.015-.03-.146-.349-.277-.7-.408-1.05s-.263-.729-.365-1.094a12.036,12.036,0,0,1-.321-1.2c-.029-.117-.059-.219-.088-.336q-.087-.416-.175-.831c-.014-.117-.043-.234-.058-.351-.015-.043-.015-.1-.029-.146a8.367,8.367,0,0,1-.146-1.035,18.144,18.144,0,0,1-.161-2.524c0-.277,0-.555.015-.832a1.05,1.05,0,0,1,.015-.306,3.338,3.338,0,0,1,.043-.759,5.9,5.9,0,0,1,.088-.875,5.545,5.545,0,0,1,.087-.686c.015-.044.015-.1.03-.146,0-.044.014-.1.014-.146a6.9,6.9,0,0,1,.146-.788,7.992,7.992,0,0,1,.175-.8.359.359,0,0,1,.029-.117c.059-.277.131-.554.2-.831s.161-.584.263-.876c.175-.583.394-1.167.628-1.751.116-.291.233-.568.379-.86.1-.219.2-.452.321-.671.117-.248.248-.5.379-.744s.248-.482.379-.715.263-.467.409-.7l.438-.7c.145-.233.306-.467.466-.7.584-.846,1.182-1.692,1.781-2.539.51-.714,1.021-1.415,1.546-2.115.569-.773,1.138-1.532,1.721-2.291.657-.86,1.313-1.721,1.984-2.582.5-.656.992-1.3,1.518-1.955.583-.759,1.167-1.5,1.765-2.261s1.182-1.5,1.765-2.247,1.182-1.5,1.78-2.261c.905-1.167,1.824-2.32,2.758-3.473.671-.831,1.357-1.663,2.042-2.494.584-.73,1.2-1.459,1.78-2.189.6-.729,1.2-1.459,1.78-2.2l.014-.014c.351-.438.686-.876,1.037-1.313.335-.423.685-.861,1.021-1.313.671-.876,1.327-1.751,1.984-2.656.306-.452.627-.9.948-1.371.219-.306.423-.613.628-.934.174-.262.35-.525.525-.8s.35-.54.525-.817c.35-.54.671-1.094,1.006-1.649a49.65,49.65,0,0,0,3.867-8.141c.058-.131.1-.262.16-.379a1.7,1.7,0,0,1,.175-.365c.03-.073.059-.131.088-.19a6.827,6.827,0,0,1,.409-.641c.014,0,.014-.015.014-.015a7.009,7.009,0,0,1,.758-.846,5.288,5.288,0,0,1,.424-.365c.189-.146.394-.292.6-.423s.437-.248.656-.365c.161-.073.307-.146.467-.2a12.531,12.531,0,0,1,1.984-.583c.307-.059.6-.1.919-.146s.613-.059.934-.088c.847-.058,1.678-.146,2.48-.277.321-.059.657-.117.978-.19l.175-.044.569-.131a.812.812,0,0,0,.2-.058c.234-.058.467-.117.686-.19.262-.073.525-.16.788-.248.073-.029.131-.044.2-.073.292-.1.569-.2.846-.321a7.964,7.964,0,0,0,.817-.35c.219-.087.423-.19.628-.292a.746.746,0,0,0,.1-.043c.2-.1.408-.205.612-.321.336-.176.671-.38,1.007-.569q.986-.614,1.926-1.313c.612-.467,1.225-.963,1.824-1.5l.014-.015c.292-.262.584-.54.89-.831.277-.278.569-.569.846-.861l.029-.029c.277-.292.54-.584.8-.876l.029-.029c.394-.438.788-.875,1.2-1.313s.832-.846,1.255-1.255.817-.773,1.24-1.152.846-.744,1.284-1.094.875-.715,1.328-1.051.9-.656,1.371-.977c.452-.307.919-.613,1.386-.89a.015.015,0,0,1,.015-.015h.014c.233-.146.467-.292.7-.423.03-.015.044-.029.073-.043.394-.22.788-.438,1.182-.643.117-.058.234-.116.35-.175.029-.014.073-.029.1-.043.1-.044.19-.1.278-.146.6-.292,1.167-.6,1.765-.861h.015c.7-.336,1.4-.657,2.115-.963.686-.306,1.386-.613,2.072-.89.744-.306,1.473-.6,2.217-.89.715-.277,1.415-.554,2.13-.817h.1l1.489-.627,1.138-.482c.568-.233,1.123-.481,1.706-.714.57-.249,1.138-.482,1.722-.716.511-.218,1.021-.422,1.5-.612.948-.409,1.852-.788,2.713-1.153.657-.277,1.269-.539,1.882-.788s1.182-.51,1.751-.743c1.109-.467,2.159-.9,3.107-1.328.642-.263,1.241-.525,1.809-.788.278-.117.57-.233.847-.365.685-.292,1.313-.583,1.911-.846s1.138-.511,1.663-.759h.015c.2-.087.408-.189.6-.277.409-.175.788-.35,1.152-.54.176-.073.351-.16.526-.248a5.528,5.528,0,0,0,.51-.233h.015c.336-.16.657-.306.963-.467,1.255-.6,2.334-1.152,3.457-1.736.161-.088.307-.16.453-.248.087-.044.16-.088.233-.131.482-.248.949-.5,1.386-.73.774-.423,1.5-.817,2.189-1.2a.106.106,0,0,1,.058-.029c.481-.263.919-.511,1.357-.759.554-.306,1.094-.6,1.605-.89.612-.35,1.181-.671,1.75-.992,1.138-.642,2.189-1.211,3.254-1.751.262-.146.525-.277.787-.394.8-.394,1.62-.773,2.466-1.138a52.872,52.872,0,0,1,5.763-2.042c1.853-.569,3.6-1.021,5.3-1.386.569-.117,1.123-.219,1.678-.321.685-.117,1.356-.233,2.027-.321a1.939,1.939,0,0,1,.293-.029c.583-.088,1.152-.161,1.721-.2a2.169,2.169,0,0,1,.438-.044l.933-.088c.307-.029.613-.058.92-.073h.043c.6-.043,1.167-.072,1.751-.087h.146c.7-.029,1.415-.029,2.115-.029.759,0,1.5.014,2.247.044.219,0,.452,0,.671.014.759.029,1.517.058,2.276.1,1.05.058,2.115.131,3.181.2.16.015.32.015.5.029.54.029,1.079.074,1.634.117,1.006.088,2.027.161,3.078.234,1.094.087,2.2.16,3.341.218.481.03.963.044,1.444.059,2.553.131,5.253.175,8.17.073,2.087-.044,4.275-.161,6.594-.394h.059c1.138-.1,2.305-.233,3.516-.394h.059c1.21-.161,2.465-.336,3.749-.555.657-.1,1.328-.218,2-.335s1.356-.248,2.042-.379c.7-.146,1.4-.278,2.116-.438h.014q2.145-.461,4.421-1.007c.758-.189,1.517-.379,2.305-.583.044-.015.117-.029.19-.059s.2-.058.335-.1a2.477,2.477,0,0,1,.423-.116.9.9,0,0,1,.219-.073,3.306,3.306,0,0,1,.35-.1c.19-.058.409-.116.627-.175.365-.087.774-.189,1.2-.277h.014c.351-.088.657-.146.978-.2.321-.073.627-.117.919-.175.409-.058.8-.1,1.182-.131s.729-.073,1.079-.1.642-.058.934-.058a4.13,4.13,0,0,1,.423-.015c.146-.014.277-.014.409-.014a30.932,30.932,0,0,1,4.2-.029c.5.029.992.073,1.489.116,1.2.1,2.407.234,3.6.365.482.059.949.117,1.43.16.948.117,1.882.22,2.815.293.511.043,1.007.087,1.5.1h.044q.723.045,1.444.045c.38,0,.744,0,1.109-.03.321-.015.642-.044.948-.087a9.758,9.758,0,0,0,3.823-1.24h.014c.292-.19.569-.38.861-.6.131-.116.277-.233.423-.35s.278-.263.409-.394a8.552,8.552,0,0,1,7.688-2.743c.029,0,.073.015.1.015.277.044.568.088.846.161.16.043.321.073.481.116s.336.073.5.132a6.714,6.714,0,0,1,.876.277c.277.087.554.19.846.291.087.03.189.074.277.1.263.1.525.2.8.321a137.954,137.954,0,0,0,13.437,4.406c2.845.9,5.778,1.546,8.622,2.378h.015c.569.16,1.123.321,1.678.525a17.455,17.455,0,0,1,1.678.584c.554.189,1.094.423,1.634.656h.014c1.211.525,2.422,1.05,3.633,1.532s2.451.963,3.676,1.415c.628.233,1.255.467,1.9.671.452.161.9.307,1.357.453.656.233,1.313.437,1.969.641.6.19,1.182.365,1.766.54.773.234,1.561.467,2.348.686,1.255.336,2.524.671,3.794.977.117.03.233.059.365.088,1.152.277,2.305.54,3.487.788q1.925.393,3.851.744c.656.116,1.3.233,1.955.335h.029c.394.074.8.146,1.211.234.219.044.452.087.686.146a.257.257,0,0,1,.1.014q.525.109,1.05.263c.19.044.38.1.569.146.482.131.949.277,1.416.423.495.16.977.321,1.458.511.132.043.263.1.394.145.029.015.058.015.088.029.423.161.831.336,1.24.526l.131.044c.511.233,1.007.481,1.5.744h.014a23.412,23.412,0,0,1,2.86,1.765,24.747,24.747,0,0,1,4.143,3.808c.219.248.438.51.643.773s.408.525.6.8.379.54.554.817.364.555.525.832c.219.379.423.759.627,1.153.38.773.715,1.561,1.022,2.363v.015c.116.335.233.671.335,1.021.1.335.19.671.278,1.021.073.263.1.525.16.788a.441.441,0,0,1,.029.131c.117.511.2,1.021.278,1.532.043.321.072.627.1.948.044.467.073.919.088,1.386.015.307.015.6.015.89,0,.307,0,.613-.015.919-.015.453-.029.9-.073,1.372-.029.364-.073.744-.116,1.123,0,.029-.015.073-.015.117a.184.184,0,0,1-.015.088q-.043.459-.131.919c-.029.2-.073.408-.117.627-.058.321-.131.642-.2.977-.1.438-.2.89-.336,1.343-.058.189-.1.379-.16.569a4.312,4.312,0,0,1-.175.569c-.029.116-.073.233-.1.35-.044.131-.088.248-.117.364-.365,1.08-.773,2.16-1.24,3.24-.715,1.648-1.459,3.3-2.2,4.945s-1.5,3.3-2.261,4.946c-.38.832-.759,1.663-1.124,2.5-.554,1.254-1.109,2.509-1.663,3.778-.263.628-.54,1.269-.8,1.912s-.54,1.283-.788,1.926c-.277.685-.54,1.385-.8,2.086s-.525,1.4-.773,2.1c-.511,1.416-.992,2.845-1.415,4.3q-.678,2.167-1.226,4.421v.044l-5.12-9.454q-2.56-4.705-5.122-9.454c-.145-.248-.291-.511-.422-.759,0-.014-.015-.014-.015-.029-.2.088-.423.16-.642.234-.1.029-.2.072-.306.1a1.334,1.334,0,0,1-.321.087v.029l.043.219c.015.088.03.19.044.277l.176,1.27c.087.583.16,1.182.247,1.765.131.875.292,1.751.5,2.611.059.292.146.57.219.847.132.452.292.9.452,1.356.117.336.263.686.394,1.022.117.291.234.554.336.831l.015.015c.029.058.043.117.072.175.132.277.249.554.394.832.146.306.292.612.453.919,2.582,4.843,6.317,8.928,9.935,13.057.306.35.613.686.919,1.036.569.656,1.123,1.313,1.649,2.013.16.219.321.453.467.686a1.781,1.781,0,0,1,.189.307,2.955,2.955,0,0,1,.307.481c.1.175.2.35.291.525a10.54,10.54,0,0,1,.613,1.371,10.814,10.814,0,0,1,.452,1.518,6.869,6.869,0,0,1,.146.831,11.675,11.675,0,0,1,.161,1.8h-.015c-.919-.19-1.824-.336-2.7-.482-.438-.087-.875-.145-1.313-.218-.8-.146-1.59-.278-2.363-.438a.719.719,0,0,0-.175-.029c-.715-.146-1.4-.307-2.072-.5a2.514,2.514,0,0,1-.306-.088c-.394-.1-.774-.233-1.138-.364l-.015-.015c-.525-.19-1.05-.379-1.575-.613a37.448,37.448,0,0,1-5.865-3.006c-.482-.291-.934-.6-1.387-.9-.9-.613-1.765-1.255-2.611-1.94s-1.663-1.386-2.451-2.13c-.394-.365-.788-.744-1.167-1.138-.773-.773-1.5-1.561-2.218-2.393a.014.014,0,0,0-.014-.015c-.526-.612-1.036-1.254-1.532-1.9s-.978-1.313-1.445-1.984c-1.867-2.67-3.661-5.369-5.441-8.1V555.1c-2.933-4.552-5.778-9.162-8.637-13.772-.949-1.561-1.911-3.108-2.889-4.654s-1.926-3.093-2.889-4.625l-.014-.029-.146-.292c-.452-.715-.919-1.43-1.386-2.13s-.919-1.415-1.4-2.115-.933-1.4-1.415-2.087c-.525-.759-1.05-1.517-1.59-2.261s-1.08-1.488-1.634-2.218c-.321-.423-.627-.846-.963-1.254-1.094-1.445-2.261-2.86-3.458-4.232-1.094-1.254-2.217-2.48-3.4-3.676s-2.378-2.349-3.647-3.458-2.568-2.2-3.925-3.209q-2.013-1.554-4.2-2.933c-.613-.379-1.211-.758-1.794-1.152h-.015c-1.167-.788-2.305-1.6-3.4-2.466q-.591-.459-1.138-.963c-.029-.029-.073-.058-.1-.087-.379-.321-.759-.657-1.109-1.007-.5-.481-.977-.992-1.43-1.5-.35-.393-.685-.8-1.006-1.211-.161-.2-.321-.408-.467-.627-.161-.219-.307-.438-.452-.657-.19-.291-.38-.6-.57-.9-.174-.306-.35-.627-.525-.948a.51.51,0,0,0-.1-.146.014.014,0,0,0-.014-.015l-.132-.131a3.511,3.511,0,0,0-.817-.481c-.073-.059-.146-.088-.2-.132-.073.423-.146.846-.189,1.269a10.951,10.951,0,0,0-.059,1.678,2.932,2.932,0,0,0,.029.35,3.931,3.931,0,0,0,.088.6.278.278,0,0,0,.015.117c.043.175.1.35.16.526a.514.514,0,0,0,.058.16l.015.015a1.626,1.626,0,0,0,.189.393,3.473,3.473,0,0,0,.278.365c.394.453.787.9,1.167,1.372.2.233.408.466.6.7.6.7,1.182,1.4,1.8,2.086q.612.7,1.225,1.357c.365.379.715.744,1.08,1.109a1.165,1.165,0,0,1,.189.189c.307.292.613.569.934.861.131.1.263.219.394.336.321.277.642.54.977.788.278.2.555.408.846.583a3.39,3.39,0,0,0,.409.277.015.015,0,0,0,.015.015c.2.131.408.248.613.365,1.05.569,2.057,1.181,3.048,1.809.234.146.482.292.715.452q1.817,1.182,3.5,2.5h.014a57.784,57.784,0,0,1,6.318,5.587c.175.176.35.365.525.555.219.219.438.452.656.671.131.146.277.292.409.423a.462.462,0,0,0,.073.1,1.229,1.229,0,0,0,.189.219c1.065,1.138,2.072,2.32,3.05,3.531s1.926,2.48,2.845,3.749c.467.642.919,1.284,1.371,1.94.292.424.583.847.861,1.27.233.335.467.685.685,1.021s.453.686.672,1.036c.437.685.875,1.371,1.3,2.086.263.423.525.846.773,1.284s.511.861.759,1.284c0,.014.014.014.029.029.277.5.569.978.861,1.444.146.248.292.5.438.73s.291.467.437.715c.642,1.094,1.269,2.159,1.911,3.224.321.54.642,1.08.978,1.605s.642,1.05.977,1.59c.219.321.409.657.613.977s.365.628.569.92c.015.029.029.044.044.073,3.283,5.252,6.667,10.46,10.314,15.479a.014.014,0,0,1,.015.014v.015c.015.015.015.029.029.044,1.167,1.707,2.378,3.356,3.6,5v.015c.292.379.569.758.861,1.123s.583.744.875,1.094.6.73.9,1.08l.918,1.05c.307.35.628.686.949,1.021s.642.671.977,1.007.657.642.992.963c.672.642,1.372,1.255,2.072,1.853.35.292.715.583,1.08.875.729.569,1.473,1.124,2.232,1.649.51.35,1.021.685,1.546,1.006s1.065.642,1.605.949,1.094.6,1.649.875c.467.234.919.452,1.4.657.335.16.671.306,1.021.437.2.088.408.176.627.248a11.039,11.039,0,0,0,1.094.409c.117.044.219.087.321.117.219.073.438.16.657.219.175.058.335.116.51.174.059.015.1.03.161.044h.015c.014,0,.014,0,.028.015l.482.131c.263.088.54.161.8.234v.014c.015.1.044.2.059.307s.058.218.087.335c.044.205.1.409.132.569a2.811,2.811,0,0,0,.087.511,9.988,9.988,0,0,0,.6,2.042,2.415,2.415,0,0,0,.1.292c.161.409.321.8.482,1.2.481,1.371,1.007,2.8,1.488,4.128q.635,1.73,1.269,3.5c.847,2.334,1.693,4.712,2.539,7.105.423,1.2.831,2.392,1.24,3.6s.817,2.422,1.211,3.633.788,2.436,1.167,3.662c.19.612.379,1.24.569,1.867.379,1.226.73,2.451,1.08,3.677.335,1.255.685,2.509,1.006,3.764q.963,3.764,1.751,7.543c.511,2.523.963,5.077,1.313,7.615.088.642.175,1.284.248,1.911q.132.963.219,1.926.219,2.167.35,4.333c.029.453.058.9.073,1.357.029.525.044,1.065.058,1.59.015.628.03,1.255.03,1.882v.307c0,.539,0,1.079-.015,1.619-.015.963-.044,1.911-.1,2.874-.015.511-.059,1.036-.088,1.547-.029.467-.073.948-.131,1.415-.029.5-.073.977-.146,1.473-.043.5-.1.978-.175,1.474-.044.481-.117.977-.2,1.473a70.7,70.7,0,0,1-2.8,11.832c-.015.059-.044.1-.059.161-.219.627-.452,1.269-.685,1.9a1.71,1.71,0,0,1-.073.19v.029c-.234.613-.467,1.226-.7,1.824-.539,1.357-1.094,2.7-1.677,4.026a1.986,1.986,0,0,0-.176.351C435.243,684.875,435.17,685.035,435.082,685.211ZM221.276,759.966c-.2-.043-.409-.087-.613-.145.2.058.394.116.6.16s.438.1.656.146C221.713,760.069,221.494,760.025,221.276,759.966Zm1.6.38h-.044a.09.09,0,0,1,.058.014c.452.1.919.19,1.4.292C223.814,760.55,223.347,760.448,222.881,760.346Zm6,1.109c-.19-.03-.394-.044-.584-.073.175.043.38.058.569.087a.927.927,0,0,0,.278.044C229.037,761.484,228.95,761.484,228.877,761.455Zm-7.6-1.489c-.2-.043-.409-.087-.613-.145.2.058.394.116.6.16s.438.1.656.146C221.713,760.069,221.494,760.025,221.276,759.966Zm1.6.38h-.044a.09.09,0,0,1,.058.014c.452.1.919.19,1.4.292C223.814,760.55,223.347,760.448,222.881,760.346Zm6,1.109c-.19-.03-.394-.044-.584-.073.175.043.38.058.569.087a.927.927,0,0,0,.278.044C229.037,761.484,228.95,761.484,228.877,761.455Z" fill="#00008b"/><path d="M941.957,843.88c-6.028,5.815-14.022,9.4-23.812,10.688a71.7,71.7,0,0,1-25.607-1.539c-19.281-5.216-30.268-19.11-34.158-24.839l-.471-.769-.94-.086c-19.879-2.137-76.738-4.359-131.715-6.455-54.892-2.1-111.665-4.275-131.33-6.413l-.428,4.02c19.837,2.137,76.652,4.275,131.63,6.412,54.079,2.052,109.955,4.19,130.475,6.327,4.531,6.5,16.117,20.35,35.911,25.694a79.32,79.32,0,0,0,18.34,2.18c1.667,0,3.462-.043,5.258-.171-2.822,5.856-6.2,12.44-11.671,17.4a29.437,29.437,0,0,1-5.173,3.8,21.979,21.979,0,0,1-3.762,1.838c-.77.3-1.582.6-2.351.812h-.086c-8.55,2.694-18.083,2.137-23.513-.3a8.036,8.036,0,0,1-3.591-2.779c-.043-.043-.085-.085-.085-.128a4.8,4.8,0,0,1-.385-.684,23.056,23.056,0,0,0-2.779-4.061,7.678,7.678,0,0,0-4.745-2.651,5.6,5.6,0,0,0-2.052.171c-32.149,2.694-88.152,5-150.739,6.669a5.134,5.134,0,0,0-.812.043c-2.437.043-4.917.129-7.354.171-3.676.086-7.4.214-11.158.3a3.287,3.287,0,0,1,.642.085q-48.223.834-96.489,1.71h-.128c-10.944.171-21.8.3-32.448.428-16.8.127-33.046.256-48.522.3.428-.47.812-.984,1.2-1.5,6.456-7.908,11.586-15.261,15.476-20.9l.171-.341c19.537-28.387,31.507-61.091,35.654-97.131l-3.976-.469c-4.061,35.4-15.86,67.46-34.927,95.333l-.257.3a269.9,269.9,0,0,1-17.955,23.984c-.427.47-.812.983-1.24,1.453-2.18,2.523-4.36,4.874-6.54,7.183-1.2,1.2-2.352,2.35-3.549,3.5v.043c-1.368,1.282-2.693,2.522-4.061,3.719a117.532,117.532,0,0,1-21.247,15.39c-.9.513-1.753.984-2.651,1.454-.94.47-1.838.9-2.736,1.325-1.24.641-2.479,1.2-3.762,1.71-.941.428-1.838.813-2.779,1.154q-1.41.577-2.821,1.026a80.618,80.618,0,0,1-18.853,4.233c-31.037,3.206-45.786-6.541-52.669-15.262a38.475,38.475,0,0,1-7.866-19.409c-.129-.94-.214-1.882-.3-2.865-.042-.9-.128-1.838-.128-2.821v-1.283c0-.983,0-1.966.086-2.906a62.484,62.484,0,0,1,2.137-13.852c4.745-16.843,16.2-26.12,28.344-35.953,3.163-2.565,6.412-5.215,9.533-7.994,23.556-20.948,41.041-50.4,51.9-87.554l-3.8-1.111C449.6,768.9,432.54,797.752,409.54,818.187c-3.078,2.736-6.327,5.344-9.405,7.824-12.655,10.26-24.582,19.964-29.712,38a70.386,70.386,0,0,0-2.266,14.791,7.869,7.869,0,0,0-.043,1.026q-27.316-1.154-54.635-2.821c-22.1-1.325-44.2-2.949-66.05-4.831l-.77-.042-.641.513c-1.667,1.282-3.292,2.522-4.959,3.762-2.48,1.838-5,3.591-7.524,5.258-1.539,1.025-3.035,2.01-4.532,2.95-1.667,1.026-3.249,2.009-4.916,2.992a187.111,187.111,0,0,1-19.067,9.748c-1.111.469-2.223.94-3.334,1.367-1.155.471-2.266.9-3.42,1.325-1.539.6-3.078,1.155-4.66,1.625-1.283.427-2.523.855-3.805,1.24-1.325.427-2.693.77-4.019,1.112a95.569,95.569,0,0,1-24.581,3.462c-12.312,0-23.129-2.992-31.422-9.234a58.163,58.163,0,0,1-17.271-20.947v-.043c-.556-1.154-1.026-2.223-1.454-3.206v-.043c-.47-1.154-.855-2.18-1.2-3.164-.256-.727-.427-1.411-.641-2.009-.813-2.779-1.069-4.446-1.112-4.532-1.325-9.875,1.24-18.083,6.37-34.414,2.138-6.8,4.575-13.423,7.225-19.75a67.546,67.546,0,0,0,20.606,13l1.411-3.719a63.648,63.648,0,0,1-21.29-14.151,47.907,47.907,0,0,1-12.74-22.913c-1.2-5.515-4.318-24.455,7.61-38.392,8.208-9.576,21.076-13.808,39.33-13,1.881.086,3.72.256,5.387.384l.727.086q1.475.127,2.821.257l1.326.171c24.282,2.436,42.622,12.14,53.053,27.959.642.983,1.283,1.966,1.838,2.949a47.028,47.028,0,0,1,2.309,4.66c3.292,7.395,4.361,14.621,5.173,20.435,4.1,28.985-5.472,54.592-14.236,70.923l3.548,1.924c12.954-24.2,18.041-49.59,14.664-73.4-.813-5.729-1.839-12.782-4.959-20.221.085.043.213.043.342.086,1.282.256,2.565.47,3.8.769a5.517,5.517,0,0,1,1.069.171h.043a2.247,2.247,0,0,0,.556.043c1.026.214,1.966.384,2.992.512,1.24.172,2.352.3,3.549.471,2.864.855,5.771,1.753,8.678,2.565,5.729,1.71,11.5,3.292,17.229,4.959,9.576,2.608,19.195,5.13,28.814,7.695,8.55,2.308,17.185,5.088,25.949,6.157,8.336,1.111,17.442.255,25.608-1.112,3.249-.6,6.626-1.368,9.961-2.309a22.267,22.267,0,0,0,2.394-.769c.9-.257,1.8-.556,2.608-.855,9.747-3.463,18.81-8.807,24.838-16.5,3.89-4.959,6.84-10.688,9.832-16.117,2.309-4.232,4.575-8.465,6.84-12.7.514-.983,1.027-1.923,1.583-2.907,2.735-5.259,5.429-10.432,8.122-15.69.214-.3.385-.6.641-.94.471-.47.855-1.026,1.326-1.582.341-.47.726-.983,1.111-1.539.641-.855,1.368-1.795,1.967-2.65,2.864-3.72,5.6-7.481,8.336-11.33,5.429-7.652,10.645-15.475,15.433-23.555l21.076-2.864c2.693-.343,6.455-.9,10.944-1.5,6.071-.855,10.517-1.453,10.731-1.5,40.015-5.6,124.789,9.619,124.789,9.619,18.981,3.377-5.044.47,99.994,10.988,77.806,7.822,174.509,17.527,204.006,27.317,11.672,10.3,27.019,27.831,34.372,53.267C951.747,788.775,962.093,824.514,941.957,843.88Z" fill="#ffb4e7"/><path d="M412.542,877.338a53.051,53.051,0,0,1-39.741,13.32c-.613-.044-1.211-.1-1.824-.175a2.889,2.889,0,0,1-2.466-1.955.335.335,0,0,1-.043-.161.915.915,0,0,1-.059-.189,2.189,2.189,0,0,1-.029-.54c.044-.905.6-1.868,1.634-1.751.234.029.467.059.7.073.511.059,1.007.117,1.517.146a50.148,50.148,0,0,0,37.379-12.751C411.492,871.648,414.453,875.616,412.542,877.338Z" fill="#00008b"/><path d="M382.185,915.8a60.5,60.5,0,0,0,29.315-2.577,57.454,57.454,0,0,0,13.346-6.652c3.9-2.646,6.392-6.07,4.723-10.833-.23-.657-1.08-2.7-1.849-2.842-.8-.15-.53.428-.269,1.171,1.595,4.554-4.943,8.269-8.025,10.075a58.886,58.886,0,0,1-12.23,5.392,59.637,59.637,0,0,1-27.082,1.957c-.493-.078.85,4.115,2.071,4.309Z" fill="#00008b"/><path d="M944.556,846.948c-6.375,6.113-14.705,9.95-24.787,11.423-.087.22-.175.424-.262.642-1.444,3.02-2.991,6.274-4.859,9.469-1.516-.058-3.02-.146-4.522-.277a94.692,94.692,0,0,0,4.989-9.279c-1.794.131-3.6.175-5.266.175a79.248,79.248,0,0,1-18.339-2.188c-19.8-5.34-31.382-19.185-35.9-25.692-20.528-2.13-76.4-4.275-130.487-6.317-54.9-2.145-111.623-4.275-131.538-6.4a11.451,11.451,0,0,1,.963-3.954,9.906,9.906,0,0,1,9.571-6.069q80.817.066,161.62,1.97c26.918.656,53.864,1.327,80.767,2.407,5.5.219,10.592.481,15.129,3.72,4.639,2.67,6.492,8.155,10.883,11.6,5.574,4.376,12.2,8.068,18.412,11.452a62.348,62.348,0,0,0,20.673,6.74s0,.015.015,0a86.717,86.717,0,0,0,19.944.555,11.95,11.95,0,0,1,7.922-1.882,7.869,7.869,0,0,1,1.036.161,9.537,9.537,0,0,1,3.18,1.181A8.708,8.708,0,0,1,944.556,846.948Z" fill="#e179e6"/><path d="M911.979,872.625a42.382,42.382,0,0,1-3.327,4.129,33.362,33.362,0,0,1-3.807,3.633,24.812,24.812,0,0,1-3.677,2.7h-.044a31.071,31.071,0,0,1-5.164,2.611s-.044,0-.044.029h-.044a45.051,45.051,0,0,1-15.9,2.875c-5.646,0-10.986-1.066-14.663-3.254a11.943,11.943,0,0,1-3.3-2.815,7.584,7.584,0,0,1-.6-.861,4.094,4.094,0,0,0-.467-.817,8.781,8.781,0,0,0-.642-1.153c-.861-1.444-2.217-3.326-3.764-3.5a2.515,2.515,0,0,0-.686.043l-.423.088c-15.362,1.284-36.2,2.48-60.618,3.56l-22.584.437q-31.819.613-63.625,1.343c-4.406.087-8.8.19-13.2.291-2.32.059-4.654.1-6.974.161-24.238.611-53.387,2.142-84.443,1.97-22.962-.128-44.966-1.2-60.616-1.2h-18.19c-3.032,0-6.065-.107-9.1,0-7.12.252-11.845,1.015-12.127,0-.25-.9,3.033-3.032,3.032-3.031h0A26.192,26.192,0,0,0,510,876.55a9.45,9.45,0,0,0,1.517-5.515c.364-.467.7-.919,1.036-1.371l.015-.015a13.059,13.059,0,0,1,7.79-3.954c.19-.043.394-.058.583-.087,30.288-3.6,61.218-2.889,91.666-3.589,53.688-1.255,107.377-2.568,161.08-3.6q20.4-.393,40.822-.744c6.8-.131,13.6-.233,20.41-.35,5.515-.087,11.788-.875,17.157.788,10.081,3.108,11.846,14.269,20.556,19.141a21.758,21.758,0,0,0,18.718,1.2,23.745,23.745,0,0,0,7.383-4.625,10.441,10.441,0,0,1,9.424-2.743,8.806,8.806,0,0,1,1.226.321A11.73,11.73,0,0,1,911.979,872.625Z" fill="#e179e6"/><path d="M463.765,734.712A228.1,228.1,0,0,1,450.591,769.1a.111.111,0,0,1-.029.073c-10.067,20.849-22.92,38.268-38.37,52.011-3.122,2.772-6.376,5.427-9.542,8-11.686,9.469-22.745,18.427-27.778,34.125-.2.6-.379,1.211-.554,1.824a62.052,62.052,0,0,0-2.145,13.845c-.087.948-.087,1.925-.087,2.918v.977c-.35,1.444-.657,2.889-.963,4.318-.175.759-.336,1.532-.5,2.291-.029.161-.073.306-.1.467-.088.423-.2.817-.321,1.2a10.3,10.3,0,0,1-.569,1.416c-.03-.482-.059-.964-.059-1.445-.248-.014-.481-.014-.729-.029-.146-.8-.248-1.62-.35-2.437,0-.029-.015-.072-.015-.1a.735.735,0,0,1-.014-.175,6.248,6.248,0,0,1-.088-.729c-.073-.6-.117-1.182-.175-1.824-.015-.175-.029-.365-.029-.554-.03-.482-.059-.963-.059-1.445,0-.047-6.648-.289-7.07-.307-2.426-.106-3.416.5-3.724-1.966a35.347,35.347,0,0,1,.018-5.829c.209-4.515,1.836-9.8,3.207-14.117A55.418,55.418,0,0,1,368,846.265c3.629-5.112,8.125-8.13,12.958-11.933,0,0,1.717-1.292,22.2-19.116,21.981-19.128,33.421-45.666,34.825-49,7.655-18.211,9-33.7,17.507-35.015a10.3,10.3,0,0,1,7.134,2.013Z" fill="#e179e6"/><path d="M944.732,846.788a1.821,1.821,0,0,1-.176.16c-6.375,6.113-14.705,9.95-24.787,11.423a8.325,8.325,0,0,1-1.109.176c-1.2.175-2.392.291-3.545.379-1.794.131-3.6.175-5.266.175a79.248,79.248,0,0,1-18.339-2.188c-19.8-5.34-31.382-19.185-35.9-25.692-20.528-2.13-76.4-4.275-130.487-6.317-54.9-2.145-111.623-4.275-131.538-6.4a.18.18,0,0,0-.087-.015l.422-4.012c.2.03.409.044.628.073,20.206,2.1,76.39,4.26,130.706,6.332,54.987,2.1,111.842,4.318,131.712,6.463l.949.088.466.758c3.9,5.734,14.882,19.623,34.154,24.846a71.557,71.557,0,0,0,25.619,1.532c9.031-1.182,16.53-4.333,22.366-9.366q.744-.636,1.444-1.314c.452-.423.889-.89,1.3-1.327.015,0,.03,0,.03-.029,18.338-19.652,8.373-54.054,4.522-67.214-7.353-25.443-22.7-42.965-34.372-53.28-29.5-9.789-126.2-19.491-204-27.311-105.043-10.519-81.015-7.616-99.995-10.986,0,0-84.779-15.216-124.783-9.614-.219.043-4.669.642-10.738,1.488-4.479.6-8.243,1.152-10.942,1.5L441.9,679.973l-.132.015-3.589.5-.291-1.97v-.029l-.263-1.969.977-.1h.015l.029-.014.569-.059,3.954-.583,1.342-.19,17.916-2.436c1.882-.248,9.1-1.24,10.986-1.488,3.676-.511,7.309-.992,10.942-1.5,40.237-5.471,125.687,9.614,125.687,9.614,20.308,3.6-4.056.6,99.776,10.986,78.374,7.878,175.846,17.624,205.3,27.574l.379.175.307.263c12.094,10.606,28.172,28.857,35.86,55.439C955.761,788.3,966.631,825.75,944.732,846.788Z" fill="#00008b"/><path d="M560.405,762.184c-4.143,36.036-16.122,68.745-35.657,97.136l-.16.336c-1.284,1.838-2.684,3.866-4.216,6.039h-.015c-2.859,4.042-6.2,8.579-10.023,13.349-.394.5-.817,1.007-1.225,1.518s-.774,1.021-1.2,1.488c-.948,1.123-1.881,2.232-2.83,3.341a6.869,6.869,0,0,1-.6.686c-.8.89-1.532,1.75-2.349,2.611-1.065,1.2-2.086,2.305-3.21,3.458v.044c-1.2,1.2-2.392,2.392-3.588,3.545a125.662,125.662,0,0,1-28.348,21.286c-.933.525-1.867.992-2.815,1.459s-1.883.933-2.86,1.371a41.09,41.09,0,0,1-3.808,1.576c-.933.437-1.882.773-2.772,1.152-.992.35-1.926.686-2.918.992a86.457,86.457,0,0,1-18.295,3.925,106.837,106.837,0,0,1-12.007.686c-19.943,0-32.169-5.865-39.6-12.474l-.015-.015-.306-.262-.044-.044-.014-.015a37.984,37.984,0,0,1-4.319-4.625,41.839,41.839,0,0,1-8.374-19.666c-.146-.8-.248-1.62-.35-2.437,0-.029-.015-.072-.015-.1a.735.735,0,0,1-.014-.175,6.248,6.248,0,0,1-.088-.729c-.073-.6-.117-1.182-.175-1.824-.015-.175-.029-.365-.029-.554-.03-.482-.059-.963-.059-1.445V883a9.183,9.183,0,0,1-.043-1.065c0-.729,0-1.415.043-2.1a7.6,7.6,0,0,1,.044-1.021,70.358,70.358,0,0,1,2.261-14.793c5.136-18.047,17.055-27.749,29.719-38.006,3.078-2.48,6.317-5.091,9.4-7.82,23.007-20.439,40.062-49.3,50.741-85.683l2.349.7.89.263.569.161c-.1.364-.2.715-.321,1.079A228.1,228.1,0,0,1,450.591,769.1a.111.111,0,0,1-.029.073c-10.067,20.849-22.92,38.268-38.37,52.011-3.122,2.772-6.376,5.427-9.542,8-11.686,9.469-22.745,18.427-27.778,34.125-.2.6-.379,1.211-.554,1.824a62.052,62.052,0,0,0-2.145,13.845c-.087.948-.087,1.925-.087,2.918v1.283c0,.978.087,1.912.131,2.816a.336.336,0,0,0,.014.117c.074.934.161,1.853.292,2.743.073.612.161,1.211.278,1.809a37.824,37.824,0,0,0,7.586,17.609,32.367,32.367,0,0,0,3.385,3.677,35.356,35.356,0,0,0,5.923,4.566.014.014,0,0,0,.014.015h.015c8.695,5.383,22.249,9.176,43.331,7A81.141,81.141,0,0,0,451.9,919.3c.948-.307,1.882-.642,2.83-1.036.934-.336,1.839-.715,2.772-1.153a41.17,41.17,0,0,0,3.764-1.707c.89-.423,1.8-.861,2.729-1.327.9-.467,1.765-.934,2.655-1.445A117.583,117.583,0,0,0,487.9,897.238c1.371-1.2,2.7-2.437,4.07-3.721v-.043c1.2-1.153,2.349-2.306,3.545-3.5,2.174-2.32,4.363-4.669,6.536-7.193.438-.466.817-.977,1.241-1.444,2.991-3.516,5.748-6.988,8.214-10.271.364-.481.714-.963,1.065-1.415,3.4-4.566,6.273-8.768,8.68-12.3l.263-.306c19.068-27.866,30.856-59.933,34.926-95.327Z" fill="#00008b"/><path d="M712.942,882.4c-4.874.128-9.79.3-14.707.428q-61.176,1.921-123.464,2.693-15.069.192-30.011.342h-.085q-12.954.063-25.394.171c-5,0-9.918,0-14.792.042h-.9v-4.018h4.318c15.476-.043,31.721-.172,48.522-.3,10.645-.129,21.5-.257,32.448-.428h.128q48.223-.834,96.489-1.71c3.291-.043,6.583-.085,9.875-.171Z" fill="#00008b"/><path d="M920.236,857.394c-.131.292-.291.642-.467.977-.087.22-.175.424-.262.642-1.444,3.02-2.991,6.274-4.859,9.469-.816,1.4-1.707,2.787-2.669,4.143a42.531,42.531,0,0,1-3.327,4.129,33.279,33.279,0,0,1-3.807,3.633,24.812,24.812,0,0,1-3.677,2.7h-.043a31.121,31.121,0,0,1-5.165,2.611s-.044,0-.044.029h-.044a45.051,45.051,0,0,1-15.9,2.875c-5.646,0-10.986-1.065-14.663-3.254a11.943,11.943,0,0,1-3.3-2.815,7.584,7.584,0,0,1-.6-.861,4.145,4.145,0,0,0-.467-.817,8.781,8.781,0,0,0-.642-1.153c-.861-1.444-2.217-3.326-3.764-3.5a2.52,2.52,0,0,0-.686.043l-.423.088c-15.362,1.284-36.2,2.48-60.618,3.56-14.254.642-29.719,1.225-46.044,1.78-12.051.423-24.54.817-37.32,1.2-.817,0-1.663,0-2.524.044-.948.044-1.925.087-2.859.087-2.276.088-4.537.132-6.8.175a3.087,3.087,0,0,0-.554-.175,3.387,3.387,0,0,0-.482-.175c-.933-.306-1.882-.583-2.83-.861-3.239-.933-6.565-1.721-9.906-2.348a3.191,3.191,0,0,0-.642-.073c3.764-.088,7.484-.219,11.161-.307,2.436-.044,4.916-.131,7.353-.175a5.2,5.2,0,0,1,.817-.043c62.588-1.664,118.582-3.969,150.737-6.668a5.49,5.49,0,0,1,2.042-.16,7.631,7.631,0,0,1,4.756,2.64,22.733,22.733,0,0,1,2.773,4.071,4.569,4.569,0,0,0,.393.671.2.2,0,0,0,.073.131,7.982,7.982,0,0,0,3.6,2.787c5.427,2.436,14.954,2.991,23.5.291h.087a24.77,24.77,0,0,0,2.349-.8,23.713,23.713,0,0,0,3.764-1.838,30.789,30.789,0,0,0,5.179-3.808,31.328,31.328,0,0,0,2.67-2.728l.014-.015c.715-.817,1.386-1.648,2.028-2.509.7-.948,1.357-1.9,1.97-2.874a94.692,94.692,0,0,0,4.989-9.279c.248-.555.467-1.109.759-1.62.219-.51.482-1.065.686-1.546Z" fill="#00008b"/><path d="M136.569,730.712a34.467,34.467,0,0,0-11.127,15.809,30.432,30.432,0,0,0,5.76,29.136,33.416,33.416,0,0,0,14.54,9.993,2.209,2.209,0,0,0,2.509-.793c.461-.645.494-1.791-.407-2.109-9.2-3.248-16.805-10.644-19.4-20.176-2.4-8.834-.076-17.872,5.557-24.953a28.863,28.863,0,0,1,4.845-4.889,1.518,1.518,0,0,0,.252-2.242,2.013,2.013,0,0,0-2.53.224Z" fill="#00008b"/><path d="M157.053,727.614c-11.126,13.246-8.13,33.2,4.338,44.421a35.289,35.289,0,0,0,6.411,4.645c1.915,1.065,1.345-2.385.166-3.041a31.208,31.208,0,0,1-11.088-10.285,27.454,27.454,0,0,1,2.259-32.716c.875-1.042-1.076-4.226-2.086-3.024Z" fill="#00008b"/><path d="M142.2,819.68c-.773-.257-1.811-.269-2.746-.493a20.05,20.05,0,0,1-5.012-1.993c-3.084-1.7-5.607-3.876-8.512-5.728-2.261-1.441-6.488-2.337-6.968.663-.4,2.507,3.255,4.4,5.346,5.464,4.341,2.207,9.119,3.578,13.7,5.352a6.849,6.849,0,0,0,1.362.394,2.844,2.844,0,0,0,1.42-.081,3.566,3.566,0,0,0,1.1-.875c.51-.481,1.555-1.419,1.205-2.151C142.972,820,142.727,819.856,142.2,819.68Z" fill="#e179e6"/><path d="M218.576,860.721l-3.559-1.926c8.768-16.326,18.353-41.93,14.239-70.919-.8-5.806-1.882-13.043-5.164-20.44a46.16,46.16,0,0,0-2.32-4.654c-.555-.977-1.2-1.969-1.838-2.947C209.5,744.02,191.163,734.3,166.887,731.867l-1.328-.16c-.89-.088-1.838-.175-2.816-.263l-.729-.087c-1.663-.131-3.5-.292-5.384-.379-18.266-.817-31.133,3.413-39.333,13-11.934,13.933-8.812,32.869-7.615,38.384a46.65,46.65,0,0,0,8.155,17.551q.591.787,1.226,1.576c1.05,1.3,2.174,2.567,3.37,3.793A63.218,63.218,0,0,0,143.6,819.374a.984.984,0,0,0,.117.059l-1.415,3.72c-.176-.058-.394-.146-.671-.263a68.524,68.524,0,0,1-19.93-12.736c-.729-.642-1.459-1.328-2.144-2.057-.292-.336-.642-.686-.89-.978a53.453,53.453,0,0,1-6.58-8.549c0-.015-.015-.015-.015-.029a50.672,50.672,0,0,1-6.273-15.275c-1.328-6-4.669-26.553,8.462-41.9,8.724-10.212,22.015-14.925,40.4-14.458l2.13.088c1.327.043,2.611.175,3.9.262.6.044,1.153.088,1.707.132l.73.043c.992.088,1.925.2,2.83.292l1.357.131c25.487,2.656,44.847,12.912,55.965,29.792.729,1.08,1.371,2.1,1.969,3.166.292.51.6,1.065.89,1.634.6,1.108,1.123,2.261,1.634,3.414.16.423.336.817.511,1.24,3.122,7.44,4.143,14.487,4.96,20.22C236.609,811.131,231.532,836.531,218.576,860.721Z" fill="#00008b"/><path d="M370.16,879.92,370,883.086l-.043.8c-.394,0-.788-.014-1.211-.044-.2-.014-.409-.014-.628-.029l-18.455-.8c-.467-.015-.934-.044-1.4-.073-6.7-.306-13.422-.656-20.118-1.05-26.2-1.415-52.42-3.3-78.316-5.428-.642-.087-1.284-.131-1.97-.175-.043.044-.131.088-.175.132-2.3,1.794-4.566,3.5-6.886,5.077-1.357,1.036-2.772,1.969-4.187,2.918-1.444,1.021-2.947,2-4.435,2.947a181.514,181.514,0,0,1-22.832,12.4c-1.065.51-2.189.977-3.254,1.444-1.109.438-2.217.9-3.341,1.327-1.444.6-2.9,1.153-4.347,1.664-1.2.437-2.393.86-3.6,1.284-1.269.437-2.509.817-3.793,1.2a103.785,103.785,0,0,1-29.85,4.756c-13.2,0-24.787-3.253-33.774-9.965a61.447,61.447,0,0,1-19.827-25.356c-.467-1.108-.905-2.13-1.24-3.166a30.018,30.018,0,0,1-.992-3.122c-.248-.8-.467-1.532-.6-2.174-.424-1.619-.555-2.611-.6-2.786-1.444-10.767,1.415-19.783,6.507-36.167.613-1.97,1.269-3.924,1.926-5.85h.014q.111-.328.22-.657c1.809-5.15,3.763-10.2,5.879-15.071a10.173,10.173,0,0,1,.51-1.24l3.633,1.62c-.379.861-.773,1.75-1.109,2.655-1.882,4.479-3.662,9.118-5.3,13.874-.059.19-.132.38-.19.569-.613,1.751-1.182,3.531-1.751,5.311-5.121,16.325-7.688,24.524-6.361,34.4.044.088.292,1.766,1.109,4.538.219.6.379,1.284.642,2.013.336.977.73,2,1.2,3.166v.044c.423.977.905,2.042,1.459,3.195v.043a57.926,57.926,0,0,0,17.274,20.951c8.287,6.244,19.1,9.235,31.411,9.235a95.709,95.709,0,0,0,24.583-3.458c1.328-.35,2.7-.685,4.027-1.123,1.283-.38,2.509-.8,3.793-1.24,1.59-.467,3.122-1.022,4.668-1.62,1.153-.423,2.262-.861,3.414-1.327,1.109-.423,2.232-.89,3.341-1.357a190.43,190.43,0,0,0,19.069-9.76c1.663-.978,3.238-1.955,4.916-2.991,1.488-.934,2.991-1.926,4.523-2.947,2.524-1.663,5.048-3.414,7.528-5.252,1.663-1.241,3.3-2.481,4.96-3.764l.642-.511.774.044c21.839,1.882,43.942,3.5,66.045,4.829q17.113,1.05,34.212,1.867c.963.059,1.941.1,2.9.146h.014q8.754.438,17.507.8c.482,0,1.022.03,1.547.059C369.824,879.905,370,879.905,370.16,879.92Z" fill="#00008b"/></svg>