<svg xmlns="http://www.w3.org/2000/svg" viewBox="0 0 1080 1080"><ellipse cx="531.189" cy="797.385" rx="411.811" ry="60.759" fill="#b5c087" opacity="0.58"/><path d="M347.176,402.86a23.4,23.4,0,0,0-1.807,1.649c.158-.157.315-.314.511-.512a5.871,5.871,0,0,1,.865-.825A1.724,1.724,0,0,1,347.176,402.86Z" fill="#dca87f"/><path d="M872.544,643.619c-1.992-19.876-7.86-40.69-19.92-59.026-1.507-2.3-3.413-5.04-5.448-7.936-11.984-17.045-30.084-42.757-21.448-60.458.366-.776.743-1.432,1.131-2.111a26.291,26.291,0,0,0,2.088-4.3c4.77-12.684.194-26.068-4.953-37.5-7.16-16.021-16.98-37.879-34.4-55.807-5.782-5.932-22.019-21.19-51.511-38.751-1.443-.862-2.907-1.734-4.425-2.617l-.281-.15a110.631,110.631,0,0,0-11.391-4.264c-9.54-1.12-23.333-3.683-36.329-5.955-89.789-15.72-90.047-8.775-146.436-20.457a186.915,186.915,0,0,0-39.666-4.49,182.821,182.821,0,0,0-43.113,5.071c-14.9,2.616-29.664,6.051-44.114,10.057-2.519.7-4.942,1.572-7.4,2.422-3.833,1.336-7.257,3.435-11.165,4.6-3.855,1.131-7.355,3.445-10.983,5.179-.926.431-1.863.872-2.8,1.314-1.518.7-3.025,1.4-4.587,2.142-1.356.635-2.734,1.292-4.113,1.949-.312.162-.635.312-.947.463-1.4.657-2.821,1.335-4.243,2.056-.57.291-1.162.571-1.776.884-1.271.613-2.563,1.27-3.855,1.927q-4.215,2.131-8.571,4.447c-.893.484-1.8.958-2.713,1.486q-4.377,2.406-8.808,5c-1.669.99-3.315,1.992-4.974,3.026-.926.548-1.863,1.141-2.811,1.755-1.863,1.184-3.725,2.379-5.609,3.682-4.663,3.155-9.379,6.547-14.084,10.229-.7.57-1.421,1.12-2.121,1.68-1.249.969-2.476,1.981-3.7,3.025q-5.62,4.637-11.176,9.928-6.995,6.606-13.848,14.309c-1.442,1.615-2.852,3.263-4.231,4.9-.958,1.141-1.906,2.3-2.821,3.445-.107.129-.226.28-.334.42-1,1.249-1.992,2.5-2.929,3.725,0,.044-.042.087-.1.13-.959,1.27-1.928,2.541-2.843,3.79a1.208,1.208,0,0,0-.15.194c-1.821,2.455-3.532,4.888-5.147,7.257-.635.894-1.228,1.8-1.82,2.692-.2.3-.4.613-.592.893-.636.991-1.271,1.949-1.885,2.9a5.889,5.889,0,0,0-.376.592c-.678,1.056-1.314,2.057-1.928,3.047-4.931,7.946-8.549,14.676-10.735,19.037-.258.549-.527,1.033-.743,1.486-1.582,3.2-3.111,6.471-4.533,9.712l-6.115-2.692c.043-.1.064-.162.107-.248q-2.148,1.325-4.253,2.692a55.228,55.228,0,0,0-5.445,7.384c-14.684,8.864-24.8,25.962-32.349,42.724-7.015,15.564-17.915,32.774-19.4,50.039-1.324,15.342,5.364,30.818,10.728,44.88,10.408,27.281,23.536,53.431,42.791,75.6,20.209,23.271,46.9,38.335,75.556,48.815,29.3,10.716,60.317,17.821,90.7,24.729a521.827,521.827,0,0,0,100.4,13.047c66.961,1.959,133.989-8.94,198.627-25.769,36.207-9.427,71.881-20.808,107.179-33.186,15.679-5.5,33.471-10.392,45.115-23.031a42.306,42.306,0,0,0,9.3-15.664c0,.113,0,.244,0,.349.043,13.534-5.125,22.385-14.105,32.711-1.034,1.206-2.078,2.433-3.133,3.661,1.69-1.389,3.283-2.746,4.8-4.1,2.014-1.8,3.876-3.575,5.556-5.32.441-.441.861-.861,1.249-1.292.247-.247.463-.484.7-.754.313-.322.615-.656.905-.979a86.074,86.074,0,0,0,7.86-10.014c.485-.7.926-1.421,1.367-2.132.281-.43.539-.872.808-1.335.3-.5.592-.98.829-1.464.926-1.594,1.712-3.155,2.434-4.684.237-.528.484-1.034.7-1.54.7-1.572,1.313-3.133,1.863-4.619C871.209,693.353,875.128,669.278,872.544,643.619Z" fill="#bc85f2"/><path d="M736.284,491.412c-.226-.162-.463-.334-.69-.484a52.637,52.637,0,0,0-5.867-3.586c-.98-.527-1.971-1.023-2.983-1.475-.431-.215-.829-.377-1.271-.56-.613-.28-1.281-.56-1.949-.8-.667-.29-1.335-.538-2-.775a64.572,64.572,0,0,0-6.374-1.9c-1.411-.344-2.789-.7-4.211-.98-.42-.1-.85-.172-1.281-.248-1.421-.279-2.843-.516-4.3-.731-1.012-.173-2.078-.313-3.1-.421-.743-.14-1.529-.215-2.272-.28-2.552-.279-5.071-.484-7.623-.635-2.907-.2-5.814-.312-8.732-.344-2.908-.076-5.772-.108-8.636-.108-1.959,0-3.9,0-5.857.032h-.668c-.592,0-1.173.033-1.723.033h-.043a4.752,4.752,0,0,0-.786.043h-.355c-.506.032-.98.032-1.5.064-.818,0-1.647.044-2.465.076h-.086c-.313,0-.625.032-.9.032-.108,0-.28.032-.388.032h-.043c-.452.022-.915.032-1.367.032a197.335,197.335,0,0,1-42.779-3.854c-.118-.022-.248-.054-.366-.076,2.509-.355,5.028-.721,7.537-1.076l4.232.29q13.5.938,26.994,1.863c2.874-.086,5.189-.183,6.815-.259,1.368-.053,2.089-.1,3.381-.139,1.8-.065,3.618-.065,5.416-.108,6.052-.1,12.1,0,18.111.247,14.654.7,29.847,2.391,42.714,9.056.28.14.549.28.829.431a24.373,24.373,0,0,1,3.521,4.673C735.573,490.142,735.9,490.809,736.284,491.412Z" fill="#00008b"/><g opacity="0.17"><path d="M446.7,480.806a13.56,13.56,0,0,1-1.582,2.154c-.733.851-1.551,1.68-2.369,2.487-.872.883-1.734,1.734-2.455,2.552.2-.269.474-.592.711-.905s.506-.624.742-.937l.808-.9c.754-.85,1.54-1.7,2.315-2.541.431-.452.851-.9,1.281-1.357C446.309,481.162,446.5,481,446.7,480.806Z" fill="#6d5b32"/></g><path d="M410.235,460.576a1.021,1.021,0,0,1-.431.117v-.039A2.082,2.082,0,0,0,410.235,460.576Z" fill="#d1c09a"/><path d="M410.235,460.576a1.021,1.021,0,0,1-.431.117v-.039A2.082,2.082,0,0,0,410.235,460.576Z" fill="#d1c09a"/><path d="M506.423,437.629c0,.076-.043.119-.086.194l-.237-.237C506.218,437.586,506.337,437.629,506.423,437.629Z" fill="#d1c09a"/><path d="M506.423,437.629c0,.076-.043.119-.086.194l-.237-.237C506.218,437.586,506.337,437.629,506.423,437.629Z" fill="#f5f2c3"/><path d="M347.176,402.86a23.4,23.4,0,0,0-1.807,1.649c.158-.157.315-.314.511-.512a5.871,5.871,0,0,1,.865-.825A1.724,1.724,0,0,1,347.176,402.86Z" fill="#dca87f"/><path d="M506.423,437.629c0,.076-.043.119-.086.194l-.237-.237C506.218,437.586,506.337,437.629,506.423,437.629Z" fill="#ffb4e7"/><path d="M569.444,447.923a20.586,20.586,0,0,1-7.828,5.976c-11.037,4.318-26.67,0-32.528-10.5a17.909,17.909,0,0,1-1.971-13.706.043.043,0,0,1,.044.043.878.878,0,0,1,.118-.4,15.479,15.479,0,0,0,.625-1.5c.161,0,.28.043.4.043l.043.043.819.119c.786.15,1.572.269,2.325.473l.011.011a.021.021,0,0,1,.022.021,74.3,74.3,0,0,1,9.41,2.552h.022c1.012.324,1.992.7,2.961,1.088.011,0,.011.011.021.011a78.594,78.594,0,0,1,22.945,13.405C567.754,446.351,568.615,447.137,569.444,447.923Z" fill="#ffb4e7"/><path d="M506.423,437.629c0,.076-.043.119-.086.194l-.237-.237C506.218,437.586,506.337,437.629,506.423,437.629Z" fill="#fff6bd"/><path d="M584.055,403.766a23.328,23.328,0,0,1-11.2,7.15,29.263,29.263,0,0,1-10.693,1.292c-1.249,2.551-2.508,5.114-3.768,7.666-.28.506-.506,1.055-.786,1.572l-.356.786v.032l-.786,1.691-3.693-1.529-1.1-.474.743-1.647.355-.786c.162-.312.355-.636.517-.948.237-.431.474-.9.7-1.335,0-.011.011-.011.011-.021.2-.345.387-.679.549-1.024v-.01c1.055-1.971,2.121-3.93,3.176-5.933-2.509-1.884-14.815-11.747-13.319-22.751.237-1.734.668-4.953,3.5-6.956,4.91-3.5,14.343-1.69,28.049,5.308,5,2.552,10.175,5.179,11.241,9.389C588.136,398.889,585.584,401.914,584.055,403.766Z" fill="#00008b"/><path d="M510.508,403.5a51.531,51.531,0,0,0,12.855,18.875,61.319,61.319,0,0,0,5,4.263,11.917,11.917,0,0,1,.5-1.118c.709-1.355,1.467-2.679,2.241-3.982a37.654,37.654,0,0,1,3.162-4.438,46.228,46.228,0,0,1-17.492-7.815A39.938,39.938,0,0,1,510.508,403.5Z" fill="#00008b"/><path d="M535.021,416.213l-.593-.118a44.4,44.4,0,0,1-16.85-7.494,43.856,43.856,0,0,1-5.933-5.47l-.118-.118-3.855-4.437-.624-.667.936,2.358v.043l.044.032,1.14,3.026a2.742,2.742,0,0,0,.119.28,53.085,53.085,0,0,0,13.126,19.327c1.6,1.5,3.294,2.907,5.146,4.361a3.738,3.738,0,0,0,.431.312h.043c.075.118.194.161.269.237l.043.043.668.506.151-.387.549-1.218a1.08,1.08,0,0,1,.161-.354c.076-.162.119-.281.194-.431.711-1.335,1.454-2.681,2.2-3.974.947-1.453,1.97-2.907,3.111-4.36l.312-.313.711-.861Zm-7.268,8.614c-1.217-.991-2.358-2.013-3.456-3.026a53.553,53.553,0,0,1-10.219-13.287c.668.474,1.293,1.024,1.885,1.454a46.843,46.843,0,0,0,16.226,7.667,39.445,39.445,0,0,0-2.282,3.338C529.164,422.232,528.463,423.492,527.753,424.827Z" fill="#00008b"/><path d="M574.114,442.121a65.388,65.388,0,0,0,9.192-.52,54.984,54.984,0,0,0,21.343-7.186,58.938,58.938,0,0,1-25.5-.88A50.274,50.274,0,0,1,574.114,442.121Z" fill="#00008b"/><path d="M609.864,432.364l-5.652,1.023c-.119,0-.194.043-.28.043a56.443,56.443,0,0,1-24.356-.829l-.194-.076-1.1-.236-.355.786c-.043,0-.043.032-.086.118a45.467,45.467,0,0,1-4.6,7.893,2.2,2.2,0,0,1-.269.4l-.98,1.368-.2.236,1.5.043.043.043h.032v-.043l.9.043h.043a67.7,67.7,0,0,0,9.389-.56,56.491,56.491,0,0,0,21.8-7.3,7.616,7.616,0,0,0,.9-.592l1.637-.991c.021,0,.032-.01.053-.032a.168.168,0,0,0,.119-.032h.043l2.347-1.421Zm-33.475,8.69a43.175,43.175,0,0,0,3.618-6.256,58.355,58.355,0,0,0,18.541,1.453,56.2,56.2,0,0,1-15.634,4.329A62.746,62.746,0,0,1,576.389,441.054Z" fill="#00008b"/><path d="M640.551,415.352a7.968,7.968,0,0,1-.786.861l-.043.043c-.269.28-.549.55-.861.829a66.539,66.539,0,0,1-30.6,16.582h-.043a.168.168,0,0,1-.119.032c-.021.022-.032.032-.053.032s-.032.011-.065.011h-.043c-1.055.237-2.153.474-3.295.668-.043.011-.075.011-.118.022-.474.075-.948.183-1.411.258-.2.032-.43.032-.635.075H602.4c-.119,0-.237.033-.312.033a.256.256,0,0,1-.1.032.32.32,0,0,1-.107.011c-.215.021-.441.053-.668.086s-.463.054-.7.075a.627.627,0,0,1-.141.022.656.656,0,0,1-.14.01c-.01,0-.01.011-.021.011a.559.559,0,0,1-.248.032,1.618,1.618,0,0,1-.462.033,1.341,1.341,0,0,1-.2.01.074.074,0,0,1-.087,0,.151.151,0,0,1-.118.033c-.2.021-.409.043-.624.054-.183.01-.366.021-.549.021h-.043c-.238.022-.474.043-.7.065s-.452.021-.668.021a2.669,2.669,0,0,1-.409.033c-.14.011-.269.011-.388.011-.7.032-1.367.032-2.078.032h-1.453a2.4,2.4,0,0,0-.28-.022c-.022,0-.054-.01-.076,0-.118-.01-.236-.01-.344-.01h-.205a.927.927,0,0,0-.183-.022,2.045,2.045,0,0,0-.366-.022c-.032-.043-.118-.043-.194-.043h-.355c-.388,0-.743-.043-1.141-.075a2.574,2.574,0,0,1-.291-.011h-.108l-.366-.032a.293.293,0,0,1-.1-.011,2.912,2.912,0,0,1-.312-.022.9.9,0,0,0-.215-.032,1.415,1.415,0,0,0-.215-.011.3.3,0,0,0-.119-.032.433.433,0,0,0-.119-.011h-.011c-.043,0-.064-.032-.107-.032h-.119c-.118,0-.236-.043-.355-.043a.7.7,0,0,1-.14-.011h-.022a.2.2,0,0,1-.107-.032h-.323c-.032-.032-.118-.032-.194-.032a.122.122,0,0,0-.086-.033.354.354,0,0,0-.108-.01c-.355-.043-.71-.119-1.066-.151a.211.211,0,0,0-.118-.032.4.4,0,0,0-.118-.011,1.039,1.039,0,0,0-.194-.043.037.037,0,0,1-.032-.011.441.441,0,0,1-.162-.032c-.043,0-.043-.033-.076-.033a.441.441,0,0,1-.236-.043.711.711,0,0,1-.28-.043l-.237-.032h-.119c-.01,0-.032-.011-.043-.011a.01.01,0,0,0-.01-.01.157.157,0,0,0-.065-.022h-.151a2.076,2.076,0,0,0-.258-.065.038.038,0,0,0-.022-.011h-.075l-.711-.161c-.3-.065-.592-.129-.9-.194-.011,0-.033-.011-.043-.011-.129-.043-.248-.064-.388-.107a1.567,1.567,0,0,0-.237-.076c-.312-.075-.624-.161-.937-.237-.43-.075-.861-.193-1.3-.312-.668-.193-1.336-.4-2.079-.668l-.473-.161a.378.378,0,0,1-.108-.022c-.151-.053-.312-.107-.474-.161a.421.421,0,0,0-.075-.032c-.043-.022-.086-.033-.129-.054-.087-.032-.162-.054-.258-.086-.033-.011-.087-.022-.13-.033a1.027,1.027,0,0,0-.183-.086c-.151-.053-.312-.108-.474-.172-.183-.064-.344-.151-.527-.215-.237-.086-.463-.183-.7-.28-.711-.27-1.422-.571-2.121-.905-.517-.236-1.066-.5-1.583-.743-.334-.161-.679-.333-1.012-.516q-1.52-.792-3-1.68c-.248-.151-.485-.291-.733-.452-.2-.119-.4-.226-.592-.334a3.817,3.817,0,0,1-.71-.474c-.108-.075-.2-.151-.313-.215-.226-.151-.452-.3-.689-.463-.2-.129-.4-.269-.592-.4a4.731,4.731,0,0,0-.441-.3c-.1-.076-.2-.151-.313-.237-.549-.4-1.1-.819-1.625-1.238-.367-.291-.733-.582-1.088-.872l-.162-.13v-.032c-.355-.28-.667-.56-.98-.829q-.387-.306-.742-.646a.289.289,0,0,0-.087-.076c-.344-.322-.678-.645-1.012-.969l-.032-.032-.011-.011c-.355-.344-.668-.667-1.022-1.012a.489.489,0,0,1-.076-.086l-.431-.431c-.711.076-1.421.162-2.089.194h-.387c-.593.043-1.141.087-1.734.087a.461.461,0,0,1-.172.01.132.132,0,0,1-.064.011,1.646,1.646,0,0,1-.238.011H546.93c-.636,0-1.26,0-1.928-.032-.549,0-1.141-.044-1.734-.087a2.914,2.914,0,0,1-.5-.032c-.13,0-.259,0-.388-.011-.161-.01-.323-.021-.5-.043-.118-.01-.226-.021-.333-.032-.291-.021-.549-.043-.819-.065-.139-.021-.29-.032-.441-.043-.355-.043-.721-.1-1.087-.151s-.722-.107-1.077-.172h-.043c-.818-.075-1.6-.237-2.391-.388-.473-.075-.947-.193-1.41-.312a2.574,2.574,0,0,1-.4-.086h-.033c-.129-.032-.269-.075-.4-.118-.161-.022-.334-.065-.5-.1-.086-.022-.173-.043-.248-.054-.237-.075-.474-.118-.754-.194l-.01-.021h-.011l-.011-.022a.279.279,0,0,1-.162-.043c-.323-.086-.656-.183-.99-.269a.63.63,0,0,1-.129-.043c-.194-.043-.388-.1-.571-.151l-.108-.054-.053-.032c-.194-.054-.41-.119-.614-.194-.269-.075-.538-.172-.808-.269a2.6,2.6,0,0,1-.258-.086c-.248-.1-.5-.183-.743-.291-.269-.1-.528-.194-.8-.3-.075,0-.075-.032-.151-.032l-.086-.043a5.446,5.446,0,0,0-.667-.269c-.151-.086-.345-.161-.507-.237-.258-.107-.5-.215-.8-.366l-.065-.032c-.236-.1-.474-.2-.711-.324s-.473-.226-.71-.344l-.237-.118-.291-.162a1.917,1.917,0,0,1-.291-.15l-.021-.022a1.542,1.542,0,0,1-.14-.1c-.183-.1-.377-.183-.549-.28-.054-.022-.1-.054-.151-.075-.28-.151-.517-.312-.8-.474a1.431,1.431,0,0,1-.172-.1,5.716,5.716,0,0,1-.549-.323c-.086-.043-.173-.108-.259-.161-.032,0-.032,0-.075-.043a.1.1,0,0,0-.054-.033.132.132,0,0,0-.064-.011c-.119-.075-.237-.15-.356-.237a.836.836,0,0,0-.236-.151l-.787-.559c-.064-.043-.14-.1-.215-.151-.323-.237-.646-.474-.958-.7a.963.963,0,0,0-.237-.162.507.507,0,0,0-.119-.1.505.505,0,0,1-.118-.1.037.037,0,0,1-.032-.011c-.011,0-.022-.011-.043-.032-.043-.043-.119-.076-.162-.118-.075-.044-.118-.119-.194-.151-.118-.1-.247-.194-.377-.3a2.306,2.306,0,0,1-.247-.215.219.219,0,0,0-.054-.032,1.566,1.566,0,0,1-.183-.141c-.032-.021-.054-.043-.086-.064-.172-.151-.355-.3-.528-.463-.14-.119-.269-.237-.409-.355-.194-.162-.4-.356-.592-.517-.076-.075-.151-.151-.237-.248-.032-.043-.075-.086-.118-.14l-.388-.355a2.4,2.4,0,0,0-.183-.172,1.717,1.717,0,0,1-.4-.4,2.4,2.4,0,0,0-.172-.183c-.237-.226-.463-.506-.7-.743q-.178-.21-.356-.387c-.108-.119-.215-.237-.312-.356H510.5v-.043a29.307,29.307,0,0,1-2.283-2.864l-.032-.043a1.346,1.346,0,0,0-.161-.237l-.044-.032v-.043a43.936,43.936,0,0,1-7.462-19.446,48.48,48.48,0,0,1,1.185-18.121,1.3,1.3,0,0,1,.075-.388,11.316,11.316,0,0,1,.388-1.615c.441-1.572,2.595-1.529,3.973-.625a.858.858,0,0,0-.355.076.638.638,0,0,0-.237.279c-.151.625-.313,1.26-.431,1.885-.076.431-.194.829-.28,1.259a48.481,48.481,0,0,0-.98,16.464,42.363,42.363,0,0,0,7,18.821l.118.194.076.119c.624.861,1.259,1.69,1.927,2.476.237.269.474.549.7.818l.2.237c.356.356.7.754,1.1,1.142l.28.279.7.668.516.506c.27.237.507.431.743.624l.474.4.582.506a6.174,6.174,0,0,0,.829.592c.742.593,1.529,1.142,2.433,1.734,1.142.7,2.207,1.335,3.231,1.841.979.506,1.916.948,2.864,1.335a40.178,40.178,0,0,0,3.962,1.5c1.3.387,2.681.786,4.091,1.1h.119a.824.824,0,0,0,.312.075,4.715,4.715,0,0,0,.9.194c.742.119,1.528.28,2.282.356h.076c.387.086.71.118,1.023.161s.667.075,1.022.119c.431.075.819.075,1.217.118a11.889,11.889,0,0,0,1.6.118c.592.033,1.142.076,1.691.076h3.467c.581-.043,1.13-.076,1.648-.118h.312c.742-.076,1.41-.119,2.078-.194l.667-.076.442.441.226.227c.118.118.237.237.323.312a1.207,1.207,0,0,1,.194.237l.032.032c.086.086.205.162.237.237.162.161.323.312.474.474l.161.161c.075.075.151.118.237.194a4.578,4.578,0,0,0,.388.388c.517.473.979.9,1.454,1.3l.118.119a8.343,8.343,0,0,0,.786.667c.474.388.947.786,1.421,1.131.312.248.625.474.937.711l.269.237c.442.279.9.635,1.378.947.754.506,1.572,1.023,2.477,1.572.979.582,1.927,1.142,2.864,1.605l.161.085c.28.151.549.27.786.388.506.28,1.023.506,1.529.743.9.442,1.809.786,2.714,1.142a8.973,8.973,0,0,0,1.1.43c.4.162.753.281,1.109.4l.463.151c.161.043.28.085.4.118a1.889,1.889,0,0,0,.473.161c.388.119.743.237,1.131.356a11.415,11.415,0,0,0,1.259.312c.162.043.356.075.518.118.818.238,1.679.431,2.551.625h.075a1.461,1.461,0,0,1,.431.086h.119l1.453.269c.313.043.635.076.98.119l.474.086.786.075c.237.033.355.075.431.075l1.615.119c.667.043,1.335.118,2.045.118h.151c.711.043,1.378.043,2.089.043h.151c.635,0,1.26,0,1.927-.043.624-.043,1.26-.075,1.884-.118l.237-.119.28.076c.151,0,.862-.076.862-.076h.269a3.95,3.95,0,0,0,.56-.075c.194,0,.344-.043.463-.043.431-.032.753-.118,1.1-.161l.71-.076c.238-.032.517-.118.786-.151s.636-.086.98-.161l.474-.075c.861-.2,1.691-.355,2.476-.517.313-.076.593-.151.862-.237l.118-.033a63.732,63.732,0,0,0,29.471-16.344l.043-.043c.624-.592,1.13-1.142,1.6-1.648.161-.193.119-.236.119-.28-.033-.15-.237-.344-.55-.548C640,412.294,641.887,413.941,640.551,415.352Z" fill="#00008b"/><path d="M642.317,415a1.257,1.257,0,0,1-.473.668,1.187,1.187,0,0,1-.7.431,2.753,2.753,0,0,1-.636.161,2.241,2.241,0,0,1-.743-.043,1.61,1.61,0,0,1-.624-.118c-.162-.075-.356-.108-.517-.194-.032-.032-.075-.032-.118-.075a2.4,2.4,0,0,1-.937-.83,3.26,3.26,0,0,1-.517-.312c-.032,0-.032-.043-.075-.075a2.2,2.2,0,0,1-.592-.593,2.3,2.3,0,0,1-.269-.43c-.044-.118-.044-.237-.087-.356a1.231,1.231,0,0,1,.043-.829,5.282,5.282,0,0,0,.237-.5,2.313,2.313,0,0,1,.947-.625c.194-.043.388-.086.625-.118a2.984,2.984,0,0,1,1.335.118c.27.118.506.194.743.312.043.043.087.043.119.075.043,0,.086.044.161.076.312.205.593.4.862.592l.279.28c.238.226.464.506.668.743a1.787,1.787,0,0,1,.269.829A.982.982,0,0,1,642.317,415Z" fill="#00008b"/><path d="M507.866,361.881a1.224,1.224,0,0,1-.313.862,5.669,5.669,0,0,0-.462.43,2.959,2.959,0,0,1-1.26.431,5.112,5.112,0,0,0-.711,0h-.043c-.076,0-.151-.033-.237-.033a4.621,4.621,0,0,1-1.249-.43l-.043-.043h-.043a2.861,2.861,0,0,1-.894-.269,4.384,4.384,0,0,1-.829-.517c-.043-.043-.075-.043-.118-.075a1.153,1.153,0,0,1-.194-.238,1.578,1.578,0,0,1-.431-.592,1.823,1.823,0,0,1-.279-.9,2.773,2.773,0,0,0,.075-.592,2.052,2.052,0,0,1,.753-.98,3.437,3.437,0,0,1,.582-.269,2.837,2.837,0,0,1,1.421-.162,5.277,5.277,0,0,1,1.1.237,1.316,1.316,0,0,1,.387.075c.355.162.668.313,1.023.475a3.033,3.033,0,0,1,.323.161,2.383,2.383,0,0,1,.861.667,2.09,2.09,0,0,1,.506.862A1.166,1.166,0,0,1,507.866,361.881Z" fill="#00008b"/><path d="M580.169,431.147c-.162.474-.4.98-.593,1.454a7.607,7.607,0,0,1-.431.9v.043c-.011.022-.021.033-.032.054a1.074,1.074,0,0,0-.107.226c-.011.022-.011.043-.022.065-.119.237-.237.474-.355.754-.076.118-.119.237-.194.355-.022.054-.054.118-.076.172a.92.92,0,0,0-.075.184.628.628,0,0,1-.075.1c-.054.087-.108.173-.173.291a1.164,1.164,0,0,1-.053.14c-.011.011-.011.021-.022.043s-.022.065-.032.1l-.043.075a.226.226,0,0,0-.043.054c-.022.043-.043.086-.076.14a6.144,6.144,0,0,1-.312.549c-.076.14-.172.313-.247.485l-.033.065a.378.378,0,0,1-.054.075.582.582,0,0,1-.064.086c-.194.355-.388.7-.625,1.055a.156.156,0,0,1-.021.064v.012a.081.081,0,0,0-.022.043.627.627,0,0,1-.151.237c-.118.161-.236.355-.355.549a2.153,2.153,0,0,0-.162.279.583.583,0,0,1-.107.162.435.435,0,0,1-.087.108c-.215.333-.441.678-.678,1.023s-.484.689-.732,1.023v.01c-.237.356-.474.657-.754,1.012v.043h-.032c0,.033-.086.108-.119.151,0,.043-.042.043-.085.075-.269.4-.55.754-.819,1.11-.9,1.1-1.852,2.272-2.864,3.413a20.586,20.586,0,0,1-7.828,5.976c-11.037,4.318-26.67,0-32.528-10.5a17.909,17.909,0,0,1-1.971-13.706.043.043,0,0,1,.044.043.878.878,0,0,1,.118-.4,15.479,15.479,0,0,0,.625-1.5c.043-.076.043-.119.086-.194.118-.312.237-.668.355-1.023h.033c.042-.075.085-.194.118-.269s.075-.194.118-.28c0-.022.011-.032.022-.065,0-.01.011-.021.011-.032a.086.086,0,0,0,.01-.054l.043-.043a.532.532,0,0,1,.076-.172c.021-.065.054-.129.075-.183.205-.377.4-.722.592-1.066.065-.108.13-.226.194-.344a.592.592,0,0,1,.119-.194c.043-.044.043-.119.118-.2a.671.671,0,0,1,.119-.194,2.319,2.319,0,0,0,.118-.269.037.037,0,0,1,.011-.032c.011-.022.021-.033.032-.054.054-.108.108-.194.151-.27a.31.31,0,0,0,.043-.085c.118-.184.226-.377.333-.561.033-.053.055-.1.087-.15q.16-.291.323-.582c.1-.139.194-.269.269-.4.172-.248.323-.485.474-.743.118-.183.248-.366.377-.549s.269-.388.409-.592a6.822,6.822,0,0,1,.625-.829.636.636,0,0,1,.086-.108c0-.011,0-.011.01-.021,0-.033.043-.065.065-.1.161-.194.28-.355.431-.548a2.73,2.73,0,0,1,.236-.3c.065-.075.14-.151.205-.215v-.033c.237-.279.463-.549.743-.872.312-.387.71-.818,1.1-1.217a4.715,4.715,0,0,0,.9.194c.742.119,1.528.28,2.282.356h.076a.926.926,0,0,1-.194,1.066,13.023,13.023,0,0,0-1.066,1.173h-.043c-.345.431-.7.872-1.055,1.3,0,.011,0,.011-.011.021-.237.313-.463.593-.679.894-.118.151-.226.3-.334.463-.085.108-.161.2-.236.313a26.821,26.821,0,0,0-1.648,2.433v.032c-.032.054-.064.108-.1.162-.236.377-.441.764-.646,1.141a3.1,3.1,0,0,1-.183.388c-.053.118-.107.237-.172.355a3.435,3.435,0,0,1-.183.344.558.558,0,0,1-.1.173c-.075.194-.151.344-.226.538-.172.345-.334.678-.474,1.034v.032a9.991,9.991,0,0,0-.516,1.141l-.119.237c-.151.313-.3.614-.452.926s-.291.6-.452.926a.094.094,0,0,1-.011.054.011.011,0,0,1-.011.011l-.011.011c-.075.291-.15.6-.2.9a8.652,8.652,0,0,0-.151.9c-.043.249-.065.5-.086.744s-.032.5-.032.743a1.93,1.93,0,0,0-.033.355c-.01.129-.01.258-.01.4v.463c0,.011,0,.011.01.022s.033.021.033.021-.022,0-.022.011.011.021.022.032c-.011,0-.011,0-.022.011s-.011.011,0,.033.011.021.022.032v.043a6.538,6.538,0,0,0,.075.786,11.736,11.736,0,0,0,.312,1.841c.043.194.086.355.119.517.086.269.161.549.237.818.064.205.129.4.2.592a.152.152,0,0,0,.022.065c.064.183.14.366.2.56a.209.209,0,0,1,.043.065,2.2,2.2,0,0,1,.119.215c.032.082.067.166.1.251.085.187.172.372.265.557l.532.975c.153.264.3.529.466.79a.467.467,0,0,0,.043.076c.13.193.258.376.4.57a17.721,17.721,0,0,0,2.121,2.477.771.771,0,0,0,.1.107c.118.108.226.226.344.334a1.592,1.592,0,0,1,.151.108c.107.1.215.2.334.3.193.173.4.334.6.5.323.259.646.507.979.733.151.1.3.194.453.28.441.291.883.549,1.324.786a2.793,2.793,0,0,0,.259.161c.086.044.183.086.269.14.01,0,.01.011.021.011a14.674,14.674,0,0,0,1.368.668h.01c.377.161.776.323,1.174.473s.775.269,1.206.42l.011.011c.269.076.56.162.84.237.409.118.818.226,1.238.312.162.043.313.075.474.119a.137.137,0,0,1,.118.043c.237.043.517.075.743.118h.032c.033,0,.065.011.1.011.345.054.7.108,1.056.151.2.021.419.053.635.064.194.022.388.033.581.043v.043c.4,0,.786.043,1.174.043h1.195c.194-.01.377-.021.571-.021s.4-.022.592-.022c.635-.043,1.3-.118,1.928-.193.183-.033.376-.054.559-.1h.033c.4-.065.786-.14,1.173-.227l.011-.01s.011.01.011,0l.021-.022a.275.275,0,0,1,.194-.043.2.2,0,0,0,.086-.01c.011.01.011,0,.011,0a.1.1,0,0,0,.065-.033c.282-.051.553-.116.816-.19q.423-.122.831-.273c.28-.1.56-.2.84-.3.021-.011.032-.011.043-.022.28-.118.549-.237.808-.366.128-.064.258-.129.376-.194.1-.064.194-.129.291-.183a2.374,2.374,0,0,0,.237-.118,7.576,7.576,0,0,0,.721-.474c.452-.323.894-.667,1.3-1.023.183-.161.366-.323.538-.485a24.083,24.083,0,0,0,1.756-1.744c.269-.29.538-.581.8-.883l.226-.258c.237-.28.431-.517.668-.786.14-.161.291-.312.431-.474.075-.086.139-.162.2-.248s.129-.172.194-.258l.269-.3c.087-.1.162-.194.237-.291.086-.119.162-.194.237-.312h.043c.237-.324.506-.636.743-.948v-.011a7.214,7.214,0,0,0,.743-.969c.065-.1.14-.194.2-.3.108-.14.2-.28.313-.42.119-.162.258-.334.355-.5,0-.01.011-.01.011-.021.431-.538.775-1.131,1.131-1.669.194-.28.387-.592.548-.861.141-.237.281-.463.41-.689.054-.087.1-.173.14-.259.043-.064.075-.129.118-.183a.238.238,0,0,0,.054-.086c.064-.1.129-.183.183-.28.064-.129.151-.28.215-.431a.563.563,0,0,0,.054-.118c.087-.119.151-.258.237-.377a.79.79,0,0,1,.076-.129.135.135,0,0,1,.032-.075c0-.011.011-.011.011-.022a.1.1,0,0,1,.043-.065,1.636,1.636,0,0,1,.118-.237c0-.021.011-.032.022-.053s.01-.043.01-.065a7.2,7.2,0,0,0,.356-.635c.161-.323.323-.646.473-.98v-.033a21.688,21.688,0,0,0,1.024-2.325,1.889,1.889,0,0,0,.473.161c.388.119.743.237,1.131.356a11.415,11.415,0,0,0,1.259.312C579.813,431.072,580.007,431.1,580.169,431.147Z" fill="#00008b"/><path d="M530.489,430.644l0,.01a.155.155,0,0,1-.01.078,15.752,15.752,0,0,0,2.65,13.376,17.612,17.612,0,0,0,2.112,2.475c.192.189.4.381.595.56a21.116,21.116,0,0,0,1.954,1.524c.561.386,1.146.746,1.74,1.074.176.1.369.2.548.29.46.239.923.468,1.392.675.379.167.774.328,1.173.478s.8.29,1.206.42a25.394,25.394,0,0,0,3.456.836c.777.132,1.567.223,2.364.292s1.584.078,2.378.065c.391-.013.783-.027,1.178-.051,3.336-.23,6.675-1.025,9.043-2.741a31.031,31.031,0,0,0,5.294-5.172c.283-.326.566-.651.836-.981.263-.309.509-.611.755-.914.516-.632,1.018-1.269,1.479-1.919.311-.409.607-.823.907-1.247.4-.543.772-1.105,1.119-1.676.2-.284.38-.583.562-.871s.374-.609.546-.912c.222-.368.445-.736.643-1.123.2-.33.381-.675.549-1.015.29-.531.556-1.081.822-1.632-.943-.312-1.892-.649-2.842-1.033-.939-.369-1.885-.763-2.818-1.2q-.8-.358-1.592-.75c-1.351-.662-2.683-1.387-4.008-2.179a53.463,53.463,0,0,1-10.119-7.7c-6.977,1.737-11.123,7.09-10.434,13.35.167,1.52-2.771,1.207-2.942-.3-.706-6.346,3.042-11.757,9.349-14.377-.564.04-1.138.064-1.708.079s-1.142.029-1.723.028c-.641,0-1.279,0-1.928-.026-.577-.011-1.148-.043-1.732-.079s-1.152-.078-1.73-.135c-.422-.031-.841-.072-1.253-.135q-1.1-.108-2.188-.281a39.093,39.093,0,0,0-3.994,5.436q-.389.655-.737,1.324c-.125.249-.26.483-.367.726-.172.35-.344.7-.5,1.053s-.327.692-.485,1.046c-.212.476-.42.94-.643,1.4C531.092,429.416,530.806,430.029,530.489,430.644Z" fill="#ff81cb"/><path d="M541.022,432.732c.171,1.51,3.109,1.823,2.942.3-.689-6.26,3.457-11.613,10.434-13.35a12.326,12.326,0,0,1,1.445-.324c1.779-.3.935-2.636-.841-2.347a21.263,21.263,0,0,0-4.631,1.341C544.064,420.975,540.316,426.386,541.022,432.732Z" fill="#00008b"/><path d="M625.542,389.736a21.762,21.762,0,0,1-8.959-2.831c-6.869-4.006-9.195-10.875-8.721-13.083a1,1,0,0,1,.355-.667h.075a.52.52,0,0,1,.431.043,3.249,3.249,0,0,1,.905.7c2.089,2.132,5.975,7.9,13.481,10.024,9.669,2.67,17.755-2.832,18.735-1.648C642.866,383.491,635.6,390.6,625.542,389.736Z" fill="#00008b"/><path d="M551.484,351.469a.656.656,0,0,1-.161.431c-1.056,1.884-7.537,5.976-14.924,4.361a17.122,17.122,0,0,1-7.16-3.5c-6.084-5.1-6.245-13.039-4.867-13.319,1.454-.269,3.22,7.9,10.886,11.316,6.32,2.789,12.576.636,15.085.356a2.192,2.192,0,0,1,.668-.043c.236,0,.4.086.43.2A.174.174,0,0,1,551.484,351.469Z" fill="#00008b"/><path d="M740.041,495.579v.043a5.236,5.236,0,0,1-1,3.456c-1.5,2.111-4.382,3.414-6.643,4.393-1.142.5-3.952-2.594-2.692-3.144,2.7-1.173,6.5-2.756,6.977-6.105a4.64,4.64,0,0,0-1.088-3.294c-.172-.237-.344-.464-.527-.69a22.1,22.1,0,0,0-3.176-3.251c-.474-.388-1.755-1.443-1.5-2.24a.476.476,0,0,1,.474-.366,2.322,2.322,0,0,1,1.367.571,34.181,34.181,0,0,1,4.931,4.9C738.469,491.488,739.88,493.415,740.041,495.579Z" fill="#00008b"/><path d="M756.516,517.092c-2.2,4.619-6.881,5.965-11.607,5.75a25.423,25.423,0,0,1-4.038-.538,28.334,28.334,0,0,1-3.8-1.088c-2.035-.732-2.154-4.339.463-3.392,3.424,1.25,7.31,1.981,10.853.743a7.508,7.508,0,0,0,5.395-7.752c-.507-6.891-7.764-11.37-14.127-11.639a2.99,2.99,0,0,1-.614-.1,2.651,2.651,0,0,1-1.787-1.647c-.28-.754-.032-2.046,1.012-2,.592.032,1.184.075,1.776.15a21.18,21.18,0,0,1,9.939,3.844C755.223,503.213,759.6,510.621,756.516,517.092Z" fill="#00008b"/><path d="M745.264,529.8c-1.271,3.316-4.135,5.728-7.214,7.332a21.856,21.856,0,0,1-5.729,2.014,26.36,26.36,0,0,1-8.721.323,26.98,26.98,0,0,1-5.911-1.432,24.232,24.232,0,0,1-3.575-1.605c-.517-.29-1.3-.808-.5-1.26a3.8,3.8,0,0,1,2.908.377,18.657,18.657,0,0,0,10.853,2.143,19.291,19.291,0,0,0,7.8-2.477,13.287,13.287,0,0,0,5.943-6.374,8.21,8.21,0,0,0-.247-6.535,6.59,6.59,0,0,0-1.906-2.326c-.657-.506-.549-.959.258-1.12a4.178,4.178,0,0,1,2.94.678,9.4,9.4,0,0,1,2.746,3.306A8.495,8.495,0,0,1,745.264,529.8Z" fill="#00008b"/><path d="M392.321,411.5c-.01,0-.021-.011-.032-.011a1.253,1.253,0,0,1-.194-.043.369.369,0,0,1-.1-.043,4.184,4.184,0,0,1-2.165-2.045,5.819,5.819,0,0,0-.269-.518A17.672,17.672,0,0,0,383.6,402a9.9,9.9,0,0,0-8.033-1.464,14.531,14.531,0,0,0-7.515,3.9c-2.789,3.047-.56,6.719,1.508,9.443.3.387,1.162,1.5.344,1.862-.743.323-2.014-.839-2.4-1.356a22.858,22.858,0,0,1-3.876-6.515,6.708,6.708,0,0,1-.2-3.768,5.246,5.246,0,0,1,.442-1.206c1.152-2.3,3.736-3.725,6.029-4.652a14.084,14.084,0,0,1,7.764-1.152c6.148,1.2,11.445,6.364,14.481,11.8.313.528.582,1.066.841,1.6C393.333,411.228,392.968,411.605,392.321,411.5Z" fill="#00008b"/><path d="M365.726,406.953a1.4,1.4,0,0,1-2.1.915h-.011c-6.3-3.057-15.451-1.927-19.51,4.3-1.949,2.993-2.208,6.6.333,9.335,2.455,2.638,6.116,3.574,9.573,4.027,2.024.269,3.165,4.135.484,3.779a21.34,21.34,0,0,1-10.735-4.156c-.194-.151-.388-.312-.581-.485a14.13,14.13,0,0,1-1.54-1.582,11.37,11.37,0,0,1-2.843-8.324,12.69,12.69,0,0,1,4.813-8.441c5.5-4.447,13.438-5.039,19.812-2.218.226.086.452.183.668.29A2.686,2.686,0,0,1,365.726,406.953Z" fill="#00008b"/><path d="M358.663,451.778a25.866,25.866,0,0,1-8.226-1.11,24.286,24.286,0,0,1-12.91-8.979c-2.261-3.2-3.823-7.3-3.026-11.252a9.539,9.539,0,0,1,7.139-7.354l.6-.129a4.391,4.391,0,0,1,3,.688c.657.507.56.991-.259,1.153a6.081,6.081,0,0,0-1.227.355,8.564,8.564,0,0,0-5.05,6.525A13.7,13.7,0,0,0,340.918,441a18.5,18.5,0,0,0,15.925,8.894c.1,0,.2,0,.323.011.819.043,2.143.334,2.52.948C360.149,451.616,359.32,451.756,358.663,451.778Z" fill="#00008b"/><path d="M508.329,451.132c-.6.764-2.057.452-2.81.139-.55-.226-1.088-.452-1.637-.678q-11.08-4.6-22.267-8.947-43.947-17.072-89.294-30.149c-.01,0-.021-.011-.032-.011-.1-.032-.194-.054-.29-.086-.356-.1-.7-.2-1.056-.3-.646-.194-2.045-.8-1.8-1.734a.837.837,0,0,1,.42-.528,2.943,2.943,0,0,1,2-.107l.57.161q12.372,3.586,24.679,7.44,38.391,12.049,75.791,27,7.334,2.907,14.633,5.954C507.855,449.549,508.942,450.356,508.329,451.132Z" fill="#00008b"/><path d="M739.654,499.176a2.99,2.99,0,0,1-.614-.1c-1.5,2.111-4.382,3.414-6.643,4.393-1.142.5-3.952-2.594-2.692-3.144,2.7-1.173,6.5-2.756,6.977-6.105a4.64,4.64,0,0,0-1.088-3.294,52.637,52.637,0,0,0-5.867-3.586c-.98-.527-1.971-1.023-2.983-1.475-.431-.215-.829-.377-1.271-.56-.613-.28-1.281-.56-1.949-.8-.667-.29-1.335-.538-2-.775a64.572,64.572,0,0,0-6.374-1.9c-1.411-.344-2.789-.7-4.211-.98-.42-.1-.85-.172-1.281-.248-1.421-.279-2.843-.516-4.3-.731-1.012-.173-2.078-.313-3.1-.421-.743-.14-1.529-.215-2.272-.28-2.552-.279-5.071-.484-7.623-.635-2.907-.2-5.814-.312-8.732-.344-2.908-.076-5.772-.108-8.636-.108-1.959,0-3.9,0-5.857.032h-.668c-.592,0-1.173.033-1.723.033h-.043a4.752,4.752,0,0,0-.786.043h-.355c-.506.032-.98.032-1.5.064-.818,0-1.647.044-2.465.076h-.086c-.313,0-.625.032-.9.032-.108,0-.28.032-.388.032h-.043c-.452.022-.915.032-1.367.032a197.335,197.335,0,0,1-42.779-3.854,60.853,60.853,0,0,1-15.645-2.369c1.378-.592,2.714-1.26,4.049-1.96.118.043.237.043.355.076.269.086.549.118.786.2a1.071,1.071,0,0,0,.269.032c.324.044.635.119.905.162.355.076.667.076.991.162a8.347,8.347,0,0,0,1.012.193,7.93,7.93,0,0,1,.99.119c.582.086,1.13.129,1.723.161a5.731,5.731,0,0,0,.829.087c.356.043.7.075,1.055.118.829.043,1.658.043,2.477.043a8.134,8.134,0,0,0,1.023.043c.667,0,1.378,0,2-.043l1.185.011c.269-.043.549-.043.861-.086.786-.033,1.572-.108,2.358-.184.194-.042.431-.042.668-.085.667-.076,1.378-.151,2.078-.3.28-.043.549-.086.786-.118a45.594,45.594,0,0,0,5.071-1.131,4.6,4.6,0,0,1,.829-.194c.076-.086.162-.086.237-.119a6.418,6.418,0,0,0,.829-.236c.312-.118.668-.194,1.013-.356h.043c.473-.15.947-.312,1.41-.5a.37.37,0,0,1,.162-.033c.473-.2.9-.355,1.3-.517.581-.237,1.1-.463,1.6-.656a1.676,1.676,0,0,1,.473-.205c.948-.43,1.853-.894,2.789-1.4.237-.086.441-.237.635-.323a.326.326,0,0,1,.162-.075h.032c.313-.194.636-.431.98-.625a4.314,4.314,0,0,0,.829-.506.3.3,0,0,1,.161-.086c.194-.118.356-.226.507-.312.947-.625,1.851-1.217,2.713-1.874a4.059,4.059,0,0,0,.441-.355,2.682,2.682,0,0,0,.388-.28,45.053,45.053,0,0,0,9.8-10.509,2.743,2.743,0,0,0,.322-.549,45.641,45.641,0,0,0,3.306-5.771c3.478-7.344,5.685-15.387,7.86-23.247,0-.032.043-.118.043-.151.28-.99.517-1.97.786-2.95h.043c0-.032-.043-.075-.075-.151a1.132,1.132,0,0,1-.032-.387c-.011.01-.032.01-.043.021,0-.1-.011-.183-.011-.247v-.237c0-.075.032-.162.032-.281,0,0,0-.032.043-.032a1.189,1.189,0,0,1,.431-.71v-.043c-.043-.076-.075-.108-.118-.108,0-.043-.044-.086-.044-.118a7.093,7.093,0,0,1-.269-.754c-.711-3.263-1.615-6.794-1.023-9.938.431-2.595.948-5.147,1.454-7.7a4.774,4.774,0,0,1,.237-1.066,16.756,16.756,0,0,1,.506-2.433c.2-1.1.441-2.2.711-3.263a1.722,1.722,0,0,0,.075-.431c.355-1.5.711-2.982,1.066-4.436.549-2.121,1.1-4.242,1.723-6.363.2-.679.355-1.378.592-2.046.43-1.69.786-3.338,1.066-5,.032,0,.032-.032,0-.075a27.488,27.488,0,0,0,.506-3.069c.161-.861.236-1.723.312-2.552a23.992,23.992,0,0,0,.2-2.864c.032-.9.075-1.766.075-2.67v-.668h.032c0-.4-.032-.753-.032-1.066a72.448,72.448,0,0,0-.667-7.742,42.794,42.794,0,0,0-.9-4.36,7.157,7.157,0,0,0-.237-1.012,48.114,48.114,0,0,0-1.647-5.47c-.119-.388-.28-.786-.4-1.217a68.551,68.551,0,0,1-1.6-9,8.9,8.9,0,0,1,.431-2.789,1.993,1.993,0,0,0,.118-.431c.032.161.076.355.119.517,2.863.237,3.456,4.275,4.511,6.083.474.829.711,1.228,1.109,2a12,12,0,0,1,.775,1.928,39.815,39.815,0,0,1,1.185,4.016c1.1,4.038,2.713,7.968,2.67,12.21,0,4.877-.743,9.432-.98,14.191-.118,2.121-.118,4.318-.312,6.439-.312,3.532-1.734,6.956-2.6,10.412-1.453,6.008-1.5,12.34-1.809,18.466-.194,3.22-.473,6.364-.473,9.626,0,.593,0,1.185-.033,1.723a5.128,5.128,0,0,0,.862-1.529c.549-1.766.236-3.769.786-5.535,2.314-7.073,4.2-14.266,4.554-21.8.118-1.734,1.184-3.425,1.809-5.147l.743.237c-.7,6.126-1.41,12.21-2.2,19.09,4.124-2.519,7.892-4.641,11.467-7.031,2.993-1.97,5.663-4.4,8.721-6.374,6.719-4.35,9.551-11.392,7.591-18.38a14.8,14.8,0,0,0-.872-2.476,16.243,16.243,0,0,0-1.131-2.2c-1.335-2.207-2.713-4.36-4.167-6.45-.667-1.055-1.378-2.121-2.121-3.176s-1.453-2.121-2.164-3.187c-.237-.355-.506-.711-.743-1.1-.28-.4-.549-.786-.829-1.185-1.96-2.746-4.006-5.491-5.89-8.323-.549-.786-1.066-1.615-1.572-2.433-.4-.593-.743-1.217-1.141-1.852-.313-.506-.592-1.023-.861-1.529s-.549-1.066-.786-1.572a34.519,34.519,0,0,1-2-5.233c-.668-2.39-2.907-3.414-5.352-3.8-4.985-.711-8.6-3.23-11.661-7.16a26.959,26.959,0,0,0-7.623-6.988c-.592-.356-1.185-.711-1.809-1.023-.118-.119-.312-.151-.43-.237-1.852-1.055-3.78-2-5.664-2.864h-.032l-1.11-.592c-1.055-.507-2.12-1.066-3.251-1.615-11.435-5.815-14.149-7.387-17.368-9.3-2.046-1.3-3.693-2.358-5.114-3.348a49.785,49.785,0,0,0-9.971-5.416c-.754-.28-1.453-.549-2.164-.786-.743-.237-1.411-.431-2.078-.635a41.972,41.972,0,0,0-6.45-1.25c-1.615-.193-3.219-.354-4.835-.43-1.647-.043-3.219-.086-4.909-.118a88.23,88.23,0,0,1-31.387-5.266c-.28-.086-1.142-.474-2.4-.861a9.682,9.682,0,0,0-1.411-.355,18.257,18.257,0,0,0-2.907-.517c-3.187-.549-6.719-.194-10.024-.237-2.864-.032-5.653-.194-7.623-2.509-2.628-2.993-5.61-2.832-9.077-1.734-3.3.98-6.719,1.572-10.132,2.24-3.413.786-6.956,1.023-10.251,2.046a90.74,90.74,0,0,1-22.633,4.4,23.007,23.007,0,0,0-9.669,2.7c-7.623,4.566-9.7,12.62-6.525,21.535.119.312.237.668.356.98,2.788,7.5,6.094,14.859,7.5,23.257,2.983-4.393,5.933-8.84,8.883-13.233a4.776,4.776,0,0,1,.937.355c-.43,1.648-.668,3.338-1.249,4.911-2,5.06-5.976,8.527-9.863,12.177-.473.431-.947.9-1.453,1.379-.237.236-.474.462-.668.7a7.5,7.5,0,0,0-1.217,1.691,2.221,2.221,0,0,0-.2.431.155.155,0,0,0-.033.086,1.519,1.519,0,0,0-.236.549,6.846,6.846,0,0,0-.55,2.315,55.889,55.889,0,0,0,7.537-.861c.786-.2,1.572-.431,2.326-.711a16.018,16.018,0,0,0,2.272-.9c.668-.27,1.336-.625,1.971-.937h.032c.043-.043.086-.087.119-.087.635-.355,1.259-.7,1.851-1.1,0-.043.033-.043.076-.075.4-.237.71-.474,1.066-.711s.7-.506,1.055-.786a15.39,15.39,0,0,0,1.378-1.1,15.839,15.839,0,0,0,1.249-1.185l.043-.032a26.622,26.622,0,0,0,2.358-2.433c3.974-4.76,7.785-9.713,11.478-14.655,1.605-2.132,3.177-4.21,4.792-6.288.032,0,.075-.086.118-.161,5.933-7.7,12.447-14.816,21.492-19.3,3.456-1.723,6.751-3.65,9.034-6.795a5.767,5.767,0,0,0,.43-.624c.162-.28.635-.4.98-.549a11.4,11.4,0,0,1,.043,1.216,1.971,1.971,0,0,1,.667.033c2.047,8.064-6.987,16.55-12.608,21.265-4.361,3.65-9.551,6.321-13.481,10.4-3.574,3.779-6.32,8.807-8.991,13.049-6.093,9.788-14.579,17.842-21.889,26.833-7.15,8.807-9.7,23.419-10.649,34.574-1.605,19.1,4.4,36.544,17.131,50.843,3.1,3.5,5.545,7.193,8.6,10.531.312.161.635.312.905.43l.075.043c.279.119.56.237.872.356.237.118.474.193.743.312.043.032.075.075.118.075a2.8,2.8,0,0,1,.506.194c.043.086.043.162.086.237.194.667.431,1.335.668,2a11.166,11.166,0,0,0,.431,1.066c.042,0,.042.043.042.075.076.194.151.4.227.549-.312-.075-.668-.194-1.013-.312-.236-.075-.473-.194-.753-.269-.43-.162-.9-.356-1.335-.517l-.7-.312c-.323-.119-.711-.28-1.066-.431-.075-.043-.194-.086-.313-.161a9.809,9.809,0,0,1-.979-.432,2.829,2.829,0,0,1-.474-.236c-.431-.205-.861-.409-1.281-.625q-11.08-4.6-22.267-8.947-43.947-17.072-89.294-30.149c-.01,0-.021-.011-.032-.011a1.253,1.253,0,0,1-.194-.043.369.369,0,0,1-.1-.043c-.356-.1-.7-.2-1.056-.3-.646-.194-2.045-.8-1.8-1.734a.837.837,0,0,1,.42-.528A17.672,17.672,0,0,0,383.6,402a9.9,9.9,0,0,0-8.033-1.464,14.531,14.531,0,0,0-7.515,3.9c-2.789,3.047-.56,6.719,1.508,9.443.3.387,1.162,1.5.344,1.862-.743.323-2.014-.839-2.4-1.356a22.858,22.858,0,0,1-3.876-6.515h-.011c-6.3-3.057-15.451-1.927-19.51,4.3-1.949,2.993-2.208,6.6.333,9.335,2.455,2.638,6.116,3.574,9.573,4.027,2.024.269,3.165,4.135.484,3.779a21.34,21.34,0,0,1-10.735-4.156,8.564,8.564,0,0,0-5.05,6.525A13.7,13.7,0,0,0,340.918,441a18.5,18.5,0,0,0,15.925,8.894c.1,0,.2,0,.323.011,3.166-.269,6.342-.387,9.518-.377,2.639,0,5.223.119,7.818.323.861.032,1.733.119,2.552.226.829.087,1.69.162,2.519.28.506.076.98.119,1.5.194.312.043.581.075.9.118a1.959,1.959,0,0,0,.506.087c.237.032.431.075.668.107.194.044.4.087.592.119.269.043.592.086.861.118a4.913,4.913,0,0,1,.743.162c.593.075,1.185.193,1.777.312.818.162,1.647.313,2.466.517.516.108,1.023.226,1.5.344.28.087.507.119.743.2.431.075.872.194,1.3.312.668.151,1.335.356,2,.55h.075c.162.043.356.118.517.15.9.237,1.809.517,2.746.8.785.226,1.615.549,2.4.775h.032c.517.2,1.023.355,1.5.517.474.194.947.388,1.454.549.473.162.9.356,1.378.506.43.162.861.355,1.291.517.4.151.787.312,1.185.473.151.076.355.151.549.238l.582.226c.56.28,1.141.516,1.69.786.2.086.4.162.593.237.785.355,1.528.71,2.314,1.065a3.293,3.293,0,0,1,.668.356,22.6,22.6,0,0,1,2.282,1.13,1.314,1.314,0,0,1,.431.237c.668.324,1.335.668,2,1.067a18.832,18.832,0,0,1,1.69.936c1.1.592,2.164,1.228,3.22,1.9,1.1.668,2.207,1.368,3.305,2.079,1.454.979,2.864,1.959,4.286,2.982.151.118.312.237.43.323.238.194.507.387.743.581.313.2.593.431.9.668,1.066.786,2.078,1.615,3.1,2.476.323.281.635.517.947.786a1.6,1.6,0,0,1,.313.28c.075.076.161.119.237.194.947.786,1.808,1.529,2.713,2.358a9.269,9.269,0,0,0,.743.7c.474.473.947.915,1.453,1.378.668.646,1.314,1.282,1.96,1.949.431-.452.851-.9,1.281-1.357.162-.193.356-.355.549-.549a13.56,13.56,0,0,1-1.582,2.154c.1.108.2.215.312.323.582.624,1.174,1.217,1.723,1.809.635.7,1.26,1.41,1.884,2.121.441.474.872.937,1.26,1.41.625.743,1.26,1.5,1.852,2.24a2.686,2.686,0,0,1,.269.431c.624,1.335-.786,2.95-2,2.519a2.14,2.14,0,0,1-.711-.516c-.107-.141-.226-.27-.333-.41-1.066.8-2.046,1.615-3.069,2.466-1.055.85-2.089,1.776-3.112,2.67-2.358,2.024-4.64,4.189-6.858,6.439-1.292,1.271-2.563,2.627-3.834,3.984-2.228,2.487-4.393,5.018-6.439,7.645a1.123,1.123,0,0,0-.226.291c-.936,1.205-1.873,2.379-2.735,3.639-.85,1.088-1.615,2.175-2.347,3.273-.592.883-1.227,1.809-1.819,2.735-.549.84-1.1,1.647-1.605,2.487-.6.98-1.206,1.949-1.766,2.972-.829,1.314-1.582,2.627-2.293,3.995a153.783,153.783,0,0,0-9.777,21.394c-.463,1.3-.9,2.6-1.335,3.9a28.745,28.745,0,0,0-.926,2.865c-.42,1.162-.764,2.347-1.109,3.563q-.485,1.568-.872,3.134c-.344,1.259-.689,2.487-1,3.747-.753,3.144-1.442,6.342-2.045,9.55-.269,1.357-.5,2.714-.722,4.081,2.574-1.443,5.2-2.821,7.86-4.124,1.713-.839,3.22,1.723,1.508,2.563a141.4,141.4,0,0,0-70.666,76.6,162.045,162.045,0,0,0-10.11,40.42,69.184,69.184,0,0,1,11-1.454c9.184-.42,19.909,1.745,25.949,9.3,1.184,1.485-.9,3.6-2.1,2.1-6.5-8.14-18.283-9.227-27.909-8.1a78.7,78.7,0,0,0-13.728,2.907,37.962,37.962,0,0,0-10.767,4.921c-2.832,1.981-5.3,4.8-5.836,8.334-.582,3.919,1.454,7.709,3.93,10.6,5.75,6.676,14.493,10.778,22.773,13.351a69.331,69.331,0,0,0,10.552,2.412,71.513,71.513,0,0,0,10.842.8c1.4,0,2.8-.043,4.189-.129.668-.033,1.324-.108,1.992-.129.3-.011.625-.043.937-.043a18.494,18.494,0,0,1-3.521-7.139,16.528,16.528,0,0,1,1.852-11.855c4.544-8.108,13.825-12.426,22.848-12.662q1.341-.033,2.681.032l.033-.13a198.967,198.967,0,0,1,75.23-106.854c1.562-1.12,3.037,1.454,1.508,2.562A196.214,196.214,0,0,0,382.75,716.708a36.889,36.889,0,0,1,20.673,10.057c1.367,1.334-.732,3.434-2.089,2.088a32.2,32.2,0,0,0-5.211-4.124c-7.742-4.91-17.853-6.977-26.714-4.1-7.408,2.39-15.064,9.206-14.461,17.647.571,7.9,7.839,12.921,14.6,15.5,8.291,3.155,17.421,4.167,26.218,4.511,9.96.388,20.178-.474,29.524-4.124,8.851-3.445,16.043-9.755,21.589-17.378A117.283,117.283,0,0,0,454,725.4q4.3-7.656,8.765-15.215,8.834-14.907,18.336-29.416c6.342-9.722,12.878-19.338,19.78-28.684,5.814-7.86,12.2-15.419,20.328-20.985a114.444,114.444,0,0,1,24.711-44.782c11.683-13.157,26.079-23.752,41.52-32.086a203.915,203.915,0,0,1,36.619-15.312,180.549,180.549,0,0,1,62.02-7.967,188.174,188.174,0,0,1,41.3,6.74,19.291,19.291,0,0,0,7.8-2.477,13.287,13.287,0,0,0,5.943-6.374,8.21,8.21,0,0,0-.247-6.535,28.334,28.334,0,0,1-3.8-1.088c-2.035-.732-2.154-4.339.463-3.392,3.424,1.25,7.31,1.981,10.853.743a7.508,7.508,0,0,0,5.395-7.752C753.274,503.924,746.017,499.445,739.654,499.176ZM607.862,373.822a1,1,0,0,1,.355-.667h.075a.52.52,0,0,1,.431.043,3.249,3.249,0,0,1,.905.7c2.089,2.132,5.975,7.9,13.481,10.024,9.669,2.67,17.755-2.832,18.735-1.648,1.022,1.217-6.246,8.323-16.3,7.462a21.762,21.762,0,0,1-8.959-2.831C609.714,382.9,607.388,376.03,607.862,373.822Zm-83.49-34.38c1.454-.269,3.22,7.9,10.886,11.316,6.32,2.789,12.576.636,15.085.356a2.192,2.192,0,0,1,.668-.043c.236,0,.4.086.43.2a.174.174,0,0,1,.043.194.656.656,0,0,1-.161.431c-1.056,1.884-7.537,5.976-14.924,4.361a17.122,17.122,0,0,1-7.16-3.5C523.155,347.658,522.994,339.722,524.372,339.442Zm-18.035,98.381-.237-.237c.118,0,.237.043.323.043C506.423,437.705,506.38,437.748,506.337,437.823Zm77.363,4.791a67.7,67.7,0,0,1-9.389.56h-.043l-.9-.043v.043h-.032c0,.033-.086.108-.119.151,0,.043-.042.043-.085.075-.269.4-.55.754-.819,1.11-.9,1.1-1.852,2.272-2.864,3.413a20.586,20.586,0,0,1-7.828,5.976c-11.037,4.318-26.67,0-32.528-10.5a17.909,17.909,0,0,1-1.971-13.706.043.043,0,0,1,.044.043.878.878,0,0,1,.118-.4,15.479,15.479,0,0,0,.625-1.5c.043-.076.043-.119.086-.194a3.738,3.738,0,0,1-.431-.312c-1.852-1.454-3.542-2.864-5.146-4.361a53.085,53.085,0,0,1-13.126-19.327,2.742,2.742,0,0,1-.119-.28l-1.14-3.026-.044-.032v-.043a43.936,43.936,0,0,1-7.462-19.446,48.48,48.48,0,0,1,1.185-18.121,1.3,1.3,0,0,1,.075-.388c-.043-.043-.075-.043-.118-.075a1.153,1.153,0,0,1-.194-.238,1.578,1.578,0,0,1-.431-.592,1.823,1.823,0,0,1-.279-.9,2.773,2.773,0,0,0,.075-.592,2.052,2.052,0,0,1,.753-.98,3.437,3.437,0,0,1,.582-.269,2.837,2.837,0,0,1,1.421-.162,5.277,5.277,0,0,1,1.1.237,1.316,1.316,0,0,1,.387.075c.355.162.668.313,1.023.475a3.033,3.033,0,0,1,.323.161,2.383,2.383,0,0,1,.861.667,2.09,2.09,0,0,1,.506.862,1.166,1.166,0,0,1,.076.9,1.224,1.224,0,0,1-.313.862,5.669,5.669,0,0,0-.462.43,2.959,2.959,0,0,1-1.26.431,5.112,5.112,0,0,0-.711,0h-.043c-.076,0-.151-.033-.237-.033a48.481,48.481,0,0,0-.98,16.464,42.363,42.363,0,0,0,7,18.821l.118.194.076.119c.624.861,1.259,1.69,1.927,2.476.237.269.474.549.7.818l.2.237c.356.356.7.754,1.1,1.142l.28.279.7.668.516.506c.27.237.507.431.743.624l.474.4.582.506a6.174,6.174,0,0,0,.829.592c.742.593,1.529,1.142,2.433,1.734,1.142.7,2.207,1.335,3.231,1.841.979.506,1.916.948,2.864,1.335a40.178,40.178,0,0,0,3.962,1.5c1.3.387,2.681.786,4.091,1.1h.119a.824.824,0,0,0,.312.075,4.715,4.715,0,0,0,.9.194c.742.119,1.528.28,2.282.356h.076c.387.086.71.118,1.023.161s.667.075,1.022.119c.431.075.819.075,1.217.118a11.889,11.889,0,0,0,1.6.118c.592.033,1.142.076,1.691.076h3.467c.581-.043,1.13-.076,1.648-.118h.312c.742-.076,1.41-.119,2.078-.194l.667-.076.442.441v-.01c1.055-1.971,2.121-3.93,3.176-5.933-2.509-1.884-14.815-11.747-13.319-22.751.237-1.734.668-4.953,3.5-6.956,4.91-3.5,14.343-1.69,28.049,5.308,5,2.552,10.175,5.179,11.241,9.389.937,3.651-1.615,6.676-3.144,8.528a23.328,23.328,0,0,1-11.2,7.15,29.263,29.263,0,0,1-10.693,1.292c-1.249,2.551-2.508,5.114-3.768,7.666a8.343,8.343,0,0,0,.786.667c.474.388.947.786,1.421,1.131.312.248.625.474.937.711l.269.237c.442.279.9.635,1.378.947.754.506,1.572,1.023,2.477,1.572.979.582,1.927,1.142,2.864,1.605l.161.085c.28.151.549.27.786.388.506.28,1.023.506,1.529.743.9.442,1.809.786,2.714,1.142a8.973,8.973,0,0,0,1.1.43c.4.162.753.281,1.109.4l.463.151c.161.043.28.085.4.118a1.889,1.889,0,0,0,.473.161c.388.119.743.237,1.131.356a11.415,11.415,0,0,0,1.259.312c.162.043.356.075.518.118.818.238,1.679.431,2.551.625h.075a1.461,1.461,0,0,1,.431.086h.119l1.453.269c.313.043.635.076.98.119l.474.086.786.075c.237.033.355.075.431.075l1.615.119c.667.043,1.335.118,2.045.118h.151c.711.043,1.378.043,2.089.043h.151c.635,0,1.26,0,1.927-.043.624-.043,1.26-.075,1.884-.118l.237-.119.28.076c.151,0,.862-.076.862-.076h.269a3.95,3.95,0,0,0,.56-.075c.194,0,.344-.043.463-.043.431-.032.753-.118,1.1-.161l.71-.076c.238-.032.517-.118.786-.151s.636-.086.98-.161l.474-.075c.861-.2,1.691-.355,2.476-.517.313-.076.593-.151.862-.237l.118-.033a63.732,63.732,0,0,0,29.471-16.344,2.2,2.2,0,0,1-.592-.593,2.3,2.3,0,0,1-.269-.43c-.044-.118-.044-.237-.087-.356a1.231,1.231,0,0,1,.043-.829,5.282,5.282,0,0,0,.237-.5,2.313,2.313,0,0,1,.947-.625c.194-.043.388-.086.625-.118a2.984,2.984,0,0,1,1.335.118c.27.118.506.194.743.312.043.043.087.043.119.075.043,0,.086.044.161.076.312.205.593.4.862.592l.279.28c.238.226.464.506.668.743a1.787,1.787,0,0,1,.269.829.982.982,0,0,1,0,.818,1.257,1.257,0,0,1-.473.668,1.187,1.187,0,0,1-.7.431,2.753,2.753,0,0,1-.636.161,2.241,2.241,0,0,1-.743-.043l-.043.043c-.269.28-.549.55-.861.829a66.539,66.539,0,0,1-30.6,16.582h-.043a.168.168,0,0,1-.119.032c-.021.022-.032.032-.053.032l-1.637.991a7.616,7.616,0,0,1-.9.592A56.491,56.491,0,0,1,583.7,442.614Z" fill="#d8f476"/><path d="M536.4,302.316c-4.361,3.65-9.551,6.321-13.481,10.4-3.574,3.779-6.32,8.807-8.991,13.049-6.093,9.788-14.579,17.842-21.889,26.833-7.15,8.807-9.7,23.419-10.649,34.574-1.605,19.1,4.4,36.544,17.131,50.843,3.1,3.5,5.545,7.193,8.6,10.531.473.5.947,1.022,1.453,1.528a24.5,24.5,0,0,1,2.951,3.188c.042,0,.042.043.042.075.076.194.151.4.227.549-.312-.075-.668-.194-1.013-.312-.236-.075-.473-.194-.753-.269-.43-.162-.9-.356-1.335-.517l-.7-.312c-.323-.119-.711-.28-1.066-.431-.075-.043-.194-.086-.313-.161a9.809,9.809,0,0,1-.979-.432,2.829,2.829,0,0,1-.474-.236c-.431-.205-.861-.409-1.281-.625-.894-.441-1.755-.915-2.606-1.421a.959.959,0,0,1-.441-.226,62.019,62.019,0,0,1-23.376-23.538,3.929,3.929,0,0,1-.312-.592c-.668-1.184-1.26-2.39-1.842-3.617-.237-.507-.473-1.023-.667-1.53-.668-1.5-1.26-2.982-1.777-4.522-.075-.226-.151-.388-.226-.581-.323-.948-.592-1.971-.9-2.951l-.161-.624c-.431-1.5-.786-3.069-1.1-4.6-4.641-23.064,5.222-45.191,13.944-64.669.161-.355.312-.711.43-1.023v-.043a14.616,14.616,0,0,1-2.272.549,6.506,6.506,0,0,0-2.088.312,7.133,7.133,0,0,1-1.605.28c-2,.194-4.091.118-4.792-1.658-.473-1.012.033-2.39.7-3.844h.043c.312-.786.7-1.572,1.055-2.358.086-.237.2-.474.28-.711a29.633,29.633,0,0,1,1.174-2.831,12.989,12.989,0,0,0,1.108-4.006,25.937,25.937,0,0,0-1.421-8.129c-1.26-4.124-2.746-8.216-4.167-12.339.635-.507,1.26-.98,1.928-1.454,2.788,7.5,6.094,14.859,7.5,23.257,2.983-4.393,5.933-8.84,8.883-13.233a4.776,4.776,0,0,1,.937.355c-.43,1.648-.668,3.338-1.249,4.911-2,5.06-5.976,8.527-9.863,12.177-.473.431-.947.9-1.453,1.379-.237.236-.474.462-.668.7a7.5,7.5,0,0,0-1.217,1.691,2.221,2.221,0,0,0-.2.431.155.155,0,0,0-.033.086,1.519,1.519,0,0,0-.236.549,6.846,6.846,0,0,0-.55,2.315,55.889,55.889,0,0,0,7.537-.861c.786-.2,1.572-.431,2.326-.711a16.018,16.018,0,0,0,2.272-.9c.668-.27,1.336-.625,1.971-.937h.032c.043-.043.086-.087.119-.087.635-.355,1.259-.7,1.851-1.1,0-.043.033-.043.076-.075.4-.237.71-.474,1.066-.711s.7-.506,1.055-.786a15.39,15.39,0,0,0,1.378-1.1,15.839,15.839,0,0,0,1.249-1.185l.043-.032a26.622,26.622,0,0,0,2.358-2.433c3.974-4.76,7.785-9.713,11.478-14.655,1.605-2.132,3.177-4.21,4.792-6.288.032,0,.075-.086.118-.161,5.933-7.7,12.447-14.816,21.492-19.3,3.456-1.723,6.751-3.65,9.034-6.795a6.547,6.547,0,0,1,1.453.043,1.971,1.971,0,0,1,.667.033C551.054,289.115,542.02,297.6,536.4,302.316Z" fill="#bbed0a"/><path d="M684.439,353.935c0,4.877-.743,9.432-.98,14.191-.118,2.121-.118,4.318-.312,6.439-.312,3.532-1.734,6.956-2.6,10.412-1.453,6.008-1.5,12.34-1.809,18.466-.194,3.22-.473,6.364-.473,9.626,0,.593,0,1.185-.033,1.723,0,.236-.022.452-.032.668-.216.043-.42.1-.635.139-.4.087-.808.173-1.206.259s-.765.172-1.153.247c-.086.022-.183.043-.269.065a19.453,19.453,0,0,0-2.315.646c-.14.043-.269.1-.4.151a5.7,5.7,0,0,0-.775.377c-.011.01-.032.01-.043.021,0-.1-.011-.183-.011-.247v-.237c0-.075.032-.162.032-.281,0,0,0-.032.043-.032a1.189,1.189,0,0,1,.431-.71v-.043c-.043-.076-.075-.108-.118-.108,0-.043-.044-.086-.044-.118a7.093,7.093,0,0,1-.269-.754c-.711-3.263-1.615-6.794-1.023-9.938.431-2.595.948-5.147,1.454-7.7a4.774,4.774,0,0,1,.237-1.066,16.756,16.756,0,0,1,.506-2.433c.2-1.1.441-2.2.711-3.263a1.722,1.722,0,0,0,.075-.431c.355-1.5.711-2.982,1.066-4.436.549-2.121,1.1-4.242,1.723-6.363.2-.679.355-1.378.592-2.046.43-1.69.786-3.338,1.066-5,.032,0,.032-.032,0-.075a27.488,27.488,0,0,0,.506-3.069c.161-.861.236-1.723.312-2.552a23.992,23.992,0,0,0,.2-2.864c.032-.9.075-1.766.075-2.67v-.668h.032c0-.4-.032-.753-.032-1.066a72.448,72.448,0,0,0-.667-7.742,42.794,42.794,0,0,0-.9-4.36,7.157,7.157,0,0,0-.237-1.012,48.114,48.114,0,0,0-1.647-5.47c-.119-.388-.28-.786-.4-1.217a68.551,68.551,0,0,1-1.6-9,8.9,8.9,0,0,1,.431-2.789c.032.043.075.043.118.086h.119c2.863.237,3.456,4.275,4.511,6.083.474.829.711,1.228,1.109,2a12,12,0,0,1,.775,1.928,39.815,39.815,0,0,1,1.185,4.016C682.867,345.763,684.482,349.693,684.439,353.935Z" fill="#bbed0a"/><path d="M448.473,488.87a150.958,150.958,0,0,0-55.931,96.3,7.61,7.61,0,0,1-4.441,7.136,143.619,143.619,0,0,0-63.9,96.442c-.372,2.237-.5,4.494-.748,6.743-.163,1.5-1.086,2.805-1.239,4.294-.084.813-.355,4.43.2,4.84.381.281,2.082-.676,2.574-.766,1.26-.228,2.986.244,4.129-.3a4,4,0,0,0,1.642-2.594c6.311-21.8,13.338-43.669,25.095-63.087q.654-1.079,1.326-2.144A115.857,115.857,0,0,1,380.66,608.5q2.1-1.749,4.26-3.42a86.562,86.562,0,0,1,8.624-5.917,36.995,36.995,0,0,1,4.534-2.428,50.027,50.027,0,0,0,4.749-2.2,10.2,10.2,0,0,0,3.152-2.279c.712-.872.769-2.49.857-3.558.106-1.3.1-2.6.263-3.9a77.736,77.736,0,0,1,2.091-8.83c5.852-23.437,13.97-47.383,33.036-63.507,3.868-3.272,8.248-6.315,10.389-10.9S453.347,490.249,448.473,488.87Z" fill="#bbed0a"/><path d="M457.044,611.36a8.962,8.962,0,0,0-1.809-2.067,2.543,2.543,0,0,0-.216.14,199.7,199.7,0,0,0-75.23,106.854l-.033.13c-.506-.032-1.034-.043-1.54-.043a7.423,7.423,0,0,0,1.3,2.982l.017.02c3.987-1.247,8.259-.019,12.027,1.871a8.542,8.542,0,0,0,1.416-1.589c.085-.151.183-.3.279-.453,5.319-8.829,7.064-19.014,10.671-28.544a126.956,126.956,0,0,1,13.513-25.378c10.918-16.291,24.711-30.429,38.536-44.254A7.427,7.427,0,0,0,457.044,611.36Z" fill="#bbed0a"/><path d="M867.266,716.086a83.424,83.424,0,0,1-7.925,13.689c-4.2,6.177-8.98,13.246-15.092,17.6-5.4,3.846-10.836,7.5-16.343,10.977-1.92,1.211-3.1,2.631-5.207,3.6-6,2.756-11.964,3.446-17.8,7.1-5.6,3.511-10.742,7.71-16.4,11.14-7.742,4.695-16.743,6.9-25.26,9.873-4.888,1.7-9.335,4.674-14.159,6.461-4.2,1.551-8.819,2.293-13.179,3.284-7.731,1.755-14.289,5.847-21.793,8.312-7.656,2.52-15.419,4.609-23.193,6.654a154.681,154.681,0,0,1-27.328,4.684c-12.059.969-23.892,1.443-35.855,2.7-.258.021-.517.043-.775.075-.172.022-.345.032-.549.054-.022,0-.043.011-.065.011-2.014.215-4.038.42-6.051.6l-.948.1a1.111,1.111,0,0,0-.182.01,1.3,1.3,0,0,1-.205.022l-1.486.129c-50.918,4.5-101.482,1.271-152.443-1.712-1.121-.064-113.3-7.138-230.992-53.191a184.726,184.726,0,0,1-40.9-22.9c-.829-.636-1.648-1.282-2.455-1.949-.689-.56-1.379-1.131-2.057-1.7-.387-.313-.764-.636-1.141-.969a4.528,4.528,0,0,1-.355-.3l-.625-.528c-.646-.571-1.292-1.141-1.938-1.733q-2.213-1.988-4.361-4.092a133.267,133.267,0,0,1-29.308-52.1C134.239,624.4,163.29,572.264,182.111,546.315c.883-1.217,1.777-2.412,2.682-3.6s1.83-2.37,2.766-3.532c1.863-2.326,3.78-4.6,5.782-6.827q1.422-1.6,2.875-3.165c.108-.108.2-.215.313-.323.937-1.034,1.916-2.046,2.928-3.058,1.034-1.066,2.1-2.132,3.176-3.155,1.024-1.013,2.057-1.981,3.1-2.939.086-.076.183-.162.269-.248,1.066-.991,2.143-1.971,3.241-2.907,1.12-.991,2.261-1.971,3.424-2.929s2.315-1.917,3.5-2.854,2.38-1.862,3.586-2.778,2.433-1.808,3.661-2.691c2.358-1.691,4.748-3.327,7.2-4.921-10.164,11.392-17.3,32.56-21.815,43.995-5.523,13.987-12.361,27.845-12.845,43.145-.657,21.2-.172,40.184,6.514,60.319a159.43,159.43,0,0,0,22.762,44.512c13.513,18.434,30.87,29.072,48.916,42.315,7.066,5.186,35.007,21.386,86.634,35.468,39.67,10.82,70.7,13.844,94.537,16.054,33.637,3.119,81.523,7.262,143.55-1.615a554.036,554.036,0,0,0,103.507-25.422c18.669-6.523,66.8-24.46,112.735-56.96,25.71-18.193,35.935-30.481,42.505-40.38,10.636-16.027,17.553-34.628,19.127-34,.842.335-1.439,5.534-2.611,15.424-.93,7.853.109,9.593-.1,28.275-.057,5.044-.138,9.927-.362,15.011-.286,6.5-2.349,12.81-3.355,19.174A42.694,42.694,0,0,1,867.266,716.086Z" fill="#9630ee"/><path d="M807.513,678.826c-2.72,1.4-5.481,2.744-7.688,4.952a22.525,22.525,0,0,0-3.654,5.093,9.549,9.549,0,0,1-1.683,2.35,3.172,3.172,0,0,1-4.538.242,7.839,7.839,0,0,1-3.484-4.959,3.78,3.78,0,0,1,.339-2.292,7.745,7.745,0,0,0,.691-5.233c-.137-.884-.425-1.744-.635-2.617a5.733,5.733,0,0,1,.51-4.35,4.465,4.465,0,0,1,4.526-2.191c1.251.093,2.463.616,3.714.814a30.389,30.389,0,0,0,3.778.312,2.43,2.43,0,0,0,1.271-.387,4.1,4.1,0,0,1,4.953.4,16.914,16.914,0,0,1,2.47,2.385,3.506,3.506,0,0,1,.559,4.279Z" fill="#9630ee"/><path d="M801.048,660.018a19.334,19.334,0,0,1,1.363,2.7,5.627,5.627,0,0,1-1.99,6.136,3.764,3.764,0,0,1-5.511-1.1,10.927,10.927,0,0,1-1.63-8.237,2.5,2.5,0,0,1,3.271-2.205,16.707,16.707,0,0,1,2.633.957Z" fill="#9630ee"/><path d="M791.332,666.856a4,4,0,0,1-5.173.637,10.411,10.411,0,0,1-4.725-7.536,2.54,2.54,0,0,1,2.243-3.008,7.354,7.354,0,0,1,5.775,1.455,5.85,5.85,0,0,1,2.659,6.408A11.673,11.673,0,0,1,791.332,666.856Z" fill="#9630ee"/><path d="M776.631,672.554c-1.466-1.792-2.761-4.1-1.92-7.062a2.365,2.365,0,0,1,2.743-1.977,9.768,9.768,0,0,1,4.952,2.107,7.438,7.438,0,0,1,2.854,3.268,3.923,3.923,0,0,1-3.29,5.544A6.15,6.15,0,0,1,776.631,672.554Z" fill="#9630ee"/><path d="M784.989,677.858a3.567,3.567,0,0,1,1.311,3.731,4.511,4.511,0,0,1-3.518,3.312c-2.792.811-4.9-.414-6.762-2.313a6,6,0,0,1-1.862-4.277A2.342,2.342,0,0,1,776,675.746a10.572,10.572,0,0,1,8.987,2.112Z" fill="#9630ee"/><path d="M263.391,577.265a21.349,21.349,0,0,0-6.42-1.613,16.366,16.366,0,0,0-4.5.588,6.944,6.944,0,0,1-2.075.274,2.3,2.3,0,0,1-2.372-2.279,5.672,5.672,0,0,1,.9-4.294,2.733,2.733,0,0,1,1.379-.955,5.61,5.61,0,0,0,3.108-2.223c.4-.51.711-1.088,1.068-1.63a4.151,4.151,0,0,1,2.552-1.883,3.232,3.232,0,0,1,3.4,1.308c.57.707.893,1.607,1.407,2.366a22.016,22.016,0,0,0,1.7,2.151,1.75,1.75,0,0,0,.833.48,2.969,2.969,0,0,1,2.241,2.813,12.3,12.3,0,0,1-.039,2.485,2.537,2.537,0,0,1-1.985,2.412Z" fill="#9630ee"/><path d="M270.133,564.546a14.085,14.085,0,0,1-.754,2.057,4.074,4.074,0,0,1-4.228,1.983,2.724,2.724,0,0,1-2.145-3.456,7.907,7.907,0,0,1,3.546-4.935,1.808,1.808,0,0,1,2.784.638,12.053,12.053,0,0,1,.8,1.865Z" fill="#9630ee"/><path d="M261.713,562.793a2.9,2.9,0,0,1-2.9-2.419,7.534,7.534,0,0,1,1.646-6.224,1.838,1.838,0,0,1,2.7-.3,5.322,5.322,0,0,1,2.088,3.771,4.237,4.237,0,0,1-2.072,4.576A8.411,8.411,0,0,1,261.713,562.793Z" fill="#9630ee"/><path d="M251.43,557.842a5.428,5.428,0,0,1,2.782-4.507,1.712,1.712,0,0,1,2.4.471,7.08,7.08,0,0,1,1.336,3.66,5.381,5.381,0,0,1-.316,3.124,2.839,2.839,0,0,1-4.557,1A4.452,4.452,0,0,1,251.43,557.842Z" fill="#9630ee"/><path d="M252.761,564.884a2.582,2.582,0,0,1-1.323,2.537,3.265,3.265,0,0,1-3.491-.22c-1.81-1.075-2.2-2.793-2.123-4.718a4.345,4.345,0,0,1,1.34-3.1,1.694,1.694,0,0,1,2.267-.294,7.657,7.657,0,0,1,3.33,5.795Z" fill="#9630ee"/><path d="M817.7,514.3a21.356,21.356,0,0,0-6.42-1.613,16.366,16.366,0,0,0-4.5.588,6.948,6.948,0,0,1-2.075.274,2.3,2.3,0,0,1-2.372-2.279,5.675,5.675,0,0,1,.9-4.3,2.733,2.733,0,0,1,1.379-.954,5.608,5.608,0,0,0,3.107-2.223c.4-.51.712-1.088,1.069-1.631a4.153,4.153,0,0,1,2.552-1.882,3.232,3.232,0,0,1,3.4,1.308c.57.707.893,1.607,1.407,2.366a22.158,22.158,0,0,0,1.7,2.151,1.758,1.758,0,0,0,.834.48,2.97,2.97,0,0,1,2.241,2.813,12.3,12.3,0,0,1-.039,2.485A2.538,2.538,0,0,1,818.9,514.3Z" fill="#9630ee"/><path d="M824.441,501.584a14.2,14.2,0,0,1-.754,2.057,4.074,4.074,0,0,1-4.228,1.983,2.723,2.723,0,0,1-2.145-3.456,7.907,7.907,0,0,1,3.546-4.935,1.808,1.808,0,0,1,2.784.638,12.053,12.053,0,0,1,.8,1.865Z" fill="#9630ee"/><path d="M816.021,499.831a2.9,2.9,0,0,1-2.9-2.419,7.533,7.533,0,0,1,1.646-6.224,1.837,1.837,0,0,1,2.7-.3,5.321,5.321,0,0,1,2.087,3.771,4.235,4.235,0,0,1-2.071,4.576A8.443,8.443,0,0,1,816.021,499.831Z" fill="#9630ee"/><path d="M805.737,494.88a5.429,5.429,0,0,1,2.783-4.507,1.712,1.712,0,0,1,2.4.471,7.08,7.08,0,0,1,1.336,3.66,5.381,5.381,0,0,1-.316,3.124,2.839,2.839,0,0,1-4.557,1A4.455,4.455,0,0,1,805.737,494.88Z" fill="#9630ee"/><path d="M807.069,501.921a2.583,2.583,0,0,1-1.324,2.538,3.265,3.265,0,0,1-3.49-.22c-1.81-1.075-2.2-2.793-2.123-4.718a4.341,4.341,0,0,1,1.34-3.1,1.694,1.694,0,0,1,2.267-.294,7.657,7.657,0,0,1,3.33,5.794Z" fill="#9630ee"/><path d="M416.484,404.924a13.693,13.693,0,0,0-1.222-4.064,10.469,10.469,0,0,0-1.8-2.283,4.441,4.441,0,0,1-.833-1.052,1.472,1.472,0,0,1,.475-2.055,3.637,3.637,0,0,1,2.658-.917,1.752,1.752,0,0,1,.979.445,3.6,3.6,0,0,0,2.245.98c.412.052.832.034,1.248.052a2.662,2.662,0,0,1,1.875.786,2.073,2.073,0,0,1,.4,2.3c-.2.546-.591,1.02-.84,1.552a14.05,14.05,0,0,0-.624,1.645,1.123,1.123,0,0,0,.01.616,1.905,1.905,0,0,1-.812,2.159,7.826,7.826,0,0,1-1.381.8,1.628,1.628,0,0,1-1.98-.3Z" fill="#9630ee"/><path d="M425.7,404.454a8.987,8.987,0,0,1-1.38.261,2.609,2.609,0,0,1-2.481-1.675,1.747,1.747,0,0,1,1.2-2.317,5.072,5.072,0,0,1,3.882.33,1.16,1.16,0,0,1,.564,1.742,7.762,7.762,0,0,1-.765,1.052Z" fill="#9630ee"/><path d="M423.9,399.244a1.856,1.856,0,0,1,.38-2.389,4.827,4.827,0,0,1,3.967-1.14A1.178,1.178,0,0,1,429.3,397.1a3.418,3.418,0,0,1-1.39,2.389,2.714,2.714,0,0,1-3.2.364A5.394,5.394,0,0,1,423.9,399.244Z" fill="#9630ee"/><path d="M423.243,391.956a3.486,3.486,0,0,1,3.4.05,1.1,1.1,0,0,1,.53,1.477,4.535,4.535,0,0,1-1.575,1.938,3.457,3.457,0,0,1-1.824.854,1.821,1.821,0,0,1-2.05-2.179A2.853,2.853,0,0,1,423.243,391.956Z" fill="#9630ee"/><path d="M419.805,395a1.654,1.654,0,0,1-1.832.106,2.1,2.1,0,0,1-1.026-1.994,3.008,3.008,0,0,1,1.9-2.719,2.785,2.785,0,0,1,2.146-.281,1.087,1.087,0,0,1,.907,1.151A4.906,4.906,0,0,1,419.805,395Z" fill="#9630ee"/><path d="M550.41,777.45c-1.643,2.257-3.243,4.58-4.776,6.924a12.065,12.065,0,0,0-4.207,0c-.657.11-1.292.263-1.928.416a7.5,7.5,0,0,1-2.081.263,2.284,2.284,0,0,1-2.367-2.279,5.638,5.638,0,0,1,.9-4.294,2.622,2.622,0,0,1,1.38-.942,5.517,5.517,0,0,0,3.089-2.234,16.029,16.029,0,0,0,1.074-1.622,4.144,4.144,0,0,1,2.563-1.884,3.219,3.219,0,0,1,3.4,1.315,9.1,9.1,0,0,1,.833,1.336,6.75,6.75,0,0,0,.569,1.029A21.71,21.71,0,0,0,550.41,777.45Z" fill="#9630ee"/><path d="M556.5,769.672q-2.826,3.387-5.456,6.946a2.643,2.643,0,0,1-1.029-2.936,8.036,8.036,0,0,1,3.549-4.951,1.809,1.809,0,0,1,2.782.657A1.19,1.19,0,0,1,556.5,769.672Z" fill="#9630ee"/><path d="M548.733,771.338a2.9,2.9,0,0,1-2.895-2.419,7.539,7.539,0,0,1,1.645-6.225,1.838,1.838,0,0,1,2.7-.3,5.326,5.326,0,0,1,2.088,3.772,4.234,4.234,0,0,1-2.071,4.575A8.424,8.424,0,0,1,548.733,771.338Z" fill="#9630ee"/><path d="M538.45,766.387a5.43,5.43,0,0,1,2.783-4.508,1.711,1.711,0,0,1,2.4.472,7.065,7.065,0,0,1,1.336,3.659,5.376,5.376,0,0,1-.315,3.125,2.839,2.839,0,0,1-4.557,1A4.449,4.449,0,0,1,538.45,766.387Z" fill="#9630ee"/><path d="M539.781,773.428a2.581,2.581,0,0,1-1.323,2.538,3.267,3.267,0,0,1-3.491-.221c-1.809-1.074-2.2-2.793-2.122-4.718a4.347,4.347,0,0,1,1.339-3.1,1.7,1.7,0,0,1,2.268-.294,7.637,7.637,0,0,1,1.484,1.322A7.548,7.548,0,0,1,539.781,773.428Z" fill="#9630ee"/><path d="M757.615,444.5c-.121.243-.245.487-.368.732a13.629,13.629,0,0,0-3.011,3.46,9.654,9.654,0,0,0-1.059,2.971A5.307,5.307,0,0,1,752.69,453a1.639,1.639,0,0,1-2.159.773,4.2,4.2,0,0,1-2.4-1.914,2.373,2.373,0,0,1-.121-1.181,4.092,4.092,0,0,0-.407-2.6c-.2-.408-.447-.773-.652-1.181a2.7,2.7,0,0,1-.366-2.158,2.314,2.314,0,0,1,1.872-1.71c.611-.121,1.263-.039,1.914-.121a15.14,15.14,0,0,0,1.873-.367,1.244,1.244,0,0,0,.568-.366,2.061,2.061,0,0,1,2.443-.489,11.118,11.118,0,0,1,1.506.815A1.729,1.729,0,0,1,757.615,444.5Z" fill="#9630ee"/><path d="M752.445,441.4a1.9,1.9,0,0,1-2.808.244,5.446,5.446,0,0,1-1.914-3.786,1.231,1.231,0,0,1,1.262-1.5,7.825,7.825,0,0,1,1.385.122,9.839,9.839,0,0,1,1.139.57,8.953,8.953,0,0,1,1.058,1.1A2.871,2.871,0,0,1,752.445,441.4Z" fill="#9630ee"/><path d="M747.886,440.588a5,5,0,0,1-.121,1.1,1.988,1.988,0,0,1-2.4,1.018,5.2,5.2,0,0,1-3.295-2.972,1.218,1.218,0,0,1,.649-1.749,3.617,3.617,0,0,1,2.972-.123A3.04,3.04,0,0,1,747.886,440.588Z" fill="#9630ee"/><path d="M744.305,446.652a3.228,3.228,0,0,1-2.851-.163,3.873,3.873,0,0,1-1.872-3.174,1.157,1.157,0,0,1,1.018-1.3,4.343,4.343,0,0,1,2.687.326,3.69,3.69,0,0,1,1.832,1.18A1.967,1.967,0,0,1,744.305,446.652Z" fill="#9630ee"/><path d="M747.4,449.5a2.248,2.248,0,0,1-1.26,2.077,3.276,3.276,0,0,1-3.583-.163,2.874,2.874,0,0,1-1.465-1.831,1.138,1.138,0,0,1,.528-1.466,4.366,4.366,0,0,1,1.262-.529,5.249,5.249,0,0,1,3.379.284A1.832,1.832,0,0,1,747.4,449.5Z" fill="#9630ee"/><path d="M708.35,620.243a14.811,14.811,0,0,0-3.027,3.454,11.326,11.326,0,0,0-1.06,2.965,4.821,4.821,0,0,1-.488,1.368,1.594,1.594,0,0,1-2.158.744,3.943,3.943,0,0,1-2.368-1.913,1.9,1.9,0,0,1-.153-1.153,3.888,3.888,0,0,0-.39-2.623c-.188-.407-.446-.783-.668-1.175a2.879,2.879,0,0,1-.355-2.171,2.241,2.241,0,0,1,1.881-1.684c.617-.128,1.275-.043,1.907-.12a15.3,15.3,0,0,0,1.867-.373,1.2,1.2,0,0,0,.56-.362,2.059,2.059,0,0,1,2.446-.494,8.435,8.435,0,0,1,1.523.81,1.761,1.761,0,0,1,.861,1.989Z" fill="#9630ee"/><path d="M702.628,612.056a9.862,9.862,0,0,1,1.032,1.117,2.827,2.827,0,0,1-.113,3.238,1.891,1.891,0,0,1-2.813.232,5.492,5.492,0,0,1-1.926-3.752,1.254,1.254,0,0,1,1.275-1.517,8.452,8.452,0,0,1,1.4.1Z" fill="#9630ee"/><path d="M698.882,616.7a2.011,2.011,0,0,1-2.41,1.023,5.23,5.23,0,0,1-3.323-2.986,1.275,1.275,0,0,1,.667-1.762,3.692,3.692,0,0,1,2.989-.1,2.939,2.939,0,0,1,2.17,2.727A5.841,5.841,0,0,1,698.882,616.7Z" fill="#9630ee"/><path d="M692.572,621.486a3.77,3.77,0,0,1-1.9-3.145,1.189,1.189,0,0,1,1.051-1.334,4.917,4.917,0,0,1,2.683.333,3.736,3.736,0,0,1,1.83,1.183,1.971,1.971,0,0,1-.823,3.132A3.088,3.088,0,0,1,692.572,621.486Z" fill="#9630ee"/><path d="M697.341,622.891a1.794,1.794,0,0,1,1.149,1.62,2.268,2.268,0,0,1-1.241,2.086,3.257,3.257,0,0,1-3.585-.182,3.014,3.014,0,0,1-1.49-1.808,1.176,1.176,0,0,1,.535-1.493,5.315,5.315,0,0,1,4.632-.223Z" fill="#9630ee"/><path d="M620.753,643.239c-.584-2.694-3.5-3.347-5.924-3.205a12.713,12.713,0,0,0-5.5,1.714c-1.036.632-1.7,1.791-2.986,1.926-.854-.92-1.366-2.173-2.471-3a9.823,9.823,0,0,0-3.679-1.706c-3.7-.88-5.1,1.9-4.635,5.308.577,4.235,2.764,7.317,5.093,10.761,1.379,2.039,3.163,5.087,5.439,6.2,2.8-2.475,5.938-4.724,8.686-7.315C617.127,651.705,621.569,647,620.753,643.239Z" fill="#9630ee"/><path d="M245.721,657.384c-1.725-2.15-4.629-1.43-6.732-.222a12.694,12.694,0,0,0-4.157,3.989c-.646,1.028-.72,2.36-1.813,3.056-1.175-.441-2.192-1.333-3.552-1.584a9.822,9.822,0,0,0-4.054.115c-3.7.862-3.714,3.978-1.777,6.82,2.407,3.531,5.739,5.313,9.36,7.355,2.144,1.209,5.1,3.14,7.637,3.124,1.4-3.464,3.2-6.879,4.508-10.423C246.256,666.579,248.132,660.389,245.721,657.384Z" fill="#9630ee"/><path d="M704.584,470.281c.286,1.344-1.26,2.972-2.075,3.7-.936.9-2.035,1.711-2.971,2.566a6.5,6.5,0,0,1-1.914-2.158,8.578,8.578,0,0,1-1.749-3.745c-.163-1.18.326-2.117,1.586-1.832a3.835,3.835,0,0,1,1.3.612,10.347,10.347,0,0,1,.854,1.017c.447-.041.652-.449,1.018-.651a4.4,4.4,0,0,1,1.912-.611C703.364,469.141,704.381,469.385,704.584,470.281Z" fill="#9630ee"/><path d="M785.661,592.994c-.2-.933-1.213-1.159-2.051-1.11a4.4,4.4,0,0,0-1.9.594c-.359.218-.588.62-1.035.666a6.957,6.957,0,0,0-.855-1.04,3.4,3.4,0,0,0-1.274-.591c-1.279-.3-1.766.659-1.605,1.838a8.646,8.646,0,0,0,1.763,3.727,6.22,6.22,0,0,0,1.884,2.148c.969-.857,2.056-1.636,3.008-2.533C784.406,595.925,785.944,594.3,785.661,592.994Z" fill="#9630ee"/><path d="M322.382,592.261c-.382-1.761-2.291-2.187-3.873-2.095a8.3,8.3,0,0,0-3.6,1.121c-.678.413-1.11,1.17-1.953,1.258a13.2,13.2,0,0,0-1.615-1.963,6.428,6.428,0,0,0-2.405-1.116c-2.415-.575-3.333,1.244-3.03,3.471.378,2.768,1.807,4.783,3.329,7.034.9,1.333,2.068,3.325,3.556,4.056,1.828-1.618,3.882-3.089,5.678-4.782C320.011,597.795,322.915,594.722,322.382,592.261Z" fill="#9630ee"/><path d="M689.259,726.437c-.382-1.761-2.291-2.187-3.873-2.1a8.3,8.3,0,0,0-3.6,1.121c-.678.413-1.11,1.171-1.953,1.259a13.258,13.258,0,0,0-1.615-1.964,6.411,6.411,0,0,0-2.4-1.115c-2.415-.575-3.333,1.243-3.03,3.47.378,2.768,1.807,4.783,3.329,7.034.9,1.333,2.068,3.326,3.556,4.056,1.828-1.618,3.882-3.088,5.678-4.782C686.888,731.972,689.792,728.9,689.259,726.437Z" fill="#9630ee"/><path d="M378.633,525.744c-.548.592-1.073,1.118-1.533,1.556q-.593.558-1.184,1.052c-2.344,2.081-4.907,3.965-7.208,6-2.213-1.074-3.944-4.009-5.258-5.982-2.257-3.329-4.382-6.31-4.93-10.407v-.021a5.613,5.613,0,0,1,.592-3.856c.679-1.139,1.95-1.709,3.878-1.249a9.511,9.511,0,0,1,3.571,1.643c1.074.811,1.556,2.015,2.388,2.914,1.249-.132,1.884-1.249,2.892-1.863a12.238,12.238,0,0,1,5.3-1.664c2.344-.132,5.171.5,5.74,3.088C383.519,519.872,380.89,523.378,378.633,525.744Z" fill="#9630ee"/><path d="M321.86,458.938a8.175,8.175,0,0,0,.162,2.789c.893,4.08,4.608,7.871,9.906,6.966,39.214-6.686,83.942-3.715,112.647,26.531,1.863-.517,3.737-1.034,5.6-1.54.668-.183,1.325-.366,1.992-.549a1.8,1.8,0,0,0,.248-1.841,2.759,2.759,0,0,0-.269-.431c-.592-.743-1.228-1.5-1.852-2.24-.388-.473-.818-.936-1.26-1.41-.624-.711-1.249-1.421-1.884-2.121-.549-.593-1.142-1.185-1.723-1.809-.108-.108-.215-.216-.312-.323-.086-.086-.162-.173-.248-.248-.646-.667-1.292-1.3-1.96-1.949-.506-.463-.979-.9-1.453-1.378a9.269,9.269,0,0,1-.743-.7c-.9-.829-1.766-1.572-2.713-2.358-.076-.075-.162-.118-.237-.194a1.631,1.631,0,0,0-.313-.28c-.312-.269-.624-.506-.947-.786-1.023-.861-2.035-1.69-3.1-2.476-.312-.237-.592-.463-.9-.668-.236-.194-.506-.387-.742-.581-.119-.086-.28-.2-.431-.323-1.421-1.023-2.832-2-4.286-2.983-1.1-.71-2.207-1.41-3.305-2.078-1.055-.667-2.121-1.3-3.22-1.9a19.241,19.241,0,0,0-1.69-.937c-.668-.4-1.335-.743-2-1.066a1.326,1.326,0,0,0-.43-.236,22.314,22.314,0,0,0-2.283-1.131,3.241,3.241,0,0,0-.668-.355c-.786-.356-1.529-.711-2.315-1.066-.193-.076-.387-.151-.592-.237-.549-.269-1.13-.506-1.69-.786l-.582-.226c-.194-.086-.4-.162-.549-.237-.4-.162-.786-.323-1.184-.474-.431-.162-.862-.355-1.292-.517-.474-.151-.905-.344-1.379-.506-.506-.161-.979-.355-1.453-.549-.474-.162-.98-.312-1.5-.517h-.032c-.786-.226-1.615-.549-2.4-.775-.937-.28-1.841-.56-2.746-.8-.161-.032-.355-.108-.517-.151h-.075c-.668-.193-1.335-.4-2-.549-.431-.118-.872-.237-1.3-.312-.237-.086-.463-.118-.743-.2-.473-.118-.979-.236-1.5-.344-.819-.2-1.648-.355-2.466-.517-.592-.118-1.184-.237-1.777-.312a4.913,4.913,0,0,0-.743-.162c-.269-.032-.592-.075-.861-.118-.194-.032-.4-.076-.592-.119-.237-.032-.431-.075-.668-.107a2,2,0,0,1-.506-.086c-.323-.044-.592-.076-.9-.119-.517-.075-.991-.118-1.5-.194-.237-.032-.474-.064-.721-.086a189.289,189.289,0,0,0-22.515-.291Z" fill="#9630ee"/><path d="M746.566,544.473a8.2,8.2,0,0,1-.969,1.949.556.556,0,0,1-.064.108c-3.9,5.653-12.921,2.423-18.305.765-31.408-9.691-62.719-5.977-93.923,2.411-30.213,8.14-57.024,20.684-77.729,45.245a132.289,132.289,0,0,0-15.839,23.473c-4.156,7.87-5.814,17.259-10.068,24.818a8.631,8.631,0,0,1-9.216,4.124,6.98,6.98,0,0,1-2.445-.99,1.915,1.915,0,0,1,.022-.238c.453-3.068,1-6.116,1.68-9.141.107-.463.2-.915.323-1.378q.533-2.279,1.173-4.522a114.444,114.444,0,0,1,24.711-44.782c11.683-13.157,26.079-23.752,41.52-32.086a203.915,203.915,0,0,1,36.619-15.312,180.549,180.549,0,0,1,62.02-7.967,188.174,188.174,0,0,1,41.3,6.74c1.658.463,3.306.937,4.942,1.454,4.533,1.367,9.023,2.907,13.449,4.587A1.392,1.392,0,0,1,746.566,544.473Z" fill="#9630ee"/><path d="M745.6,546.422a1.093,1.093,0,0,1-.538-.086c-1.971-.743-3.952-1.475-5.944-2.164q-7.655-2.666-15.515-4.705c-1.96-.507-3.93-.991-5.911-1.432a181.891,181.891,0,0,0-40.1-4.587,179.57,179.57,0,0,0-56.13,9.141A197.12,197.12,0,0,0,583.926,559.3c-15.149,8.8-29.072,19.909-40.055,33.626a110.48,110.48,0,0,0-20.145,39.344v.022c-.054.2-.108.4-.162.592a115.093,115.093,0,0,0-2.928,13.976,1.288,1.288,0,0,1-.183.506c-.614.959-2.434.344-2.445-.99a1.915,1.915,0,0,1,.022-.238c.453-3.068,1-6.116,1.68-9.141.107-.463.2-.915.323-1.378q.533-2.279,1.173-4.522a114.444,114.444,0,0,1,24.711-44.782c11.683-13.157,26.079-23.752,41.52-32.086a203.915,203.915,0,0,1,36.619-15.312,180.549,180.549,0,0,1,62.02-7.967,188.174,188.174,0,0,1,41.3,6.74c1.658.463,3.306.937,4.942,1.454,4.533,1.367,9.023,2.907,13.449,4.587a1.392,1.392,0,0,1,.8.742C746.911,545.292,746.481,546.39,745.6,546.422Z" fill="#00008b"/><path d="M450.077,492.037c-.1.118-.183.247-.279.376a1.285,1.285,0,0,1-.3.377l-.129.1c-1.066.8-2.046,1.615-3.069,2.466-1.055.85-2.089,1.776-3.112,2.67-2.358,2.024-4.64,4.189-6.858,6.439-1.292,1.271-2.563,2.627-3.834,3.984-2.228,2.487-4.393,5.018-6.439,7.645a1.123,1.123,0,0,0-.226.291c-.936,1.205-1.873,2.379-2.735,3.639-.85,1.088-1.615,2.175-2.347,3.273-.592.883-1.227,1.809-1.819,2.735-.549.84-1.1,1.647-1.605,2.487-.6.98-1.206,1.949-1.766,2.972-.829,1.314-1.582,2.627-2.293,3.995a153.783,153.783,0,0,0-9.777,21.394c-.463,1.3-.9,2.6-1.335,3.9a28.745,28.745,0,0,0-.926,2.865c-.42,1.162-.764,2.347-1.109,3.563q-.485,1.568-.872,3.134c-.344,1.259-.689,2.487-1,3.747-.753,3.144-1.442,6.342-2.045,9.55-.269,1.357-.5,2.714-.722,4.081-.053.409-.118.829-.183,1.238a1.794,1.794,0,0,1-.172.614,1,1,0,0,1-.183.248.627.627,0,0,1-.269.376,1.16,1.16,0,0,1-.549.4,1.748,1.748,0,0,1-2.251-.754,2.028,2.028,0,0,1-.14-1.2,2.95,2.95,0,0,1,.087-.581A177.5,177.5,0,0,1,395.7,569.4a156.27,156.27,0,0,1,30-58.7c.754-.915,1.465-1.787,2.261-2.648a5.574,5.574,0,0,1,.56-.625c.226-.291.539-.614.8-.947s.571-.668.84-1c1.572-1.69,3.22-3.37,4.867-5.007a7.829,7.829,0,0,1,.613-.57v-.054c.646-.646,1.206-1.184,1.853-1.8,1.959-1.874,3.973-3.661,6.029-5.384q1.664-1.4,3.36-2.724l.323-.259a1.68,1.68,0,0,1,1.561-.3,1.964,1.964,0,0,1,.388.162,2.374,2.374,0,0,1,.592.506A2.1,2.1,0,0,1,450.077,492.037Z" fill="#00008b"/><path d="M523.726,632.27v.022a1.483,1.483,0,0,1-.162.592,1.52,1.52,0,0,1-.5.528q-1.566,1.048-3.036,2.207c-1.109.85-2.186,1.755-3.241,2.7-8.205,7.418-14.558,16.7-20.857,25.712-6.955,9.949-13.609,20.092-20.059,30.363q-9.707,15.457-18.681,31.355c-4.695,8.334-9.766,16.582-17.1,22.881-15.968,13.717-38.859,14.32-58.682,11.208-8.129-1.27-16.861-3.65-23.128-9.26-.118-.107-.226-.215-.344-.312l-.087-.086c-.2-.194-.409-.4-.6-.6a19.069,19.069,0,0,1-4.877-8.678,16.528,16.528,0,0,1,1.852-11.855c4.544-8.108,13.825-12.426,22.848-12.662.377-.011.765-.011,1.141-.011.506,0,1.034.011,1.54.043,1,.053,2,.151,2.994.291a37.333,37.333,0,0,1,10.229,2.95,35.982,35.982,0,0,1,10.444,7.107c1.367,1.334-.732,3.434-2.089,2.088a32.2,32.2,0,0,0-5.211-4.124,35.536,35.536,0,0,0-5.427-2.81,33.949,33.949,0,0,0-11.177-2.563,28.2,28.2,0,0,0-10.11,1.271c-7.408,2.39-15.064,9.206-14.461,17.647.571,7.9,7.839,12.921,14.6,15.5,8.291,3.155,17.421,4.167,26.218,4.511,9.96.388,20.178-.474,29.524-4.124,8.851-3.445,16.043-9.755,21.589-17.378A117.283,117.283,0,0,0,454,725.4q4.3-7.656,8.765-15.215,8.834-14.907,18.336-29.416c6.342-9.722,12.878-19.338,19.78-28.684,5.814-7.86,12.2-15.419,20.328-20.985.119-.086.238-.162.356-.248A1.428,1.428,0,0,1,523.726,632.27Z" fill="#00008b"/><path d="M457.044,611.36a1.5,1.5,0,0,1-.517.635A196.214,196.214,0,0,0,382.75,716.708c-.033.118-.076.247-.108.366a1.484,1.484,0,0,1-2.886-.657l.033-.13a198.967,198.967,0,0,1,75.23-106.854,2.543,2.543,0,0,1,.216-.14C456.452,608.679,457.539,610.208,457.044,611.36Z" fill="#00008b"/><path d="M358.921,713.122c-6.5-8.14-18.283-9.227-27.909-8.1a78.7,78.7,0,0,0-13.728,2.907,37.962,37.962,0,0,0-10.767,4.921c-2.832,1.981-5.3,4.8-5.836,8.334-.582,3.919,1.454,7.709,3.93,10.6,5.75,6.676,14.493,10.778,22.773,13.351a69.331,69.331,0,0,0,10.552,2.412,71.513,71.513,0,0,0,10.842.8c1.4,0,2.8-.043,4.189-.129.668-.033,1.324-.108,1.992-.129.3-.011.625-.043.937-.043a2.757,2.757,0,0,1,.936.139,1.872,1.872,0,0,1,1.1,1.669c.1.151.129.3.011.42a.625.625,0,0,1-.334.194,2.456,2.456,0,0,1-1.281.356h-.259a21.279,21.279,0,0,1-2.972.355c-.872.054-1.744.1-2.627.118-1.755.043-3.51.032-5.265-.054a73.867,73.867,0,0,1-20.663-3.908c-1.044-.366-2.078-.743-3.1-1.163-8.421-3.349-17.972-8.538-22.16-17.023A13.69,13.69,0,0,1,298.8,717.3c1.615-3.607,4.78-6.277,8.14-8.226a48.168,48.168,0,0,1,12.081-4.717c.667-.172,1.335-.344,2-.506,1.013-.247,2.025-.473,3.048-.678a69.184,69.184,0,0,1,11-1.454c9.184-.42,19.909,1.745,25.949,9.3C362.205,712.508,360.117,714.619,358.921,713.122Z" fill="#00008b"/><path d="M404.844,586.154a141.4,141.4,0,0,0-70.666,76.6,161.888,161.888,0,0,0-9.658,36.9q-.243,1.761-.452,3.521c-.076.571-.13,1.131-.194,1.7-.205,1.873-3.177,1.894-2.972,0,.032-.345.075-.679.118-1.024a166.462,166.462,0,0,1,3.414-19.8q1-4.279,2.239-8.5a153,153,0,0,1,22.386-46.386,144.69,144.69,0,0,1,42.81-39.333c1.185-.721,2.391-1.421,3.607-2.121,2.574-1.443,5.2-2.821,7.86-4.124C405.049,582.752,406.556,585.314,404.844,586.154Z" fill="#00008b"/><path d="M452.166,493.135a1.606,1.606,0,0,1-1.755.678,1.29,1.29,0,0,1-.237-.129,2.553,2.553,0,0,1-.474-.387c-.107-.141-.226-.27-.333-.41-.808-1-1.636-1.981-2.487-2.95q-2-2.293-4.135-4.49l-.194-.194q-2.132-2.181-4.393-4.253c-1.023-.9-2.045-1.809-3.112-2.714-2-1.69-4.081-3.337-6.2-4.866-1.3-.905-2.6-1.809-3.931-2.671-.9-.635-1.808-1.216-2.756-1.765-.668-.442-1.368-.829-2.078-1.26-.593-.355-1.174-.667-1.766-1.023-1.217-.668-2.433-1.292-3.661-1.927h-.032c-.549-.313-1.142-.592-1.734-.861v-.044c-.937-.431-1.841-.861-2.788-1.249a24.8,24.8,0,0,0-2.789-1.227c-.862-.388-1.723-.7-2.552-1.056-1.734-.667-3.5-1.3-5.265-1.884-.668-.236-1.378-.43-2.046-.635-.786-.269-1.529-.474-2.315-.7-.829-.237-1.648-.473-2.477-.667-.9-.238-1.808-.442-2.713-.668-.667-.162-1.368-.323-2.078-.441-1.141-.226-2.326-.507-3.5-.668-1.1-.226-2.2-.388-3.3-.549-.991-.119-1.971-.269-2.951-.388-.786-.086-1.572-.161-2.358-.236s-1.572-.162-2.358-.194c-.236,0-.43-.043-.624-.043-1.3-.076-2.595-.162-3.9-.194h-.194c-.98-.044-1.96-.044-2.95-.044-3.8,0-11.273,0-18.186,1.572-6.1,1.389-17.928,5.406-22.6,6.989a4.338,4.338,0,0,1-2.928.139c-.1-.043-.2-.086-.3-.139-.215-.119-1-.539-1.076-1.077-.065-.463.376-.991,1.216-1.572,3.2-2.2,12.113-5.007,20.038-6.74.646-.141,2.164-.453,4.156-.819,1.454-.269,2.918-.506,4.383-.711,1.96-.29,3.93-.516,5.9-.689.28-.032.549-.053.829-.075,3.166-.269,6.342-.387,9.518-.377,2.639,0,5.223.119,7.818.323.861.032,1.733.119,2.552.226.592.065,1.2.119,1.8.194.247.021.484.054.721.086.506.076.98.119,1.5.194.312.043.581.075.9.118a1.959,1.959,0,0,0,.506.087c.237.032.431.075.668.107.194.044.4.087.592.119.269.043.592.086.861.118a4.913,4.913,0,0,1,.743.162c.593.075,1.185.193,1.777.312.818.162,1.647.313,2.466.517.516.108,1.023.226,1.5.344.28.087.507.119.743.2.431.075.872.194,1.3.312.668.151,1.335.356,2,.55h.075c.162.043.356.118.517.15.9.237,1.809.517,2.746.8.785.226,1.615.549,2.4.775h.032c.517.2,1.023.355,1.5.517.474.194.947.388,1.454.549.473.162.9.356,1.378.506.43.162.861.355,1.291.517.4.151.787.312,1.185.473.151.076.355.151.549.238l.582.226c.56.28,1.141.516,1.69.786.2.086.4.162.593.237.785.355,1.528.71,2.314,1.065a3.293,3.293,0,0,1,.668.356,22.6,22.6,0,0,1,2.282,1.13,1.314,1.314,0,0,1,.431.237c.668.324,1.335.668,2,1.067a18.832,18.832,0,0,1,1.69.936c1.1.592,2.164,1.228,3.22,1.9,1.1.668,2.207,1.368,3.305,2.079,1.454.979,2.864,1.959,4.286,2.982.151.118.312.237.43.323.238.194.507.387.743.581.313.2.593.431.9.668,1.066.786,2.078,1.615,3.1,2.476.323.281.635.517.947.786a1.6,1.6,0,0,1,.313.28c.075.076.161.119.237.194.947.786,1.808,1.529,2.713,2.358a9.269,9.269,0,0,0,.743.7c.474.473.947.915,1.453,1.378.668.646,1.314,1.282,1.96,1.949.086.075.162.162.248.248.1.108.2.215.312.323.582.624,1.174,1.217,1.723,1.809.635.7,1.26,1.41,1.884,2.121.441.474.872.937,1.26,1.41.625.743,1.26,1.5,1.852,2.24a2.686,2.686,0,0,1,.269.431A1.8,1.8,0,0,1,452.166,493.135Z" fill="#00008b"/><path d="M358.587,744.727a14.266,14.266,0,0,1,8.819-4.341,16.538,16.538,0,0,1,10.71,3.1c.843.592,2.187.269,3.067-.083.346-.138,2.128-1.081,1.312-1.653-8.675-6.09-20.9-4.361-28.223,3.065-.785.795.672,1.132,1.2,1.125a4.551,4.551,0,0,0,3.112-1.213Z" fill="#00008b"/><path d="M356.242,734.263a21.925,21.925,0,0,1,22.074-2.61c2.005.871,5.434-2.013,2.694-3.2a28.158,28.158,0,0,0-27.892,3.62c-.809.625-1.167,1.768-.24,2.464a3.033,3.033,0,0,0,3.364-.272Z" fill="#00008b"/><path d="M304.939,726.876c2.246-3.063,5.647-5.68,9.466-6.308a17.219,17.219,0,0,1,12.559,3.322c.751.54,2.262.044,3.026-.238.289-.107,2.081-.879,1.385-1.38-9.645-6.937-24.151-4.021-31.065,5.408-.522.712,1.715.532,1.889.5a4.287,4.287,0,0,0,2.74-1.307Z" fill="#00008b"/><path d="M303.973,715.8c9.384-2.932,20.1-6.193,29.193-.634,1.415.865,5.7-1.158,3.7-2.38-10.325-6.313-22.893-2.894-33.581.446-.757.237-2.253.864-2,1.912.241,1,2.007.869,2.688.656Z" fill="#00008b"/><path d="M879.231,643.684c-2.025-21.1-8.194-43.274-21.018-62.774-1.551-2.39-3.521-5.168-5.589-8.108-11.079-15.731-27.822-39.515-20.9-53.675a18.78,18.78,0,0,1,.926-1.733,33.169,33.169,0,0,0,2.541-5.233c5.653-14.967.593-29.922-5.1-42.66-7.365-16.41-17.465-38.914-35.694-57.659-6.18-6.353-23.9-22.988-56.066-41.7-.812-.473-1.518-.878-1.625-.937a55.113,55.113,0,0,0-15.788-5.592,74.362,74.362,0,0,0-9.939-1.446,35.2,35.2,0,0,0,4.386,7.634c2.355.351,4.6.664,6.622.9a110.631,110.631,0,0,1,11.391,4.264l.281.15c1.518.883,2.982,1.755,4.425,2.617,29.492,17.561,45.729,32.819,51.511,38.751,17.421,17.928,27.241,39.786,34.4,55.807,5.147,11.435,9.723,24.819,4.953,37.5a26.291,26.291,0,0,1-2.088,4.3c-.388.679-.765,1.335-1.131,2.111-8.636,17.7,9.464,43.413,21.448,60.458,2.035,2.9,3.941,5.631,5.448,7.936,12.06,18.336,17.928,39.15,19.92,59.026,2.584,25.659-1.335,49.734-6.9,64.83-.55,1.486-1.163,3.047-1.863,4.619-.216.506-.463,1.012-.7,1.54-.722,1.529-1.508,3.09-2.434,4.684-.237.484-.527.969-.829,1.464-.269.463-.528.9-.807,1.335-.442.711-.883,1.432-1.368,2.132a86.074,86.074,0,0,1-7.86,10.014c-.29.323-.592.657-.9.979-.237.27-.453.507-.7.754-.388.431-.808.851-1.249,1.292-1.68,1.745-3.542,3.522-5.556,5.32-1.518,1.356-3.112,2.713-4.8,4.1-13.083,10.713-31.861,22.407-59.307,35-2.412,1.12-4.845,2.2-7.257,3.242-1.885.839-3.79,1.668-5.7,2.454-.064.022-.129.065-.194.087-1.141.484-2.3.969-3.445,1.432q-6.17,2.552-12.307,4.856c-1.841.71-3.7,1.41-5.546,2.067-.635.237-1.248.452-1.884.679-2.218.807-4.447,1.572-6.665,2.336-2.476.861-4.942,1.669-7.4,2.455-2.39.775-4.759,1.518-7.149,2.239q-2.617.825-5.255,1.572c-.484.162-.969.291-1.443.42-1.141.334-2.261.657-3.4.969q-5.022,1.439-10.034,2.714c-1.142.279-2.272.592-3.413.85q-9.4,2.375-18.693,4.275c-1.927.42-3.854.786-5.782,1.163-1.8.377-3.6.7-5.394,1.023-1.131.226-2.251.419-3.37.624-4.113.743-8.194,1.4-12.264,2.014-1.368.215-2.7.409-4.059.614-1.4.194-2.735.387-4.07.57-3.726.517-7.409.98-11.091,1.4q-1.874.21-3.714.42c-.259.032-.518.054-.776.086a4.274,4.274,0,0,1-.517.043h-.032c-.021,0-.043.011-.065.011-.28.043-.591.075-.872.1-1.583.172-3.112.3-4.673.462a3.488,3.488,0,0,1-.506.043,2.9,2.9,0,0,1-.571.065,2.171,2.171,0,0,1-.376.033.183.183,0,0,1-.076-.011c-.032.011-.064.011-.107.021a1.3,1.3,0,0,1-.205.022l-1.486.129c-.678.086-1.357.129-2.035.194-6.493.571-12.889,1.034-19.241,1.368-1.69.107-3.37.172-5.061.258-46.557,2.2-89.369-.872-126.106-3.532-1.12-.064-113.3-7.138-230.992-53.191a184.726,184.726,0,0,1-40.9-22.9c-.829-.636-1.648-1.282-2.455-1.949-.689-.56-1.378-1.131-2.057-1.7-.29-.248-.549-.464-.818-.7a2.542,2.542,0,0,1-.323-.269,4.528,4.528,0,0,1-.355-.3l-.625-.528c-.15-.14-.3-.28-.441-.42-.506-.43-1-.872-1.5-1.313q-2.213-1.988-4.361-4.092a133.267,133.267,0,0,1-29.308-52.1C134.239,624.4,163.29,572.264,182.111,546.315c.883-1.217,1.777-2.412,2.681-3.6s1.831-2.37,2.768-3.532q2.809-3.489,5.782-6.827,1.42-1.6,2.874-3.165c.108-.108.2-.215.313-.323.958-1.034,1.938-2.046,2.928-3.058,1.045-1.066,2.1-2.121,3.176-3.155q1.536-1.485,3.1-2.939c.086-.076.183-.162.269-.248q1.6-1.47,3.241-2.907c1.12-.991,2.261-1.971,3.424-2.929s2.315-1.917,3.5-2.854,2.38-1.862,3.586-2.778,2.433-1.808,3.661-2.691c2.358-1.691,4.748-3.327,7.2-4.921q2.1-1.373,4.253-2.692c-.043.086-.064.151-.107.248l6.115,2.692c1.422-3.241,2.951-6.514,4.533-9.712.216-.453.485-.937.743-1.486,2.186-4.361,5.8-11.091,10.735-19.037.614-.99,1.25-1.991,1.928-3.047a5.889,5.889,0,0,1,.376-.592c.614-.948,1.249-1.906,1.885-2.9.193-.28.388-.592.592-.893.592-.894,1.185-1.8,1.82-2.692,1.615-2.369,3.326-4.8,5.147-7.257a1.208,1.208,0,0,1,.15-.194c.915-1.249,1.884-2.52,2.843-3.79.054-.043.1-.086.1-.13.937-1.227,1.928-2.476,2.929-3.725.108-.14.227-.291.334-.42.915-1.141,1.863-2.3,2.821-3.445,1.379-1.637,2.789-3.285,4.231-4.9q6.833-7.687,13.848-14.309,5.556-5.3,11.176-9.928c1.228-1.044,2.455-2.056,3.7-3.025.7-.56,1.421-1.11,2.121-1.68,4.7-3.682,9.421-7.074,14.084-10.229,1.884-1.3,3.746-2.5,5.609-3.682.948-.614,1.885-1.207,2.811-1.755,1.659-1.034,3.305-2.036,4.974-3.026q4.426-2.6,8.808-5c.915-.528,1.82-1,2.713-1.486q4.346-2.31,8.571-4.447c1.292-.657,2.584-1.314,3.855-1.927.614-.313,1.206-.593,1.776-.884,1.422-.721,2.843-1.4,4.243-2.056.312-.151.635-.3.947-.463,1.379-.657,2.757-1.314,4.113-1.949,1.562-.743,3.069-1.442,4.587-2.142.937-.442,1.874-.883,2.8-1.314,3.628-1.734,7.128-4.048,10.983-5.179,3.908-1.163,7.332-3.262,11.165-4.6,2.455-.85,4.878-1.722,7.4-2.422,14.45-4.006,29.212-7.441,44.114-10.057a182.88,182.88,0,0,1,18.383-3.432,10.062,10.062,0,0,1-.562-2.785,7.781,7.781,0,0,1,.5-2.992l-.147.014a416.575,416.575,0,0,0-41.906,6.9c-2.218.5-4.318.979-7.225,1.722A218.6,218.6,0,0,0,384.6,358.845c-1.648.786-3.2,1.55-4.641,2.207-30.375,14.17-68.147,31.839-102.892,70.924a265.1,265.1,0,0,0-37.181,55.054c0,.011-.01.021-.01.032A191.071,191.071,0,0,0,176.706,542.4c-33.723,46.514-45.159,96.755-32.237,141.428a138.579,138.579,0,0,0,27.769,51.242l-.248.226c1.055,1.087,2.132,2.186,3.262,3.263,1.1,1.066,2.175,2.1,3.3,3.155,3.37,3.132,6.879,6.1,10.487,8.936a188.633,188.633,0,0,0,42.573,23.839c118.721,46.451,231.907,53.568,232.984,53.632,28.178,2.013,59.877,4.318,94.1,4.318,66.649,0,142.893-8.657,221.354-44.674,33.831-15.537,54.967-29.868,68.556-42.768,13.652-12.953,19.693-24.452,23.311-34.218C877.67,695.13,881.75,670.258,879.231,643.684Z" fill="#00008b"/><path d="M478.288,420.3c-.236-.393-.394-.787-.589-1.18a5.511,5.511,0,0,1-.355-.863C477.658,418.962,477.973,419.631,478.288,420.3Z" fill="#ffb4e7"/><path d="M479.072,421.909h-.038c0-.079-.039-.117-.079-.2A.916.916,0,0,0,479.072,421.909Z" fill="#ffb4e7"/><path d="M488.62,339.362a3.057,3.057,0,0,0-.236.51c-.472,1.023-.942,2.082-1.373,3.1.431-1.061.9-2.081,1.335-3.1a1.236,1.236,0,0,0,.236-.51Z" fill="#ffb4e7"/><path d="M681.1,354.8c-.079-.944-.2-1.927-.355-2.909.079.432.119.9.2,1.414C680.982,353.821,681.061,354.291,681.1,354.8Z" fill="#ffb4e7"/><path d="M511.8,453.888c-.312-.075-.668-.194-1.013-.312-.236-.075-.473-.194-.753-.269-.43-.162-.9-.356-1.335-.517l-.7-.312c-.323-.119-.711-.28-1.066-.431-.075-.043-.194-.086-.313-.161a9.809,9.809,0,0,1-.979-.432,2.829,2.829,0,0,1-.474-.236c-.431-.205-.861-.409-1.281-.625-.894-.441-1.755-.915-2.606-1.421a.959.959,0,0,1-.441-.226,62.019,62.019,0,0,1-23.376-23.538,3.929,3.929,0,0,1-.312-.592c-.668-1.184-1.26-2.39-1.842-3.617-.237-.507-.473-1.023-.667-1.53-.668-1.5-1.26-2.982-1.777-4.522-.075-.226-.151-.388-.226-.581-.323-.948-.592-1.971-.9-2.951l-.161-.624c-.431-1.5-.786-3.069-1.1-4.6-4.641-23.064,5.222-45.191,13.944-64.669.161-.355.312-.711.43-1.023v-.043h.043c.313-.786.668-1.529.98-2.283.592-.15,1.141-.355,1.734-.549a13.889,13.889,0,0,1,1.809-.474c-.2.668-.518,1.3-.787,1.971v.043a.457.457,0,0,0-.075.118.042.042,0,0,0-.01.032c-.033.065-.055.13-.076.183s-.054.119-.075.173c-.474,1.023-.948,2.078-1.379,3.1-8.484,19.015-18.11,40.55-13.706,62.515.43,2.153.979,4.242,1.6,6.288a4.387,4.387,0,0,0,.237.667c.312.98.624,1.96,1.023,2.94a1.829,1.829,0,0,0,.237.592c.312.786.624,1.529.937,2.283.322.7.635,1.368.947,2.035.237.517.431.948.668,1.421a.566.566,0,0,1,.053.108.642.642,0,0,0,.065.086c.043.075.075.161.118.237.786,1.486,1.615,2.95,2.509,4.361.237.355.474.71.711,1.055,0,.043,0,.043.043.043v.043c.581.862,1.174,1.723,1.809,2.552.43.592.861,1.141,1.335,1.69.075.119.194.237.269.356.194.236.4.463.592.7.4.474.786.905,1.217,1.336a14.238,14.238,0,0,0,1.216,1.346,58.453,58.453,0,0,0,8.1,7.063c1.927,1.3,3.811,2.444,5.577,3.467.076.033.162.076.237.108a.479.479,0,0,1,.194.161c.312.162.624.312.948.474.624.355,1.216.668,1.808.937.463.237.937.473,1.368.711.312.161.635.312.905.43l.075.043c.279.119.56.237.872.356.237.118.474.193.743.312.043.032.075.075.118.075a2.8,2.8,0,0,1,.506.194c.043.086.043.162.086.237.194.667.431,1.335.668,2a11.166,11.166,0,0,0,.431,1.066c.042,0,.042.043.042.075C511.645,453.533,511.72,453.737,511.8,453.888Z" fill="#00008b"/><path d="M675.3,416.87a1.97,1.97,0,0,1-.236.667c-.119.237-.237.507-.356.786a.276.276,0,0,0-.053.065c-.011.022-.022.033-.022.054a.633.633,0,0,0-.119.118c0,.033-.043.076-.043.076a1.31,1.31,0,0,1-.355.28.254.254,0,0,1-.075-.011s0,.043.032.043c-.194.668-.388,1.335-.549,2-.075.237-.118.474-.194.743-2.175,8.011-4.511,16.3-8.1,23.881-.355.743-.753,1.486-1.152,2.23a44.211,44.211,0,0,1-3.542,5.7c-.431.624-.9,1.216-1.335,1.808a40.414,40.414,0,0,1-4.566,4.975,8.18,8.18,0,0,1-.872.861c-1.066.98-2.164,1.884-3.349,2.789-.075.075-.194.15-.269.237a7.381,7.381,0,0,0-.786.549v.032h-.043a52.9,52.9,0,0,1-9.874,5.448c-.473.194-.98.388-1.41.582-.4.118-.829.312-1.217.431a12.751,12.751,0,0,1-1.227.43c-.151.043-.345.119-.549.194a55.5,55.5,0,0,1-7.6,1.884,58.465,58.465,0,0,1-11.4.862,60.853,60.853,0,0,1-15.645-2.369c1.378-.592,2.714-1.26,4.049-1.96.118.043.237.043.355.076.269.086.549.118.786.2a1.071,1.071,0,0,0,.269.032c.324.044.635.119.905.162.355.076.667.076.991.162a8.347,8.347,0,0,0,1.012.193,7.93,7.93,0,0,1,.99.119c.582.086,1.13.129,1.723.161a5.731,5.731,0,0,0,.829.087c.356.043.7.075,1.055.118.829.043,1.658.043,2.477.043a8.134,8.134,0,0,0,1.023.043c.667,0,1.378,0,2-.043l1.185.011c.269-.043.549-.043.861-.086.786-.033,1.572-.108,2.358-.184.194-.042.431-.042.668-.085.667-.076,1.378-.151,2.078-.3.28-.043.549-.086.786-.118a45.594,45.594,0,0,0,5.071-1.131,4.6,4.6,0,0,1,.829-.194c.076-.086.162-.086.237-.119a6.418,6.418,0,0,0,.829-.236c.312-.118.668-.194,1.013-.356h.043c.473-.15.947-.312,1.41-.5a.37.37,0,0,1,.162-.033c.473-.2.9-.355,1.3-.517.581-.237,1.1-.463,1.6-.656a1.676,1.676,0,0,1,.473-.205c.948-.43,1.853-.894,2.789-1.4.237-.086.441-.237.635-.323a.326.326,0,0,1,.162-.075h.032c.313-.194.636-.431.98-.625a4.314,4.314,0,0,0,.829-.506.3.3,0,0,1,.161-.086c.194-.118.356-.226.507-.312.947-.625,1.851-1.217,2.713-1.874a4.059,4.059,0,0,0,.441-.355,2.682,2.682,0,0,0,.388-.28,45.053,45.053,0,0,0,9.8-10.509,2.743,2.743,0,0,0,.322-.549,45.641,45.641,0,0,0,3.306-5.771c3.478-7.344,5.685-15.387,7.86-23.247,0-.032.043-.118.043-.151.28-.99.517-1.97.786-2.95h.043c0-.032-.043-.075-.075-.151a1.132,1.132,0,0,1-.032-.387.859.859,0,0,1-.011-.162v-.237c0-.086.043-.161.043-.279a.042.042,0,0,1,.043-.043,1.18,1.18,0,0,1,.42-.69l.011-.011v-.043c.118-.118.237-.15.355-.269a1.113,1.113,0,0,1,.43-.431,3.911,3.911,0,0,1,.4-.161,1.843,1.843,0,0,1,.9,0c.151.043.269.118.431.161.194.076.313.281.463.431a3.062,3.062,0,0,1,.269.5.357.357,0,0,1,.043.1A3.489,3.489,0,0,1,675.3,416.87Z" fill="#00008b"/><path d="M706.76,388.121a26.5,26.5,0,0,0-6.956,4.63,46.2,46.2,0,0,1-12.651,8.733,9.875,9.875,0,0,0-5.977,8.84,25.734,25.734,0,0,1-1.722,6.944,2.975,2.975,0,0,1-1.852,1.852,1.738,1.738,0,0,1-.506-.161c-.087,0-.119-.033-.162-.033a17.612,17.612,0,0,0-2.282-.538c-.022,0-.054-.011-.076-.011a.664.664,0,0,0-.312-.086,11.5,11.5,0,0,1-1.637-1.475l-.01-.01a8.962,8.962,0,0,1-.668-.873c-.011-.021-.032-.054-.043-.075v-.043c-.043-.076-.075-.108-.118-.108,0-.043-.044-.086-.044-.118a7.093,7.093,0,0,1-.269-.754c-.711-3.263-1.615-6.794-1.023-9.938.431-2.595.948-5.147,1.454-7.7a4.774,4.774,0,0,1,.237-1.066,16.756,16.756,0,0,1,.506-2.433c.2-1.1.441-2.2.711-3.263a1.722,1.722,0,0,0,.075-.431c.355-1.5.711-2.982,1.066-4.436.549-2.121,1.1-4.242,1.723-6.363.2-.679.355-1.378.592-2.046.43-1.69.786-3.338,1.066-5,.032,0,.032-.032,0-.075a27.488,27.488,0,0,0,.506-3.069c.161-.861.236-1.723.312-2.552a23.992,23.992,0,0,0,.2-2.864c.032-.9.075-1.766.075-2.67v-.668h.032c0-.4-.032-.753-.032-1.066a72.448,72.448,0,0,0-.667-7.742,42.794,42.794,0,0,0-.9-4.36,7.157,7.157,0,0,0-.237-1.012,48.114,48.114,0,0,0-1.647-5.47c-.119-.388-.28-.786-.4-1.217a68.551,68.551,0,0,1-1.6-9,8.9,8.9,0,0,1,.431-2.789,1.993,1.993,0,0,0,.118-.431c.032.161.076.355.119.517,1.141,4.792,1.766,9.551,3.607,13.825.28.636.517,1.26.753,1.928.237.592.431,1.216.625,1.841.161.441.28.829.4,1.227.151.582.345,1.1.431,1.648.312,1.292.549,2.509.743,3.736.043.215.064.441.1.678s.054.474.1.732c.021.259.053.5.086.743s.054.5.075.754c.043.506.075.98.118,1.486,0,.861.033,1.691.033,2.552,0,.9-.033,1.808-.033,2.713a.708.708,0,0,1-.043.28,9.356,9.356,0,0,1-.075,1.055,1.58,1.58,0,0,1-.043.431,21.643,21.643,0,0,1-.237,2.358c-.118.872-.193,1.734-.387,2.638v.033a3.2,3.2,0,0,1-.076.592v.075c-.119.635-.237,1.3-.4,1.927a6.546,6.546,0,0,1-.237,1.185c-.151.98-.388,1.927-.624,2.939-.431,1.658-.786,3.349-1.142,5-.237.98-.473,2-.624,2.983-.474,1.852-.829,3.736-1.185,5.621-.355,1.572-.624,3.144-.9,4.716-.743,4.048-1.486,8.1-2.2,12.177a20.679,20.679,0,0,0,.549,8.173c.173.829,1.626,1.841,2.768,2.121a2.488,2.488,0,0,0,.452.075,1.1,1.1,0,0,0,.754-.334,3.976,3.976,0,0,0,.667-.807,5.128,5.128,0,0,0,.862-1.529c.549-1.766.236-3.769.786-5.535,2.314-7.073,4.2-14.266,4.554-21.8.118-1.734,1.184-3.425,1.809-5.147l.743.237c-.7,6.126-1.41,12.21-2.2,19.09,4.124-2.519,7.892-4.641,11.467-7.031,2.993-1.97,5.663-4.4,8.721-6.374,6.719-4.35,9.551-11.392,7.591-18.38a14.8,14.8,0,0,0-.872-2.476,16.243,16.243,0,0,0-1.131-2.2c-1.335-2.207-2.713-4.36-4.167-6.45-.667-1.055-1.378-2.121-2.121-3.176s-1.453-2.121-2.164-3.187c-.237-.355-.506-.711-.743-1.1-.28-.4-.549-.786-.829-1.185-1.96-2.746-4.006-5.491-5.89-8.323-.549-.786-1.066-1.615-1.572-2.433-.4-.593-.743-1.217-1.141-1.852-.313-.506-.592-1.023-.861-1.529s-.549-1.066-.786-1.572a34.519,34.519,0,0,1-2-5.233c-.668-2.39-2.907-3.414-5.352-3.8-4.985-.711-8.6-3.23-11.661-7.16a26.959,26.959,0,0,0-7.623-6.988c-.592-.356-1.185-.711-1.809-1.023-.118-.119-.312-.151-.43-.237-1.852-1.055-3.78-2-5.664-2.864h-.032l-1.11-.592c-1.055-.507-2.12-1.066-3.251-1.615-11.435-5.815-14.149-7.387-17.368-9.3-2.046-1.3-3.693-2.358-5.114-3.348a49.785,49.785,0,0,0-9.971-5.416c-.754-.28-1.453-.549-2.164-.786-.743-.237-1.411-.431-2.078-.635a41.972,41.972,0,0,0-6.45-1.25c-1.615-.193-3.219-.354-4.835-.43-1.647-.043-3.219-.086-4.909-.118a88.23,88.23,0,0,1-31.387-5.266c-.28-.086-1.142-.474-2.4-.861a9.682,9.682,0,0,0-1.411-.355,18.257,18.257,0,0,0-2.907-.517c-3.187-.549-6.719-.194-10.024-.237-2.864-.032-5.653-.194-7.623-2.509-2.628-2.993-5.61-2.832-9.077-1.734-3.3.98-6.719,1.572-10.132,2.24-3.413.786-6.956,1.023-10.251,2.046a90.74,90.74,0,0,1-22.633,4.4,23.007,23.007,0,0,0-9.669,2.7c-7.623,4.566-9.7,12.62-6.525,21.535.119.312.237.668.356.98,2.788,7.5,6.094,14.859,7.5,23.257,2.983-4.393,5.933-8.84,8.883-13.233a4.776,4.776,0,0,1,.937.355c-.43,1.648-.668,3.338-1.249,4.911-2,5.06-5.976,8.527-9.863,12.177-.473.431-.947.9-1.453,1.379-.237.236-.474.462-.668.7a7.5,7.5,0,0,0-1.217,1.691,2.221,2.221,0,0,0-.2.431.155.155,0,0,0-.033.086,1.519,1.519,0,0,0-.236.549,6.846,6.846,0,0,0-.55,2.315,55.889,55.889,0,0,0,7.537-.861c.786-.2,1.572-.431,2.326-.711a16.018,16.018,0,0,0,2.272-.9c.668-.27,1.336-.625,1.971-.937h.032c.043-.043.086-.087.119-.087.635-.355,1.259-.7,1.851-1.1,0-.043.033-.043.076-.075.4-.237.71-.474,1.066-.711s.7-.506,1.055-.786a15.39,15.39,0,0,0,1.378-1.1,15.839,15.839,0,0,0,1.249-1.185l.043-.032a26.622,26.622,0,0,0,2.358-2.433c3.974-4.76,7.785-9.713,11.478-14.655,1.605-2.132,3.177-4.21,4.792-6.288.032,0,.075-.086.118-.161,5.933-7.7,12.447-14.816,21.492-19.3,3.456-1.723,6.751-3.65,9.034-6.795a5.767,5.767,0,0,0,.43-.624c.162-.28.635-.4.98-.549a11.4,11.4,0,0,1,.043,1.216,3.537,3.537,0,0,1-.786,2.628c-2.52,2.358-4.985,5.115-8.1,6.482a41.366,41.366,0,0,0-10.519,6.482c-.475.323-.873.71-1.26,1.023-.086.086-.205.161-.237.237a50.612,50.612,0,0,0-4.716,4.791,82.643,82.643,0,0,0-5.309,6.643c-.473.668-.937,1.336-1.41,1.971-1.066,1.443-2.122,2.907-3.187,4.318-3.92,5.189-8.054,10.218-12.415,15.041-.431.442-.818.9-1.249,1.336-.474.441-.9.915-1.335,1.3-.872.786-1.734,1.528-2.681,2.239h-.032c-.55.431-1.066.829-1.615,1.217a26.873,26.873,0,0,1-2.4,1.41,18.462,18.462,0,0,1-2.466,1.185v.043h-.043a19.767,19.767,0,0,1-3.693,1.292h-.043a14.616,14.616,0,0,1-2.272.549,6.506,6.506,0,0,0-2.088.312,7.133,7.133,0,0,1-1.605.28c-2,.194-4.091.118-4.792-1.658-.473-1.012.033-2.39.7-3.844h.043c.312-.786.7-1.572,1.055-2.358.086-.237.2-.474.28-.711a29.633,29.633,0,0,1,1.174-2.831,12.989,12.989,0,0,0,1.108-4.006,25.937,25.937,0,0,0-1.421-8.129c-1.26-4.124-2.746-8.216-4.167-12.339-.549-1.573-1.055-3.177-1.561-4.792a15.439,15.439,0,0,1,.194-10.961c3.574-8.56,9.938-13.2,19.682-13.631a75.645,75.645,0,0,0,12.34-1.379c10.562-2.315,21.05-4.953,31.548-7.548,2.821-.7,5.459-.506,7.419,1.659,3.025,3.219,6.643,3.294,10.648,3.262.83,0,1.659,0,2.477.032l1.292.119c.56.075,1.228.161,1.927.312.991.161,1.885.323,2.789.517.636.118,1.3.269,2.046.387,0,0,2.24.474,4.124.9,8.883,2.046,10.843,3.424,17.647,4.361a108.037,108.037,0,0,0,13.04.786c6.643.118,12.888.2,21.179,3.424A49.643,49.643,0,0,1,630.064,289c1.453.894,3.026,2,5.072,3.22a190.822,190.822,0,0,0,17.163,9.27c1.1.507,2.282,1.056,3.66,1.648,1.68.743,3.651,1.615,5.729,2.476a6.64,6.64,0,0,0,.785.313,39.208,39.208,0,0,1,7.387,4.791,34.611,34.611,0,0,1,6.256,6.611c1.13,1.561,3.8,2.584,5.922,2.94,4.372.753,7,1.97,8.689,4.522a14.967,14.967,0,0,1,1.766,4.673,33.2,33.2,0,0,0,1.971,5.889,32.084,32.084,0,0,0,3.488,6.052c1.658,2.282,3.23,4.565,4.835,6.837h.043c.506.711,1.022,1.454,1.529,2.208,2.239,3.133,4.554,6.244,6.88,9.345.345.507.786,1.023,1.141,1.529a10.83,10.83,0,0,1,1.012,1.54v.032a17.969,17.969,0,0,1,2.552,8.41C716.418,377.946,713.478,384.9,706.76,388.121Z" fill="#00008b"/></svg>