<?xml version="1.0" encoding="utf-8"?>
<!-- Generator: Adobe Illustrator 24.3.0, SVG Export Plug-In . SVG Version: 6.00 Build 0)  -->
<svg version="1.1" id="Layer_1" xmlns="http://www.w3.org/2000/svg" xmlns:xlink="http://www.w3.org/1999/xlink" x="0px" y="0px"
	 viewBox="0 0 1080 1080" style="enable-background:new 0 0 1080 1080;" xml:space="preserve">
<style type="text/css">
	.st0{fill:#00008B;}
	.st1{fill:#00008B;stroke:#00008B;stroke-width:21.1213;stroke-miterlimit:10;}
</style>
<g>
	<g>
		<path class="st0" d="M348.5,616.2c8.1-14.9,4.3-33.8-10.7-42.8c-14-8.4-34.8-4.2-42.8,10.7c-8.1,14.9-4.3,33.8,10.7,42.8
			C319.6,635.3,340.4,631.1,348.5,616.2z"/>
		<circle class="st0" cx="266" cy="428.8" r="22.1"/>
		<path class="st0" d="M275,517.4c9.3-17.2,5-39.1-12.3-49.5c-16.2-9.7-40.2-4.8-49.5,12.3c-9.3,17.2-5,39.1,12.3,49.5
			C241.6,539.5,265.7,534.6,275,517.4z"/>
		<path class="st0" d="M327.4,497.4c-11.8-7.1-22.8,11.2-11,18.3C328.1,522.7,339.2,504.5,327.4,497.4z"/>
		<path class="st0" d="M231.6,375.8c-11.8-7.1-22.8,11.2-11,18.3C232.4,401.2,243.4,382.9,231.6,375.8z"/>
		<g>
			<path class="st0" d="M874.5,722.7c-41.9-84.2-68.2-277.7-180.3-285.6c-5.9-25.6-35.9-68-65.2-53.5c-2-6.5-4.2-12.9-6.2-19.3
				c25-4.1,22.2-27.7,3.6-22.8c0.9-7.1-5.4-15.2-14.1-11.9c-27.5,10.3-55,20.7-82.5,31c-8.1,3-8.2,12.1-4,17.2
				c2.1,3.7,3.4,16.4,10.3,13.6c7.2-3.9,24.3-4,16.6-16.5c4.9-1.8,9.7-3.7,14.6-5.5c-0.6,18,19.1,9.5,29,5c2.5,6.8,4,14,7,20.5
				c-25.5,15.8-34.3,58.9-24.7,85.9c-7.3,6-12.1,14.3-16.9,22.3c-0.1,0.1-0.1,0.2-0.2,0.3c0,0,0,0,0,0c-13.3,77,18.3,162.4,48.1,235
				c23.1,38.7,40.6,129.8,94.9,126.7c49.4-6.1,95.4-30.5,139.8-51.8C892.4,793.6,896.1,767,874.5,722.7z M588.6,470.7
				c-1.7-26.9,4.1-65.2,36.3-69.4c5.8-1.2,9.9-7.1,15.1-8.5c20.4,7.1,36.1,25.6,41.1,46.4c-4.3,1.1-8.5,2.5-12.6,4.1
				c1.5-7.2-37.7-47.9-33.2-30.6c13.1,6.9,23.6,18.5,29.1,32.2c-7.9,3.1-15.5,6.7-23.3,10.3c0.7-5.4-15.3-50.1-18.8-35.4
				c7.7,11.1,12.7,24,14.6,37.3c-7.3,3.4-14.6,6.7-22.1,9.5c-6.9-13.1-7.4-29.4-1.3-42.8c-7.3-16.1-12.3,36.9-2.9,44.3
				c-6.9,2.6-13.8,3.4-20.7,5.9C589.3,473.1,589,471.8,588.6,470.7z M571.9,541.8c-2-20.8,0-42.4,19.8-54
				c40.8-6.9,76.8-43.2,119.3-35.6c0,0,1.9,0.6,2,0.6c27.5,9.8,47,33.9,61.8,58.1c-33.9,30.2-74.3,51.2-118.2,61.5
				c-26.6,6.1-56.4,6.9-78.5,24.7C574.7,578.8,572.6,560.4,571.9,541.8z M590.7,649.2c-3.2-10.5-6.9-24.7-8.9-33.6
				c10.3-25,51.7-22.7,75.4-29.8c45.8-10.3,89-32,124.2-63.1c17.2,33.5,28.9,69.4,42.5,104.4c-58.1,52.5-141.2,55.9-207.4,93.6
				C606.8,697.3,598,673.5,590.7,649.2z M871.9,754c1.5,4.5,2.7,9.2,2.7,14c0,0.1-0.1,2.1-0.1,2.1c-0.3,2.6-1,5.1-2.2,7.3
				c0,0.1-0.9,1.6-1,1.6c-32.3,29.1-130.9,72-174.5,72.3c-33.8-2.8-58.1-89.5-74.9-118.4c66-37.4,148.4-41.8,207.2-92.6
				C843.2,678.3,858,716,871.9,754z"/>
			<path class="st0" d="M781.5,522.7c-35.2,31.1-78.4,52.7-124.2,63.1c-23.7,7.1-65.2,4.8-75.4,29.8c2,8.9,5.7,23.1,8.9,33.6
				c7.3,24.3,16.1,48.1,25.9,71.5c66.2-37.8,149.3-41.2,207.4-93.6C810.4,592.1,798.7,556.2,781.5,522.7z M706.4,584.1
				c11.4,3.2,16,19.4,5.2,26.1C697.2,615.7,691.8,582.4,706.4,584.1z M678.2,607.1c-4.7-24.6,19.4-19.5,19.9,1.2
				C696.9,620.4,680.8,617.3,678.2,607.1z M667.6,625.6c-5.2-20.3,17.5-12.7,21.5-0.5C693.8,640.9,668.8,639.1,667.6,625.6z
				 M731,648.2c-17.5-5.4-38.4,20.3-45.4,7.4c-7.8-12,3.6-16.4,7.1-26.1c1.3-4.8,1.6-10.5,6.4-13.4c9.5-5.9,15.8,6.4,23.9,9.3
				C734.9,623.5,744.6,644.5,731,648.2z M736.5,606.3c1.4,6.8-2.4,15.5-9.6,16.2C703.7,621.9,727.1,575.3,736.5,606.3z"/>
			<path class="st0" d="M561.7,503c0.2-0.4,0.3-0.8-0.2,0.4C561.6,503.2,561.7,503.1,561.7,503z"/>
			<path class="st0" d="M786.2,792.6c-25.3,11.8-51.5,24.2-80,24.2c-8.8,2.4-24.7-8.9-28.6,2.7C675.3,851.9,834.4,802.9,786.2,792.6
				z"/>
			<path class="st0" d="M808.5,782.5c-8.1,3-3.4,15.5,4.7,12.5C821.3,792.1,816.6,779.5,808.5,782.5z"/>
		</g>
		<path class="st0" d="M433.9,378c0.1-0.4-1.8-1.5-5.3-0.6c-1.7,0.5-3.7,1.5-5.5,3.4c-1.8,1.8-3.4,4.7-3.7,8
			c-0.9,6.7,2.9,14.7,9.9,19.3c3.4,2.4,7.3,4.1,11.3,5.4c4.1,1.3,8.5,2.2,13.2,2.2c9.6,0.1,18.2-4.1,24.2-9
			c6.2-4.9,10.3-10.6,13.4-15.4c5.9-9.8,8.1-16.3,7.3-16.8c-1-0.6-5,5.2-11.7,13.7c-3.4,4.2-7.6,9-13.2,12.9c-5.5,4-12.4,7-19.9,7
			c-7.4-0.1-15.3-2.5-20.7-5.8c-5.5-3.3-8.4-8.6-8.4-13.1c-0.1-4.4,2.8-7.7,5-9.1C432,378.6,433.8,378.6,433.9,378z"/>
		<path class="st0" d="M490.8,471.2c-0.6,0.1-0.5,1.9-2.1,4.2c-1.6,2.2-5.2,4.7-9.5,3.2c-2.1-0.7-4.3-2.2-5.9-4.4
			c-1.6-2.1-2.7-5.1-3.2-8.4c-1-6.7-0.3-14.8,2.2-22.5c4.9-15.8,15.8-27.2,24.3-34.2c8.6-7.1,14.8-10.6,14.3-11.6
			c-0.4-0.9-7.5,0.9-17.5,7.3c-5,3.2-10.6,7.7-15.8,13.7c-5.2,6-9.9,13.7-12.6,22.6c-2.8,8.9-3.4,17.9-1.8,26.1
			c0.9,4.1,2.6,8.1,5.3,11.1c2.7,3,6.1,4.9,9.6,5.6c3.4,0.7,6.9-0.2,9.2-1.8c2.3-1.6,3.6-3.6,4.2-5.4
			C492.6,473,491.2,471,490.8,471.2z"/>
		<path class="st0" d="M416.4,484.7c-0.6-0.1-1.1,2.7-3.6,6.6c-2.4,3.8-7.7,8.8-15.6,9c-3.9,0.1-8.1-1-11.5-3.7
			c-3.5-2.7-6.2-7-7.6-11.9c-3.1-10.1,0.8-22,8-32.6c3.4-5.1,9.2-12.3,12.9-17.2c-4.3,1.4-9.4,3.1-13.1,4.2
			c-1.9,0.6-3.4,0.7-4.9,0.8c-0.9,0.1-1.1,0-1.4,0l-0.9-0.1c-2.4-0.2-4.6-1-6.2-2.3c-3.5-2.6-5.2-7-3.8-10.4
			c1.3-3.6,4.9-6.8,8.4-9.5c3.5-2.6,7-4.7,10.4-6.3c3.4-1.6,6.4-2.6,9-2.6c2.6-0.1,4.6,0.9,6,2.2c2.8,2.6,2.2,5.2,2.7,5.3
			c0.2,0.1,0.7-0.4,0.9-1.7c0.2-1.3,0-3.3-1.5-5.4c-1.3-2-4.3-4.1-7.9-4.4c-3.6-0.4-7.5,0.5-11.3,1.9c-3.8,1.4-7.9,3.4-11.9,6.1
			c-3.8,2.7-8.6,5.8-11.2,12c-1.3,3.1-1.4,6.9-0.3,10.2c1.1,3.3,3.2,6.2,6,8.4c2.9,2.2,6.3,3.5,9.8,3.9l1.3,0.1l0.8,0l0,0l0,0l0,0
			l0,0l-0.2,0.4c-3.9,5.8-7.1,12.1-8.8,18.9c-1.8,6.7-1.6,13.9,0.4,20c1.9,6.2,5.7,11.6,10.6,15.1c4.9,3.5,10.8,4.6,15.7,4
			c5-0.5,9.2-2.6,12.1-5.1c2.9-2.6,4.7-5.4,5.7-7.8C417.5,487.7,416.9,484.6,416.4,484.7z"/>
		<path class="st0" d="M416.7,426.9c-0.4,1,0.6,2.4,2.9,3.5c2.2,1.1,5.8,1.7,9.6,1c3.8-0.8,6.8-2.7,8.4-4.6c1.7-1.9,2-3.6,1.3-4.4
			c-1.6-1.5-5.9,0.5-11.2,1.5C422.4,425.1,417.6,424.9,416.7,426.9z"/>
		<path class="st0" d="M415.7,459.5c1,1.8,12.7-3,24.7-12.5c12-9.5,19.4-19.7,17.9-21.1c-1.6-1.5-11.1,6-22.6,15.1
			C424,450.1,414.6,457.7,415.7,459.5z"/>
		<path class="st0" d="M443,474.2c2.1-0.4,2.8-6.3,4.3-13.2c1.4-6.8,3.1-12.6,1.3-13.8c-1.7-1.2-7.1,3.8-8.8,12.2
			C438,467.9,441,474.6,443,474.2z"/>
	</g>
</g>
</svg>
