<svg xmlns="http://www.w3.org/2000/svg" viewBox="0 0 1011.532 1011.532"><path d="M827.027,216.8l-.044.074a.424.424,0,0,0,.132.014Zm0,0-.044.074a.424.424,0,0,0,.132.014Zm115.557,47.673v-.029c-.059-.4-.161-.809-.264-1.221l-.015-.015-.059-.176c-.956-3.089-3.53-5.575-5.663-7.4-6.31-5.4-13.945-9.546-21.329-13.547-7.561-4.1-15.386-8.341-21.74-13.93a14.05,14.05,0,0,1-1.28-1.089c-.6-.573-1.221-1.162-1.853-1.78l-1.31-1.412c-.47-.5-.912-1.044-1.353-1.574-.088-.1-.191-.235-.294-.353l-.838-1.1a14.068,14.068,0,0,1-1.192-1.662,3.6,3.6,0,0,1-.338-.471c-.339-.515-.692-1.1-.986-1.647-.412-.633-.794-1.368-1.162-2.074-.412-.765-.765-1.515-1.088-2.28l-.1-.221a10.962,10.962,0,0,1-.456-1.074c-.236-.47-.456-1.015-.677-1.588-1.6-4.134-2.824-8.517-4.016-12.768a110.621,110.621,0,0,0-5.133-15.5c-6.516-14.518-19.991-26.624-36.995-33.214-11.238-4.383-24.344-6.619-38.965-6.648H795.3c-3.722,0-7.032.117-10.135.338.353.618.691,1.25,1.029,1.883.721,1.235,1.368,2.412,2.03,3.574.383.706.78,1.4,1.162,2.1.25.441.5.882.751,1.309.264.47.514.926.779,1.382l2.471,4.5-3.692-3.574c-.956-.927-1.883-1.853-2.853-2.824l-.089-.088c-.809-.765-1.6-1.545-2.412-2.339l-.088-.1Q771.94,135.764,759.6,123.628c-2.589-2.53-5.516-5.4-9.105-6.192a10.431,10.431,0,0,0-2.251-.221c-4.28,0-8.4,2.368-11.929,4.6A543.322,543.322,0,0,0,677.4,163.932c-2.839,2.339-6.369,5.266-7.634,9.149a11.927,11.927,0,0,0-.515,5.178c.4,4.163,2.633,8.429,4.531,11.665l.382.662c.736,1.221,1.471,2.471,2.251,3.662l.6.971c.75,1.236,1.515,2.471,2.3,3.663.823,1.324,1.676,2.589,2.485,3.78.986,1.5,2.045,3,3.06,4.442.883,1.251,1.78,2.457,2.677,3.648,1.442,1.942,2.942,3.943,4.516,5.87,1.177,1.485,2.339,2.927,3.545,4.383,1.6,1.883,3.515,4.1,5.486,6.237a3.233,3.233,0,0,1,.3.338c1.868,2.045,3.648,3.927,5.383,5.693.236.235.486.5.736.75.235.25.485.515.735.75a216.121,216.121,0,0,0,23.933,20.887,9.959,9.959,0,0,0,3.118,1.839l.1.015a4.939,4.939,0,0,0,.691.1,2.757,2.757,0,0,0,.824-.059c2.78-.588,3.236-4.81,3.266-7.267v-.544c.088-13.15.176-26.374.308-39.554.015-1.338.015-2.647.03-3.971s.015-2.633.029-3.972c.059-7.207.118-15.386,3.53-22.461a17.763,17.763,0,0,1,1.574-2.692c.295-.426.574-.824.883-1.235a18.917,18.917,0,0,1,11.032-7.208,13.665,13.665,0,0,1,5.354,0l1.913.382-1.648,1.03c-.735.456-1.4.912-2.059,1.4a17.973,17.973,0,0,0-1.883,1.486,2.809,2.809,0,0,0-.368.353c-8.178,7.37-12.665,20.593-12.341,36.318.029,2.589.191,5.133.368,7.5a7.972,7.972,0,0,0,.059.9c.176,2.412.4,4.81.617,7.208.9,9.943,1.824,20.21-.073,30.213-.574,2.971-1.589,6.634-4.413,8.664a7.4,7.4,0,0,1-3.207,1.338,7.927,7.927,0,0,1-1.265.133l-.323.323-.368-.323c-4.486-.177-9.12-3.428-11.518-5.384-8.369-6.663-16.577-13.9-24.373-21.476-1.706-1.677-3.383-3.339-5.046-5.045a334.946,334.946,0,0,1-31.213-36.48c-.485.6-.971,1.206-1.441,1.81a140.429,140.429,0,0,0-26.272,54.5,162.256,162.256,0,0,0-3.147,18.961c-1,8.34-1.869,15.547-6.326,24.7a64.315,64.315,0,0,1-9.958,14.93c-.867,1.015-1.868,2.1-3.059,3.309a84.394,84.394,0,0,1-12.4,10.327v.353l-.545.029c-1.147.794-2.28,1.53-3.412,2.265l-.75.486c-3.722,2.353-7.311,4.339-10.768,6.266l-.6.338c-8.517,4.707-16.783,9.12-24.565,13.136l-2.692,1.382C513.848,373.748,470.881,391.9,442.448,403.9c-59.676,25.227-72.8,30.728-73.9,31.052l-5.237,1.544,1.942-1.235c-.265.1-.559.206-.838.323-7.605,2.957-15.4,5.84-22.933,8.62q-7.259,2.692-14.489,5.4c-20.563,7.8-47.349,14.812-72.267-.309-4.854-2.957-8.223-7.031-9.473-11.5-1.927-6.825.8-13.224,3.428-19.431a58.3,58.3,0,0,0,3.221-8.9c2.015-8.149,2.3-19.078-7.708-24.77-10.414-6.031-25.183-5.163-34.493-1.8-11.886,4.384-22.9,13.253-31.861,25.624-17.284,23.594-16.666,57.117,1.485,79.7,3.545,4.53,8.5,8.546,15.181,12.282,17.18,9.591,34.464,9.061,54.454,8.458,6.09-.191,12.268-.926,18.24-1.633,8.752-1.044,17.8-2.118,26.815-1.515,7.9.53,14.724,2.413,20.3,5.59,3.574,2.045,2.148,6.325,1,9.752a22.79,22.79,0,0,0-.838,2.825,416.6,416.6,0,0,0-5.016,42.245c-.529,6.619-.927,13.342-1.368,20.461-2.677,44.187-5.722,94.258-38.318,126.192-18.225,17.917-49.7,28.375-74.592,13.739a11.074,11.074,0,0,0-5.736-1.736,9.233,9.233,0,0,0-2.884.456c-3.853,1.236-7.531,5.134-9.84,10.429a75.136,75.136,0,0,0,33.272,96.068c37.48,19.71,98.392,4.471,125.34-31.361,27.418-36.45,29.463-82.476,31.434-127,.6-13.445,1.221-27.36,2.559-40.584l.427-4.236,1.088,4.119c5.5,20.814,12.8,41.451,19.843,61.4,2.663,7.531,5.413,15.313,8.047,23.006a270.187,270.187,0,0,0,18.4,44.569c2.8,4.972,6.811,10.988,13.048,13.239a13.428,13.428,0,0,0,10.826-.53c8.369-4.148,12.65-15.812,13.768-19.284,2.677-8.061,4.839-16.445,6.942-24.565,2.457-9.531,5-19.4,8.414-28.845,5.8-16.151,12.577-32.92,20.108-49.806,4.707-10.591,9.885-21.152,14.916-31.346l3.942-8.061c4.883-10.032,9.5-19.519,15.945-28.551,2.059-2.927,4.206-5.766,6.266-8.5l2.339-3.089c.5-.588.941-1.191,1.368-1.75l.456-.633c.088-.147.176-.265.25-.368.044-.058.117-.147.132-.176a4.606,4.606,0,0,1,.5-.765,10.273,10.273,0,0,0,.662-.986l.236-.338c1.4-1.927,2.868-3.957,4.251-5.957A266.728,266.728,0,0,1,564.625,533.1l1.456-1.529-.118,2.1q-4.9,88.346-7.972,147.683-2.67,49.887-3.913,72.076c-.559,8.591-.088,25.286,9.179,40.687,8.693,14.386,25.991,24.3,45.158,25.859,16.224,1.236,33.817-2.883,52.277-12.238,3.648-1.839,7.841-5.766,8.4-9.414a4.287,4.287,0,0,0-1.309-3.913c-1.206-1.206-3-1.618-4.913-2.059-.779-.192-1.6-.383-2.368-.633-8.811-2.839-11.8-13.327-13.282-20.961a311.6,311.6,0,0,1-5.9-58.514,295.688,295.688,0,0,1,1.6-34.008c.324-3.236.633-5.869.957-8.3l.088-.662.662-.015c66.163-1.442,128.81-33.317,163.5-83.2A168.52,168.52,0,0,0,837.779,486.04a152.3,152.3,0,0,0-3.133-27.61,5.56,5.56,0,0,0-.117-.632,147.042,147.042,0,0,0-5.266-19.093l-.03-.177c-.147-1.412-.353-2.868-.617-4.457-.427-2.544-.957-4.971-1.56-7.207-.647-2.324-1.882-6.281-3.442-11.3-3.854-12.386-9.679-31.1-14.238-49.056l-.045-.1c-.912-3.6-2.074-8.311-3.059-12.871-2.6-11.885-3.869-21.093-3.751-27.345l.015-.353c.088-2.53.279-7.252,2.368-11a8.85,8.85,0,0,1,1.368-1.986A10.037,10.037,0,0,1,808.361,311c3.692-2.383,8.09-1.927,11.5-1.265,1.059.177,2.192.412,3.428.721q9.729,2.384,19.46,4.8,9.687,2.406,19.343,4.781c7.634,1.839,15.5,3.766,23.285,2.545a24.2,24.2,0,0,0,8.34-2.927c4.972-2.369,8.473-6.12,9.841-10.43-24.035,5.105-45.129-8.031-60.882-20.122-1.986-1.515-3.928-3.06-5.869-4.589-1.486-1.162-2.986-2.339-4.472-3.5a3.535,3.535,0,0,0-.986-.574.048.048,0,0,0-.029-.015,7.265,7.265,0,0,0,.471,3.913,1.474,1.474,0,0,1,.117.662,1.52,1.52,0,0,1-.47,1.1,1.712,1.712,0,0,1-1.28.442,2.941,2.941,0,0,1-2.4-1.81,10.856,10.856,0,0,1,.471-9.208,10.4,10.4,0,0,1,6.811-5.133,2.466,2.466,0,0,1,2.25.809,2.236,2.236,0,0,1,.765,2.074,1.45,1.45,0,0,1-1.147,1.015,7.12,7.12,0,0,0-2.678,1.265c.251.058.5.117.721.176a17.367,17.367,0,0,1,1.854.662c5.074,2.118,9.575,5.457,13.929,8.679,1.118.838,2.251,1.662,3.384,2.485a79.114,79.114,0,0,0,30.684,13.5c7.825,1.53,22.417,3.206,32.36-2.545a2.577,2.577,0,0,1,.25-.162c1.177-.809,2.133-1.588,2.78-2.1l.265-.221c.471-.382.956-.794,1.4-1.221a40.328,40.328,0,0,0,6.84-7.884c.25-.353.47-.677.676-1.015l.192-.294a3.851,3.851,0,0,0,.249-.412c.251-.382.457-.706.633-1.03a7.046,7.046,0,0,0,.53-.941,5.3,5.3,0,0,1,.323-.6,39.284,39.284,0,0,0,4.369-14.165c.059-.706.118-1.471.147-2.236l.059-1.471,1.177.882a4.08,4.08,0,0,1,.5.5,5.358,5.358,0,0,1,1.162,4.971.972.972,0,0,1-.089.295h.015a5.362,5.362,0,0,0,3.016-2.6,5.868,5.868,0,0,0,.676-1.5l.059-.221A6.145,6.145,0,0,0,942.584,264.471ZM750.906,550.114a117.9,117.9,0,0,1-27.331,25.448,103.9,103.9,0,0,1-14.9,8.531c-3.957,1.706-8.046,3.266-12.136,4.619-12.194,4.163-26.08,7.266-42.466,9.487l-1.147.148.294-1.118a570.568,570.568,0,0,0,18.107-115.411c.633-12.915.765-25.4-4.56-36.362-6.428-13.194-19.475-19.622-29.286-22.7a81.938,81.938,0,0,0-12.047-2.736l-.515-.074a70.369,70.369,0,0,0-42.128,6.59,65.816,65.816,0,0,0-11.473,7.384C512.186,489.144,466.91,568.81,436.829,670.658l-.618,2.1-.838-2.03c-8.664-21.02-16.4-42.54-22.991-63.972-2.56-8.325-4.854-16.871-7.09-25.138-3.148-11.694-6.4-23.8-10.429-35.435a191.222,191.222,0,0,0-15.092-32.92l-.6-1.015c-5.31-9.09-10.8-18.49-21.137-22.241-2.31-.823-3.472-1.882-3.545-3.221-.133-2.5,3.883-4.663,7.649-6.487l.264-.132q17.343-8.406,34.656-16.887c56.249-27.477,114.41-55.866,173.248-80.122,27.9-11.5,48.173-17.725,63.795-19.593a84.339,84.339,0,0,1,10.9-.633c3.589.059,6.723.309,9.738.545.9.073,1.78.132,2.662.206a164.726,164.726,0,0,1,35.259,5.957,123.756,123.756,0,0,1,33.92,15.371,103.073,103.073,0,0,1,26.992,25.7C786.473,455.944,776.75,516.3,750.906,550.114Zm86.388-321.651-.015.014a2.515,2.515,0,0,1-1.529.486,4.064,4.064,0,0,1-1.6-.368c-2.162-.883-4.53-3.545-4.648-6.075-.044-.559-.1-1.118-.191-1.706h-.118l-.044-.78c-.015-.044-.029-.1-.044-.147a.724.724,0,0,1-.059-.191,2.258,2.258,0,0,1-.118-.339l-.22-.514a5.5,5.5,0,0,0-.28-.515l-.059-.1a2.737,2.737,0,0,1-.367-.441l-.339-.353-.014.014-.809-.573-.353-.148a6.883,6.883,0,0,0-.9-.353l-.22-.058-1.78-.25-.25-.03a11.42,11.42,0,0,0-3.369.544,13.237,13.237,0,0,0-5.266,3.707,2.1,2.1,0,0,1-1.662.736c-2.162-.015-4.575-2.9-4.6-2.928-1.412-1.794-2.456-4.56-.779-6.486a15.874,15.874,0,0,1,18.136-4.134,21.5,21.5,0,0,1,12.444,18.049A3.276,3.276,0,0,1,837.294,228.463Zm-10.311-11.591a.424.424,0,0,0,.132.014l-.088-.088Zm110.35,52.336a3.436,3.436,0,0,0-.118-.677c0,.03-.014.044-.014.074-.1,1.044-.265,2.088-.456,3.118a2.562,2.562,0,0,0,.367-.721l.118-.323A3.026,3.026,0,0,0,937.333,269.208Z" fill="#00008b"/><path d="M827.027,216.8l-.044.074a.424.424,0,0,0,.132.014Zm0,0-.044.074a.424.424,0,0,0,.132.014Zm115.557,47.673v-.029c-.059-.4-.161-.809-.264-1.221l-.015-.015-.059-.176c-.956-3.089-3.53-5.575-5.663-7.4-6.31-5.4-13.945-9.546-21.329-13.547-7.561-4.1-15.386-8.341-21.74-13.93a14.05,14.05,0,0,1-1.28-1.089c-.6-.573-1.221-1.162-1.853-1.78l-1.31-1.412c-.47-.5-.912-1.044-1.353-1.574-.088-.1-.191-.235-.294-.353l-.838-1.1a14.068,14.068,0,0,1-1.192-1.662,3.6,3.6,0,0,1-.338-.471c-.339-.515-.692-1.1-.986-1.647-.412-.633-.794-1.368-1.162-2.074-.412-.765-.765-1.515-1.088-2.28l-.1-.221a10.962,10.962,0,0,1-.456-1.074c-.236-.47-.456-1.015-.677-1.588-1.6-4.134-2.824-8.517-4.016-12.768a110.621,110.621,0,0,0-5.133-15.5c-6.516-14.518-19.991-26.624-36.995-33.214-11.238-4.383-24.344-6.619-38.965-6.648H795.3c-3.722,0-7.032.117-10.135.338.353.618.691,1.25,1.029,1.883.721,1.235,1.368,2.412,2.03,3.574.383.706.78,1.4,1.162,2.1.25.441.5.882.751,1.309.264.47.514.926.779,1.382l2.471,4.5-3.692-3.574c-.956-.927-1.883-1.853-2.853-2.824l-.089-.088c-.809-.765-1.6-1.545-2.412-2.339l-.088-.1Q771.94,135.764,759.6,123.628c-2.589-2.53-5.516-5.4-9.105-6.192a10.431,10.431,0,0,0-2.251-.221c-4.28,0-8.4,2.368-11.929,4.6A543.322,543.322,0,0,0,677.4,163.932c-2.839,2.339-6.369,5.266-7.634,9.149a11.927,11.927,0,0,0-.515,5.178c.4,4.163,2.633,8.429,4.531,11.665l.382.662c.736,1.221,1.471,2.471,2.251,3.662l.6.971c.75,1.236,1.515,2.471,2.3,3.663.823,1.324,1.676,2.589,2.485,3.78.986,1.5,2.045,3,3.06,4.442.883,1.251,1.78,2.457,2.677,3.648,1.442,1.942,2.942,3.943,4.516,5.87,1.177,1.485,2.339,2.927,3.545,4.383,1.6,1.883,3.515,4.1,5.486,6.237a3.233,3.233,0,0,1,.3.338c1.868,2.045,3.648,3.927,5.383,5.693.236.235.486.5.736.75.235.25.485.515.735.75a216.121,216.121,0,0,0,23.933,20.887,9.959,9.959,0,0,0,3.118,1.839l.1.015a4.939,4.939,0,0,0,.691.1,2.757,2.757,0,0,0,.824-.059c2.78-.588,3.236-4.81,3.266-7.267v-.544c.088-13.15.176-26.374.308-39.554.015-1.338.015-2.647.03-3.971s.015-2.633.029-3.972c.059-7.207.118-15.386,3.53-22.461a17.763,17.763,0,0,1,1.574-2.692c.295-.426.574-.824.883-1.235a18.917,18.917,0,0,1,11.032-7.208,13.665,13.665,0,0,1,5.354,0l1.913.382-1.648,1.03c-.735.456-1.4.912-2.059,1.4a17.973,17.973,0,0,0-1.883,1.486,2.809,2.809,0,0,0-.368.353c-8.178,7.37-12.665,20.593-12.341,36.318.029,2.589.191,5.133.368,7.5a7.972,7.972,0,0,0,.059.9c.176,2.412.4,4.81.617,7.208.9,9.943,1.824,20.21-.073,30.213-.574,2.971-1.589,6.634-4.413,8.664a7.4,7.4,0,0,1-3.207,1.338,7.927,7.927,0,0,1-1.265.133l-.323.323-.368-.323c-4.486-.177-9.12-3.428-11.518-5.384-8.369-6.663-16.577-13.9-24.373-21.476-1.706-1.677-3.383-3.339-5.046-5.045a334.946,334.946,0,0,1-31.213-36.48c-.485.6-.971,1.206-1.441,1.81a140.429,140.429,0,0,0-26.272,54.5,162.256,162.256,0,0,0-3.147,18.961c-1,8.34-1.869,15.547-6.326,24.7a64.315,64.315,0,0,1-9.958,14.93c-.867,1.015-1.868,2.1-3.059,3.309a84.394,84.394,0,0,1-12.4,10.327v.353l-.545.029c-1.147.794-2.28,1.53-3.412,2.265l-.75.486c-3.722,2.353-7.311,4.339-10.768,6.266l-.6.338c-8.517,4.707-16.783,9.12-24.565,13.136l-2.692,1.382C513.848,373.748,470.881,391.9,442.448,403.9c-59.676,25.227-72.8,30.728-73.9,31.052l-5.237,1.544,1.942-1.235c-.265.1-.559.206-.838.323-7.605,2.957-15.4,5.84-22.933,8.62q-7.259,2.692-14.489,5.4c-20.563,7.8-47.349,14.812-72.267-.309-4.854-2.957-8.223-7.031-9.473-11.5-1.927-6.825.8-13.224,3.428-19.431a58.3,58.3,0,0,0,3.221-8.9c2.015-8.149,2.3-19.078-7.708-24.77-10.414-6.031-25.183-5.163-34.493-1.8-11.886,4.384-22.9,13.253-31.861,25.624-17.284,23.594-16.666,57.117,1.485,79.7,3.545,4.53,8.5,8.546,15.181,12.282,17.18,9.591,34.464,9.061,54.454,8.458,6.09-.191,12.268-.926,18.24-1.633,8.752-1.044,17.8-2.118,26.815-1.515,7.9.53,14.724,2.413,20.3,5.59,3.574,2.045,2.148,6.325,1,9.752a22.79,22.79,0,0,0-.838,2.825,416.6,416.6,0,0,0-5.016,42.245c-.529,6.619-.927,13.342-1.368,20.461-2.677,44.187-5.722,94.258-38.318,126.192-18.225,17.917-49.7,28.375-74.592,13.739a11.074,11.074,0,0,0-5.736-1.736,9.233,9.233,0,0,0-2.884.456c-3.853,1.236-7.531,5.134-9.84,10.429a75.136,75.136,0,0,0,33.272,96.068c37.48,19.71,98.392,4.471,125.34-31.361,27.418-36.45,29.463-82.476,31.434-127,.6-13.445,1.221-27.36,2.559-40.584l.427-4.236,1.088,4.119c5.5,20.814,12.8,41.451,19.843,61.4,2.663,7.531,5.413,15.313,8.047,23.006a270.187,270.187,0,0,0,18.4,44.569c2.8,4.972,6.811,10.988,13.048,13.239a13.428,13.428,0,0,0,10.826-.53c8.369-4.148,12.65-15.812,13.768-19.284,2.677-8.061,4.839-16.445,6.942-24.565,2.457-9.531,5-19.4,8.414-28.845,5.8-16.151,12.577-32.92,20.108-49.806,4.707-10.591,9.885-21.152,14.916-31.346l3.942-8.061c4.883-10.032,9.5-19.519,15.945-28.551,2.059-2.927,4.206-5.766,6.266-8.5l2.339-3.089c.5-.588.941-1.191,1.368-1.75l.456-.633c.088-.147.176-.265.25-.368.044-.058.117-.147.132-.176a4.606,4.606,0,0,1,.5-.765,10.273,10.273,0,0,0,.662-.986l.236-.338c1.4-1.927,2.868-3.957,4.251-5.957A266.728,266.728,0,0,1,564.625,533.1l1.456-1.529-.118,2.1q-4.9,88.346-7.972,147.683-2.67,49.887-3.913,72.076c-.559,8.591-.088,25.286,9.179,40.687,8.693,14.386,25.991,24.3,45.158,25.859,16.224,1.236,33.817-2.883,52.277-12.238,3.648-1.839,7.841-5.766,8.4-9.414a4.287,4.287,0,0,0-1.309-3.913c-1.206-1.206-3-1.618-4.913-2.059-.779-.192-1.6-.383-2.368-.633-8.811-2.839-11.8-13.327-13.282-20.961a311.6,311.6,0,0,1-5.9-58.514,295.688,295.688,0,0,1,1.6-34.008c.324-3.236.633-5.869.957-8.3l.088-.662.662-.015c66.163-1.442,128.81-33.317,163.5-83.2A168.52,168.52,0,0,0,837.779,486.04a152.3,152.3,0,0,0-3.133-27.61,5.56,5.56,0,0,0-.117-.632,147.042,147.042,0,0,0-5.266-19.093l-.03-.177c-.147-1.412-.353-2.868-.617-4.457-.427-2.544-.957-4.971-1.56-7.207-.647-2.324-1.882-6.281-3.442-11.3-3.854-12.386-9.679-31.1-14.238-49.056l-.045-.1c-.912-3.6-2.074-8.311-3.059-12.871-2.6-11.885-3.869-21.093-3.751-27.345l.015-.353c.088-2.53.279-7.252,2.368-11a8.85,8.85,0,0,1,1.368-1.986A10.037,10.037,0,0,1,808.361,311c3.692-2.383,8.09-1.927,11.5-1.265,1.059.177,2.192.412,3.428.721q9.729,2.384,19.46,4.8,9.687,2.406,19.343,4.781c7.634,1.839,15.5,3.766,23.285,2.545a24.2,24.2,0,0,0,8.34-2.927c4.972-2.369,8.473-6.12,9.841-10.43-24.035,5.105-45.129-8.031-60.882-20.122-1.986-1.515-3.928-3.06-5.869-4.589-1.486-1.162-2.986-2.339-4.472-3.5a3.535,3.535,0,0,0-.986-.574.048.048,0,0,0-.029-.015,7.265,7.265,0,0,0,.471,3.913,1.474,1.474,0,0,1,.117.662,1.52,1.52,0,0,1-.47,1.1,1.712,1.712,0,0,1-1.28.442,2.941,2.941,0,0,1-2.4-1.81,10.856,10.856,0,0,1,.471-9.208,10.4,10.4,0,0,1,6.811-5.133,2.466,2.466,0,0,1,2.25.809,2.236,2.236,0,0,1,.765,2.074,1.45,1.45,0,0,1-1.147,1.015,7.12,7.12,0,0,0-2.678,1.265c.251.058.5.117.721.176a17.367,17.367,0,0,1,1.854.662c5.074,2.118,9.575,5.457,13.929,8.679,1.118.838,2.251,1.662,3.384,2.485a79.114,79.114,0,0,0,30.684,13.5c7.825,1.53,22.417,3.206,32.36-2.545a2.577,2.577,0,0,1,.25-.162c1.177-.809,2.133-1.588,2.78-2.1l.265-.221c.471-.382.956-.794,1.4-1.221a40.328,40.328,0,0,0,6.84-7.884c.25-.353.47-.677.676-1.015l.192-.294a3.851,3.851,0,0,0,.249-.412c.251-.382.457-.706.633-1.03a7.046,7.046,0,0,0,.53-.941,5.3,5.3,0,0,1,.323-.6,39.284,39.284,0,0,0,4.369-14.165c.059-.706.118-1.471.147-2.236l.059-1.471,1.177.882a4.08,4.08,0,0,1,.5.5,5.358,5.358,0,0,1,1.162,4.971.972.972,0,0,1-.089.295h.015a5.362,5.362,0,0,0,3.016-2.6,5.868,5.868,0,0,0,.676-1.5l.059-.221A6.145,6.145,0,0,0,942.584,264.471ZM750.906,550.114a117.9,117.9,0,0,1-27.331,25.448,103.9,103.9,0,0,1-14.9,8.531c-3.957,1.706-8.046,3.266-12.136,4.619-12.194,4.163-26.08,7.266-42.466,9.487l-1.147.148.294-1.118a570.568,570.568,0,0,0,18.107-115.411c.633-12.915.765-25.4-4.56-36.362-6.428-13.194-19.475-19.622-29.286-22.7a81.938,81.938,0,0,0-12.047-2.736l-.515-.074a70.369,70.369,0,0,0-42.128,6.59,65.816,65.816,0,0,0-11.473,7.384C512.186,489.144,466.91,568.81,436.829,670.658l-.618,2.1-.838-2.03c-8.664-21.02-16.4-42.54-22.991-63.972-2.56-8.325-4.854-16.871-7.09-25.138-3.148-11.694-6.4-23.8-10.429-35.435a191.222,191.222,0,0,0-15.092-32.92l-.6-1.015c-5.31-9.09-10.8-18.49-21.137-22.241-2.31-.823-3.472-1.882-3.545-3.221-.133-2.5,3.883-4.663,7.649-6.487l.264-.132q17.343-8.406,34.656-16.887c56.249-27.477,114.41-55.866,173.248-80.122,27.9-11.5,48.173-17.725,63.795-19.593a84.339,84.339,0,0,1,10.9-.633c3.589.059,6.723.309,9.738.545.9.073,1.78.132,2.662.206a164.726,164.726,0,0,1,35.259,5.957,123.756,123.756,0,0,1,33.92,15.371,103.073,103.073,0,0,1,26.992,25.7C786.473,455.944,776.75,516.3,750.906,550.114Zm86.388-321.651-.015.014a2.515,2.515,0,0,1-1.529.486,4.064,4.064,0,0,1-1.6-.368c-2.162-.883-4.53-3.545-4.648-6.075-.044-.559-.1-1.118-.191-1.706h-.118l-.044-.78c-.015-.044-.029-.1-.044-.147a.724.724,0,0,1-.059-.191,2.258,2.258,0,0,1-.118-.339l-.22-.514a5.5,5.5,0,0,0-.28-.515l-.059-.1a2.737,2.737,0,0,1-.367-.441l-.339-.353-.014.014-.809-.573-.353-.148a6.883,6.883,0,0,0-.9-.353l-.22-.058-1.78-.25-.25-.03a11.42,11.42,0,0,0-3.369.544,13.237,13.237,0,0,0-5.266,3.707,2.1,2.1,0,0,1-1.662.736c-2.162-.015-4.575-2.9-4.6-2.928-1.412-1.794-2.456-4.56-.779-6.486a15.874,15.874,0,0,1,18.136-4.134,21.5,21.5,0,0,1,12.444,18.049A3.276,3.276,0,0,1,837.294,228.463Zm-10.311-11.591a.424.424,0,0,0,.132.014l-.088-.088Z" fill="#fff"/><path d="M968.09,273.562c-1.823-12.547-10.708-20.123-13.606-22.594-8.178-6.987-17.328-11.929-25.4-16.3-9.62-5.192-17.931-9.679-21.888-15.8-2.427-3.721-3.956-9.208-5.736-15.577a130.9,130.9,0,0,0-6.237-18.534c-8.9-19.858-26.874-36.244-49.292-44.923-13.826-5.384-29.654-8.134-47.261-8.178-2.707,0-5.384.059-8,.176q-6.024-5.913-12.062-11.87c-3.78-3.678-10.09-9.856-19.666-11.974a32.133,32.133,0,0,0-7.355-.809c-9.767,0-17.534,4.075-23.668,7.943a569.052,569.052,0,0,0-61.426,43.908c-3.972,3.3-11.356,9.4-14.562,19.225a34.9,34.9,0,0,0-1.045,18.255c-.191.235-.868,1.1-.868,1.1a163.024,163.024,0,0,0-30.389,63.118,183.332,183.332,0,0,0-3.575,21.4c-.912,7.605-1.412,11.8-4.251,17.622a44.627,44.627,0,0,1-8.84,12.283,71.5,71.5,0,0,1-13.077,10.237c-3.236,2.03-6.56,3.884-9.782,5.678l-.456.25c-9.208,5.06-18.181,9.856-26.727,14.239-45.217,23.374-87.7,41.319-115.822,53.19-31.993,13.518-52.822,22.314-63.736,26.888-3.266.515-6.766,1.883-13.68,4.546-7.5,2.912-15.063,5.707-22.623,8.5-4.869,1.809-9.738,3.6-14.636,5.457-12.915,4.9-23.02,7.178-31.816,7.178a38.663,38.663,0,0,1-19.535-4.9c.471-1.265,1.1-2.721,1.574-3.869a76.381,76.381,0,0,0,4.369-12.3c5.266-21.476-1.6-39.995-18.225-49.453-8.443-4.9-18.769-7.487-29.89-7.487a70.06,70.06,0,0,0-23.579,4.045c-16.063,5.928-30.669,17.519-42.172,33.405-23.167,31.626-22.285,76.592,1.927,106.7,5.384,6.9,12.533,12.782,21.9,18.048,18.211,10.15,35.626,11.547,51.733,11.547,4.737,0,9.664-.132,14.313-.279,7.061-.206,13.738-1.015,20.181-1.78a164.532,164.532,0,0,1,18.7-1.53q1.28,0,2.559.044c-1.927,12.547-3.045,24.844-3.942,36.391-.529,6.752-.956,13.739-1.4,20.873-2.559,42.113-5.208,85.668-31.655,111.586-8.884,8.723-21.49,14.15-32.92,14.15a28.4,28.4,0,0,1-14.533-3.677,33.3,33.3,0,0,0-17.195-4.884c-13.959,0-26.7,9.312-33.229,24.271-20.284,46.217-1.294,101.039,43.349,124.869,14.224,7.472,31.228,11.429,49.174,11.429,40.377,0,82.373-19.755,104.466-49.144,16.887-22.432,25.4-47.659,29.978-73.268A283.413,283.413,0,0,0,400.7,784.5l.279.515c4.325,7.722,11.635,18.548,25.095,23.417a37.13,37.13,0,0,0,12.4,2.177c18.123,0,33.818-13.9,40.893-36.038,2.927-8.782,5.192-17.549,7.384-26.036,2.427-9.443,4.736-18.372,7.8-26.845,5.634-15.665,12.194-31.9,19.52-48.32,4.5-10.164,9.355-20.02,14.488-30.463l4.045-8.253c3.442-7.06,6.723-13.812,10.562-20.048-1.6,29.683-3,56.013-4.192,78.46-1.721,32.419-3.016,56.749-3.869,71.282-.883,13.665.544,34.082,12.356,53.675,12.532,20.769,35.891,34.449,62.6,36.626,2.427.177,4.9.28,7.355.28,18.2,0,37.288-5,56.735-14.857,8.6-4.354,18.489-13.459,20.431-25.977a26.474,26.474,0,0,0-7.62-23.167,29.239,29.239,0,0,0-13.238-7.429,38.264,38.264,0,0,1-1.177-4.736,289.313,289.313,0,0,1-5.486-54.41c-.074-7.075.132-14.283.632-21.564,65.972-6.8,126.884-40.848,162.172-91.6a190.919,190.919,0,0,0,33.64-113.307,175.253,175.253,0,0,0-3.692-32.273,171.676,171.676,0,0,0-5.28-19.666,98.885,98.885,0,0,0-2.56-12.783c-.691-2.456-1.971-6.589-3.618-11.87-3.6-11.577-8.973-28.787-13.283-45.423l-.015-2.295-1.206-2.471a229.019,229.019,0,0,1-5.045-24.712l31.36,7.723c6.546,1.588,14.666,3.574,23.477,3.574a54.7,54.7,0,0,0,8.5-.647c11.988-1.839,22.667-8.179,29.271-17.4l.942-1.309.735-1.427c.4-.765.765-1.56,1.1-2.339a71.049,71.049,0,0,0,13.768-8.84,64.578,64.578,0,0,0,14.4-16.637l1.339-1.412,1.088-2.9q.9-1.786,1.721-3.618a28.336,28.336,0,0,0,7.826-8.694A28.835,28.835,0,0,0,968.09,273.562Zm-30.86-2.883-.118.323a2.562,2.562,0,0,1-.367.721c.191-1.03.353-2.074.456-3.118,0-.03.014-.044.014-.074a3.436,3.436,0,0,1,.118.677A3.026,3.026,0,0,1,937.23,270.679Zm5.163-3.6-.059.221a5.868,5.868,0,0,1-.676,1.5,5.362,5.362,0,0,1-3.016,2.6h-.015a.972.972,0,0,0,.089-.295,5.358,5.358,0,0,0-1.162-4.971,4.08,4.08,0,0,0-.5-.5l-1.177-.882-.059,1.471c-.029.765-.088,1.53-.147,2.236a39.284,39.284,0,0,1-4.369,14.165,5.3,5.3,0,0,0-.323.6,7.046,7.046,0,0,1-.53.941c-.176.324-.382.648-.633,1.03a3.851,3.851,0,0,1-.249.412l-.192.294c-.206.338-.426.662-.676,1.015a40.328,40.328,0,0,1-6.84,7.884c-.442.427-.927.839-1.4,1.221l-.265.221c-.647.515-1.6,1.294-2.78,2.1a2.577,2.577,0,0,0-.25.162c-9.943,5.751-24.535,4.075-32.36,2.545a79.114,79.114,0,0,1-30.684-13.5c-1.133-.823-2.266-1.647-3.384-2.485-4.354-3.222-8.855-6.561-13.929-8.679a17.367,17.367,0,0,0-1.854-.662c-.22-.059-.47-.118-.721-.176a7.12,7.12,0,0,1,2.678-1.265,1.45,1.45,0,0,0,1.147-1.015,2.236,2.236,0,0,0-.765-2.074,2.466,2.466,0,0,0-2.25-.809,10.4,10.4,0,0,0-6.811,5.133,10.856,10.856,0,0,0-.471,9.208,2.941,2.941,0,0,0,2.4,1.81,1.712,1.712,0,0,0,1.28-.442,1.52,1.52,0,0,0,.47-1.1,1.474,1.474,0,0,0-.117-.662,7.265,7.265,0,0,1-.471-3.913.048.048,0,0,1,.029.015,3.535,3.535,0,0,1,.986.574c1.486,1.162,2.986,2.339,4.472,3.5,1.941,1.529,3.883,3.074,5.869,4.589,15.753,12.091,36.847,25.227,60.882,20.122-1.368,4.31-4.869,8.061-9.841,10.43a24.2,24.2,0,0,1-8.34,2.927c-7.781,1.221-15.651-.706-23.285-2.545q-9.663-2.384-19.343-4.781-9.73-2.4-19.46-4.8c-1.236-.309-2.369-.544-3.428-.721-3.412-.662-7.81-1.118-11.5,1.265a10.037,10.037,0,0,0-2.089,1.854,8.85,8.85,0,0,0-1.368,1.986c-2.089,3.75-2.28,8.472-2.368,11l-.015.353c-.118,6.252,1.147,15.46,3.751,27.345.985,4.56,2.147,9.267,3.059,12.871l.045.1c4.559,17.96,10.384,36.67,14.238,49.056,1.56,5.016,2.795,8.973,3.442,11.3.6,2.236,1.133,4.663,1.56,7.207.264,1.589.47,3.045.617,4.457l.03.177a147.042,147.042,0,0,1,5.266,19.093,5.56,5.56,0,0,1,.117.632,152.3,152.3,0,0,1,3.133,27.61,168.52,168.52,0,0,1-29.654,100.024c-34.685,49.88-97.332,81.755-163.495,83.2l-.662.015-.088.662c-.324,2.427-.633,5.06-.957,8.3a295.688,295.688,0,0,0-1.6,34.008,311.6,311.6,0,0,0,5.9,58.514c1.485,7.634,4.471,18.122,13.282,20.961.765.25,1.589.441,2.368.633,1.913.441,3.707.853,4.913,2.059a4.287,4.287,0,0,1,1.309,3.913c-.558,3.648-4.751,7.575-8.4,9.414-18.46,9.355-36.053,13.474-52.277,12.238-19.167-1.559-36.465-11.473-45.158-25.859-9.267-15.4-9.738-32.1-9.179-40.687q1.3-22.152,3.913-72.076,3.132-59.331,7.972-147.683l.118-2.1-1.456,1.529A266.728,266.728,0,0,0,541.5,561.426c-1.383,2-2.854,4.03-4.251,5.957l-.236.338a10.273,10.273,0,0,1-.662.986,4.606,4.606,0,0,0-.5.765c-.015.029-.088.118-.132.176-.074.1-.162.221-.25.368l-.456.633c-.427.559-.868,1.162-1.368,1.75l-2.339,3.089c-2.06,2.736-4.207,5.575-6.266,8.5-6.443,9.032-11.062,18.519-15.945,28.551l-3.942,8.061c-5.031,10.194-10.209,20.755-14.916,31.346-7.531,16.886-14.312,33.655-20.108,49.806-3.412,9.444-5.957,19.314-8.414,28.845-2.1,8.12-4.265,16.5-6.942,24.565-1.118,3.472-5.4,15.136-13.768,19.284a13.428,13.428,0,0,1-10.826.53c-6.237-2.251-10.253-8.267-13.048-13.239a270.187,270.187,0,0,1-18.4-44.569c-2.634-7.693-5.384-15.475-8.047-23.006-7.045-19.946-14.341-40.583-19.843-61.4l-1.088-4.119-.427,4.236c-1.338,13.224-1.956,27.139-2.559,40.584-1.971,44.525-4.016,90.551-31.434,127-26.948,35.832-87.86,51.071-125.34,31.361a75.136,75.136,0,0,1-33.272-96.068c2.309-5.295,5.987-9.193,9.84-10.429a9.233,9.233,0,0,1,2.884-.456,11.074,11.074,0,0,1,5.736,1.736c24.889,14.636,56.367,4.178,74.592-13.739,32.6-31.934,35.641-82,38.318-126.192.441-7.119.839-13.842,1.368-20.461a416.6,416.6,0,0,1,5.016-42.245,22.79,22.79,0,0,1,.838-2.825c1.148-3.427,2.574-7.707-1-9.752-5.575-3.177-12.4-5.06-20.3-5.59-9.017-.6-18.063.471-26.815,1.515-5.972.707-12.15,1.442-18.24,1.633-19.99.6-37.274,1.133-54.454-8.458-6.678-3.736-11.636-7.752-15.181-12.282-18.151-22.579-18.769-56.1-1.485-79.7,8.958-12.371,19.975-21.24,31.861-25.624,9.31-3.368,24.079-4.236,34.493,1.8,10,5.692,9.723,16.621,7.708,24.77a58.3,58.3,0,0,1-3.221,8.9c-2.633,6.207-5.355,12.606-3.428,19.431,1.25,4.472,4.619,8.546,9.473,11.5,24.918,15.121,51.7,8.105,72.267.309q7.215-2.715,14.489-5.4c7.532-2.78,15.328-5.663,22.933-8.62.279-.117.573-.22.838-.323l-1.942,1.235,5.237-1.544c1.1-.324,14.224-5.825,73.9-31.052,28.433-12,71.4-30.154,117.381-53.925l2.692-1.382c7.782-4.016,16.048-8.429,24.565-13.136l.6-.338c3.457-1.927,7.046-3.913,10.768-6.266l.75-.486c1.132-.735,2.265-1.471,3.412-2.265l.545-.029v-.353a84.394,84.394,0,0,0,12.4-10.327c1.191-1.206,2.192-2.294,3.059-3.309a64.315,64.315,0,0,0,9.958-14.93c4.457-9.15,5.325-16.357,6.326-24.7a162.256,162.256,0,0,1,3.147-18.961A140.429,140.429,0,0,1,664.326,199c.47-.6.956-1.207,1.441-1.81a334.946,334.946,0,0,0,31.213,36.48c1.663,1.706,3.34,3.368,5.046,5.045,7.8,7.575,16,14.813,24.373,21.476,2.4,1.956,7.032,5.207,11.518,5.384l.368.323.323-.323a7.927,7.927,0,0,0,1.265-.133,7.4,7.4,0,0,0,3.207-1.338c2.824-2.03,3.839-5.693,4.413-8.664,1.9-10,.971-20.27.073-30.213-.22-2.4-.441-4.8-.617-7.208a7.972,7.972,0,0,1-.059-.9c-.177-2.369-.339-4.913-.368-7.5-.324-15.725,4.163-28.948,12.341-36.318a2.809,2.809,0,0,1,.368-.353,17.973,17.973,0,0,1,1.883-1.486c.662-.485,1.324-.941,2.059-1.4l1.648-1.03-1.913-.382a13.665,13.665,0,0,0-5.354,0,18.917,18.917,0,0,0-11.032,7.208c-.309.411-.588.809-.883,1.235a17.763,17.763,0,0,0-1.574,2.692c-3.412,7.075-3.471,15.254-3.53,22.461-.014,1.339-.029,2.648-.029,3.972s-.015,2.633-.03,3.971c-.132,13.18-.22,26.4-.308,39.554v.544c-.03,2.457-.486,6.679-3.266,7.267a2.757,2.757,0,0,1-.824.059,4.939,4.939,0,0,1-.691-.1l-.1-.015a9.959,9.959,0,0,1-3.118-1.839,216.121,216.121,0,0,1-23.933-20.887c-.25-.235-.5-.5-.735-.75-.25-.25-.5-.515-.736-.75-1.735-1.766-3.515-3.648-5.383-5.693a3.233,3.233,0,0,0-.3-.338c-1.971-2.133-3.883-4.354-5.486-6.237-1.206-1.456-2.368-2.9-3.545-4.383-1.574-1.927-3.074-3.928-4.516-5.87-.9-1.191-1.794-2.4-2.677-3.648-1.015-1.441-2.074-2.941-3.06-4.442-.809-1.191-1.662-2.456-2.485-3.78-.78-1.192-1.545-2.427-2.3-3.663l-.6-.971c-.78-1.191-1.515-2.441-2.251-3.662l-.382-.662c-1.9-3.236-4.133-7.5-4.531-11.665a11.927,11.927,0,0,1,.515-5.178c1.265-3.883,4.795-6.81,7.634-9.149a543.322,543.322,0,0,1,58.912-42.113c3.53-2.236,7.649-4.6,11.929-4.6a10.431,10.431,0,0,1,2.251.221c3.589.794,6.516,3.662,9.105,6.192q12.312,12.136,24.653,24.227l.088.1c.809.794,1.6,1.574,2.412,2.339l.089.088c.97.971,1.9,1.9,2.853,2.824l3.692,3.574-2.471-4.5c-.265-.456-.515-.912-.779-1.382-.25-.427-.5-.868-.751-1.309-.382-.707-.779-1.4-1.162-2.1-.662-1.162-1.309-2.339-2.03-3.574-.338-.633-.676-1.265-1.029-1.883,3.1-.221,6.413-.338,10.135-.338h.176c14.621.029,27.727,2.265,38.965,6.648,17,6.59,30.479,18.7,36.995,33.214a110.621,110.621,0,0,1,5.133,15.5c1.192,4.251,2.413,8.634,4.016,12.768.221.573.441,1.118.677,1.588a10.962,10.962,0,0,0,.456,1.074l.1.221c.323.765.676,1.515,1.088,2.28.368.706.75,1.441,1.162,2.074.294.544.647,1.132.986,1.647a3.6,3.6,0,0,0,.338.471,14.068,14.068,0,0,0,1.192,1.662l.838,1.1c.1.118.206.25.294.353.441.53.883,1.074,1.353,1.574l1.31,1.412c.632.618,1.25,1.207,1.853,1.78a14.05,14.05,0,0,0,1.28,1.089c6.354,5.589,14.179,9.826,21.74,13.93,7.384,4,15.019,8.149,21.329,13.547,2.133,1.824,4.707,4.31,5.663,7.4l.059.176.015.015c.1.412.2.824.264,1.221v.029A6.145,6.145,0,0,1,942.393,267.075Z" fill="#00008a"/><path d="M753.568,410.713a103.073,103.073,0,0,0-26.992-25.7,123.756,123.756,0,0,0-33.92-15.371,164.726,164.726,0,0,0-35.259-5.957c-.882-.074-1.765-.133-2.662-.206-3.015-.236-6.149-.486-9.738-.545a84.339,84.339,0,0,0-10.9.633c-15.622,1.868-35.891,8.09-63.795,19.593-58.838,24.256-117,52.645-173.248,80.122q-17.321,8.451-34.656,16.887l-.264.132c-3.766,1.824-7.782,3.986-7.649,6.487.073,1.339,1.235,2.4,3.545,3.221,10.34,3.751,15.827,13.151,21.137,22.241l.6,1.015a191.222,191.222,0,0,1,15.092,32.92c4.03,11.635,7.281,23.741,10.429,35.435,2.236,8.267,4.53,16.813,7.09,25.138,6.59,21.432,14.327,42.952,22.991,63.972l.838,2.03.618-2.1C466.91,568.81,512.186,489.144,571.318,433.924a65.816,65.816,0,0,1,11.473-7.384,70.369,70.369,0,0,1,42.128-6.59l.515.074a81.938,81.938,0,0,1,12.047,2.736c9.811,3.074,22.858,9.5,29.286,22.7,5.325,10.959,5.193,23.447,4.56,36.362A570.568,570.568,0,0,1,653.22,597.229l-.294,1.118,1.147-.148c16.386-2.221,30.272-5.324,42.466-9.487,4.09-1.353,8.179-2.913,12.136-4.619a103.9,103.9,0,0,0,14.9-8.531,117.9,117.9,0,0,0,27.331-25.448C776.75,516.3,786.473,455.944,753.568,410.713ZM690.244,448c-7.841-16.121-22.624-27.962-42.731-34.258a102.248,102.248,0,0,0-15.283-3.486l-.353-.044a89.1,89.1,0,0,0-14.283-1.162,93.612,93.612,0,0,0-31.508,5.56c23.667-9.561,41.363-14.96,54.013-16.475a63.341,63.341,0,0,1,7.517-.456c2.956,0,5.677.221,8.546.441l3.015.236c36.524,2.662,63.324,15.386,79.652,37.862,25.565,35.141,18.887,84.874-2.339,112.645-11.723,15.327-28.11,24.741-33.42,27.065A133.622,133.622,0,0,1,685.993,582a590.566,590.566,0,0,0,11.046-86.727C697.8,479.98,697.907,463.726,690.244,448ZM419.339,551.144a214.583,214.583,0,0,0-16.886-36.833l-.588-1c-1.868-3.192-3.957-6.751-6.414-10.341q7.392-3.618,14.813-7.237c54.763-26.741,111.336-54.38,168.291-78.033-.9.426-1.721.823-2.457,1.191a88.786,88.786,0,0,0-15.4,9.914l-.632.515-.6.559c-50.086,46.747-90.552,109.747-120.72,187.766-.545-1.691-1.074-3.4-1.6-5.1-2.442-7.958-4.589-15.945-6.87-24.4C427.018,576.076,423.664,563.588,419.339,551.144Z" fill="#00008a"/><path d="M838.235,225.521a21.5,21.5,0,0,0-12.444-18.049,15.874,15.874,0,0,0-18.136,4.134c-1.677,1.926-.633,4.692.779,6.486.029.03,2.442,2.913,4.6,2.928a2.1,2.1,0,0,0,1.662-.736,13.237,13.237,0,0,1,5.266-3.707,11.42,11.42,0,0,1,3.369-.544l.25.03,1.78.25.22.058a6.883,6.883,0,0,1,.9.353l.353.148.809.573.014-.014.339.353a2.737,2.737,0,0,0,.367.441l.059.1a5.5,5.5,0,0,1,.28.515l.22.514a2.258,2.258,0,0,0,.118.339.724.724,0,0,0,.059.191c.015.044.029.1.044.147l.044.78h.118c.088.588.147,1.147.191,1.706.118,2.53,2.486,5.192,4.648,6.075a4.064,4.064,0,0,0,1.6.368,2.515,2.515,0,0,0,1.529-.486l.015-.014A3.276,3.276,0,0,0,838.235,225.521Zm-11.252-8.649.044-.074.088.088A.424.424,0,0,1,826.983,216.872Z" fill="#00008a"/></svg>