<?xml version="1.0" encoding="utf-8"?>
<!-- Generator: Adobe Illustrator 24.3.0, SVG Export Plug-In . SVG Version: 6.00 Build 0)  -->
<svg version="1.1" id="Layer_1" xmlns="http://www.w3.org/2000/svg" xmlns:xlink="http://www.w3.org/1999/xlink" x="0px" y="0px"
	 viewBox="0 0 1161.3 1278.8" style="enable-background:new 0 0 1161.3 1278.8;" xml:space="preserve">
<style type="text/css">
	.st0{fill:#FCD5FF;}
	.st1{fill:#00008B;}
	.st2{fill:#ECAAEE;}
	.st3{fill:#FFB4E7;}
	.st4{fill:#EAD5B9;}
	.st5{fill:#C8F657;}
	.st6{fill:#C2ACD2;}
	.st7{fill:#0B4884;}
	.st8{fill:#D8F476;}
	.st9{fill:#E179E6;}
	.st10{fill:#EEFFB1;}
	.st11{fill:#DCA87F;}
	.st12{fill:#BC85F2;}
	.st13{opacity:0.17;}
	.st14{fill:#6D5B32;}
	.st15{fill:#D1C09A;}
	.st16{fill:#F5F2C3;}
	.st17{fill:#FFF6BD;}
	.st18{fill:#FF81CB;}
	.st19{fill:none;stroke:#00008B;stroke-width:1.2974;stroke-miterlimit:10;}
	.st20{fill:#BBED0A;}
	.st21{fill:#9630EE;}
	.st22{fill:#BDE3F9;}
	.st23{fill:#93D6F7;}
	.st24{fill:#E1B0C5;}
	.st25{fill:#ECD2DF;}
	.st26{fill:#DF9EBD;}
	.st27{opacity:0.69;}
	.st28{fill:#FFDAF1;}
	.st29{fill:#F6A2FF;}
	.st30{fill:#FFEE76;}
	.st31{fill:none;}
	.st32{fill:#2A2E7E;}
	.st33{fill:#FFDA10;}
	.st34{fill:#A7EBF4;}
	.st35{fill:#FFE945;}
	.st36{fill:none;stroke:#0B4884;stroke-width:3.2169;stroke-miterlimit:10;}
	.st37{fill:#B275F0;}
	.st38{fill:#00008B;stroke:#00008B;stroke-width:1.4343;stroke-miterlimit:10;}
</style>
<g>
	<g>
		<g>
			<path class="st0" d="M39.2,245c7.6-9.3,16.5-17.5,26.6-24c50.9-32.9,111.3-22.3,167.4-35.5c27.9-6.6,55.1-19.4,74.4-40.6
				c41.8-46.2,48-119.1,118.3-136.4c58.5-14.4,116.7,29,165.6,54.3c76.5,39.6,157.1,22.5,237.9,13.5c26.7-3,56.4,0.1,75.8,18.8
				c11.4,11,17.9,26,23.8,40.6c58,143.6,104.9,304.1,129.6,457.1c3.3,20.7,6.1,42,2.4,62.7c-7.2,40.8-49.6,56.5-58.3,96.3
				c-4.7,21.3-0.5,49.3,16.7,66.9c21.5,21.9,45.8,9.8,72.4,22.3c66.5,31,83.9,148.7,38.5,202.7c-15.9,18.9-37.8,32-60.5,42
				c-56.2,24.8-117.7,32.5-176.1,50.2c-61.5,18.6-123,36.7-184.8,54.2c-78.5,22.2-157,44.5-235.5,66.7
				c-36.1,10.2-73.5,20.5-110.6,15c-72.7-10.9-116.6-105.1-99.9-172.2c11.8-47.5,45.4-129.3-25.7-153.8
				c-31.4-10.8-61.8,14.4-90.2-16.6c-44.2-48.5-49.4-154.3-64.7-215.7C60.8,626.5,36,539.7,18.7,452c-10.1-51.3-21-107.3-5.3-158.5
				C18.9,275.9,27.5,259.2,39.2,245z"/>
		</g>
		<g>
			<path class="st1" d="M384.4,1278.8c-7.5,0-15-0.5-22.4-1.6c-30.9-4.6-59.2-24.1-79.7-54.7c-24.7-37-34.4-85.8-24.8-124.4
				c1.4-5.8,3.2-12,5-18.6c6.7-24.1,14.4-51.5,12.9-75.7c-1.6-26.8-14.8-44.1-40.1-52.9c-11.1-3.8-22.3-2.6-34-1.4
				c-18.4,2-39.3,4.2-58.5-16.8c-33.6-36.8-45-103.3-55.1-162c-3.5-20.6-6.9-40-10.9-56.1c-6.3-25.5-13-51.4-19.5-76.4
				c-15.7-60.5-31.9-123-44.1-185.1c-10-50.8-21.3-108.4-5.1-161.2c5.7-18.7,15-36.2,26.7-50.4l0,0c8.2-10,17.6-18.5,27.9-25.1
				c34.1-22.1,72.4-25.2,109.5-28.3c19.8-1.6,40.3-3.3,59.7-7.9c30.2-7.1,54.9-20.6,71.6-39c14.1-15.5,24.2-34.7,34.1-53.2
				c19-35.9,38.7-73,87-84.8c50.1-12.3,99.1,15.4,142.3,39.8c9.5,5.4,18.5,10.4,27.2,15c65.3,33.8,132.7,25.5,204.1,16.6
				c10-1.2,20.4-2.5,30.6-3.7c24.2-2.7,57.7-1.4,80.3,20.3c12,11.5,18.7,26.7,25.2,42.6c60,148.5,106.2,311.2,129.9,458.3
				c3.3,20.6,6.3,42.6,2.4,64.5c-3.9,22.4-17.6,37.6-30.7,52.2c-12.2,13.5-23.7,26.3-27.6,44.4c-4.1,18.8-1,45.2,15.2,61.8
				c11.1,11.3,23.1,12.4,37,13.6c10.3,0.9,21.9,1.9,33.8,7.5c30.6,14.3,53.5,46.7,62.8,89.1c10.3,46.7,1.7,93.6-22.4,122.3
				c-14.3,17-34.7,31.2-62.5,43.5c-36,15.9-74.6,25-111.9,33.7c-21.4,5-43.6,10.2-64.9,16.7c-66.8,20.2-127.3,37.9-184.9,54.2
				l-235.5,66.7C446.9,1270,415.8,1278.8,384.4,1278.8z M218.3,937.2c6.8,0,13.7,0.8,20.7,3.2c29.7,10.2,45.7,31.3,47.6,62.7
				c1.6,26.1-6.7,55.6-13.3,79.4c-1.8,6.5-3.5,12.7-4.9,18.3c-8.9,35.7,0.3,81,23.3,115.5c18.7,28,44.3,45.7,72,49.9
				c36.5,5.5,74.6-5.3,108.2-14.8l235.5-66.7c57.5-16.3,117.9-34,184.7-54.2c21.6-6.5,44-11.8,65.6-16.9
				c36.8-8.6,74.8-17.6,109.9-33.1c26.2-11.6,45.3-24.8,58.5-40.5c21.6-25.7,29.5-69.9,20-112.7c-8.6-38.9-29.2-68.6-56.6-81.4
				c-10.2-4.8-20.3-5.7-30.1-6.5c-14.7-1.3-30-2.7-44-16.9c-19.1-19.5-22.9-50.2-18.2-71.9c4.6-20.9,17.6-35.4,30.2-49.4
				c12.7-14.1,24.7-27.4,28-46.7c3.6-20.2,0.7-41.1-2.4-60.8c-23.6-146.2-69.5-308.1-129.2-455.9c-5.9-14.7-12.1-28.7-22.5-38.7
				c-19.5-18.7-49.5-19.7-71.3-17.3c-10.2,1.1-20.5,2.4-30.5,3.7c-69.9,8.7-142.2,17.7-210.6-17.8c-8.9-4.6-18-9.8-27.6-15.2
				c-41.4-23.4-88.4-50-134.1-38.7c-43.4,10.7-61.1,44-79.8,79.2c-10.2,19.1-20.7,38.9-35.7,55.5c-18.1,20-44.8,34.7-77.2,42.3
				c-20.2,4.8-41.1,6.5-61.3,8.2c-37.3,3.1-72.6,6-104.3,26.6c-9.3,6-17.9,13.7-25.3,22.9c-10.8,13.2-19.3,29.3-24.7,46.6
				c-15.4,50.2-4.3,106.3,5.4,155.8c12.2,61.8,28.3,124.1,44,184.5c6.5,25.1,13.2,51,19.6,76.6c4.1,16.5,7.5,36.1,11,56.9
				c9.8,57.2,21,122,52.3,156.4c15.3,16.8,30.9,15.1,49,13.2C206.1,937.8,212.1,937.2,218.3,937.2z"/>
		</g>
	</g>
	<g>
		<g>
			<g>
				<path class="st1" d="M589.2,487.9c9.6,25.1,17.1,62.7-18.5,68.8c-18.4,2.6-31.8-10.5-36.1-27.2c-0.7-60.8-86.1,25.1-97.4-40.6
					c-9.5-55.6,94.7-21.8,62.4-72.5c-5.8-16.3,0.6-34.9,17.2-41.8c71.1-13,16.3,81,107.6,39.4c16.9-4.1,33.9,11.4,36.1,27.2
					C664.5,480.5,616,479.5,589.2,487.9z"/>
			</g>
		</g>
		<g>
			<g>
				<path class="st1" d="M948.8,541.6c-18.3-101-69-270-83.3-356c-23.1-59.9-105.3-23.5-235.3-2.8c-43.8-45.5-108.6-71.3-171.7-55.9
					c-57,13.9-101.1,63.9-97.4,124c-249.8,87.7-295.7-13.9-246,214.2c18.9,100.3,67.3,269.3,83.8,354.7c-1.9,9.7,6.1,21.7,18,26.5
					c47,41.3,536.1-114.4,718.9-145.5C982.5,693.6,970.1,680.6,948.8,541.6z M471.5,156.7c43.8-7.8,88.5,6.3,121.9,34.8
					c-59.3,14-126.8,31.4-200.7,50.9C392.8,198.7,429.6,164.2,471.5,156.7z M228.3,819.3C215.8,736,121.7,422.6,127.4,335.5
					c190.5-35.2,147.2-58.7,201.7,180.1c10.9,71.1,19.5,142.6,36,212.8c5.9,25.3,13.5,51.4,26.4,74.4
					C263.8,829.3,234.6,822.7,228.3,819.3z M708.1,724.1c-97.9,26-208.5,55.4-301.4,75.4c-27.6-49.4-34.2-107.2-44.6-162
					c-12.8-75.9-19.7-152.9-38.7-227.7c-9.7-79.8-83.8-112.2,32.4-127.2c393.5-90.1,314.4-174.3,424.5,227.9
					C807.6,702.6,895.5,682.1,708.1,724.1z M936.4,671.2c-39.2-3.7-106.3,50.8-115.3-49.6C798.6,514.1,768,408.4,736.9,303
					c-11.5-34.9-15.6-72.7-33.5-105.1c101.6-19.3,126.4-13.5,132.2-10.5C848.1,270.7,942.1,584.2,936.4,671.2z"/>
			</g>
		</g>
		<g>
			<g>
				<path class="st2" d="M936.4,671.2c-39.2-3.7-106.3,50.8-115.3-49.6C798.6,514.1,768,408.4,736.9,303
					c-11.5-34.9-15.6-72.7-33.5-105.1c101.6-19.3,126.4-13.5,132.2-10.5C848.1,270.7,942.1,584.2,936.4,671.2z"/>
			</g>
		</g>
		<g>
			<g>
				<path class="st2" d="M391.6,802.7c-127.7,26.6-156.9,20-163.3,16.7C215.8,736,121.7,422.6,127.4,335.5
					c190.5-35.2,147.2-58.7,201.7,180.1c10.9,71.1,19.5,142.6,36,212.8C371.1,753.6,378.7,779.7,391.6,802.7z"/>
			</g>
		</g>
		<g>
			<g>
				<path class="st2" d="M780.3,510.5c-110-402.1-31-318-424.5-227.9c-116.2,15-42.1,47.4-32.4,127.2c19,74.8,26,151.8,38.7,227.7
					c10.4,54.8,16.9,112.7,44.6,162c92.8-20,203.4-49.4,301.4-75.4C895.5,682.1,807.6,702.6,780.3,510.5z M589.2,487.9
					c9.6,25.1,17.1,62.7-18.5,68.8c-18.4,2.6-31.8-10.5-36.1-27.2c-0.7-60.8-86.1,25.1-97.4-40.6c-9.5-55.6,94.7-21.8,62.4-72.5
					c-5.8-16.3,0.6-34.9,17.2-41.8c71.1-13,16.3,81,107.6,39.4c16.9-4.1,33.9,11.4,36.1,27.2C664.5,480.5,616,479.5,589.2,487.9z"/>
			</g>
		</g>
	</g>
	<g>
		<g>
			<path class="st1" d="M385.8,1027c-8,1.9-15.3,2.8-21.8,2.7c-6.5-0.1-12.5-1.4-18.1-3.8c-5.5-2.4-10.3-6.3-14.2-11.8
				c-3.9-5.5-6.9-12.4-8.9-20.9c-4-16.9-2.5-31.3,4.7-43.3c7.1-12,18.6-19.9,34.2-23.8c15.7-3.8,29.5-1.9,41.3,5.7
				c11.8,7.5,19.7,19.7,23.8,36.6c1.6,6.8,2.2,13,1.8,18.6c-0.4,5.6-1.6,10.6-3.7,14.8c-2.1,4.2-5.1,8-8.9,11.3
				c-3.8,3.3-8.2,6.1-13.2,8.3C397.8,1023.6,392.1,1025.5,385.8,1027z M366.9,996.3c3.3,2.4,7.3,3.1,12,1.9s7.9-3.5,9.8-7.1
				c1.9-3.7,2.1-8.7,0.5-15.2c-1.7-7-4.4-12.5-8.2-16.5c-3.8-4-7.9-5.4-12.4-4.4c-4.4,1.1-7.4,4.2-9,9.5c-1.6,5.3-1.6,11.4,0.1,18.4
				C361.2,989.4,363.6,993.9,366.9,996.3z"/>
		</g>
		<g>
			<path class="st1" d="M491,1001.9c-16.1,3.8-29.1,3.4-39.1-1.3c-10-4.7-16.7-14.4-20.1-28.9c-1.9-8-3.6-17.1-5.2-27.4
				c-1.6-10.3-2.7-19.6-3.4-27.8c-0.1-1,0.1-1.9,0.7-2.7c0.6-0.8,1.3-1.4,2.3-1.8c3.3-1.2,8-2.5,14.2-4c6.7-1.6,11.8-2.6,15.3-3.1
				c1.2-0.1,2.3,0.1,3.4,0.8c1,0.7,1.5,1.6,1.5,2.8c1.1,18.2,3.4,34.5,7,48.8c1.4,5.3,3.4,9.3,6.2,12c2.8,2.7,6.2,3.6,10.2,2.7
				c4-1,6.7-3.3,7.9-7c1.2-3.7,1.2-8.2,0.1-13.5c-2.9-12.8-8.2-28.4-15.9-46.7c-0.5-1.1-0.4-2.2,0.1-3.2c0.5-1.1,1.4-1.8,2.6-2.2
				c3.4-1.2,8.5-2.6,15.4-4.3c5.9-1.4,10.7-2.3,14.2-2.8c1-0.1,1.9,0.1,2.8,0.6c0.8,0.5,1.5,1.2,1.9,2.1c8,20.7,13.8,38.5,17.1,53.2
				c3.5,14.5,1.8,26.2-4.9,34.9C518.4,991.8,507,998.1,491,1001.9z"/>
		</g>
		<g>
			<path class="st1" d="M599.3,975.9c-36.7,8.8-58.7-2.3-66.1-33.2c-1.9-8.2-2.4-16-1.3-23.4c1.1-7.4,3.5-14.1,7.2-19.9
				s8.7-10.9,15-15.1c6.3-4.2,13.5-7.3,21.6-9.3c12.1-2.9,23-3.2,32.8-1c2,0.5,3.1,1.9,3.3,4.3c0.2,2.1,0.7,6.3,1.5,12.7
				c0.8,6.3,1.3,10.5,1.5,12.7c0.2,1.7-0.3,2.8-1.4,3.4c-1.1,0.6-2.4,0.4-3.7-0.5c-8.1-5-16.6-6.4-25.4-4.3
				c-6.6,1.6-11.1,4.9-13.7,9.9c-2.6,5-2.9,11.6-1,19.5c1.5,6.1,4.5,10.3,9.2,12.5c4.7,2.2,10.5,2.4,17.5,0.8c6.1-1.5,11.5-3.8,16-7
				c4.5-3.2,8.5-7.6,11.9-13.2c0.7-1.5,1.8-2.2,3.2-2.1c1.5,0.1,2.5,1.2,3.1,3.1c1.6,5,4.4,14.8,8.6,29.5c0.6,1.8,0.1,3.5-1.5,4.8
				c-4,2.7-9.7,5.6-17.1,8.7C613.1,972,606.1,974.3,599.3,975.9z"/>
		</g>
		<g>
			<path class="st1" d="M665.8,959.6c-6.2,1.5-11.2,2.5-14.9,3c-1.2,0.1-2.3,0-3.3-0.6c-1-0.5-1.6-1.4-1.9-2.5
				c-9.4-39.5-15.4-70.1-18-91.8c-0.1-1,0.2-2,0.8-2.8c0.6-0.9,1.5-1.5,2.6-1.9c3.3-1.2,7.3-2.3,12.1-3.5c6.6-1.6,11.6-2.6,15.1-3
				c1.4-0.1,2.5,0.2,3.5,0.9c0.9,0.7,1.5,1.7,1.6,3c1.1,9.2,2.5,18,4.4,26.5c0.6,2.6,1.9,4.3,3.9,5.2c2,0.9,4.4,1,7.2,0.4
				c1.7-0.2,3.4-0.6,5.1-1.2c2.8-0.7,4.9-1.9,6.3-3.6c1.4-1.7,1.8-3.9,1.2-6.4c-0.5-2.1-1.1-4.4-1.9-6.9c-0.7-2.5-1.4-4.5-1.9-6.1
				c-0.5-1.6-1.2-3.8-2.2-6.7s-1.7-4.9-2-5.9c-0.5-1.3-0.4-2.5,0.1-3.5c0.5-1,1.4-1.8,2.7-2.4c2.5-0.9,7.6-2.2,15-4
				c4.4-1,8.5-1.9,12.2-2.5c2.6-0.1,4.3,0.8,5.1,2.9c7.5,20.5,15.9,50.5,25.3,90c0.3,1.1,0.1,2.1-0.5,3c-0.6,0.9-1.5,1.6-2.7,2
				c-3.5,1.2-8.5,2.6-14.8,4.1c-7.3,1.8-12.8,2.9-16.4,3.3c-1.3,0.2-2.5-0.1-3.4-0.7c-1-0.6-1.5-1.7-1.7-3.2
				c-0.2-1.4-0.5-3.5-0.9-6.5s-0.7-5.3-1-7c-0.2-1.7-0.6-3.8-1-6.3c-0.4-2.5-0.9-4.7-1.4-6.7c-0.6-2.6-1.9-4.3-3.9-5.3
				s-4.4-1.1-7.2-0.5l-5.4,1.3c-2.7,0.8-4.7,2-6,3.7c-1.3,1.7-1.6,3.8-1,6.4c1.4,5.7,4.1,14.3,8.1,25.6c0.5,1.4,0.5,2.6-0.1,3.6
				c-0.6,1-1.5,1.7-2.7,2.2C678.6,956.4,673.2,957.9,665.8,959.6z"/>
		</g>
		<g>
			<path class="st1" d="M770.2,934.7c-7,1.7-12.2,2.7-15.8,3.2c-1.1,0.1-2.2-0.1-3.1-0.7c-0.9-0.6-1.5-1.4-1.8-2.6
				c-8.9-37.3-15.1-67.8-18.6-91.5c-0.3-2.1,0.6-3.6,2.9-4.6c3-1.1,7.3-2.3,12.7-3.6c5.4-1.3,9.6-2.1,12.7-2.4
				c2.5-0.1,4.1,0.8,4.7,2.8c7.9,23.7,16.2,53.6,24.9,90c0.3,1.1,0.1,2.2-0.5,3.1c-0.6,0.9-1.5,1.6-2.6,2
				C782.3,931.6,777.1,933.1,770.2,934.7z"/>
		</g>
		<g>
			<path class="st1" d="M838.7,918.4c-21.1,5-34.2,8-39.3,8.8c-1.2,0.2-2.2,0-3.2-0.6c-1-0.6-1.6-1.4-1.8-2.5
				c-8.7-37.7-14.7-68.4-18.1-91.9c-0.1-1.1,0.1-2,0.7-2.8c0.6-0.8,1.5-1.4,2.5-1.7c5.8-1.8,17.7-4.8,35.8-9.1
				c17.2-4.1,29.4-6.8,36.6-8.2c1.2-0.2,2.2-0.1,3,0.4c0.9,0.5,1.5,1.3,1.9,2.5c2.2,7.2,4.7,16.4,7.6,27.5c0.4,1.8,0.1,3.1-1.1,3.9
				c-1.2,0.8-2.7,0.7-4.4-0.3c-9.3-4.2-19.6-5-30.9-2.3c-4.5,1.1-7.9,2.6-9.9,4.6c-2.1,2-2.9,4.2-2.3,6.6l0.2,0.8
				c1,4.3,6.2,5.3,15.6,3.1c1.9-0.5,4-1,6.1-1.6c2.1-0.6,4.5-1.3,7.1-2.1c2.6-0.8,4.7-1.4,6.3-1.8c1.2-0.4,2.2-0.4,3.3,0.1
				c1,0.5,1.7,1.3,1.9,2.5l2.6,11.5c0.3,1.4,0.1,2.5-0.8,3.2s-1.9,0.8-3.1,0.3c-7-1.6-13.8-1.5-20.2,0.2c-4.7,1.2-8.2,2.8-10.2,4.8
				c-2.1,2-2.8,4.5-2,7.5l0.5,2.3c0.9,3.6,3.2,5.9,6.9,6.9c3.8,1,8.6,0.9,14.5-0.5c7.3-1.8,12.9-4.2,16.7-7.4
				c3.8-3.2,6.9-8,9.2-14.4c0.4-1.1,1-1.9,2-2.4c0.9-0.5,1.9-0.5,2.9-0.1c1,0.4,1.7,1.2,2.1,2.4c3.3,8.9,6.8,20.1,10.4,33.6
				c0.3,1.1,0.1,2.1-0.4,3c-0.5,0.9-1.3,1.5-2.4,1.8C878.6,908.6,863.3,912.5,838.7,918.4z"/>
		</g>
		<g>
			<path class="st1" d="M939.9,894.8c-6,1.4-13.3,2.6-22,3.4c-8.6,0.9-16.1,1.1-22.5,0.8c-1.9-0.2-3.2-1.4-3.7-3.6
				c-2.9-10.3-5.2-19.1-7-26.2c-0.5-2.1,0-3.5,1.3-4.4c1.4-0.9,2.9-0.8,4.5,0.3c5.3,2.8,10.9,4.4,17,5c6.1,0.6,12.1,0.1,18.1-1.3
				c4.6-1.1,7.9-2.7,9.9-4.7s2.7-4.3,2.1-6.8c-0.4-1.6-1.4-2.9-3.1-3.8c-1.7-0.9-3.8-1.5-6.3-1.9c-2.5-0.3-5.4-0.6-8.5-0.9
				c-3.2-0.3-6.4-0.5-9.7-0.7c-3.3-0.2-6.6-0.7-10-1.5c-3.3-0.8-6.3-1.8-9.1-3c-2.7-1.2-5.2-3.1-7.3-5.6c-2.1-2.5-3.6-5.5-4.4-9
				c-2.2-9.1-0.1-16.7,6.3-22.9c6.4-6.2,16.5-10.9,30.3-14.2c5.9-1.4,12.2-2.5,19-3.3c6.8-0.8,12.9-1.1,18.2-0.8
				c2,0.3,3.3,1.3,3.9,3.1c0.5,1.5,1.6,5,3.3,10.3c1.7,5.4,3,9.3,3.7,11.9c0.7,2.1,0.3,3.7-0.9,4.6c-1.3,0.9-2.6,0.9-4.1-0.1
				c-4.2-1.6-8.7-2.5-13.6-2.9c-4.9-0.3-9.4,0-13.7,0.9c-5,1.1-8.9,2.6-11.7,4.6c-2.8,2-4,4.1-3.4,6.4c0.4,1.5,1.5,2.7,3.3,3.5
				c1.8,0.8,4.1,1.4,6.8,1.5c2.7,0.2,5.8,0.4,9.3,0.5c3.5,0.2,7,0.3,10.6,0.4c3.6,0.1,7.2,0.5,10.8,1.3c3.6,0.8,6.9,1.8,9.8,3.1
				c3,1.3,5.6,3.3,7.8,5.9c2.3,2.6,3.8,5.8,4.7,9.6c2.2,9.3-0.2,17.5-7.2,24.4C965.7,886,954.8,891.3,939.9,894.8z"/>
		</g>
		<g>
			<path class="st1" d="M392.4,1191.5c-14.8,3.5-28.4,6.4-41,8.6c-1.2,0.3-2.4,0-3.4-0.7s-1.7-1.7-2-2.9
				c-3.8-15.9-7.3-32.2-10.5-48.9c-3.2-16.7-5.7-30.9-7.4-42.4c-0.1-1,0-2,0.5-2.8s1.2-1.4,2.3-1.7c8.7-2.5,24.1-6.5,46.3-11.8
				c26.6-6.3,41.5-3,44.6,10.1c1.3,5.4-0.1,10.9-4.2,16.5c-4.1,5.6-10.5,10.3-19.3,14.3c-1.3,0.8-1.8,1.7-1.6,2.5
				c0.2,0.8,1,1.2,2.5,1.3c11.5-0.6,20.8,1,27.8,4.8s11.3,8.7,12.8,14.8c0.9,3.8,0.6,7.4-0.7,10.9c-1.4,3.5-3.6,6.6-6.6,9.3
				c-3,2.7-6.7,5.3-11.2,7.6c-4.5,2.4-9,4.4-13.8,6.1C402.8,1188.8,397.8,1190.3,392.4,1191.5z M373.7,1132.8
				c6-2.3,10.1-4.8,12.4-7.5c2.3-2.6,3.2-5.2,2.6-7.7c-1.1-4.6-5.6-5.9-13.5-4.1c-2.9,0.7-4.9,1.2-5.9,1.5c-2.7,0.6-3.7,2.1-3.2,4.5
				c0.8,3.8,1.7,7.6,2.7,11.3c0.3,1.2,0.9,2,1.7,2.3C371.5,1133.4,372.5,1133.3,373.7,1132.8z M382.2,1166.1
				c1.6-0.3,4.4-0.9,8.4-1.8c3.8-0.9,6.6-2.4,8.4-4.6c1.8-2.1,2.3-4.7,1.6-7.6c-0.7-3.1-3.2-5.3-7.4-6.6c-4.2-1.3-9.7-1.6-16.6-0.9
				c-1.4,0-2.4,0.5-3,1.3c-0.6,0.8-0.7,2-0.4,3.3c0.9,4.6,2,9.1,3.2,13.6C377.2,1165.8,379.1,1166.9,382.2,1166.1z"/>
		</g>
		<g>
			<path class="st1" d="M493.5,1166.8c-21.1,5-34.2,8-39.3,8.8c-1.2,0.2-2.2,0-3.2-0.6c-1-0.6-1.6-1.4-1.8-2.5
				c-8.7-37.7-14.7-68.4-18.1-91.9c-0.1-1.1,0.1-2,0.7-2.8c0.6-0.8,1.5-1.4,2.5-1.7c5.8-1.8,17.7-4.8,35.8-9.1
				c17.2-4.1,29.4-6.8,36.6-8.2c1.2-0.2,2.2-0.1,3,0.4c0.9,0.5,1.5,1.3,1.9,2.5c2.2,7.2,4.7,16.4,7.6,27.5c0.4,1.8,0.1,3.1-1.1,3.9
				c-1.2,0.8-2.7,0.7-4.4-0.3c-9.3-4.2-19.6-5-30.9-2.3c-4.5,1.1-7.9,2.6-9.9,4.6c-2.1,2-2.9,4.2-2.3,6.6l0.2,0.8
				c1,4.3,6.2,5.3,15.6,3.1c1.9-0.5,4-1,6.1-1.6c2.1-0.6,4.5-1.3,7.1-2.1c2.6-0.8,4.7-1.4,6.3-1.8c1.2-0.4,2.2-0.4,3.3,0.1
				c1,0.5,1.7,1.3,1.9,2.5l2.6,11.5c0.3,1.4,0.1,2.5-0.8,3.2s-1.9,0.8-3.1,0.3c-7-1.6-13.8-1.5-20.2,0.2c-4.7,1.2-8.2,2.8-10.2,4.8
				c-2.1,2-2.8,4.5-2,7.5l0.5,2.3c0.9,3.6,3.2,5.9,6.9,6.9c3.8,1,8.6,0.9,14.5-0.5c7.3-1.8,12.9-4.2,16.7-7.4
				c3.8-3.2,6.9-8,9.2-14.4c0.4-1.1,1-1.9,2-2.4c0.9-0.5,1.9-0.5,2.9-0.1c1,0.4,1.7,1.2,2.1,2.4c3.3,8.9,6.8,20.1,10.4,33.6
				c0.3,1.1,0.1,2.1-0.4,3c-0.5,0.9-1.3,1.5-2.4,1.8C533.5,1157.1,518.1,1161,493.5,1166.8z"/>
		</g>
		<g>
			<path class="st1" d="M626.7,1135.5c-6,1.4-11.6,1.8-16.9,1.2c-5.2-0.6-10.1-2.3-14.6-5.1c-4.5-2.8-8.4-6.9-11.7-12.3
				c-3.4-5.5-6-12.1-7.8-19.9c-1.9-8.2-2.4-16-1.3-23.5c1.1-7.5,3.5-14.2,7.3-20.1c3.8-5.9,8.8-11,15-15.3
				c6.3-4.3,13.5-7.4,21.6-9.4c12.3-2.9,23.9-3.7,34.7-2.2c2.2,0.6,3.4,2.1,3.7,4.7c1,7,2,15.2,2.9,24.5c0.2,1.6-0.3,2.6-1.3,3.2
				c-1.1,0.6-2.2,0.5-3.5-0.2c-8.2-3.6-17.1-4.2-26.6-1.9c-6.6,1.6-11.3,5-14.2,10.3c-2.9,5.3-3.3,12.1-1.3,20.5
				c1.5,6.2,3.8,10.4,7,12.8c3.2,2.3,7,2.9,11.5,1.7c3.5-0.8,6.1-2.8,7.9-6c1.8-3.2,2.2-6.9,1.2-11.1c-1-4-2.4-6.9-4.4-8.6
				c-0.9-1-1.2-2.1-1-3.2c0.2-1.1,1-1.8,2.3-2.2c9.2-2.8,19.4-5.7,30.5-8.9c1.2-0.3,2.2-0.2,3.2,0.3c0.9,0.5,1.6,1.4,1.9,2.5
				c5.1,15.4,9.7,31.6,13.7,48.6c0.3,1.2,0.2,2.3-0.4,3.2c-0.5,1-1.4,1.6-2.6,1.9c-1.9,0.7-6,1.7-12.3,3.2c-6.3,1.5-10.6,2.4-13,2.8
				c-1.3,0.2-2.4,0-3.3-0.5c-0.9-0.5-1.4-1.3-1.5-2.5c-0.5-4.4-1-8-1.7-10.8c-0.3-1.3-0.7-2.2-1.2-2.7c-0.5-0.4-1-0.4-1.6,0.2
				c-0.5,0.5-0.9,1.5-1.2,2.9C645.6,1125.3,638.5,1132.7,626.7,1135.5z"/>
		</g>
		<g>
			<path class="st1" d="M743.6,1107.8c-8,1.9-15.3,2.8-21.8,2.7c-6.5-0.1-12.5-1.4-18.1-3.8c-5.5-2.4-10.3-6.3-14.2-11.8
				c-3.9-5.5-6.9-12.4-8.9-20.9c-4-16.9-2.5-31.3,4.7-43.3c7.1-12,18.6-19.9,34.2-23.8c15.7-3.8,29.5-1.9,41.3,5.7
				c11.8,7.5,19.7,19.7,23.8,36.6c1.6,6.8,2.2,13,1.8,18.7c-0.4,5.6-1.6,10.6-3.7,14.8c-2.1,4.2-5.1,8-8.9,11.3
				c-3.8,3.3-8.2,6-13.2,8.3C755.6,1104.4,750,1106.2,743.6,1107.8z M724.8,1077c3.3,2.4,7.3,3.1,12,1.9s7.9-3.5,9.8-7.1
				c1.9-3.7,2.1-8.7,0.5-15.2c-1.7-7-4.4-12.5-8.2-16.5c-3.8-4-7.9-5.4-12.4-4.4c-4.4,1.1-7.4,4.2-9,9.5s-1.6,11.4,0.1,18.4
				C719,1070.1,721.4,1074.6,724.8,1077z"/>
		</g>
		<g>
			<path class="st1" d="M884.1,1074.2c-3.2,0.8-6.4,0.7-9.8-0.2c-3.4-0.9-6.5-2.3-9.5-4.2s-5.8-4.2-8.7-6.7
				c-2.9-2.5-5.6-5.1-8.1-7.7c-2.5-2.6-4.9-5-7.1-7.1c-2.2-2.1-4.2-3.8-6.2-5c-1.9-1.2-3.6-1.7-4.9-1.3c-2.6,0.6-3.1,4.5-1.6,11.6
				c0.5,2.2,1.3,4.9,2.4,8.1c1.1,3.2,2.2,6.6,3.6,10.2c1.3,3.6,2.2,6,2.6,7.3c0.5,1.3,0.5,2.4-0.1,3.4c-0.6,1-1.5,1.8-2.8,2.3
				c-2.7,1-7.8,2.5-15.4,4.3c-6.8,1.6-11.7,2.6-14.6,2.9c-1.2,0.1-2.3-0.2-3.3-0.7c-0.9-0.6-1.5-1.4-1.8-2.5
				c-3.8-16-7.3-32.3-10.5-49.1c-3.2-16.8-5.6-31-7.2-42.6c-0.3-2,0.6-3.6,3-4.6c2.1-0.9,5.4-1.9,10-3c3.5-0.8,6.5-1.4,9.1-1.6
				c2.1-0.3,3.9-0.2,5.4,0.3c1.5,0.5,3.3,1.5,5.2,3.1c0.5,0.5,1.2,1.3,2.2,2.4c2.2,2.4,3.9,4.3,5.2,5.6c1.3,1.4,3.1,3.3,5.5,5.8
				c2.4,2.5,4.4,4.5,6.1,6c1.7,1.5,3.5,3.1,5.4,4.7c2,1.6,3.7,2.7,5.2,3.4c1.5,0.7,2.7,0.9,3.7,0.6c1.3-0.3,1.9-1.8,1.8-4.5
				c-0.1-2.7-0.7-5.9-1.9-9.7c-1.2-3.8-2.4-7.5-3.8-11c-1.4-3.5-2.8-6.8-4.2-9.8c-0.6-1.3-0.6-2.5-0.1-3.6s1.5-2,2.8-2.6
				c3-1.1,7.2-2.3,12.5-3.6c5.1-1.2,9.4-2,12.8-2.5c2.5-0.3,4.2,0.7,4.9,2.7c8,23.6,15.2,49,21.8,75.9
				C896.8,1064.4,893.6,1072,884.1,1074.2z"/>
		</g>
		<g>
			<path class="st1" d="M946.9,1058.7c-21.1,5-34.2,8-39.3,8.8c-1.2,0.2-2.2,0-3.2-0.6c-1-0.6-1.6-1.4-1.8-2.5
				c-8.7-37.7-14.7-68.4-18.1-91.9c-0.1-1.1,0.1-2,0.7-2.8c0.6-0.8,1.5-1.4,2.5-1.7c5.8-1.8,17.7-4.8,35.8-9.1
				c17.2-4.1,29.4-6.8,36.6-8.2c1.2-0.2,2.2-0.1,3,0.4c0.9,0.5,1.5,1.3,1.9,2.5c2.2,7.2,4.7,16.4,7.6,27.5c0.4,1.8,0.1,3.1-1.1,3.9
				c-1.2,0.8-2.7,0.7-4.4-0.3c-9.3-4.2-19.6-5-30.9-2.3c-4.5,1.1-7.9,2.6-9.9,4.6c-2.1,2-2.9,4.2-2.3,6.6l0.2,0.8
				c1,4.3,6.2,5.3,15.6,3.1c1.9-0.5,4-1,6.1-1.6c2.1-0.6,4.5-1.3,7.1-2.1c2.6-0.8,4.7-1.4,6.3-1.8c1.2-0.4,2.2-0.4,3.3,0.1
				c1,0.5,1.7,1.3,1.9,2.5l2.6,11.5c0.3,1.4,0.1,2.5-0.8,3.2s-1.9,0.8-3.1,0.3c-7-1.6-13.8-1.5-20.2,0.2c-4.8,1.2-8.2,2.8-10.2,4.8
				c-2.1,2-2.8,4.5-2,7.5l0.5,2.3c0.9,3.6,3.2,5.9,6.9,6.9c3.8,1,8.6,0.9,14.5-0.5c7.3-1.8,12.9-4.2,16.7-7.4
				c3.8-3.2,6.9-8,9.2-14.4c0.4-1.1,1-1.9,2-2.4c0.9-0.5,1.9-0.5,2.9-0.1c1,0.4,1.7,1.2,2.1,2.4c3.3,8.9,6.8,20.1,10.4,33.6
				c0.3,1.1,0.1,2.1-0.4,3c-0.5,0.9-1.3,1.5-2.4,1.8C986.9,1048.9,971.5,1052.8,946.9,1058.7z"/>
		</g>
		<g>
			<path class="st1" d="M998.7,940.4c6.3-1.5,11.2-2.5,14.8-2.9c1.1-0.2,2.1,0,3,0.6c0.9,0.6,1.5,1.3,1.7,2.4
				c4.1,20.4,6.5,39.9,7.3,58.5c0,2.1-0.9,3.5-2.7,4.2c-2.6,0.9-5.5,1.7-8.5,2.5c-0.4,0.1-3.4,0.7-9.1,1.7c-0.9,0.1-1.8-0.1-2.6-0.6
				c-0.8-0.5-1.4-1.1-1.7-1.8c-9.2-21.4-16-39.9-20.5-55.5c-0.2-1-0.1-2,0.5-2.9c0.6-0.9,1.4-1.5,2.4-1.9
				C988.9,943,994,941.5,998.7,940.4z M1022.4,1040.7c-4.8,1.1-9,0.7-12.6-1.2c-3.6-1.9-6-5.3-7.1-10.1c-1.2-4.9-0.6-9,1.8-12.5
				c2.3-3.4,5.9-5.7,10.7-6.9c4.8-1.1,9-0.7,12.6,1.3c3.6,2,6,5.5,7.2,10.5c1.1,4.7,0.5,8.8-1.8,12.1
				C1030.6,1037.3,1027.1,1039.5,1022.4,1040.7z"/>
		</g>
		<g>
			<path class="st1" d="M1044.4,929.5c6.3-1.5,11.2-2.5,14.8-2.9c1.1-0.2,2.1,0,3,0.6c0.9,0.6,1.5,1.3,1.7,2.4
				c4.1,20.4,6.5,39.9,7.3,58.5c0,2.1-0.9,3.5-2.7,4.2c-2.6,0.9-5.5,1.7-8.5,2.5c-0.4,0.1-3.4,0.7-9.1,1.7c-0.9,0.1-1.8-0.1-2.6-0.6
				c-0.8-0.5-1.4-1.1-1.7-1.8c-9.2-21.4-16-39.9-20.5-55.5c-0.2-1-0.1-2,0.5-2.9c0.6-0.9,1.4-1.5,2.4-1.9
				C1034.5,932.1,1039.6,930.7,1044.4,929.5z M1068,1029.8c-4.8,1.1-9,0.7-12.6-1.2c-3.6-1.9-6-5.3-7.1-10.1
				c-1.2-4.9-0.6-9,1.8-12.5c2.3-3.4,5.9-5.7,10.7-6.9c4.8-1.1,9-0.7,12.6,1.3c3.6,2,6,5.5,7.2,10.5c1.1,4.7,0.5,8.8-1.8,12.1
				C1076.2,1026.4,1072.7,1028.6,1068,1029.8z"/>
		</g>
	</g>
</g>
</svg>
