<?xml version="1.0" encoding="utf-8"?>
<!-- Generator: Adobe Illustrator 24.3.0, SVG Export Plug-In . SVG Version: 6.00 Build 0)  -->
<svg version="1.1" id="Layer_1" xmlns="http://www.w3.org/2000/svg" xmlns:xlink="http://www.w3.org/1999/xlink" x="0px" y="0px"
	 viewBox="0 0 1080 1080" style="enable-background:new 0 0 1080 1080;" xml:space="preserve">
<style type="text/css">
	.st0{fill:#00008B;}
	.st1{fill:#00008B;stroke:#00008B;stroke-width:21.1213;stroke-miterlimit:10;}
</style>
<g>
	<g>
		<path class="st0" d="M609.8,524.7c-67.5,26.8-24.5-39.2-76.5-32.3c-12.3,4.4-17.6,17.7-13.9,29.7c21.6,37.8-52.6,9.7-47.7,50.2
			c5.9,48,70.7-11.2,69.1,32.8c2.5,12.2,11.7,22.2,25.2,21c26-3.1,21.9-30.6,15.8-49.1c19.6-5.2,54.7-2.7,53.2-31.4
			C633.9,534.1,622.2,522.3,609.8,524.7z"/>
		<path class="st0" d="M840,628.4c-9.7-73.7-40.4-197.8-47.8-260.5c-14.6-44.2-75.4-20.7-170.1-10.4
			c-30.1-34.5-76.1-55.4-122.3-46.5c-41.7,8.1-75.4,42.7-74.8,86.3c-183.8,54.7-213.5-20.5-185.5,146.4
			c10.2,73.2,39.2,197.2,48.2,259.5c-1.8,7,3.6,15.9,12.1,19.8c32.6,31.5,391.9-64,525.3-80C859,739.6,850.5,729.7,840,628.4z
			 M508.2,333.2c32-4.1,63.8,7.7,87,29.5c-43.4,8.1-92.9,18.3-147,29.8C449.8,360.8,477.6,337.1,508.2,333.2z M308.9,804.1
			c-6.1-60.7-63.1-290.8-55.9-353.6c139.1-18.7,108.5-37.3,139.6,137.4c5.4,51.8,9.1,103.9,18.5,155.2c3.4,18.6,8,37.7,16.5,54.8
			C334.3,812.5,313.4,806.7,308.9,804.1z M659.4,752c-71.8,15.4-152.8,32.7-220.7,43.9c-18.3-36.7-20.9-78.8-26.6-118.8
			c-6.6-55.4-8.9-111.3-20-166.1c-4.2-58.1-56.7-84.1,27.9-90.9C708,368.8,653.7,305.1,719.2,600C732.2,740,796.5,728.2,659.4,752z
			 M826.5,721.8c-28.2-4-78.7,33-81.6-39.9c-12.6-78.7-31-156.2-49.7-233.5c-7.1-25.7-8.7-53.2-20.6-77.3c74.2-10.4,92-5.3,96.1-2.9
			C776.6,428.9,833.7,659,826.5,721.8z"/>
	</g>
</g>
</svg>
